<?xml version="1.0" encoding="UTF-8"?><svg id="_圖層_2" xmlns="http://www.w3.org/2000/svg" xmlns:xlink="http://www.w3.org/1999/xlink" viewBox="0 0 48 48"><defs><style>.cls-1{fill:none;}.cls-2{clip-path:url(#clippath);}.cls-3{fill:url(#_未命名漸層_2);opacity:.12;}.cls-3,.cls-4,.cls-5,.cls-6,.cls-7,.cls-8,.cls-9,.cls-10,.cls-11,.cls-12,.cls-13,.cls-14,.cls-15,.cls-16,.cls-17{isolation:isolate;}.cls-4{fill:url(#_未命名漸層_3);opacity:.06;}.cls-5{fill:url(#_未命名漸層_10-2);opacity:.62;}.cls-6{fill:url(#_未命名漸層_12-2);opacity:.75;}.cls-18{fill:url(#_未命名漸層_20);}.cls-19{fill:url(#_未命名漸層_16);}.cls-20{fill:url(#_未命名漸層_19);}.cls-21{fill:url(#_未命名漸層_18);}.cls-22{fill:url(#_未命名漸層_18-2);}.cls-23,.cls-11{opacity:.5;}.cls-7{fill:url(#_未命名漸層_5-3);opacity:.31;}.cls-8{fill:url(#_未命名漸層_5-2);opacity:.25;}.cls-9{fill:url(#_未命名漸層_7-2);opacity:.44;}.cls-10{fill:url(#_未命名漸層_5);opacity:.19;}.cls-11{fill:url(#_未命名漸層_8);}.cls-12{fill:url(#_未命名漸層_13);opacity:.81;}.cls-13{fill:url(#_未命名漸層_15);opacity:.94;}.cls-14{fill:url(#_未命名漸層_7);opacity:.38;}.cls-15{fill:url(#_未命名漸層_12);opacity:.69;}.cls-16{fill:url(#_未命名漸層_10);opacity:.56;}.cls-17{fill:url(#_未命名漸層_14);opacity:.88;}</style><clipPath id="clippath"><rect class="cls-1" width="48" height="48"/></clipPath><linearGradient id="_未命名漸層_3" x1="8.85" y1="50.75" x2="55.89" y2="48.44" gradientTransform="translate(-8.36 73.59) scale(1 -1)" gradientUnits="userSpaceOnUse"><stop offset="0" stop-color="#fff"/><stop offset=".27" stop-color="#fcfcfc"/><stop offset=".54" stop-color="#eff0f1"/><stop offset=".8" stop-color="#dcdee0"/><stop offset="1" stop-color="#c6cbcf"/></linearGradient><linearGradient id="_未命名漸層_2" x1="9.38" y1="51.86" x2="55.37" y2="47.33" gradientTransform="translate(-8.36 73.59) scale(1 -1)" gradientUnits="userSpaceOnUse"><stop offset="0" stop-color="#fff"/><stop offset=".27" stop-color="#fcfcfc"/><stop offset=".54" stop-color="#eff0f1"/><stop offset=".8" stop-color="#dbdee0"/><stop offset="1" stop-color="#c6cbcf"/></linearGradient><linearGradient id="_未命名漸層_5" x1="9.97" y1="52.92" x2="54.8" y2="46.27" gradientTransform="translate(-8.36 73.59) scale(1 -1)" gradientUnits="userSpaceOnUse"><stop offset="0" stop-color="#fff"/><stop offset=".27" stop-color="#fcfcfc"/><stop offset=".54" stop-color="#eff0f1"/><stop offset=".8" stop-color="#dbdee0"/><stop offset="1" stop-color="#c6cbcf"/></linearGradient><linearGradient id="_未命名漸層_5-2" x1="10.6" y1="53.92" x2="54.19" y2="45.25" xlink:href="#_未命名漸層_5"/><linearGradient id="_未命名漸層_5-3" x1="11.26" y1="54.88" x2="53.53" y2="44.29" xlink:href="#_未命名漸層_5"/><linearGradient id="_未命名漸層_7" x1="11.96" y1="55.78" x2="52.84" y2="43.38" gradientTransform="translate(-8.36 73.59) scale(1 -1)" gradientUnits="userSpaceOnUse"><stop offset="0" stop-color="#fff"/><stop offset=".27" stop-color="#fcfcfc"/><stop offset=".53" stop-color="#eff0f1"/><stop offset=".8" stop-color="#dbdedf"/><stop offset="1" stop-color="#c6cbcf"/></linearGradient><linearGradient id="_未命名漸層_7-2" x1="12.7" y1="56.63" x2="52.11" y2="42.53" xlink:href="#_未命名漸層_7"/><linearGradient id="_未命名漸層_8" x1="13.47" y1="57.42" x2="51.35" y2="41.73" gradientTransform="translate(-8.36 73.59) scale(1 -1)" gradientUnits="userSpaceOnUse"><stop offset="0" stop-color="#fff"/><stop offset=".27" stop-color="#fbfcfc"/><stop offset=".53" stop-color="#eef0f0"/><stop offset=".8" stop-color="#dadddf"/><stop offset="1" stop-color="#c6cbcf"/></linearGradient><linearGradient id="_未命名漸層_10" x1="14.27" y1="58.15" x2="50.56" y2="40.99" gradientTransform="translate(-8.36 73.59) scale(1 -1)" gradientUnits="userSpaceOnUse"><stop offset="0" stop-color="#fff"/><stop offset=".27" stop-color="#fbfcfc"/><stop offset=".53" stop-color="#eef0f0"/><stop offset=".8" stop-color="#dadcdf"/><stop offset="1" stop-color="#c6cbcf"/></linearGradient><linearGradient id="_未命名漸層_10-2" x1="15.09" y1="58.83" x2="49.75" y2="40.3" xlink:href="#_未命名漸層_10"/><linearGradient id="_未命名漸層_12" x1="15.92" y1="59.45" x2="48.92" y2="39.67" gradientTransform="translate(-8.36 73.59) scale(1 -1)" gradientUnits="userSpaceOnUse"><stop offset="0" stop-color="#fff"/><stop offset=".26" stop-color="#fbfcfc"/><stop offset=".53" stop-color="#eef0f0"/><stop offset=".81" stop-color="#dadcdf"/><stop offset="1" stop-color="#c6cbcf"/></linearGradient><linearGradient id="_未命名漸層_12-2" x1="16.77" y1="60.01" x2="48.07" y2="39.09" xlink:href="#_未命名漸層_12"/><linearGradient id="_未命名漸層_13" x1="17.64" y1="60.51" x2="47.22" y2="38.58" gradientTransform="translate(-8.36 73.59) scale(1 -1)" gradientUnits="userSpaceOnUse"><stop offset="0" stop-color="#fff"/><stop offset=".26" stop-color="#fbfcfc"/><stop offset=".53" stop-color="#eeeff1"/><stop offset=".81" stop-color="#daddde"/><stop offset="1" stop-color="#c6cbcf"/></linearGradient><linearGradient id="_未命名漸層_14" x1="18.51" y1="60.96" x2="46.35" y2="38.12" gradientTransform="translate(-8.36 73.59) scale(1 -1)" gradientUnits="userSpaceOnUse"><stop offset="0" stop-color="#fff"/><stop offset=".26" stop-color="#fbfcfc"/><stop offset=".53" stop-color="#eeeff1"/><stop offset=".81" stop-color="#d9dcde"/><stop offset="1" stop-color="#c6cbcf"/></linearGradient><linearGradient id="_未命名漸層_15" x1="19.39" y1="61.35" x2="45.47" y2="37.71" gradientTransform="translate(-8.36 73.59) scale(1 -1)" gradientUnits="userSpaceOnUse"><stop offset="0" stop-color="#fff"/><stop offset=".26" stop-color="#fbfcfc"/><stop offset=".53" stop-color="#eeeff1"/><stop offset=".81" stop-color="#d9dbde"/><stop offset="1" stop-color="#c6cbcf"/></linearGradient><linearGradient id="_未命名漸層_16" x1="20.27" y1="61.69" x2="44.59" y2="37.37" gradientTransform="translate(-8.36 73.59) scale(1 -1)" gradientUnits="userSpaceOnUse"><stop offset="0" stop-color="#fff"/><stop offset=".26" stop-color="#fbfcfc"/><stop offset=".54" stop-color="#eeeff0"/><stop offset=".81" stop-color="#d9dbde"/><stop offset="1" stop-color="#c6cbcf"/></linearGradient><linearGradient id="_未命名漸層_18" x1="14.27" y1="49.59" x2="50.46" y2="49.59" gradientTransform="translate(-8.36 73.59) scale(1 -1)" gradientUnits="userSpaceOnUse"><stop offset="0" stop-color="#dddee5"/><stop offset="1" stop-color="#fff"/></linearGradient><linearGradient id="_未命名漸層_18-2" x1="14.27" y1="49.59" x2="50.46" y2="49.59" xlink:href="#_未命名漸層_18"/><linearGradient id="_未命名漸層_19" x1="19.06" y1="48.15" x2="45.69" y2="48.15" gradientTransform="translate(-8.36 73.59) scale(1 -1)" gradientUnits="userSpaceOnUse"><stop offset="0" stop-color="#eb987d"/><stop offset="1" stop-color="#e77252"/></linearGradient><linearGradient id="_未命名漸層_20" x1="19.06" y1="48.15" x2="45.69" y2="48.15" gradientTransform="translate(-8.36 73.59) scale(1 -1)" gradientUnits="userSpaceOnUse"><stop offset="0" stop-color="#e77252"/><stop offset="1" stop-color="#eb987d"/></linearGradient></defs><g id="_圖層_1-2"><g class="cls-2"><g><g class="cls-23"><path class="cls-4" d="M47.67,24C47.67,10.93,37.07,.33,24,.33S.33,10.93,.33,24s10.59,23.67,23.67,23.67,23.67-10.59,23.67-23.67h0Z"/><path class="cls-3" d="M47.34,24C47.34,11.11,36.89,.66,24,.66S.66,11.11,.66,24s10.45,23.34,23.34,23.34,23.34-10.45,23.34-23.34h0Z"/><path class="cls-10" d="M47.01,24C47.01,11.29,36.71,.99,24,.99S1,11.29,1,24s10.3,23.01,23.01,23.01,23-10.3,23-23.01h0Z"/><path class="cls-8" d="M46.67,24C46.67,11.47,36.52,1.32,24,1.32S1.32,11.48,1.32,24s10.15,22.67,22.67,22.67,22.67-10.15,22.67-22.67h0Z"/><path class="cls-7" d="M46.34,24C46.34,11.66,36.34,1.66,24,1.66S1.66,11.66,1.66,24s10.01,22.34,22.35,22.34,22.34-10.01,22.34-22.34h0Z"/><path class="cls-14" d="M46.01,24C46.01,11.84,36.15,1.98,24,1.98S1.99,11.84,1.99,24s9.86,22.01,22.01,22.01,22.01-9.86,22.01-22.01h0Z"/><path class="cls-9" d="M45.68,24c0-11.97-9.71-21.68-21.68-21.68S2.32,12.02,2.32,24s9.71,21.68,21.68,21.68,21.68-9.71,21.68-21.68h0Z"/><path class="cls-11" d="M45.35,24c0-11.79-9.56-21.35-21.35-21.35S2.65,12.21,2.65,24s9.56,21.35,21.35,21.35,21.35-9.56,21.35-21.35h0Z"/><path class="cls-16" d="M45.02,24c0-11.61-9.41-21.02-21.02-21.02S2.98,12.39,2.98,24s9.41,21.02,21.02,21.02,21.02-9.41,21.02-21.02h0Z"/><path class="cls-5" d="M44.69,24c0-11.42-9.26-20.69-20.69-20.69S3.31,12.58,3.31,24s9.26,20.69,20.69,20.69,20.69-9.26,20.69-20.69h0Z"/><path class="cls-15" d="M44.35,24c0-11.24-9.11-20.36-20.36-20.36S3.64,12.76,3.64,24s9.11,20.36,20.36,20.36,20.36-9.11,20.36-20.36h0Z"/><path class="cls-6" d="M44.02,24c0-11.06-8.96-20.02-20.02-20.02S3.97,12.94,3.97,24s8.96,20.02,20.02,20.02,20.02-8.96,20.02-20.02h0Z"/><path class="cls-12" d="M43.69,24c0-10.88-8.82-19.7-19.69-19.7S4.31,13.12,4.31,24s8.82,19.7,19.7,19.7,19.69-8.82,19.69-19.7h0Z"/><path class="cls-17" d="M43.36,24c0-10.69-8.67-19.36-19.36-19.36S4.64,13.31,4.64,24s8.67,19.36,19.36,19.36,19.36-8.67,19.36-19.36h0Z"/><path class="cls-13" d="M43.03,24c0-10.51-8.52-19.03-19.03-19.03S4.97,13.49,4.97,24s8.52,19.03,19.03,19.03,19.03-8.52,19.03-19.03h0Z"/><path class="cls-19" d="M42.7,24c0-10.33-8.37-18.7-18.7-18.7S5.3,13.67,5.3,24s8.37,18.7,18.7,18.7,18.7-8.37,18.7-18.7h0Z"/></g><path class="cls-21" d="M40.51,31.4c4.09-9.12,.02-19.82-9.1-23.91-9.12-4.09-19.82-.02-23.91,9.1-4.09,9.12-.01,19.82,9.1,23.91,9.12,4.09,19.82,.02,23.91-9.1Z"/><path class="cls-22" d="M42.1,24c0,8.37-5.69,15.42-13.41,17.48-1.49,.4-3.06,.61-4.68,.61-1.28,0-2.52-.13-3.72-.38-8.21-1.71-14.38-8.99-14.38-17.71C5.91,14.01,14.01,5.9,24,5.9s18.09,8.1,18.09,18.09Z"/><path class="cls-20" d="M24.08,35.8l-.06-.02-.06,.02-.14-.09h0c-1.08-.73-10.99-7.53-12.44-10.59-1.66-3.49-.17-7.68,3.32-9.34,1.69-.81,3.59-.9,5.36-.28,1.75,.62,3.15,1.87,3.96,3.53,1.68-3.45,5.85-4.91,9.32-3.26,1.69,.81,2.97,2.22,3.59,3.99,.63,1.76,.53,3.67-.28,5.36-1.46,3.06-11.36,9.86-12.44,10.57h0s-.14,.1-.14,.1h0Z"/><path class="cls-18" d="M24.08,35.8l-.06-.02-.06,.02-.14-.09h0c-1.08-.73-10.99-7.53-12.44-10.59-1.66-3.49-.17-7.68,3.32-9.34,1.69-.81,3.59-.9,5.36-.28,1.75,.62,3.15,1.87,3.96,3.53,1.68-3.45,5.85-4.91,9.32-3.26,1.69,.81,2.97,2.22,3.59,3.99,.63,1.76,.53,3.67-.28,5.36-1.46,3.06-11.36,9.86-12.44,10.57h0s-.14,.1-.14,.1h0Zm-6.37-20c-.93,0-1.85,.2-2.71,.61-1.52,.73-2.67,2-3.23,3.58-.56,1.59-.47,3.3,.25,4.82,1.31,2.75,10.53,9.22,11.99,10.17h.01c1.46-.96,10.68-7.43,11.99-10.17,.73-1.52,.81-3.23,.25-4.82-.56-1.59-1.71-2.86-3.23-3.58-3.14-1.49-6.91-.16-8.4,2.98-.1,.2-.19,.46-.27,.77l-.34,1.29-.34-1.29c-.08-.31-.17-.57-.27-.77-.73-1.52-2-2.67-3.59-3.23-.69-.24-1.4-.37-2.11-.37h0Z"/></g></g></g></svg>