<?xml version="1.0" encoding="UTF-8"?><svg id="_圖層_2" xmlns="http://www.w3.org/2000/svg" xmlns:xlink="http://www.w3.org/1999/xlink" viewBox="0 0 28.8 28.8"><defs><style>.cls-1{fill:none;}.cls-2{clip-path:url(#clippath);}.cls-3{fill:#d3cec5;}.cls-4{fill:url(#_未命名漸層_2);opacity:.12;}.cls-4,.cls-5,.cls-6,.cls-7,.cls-8,.cls-9,.cls-10,.cls-11,.cls-12,.cls-13,.cls-14,.cls-15,.cls-16,.cls-17,.cls-18{isolation:isolate;}.cls-5{fill:url(#_未命名漸層_3);opacity:.06;}.cls-6{fill:url(#_未命名漸層_10-2);opacity:.62;}.cls-7{fill:url(#_未命名漸層_12-2);opacity:.75;}.cls-19{fill:url(#_未命名漸層_16);}.cls-20{fill:url(#_未命名漸層_18);}.cls-21{fill:url(#_未命名漸層_18-2);}.cls-22,.cls-12{opacity:.5;}.cls-8{fill:url(#_未命名漸層_5-3);opacity:.31;}.cls-9{fill:url(#_未命名漸層_5-2);opacity:.25;}.cls-10{fill:url(#_未命名漸層_7-2);opacity:.44;}.cls-11{fill:url(#_未命名漸層_5);opacity:.19;}.cls-12{fill:url(#_未命名漸層_8);}.cls-13{fill:url(#_未命名漸層_13);opacity:.81;}.cls-14{fill:url(#_未命名漸層_15);opacity:.94;}.cls-15{fill:url(#_未命名漸層_7);opacity:.38;}.cls-16{fill:url(#_未命名漸層_12);opacity:.69;}.cls-17{fill:url(#_未命名漸層_10);opacity:.56;}.cls-18{fill:url(#_未命名漸層_14);opacity:.88;}</style><clipPath id="clippath"><rect class="cls-1" width="28.8" height="28.8"/></clipPath><linearGradient id="_未命名漸層_3" x1="8.65" y1="69.48" x2="36.88" y2="68.1" gradientTransform="translate(-8.36 83.19) scale(1 -1)" gradientUnits="userSpaceOnUse"><stop offset="0" stop-color="#fff"/><stop offset=".27" stop-color="#fcfcfc"/><stop offset=".54" stop-color="#eff0f1"/><stop offset=".8" stop-color="#dcdee0"/><stop offset="1" stop-color="#c6cbcf"/></linearGradient><linearGradient id="_未命名漸層_2" x1="8.97" y1="70.15" x2="36.57" y2="67.43" gradientTransform="translate(-8.36 83.19) scale(1 -1)" gradientUnits="userSpaceOnUse"><stop offset="0" stop-color="#fff"/><stop offset=".27" stop-color="#fcfcfc"/><stop offset=".54" stop-color="#eff0f1"/><stop offset=".8" stop-color="#dbdee0"/><stop offset="1" stop-color="#c6cbcf"/></linearGradient><linearGradient id="_未命名漸層_5" x1="9.33" y1="70.79" x2="36.22" y2="66.8" gradientTransform="translate(-8.36 83.19) scale(1 -1)" gradientUnits="userSpaceOnUse"><stop offset="0" stop-color="#fff"/><stop offset=".27" stop-color="#fcfcfc"/><stop offset=".54" stop-color="#eff0f1"/><stop offset=".8" stop-color="#dbdee0"/><stop offset="1" stop-color="#c6cbcf"/></linearGradient><linearGradient id="_未命名漸層_5-2" x1="9.7" y1="71.39" x2="35.86" y2="66.19" xlink:href="#_未命名漸層_5"/><linearGradient id="_未命名漸層_5-3" x1="10.1" y1="71.96" x2="35.46" y2="65.61" xlink:href="#_未命名漸層_5"/><linearGradient id="_未命名漸層_7" x1="10.52" y1="72.5" x2="35.05" y2="65.07" gradientTransform="translate(-8.36 83.19) scale(1 -1)" gradientUnits="userSpaceOnUse"><stop offset="0" stop-color="#fff"/><stop offset=".27" stop-color="#fcfcfc"/><stop offset=".53" stop-color="#eff0f1"/><stop offset=".8" stop-color="#dbdedf"/><stop offset="1" stop-color="#c6cbcf"/></linearGradient><linearGradient id="_未命名漸層_7-2" x1="10.97" y1="73.01" x2="34.61" y2="64.55" xlink:href="#_未命名漸層_7"/><linearGradient id="_未命名漸層_8" x1="11.43" y1="73.49" x2="34.16" y2="64.07" gradientTransform="translate(-8.36 83.19) scale(1 -1)" gradientUnits="userSpaceOnUse"><stop offset="0" stop-color="#fff"/><stop offset=".27" stop-color="#fbfcfc"/><stop offset=".53" stop-color="#eef0f0"/><stop offset=".8" stop-color="#dadddf"/><stop offset="1" stop-color="#c6cbcf"/></linearGradient><linearGradient id="_未命名漸層_10" x1="11.91" y1="73.93" x2="33.68" y2="63.63" gradientTransform="translate(-8.36 83.19) scale(1 -1)" gradientUnits="userSpaceOnUse"><stop offset="0" stop-color="#fff"/><stop offset=".27" stop-color="#fbfcfc"/><stop offset=".53" stop-color="#eef0f0"/><stop offset=".8" stop-color="#dadcdf"/><stop offset="1" stop-color="#c6cbcf"/></linearGradient><linearGradient id="_未命名漸層_10-2" x1="12.4" y1="74.33" x2="33.2" y2="63.22" xlink:href="#_未命名漸層_10"/><linearGradient id="_未命名漸層_12" x1="12.9" y1="74.71" x2="32.7" y2="62.84" gradientTransform="translate(-8.36 83.19) scale(1 -1)" gradientUnits="userSpaceOnUse"><stop offset="0" stop-color="#fff"/><stop offset=".26" stop-color="#fbfcfc"/><stop offset=".53" stop-color="#eef0f0"/><stop offset=".81" stop-color="#dadcdf"/><stop offset="1" stop-color="#c6cbcf"/></linearGradient><linearGradient id="_未命名漸層_12-2" x1="13.41" y1="75.04" x2="32.19" y2="62.49" xlink:href="#_未命名漸層_12"/><linearGradient id="_未命名漸層_13" x1="13.93" y1="75.34" x2="31.67" y2="62.18" gradientTransform="translate(-8.36 83.19) scale(1 -1)" gradientUnits="userSpaceOnUse"><stop offset="0" stop-color="#fff"/><stop offset=".26" stop-color="#fbfcfc"/><stop offset=".53" stop-color="#eeeff1"/><stop offset=".81" stop-color="#daddde"/><stop offset="1" stop-color="#c6cbcf"/></linearGradient><linearGradient id="_未命名漸層_14" x1="14.45" y1="75.61" x2="31.15" y2="61.91" gradientTransform="translate(-8.36 83.19) scale(1 -1)" gradientUnits="userSpaceOnUse"><stop offset="0" stop-color="#fff"/><stop offset=".26" stop-color="#fbfcfc"/><stop offset=".53" stop-color="#eeeff1"/><stop offset=".81" stop-color="#d9dcde"/><stop offset="1" stop-color="#c6cbcf"/></linearGradient><linearGradient id="_未命名漸層_15" x1="14.98" y1="75.85" x2="30.63" y2="61.67" gradientTransform="translate(-8.36 83.19) scale(1 -1)" gradientUnits="userSpaceOnUse"><stop offset="0" stop-color="#fff"/><stop offset=".26" stop-color="#fbfcfc"/><stop offset=".53" stop-color="#eeeff1"/><stop offset=".81" stop-color="#d9dbde"/><stop offset="1" stop-color="#c6cbcf"/></linearGradient><linearGradient id="_未命名漸層_16" x1="15.51" y1="76.05" x2="30.1" y2="61.46" gradientTransform="translate(-8.36 83.19) scale(1 -1)" gradientUnits="userSpaceOnUse"><stop offset="0" stop-color="#fff"/><stop offset=".26" stop-color="#fbfcfc"/><stop offset=".54" stop-color="#eeeff0"/><stop offset=".81" stop-color="#d9dbde"/><stop offset="1" stop-color="#c6cbcf"/></linearGradient><linearGradient id="_未命名漸層_18" x1="11.91" y1="68.79" x2="33.62" y2="68.79" gradientTransform="translate(-8.36 83.19) scale(1 -1)" gradientUnits="userSpaceOnUse"><stop offset="0" stop-color="#dddee5"/><stop offset="1" stop-color="#fff"/></linearGradient><linearGradient id="_未命名漸層_18-2" x1="11.91" y1="68.79" x2="33.62" y2="68.79" xlink:href="#_未命名漸層_18"/></defs><g id="_圖層_1-2"><g class="cls-2"><g><g class="cls-22"><path class="cls-5" d="M28.6,14.4C28.6,6.56,22.24,.2,14.4,.2S.2,6.56,.2,14.4s6.36,14.2,14.2,14.2,14.2-6.36,14.2-14.2h0Z"/><path class="cls-4" d="M28.4,14.4C28.4,6.67,22.13,.4,14.4,.4S.4,6.67,.4,14.4s6.27,14,14,14,14-6.27,14-14h0Z"/><path class="cls-11" d="M28.2,14.4C28.2,6.77,22.02,.59,14.4,.59S.6,6.78,.6,14.4s6.18,13.8,13.8,13.8,13.8-6.18,13.8-13.8h0Z"/><path class="cls-9" d="M28,14.4C28,6.88,21.91,.79,14.4,.79S.79,6.89,.79,14.4s6.09,13.6,13.6,13.6,13.6-6.09,13.6-13.6h0Z"/><path class="cls-8" d="M27.81,14.4C27.81,6.99,21.8,.99,14.4,.99S.99,7,.99,14.4s6,13.4,13.41,13.4,13.4-6,13.4-13.4h0Z"/><path class="cls-15" d="M27.61,14.4c0-7.29-5.91-13.21-13.21-13.21S1.19,7.1,1.19,14.4s5.91,13.21,13.21,13.21,13.21-5.91,13.21-13.21h0Z"/><path class="cls-10" d="M27.41,14.4c0-7.18-5.82-13.01-13.01-13.01S1.39,7.21,1.39,14.4s5.82,13.01,13.01,13.01,13.01-5.82,13.01-13.01h0Z"/><path class="cls-12" d="M27.21,14.4c0-7.07-5.73-12.81-12.81-12.81S1.59,7.32,1.59,14.4s5.73,12.81,12.81,12.81,12.81-5.73,12.81-12.81h0Z"/><path class="cls-17" d="M27.01,14.4c0-6.96-5.64-12.61-12.61-12.61S1.79,7.44,1.79,14.4s5.65,12.61,12.61,12.61,12.61-5.65,12.61-12.61h0Z"/><path class="cls-6" d="M26.81,14.4c0-6.85-5.56-12.41-12.41-12.41S1.99,7.55,1.99,14.4s5.56,12.41,12.41,12.41,12.41-5.56,12.41-12.41h0Z"/><path class="cls-16" d="M26.61,14.4c0-6.75-5.47-12.21-12.21-12.21S2.19,7.66,2.19,14.4s5.47,12.21,12.21,12.21,12.21-5.47,12.21-12.21h0Z"/><path class="cls-7" d="M26.42,14.4c0-6.64-5.38-12.01-12.01-12.01S2.38,7.77,2.38,14.4s5.38,12.01,12.01,12.01,12.01-5.38,12.01-12.01h0Z"/><path class="cls-13" d="M26.22,14.4c0-6.53-5.29-11.82-11.81-11.82S2.58,7.87,2.58,14.4s5.29,11.82,11.82,11.82,11.81-5.29,11.81-11.82h0Z"/><path class="cls-18" d="M26.02,14.4c0-6.42-5.2-11.62-11.62-11.62S2.78,7.98,2.78,14.4s5.2,11.62,11.62,11.62,11.62-5.2,11.62-11.62h0Z"/><path class="cls-14" d="M25.82,14.4c0-6.31-5.11-11.42-11.42-11.42S2.98,8.09,2.98,14.4s5.11,11.42,11.42,11.42,11.42-5.11,11.42-11.42h0Z"/><path class="cls-19" d="M25.62,14.4c0-6.2-5.02-11.22-11.22-11.22S3.18,8.2,3.18,14.4s5.02,11.22,11.22,11.22,11.22-5.02,11.22-11.22h0Z"/></g><path class="cls-20" d="M24.31,18.84c2.45-5.47,.01-11.89-5.46-14.35-5.47-2.45-11.89-.01-14.35,5.46-2.45,5.47,0,11.89,5.46,14.35,5.47,2.45,11.89,.01,14.35-5.46Z"/><path class="cls-21" d="M25.26,14.4c0,5.02-3.41,9.25-8.05,10.49-.9,.24-1.84,.37-2.81,.37-.77,0-1.51-.08-2.23-.23-4.93-1.03-8.63-5.4-8.63-10.63C3.54,8.4,8.41,3.54,14.4,3.54s10.86,4.86,10.86,10.86Z"/><path class="cls-3" d="M14.45,21.48h-.04s-.04,0-.04,0l-.08-.05h0c-.65-.44-6.59-4.52-7.47-6.35-1-2.09-.11-4.61,1.99-5.61,1.01-.48,2.16-.54,3.21-.17,1.05,.37,1.89,1.12,2.37,2.12,1.01-2.07,3.51-2.95,5.59-1.95,1.01,.48,1.78,1.33,2.16,2.39,.38,1.06,.32,2.2-.17,3.22-.88,1.84-6.82,5.92-7.47,6.34h0s-.08,.06-.08,.06h0Z"/><path class="cls-3" d="M14.45,21.48h-.04s-.04,0-.04,0l-.08-.05h0c-.65-.44-6.59-4.52-7.47-6.35-1-2.09-.11-4.61,1.99-5.61,1.01-.48,2.16-.54,3.21-.17,1.05,.37,1.89,1.12,2.37,2.12,1.01-2.07,3.51-2.95,5.59-1.95,1.01,.48,1.78,1.33,2.16,2.39,.38,1.06,.32,2.2-.17,3.22-.88,1.84-6.82,5.92-7.47,6.34h0s-.08,.06-.08,.06h0Zm-3.82-12c-.56,0-1.11,.12-1.62,.37-.91,.44-1.6,1.2-1.94,2.15-.34,.95-.28,1.98,.15,2.89,.79,1.65,6.32,5.53,7.19,6.1h0c.87-.58,6.41-4.46,7.19-6.1,.44-.91,.49-1.94,.15-2.89-.34-.95-1.03-1.72-1.94-2.15-1.88-.9-4.14-.09-5.04,1.79-.06,.12-.11,.28-.16,.46l-.2,.78-.2-.78c-.05-.18-.1-.34-.16-.46-.44-.91-1.2-1.6-2.15-1.94-.41-.15-.84-.22-1.27-.22h0Z"/></g></g></g></svg>