<svg width="82" height="87" viewBox="0 0 82 87" fill="none" xmlns="http://www.w3.org/2000/svg">
<path fill-rule="evenodd" clip-rule="evenodd" d="M76.64 20.47H50.6731C53.6616 19.5924 56.5232 18.429 57.9 16.97C61.55 13.09 61.55 6.78997 57.9 2.90997C54.25 -0.970031 48.3 -0.970031 44.65 2.90997C43.1969 4.45442 42.0542 7.7648 41.2121 11.1324C40.3707 7.7648 39.2274 4.45442 37.77 2.90997C34.12 -0.970031 28.17 -0.970031 24.52 2.90997C20.87 6.78997 20.87 13.09 24.52 16.97C25.8927 18.429 28.7536 19.5924 31.7426 20.47H5.07C2.27 20.47 0 22.89 0 25.85V33.56C0 36.53 2.28 38.94 5.07 38.94H5.41V79.38C5.41 83.03 8.21 86 11.65 86H30.85V86.05H50.85V86H70.06C73.5 86 76.3 83.03 76.3 79.38V38.94H76.64C79.44 38.94 81.71 36.52 81.71 33.56V25.85C81.71 22.88 79.43 20.47 76.64 20.47ZM55.46 82.95H70.05C71.91 82.95 73.42 81.35 73.42 79.38V38.94H55.46V82.95ZM54.46 82.95V38.94H50.85V82.95H54.46ZM30.85 38.94H26.96V82.95H30.85V38.94ZM8.28 38.94H25.96V82.95H11.65C9.79 82.95 8.28 81.35 8.28 79.38V38.94ZM39.7583 18.4797C39.7213 18.7182 39.6873 18.9431 39.6563 19.1528C34.8064 18.3013 28.2844 16.6528 26.55 14.81V14.82C24.02 12.13 24.02 7.75997 26.55 5.06997C29.08 2.37997 33.21 2.37997 35.74 5.06997C37.4301 6.84597 38.9378 13.3994 39.7583 18.4797ZM42.7647 19.1544C47.6152 18.3034 54.1347 16.6539 55.88 14.81C58.41 12.12 58.41 7.74997 55.88 5.05997C54.61 3.71997 52.95 3.03997 51.29 3.03997L51.28 3.04997C49.62 3.04997 47.95 3.71997 46.69 5.06997C45.0064 6.85885 43.4874 13.4246 42.6672 18.5081C42.7025 18.7366 42.7349 18.9526 42.7647 19.1544ZM76.64 35.89H48.73V23.52H76.64C77.86 23.52 78.84 24.57 78.84 25.85V33.56C78.84 34.85 77.85 35.89 76.64 35.89ZM45.86 23.52V35.89H35.85V23.52H45.86ZM32.98 23.52V35.89H5.07C3.85 35.89 2.87 34.84 2.87 33.56V25.85C2.87 24.56 3.86 23.52 5.07 23.52H32.98Z" fill="white"/>
</svg>
