<svg width="12" height="20" viewBox="0 0 12 20" fill="none" xmlns="http://www.w3.org/2000/svg">
<path d="M11.4978 8.89704L2.66869 0.44262C2.52368 0.302369 2.35115 0.191049 2.16106 0.115081C1.97097 0.0391125 1.76708 0 1.56115 0C1.35522 0 1.15133 0.0391125 0.961244 0.115081C0.771154 0.191049 0.598626 0.302369 0.453612 0.44262C0.163076 0.722981 0 1.10224 0 1.49755C0 1.89287 0.163076 2.27212 0.453612 2.55248L8.17519 10.0343L0.453612 17.4412C0.163076 17.7216 0 18.1008 0 18.4962C0 18.8915 0.163076 19.2707 0.453612 19.5511C0.598083 19.6925 0.770368 19.805 0.960483 19.882C1.1506 19.9591 1.35476 19.9992 1.56115 20C1.76754 19.9992 1.97171 19.9591 2.16182 19.882C2.35194 19.805 2.52422 19.6925 2.66869 19.5511L11.4978 11.0967C11.6562 10.9566 11.7825 10.7865 11.8689 10.5972C11.9554 10.4079 12 10.2035 12 9.99686C12 9.79021 11.9554 9.5858 11.8689 9.39651C11.7825 9.20722 11.6562 9.03716 11.4978 8.89704Z" fill="#4C4948"/>
</svg>
