<svg width="10" height="25" viewBox="0 0 10 25" fill="none" xmlns="http://www.w3.org/2000/svg">
<g clip-path="url(#clip0_388_985)">
<path d="M4.92873 5.80376C6.5314 5.80376 7.83061 4.50454 7.83061 2.90188C7.83061 1.29921 6.5314 0 4.92873 0C3.32607 0 2.02686 1.29921 2.02686 2.90188C2.02686 4.50454 3.32607 5.80376 4.92873 5.80376Z" fill="#4C4948"/>
<path d="M9.81829 13.0035L8.71173 7.74374C8.54006 6.92675 7.80993 6.33521 6.97639 6.33521H2.88109C2.04755 6.33521 1.31742 6.92675 1.14575 7.74374L0.0391893 13.0035C-0.0704326 13.5289 0.0598727 14.0708 0.397012 14.4865C0.636939 14.7823 0.9596 14.985 1.31742 15.0801L0.860319 17.256H2.53774V17.345L2.94934 23.8933C2.98864 24.5138 3.50572 24.9999 4.12829 24.9999C4.43648 24.9999 4.71777 24.882 4.92667 24.6876C5.13764 24.882 5.41687 24.9999 5.72505 24.9999C6.34762 24.9999 6.8647 24.5138 6.904 23.8933L7.3156 17.3677V17.256H8.99509L8.53592 15.0801C8.89374 14.985 9.2164 14.7802 9.45633 14.4865C9.79554 14.0687 9.92584 13.5289 9.81415 13.0035H9.81829Z" fill="#4C4948"/>
</g>
<defs>
<clipPath id="clip0_388_985">
<rect width="9.85563" height="25" fill="white"/>
</clipPath>
</defs>
</svg>
