<svg width="21" height="25" viewBox="0 0 21 25" fill="none" xmlns="http://www.w3.org/2000/svg">
<path d="M13.8537 3.98724C14.3262 3.44262 14.6865 2.81003 14.9139 2.12578C15.1413 1.44153 15.2312 0.719112 15.1786 0C13.7279 0.117101 12.3813 0.799392 11.4289 1.89987C10.9728 2.42731 10.6272 3.0409 10.4125 3.70431C10.1978 4.36772 10.1184 5.06747 10.179 5.76212C10.8866 5.76801 11.5861 5.611 12.2233 5.30322C12.8605 4.99544 13.4184 4.54517 13.8537 3.98724ZM17.0035 13.2866C17.0119 12.3289 17.2642 11.389 17.7365 10.5558C18.2089 9.72259 18.8858 9.02347 19.7033 8.52443C19.1874 7.78103 18.5053 7.16807 17.7113 6.73415C16.9172 6.30023 16.0329 6.05729 15.1286 6.0246C13.1788 5.82461 11.3789 7.16202 10.3415 7.16202C9.30402 7.16202 7.84162 6.0496 6.21672 6.0746C5.15446 6.10959 4.11939 6.4193 3.21248 6.97352C2.30558 7.52774 1.55779 8.30755 1.04207 9.23689C-1.15778 13.0616 0.479606 18.7488 2.67946 21.836C3.67939 23.3484 4.92931 25.0608 6.5792 24.9983C8.22909 24.9358 8.76655 23.9734 10.6789 23.9734C12.5913 23.9734 13.1788 24.9983 14.8037 24.9608C16.4285 24.9233 17.5785 23.4109 18.6284 21.8985C19.3722 20.8005 19.9531 19.6007 20.3533 18.3363C19.3627 17.9138 18.5176 17.2105 17.9222 16.3131C17.3269 15.4156 17.0075 14.3635 17.0035 13.2866Z" fill="#4C4948"/>
</svg>
