<svg width="25" height="18" viewBox="0 0 25 18" fill="none" xmlns="http://www.w3.org/2000/svg">
<path fill-rule="evenodd" clip-rule="evenodd" d="M0 2C0 0.895433 0.895431 0 2 0H23C24.1046 0 25 0.895431 25 2V4.7619H0V2ZM0 5.95238H25V15.8571C25 16.9617 24.1046 17.8571 23 17.8571H2C0.89543 17.8571 0 16.9617 0 15.8571V5.95238ZM2.67857 9.52381C2.5142 9.52381 2.38095 9.65706 2.38095 9.82143C2.38095 9.9858 2.5142 10.119 2.67857 10.119H5.65476C5.81913 10.119 5.95238 9.9858 5.95238 9.82143C5.95238 9.65706 5.81913 9.52381 5.65476 9.52381H2.67857Z" fill="#4C4948"/>
</svg>
