<svg width="27" height="19" viewBox="0 0 27 19" fill="none" xmlns="http://www.w3.org/2000/svg">
<path d="M26 1.84954V16.7511C26 17.2191 25.6182 17.5982 25.1525 17.5982H1.8475C1.37921 17.5982 1 17.2166 1 16.7511V1.84954C1 1.38148 1.38176 1.00245 1.8475 1.00245H25.1525C25.6182 0.99991 26 1.38148 26 1.84954ZM25.1525 17.3438C25.4808 17.3438 25.7455 17.0767 25.7455 16.7511V1.84954C25.7455 1.52139 25.4783 1.25683 25.1525 1.25683H1.8475C1.51919 1.25683 1.2545 1.52394 1.2545 1.84954V16.7511C1.2545 17.0792 1.52174 17.3438 1.8475 17.3438H25.1525Z" fill="#4C4948" stroke="#4C4948" stroke-width="1.5"/>
<path d="M25.9873 1.71734C25.9237 1.31288 25.575 1 25.1525 1H1.8475C1.42502 1 1.07635 1.31034 1.01273 1.71734C1.00509 1.76059 1 1.80384 1 1.84963V16.7486C1 16.7918 1.00509 16.8351 1.01273 16.8758C1.07635 17.2828 1.42502 17.5957 1.8475 17.5957H25.1525C25.5775 17.5957 25.9262 17.2828 25.9873 16.8758C25.9949 16.8351 26 16.7918 26 16.7486V1.84963C26 1.80384 25.9949 1.76059 25.9873 1.71734ZM20.0446 7.20939L18.5074 8.63646C15.5068 11.4244 11.4881 11.4244 8.48753 8.63646L6.95032 7.20939L1.45047 2.10146L4.87611 5.59917L8.52062 9.32582L4.87611 13.0525L1.25196 16.7562C1.25196 16.7537 1.25196 16.7511 1.25196 16.7486V1.89287L1.34104 1.9819C1.30031 1.92848 1.27486 1.86743 1.25705 1.80129C1.27995 1.49604 1.53446 1.25183 1.8475 1.25183H25.1525C25.4655 1.25183 25.72 1.49604 25.7429 1.80129C25.7251 1.86489 25.6997 1.92848 25.659 1.9819L25.748 1.89287V16.7486C25.748 16.7511 25.748 16.7537 25.748 16.7562L22.1239 13.0525L18.4794 9.32582L22.1239 5.59917L25.547 2.10146L20.0446 7.20939ZM25.1525 17.3439H1.8475C1.55482 17.3439 1.31304 17.1302 1.26468 16.8504C1.29013 16.7766 1.3334 16.7079 1.39703 16.6545L6.95541 12.0528L8.49262 10.7809C8.75476 10.5646 9.02708 10.3662 9.30195 10.1856C11.9106 11.8772 15.0919 11.8772 17.7031 10.1856C17.9806 10.3662 18.2503 10.5621 18.5125 10.7809L20.0497 12.0528L25.6081 16.6545C25.6742 16.7079 25.715 16.7766 25.7404 16.8504C25.687 17.1302 25.4452 17.3439 25.1525 17.3439Z" fill="#4C4948" stroke="#4C4948"/>
</svg>
