<svg width="27" height="19" viewBox="0 0 27 19" fill="none" xmlns="http://www.w3.org/2000/svg">
<path d="M25.2723 17.5094H1.72766C1.32397 17.5094 1 17.183 1 16.7821V1.7273C1 1.32382 1.32655 1 1.72766 1H25.2723C25.676 1 26 1.32639 26 1.7273V16.7821C26.0026 17.183 25.676 17.5094 25.2723 17.5094Z" stroke="#4C4948" stroke-width="1.5" stroke-miterlimit="10"/>
<path d="M5.31194 7.8153C6.39544 7.8153 7.27378 6.93739 7.27378 5.85443C7.27378 4.77147 6.39544 3.89355 5.31194 3.89355C4.22844 3.89355 3.3501 4.77147 3.3501 5.85443C3.3501 6.93739 4.22844 7.8153 5.31194 7.8153Z" fill="#4C4948"/>
<path d="M13.5014 17.5093H25.5039C25.8844 17.5093 26.0413 17.021 25.7302 16.8L20.1146 12.8191L13.954 8.45022C13.684 8.25748 13.3214 8.25748 13.0489 8.45022L6.88825 12.8191L1.27271 16.8C0.961587 17.021 1.11843 17.5093 1.49897 17.5093H13.5014Z" fill="#4C4948"/>
</svg>
