<svg width="26" height="26" viewBox="0 0 26 26" fill="none" xmlns="http://www.w3.org/2000/svg">
<path d="M24.1961 14.4106L24.6961 14.2584L24.7264 13.7366C24.7404 13.497 24.75 13.2515 24.75 13C24.75 12.7485 24.7404 12.503 24.7264 12.2634L24.6961 11.7416L24.1961 11.5894L21.6312 10.8088L21.631 10.8087C21.1336 10.6575 20.8979 10.0008 21.2464 9.53427L21.2466 9.53399L22.8792 7.34642L23.1846 6.93724L22.9159 6.50311C22.662 6.09284 22.3834 5.6891 22.0751 5.30611L21.7377 4.88696L21.2325 5.07234L18.71 5.99803L18.7098 5.99809C18.2447 6.1689 17.6904 5.81258 17.7063 5.21376L17.7799 2.45057L17.7938 1.93182L17.3132 1.73603C16.8733 1.55681 16.4181 1.40173 15.9522 1.27593L15.4306 1.13507L15.1318 1.58529L13.6174 3.86726L13.617 3.86789C13.3158 4.32266 12.6842 4.32266 12.383 3.86789L12.3826 3.86726L10.8682 1.58529L10.5714 1.13801L10.0523 1.27473C9.57831 1.39957 9.12355 1.55811 8.68682 1.73603L8.20624 1.93182L8.22006 2.45057L8.29365 5.21372C8.30957 5.81417 7.75801 6.16941 7.2898 5.99795C7.28976 5.99793 7.28972 5.99792 7.28967 5.9979L4.7675 5.07234L4.2603 4.88621L3.92312 5.30835C3.61942 5.68856 3.33918 6.09101 3.0841 6.50311L2.81538 6.93724L3.12075 7.34642L4.75336 9.53399L4.75357 9.53427C5.10205 10.0008 4.86636 10.6575 4.369 10.8087L4.36881 10.8088L1.80393 11.5894L1.30389 11.7416L1.27357 12.2634C1.25964 12.503 1.25 12.7485 1.25 13C1.25 13.2515 1.25964 13.497 1.27357 13.7366L1.30389 14.2584L1.80393 14.4106L4.36881 15.1912L4.369 15.1913C4.86637 15.3425 5.10205 15.9992 4.75357 16.4657L4.75336 16.466L3.12075 18.6536L2.81538 19.0627L3.08409 19.4969C3.33804 19.9072 3.61659 20.3109 3.92491 20.6939L4.26235 21.113L4.7675 20.9277L7.29001 20.002L7.29018 20.0019C7.75529 19.8311 8.30953 20.1874 8.29366 20.7862C8.29366 20.7862 8.29365 20.7862 8.29365 20.7862L8.22006 23.5494L8.20624 24.0682L8.68682 24.264C9.12673 24.4432 9.58191 24.5983 10.0478 24.7241L10.5694 24.8649L10.8682 24.4147L12.3826 22.1327L12.383 22.1321C12.6842 21.6773 13.3158 21.6773 13.617 22.1321L13.6174 22.1327L15.1318 24.4147L15.4286 24.862L15.9477 24.7253C16.4217 24.6004 16.8765 24.4419 17.3132 24.264L17.7938 24.0682L17.7799 23.5494L17.7063 20.7863C17.6904 20.1858 18.2421 19.8305 18.7103 20.0021L21.2325 20.9277L21.7414 21.1144L22.0784 20.6898C22.3801 20.3096 22.66 19.9103 22.9159 19.4969L23.1846 19.0628L22.8792 18.6536L21.2466 16.466L21.2464 16.4657C20.899 16.0006 21.132 15.3446 21.632 15.191C21.6322 15.1909 21.6323 15.1909 21.6325 15.1908L24.1961 14.4106ZM13 17.4034C10.6819 17.4034 8.76075 15.4568 8.76075 13.0023C8.76075 10.5497 10.6801 8.60116 13 8.60116C15.3199 8.60116 17.2393 10.5497 17.2393 13.0023C17.2393 15.4547 15.3179 17.4034 13 17.4034Z" stroke="#4C4948" stroke-width="1.5"/>
</svg>
