<svg width="27" height="25" viewBox="0 0 27 25" fill="none" xmlns="http://www.w3.org/2000/svg">
<path d="M23.1105 14.1747L26.1639 13.2876C26.1799 13.026 26.1905 12.7643 26.1905 12.5C26.1905 12.2357 26.1799 11.974 26.1639 11.7124L23.1105 10.8253C21.9024 10.4747 21.4271 9.03548 22.1971 8.0516L24.1407 5.56573C23.8539 5.12351 23.5433 4.69437 23.2034 4.2914L20.2004 5.34331C19.0136 5.75937 17.771 4.86969 17.8055 3.62937L17.8931 0.489323C17.4019 0.298303 16.8948 0.133452 16.377 0L14.5742 2.59315C13.8626 3.6189 12.3279 3.6189 11.6163 2.59315L9.81346 0C9.29305 0.130835 8.78857 0.298303 8.29737 0.489323L8.38499 3.62937C8.41951 4.8723 7.17955 5.75937 5.99004 5.34331L2.98705 4.2914C2.64985 4.69437 2.33654 5.12351 2.04978 5.56573L3.99336 8.0516C4.76335 9.03548 4.28808 10.4747 3.07998 10.8253L0.0265516 11.7124C0.0106206 11.974 0 12.2357 0 12.5C0 12.7643 0.0106206 13.026 0.0265516 13.2876L3.07998 14.1747C4.28808 14.5253 4.76335 15.9645 3.99336 16.9484L2.04978 19.4343C2.33654 19.8765 2.64719 20.3056 2.98705 20.7086L5.99004 19.6567C7.17689 19.2406 8.41951 20.1303 8.38499 21.3706L8.29737 24.5107C8.78857 24.7017 9.29571 24.8665 9.81346 25L11.6163 22.4068C12.3279 21.3811 13.8626 21.3811 14.5742 22.4068L16.377 25C16.8974 24.8692 17.4019 24.7017 17.8931 24.5107L17.8055 21.3706C17.771 20.1277 19.0109 19.2406 20.2004 19.6567L23.2034 20.7086C23.5406 20.303 23.8539 19.8765 24.1407 19.4343L22.1971 16.9484C21.4271 15.9645 21.9024 14.5279 23.1105 14.1747ZM13.0952 18.3562C9.81612 18.3562 7.15565 15.7369 7.15565 12.5026C7.15565 9.27099 9.81346 6.64905 13.0952 6.64905C16.377 6.64905 19.0348 9.27099 19.0348 12.5026C19.0348 15.7342 16.3744 18.3562 13.0952 18.3562Z" fill="#4C4948"/>
</svg>
