<svg width="25" height="25" viewBox="0 0 25 25" fill="none" xmlns="http://www.w3.org/2000/svg">
<path fill-rule="evenodd" clip-rule="evenodd" d="M25 12.5C25 19.4035 19.4036 25 12.5 25C5.59644 25 0 19.4035 0 12.5C0 5.59644 5.59644 0 12.5 0C19.4036 0 25 5.59644 25 12.5ZM19.5725 7.95467L15.531 11.9962C15.2513 12.2734 15.2513 12.7269 15.531 13.0066L19.5725 17.0481C19.8522 17.3278 19.8522 17.7788 19.5725 18.0585L18.0582 19.5728C17.7786 19.8525 17.3275 19.8525 17.0478 19.5728L13.0063 15.5313C12.7266 15.2516 12.2756 15.2516 11.9959 15.5313L7.95442 19.5728C7.67474 19.8525 7.22372 19.8525 6.94404 19.5728L5.42973 18.0585C5.15005 17.7788 5.15005 17.3278 5.42973 17.0481L9.47125 13.0066C9.75093 12.7269 9.75093 12.2759 9.47125 11.9962L5.42973 7.95467C5.15005 7.67499 5.15005 7.22397 5.42973 6.94429L6.94404 5.42998C7.22372 5.15029 7.67474 5.15029 7.95442 5.42998L11.9959 9.47151C12.2756 9.75119 12.7266 9.75119 13.0063 9.47151L17.0478 5.42998C17.3275 5.15029 17.7786 5.15029 18.0582 5.42998L19.5725 6.94429C19.8522 7.22397 19.8522 7.67499 19.5725 7.95467Z" fill="#4C4948"/>
</svg>
