<svg width="25" height="22" viewBox="0 0 25 22" fill="none" xmlns="http://www.w3.org/2000/svg">
<g clip-path="url(#clip0_388_1010)">
<path d="M9.589 0H4.70107L0 5.33834L5.73767 6.34208L9.589 0Z" fill="#4C4948"/>
<path d="M0.186768 6.27686L10.8364 20.3019L5.48743 7.20393L0.186768 6.27686Z" fill="#4C4948"/>
<path d="M12.4821 6.3788H12.5001H12.5183H18.1957L14.3233 0H12.5183H12.4821H10.6771L6.80469 6.3788H12.4821Z" fill="#4C4948"/>
<path d="M12.5 7.26904H6.52734L12.5423 21.9999L12.8284 21.3081L18.4759 7.26904H12.5Z" fill="#4C4948"/>
<path d="M14.3022 20.1175L24.8132 6.27686L19.5125 7.20393L14.3022 20.1175Z" fill="#4C4948"/>
<path d="M15.4109 0L19.2622 6.34208L24.9999 5.33834L20.2988 0H15.4109Z" fill="#4C4948"/>
</g>
<defs>
<clipPath id="clip0_388_1010">
<rect width="25" height="22" fill="white"/>
</clipPath>
</defs>
</svg>
