<svg width="25" height="17" viewBox="0 0 25 17" fill="none" xmlns="http://www.w3.org/2000/svg">
<path d="M25 0.847099V15.7486C25 16.2167 24.6182 16.5957 24.1525 16.5957H0.847497C0.379209 16.5957 0 16.2141 0 15.7486V0.847099C0 0.379042 0.381754 1.26454e-05 0.847497 1.26454e-05H24.1525C24.6182 -0.00253114 25 0.379042 25 0.847099ZM24.1499 16.3413C24.4783 16.3413 24.7429 16.0742 24.7429 15.7486V0.847099C24.7429 0.51895 24.4757 0.254392 24.1499 0.254392H0.844958C0.516646 0.254392 0.251957 0.521494 0.251957 0.847099V15.7486C0.251957 16.0768 0.519192 16.3413 0.844958 16.3413H24.1499Z" fill="#4C4948"/>
<path d="M12.4962 0.124512H24.3765C24.7532 0.124512 24.9084 0.757912 24.6005 1.04282L19.0421 6.20417L17.5049 7.63123C14.5043 10.4192 10.4856 10.4192 7.48502 7.63123L5.94781 6.20417L0.389428 1.04282C0.0814772 0.757912 0.236726 0.124512 0.613393 0.124512H12.4962Z" fill="#4C4948"/>
<path d="M19.0448 11.0529L17.5076 9.78104C17.2454 9.56481 16.9731 9.3664 16.6982 9.18579C14.0896 10.8774 10.9082 10.8774 8.29703 9.18579C8.01962 9.3664 7.74984 9.56227 7.4877 9.78104L5.9505 11.0529L0.392116 15.6546C0.0841652 15.909 0.239407 16.4737 0.616073 16.4737H12.4964H24.3766C24.7533 16.4737 24.9086 15.909 24.6006 15.6546L19.0448 11.0529Z" fill="#4C4948"/>
<path d="M0.229248 8.32332V0.872559L3.87376 4.59667L7.52081 8.32332L3.87376 12.05L0.229248 15.7766V8.32332Z" fill="#4C4948"/>
<path d="M24.7634 8.32332V0.872559L21.1189 4.59667L17.4744 8.32332L21.1189 12.05L24.7634 15.7766V8.32332Z" fill="#4C4948"/>
</svg>
