<svg width="10" height="25" viewBox="0 0 10 25" fill="none" xmlns="http://www.w3.org/2000/svg">
<g clip-path="url(#clip0_388_1041)">
<path d="M4.92873 5.80169C6.52756 5.80169 7.83061 4.5007 7.83061 2.89981C7.83061 1.29892 6.52756 0 4.92873 0C3.32991 0 2.02686 1.30098 2.02686 2.90188C2.02686 4.50277 3.32784 5.80376 4.92873 5.80376V5.80169ZM4.92873 0.763217C6.10769 0.763217 7.06533 1.72293 7.06533 2.89981C7.06533 4.07669 6.10562 5.0364 4.92873 5.0364C3.75185 5.0364 2.79214 4.07669 2.79214 2.89981C2.79214 1.72293 3.74978 0.763217 4.92873 0.763217Z" fill="#4C4948"/>
<path d="M9.81829 13.0035L8.71173 7.74374C8.54006 6.92675 7.80993 6.33521 6.97639 6.33521H2.88109C2.04755 6.33521 1.31742 6.92675 1.14575 7.74374L0.0391893 13.0035C-0.0704326 13.5289 0.0598727 14.0708 0.397012 14.4865C0.636939 14.7823 0.9596 14.985 1.31742 15.0801L0.860319 17.256H2.53774V17.345L2.94934 23.8933C2.98864 24.5138 3.50572 24.9999 4.12829 24.9999C4.43648 24.9999 4.71777 24.882 4.92667 24.6876C5.13764 24.882 5.41687 24.9999 5.72505 24.9999C6.34762 24.9999 6.8647 24.5138 6.904 23.8933L7.3156 17.3677V17.256H8.99509L8.53592 15.0801C8.89374 14.985 9.2164 14.7802 9.45633 14.4865C9.79554 14.0687 9.92584 13.5289 9.81415 13.0035H9.81829ZM4.13036 24.2367C3.91112 24.2367 3.72704 24.065 3.71463 23.8458L3.30303 17.3326V17.256H4.54817V23.8189C4.54817 24.0485 4.36202 24.2367 4.13036 24.2367ZM6.55652 17.3326L6.14492 23.8458C6.13044 24.065 5.94843 24.2367 5.72919 24.2367C5.50994 24.2367 5.31138 24.0505 5.31138 23.8189V17.256H6.55652V17.3326ZM8.86892 14.0046C8.74069 14.1618 8.57315 14.2735 8.38493 14.3314L7.19564 8.68691C7.1522 8.48007 6.94951 8.3477 6.74267 8.39113C6.53584 8.43457 6.40346 8.63726 6.4469 8.8441L8.05814 16.4907H1.79934L2.14683 14.8402C2.14683 14.8402 2.14683 14.8361 2.14683 14.834L3.40644 8.8441C3.44988 8.63726 3.3175 8.43457 3.11067 8.39113C2.90384 8.3477 2.70114 8.48007 2.65771 8.68691L1.47048 14.3314C1.28226 14.2735 1.11472 14.1618 0.986488 14.0046C0.794133 13.7667 0.719672 13.4586 0.781723 13.1607L1.88828 7.90094C1.9855 7.43556 2.40123 7.09842 2.87695 7.09842H6.96812C7.44384 7.09842 7.85958 7.43556 7.95679 7.90094L9.06335 13.1607C9.1254 13.4606 9.05301 13.7688 8.85858 14.0046H8.86892Z" fill="#4C4948"/>
</g>
<defs>
<clipPath id="clip0_388_1041">
<rect width="9.85563" height="25" fill="white"/>
</clipPath>
</defs>
</svg>
