<svg width="21" height="26" viewBox="0 0 21 26" fill="none" xmlns="http://www.w3.org/2000/svg">
<path fill-rule="evenodd" clip-rule="evenodd" d="M8.3142 1.01258C7.83894 1.07369 7.36863 1.41813 7.09635 2.0348C6.6805 2.95702 6.72505 4.17369 6.77456 5.16813C7.00724 9.81258 7.59141 14.2626 6.48247 14.1959C5.36363 14.1292 4.51708 13.1292 3.41804 12.9681C2.49723 12.8348 1.35858 13.3348 1.05165 14.3848C0.814017 15.1904 1.44275 15.8404 1.99226 16.2237C4.15073 17.7292 6.48247 18.907 7.35873 21.0015L8.23499 23.0959H17.6214C17.7946 22.7681 17.9531 22.4237 18.1115 22.0848C18.7947 20.6015 19.3689 19.0126 19.6561 17.3681C19.8046 16.4904 19.7501 15.6792 19.6759 14.8015C19.567 13.4959 19.5273 12.1848 19.4927 10.8737C19.463 9.70147 18.0273 8.61258 17.2105 9.62369C16.7253 10.2237 16.5273 9.72924 16.453 9.06258C16.4035 8.61813 16.2401 8.32924 15.8837 8.11258C15.2946 7.75147 14.2747 7.75702 13.8985 8.49591C13.7995 8.69035 13.8242 9.12369 13.6015 9.21258C13.3638 9.30702 13.245 9.04035 13.2054 8.80702C13.1163 8.24035 13.3143 7.69591 12.8292 7.29035C12.4232 6.95147 11.7994 6.7848 11.3291 7.06258C10.8984 7.31813 10.7351 7.7848 10.6459 8.29035C10.6063 8.50702 10.5568 8.67369 10.4133 8.8348C10.0172 9.27369 10.0717 4.50702 10.0717 4.19591C10.0618 2.92369 9.88355 0.818132 8.32905 1.01258H8.3142Z" stroke="#4C4948" stroke-width="1.5"/>
<rect x="8.84294" y="24.7499" width="8.07778" height="0.833333" rx="0.416667" stroke="#4C4948" stroke-width="0.833333"/>
</svg>
