<svg width="26" height="24" viewBox="0 0 26 24" fill="none" xmlns="http://www.w3.org/2000/svg">
<path d="M24.9375 6.30948L24.9317 6.25122L24.9192 6.19403C24.2754 3.2556 21.6922 1.0383 18.5737 1.0383C16.253 1.0383 14.2267 2.26615 13.0775 4.10766C11.9237 2.24427 9.87917 1 7.53714 1C3.92217 1 1.02082 3.96267 1.00002 7.58933H1V7.59507V7.59512V7.59518V7.59523V7.59528V7.59533V7.59539V7.59544V7.59549V7.59555V7.5956V7.59565V7.59571V7.59576V7.59581V7.59587V7.59592V7.59597V7.59603V7.59608V7.59614V7.59619V7.59624V7.5963V7.59635V7.59641V7.59646V7.59651V7.59657V7.59662V7.59668V7.59673V7.59678V7.59684V7.59689V7.59695V7.597V7.59706V7.59711V7.59717V7.59722V7.59728V7.59733V7.59738V7.59744V7.59749V7.59755V7.5976V7.59766V7.59771V7.59777V7.59783V7.59788V7.59794V7.59799V7.59805V7.5981V7.59816V7.59821V7.59827V7.59832V7.59838V7.59843V7.59849V7.59855V7.5986V7.59866V7.59871V7.59877V7.59882V7.59888V7.59894V7.59899V7.59905V7.5991V7.59916V7.59922V7.59927V7.59933V7.59938V7.59944V7.5995V7.59955V7.59961V7.59967V7.59972V7.59978V7.59984V7.59989V7.59995V7.60001V7.60006V7.60012V7.60018V7.60023V7.60029V7.60035V7.6004V7.60046V7.60052V7.60057V7.60063V7.60069V7.60074V7.6008V7.60086V7.60092V7.60097V7.60103V7.60109V7.60114V7.6012V7.60126V7.60132V7.60137V7.60143V7.60149V7.60155V7.6016V7.60166V7.60172V7.60178V7.60183V7.60189V7.60195V7.60201V7.60206V7.60212V7.60218V7.60224V7.60229V7.60235V7.60241V7.60247V7.60253V7.60258V7.60264V7.6027V7.60276V7.60282V7.60287V7.60293V7.60299V7.60305V7.60311V7.60316V7.60322V7.60328V7.60334V7.6034V7.60346V7.60351V7.60357V7.60363V7.60369V7.60375V7.60381V7.60386V7.60392V7.60398V7.60404V7.6041V7.60416V7.60421V7.60427V7.60433V7.60439V7.60445V7.60451V7.60457V7.60462V7.60468V7.60474V7.6048V7.60486V7.60492V7.60498V7.60504V7.60509V7.60515V7.60521V7.60527V7.60533V7.60539V7.60545V7.60551V7.60557V7.60562V7.60568V7.60574V7.6058V7.60586V7.60592V7.60598V7.60604V7.6061V7.60615V7.60621V7.60627V7.60633V7.60639V7.60645V7.60651V7.60657V7.60663V7.60669V7.60675V7.6068V7.60686V7.60692V7.60698V7.60704V7.6071V7.60716V7.60722V7.60728V7.60734V7.6074V7.60746V7.60752V7.60757V7.60763V7.60769V7.60775V7.60781V7.60787V7.60793V7.60799V7.60805V7.60811V7.60817V7.60823V7.60829V7.60835V7.60841V7.60846V7.60852V7.60858V7.60864V7.6087V7.60876V7.60882V7.60888V7.60894V7.609V7.60906V7.60912V7.60918V7.60924V7.6093V7.60935V7.60941V7.60947V7.60953V7.60959V7.60965V7.60971V7.60977V7.60983V7.60989V7.60995V7.61001V7.61007V7.61013V7.61019V7.61025V7.61031V7.61036V7.61042V7.61048V7.61054V7.6106V7.61066V7.61072V7.61078V7.61084V7.6109V7.61096V7.61102V7.61108V7.61114V7.6112V7.61126V7.61131V7.61137V7.61143V7.61149V7.61155V7.61161V7.61167V7.61173V7.61179V7.61185V7.61191V7.61197V7.61203V7.61208V7.61214V7.6122V7.61226V7.61232V7.61238V7.61244V7.6125V7.61256V7.61262V7.61268V7.61274V7.6128V7.61285V7.61291V7.61297V7.61303V7.61309V7.61315V7.61321V7.61327V7.61333V7.61339V7.61344V7.6135V7.61356V7.61362V7.61368V7.61374V7.6138V7.61386V7.61392V7.61398V7.61403V7.61409V7.61415V7.61421V7.61427V7.61433V7.61439V7.61445V7.6145V7.61456V7.61462V7.61468V7.61474V7.6148V7.61486V7.61492V7.61497V7.61503V7.61509V7.61515V7.61521V7.61527V7.61532V7.61538V7.61544V7.6155V7.61556V7.61562V7.61568V7.61573V7.61579V7.61585V7.61591V7.61597V7.61603V7.61608V7.61614V7.6162V7.61626V7.61632V7.61637V7.61643V7.61649V7.61655V7.61661V7.61666V7.61672V7.61678V7.61684V7.6169V7.61695V7.61701V7.61707V7.61713V7.61719V7.61724V7.6173V7.61736V7.61742V7.61747V7.61753V7.61759V7.61765V7.6177V7.61776V7.61782V7.61788V7.61793V7.61799V7.61805V7.61811V7.61816V7.61822V7.61828V7.61834V7.61839V7.61845V7.61851V7.61856V7.61862V7.61868V7.61874V7.61879V7.61885V7.61891V7.61896V7.61902V7.61908V7.61913V7.61919V7.61925V7.6193V7.61936V7.61942V7.61947V7.61953V7.61959V7.61964V7.6197V7.61976V7.61981V7.61987V7.61993V7.61998V7.62004V7.62009V7.62015V7.62021V7.62026V7.62032V7.62037V7.62043V7.62049V7.62054V7.6206V7.62065V7.62071V7.62077V7.62082V7.62088V7.62093V7.62099V7.62104V7.6211V7.62116V7.62121V7.62127V7.62132V7.62138V7.62143V7.62149V7.62154V7.6216V7.62165V7.62171V7.62176V7.62182V7.62187V7.62193V7.62198V7.62204V7.62209V7.62215V7.6222V7.62226V7.62231V7.62237V7.62242V7.62248V7.62253V7.62258V7.62264V7.62269V7.62275V7.6228V7.62286V7.62291V7.62296V7.62302V7.62307V7.62313V7.62318V7.62323V7.62329V7.62334V7.62339V7.62345V7.6235V7.62356V7.62361V7.62366V7.62372V7.62377V7.62382V7.62388V7.62393V7.62398V7.62404V7.62409V7.62414V7.62419V7.62425V7.6243V7.62435C1 8.39113 1.13087 9.12654 1.36639 9.81117C2.2291 12.6033 4.50686 15.4809 6.67792 17.7685C8.88167 20.0905 11.1006 21.9321 11.9848 22.6419L11.9867 22.6434C12.5747 23.113 13.4145 23.1239 14.0133 22.6456L14.0145 22.6446C14.8513 21.9741 16.8843 20.2885 18.9681 18.1415C21.0325 16.0144 23.2349 13.3462 24.3136 10.708L24.3136 10.708C24.7323 9.68393 25 8.62233 25 7.57255C25 7.1424 24.9783 6.72207 24.9375 6.30948Z" stroke="#4C4948" stroke-width="2"/>
</svg>
