<svg width="21" height="25" viewBox="0 0 21 25" fill="none" xmlns="http://www.w3.org/2000/svg">
<path fill-rule="evenodd" clip-rule="evenodd" d="M1.45751 8.74156C1.45751 3.91342 5.37286 0 10.2034 0C15.0339 0 18.9493 3.91342 18.9493 8.74156C18.9493 8.74404 18.9493 8.74652 18.9493 8.749H19.8238C20.144 8.749 20.4062 9.00855 20.4062 9.3311V16.8707C20.4062 21.3612 15.8379 24.9999 10.2031 24.9999C4.56833 24.9999 0 21.3612 0 16.8707V9.3311C0 9.01107 0.259678 8.749 0.582386 8.749H1.45751C1.45751 8.74652 1.45751 8.74404 1.45751 8.74156ZM16.0348 8.749H10.5788C10.5364 8.74815 10.4944 8.74702 10.4524 8.7459C10.3694 8.74367 10.2868 8.74145 10.2031 8.74145C10.1183 8.74145 10.0334 8.74373 9.94932 8.74599C9.90849 8.74708 9.86784 8.74818 9.82746 8.749H4.37197C4.37196 8.74652 4.37196 8.74404 4.37196 8.74156C4.37196 5.52364 6.98136 2.91301 10.2034 2.91301C13.4229 2.91301 16.0348 5.52112 16.0348 8.74156C16.0348 8.74404 16.0348 8.74652 16.0348 8.749ZM11.0779 15.1125C11.4314 14.8467 11.6601 14.4239 11.6601 13.9477C11.6601 13.1433 11.0076 12.4912 10.2028 12.4912C9.39802 12.4912 8.7456 13.1433 8.7456 13.9477C8.7456 14.4241 8.97442 14.8471 9.32821 15.1128V19.1815C9.32821 19.5746 9.64587 19.8946 10.0417 19.8946H10.3619C10.7577 19.8946 11.0779 19.5746 11.0779 19.1815V15.1125Z" fill="#4C4948"/>
</svg>
