<svg width="18" height="25" viewBox="0 0 18 25" fill="none" xmlns="http://www.w3.org/2000/svg">
<path d="M2.81579 0.624873V24.3751C2.81579 24.7203 2.53597 25 2.19061 25C1.84525 25 1.56543 24.7203 1.56543 24.3751V0.624873C1.56543 0.27968 1.84525 0 2.19061 0C2.53597 0.00251965 2.81579 0.2822 2.81579 0.624873Z" fill="#4C4948"/>
<path d="M9.26453 0.624873V24.3751C9.26453 24.7203 8.98471 25 8.63935 25C8.29398 25 8.01416 24.7203 8.01416 24.3751V0.624873C8.01416 0.27968 8.29398 0 8.63935 0C8.98471 0.00251965 9.26453 0.2822 9.26453 0.624873Z" fill="#4C4948"/>
<path d="M15.5009 0.624873V24.3751C15.5009 24.7203 15.221 25 14.8757 25C14.5303 25 14.2505 24.7203 14.2505 24.3751V0.624873C14.2505 0.27968 14.5303 0 14.8757 0C15.221 0.00251965 15.5009 0.2822 15.5009 0.624873Z" fill="#4C4948"/>
<path d="M2.18058 22.4554C3.38488 22.4554 4.36116 21.4796 4.36116 20.2759C4.36116 19.0722 3.38488 18.0964 2.18058 18.0964C0.97628 18.0964 0 19.0722 0 20.2759C0 21.4796 0.97628 22.4554 2.18058 22.4554Z" fill="#4C4948"/>
<path d="M8.63907 6.88097C9.84337 6.88097 10.8196 5.90518 10.8196 4.70147C10.8196 3.49777 9.84337 2.52197 8.63907 2.52197C7.43477 2.52197 6.4585 3.49777 6.4585 4.70147C6.4585 5.90518 7.43477 6.88097 8.63907 6.88097Z" fill="#4C4948"/>
<path d="M14.8756 14.6744C16.0799 14.6744 17.0562 13.6986 17.0562 12.4949C17.0562 11.2912 16.0799 10.3154 14.8756 10.3154C13.6713 10.3154 12.6951 11.2912 12.6951 12.4949C12.6951 13.6986 13.6713 14.6744 14.8756 14.6744Z" fill="#4C4948"/>
</svg>
