<svg width="25" height="25" viewBox="0 0 25 25" fill="none" xmlns="http://www.w3.org/2000/svg">
<g clip-path="url(#clip0_388_1017)">
<path d="M9.58089 18.1555C10.3365 17.3998 10.3365 16.1747 9.58089 15.419C8.82523 14.6634 7.60006 14.6634 6.84441 15.419L0.56418 21.6992C-0.191478 22.4549 -0.191478 23.6801 0.564181 24.4357C1.31984 25.1914 2.545 25.1914 3.30066 24.4357L9.58089 18.1555Z" fill="#4C4948"/>
<path d="M14.9303 0.580495C14.9303 0.259897 14.6704 0 14.3498 0C14.0292 0 13.7693 0.259897 13.7693 0.580495V2.53483C13.7693 2.85543 14.0292 3.11533 14.3498 3.11533C14.6704 3.11533 14.9303 2.85543 14.9303 2.53483V0.580495Z" fill="#4C4948"/>
<path d="M24.4195 11.2306C24.7401 11.2306 25 10.9707 25 10.6501C25 10.3295 24.7401 10.0696 24.4195 10.0696H22.4652C22.1446 10.0696 21.8847 10.3295 21.8847 10.6501C21.8847 10.9707 22.1446 11.2306 22.4652 11.2306H24.4195Z" fill="#4C4948"/>
<path d="M22.432 3.39084C22.6587 3.16414 22.6587 2.79659 22.432 2.5699C22.2053 2.3432 21.8377 2.3432 21.611 2.5699L20.3331 3.84783C20.1064 4.07453 20.1064 4.44208 20.3331 4.66878C20.5598 4.89547 20.9273 4.89547 21.154 4.66878L22.432 3.39084Z" fill="#4C4948"/>
<path d="M19.4969 6.13001L18.216 9.90322C18.1657 10.058 18.1889 10.2244 18.2895 10.356L20.6734 13.5487C20.9172 13.8777 20.6811 14.3421 20.2709 14.3343L16.2849 14.284C16.1223 14.284 15.9714 14.3614 15.8746 14.493L13.572 17.7477C13.3359 18.0805 12.8212 17.9992 12.7013 17.6083L11.517 13.8003C11.4706 13.6455 11.3468 13.5255 11.192 13.4752L7.38392 12.291C6.99305 12.171 6.91178 11.6525 7.2446 11.4203L10.4992 9.11762C10.6308 9.02474 10.7082 8.86994 10.7082 8.7074L10.6579 4.72134C10.654 4.31112 11.1184 4.07505 11.4435 4.31886L14.6362 6.70276C14.7678 6.79951 14.9342 6.8266 15.089 6.77629L18.8622 5.49533C19.2492 5.36375 19.6169 5.73527 19.4853 6.1184L19.4969 6.13001Z" fill="#4C4948"/>
</g>
<defs>
<clipPath id="clip0_388_1017">
<rect width="25" height="25" fill="white"/>
</clipPath>
</defs>
</svg>
