<svg width="25" height="25" viewBox="0 0 25 25" fill="none" xmlns="http://www.w3.org/2000/svg">
<path d="M24.7896 22.2234L19.6792 17.1155C20.9415 15.3441 21.6861 13.1775 21.6861 10.8377C21.6861 4.853 16.8307 0 10.8431 0C4.85541 0 0 4.853 0 10.8377C0 16.8224 4.85541 21.6754 10.8431 21.6754C13.1841 21.6754 15.3517 20.9312 17.124 19.6695L22.2344 24.7774C22.5175 25.0603 22.9739 25.0603 23.257 24.7774L24.7896 23.2455C25.0701 22.9651 25.0701 22.5063 24.7896 22.2234ZM10.8431 17.3424C7.24996 17.3424 4.33774 14.4316 4.33774 10.8403C4.33774 7.24892 7.24996 4.33813 10.8431 4.33813C14.4362 4.33813 17.3484 7.24892 17.3484 10.8403C17.3484 14.4316 14.4362 17.3424 10.8431 17.3424Z" fill="#4C4948"/>
</svg>
