<svg width="20" height="27" viewBox="0 0 20 27" fill="none" xmlns="http://www.w3.org/2000/svg">
<path d="M9.77847 26C9.57222 26 9.36596 25.9246 9.20246 25.7737C7.27824 23.9762 1 17.51 1 9.77162C1 4.9471 4.92641 1.01257 9.7508 1C9.75835 1 9.76589 1 9.77344 1C12.1328 1 14.3463 1.95032 16.0064 3.67498C17.7193 5.45495 18.6425 7.89863 18.5368 10.38C18.2199 17.8644 12.1856 24.0566 10.3444 25.7762C10.1885 25.9246 9.98473 26 9.77847 26ZM9.77847 1.25141C9.77093 1.25141 9.76338 1.25141 9.75584 1.25141C5.06979 1.26398 1.25656 5.08538 1.25656 9.77162C1.25656 17.4094 7.47192 23.8102 9.37854 25.5902C9.60492 25.8014 9.95706 25.8014 10.1809 25.5927C12.0045 23.8882 17.9809 17.7563 18.2928 10.3675C18.396 7.95646 17.498 5.58065 15.8329 3.84845C14.218 2.17156 12.0699 1.25141 9.77847 1.25141Z" fill="#4C4948" stroke="#4C4948" stroke-width="1.5"/>
<path d="M9.77854 13.6232C12.5541 13.6232 14.8041 11.3742 14.8041 8.60003C14.8041 5.82584 12.5541 3.5769 9.77854 3.5769C7.00298 3.5769 4.75293 5.82584 4.75293 8.60003C4.75293 11.3742 7.00298 13.6232 9.77854 13.6232Z" fill="#4C4948" stroke="#4C4948"/>
</svg>
