<svg width="27" height="27" viewBox="0 0 27 27" fill="none" xmlns="http://www.w3.org/2000/svg">
<path d="M13.5 26C20.4036 26 26 20.4035 26 13.5C26 6.59644 20.4036 1 13.5 1C6.59644 1 1 6.59644 1 13.5C1 20.4035 6.59644 26 13.5 26Z" stroke="#4C4948" stroke-width="2" stroke-miterlimit="10"/>
<path d="M16.1734 14.3585L16.175 14.3601L20.2166 18.4017C20.301 18.4861 20.301 18.6205 20.2166 18.7049L18.7022 20.2192C18.6178 20.3037 18.4834 20.3037 18.399 20.2192L14.3574 16.1777C13.8825 15.7028 13.1149 15.7028 12.64 16.1777L8.59843 20.2192C8.51401 20.3037 8.37958 20.3037 8.29516 20.2192L6.78084 18.7049C6.69642 18.6205 6.69642 18.4861 6.78084 18.4017L10.8224 14.3601C11.2973 13.8852 11.2973 13.1176 10.8224 12.6426L6.78084 8.60112C6.69642 8.5167 6.69642 8.38226 6.78084 8.29784L8.29516 6.78353C8.37958 6.69911 8.51401 6.69911 8.59843 6.78353L12.64 10.8251C13.1149 11.3 13.8825 11.3 14.3574 10.8251L18.399 6.78353C18.4834 6.69911 18.6178 6.69911 18.7022 6.78353L20.2166 8.29784C20.301 8.38226 20.301 8.5167 20.2166 8.60112L16.175 12.6426C15.7017 13.1159 15.704 13.8848 16.1734 14.3585Z" fill="#4C4948" stroke="#4C4948"/>
</svg>
