<svg width="10" height="25" viewBox="0 0 10 25" fill="none" xmlns="http://www.w3.org/2000/svg">
<g clip-path="url(#clip0_388_988)">
<path d="M7.3881 6.33521H1.93183C0.866634 6.33521 0 7.20184 0 8.26703V14.3438C0 15.107 0.62257 15.7296 1.38579 15.7296C1.50575 15.7296 1.60503 15.7296 1.68776 15.7296V23.6141C1.68776 24.3773 2.31033 24.9999 3.07355 24.9999C3.83677 24.9999 4.45934 24.3773 4.45934 23.6141V16.3687C4.45934 16.2736 4.53586 16.197 4.63101 16.197H4.68892C4.78407 16.197 4.86059 16.2736 4.86059 16.3687V23.6141C4.86059 24.3773 5.48316 24.9999 6.24638 24.9999C7.0096 24.9999 7.63217 24.3773 7.63217 23.6141V15.7296C7.7149 15.7296 7.81418 15.7296 7.93414 15.7296C8.69736 15.7296 9.31993 15.107 9.31993 14.3438V8.26703C9.31993 7.20184 8.4533 6.33521 7.3881 6.33521Z" fill="#4C4948"/>
<path d="M4.65993 5.80169C6.25876 5.80169 7.56181 4.5007 7.56181 2.89981C7.56181 1.29892 6.25876 0 4.65993 0C3.06111 0 1.75806 1.30098 1.75806 2.90188C1.75806 4.50277 3.05904 5.80376 4.65993 5.80376V5.80169Z" fill="#4C4948"/>
</g>
<defs>
<clipPath id="clip0_388_988">
<rect width="9.31993" height="25" fill="white"/>
</clipPath>
</defs>
</svg>
