<svg width="18" height="25" viewBox="0 0 18 25" fill="none" xmlns="http://www.w3.org/2000/svg">
<path d="M8.75562 2.7839e-05C3.72521 -0.0126689 -0.205115 4.31947 0.00829609 9.34232C0.325873 16.8817 6.44875 23.131 8.24242 24.807C8.51935 25.066 8.94871 25.0635 9.22563 24.8045C11.0727 23.0802 17.4699 16.5414 17.4699 8.73288C17.4674 3.91572 13.5701 0.0127246 8.75562 2.7839e-05ZM8.73022 12.6232C5.92793 12.6232 3.65408 10.353 3.65408 7.54954C3.65408 4.74863 5.92538 2.4759 8.73022 2.4759C11.5351 2.4759 13.8064 4.74609 13.8064 7.54954C13.8064 10.353 11.5351 12.6232 8.73022 12.6232Z" fill="#4C4948"/>
</svg>
