<svg width="20" height="12" viewBox="0 0 20 12" fill="none" xmlns="http://www.w3.org/2000/svg">
<path d="M11.103 11.4978L19.5574 2.66869C19.6976 2.52368 19.809 2.35115 19.8849 2.16106C19.9609 1.97097 20 1.76708 20 1.56115C20 1.35522 19.9609 1.15133 19.8849 0.961244C19.809 0.771154 19.6976 0.598626 19.5574 0.453612C19.277 0.163076 18.8978 0 18.5024 0C18.1071 0 17.7279 0.163076 17.4475 0.453612L9.96573 8.17519L2.55877 0.453612C2.27841 0.163076 1.89915 0 1.50384 0C1.10852 0 0.729267 0.163076 0.448906 0.453612C0.307518 0.598083 0.195036 0.770368 0.117979 0.960483C0.0409222 1.1506 0.000822067 1.35476 0 1.56115C0.000822067 1.76754 0.0409222 1.97171 0.117979 2.16182C0.195036 2.35194 0.307518 2.52422 0.448906 2.66869L8.90332 11.4978C9.04344 11.6562 9.21351 11.7825 9.40279 11.8689C9.59208 11.9554 9.79649 12 10.0031 12C10.2098 12 10.4142 11.9554 10.6035 11.8689C10.7928 11.7825 10.9628 11.6562 11.103 11.4978Z" fill="#4C4948"/>
</svg>
