<svg width="25" height="25" viewBox="0 0 25 25" fill="none" xmlns="http://www.w3.org/2000/svg">
<g clip-path="url(#clip0_388_989)">
<path d="M19.8719 11.5385H18.9103C18.3783 11.5385 17.9488 11.968 17.9488 12.5001C17.9488 13.0321 18.3783 13.4616 18.9103 13.4616H19.8719C20.4039 13.4616 20.8334 13.0321 20.8334 12.5001C20.8334 11.968 20.4039 11.5385 19.8719 11.5385ZM12.5001 17.9488C11.968 17.9488 11.5385 18.3783 11.5385 18.9103V19.8719C11.5385 20.4039 11.968 20.8334 12.5001 20.8334C13.0321 20.8334 13.4616 20.4039 13.4616 19.8719V18.9103C13.4616 18.3783 13.0321 17.9488 12.5001 17.9488ZM6.08982 11.5385H5.12829C4.59624 11.5385 4.16675 11.968 4.16675 12.5001C4.16675 13.0321 4.59624 13.4616 5.12829 13.4616H6.08982C6.62188 13.4616 7.05136 13.0321 7.05136 12.5001C7.05136 11.968 6.62188 11.5385 6.08982 11.5385ZM12.5001 4.16675C11.968 4.16675 11.5385 4.59624 11.5385 5.12829V6.08982C11.5385 6.62188 11.968 7.05136 12.5001 7.05136C13.0321 7.05136 13.4616 6.62188 13.4616 6.08982V5.12829C13.4616 4.59624 13.0321 4.16675 12.5001 4.16675Z" fill="#4C4948"/>
<path d="M12.5 0C5.59615 0 0 5.59615 0 12.5C0 19.4038 5.59615 25 12.5 25C19.4038 25 25 19.4038 25 12.5C25 5.59615 19.4038 0 12.5 0ZM12.5 21.7949C7.3718 21.7949 3.20513 17.6282 3.20513 12.5C3.20513 7.3718 7.3718 3.20513 12.5 3.20513C17.6282 3.20513 21.7949 7.3718 21.7949 12.5C21.7949 17.6282 17.6282 21.7949 12.5 21.7949ZM16.6923 7.15385L12.9038 10.9423C12.7756 10.9167 12.641 10.8974 12.5 10.8974C12.2949 10.8974 12.1026 10.9359 11.9231 10.9936L8.98718 8.05769C8.60898 7.67949 8 7.67949 7.62821 8.05769C7.25 8.4359 7.25 9.04487 7.62821 9.41667L10.6218 12.4103C10.5962 12.5385 10.5769 12.6731 10.5769 12.8141C10.5769 13.8782 11.4359 14.7372 12.5 14.7372C13.5641 14.7372 14.4231 13.8782 14.4231 12.8141C14.4231 12.609 14.3846 12.4167 14.3269 12.2372L18.0513 8.51282C18.4295 8.13462 18.4295 7.52564 18.0513 7.15385C17.6731 6.78205 17.0641 6.77564 16.6923 7.15385Z" fill="#4C4948"/>
</g>
<defs>
<clipPath id="clip0_388_989">
<rect width="25" height="25" fill="white"/>
</clipPath>
</defs>
</svg>
