<svg width="27" height="19" viewBox="0 0 27 19" fill="none" xmlns="http://www.w3.org/2000/svg">
<path d="M25.2723 17.5094H1.72766C1.32397 17.5094 1 17.183 1 16.7821V1.7273C1 1.32382 1.32655 1 1.72766 1H25.2723C25.676 1 26 1.32639 26 1.7273V16.7821C26.0026 17.183 25.676 17.5094 25.2723 17.5094Z" stroke="#4C4948" stroke-width="1.5" stroke-miterlimit="10"/>
<path fill-rule="evenodd" clip-rule="evenodd" d="M25.2749 17.5094H1.72765L1.71363 17.5092H13.5014H25.2888L25.2749 17.5094ZM25.8924 17.1653C25.9092 17.0337 25.8612 16.8931 25.7301 16.7999L20.1146 12.8191L13.9539 8.45016C13.6839 8.25742 13.3214 8.25742 13.0488 8.45016L6.88819 12.8191L1.27264 16.7999C1.14049 16.8938 1.09277 17.0359 1.11077 17.1683C1.04052 17.0563 1 16.9239 1 16.7821V1.7273C1 1.32382 1.32654 1 1.72765 1H25.2723C25.676 1 26 1.32639 26 1.7273V16.7821C26.0009 16.9226 25.9614 17.0539 25.8924 17.1653ZM25.8924 17.1653C25.7668 17.368 25.5436 17.5044 25.2888 17.5092H25.5038C25.724 17.5092 25.8693 17.3458 25.8924 17.1653ZM1.11077 17.1683C1.13513 17.3477 1.28001 17.5092 1.49891 17.5092H1.71363C1.4586 17.5045 1.23682 17.3694 1.11077 17.1683ZM7.27628 5.85455C7.27628 6.93751 6.39794 7.81542 5.31444 7.81542C4.23095 7.81542 3.3526 6.93751 3.3526 5.85455C3.3526 4.77159 4.23095 3.89368 5.31444 3.89368C6.39794 3.89368 7.27628 4.77159 7.27628 5.85455Z" fill="#4C4948"/>
</svg>
