<svg width="24" height="25" viewBox="0 0 24 25" fill="none" xmlns="http://www.w3.org/2000/svg">
<path d="M22.7251 4.55958H0.733645C0.330016 4.55958 0 4.23226 0 3.8263C0 3.42287 0.327477 3.09302 0.733645 3.09302H22.7251C23.1287 3.09302 23.4588 3.42033 23.4588 3.8263C23.4588 4.23226 23.1313 4.55958 22.7251 4.55958Z" fill="#4C4948"/>
<path d="M14.7107 1.46656H8.74512C8.34149 1.46656 8.01147 1.13925 8.01147 0.733279C8.01147 0.329849 8.33895 0 8.74512 0H14.7107C15.1143 0 15.4444 0.327311 15.4444 0.733279C15.4444 1.13925 15.1169 1.46656 14.7107 1.46656Z" fill="#4C4948"/>
<path d="M19.4555 6.74414H4.00082C2.74423 6.74414 1.76181 7.69055 1.88874 8.78159L3.48549 22.5033C3.6505 23.9216 5.01877 25 6.6536 25H16.8027C18.4376 25 19.8058 23.9216 19.9708 22.5033L21.5676 8.78159C21.6945 7.69055 20.7121 6.74414 19.4555 6.74414ZM8.3265 21.6964C8.3265 22.2191 7.8518 22.6429 7.26539 22.6429H6.36421C5.7778 22.6429 5.3031 22.2191 5.3031 21.6964L3.95004 10.0477C3.95004 9.52502 4.42475 9.10129 5.01116 9.10129H7.26539C7.8518 9.10129 8.3265 9.52502 8.3265 10.0477V21.6964ZM13.5965 21.973C13.5965 22.3435 13.2741 22.6429 12.8781 22.6429H10.5807C10.1822 22.6429 9.86233 22.3435 9.86233 21.973V9.77368C9.86233 9.40323 10.1847 9.10383 10.5807 9.10383H12.8781C13.2767 9.10383 13.5965 9.40323 13.5965 9.77368V21.973ZM18.1558 21.6964C18.1558 22.2191 17.6811 22.6429 17.0947 22.6429H16.1935C15.6071 22.6429 15.1324 22.2191 15.1324 21.6964V10.0477C15.1324 9.52502 15.6071 9.10129 16.1935 9.10129H18.4477C19.0341 9.10129 19.5088 9.52502 19.5088 10.0477L18.1558 21.6964Z" fill="#4C4948"/>
</svg>
