<svg width="25" height="23" viewBox="0 0 25 23" fill="none" xmlns="http://www.w3.org/2000/svg">
<g clip-path="url(#clip0_388_980)">
<path d="M24.962 21.4775L23.8196 18.0502C23.7561 17.8535 23.7751 17.644 23.8703 17.46C24.7271 15.7907 25.0826 13.8232 24.7145 11.7478C24.1432 8.5681 21.814 5.92149 18.7929 4.90601C19.5736 6.791 19.8084 8.88544 19.4212 10.9608C18.6279 15.1815 15.2514 18.5326 11.0117 19.2878C10.4659 19.3894 9.9074 19.4338 9.35522 19.4465C10.6436 20.8364 12.3636 21.8202 14.2803 22.1693C16.343 22.5374 18.3042 22.1947 19.9671 21.3505C20.1511 21.2553 20.3606 21.2363 20.551 21.2998L23.9909 22.4485C24.5939 22.6516 25.1651 22.0741 24.9683 21.4711L24.962 21.4775Z" fill="#4C4948"/>
<path d="M7.36859 0.158731C3.79535 0.825144 0.932951 3.72563 0.291925 7.30521C-0.0825356 9.38061 0.272884 11.3481 1.13605 13.0173C1.23125 13.2014 1.25029 13.4108 1.18682 13.6076L0.0380533 17.0348C-0.165044 17.6378 0.412514 18.209 1.01546 18.0122L4.45542 16.8635C4.65217 16.8 4.86161 16.819 5.03932 16.9143C6.70218 17.7584 8.66334 18.1011 10.726 17.733C14.2929 17.092 17.1871 14.2359 17.8598 10.6754C19.034 4.39204 13.6456 -1.00908 7.36859 0.158731ZM9.64075 11.7162H5.19799C4.76006 11.7162 4.40464 11.3608 4.40464 10.9229C4.40464 10.485 4.76006 10.1295 5.19799 10.1295H9.64075C10.0787 10.1295 10.4341 10.485 10.4341 10.9229C10.4341 11.3608 10.0787 11.7162 9.64075 11.7162ZM12.8141 8.54284H5.19799C4.76006 8.54284 4.40464 8.18742 4.40464 7.74949C4.40464 7.31156 4.76006 6.95614 5.19799 6.95614H12.8141C13.2521 6.95614 13.6075 7.31156 13.6075 7.74949C13.6075 8.18742 13.2521 8.54284 12.8141 8.54284Z" fill="#4C4948"/>
</g>
<defs>
<clipPath id="clip0_388_980">
<rect width="25" height="22.493" fill="white"/>
</clipPath>
</defs>
</svg>
