<svg width="25" height="24" viewBox="0 0 25 24" fill="none" xmlns="http://www.w3.org/2000/svg">
<path d="M24.1441 23.9125H0.85592C0.382107 23.9125 0 23.5294 0 23.0542V6.41943H25V23.0542C25 23.5294 24.6179 23.9125 24.1441 23.9125ZM1.50805 22.4233H23.492V7.9087H1.50805V22.4258V22.4233Z" fill="#4C4948"/>
<path d="M0.720909 3.20581H24.2791C24.6765 3.20581 25 3.53023 25 3.92873V7.93161H0V3.92873C0 3.53023 0.323518 3.20581 0.720909 3.20581Z" fill="#4C4948"/>
<path d="M4.43488 0H6.37599C6.77338 0 7.0969 0.324419 7.0969 0.722919V6.41176H3.71143V0.722919C3.71143 0.324419 4.03494 0 4.43234 0H4.43488Z" fill="#4C4948"/>
<path d="M18.6238 0H20.565C20.9623 0 21.2859 0.324419 21.2859 0.722919V6.41176H17.9004V0.722919C17.9004 0.324419 18.2239 0 18.6213 0H18.6238Z" fill="#4C4948"/>
<path d="M6.99255 10.8054H4.96993C4.57179 10.8054 4.24902 11.1291 4.24902 11.5283V13.5566C4.24902 13.9559 4.57179 14.2795 4.96993 14.2795H6.99255C7.3907 14.2795 7.71346 13.9559 7.71346 13.5566V11.5283C7.71346 11.1291 7.3907 10.8054 6.99255 10.8054Z" fill="#4C4948"/>
<path d="M13.5114 10.8054H11.4887C11.0906 10.8054 10.7678 11.1291 10.7678 11.5283V13.5566C10.7678 13.9559 11.0906 14.2795 11.4887 14.2795H13.5114C13.9095 14.2795 14.2323 13.9559 14.2323 13.5566V11.5283C14.2323 11.1291 13.9095 10.8054 13.5114 10.8054Z" fill="#4C4948"/>
<path d="M20.0326 10.8054H18.01C17.6118 10.8054 17.2891 11.1291 17.2891 11.5283V13.5566C17.2891 13.9559 17.6118 14.2795 18.01 14.2795H20.0326C20.4307 14.2795 20.7535 13.9559 20.7535 13.5566V11.5283C20.7535 11.1291 20.4307 10.8054 20.0326 10.8054Z" fill="#4C4948"/>
<path d="M6.99255 16.0522H4.96993C4.57179 16.0522 4.24902 16.3759 4.24902 16.7752V18.8034C4.24902 19.2027 4.57179 19.5263 4.96993 19.5263H6.99255C7.3907 19.5263 7.71346 19.2027 7.71346 18.8034V16.7752C7.71346 16.3759 7.3907 16.0522 6.99255 16.0522Z" fill="#4C4948"/>
<path d="M13.5114 16.0522H11.4887C11.0906 16.0522 10.7678 16.3759 10.7678 16.7752V18.8034C10.7678 19.2027 11.0906 19.5263 11.4887 19.5263H13.5114C13.9095 19.5263 14.2323 19.2027 14.2323 18.8034V16.7752C14.2323 16.3759 13.9095 16.0522 13.5114 16.0522Z" fill="#4C4948"/>
<path d="M20.0326 16.0522H18.01C17.6118 16.0522 17.2891 16.3759 17.2891 16.7752V18.8034C17.2891 19.2027 17.6118 19.5263 18.01 19.5263H20.0326C20.4307 19.5263 20.7535 19.2027 20.7535 18.8034V16.7752C20.7535 16.3759 20.4307 16.0522 20.0326 16.0522Z" fill="#4C4948"/>
</svg>
