<svg width="27" height="27" viewBox="0 0 27 27" fill="none" xmlns="http://www.w3.org/2000/svg">
<path d="M25.7896 23.2234L20.6792 18.1155C21.9415 16.3441 22.6861 14.1775 22.6861 11.8377C22.6861 5.853 17.8307 1 11.8431 1C5.85541 1 1 5.853 1 11.8377C1 17.8224 5.85541 22.6754 11.8431 22.6754C14.1841 22.6754 16.3517 21.9312 18.124 20.6695L23.2344 25.7774C23.5175 26.0603 23.9739 26.0603 24.257 25.7774L25.7896 24.2455C26.0701 23.9651 26.0701 23.5064 25.7896 23.2234ZM11.8431 18.3424C8.24996 18.3424 5.33774 15.4316 5.33774 11.8403C5.33774 8.24892 8.24996 5.33813 11.8431 5.33813C15.4362 5.33813 18.3484 8.24892 18.3484 11.8403C18.3484 15.4316 15.4362 18.3424 11.8431 18.3424Z" stroke="#4C4948" stroke-width="2"/>
</svg>
