<svg width="25" height="24" viewBox="0 0 25 24" fill="none" xmlns="http://www.w3.org/2000/svg">
<g clip-path="url(#clip0_388_981)">
<path d="M15.3128 9.47273C15.2974 9.32711 15.2515 9.18149 15.1901 9.04354C15.1825 9.02055 15.1672 9.00522 15.1595 8.98223C15.0905 8.84428 14.9985 8.70633 14.8836 8.5837C13.7876 7.48775 12.3468 6.9436 10.9136 6.9436C9.47279 6.9436 8.03962 7.48775 6.94367 8.5837L1.64784 13.8795C-0.54407 16.0714 -0.54407 19.6352 1.64784 21.8271C2.74379 22.9231 4.18462 23.4672 5.61779 23.4672C7.05096 23.4672 8.4918 22.9231 9.58775 21.8271L12.707 18.7079C11.5957 18.5163 10.5534 18.0871 9.62607 17.4586L7.4265 19.6582C6.46083 20.6239 4.78242 20.6239 3.81675 19.6582C2.82043 18.6619 2.82043 17.0448 3.81675 16.0484L6.71375 13.1515L9.11258 10.7526C9.35783 10.5074 9.6414 10.3234 9.94796 10.2008C10.1089 10.1395 10.2698 10.0858 10.4385 10.0552C11.2432 9.90191 12.1015 10.1395 12.7223 10.7526C13.3201 11.3504 14.2935 11.3504 14.8912 10.7526C15.0982 10.5457 15.2285 10.2928 15.2974 10.0245C15.2974 10.0245 15.2974 10.0092 15.2974 10.0015C15.3281 9.84826 15.3358 9.69498 15.3281 9.5417C15.3281 9.51871 15.3281 9.49572 15.3281 9.47273H15.3128Z" fill="#4C4948"/>
<path d="M23.3523 1.64776C22.2947 0.590129 20.8845 0 19.3823 0C17.8802 0 16.47 0.582465 15.4124 1.64776L12.2931 4.76701C13.3814 4.95861 14.4314 5.37247 15.3741 6.01625L17.5813 3.80901C18.547 2.84335 20.2254 2.84335 21.1911 3.80901C21.6739 4.29185 21.9421 4.93562 21.9421 5.61772C21.9421 6.29982 21.6739 6.94359 21.1911 7.41876L20.2177 8.39209L15.8952 12.7146C14.9296 13.6803 13.2511 13.6803 12.2855 12.7146C11.6877 12.1168 10.7144 12.1168 10.1166 12.7146C9.51876 13.3124 9.51876 14.2857 10.1166 14.8835C11.1742 15.9411 12.5844 16.5313 14.0865 16.5313C15.5887 16.5313 16.9988 15.9488 18.0565 14.8835L22.379 10.561L23.3523 9.58768C24.4099 8.53004 25.0001 7.11987 25.0001 5.61772C25.0001 4.11557 24.4176 2.7054 23.3523 1.64776Z" fill="#4C4948"/>
</g>
<defs>
<clipPath id="clip0_388_981">
<rect width="25" height="23.4672" fill="white"/>
</clipPath>
</defs>
</svg>
