<svg width="19" height="27" viewBox="0 0 19 27" fill="none" xmlns="http://www.w3.org/2000/svg">
<path d="M1.71558 26.5H16.5986C17.2689 26.5 17.8142 25.9554 17.8142 25.2848V1.71522C17.8142 1.04574 17.2726 0.5 16.5986 0.5H1.71558C1.04638 0.5 0.5 1.04091 0.5 1.71522V25.2848C0.5 25.9543 1.04154 26.5 1.71558 26.5Z" stroke="#4C4948" stroke-miterlimit="10" stroke-linecap="round" stroke-linejoin="bevel"/>
<path d="M14.4473 22.7523H3.86697C3.48325 22.7523 3.17529 22.4179 3.17529 22.0071V5.0082C3.17529 4.59475 3.48569 4.26294 3.86697 4.26294H14.4473C14.831 4.26294 15.139 4.59739 15.139 5.0082V22.0044C15.1414 22.4179 14.831 22.7523 14.4473 22.7523Z" fill="#4C4948"/>
<rect x="7.52563" y="23.8398" width="3.26283" height="1.08761" rx="0.543806" fill="#4C4948"/>
<path d="M14.1739 3.12302H4.13811C3.94088 3.12302 3.77905 2.96381 3.77905 2.76415C3.77905 2.56702 3.93835 2.40527 4.13811 2.40527H14.1739C14.3711 2.40527 14.533 2.56449 14.533 2.76415C14.533 2.96128 14.3737 3.12302 14.1739 3.12302Z" fill="#4C4948"/>
</svg>
