<svg width="25" height="25" viewBox="0 0 25 25" fill="none" xmlns="http://www.w3.org/2000/svg">
<g clip-path="url(#clip0_388_987)">
<path d="M12.5 0C5.60811 0 0 5.60811 0 12.5C0 19.3919 5.60811 25 12.5 25C19.3919 25 25 19.3919 25 12.5C25 5.60811 19.3919 0 12.5 0ZM12.5 22.2973C7.09459 22.2973 2.7027 17.9054 2.7027 12.5C2.7027 7.09459 7.09459 2.7027 12.5 2.7027C17.9054 2.7027 22.2973 7.09459 22.2973 12.5C22.2973 17.9054 17.9054 22.2973 12.5 22.2973Z" fill="#4C4948"/>
<path d="M12.8378 8.98644C14.108 8.98644 15.1351 7.95941 15.1351 6.68914C15.1351 5.41887 14.108 4.39185 12.8378 4.39185C11.5675 4.39185 10.5405 5.41887 10.5405 6.68914C10.5405 7.95941 11.5675 8.98644 12.8378 8.98644ZM15.0675 13.6756C15.4526 12.027 14.2026 10.4527 12.5134 10.4527H10.5337C10.1621 10.4527 9.85804 10.7567 9.85804 11.1283C9.85804 11.2702 9.92561 11.4054 10.027 11.5202C10.358 11.8783 10.5337 12.3513 10.4189 12.831L9.38507 17.0472C8.99993 18.6959 10.2499 20.2702 11.9391 20.2702H13.9189C14.2905 20.2702 14.5945 19.9662 14.5945 19.5945C14.5945 19.4527 14.527 19.3175 14.4256 19.2027C14.0945 18.8445 13.9189 18.3716 14.0337 17.8918L15.0675 13.6756Z" fill="#4C4948"/>
</g>
<defs>
<clipPath id="clip0_388_987">
<rect width="25" height="25" fill="white"/>
</clipPath>
</defs>
</svg>
