<svg width="24" height="21" viewBox="0 0 24 21" fill="none" xmlns="http://www.w3.org/2000/svg">
<path fill-rule="evenodd" clip-rule="evenodd" d="M0.866025 9.5C0.387766 9.77612 0.223877 10.3878 0.5 10.866L2 13.4641C2.95652 12.9119 4.1798 13.2396 4.73205 14.1962C5.2843 15.1527 4.95652 16.376 4 16.9282L5.5 19.5263C5.77612 20.0045 6.38777 20.1684 6.86603 19.8923L22.4545 10.8923C22.9327 10.6162 23.0966 10.0045 22.8205 9.52628L21.3205 6.9282C20.364 7.48045 19.1407 7.15267 18.5885 6.19615C18.0362 5.23963 18.364 4.01635 19.3205 3.4641L17.8205 0.866025C17.5444 0.387766 16.9327 0.223877 16.4545 0.5L0.866025 9.5ZM13.4904 3.36603L12.6244 3.86603L14.6244 7.33013L15.4904 6.83013L13.4904 3.36603ZM15.6244 9.06218L16.4904 8.56218L18.4904 12.0263L17.6244 12.5263L15.6244 9.06218ZM4.37715 11.5814L4.57645 11.9266C4.71622 12.1687 4.89857 12.3603 5.12349 12.5014C5.34842 12.6426 5.60087 12.714 5.88082 12.7157C6.16377 12.7158 6.46065 12.626 6.77147 12.4466C7.07931 12.2689 7.30246 12.0583 7.44092 11.815C7.57938 11.5717 7.64225 11.3182 7.62952 11.0546C7.61978 10.7892 7.54502 10.5355 7.40525 10.2934L7.20596 9.94824C7.06274 9.70018 6.87866 9.50559 6.65373 9.36448C6.43179 9.22164 6.17935 9.15021 5.89641 9.15018C5.61645 9.14843 5.31957 9.23815 5.00575 9.41933C4.70091 9.59533 4.47925 9.805 4.34079 10.0483C4.20233 10.2916 4.13797 10.546 4.14771 10.8113C4.15745 11.0767 4.23393 11.3334 4.37715 11.5814ZM5.43271 11.4323L5.23341 11.0871C5.16957 10.9765 5.13033 10.8637 5.11569 10.7486C5.10231 10.6288 5.12108 10.5163 5.17197 10.4112C5.22115 10.3032 5.30551 10.2146 5.42506 10.1456C5.55357 10.0714 5.67543 10.0409 5.79064 10.0541C5.9071 10.0625 6.01237 10.1034 6.10644 10.1766C6.20178 10.2451 6.28137 10.3346 6.34521 10.4452L6.54451 10.7904C6.6049 10.895 6.64328 11.0063 6.65964 11.1244C6.67428 11.2395 6.65851 11.3502 6.61232 11.4566C6.56441 11.5599 6.4762 11.6487 6.34769 11.7229C6.22515 11.7937 6.10415 11.8257 5.9847 11.8189C5.8665 11.8075 5.75974 11.7675 5.66441 11.699C5.57034 11.6258 5.49311 11.5369 5.43271 11.4323ZM11.4534 12.3915L11.6527 12.7366C11.7942 12.9817 11.9774 13.1748 12.2024 13.3159C12.4303 13.4553 12.6857 13.525 12.9686 13.525C13.2516 13.5251 13.5485 13.4354 13.8593 13.2559C14.1671 13.0782 14.3903 12.8676 14.5287 12.6243C14.6672 12.381 14.7301 12.1275 14.7173 11.8639C14.7076 11.5985 14.632 11.3433 14.4905 11.0983L14.2912 10.7531C14.1497 10.508 13.9665 10.3149 13.7416 10.1738C13.5166 10.0327 13.2642 9.96124 12.9842 9.95949C12.7043 9.95774 12.4089 10.0466 12.0981 10.2261C11.7902 10.4038 11.5656 10.6152 11.4241 10.8602C11.2857 11.1035 11.2198 11.3587 11.2266 11.6258C11.2363 11.8912 11.3119 12.1464 11.4534 12.3915ZM12.5135 12.2397L12.3142 11.8945C12.252 11.7869 12.2152 11.6747 12.2035 11.5579C12.1901 11.4381 12.2074 11.3265 12.2553 11.2231C12.3045 11.1151 12.3918 11.0248 12.5174 10.9523C12.6429 10.8798 12.7633 10.8502 12.8785 10.8634C12.9949 10.8718 13.1017 10.9118 13.1987 10.9833C13.2941 11.0518 13.3728 11.1398 13.4349 11.2474L13.6342 11.5926C13.6963 11.7002 13.7386 11.8113 13.7609 11.9259C13.7862 12.0388 13.775 12.147 13.727 12.2503C13.6791 12.3537 13.5835 12.4468 13.44 12.5296C13.3264 12.5952 13.2099 12.6246 13.0905 12.6179C12.974 12.6094 12.8642 12.5712 12.7612 12.5031C12.6582 12.4351 12.5756 12.3473 12.5135 12.2397ZM9.72657 14.8649L9.96855 7.92288L9.14939 7.9535L8.90741 14.8955L9.72657 14.8649Z" fill="#4C4948"/>
</svg>
