<svg width="25" height="18" viewBox="0 0 25 18" fill="none" xmlns="http://www.w3.org/2000/svg">
<path d="M24.3751 2.80309H0.624875C0.279682 2.80309 0 2.52355 0 2.17852C0 1.8335 0.279682 1.55396 0.624875 1.55396H24.3751C24.7203 1.55396 25 1.8335 25 2.17852C25 2.52355 24.7203 2.80309 24.3751 2.80309Z" fill="#4C4948"/>
<path d="M24.3751 9.24498H0.624875C0.279682 9.24498 0 8.96544 0 8.62041C0 8.27539 0.279682 7.99585 0.624875 7.99585H24.3751C24.7203 7.99585 25 8.27539 25 8.62041C25 8.96544 24.7203 9.24498 24.3751 9.24498Z" fill="#4C4948"/>
<path d="M24.3751 15.473H0.624875C0.279682 15.473 0 15.1935 0 14.8484C0 14.5034 0.279682 14.2239 0.624875 14.2239H24.3751C24.7203 14.2239 25 14.5034 25 14.8484C25 15.196 24.7203 15.473 24.3751 15.473Z" fill="#4C4948"/>
<path d="M4.71173 4.35685C5.91543 4.35685 6.89123 3.38154 6.89123 2.17843C6.89123 0.975316 5.91543 0 4.71173 0C3.50802 0 2.53223 0.975316 2.53223 2.17843C2.53223 3.38154 3.50802 4.35685 4.71173 4.35685Z" fill="#4C4948"/>
<path d="M20.3008 10.7987C21.5045 10.7987 22.4803 9.82343 22.4803 8.62032C22.4803 7.41721 21.5045 6.44189 20.3008 6.44189C19.0971 6.44189 18.1213 7.41721 18.1213 8.62032C18.1213 9.82343 19.0971 10.7987 20.3008 10.7987Z" fill="#4C4948"/>
<path d="M12.5076 17.0522C13.7113 17.0522 14.6871 16.0768 14.6871 14.8737C14.6871 13.6706 13.7113 12.6953 12.5076 12.6953C11.3039 12.6953 10.3281 13.6706 10.3281 14.8737C10.3281 16.0768 11.3039 17.0522 12.5076 17.0522Z" fill="#4C4948"/>
</svg>
