<svg width="27" height="27" viewBox="0 0 27 27" fill="none" xmlns="http://www.w3.org/2000/svg">
<path d="M13.5 26C20.4036 26 26 20.4035 26 13.5C26 6.59644 20.4036 1 13.5 1C6.59644 1 1 6.59644 1 13.5C1 20.4035 6.59644 26 13.5 26Z" stroke="#4C4948" stroke-width="2" stroke-miterlimit="10"/>
<path d="M20.9237 6.78353L20.9253 6.78193C21.0059 6.70053 21.1417 6.69822 21.227 6.78353L22.7413 8.29784C22.8257 8.38226 22.8257 8.5167 22.7413 8.60112L13.1464 18.196L11.1257 20.2167L11.4792 20.5703L11.1257 20.2167C11.0413 20.3011 10.9068 20.3011 10.8224 20.2167L4.25619 13.6505L3.90263 14.0041L4.25619 13.6505C4.17177 13.5661 4.17177 13.4316 4.25618 13.3472L5.7705 11.8329L5.42274 11.4852L5.7705 11.8329C5.85492 11.7485 5.98935 11.7485 6.07377 11.8329L10.1153 15.8744C10.5902 16.3494 11.3578 16.3494 11.8328 15.8744L20.9237 6.78353Z" fill="#4C4948" stroke="#4C4948"/>
</svg>
