<svg width="20" height="12" viewBox="0 0 20 12" fill="none" xmlns="http://www.w3.org/2000/svg">
<path d="M8.89704 0.502188L0.44262 9.33131C0.302369 9.47632 0.191049 9.64885 0.115081 9.83894C0.0391125 10.029 0 10.2329 0 10.4388C0 10.6448 0.0391125 10.8487 0.115081 11.0388C0.191049 11.2288 0.302369 11.4014 0.44262 11.5464C0.722981 11.8369 1.10224 12 1.49755 12C1.89287 12 2.27212 11.8369 2.55248 11.5464L10.0343 3.82481L17.4412 11.5464C17.7216 11.8369 18.1008 12 18.4962 12C18.8915 12 19.2707 11.8369 19.5511 11.5464C19.6925 11.4019 19.805 11.2296 19.882 11.0395C19.9591 10.8494 19.9992 10.6452 20 10.4388C19.9992 10.2325 19.9591 10.0283 19.882 9.83818C19.805 9.64806 19.6925 9.47578 19.5511 9.33131L11.0967 0.502188C10.9566 0.343848 10.7865 0.217482 10.5972 0.131051C10.4079 0.0446205 10.2035 -9.53674e-07 9.99686 -9.53674e-07C9.79021 -9.53674e-07 9.5858 0.0446205 9.39651 0.131051C9.20722 0.217482 9.03716 0.343848 8.89704 0.502188Z" fill="#4C4948"/>
</svg>
