<svg width="25" height="18" viewBox="0 0 25 18" fill="none" xmlns="http://www.w3.org/2000/svg">
<rect width="25" height="17.8571" rx="2" fill="#4C4948"/>
<path d="M9.31549 10.0764V10.762H7.16803V10.0764H9.31549ZM7.45221 6.49634V10.762H6.5733V6.49634H7.45221ZM10.754 6.49634V10.762H9.87799V6.49634H10.754ZM15.0489 6.49634V10.762H14.17L12.4561 7.90259V10.762H11.5772V6.49634H12.4561L14.1729 9.35864V6.49634H15.0489ZM18.6758 10.0764V10.762H16.4053V10.0764H18.6758ZM16.6924 6.49634V10.762H15.8135V6.49634H16.6924ZM18.3799 8.23364V8.90161H16.4053V8.23364H18.3799ZM18.6729 6.49634V7.18481H16.4053V6.49634H18.6729Z" fill="white"/>
</svg>
