<svg width="25" height="22" viewBox="0 0 25 22" fill="none" xmlns="http://www.w3.org/2000/svg">
<g clip-path="url(#clip0_388_982)">
<path d="M23.5507 12.6594C23.5507 12.6594 23.5507 12.7246 23.5434 12.7536C23.5434 12.7826 23.5507 12.8043 23.5507 12.8333V12.6594ZM22.9202 7.13039H16.3043C15.5072 7.13039 14.855 6.47821 14.855 5.68111V2.8985C14.855 1.26807 13.5072 -0.0507737 11.8623 -4.9034e-05C11.1014 0.0216901 10.5072 0.68111 10.5072 1.44923V4.34778C10.5072 6.40575 7.60864 7.85502 7.60864 9.3043V18.5724C7.60864 19.1086 7.90574 19.6014 8.37676 19.855C8.63763 19.9927 8.94922 20.1594 9.27531 20.3333C10.855 21.1811 12.6231 21.6231 14.413 21.6231H20.0217C21.1666 21.6231 22.1014 20.6956 22.1014 19.5434V19.355C22.1014 19.0072 22.0072 18.6884 21.855 18.3985C22.4347 18.0289 22.826 17.384 22.826 16.6449V16.0942C22.826 15.5072 22.5797 14.9855 22.1956 14.6014C22.9565 14.3188 23.5072 13.6014 23.5434 12.7536C23.5217 12.2608 23.3333 11.8115 23.0289 11.4637C24.1231 11.4057 24.9999 10.5072 24.9999 9.3985V9.2101C24.9999 8.06517 24.0724 7.13039 22.9202 7.13039Z" fill="#4C4948"/>
<path d="M5.43478 7.85498H0.362319C0.15942 7.85498 0 8.0144 0 8.2173V19.8115C0 20.0144 0.15942 20.1738 0.362319 20.1738H5.43478C5.63768 20.1738 5.7971 20.0144 5.7971 19.8115V8.2173C5.7971 8.0144 5.63768 7.85498 5.43478 7.85498ZM2.89855 17.9999C2.2971 17.9999 1.81159 17.5144 1.81159 16.913C1.81159 16.3115 2.2971 15.826 2.89855 15.826C3.5 15.826 3.98551 16.3115 3.98551 16.913C3.98551 17.5144 3.5 17.9999 2.89855 17.9999Z" fill="#4C4948"/>
</g>
<defs>
<clipPath id="clip0_388_982">
<rect width="25" height="21.6232" fill="white"/>
</clipPath>
</defs>
</svg>
