<svg width="17" height="25" viewBox="0 0 17 25" fill="none" xmlns="http://www.w3.org/2000/svg">
<path fill-rule="evenodd" clip-rule="evenodd" d="M15.5986 25H0.715582C0.318601 25 0 24.679 0 24.2848V0.715225C0 0.31844 0.321129 0 0.715582 0H15.5986C15.9956 0 16.3142 0.320967 16.3142 0.715225V24.2848C16.3142 24.679 15.993 25 15.5986 25ZM13.1389 20.7522V4.26283H3.17522V20.7522H13.1389ZM2.8669 21.7522H13.4473C13.831 21.7522 14.1414 21.4178 14.1389 21.0043V4.0081C14.1389 3.59728 13.831 3.26283 13.4473 3.26283H2.8669C2.48562 3.26283 2.17522 3.59465 2.17522 4.0081V21.007C2.17522 21.4178 2.48318 21.7522 2.8669 21.7522ZM3.13809 2.12294H13.1739C13.3736 2.12294 13.5329 1.96119 13.5329 1.76406C13.5329 1.5644 13.3711 1.40519 13.1739 1.40519H3.13809C2.93834 1.40519 2.77904 1.56693 2.77904 1.76406C2.77904 1.96372 2.94087 2.12294 3.13809 2.12294Z" fill="#4C4948"/>
<rect x="6.52563" y="22.8398" width="3.26283" height="1.08761" rx="0.543806" fill="#FFFCF5"/>
</svg>
