<svg width="27" height="20" viewBox="0 0 27 20" fill="none" xmlns="http://www.w3.org/2000/svg">
<path d="M13.5 18.5372C8.00652 18.5372 3.27343 14.4605 1.494 12.7078C1.17588 12.395 1 11.9762 1 11.529C1 11.0818 1.17588 10.663 1.494 10.3502C3.27343 8.59747 8.00652 4.52075 13.5 4.52075C18.9961 4.52075 23.7266 8.59747 25.506 10.3502C25.8241 10.663 26 11.0818 26 11.529C26 11.9762 25.8241 12.395 25.506 12.7078C23.7266 14.4605 18.9935 18.5372 13.5 18.5372ZM13.5 4.90852C8.14877 4.90852 3.51138 8.90768 1.76557 10.6268C1.52245 10.8672 1.38796 11.1878 1.38796 11.529C1.38796 11.8702 1.52245 12.1908 1.76557 12.4312C3.51138 14.1503 8.14877 18.1494 13.5 18.1494C18.8512 18.1494 23.4886 14.1503 25.2344 12.4312C25.4776 12.1908 25.612 11.8702 25.612 11.529C25.612 11.1878 25.4776 10.8672 25.2344 10.6268C23.4886 8.90768 18.8512 4.90852 13.5 4.90852Z" fill="#4C4948"/>
<path fill-rule="evenodd" clip-rule="evenodd" d="M24.8831 12.0754C24.0271 12.9183 22.4636 14.3182 20.464 15.505C18.4612 16.6938 16.0535 17.6494 13.5 17.6494C10.9465 17.6494 8.53878 16.6938 6.53596 15.505C4.5363 14.3181 2.97275 12.9181 2.11677 12.0753C1.96829 11.9283 1.88796 11.7357 1.88796 11.529C1.88796 11.3223 1.96829 11.1297 2.11677 10.9827C2.97275 10.1398 4.5363 8.73984 6.53596 7.55295C8.53878 6.36419 10.9465 5.40852 13.5 5.40852C16.0535 5.40852 18.4612 6.36419 20.464 7.55295C22.4636 8.73978 24.0271 10.1397 24.8831 10.9825C25.0317 11.1296 25.112 11.3222 25.112 11.529C25.112 11.7357 25.0317 11.9284 24.8831 12.0754ZM5.84959 6.3479C7.98602 5.08357 10.6318 4.02075 13.5 4.02075C16.3695 4.02075 19.0153 5.08355 21.1514 6.34792C23.29 7.61372 24.9496 9.10034 25.8566 9.99365C26.2702 10.4004 26.5 10.9476 26.5 11.529C26.5 12.1104 26.2702 12.6576 25.8566 13.0643C24.9495 13.9577 23.2893 15.4443 21.1504 16.7101C19.014 17.9744 16.3682 19.0372 13.5 19.0372C10.6318 19.0372 7.98602 17.9744 5.84959 16.7101C3.71047 15.4441 2.05009 13.9573 1.14313 13.064C0.729663 12.6573 0.5 12.1102 0.5 11.529C0.5 10.9478 0.729663 10.4007 1.14313 9.99396M5.84959 6.3479C3.71059 7.61375 2.05028 9.10045 1.14329 9.9938L5.84959 6.3479Z" fill="#4C4948"/>
<path d="M13.5001 18.3435C17.2654 18.3435 20.3178 15.2927 20.3178 11.5292C20.3178 7.76573 17.2654 4.71484 13.5001 4.71484C9.73477 4.71484 6.68237 7.76573 6.68237 11.5292C6.68237 15.2927 9.73477 18.3435 13.5001 18.3435Z" fill="#4C4948"/>
<path fill-rule="evenodd" clip-rule="evenodd" d="M13.5001 5.21484C10.0107 5.21484 7.18237 8.04211 7.18237 11.5292C7.18237 15.0163 10.0107 17.8435 13.5001 17.8435C16.9895 17.8435 19.8178 15.0163 19.8178 11.5292C19.8178 8.04211 16.9895 5.21484 13.5001 5.21484ZM6.18237 11.5292C6.18237 7.48936 9.45886 4.21484 13.5001 4.21484C17.5413 4.21484 20.8178 7.48936 20.8178 11.5292C20.8178 15.569 17.5413 18.8435 13.5001 18.8435C9.45886 18.8435 6.18237 15.569 6.18237 11.5292Z" fill="#4C4948"/>
<path d="M13.6939 1H13.3059V4.7148H13.6939V1Z" fill="#4C4948"/>
<path fill-rule="evenodd" clip-rule="evenodd" d="M12.8059 0.5H14.1939V5.2148H12.8059V0.5Z" fill="#4C4948"/>
<path d="M8.80521 1.66793L8.46924 1.86182L10.3276 5.07883L10.6635 4.88495L8.80521 1.66793Z" fill="#4C4948"/>
<path fill-rule="evenodd" clip-rule="evenodd" d="M7.78613 1.67871L8.98821 0.985013L11.3467 5.06792L10.1446 5.76162L7.78613 1.67871Z" fill="#4C4948"/>
<path d="M18.1961 1.67239L16.3374 4.8894L16.6734 5.08333L18.5321 1.86631L18.1961 1.67239Z" fill="#4C4948"/>
<path fill-rule="evenodd" clip-rule="evenodd" d="M15.6543 5.07251L18.0133 0.989601L19.2154 1.68344L16.8564 5.76635L15.6543 5.07251Z" fill="#4C4948"/>
</svg>
