<svg width="24" height="27" viewBox="0 0 24 27" fill="none" xmlns="http://www.w3.org/2000/svg">
<mask id="path-1-outside-1_388_1014" maskUnits="userSpaceOnUse" x="0.816162" y="0" width="23" height="27" fill="black">
<rect fill="white" x="0.816162" width="23" height="27"/>
<path fill-rule="evenodd" clip-rule="evenodd" d="M4.15708 10.0422C4.15708 5.60034 7.7592 2 12.2033 2C16.6474 2 20.2495 5.60034 20.2495 10.0422C20.2495 10.0445 20.2495 10.0468 20.2495 10.0491H21.0541C21.3487 10.0491 21.5899 10.2879 21.5899 10.5846V17.521C21.5899 21.6523 17.387 24.9999 12.203 24.9999C7.01903 24.9999 2.81616 21.6523 2.81616 17.521V10.5846C2.81616 10.2902 3.05507 10.0491 3.35196 10.0491H4.15708C4.15708 10.0468 4.15708 10.0445 4.15708 10.0422ZM17.5682 10.0491H12.5486C12.5097 10.0483 12.471 10.0473 12.4324 10.0462C12.356 10.0442 12.28 10.0421 12.203 10.0421C12.125 10.0421 12.0469 10.0442 11.9696 10.0463C11.932 10.0473 11.8946 10.0483 11.8574 10.0491H6.83838C6.83838 10.0468 6.83838 10.0445 6.83838 10.0422C6.83838 7.08175 9.23902 4.67997 12.2033 4.67997C15.1652 4.67997 17.5682 7.07943 17.5682 10.0422C17.5682 10.0445 17.5682 10.0468 17.5682 10.0491ZM13.0077 15.9036C13.3331 15.6591 13.5435 15.2701 13.5435 14.8319C13.5435 14.0918 12.9433 13.4919 12.2029 13.4919C11.4624 13.4919 10.8622 14.0918 10.8622 14.8319C10.8622 15.2701 11.0726 15.6592 11.398 15.9037V19.647C11.398 20.0086 11.6903 20.303 12.0544 20.303H12.349C12.7132 20.303 13.0077 20.0086 13.0077 19.647V15.9036Z"/>
</mask>
<path d="M20.2495 10.0491H18.2495V12.0491H20.2495V10.0491ZM4.15708 10.0491V12.0491H6.15875L6.15708 10.0474L4.15708 10.0491ZM17.5682 10.0491V12.0491H19.564L19.5682 10.0533L17.5682 10.0491ZM12.5486 10.0491L12.5086 12.0487L12.5286 12.0491H12.5486V10.0491ZM12.4324 10.0462L12.4861 8.04695L12.4861 8.04695L12.4324 10.0462ZM11.9696 10.0463L12.0232 12.0456H12.0233L11.9696 10.0463ZM11.8574 10.0491V12.0491H11.8778L11.8982 12.0487L11.8574 10.0491ZM6.83838 10.0491L4.83838 10.0516L4.84089 12.0491H6.83838V10.0491ZM17.5682 10.0422L19.5682 10.0439V10.0422H17.5682ZM13.0077 15.9036L11.8062 14.3048L11.0077 14.9048V15.9036H13.0077ZM11.398 15.9037H13.398V14.9048L12.5995 14.3047L11.398 15.9037ZM12.2033 0C6.65557 0 2.15708 4.49484 2.15708 10.0422H6.15708C6.15708 6.70585 8.86284 4 12.2033 4V0ZM22.2495 10.0422C22.2495 4.49484 17.751 0 12.2033 0V4C15.5437 4 18.2495 6.70585 18.2495 10.0422H22.2495ZM22.2495 10.0491C22.2495 10.0484 22.2495 10.0477 22.2495 10.0465C22.2495 10.0454 22.2495 10.0439 22.2495 10.0422H18.2495C18.2495 10.0429 18.2495 10.0436 18.2495 10.0448C18.2495 10.0459 18.2495 10.0475 18.2495 10.0491H22.2495ZM21.0541 8.04909H20.2495V12.0491H21.0541V8.04909ZM23.5899 10.5846C23.5899 9.17674 22.4467 8.04909 21.0541 8.04909V12.0491C20.2507 12.0491 19.5899 11.399 19.5899 10.5846H23.5899ZM23.5899 17.521V10.5846H19.5899V17.521H23.5899ZM12.203 26.9999C18.0436 26.9999 23.5899 23.157 23.5899 17.521H19.5899C19.5899 20.1475 16.7305 22.9999 12.203 22.9999V26.9999ZM0.816162 17.521C0.816162 23.157 6.36246 26.9999 12.203 26.9999V22.9999C7.67559 22.9999 4.81616 20.1475 4.81616 17.521H0.816162ZM0.816162 10.5846V17.521H4.81616V10.5846H0.816162ZM3.35196 8.04909C1.94579 8.04909 0.816162 9.19033 0.816162 10.5846H4.81616C4.81616 11.3901 4.16434 12.0491 3.35196 12.0491V8.04909ZM4.15708 8.04909H3.35196V12.0491H4.15708V8.04909ZM2.15708 10.0422C2.15708 10.0451 2.15708 10.0479 2.15708 10.0508L6.15708 10.0474C6.15708 10.0457 6.15708 10.044 6.15708 10.0422H2.15708ZM17.5682 8.04909H12.5486V12.0491H17.5682V8.04909ZM12.5886 8.04949C12.5576 8.04887 12.5258 8.04802 12.4861 8.04695L12.3786 12.0455C12.4162 12.0465 12.4617 12.0477 12.5086 12.0487L12.5886 8.04949ZM12.4861 8.04695C12.414 8.04501 12.3113 8.04214 12.203 8.04214V12.0421C12.2488 12.0421 12.2981 12.0433 12.3786 12.0455L12.4861 8.04695ZM12.203 8.04214C12.0936 8.04214 11.9888 8.04508 11.9158 8.04704L12.0233 12.0456C12.105 12.0434 12.1563 12.0421 12.203 12.0421V8.04214ZM11.9159 8.04704C11.8771 8.04807 11.8462 8.0489 11.8166 8.0495L11.8982 12.0487C11.9429 12.0478 11.9868 12.0466 12.0232 12.0456L11.9159 8.04704ZM11.8574 8.04909H6.83838V12.0491H11.8574V8.04909ZM8.83838 10.0466C8.83838 10.0451 8.83838 10.0437 8.83838 10.0422H4.83838C4.83838 10.0454 4.83838 10.0485 4.83838 10.0516L8.83838 10.0466ZM8.83838 10.0422C8.83838 8.18669 10.3432 6.67997 12.2033 6.67997V2.67997C8.13482 2.67997 4.83838 5.97681 4.83838 10.0422H8.83838ZM12.2033 6.67997C14.0622 6.67997 15.5682 8.18549 15.5682 10.0422H19.5682C19.5682 5.97337 16.2683 2.67997 12.2033 2.67997V6.67997ZM15.5682 10.0406C15.5682 10.0423 15.5682 10.0437 15.5682 10.0449L19.5682 10.0533C19.5682 10.0499 19.5682 10.0467 19.5682 10.0439L15.5682 10.0406ZM14.2092 17.5025C15.0155 16.8966 15.5435 15.9258 15.5435 14.8319H11.5435C11.5435 14.6144 11.6507 14.4216 11.8062 14.3048L14.2092 17.5025ZM15.5435 14.8319C15.5435 12.9863 14.0469 11.4919 12.2029 11.4919V15.4919C11.8396 15.4919 11.5435 15.1974 11.5435 14.8319H15.5435ZM12.2029 11.4919C10.3588 11.4919 8.86221 12.9863 8.86221 14.8319H12.8622C12.8622 15.1974 12.5661 15.4919 12.2029 15.4919V11.4919ZM8.86221 14.8319C8.86221 15.9258 9.39029 16.8967 10.1966 17.5026L12.5995 14.3047C12.755 14.4216 12.8622 14.6144 12.8622 14.8319H8.86221ZM13.398 19.647V15.9037H9.39802V19.647H13.398ZM12.0544 18.303C12.7985 18.303 13.398 18.9077 13.398 19.647H9.39802C9.39802 21.1095 10.582 22.303 12.0544 22.303V18.303ZM12.349 18.303H12.0544V22.303H12.349V18.303ZM11.0077 19.647C11.0077 18.8985 11.6141 18.303 12.349 18.303V22.303C13.8122 22.303 15.0077 21.1187 15.0077 19.647H11.0077ZM11.0077 15.9036V19.647H15.0077V15.9036H11.0077Z" fill="#4C4948" mask="url(#path-1-outside-1_388_1014)"/>
</svg>
