<svg width="20" height="25" viewBox="0 0 20 25" fill="none" xmlns="http://www.w3.org/2000/svg">
<path fill-rule="evenodd" clip-rule="evenodd" d="M16.5343 10.434V13.9637L18.9979 20.9875C19.1631 21.4551 18.8148 21.9455 18.319 21.9455H12.5757C12.5757 23.6328 11.2079 25 9.51971 25C7.83154 25 6.46372 23.6328 6.46372 21.9455H0.720383C0.22461 21.9455 -0.123701 21.4551 0.041556 20.9875L2.51025 13.9637V10.434C2.51699 7.2305 4.67462 4.5327 7.61588 3.70372V1.90394C7.61588 0.852424 8.4683 0 9.51982 0C9.52032 0 9.52083 1.95699e-07 9.52133 5.87027e-07C9.52164 1.95715e-07 9.52194 0 9.52225 0C9.52363 0 9.52501 3.97422e-06 9.52639 1.19119e-05C10.5749 0.00355513 11.4238 0.854616 11.4238 1.90394V3.70147C14.3691 4.52732 16.5275 7.22849 16.5343 10.434Z" fill="#4C4948"/>
</svg>
