<svg width="21" height="27" viewBox="0 0 21 27" fill="none" xmlns="http://www.w3.org/2000/svg">
<path d="M7.39941 22.3251H6.99941V22.7251V22.8509C6.99941 24.8075 8.593 26.4001 10.5502 26.4001C12.5071 26.4001 14.1009 24.8103 14.1009 22.8509V22.7251V22.3251H13.7009H7.39941ZM10.5502 25.3485C9.3516 25.3485 8.34814 24.5016 8.10641 23.3766H12.9939C12.7522 24.5016 11.7487 25.3485 10.5502 25.3485Z" fill="#4C4948" stroke="#4C4948" stroke-width="0.8"/>
<path d="M0.669996 21.7277L0.670198 21.7271L3.08372 14.8589L3.08866 11.3274L3.08867 11.3206L3.08872 11.3206C3.15564 7.69848 5.78729 4.68529 9.32726 4.10566V1.82251C9.32726 1.14865 9.87647 0.6 10.5502 0.6C11.2239 0.6 11.7731 1.14865 11.7731 1.82251V4.1055C13.4212 4.37564 14.9313 5.19539 16.0674 6.44005L0.669996 21.7277ZM0.669996 21.7277C0.535984 22.1109 0.597377 22.5218 0.828149 22.8513L1.03393 22.7072M0.669996 21.7277L1.03393 22.7072M1.03393 22.7072L0.82815 22.8513C1.06243 23.1858 1.43452 23.3765 1.8403 23.3765H19.2601C19.6698 23.3765 20.0355 23.1803 20.2693 22.8554C20.5081 22.5235 20.5632 22.1074 20.4304 21.7277L20.4302 21.7271L18.0167 14.8592M1.03393 22.7072L18.0167 14.8592M18.0167 14.8592V11.4537V11.4532C18.0141 9.5954 17.3225 7.81417 16.0675 6.44015L18.0167 14.8592ZM4.1378 11.4568C4.14254 8.15632 6.62078 5.42098 9.9032 5.09327L10.0143 5.0834L10.3789 5.051V4.68497V1.82755C10.3789 1.73423 10.4563 1.65656 10.5502 1.65656C10.644 1.65656 10.7214 1.73422 10.7214 1.82755V4.68497V5.051L11.086 5.0834L11.1971 5.09327C12.7661 5.24989 14.2196 5.98091 15.2905 7.15317L15.2906 7.15326C16.3684 8.3323 16.9627 9.86117 16.9651 11.4569V14.9526V15.0206L16.9876 15.0848L19.4359 22.0765C19.4359 22.0767 19.436 22.0768 19.4361 22.077C19.4565 22.1363 19.4474 22.1971 19.4121 22.2469C19.3762 22.2975 19.3239 22.325 19.2601 22.325H1.8403C1.78061 22.325 1.72588 22.2986 1.68581 22.2434C1.65295 22.1982 1.64264 22.1399 1.66433 22.077C1.66438 22.0768 1.66444 22.0766 1.6645 22.0765L4.10515 15.1253L4.12758 15.0614L4.12773 14.9937L4.13527 11.584L4.13772 11.4644L4.13779 11.4644L4.1378 11.4568Z" fill="#4C4948" stroke="#4C4948" stroke-width="0.8"/>
</svg>
