<svg width="26" height="23" viewBox="0 0 26 23" fill="none" xmlns="http://www.w3.org/2000/svg">
<path d="M4.88232 15.6203H20.3076V5.69214H1.72564C1.2217 5.69214 0.871237 6.1319 1.04519 6.54611L4.88232 15.6203Z" fill="#4C4948" stroke="#4C4948" stroke-miterlimit="10"/>
<path d="M25.4566 0.546045L25.4564 0.545871L25.454 0.543485C25.454 0.543467 25.454 0.543448 25.454 0.543429C25.396 0.485505 25.3006 0.485524 25.2426 0.543485L19.9379 5.84555L20.1516 6.05907L25.4566 0.756655C25.5145 0.698812 25.5145 0.603888 25.4566 0.546045Z" fill="#4C4948" stroke="#4C4948"/>
<path d="M18.0269 20.701C18.0269 21.2252 18.4521 21.6507 18.9773 21.6507C19.5025 21.6507 19.9277 21.2252 19.9277 20.701C19.9277 20.1767 19.5024 19.7512 18.9773 19.7512C18.4522 19.7512 18.0269 20.1767 18.0269 20.701Z" fill="#4C4948" stroke="#4C4948"/>
<path d="M5.38233 20.701C5.38233 21.2252 5.80761 21.6507 6.33276 21.6507C6.85792 21.6507 7.2832 21.2252 7.2832 20.701C7.2832 20.1767 6.8579 19.7512 6.33276 19.7512C5.80762 19.7512 5.38233 20.1767 5.38233 20.701Z" fill="#4C4948" stroke="#4C4948"/>
<path d="M5.51918 17.9509H19.7908C19.8666 17.9509 19.9277 17.8895 19.9277 17.8143V17.8117C19.9277 17.7365 19.8666 17.675 19.7908 17.675H5.51918C5.44338 17.675 5.38221 17.7365 5.38221 17.8117V17.8143C5.38221 17.8907 5.44207 17.9509 5.51918 17.9509Z" fill="#4C4948" stroke="#4C4948"/>
</svg>
