<svg width="16" height="16" viewBox="0 0 16 16" fill="none" xmlns="http://www.w3.org/2000/svg">
<path d="M11.329 7.44126L15.7695 3.00293C16.0768 2.69579 16.0768 2.20049 15.7695 1.89335L14.1057 0.230356C13.7984 -0.0767853 13.3029 -0.0767853 12.9956 0.230356L8.55507 4.6687C8.24777 4.97584 7.75223 4.97584 7.44493 4.6687L3.00441 0.230356C2.69712 -0.0767853 2.20158 -0.0767853 1.89428 0.230356L0.23047 1.89335C-0.0768233 2.20049 -0.0768233 2.69579 0.23047 3.00293L4.67099 7.44126C4.97829 7.7484 4.97829 8.2437 4.67099 8.55084L0.23047 12.9892C-0.0768233 13.2963 -0.0768233 13.7916 0.23047 14.0988L1.89428 15.7617C2.20158 16.0689 2.69712 16.0689 3.00441 15.7617L7.44493 11.3234C7.75223 11.0163 8.24777 11.0163 8.55507 11.3234L12.9956 15.7617C13.3029 16.0689 13.7984 16.0689 14.1057 15.7617L15.7695 14.0988C16.0768 13.7916 16.0768 13.2963 15.7695 12.9892L11.329 8.55084C11.0245 8.2437 11.0245 7.74563 11.329 7.44126Z" fill="#4C4948"/>
</svg>
