<svg width="10" height="25" viewBox="0 0 10 25" fill="none" xmlns="http://www.w3.org/2000/svg">
<g clip-path="url(#clip0_388_984)">
<path d="M2.45108 8.76765C2.45108 8.55668 2.2794 8.38501 2.06843 8.38501C1.85746 8.38501 1.68579 8.55668 1.68579 8.76765V14.9665C1.97949 14.9665 2.06223 14.9665 2.0643 14.9665L2.44901 14.9623V15.3491V8.76972L2.45108 8.76765Z" fill="#4C4948"/>
<path d="M7.24959 8.38513C7.03862 8.38513 6.86694 8.5568 6.86694 8.76777V14.9604L7.25165 14.9645C7.25165 14.9645 7.33646 14.9645 7.63016 14.9645V8.7657C7.63016 8.55473 7.45849 8.38306 7.24752 8.38306L7.24959 8.38513Z" fill="#4C4948"/>
<path d="M7.3881 6.33521H1.93183C0.866634 6.33521 0 7.20184 0 8.26703V14.3438C0 15.107 0.62257 15.7296 1.38579 15.7296C1.50575 15.7296 1.60503 15.7296 1.68776 15.7296V23.6141C1.68776 24.3773 2.31033 24.9999 3.07355 24.9999C3.83677 24.9999 4.45934 24.3773 4.45934 23.6141V16.3687C4.45934 16.2736 4.53586 16.197 4.63101 16.197H4.68892C4.78407 16.197 4.86059 16.2736 4.86059 16.3687V23.6141C4.86059 24.3773 5.48316 24.9999 6.24638 24.9999C7.0096 24.9999 7.63217 24.3773 7.63217 23.6141V15.7296C7.7149 15.7296 7.81418 15.7296 7.93414 15.7296C8.69736 15.7296 9.31993 15.107 9.31993 14.3438V8.26703C9.31993 7.20184 8.4533 6.33521 7.3881 6.33521ZM8.55671 14.3438C8.55671 14.6872 8.27749 14.9664 7.93414 14.9664C7.81418 14.9664 7.7149 14.9664 7.63217 14.9664C7.33846 14.9664 7.25573 14.9664 7.25366 14.9664L6.86895 14.9622V23.6162C6.86895 23.9595 6.58973 24.2387 6.24638 24.2387C5.90304 24.2387 5.62381 23.9595 5.62381 23.6162V16.3708C5.62381 15.8558 5.20394 15.4359 4.68892 15.4359H4.63101C4.11599 15.4359 3.69612 15.8558 3.69612 16.3708V23.6162C3.69612 23.9595 3.41689 24.2387 3.07355 24.2387C2.73021 24.2387 2.45098 23.9595 2.45098 23.6162V15.349V14.9622L2.06627 14.9664C2.06627 14.9664 1.98147 14.9664 1.68776 14.9664C1.60503 14.9664 1.50782 14.9664 1.38579 14.9664C1.04244 14.9664 0.763217 14.6872 0.763217 14.3438V8.26703C0.763217 7.62378 1.28651 7.09842 1.93183 7.09842H7.3881C8.03136 7.09842 8.55671 7.62171 8.55671 8.26703V14.3438Z" fill="#4C4948"/>
<path d="M4.65993 5.80169C6.25876 5.80169 7.56181 4.5007 7.56181 2.89981C7.56181 1.29892 6.25876 0 4.65993 0C3.06111 0 1.75806 1.30098 1.75806 2.90188C1.75806 4.50277 3.05904 5.80376 4.65993 5.80376V5.80169ZM4.65993 0.763217C5.83889 0.763217 6.79653 1.72293 6.79653 2.89981C6.79653 4.07669 5.83682 5.0364 4.65993 5.0364C3.48305 5.0364 2.52334 4.07669 2.52334 2.89981C2.52334 1.72293 3.48098 0.763217 4.65993 0.763217Z" fill="#4C4948"/>
</g>
<defs>
<clipPath id="clip0_388_984">
<rect width="9.31993" height="25" fill="white"/>
</clipPath>
</defs>
</svg>
