<svg width="30" height="30" viewBox="0 0 30 30" fill="none" xmlns="http://www.w3.org/2000/svg">
<path d="M13.1267 5.00989C13.7746 3.2772 16.2254 3.27719 16.8733 5.00989L18.2394 8.66336C18.5205 9.41506 19.2237 9.92594 20.0255 9.96098L23.9223 10.1313C25.7704 10.212 26.5277 12.5429 25.08 13.6945L22.0275 16.1228C21.3995 16.6224 21.1309 17.449 21.3453 18.2223L22.3876 21.9811C22.8819 23.7637 20.8991 25.2042 19.3565 24.1833L16.1038 22.0305C15.4346 21.5876 14.5654 21.5876 13.8962 22.0305L10.6435 24.1833C9.1009 25.2042 7.11812 23.7637 7.61241 21.9811L8.65465 18.2223C8.86909 17.449 8.6005 16.6224 7.97246 16.1228L4.91995 13.6945C3.47227 12.5429 4.22963 10.212 6.07773 10.1313L9.97454 9.96098C10.7763 9.92594 11.4795 9.41506 11.7606 8.66336L13.1267 5.00989Z" fill="#4C4948"/>
</svg>
