<svg width="25" height="23" viewBox="0 0 25 23" fill="none" xmlns="http://www.w3.org/2000/svg">
<path d="M17.9122 8.62512L13.0474 3.80606C12.7418 3.50312 12.2528 3.50312 11.9471 3.80606L7.08238 8.62512L1.66748 13.989V16.1503V18.2913V21.7C1.66748 22.1302 2.01642 22.4816 2.44941 22.4816H8.28966C8.7201 22.4816 9.07159 22.1328 9.07159 21.7V19.0728C9.07159 18.6426 9.42053 18.2913 9.85351 18.2913H15.1385C15.569 18.2913 15.9205 18.6401 15.9205 19.0728V21.7C15.9205 22.1302 16.2694 22.4816 16.7024 22.4816H22.5426C22.9731 22.4816 23.3246 22.1328 23.3246 21.7V18.2913V16.1503V13.989L17.9122 8.62512Z" fill="#4C4948"/>
<path d="M24.7994 12.9425C25.0669 12.6752 25.0669 12.2399 24.7994 11.97L13.4755 0.651717L13.0527 0.229116C12.7471 -0.076372 12.2529 -0.076372 11.9473 0.229116L11.5245 0.651717L0.200576 11.97C-0.0668585 12.2373 -0.0668585 12.6727 0.200576 12.9425L0.203123 12.945C0.470557 13.2123 0.906093 13.2123 1.17607 12.945L11.9473 2.17916C12.2529 1.87367 12.7471 1.87367 13.0527 2.17916L23.8239 12.945C24.0939 13.2123 24.5294 13.2124 24.7994 12.9425Z" fill="#4C4948"/>
</svg>
