<svg width="25" height="25" viewBox="0 0 25 25" fill="none" xmlns="http://www.w3.org/2000/svg">
<path fill-rule="evenodd" clip-rule="evenodd" d="M25 12.5C25 19.4035 19.4036 25 12.5 25C5.59644 25 0 19.4035 0 12.5C0 5.59644 5.59644 0 12.5 0C19.4036 0 25 5.59644 25 12.5ZM10.4791 14.5209L19.57 5.42998C19.8497 5.15029 20.3032 5.15029 20.5804 5.42998L22.0947 6.94429C22.3744 7.22397 22.3744 7.67499 22.0947 7.95467L12.4999 17.5495L10.4791 19.5703C10.1994 19.8499 9.74842 19.8499 9.46874 19.5703L2.90252 13.0041C2.62284 12.7244 2.62284 12.2733 2.90252 11.9937L4.41684 10.4794C4.69652 10.1997 5.14753 10.1997 5.42721 10.4794L9.46874 14.5209C9.74842 14.8006 10.1994 14.8006 10.4791 14.5209Z" fill="#4C4948"/>
</svg>
