<svg width="27" height="13" viewBox="0 0 27 13" fill="none" xmlns="http://www.w3.org/2000/svg">
<path d="M26 1C25.6756 1.52026 25.2984 2.00785 24.9036 2.48287C24.5114 2.95789 24.0864 3.40778 23.6463 3.84259C22.7637 4.70969 21.7906 5.49637 20.737 6.18251C19.6834 6.86614 18.5417 7.44169 17.3247 7.85388C16.7187 8.06752 16.085 8.21329 15.4488 8.33393C14.8076 8.44703 14.1538 8.49227 13.5 8.50735C12.8462 8.49479 12.1924 8.44703 11.5512 8.33645C10.915 8.21329 10.2813 8.06752 9.67532 7.8564C8.45826 7.44421 7.31412 6.87117 6.26051 6.18503C5.2069 5.49888 4.23376 4.71221 3.35114 3.84511C2.91109 3.4103 2.48864 2.96041 2.09385 2.48539C1.70157 2.01288 1.32438 1.52529 1 1.00252C1.94297 1.78417 2.90857 2.50801 3.89932 3.17656C4.88755 3.84762 5.90596 4.45836 6.95202 4.98616C9.03662 6.03925 11.2671 6.7455 13.5 6.74801C15.733 6.74801 17.9634 6.04176 20.048 4.98867C21.094 4.46338 22.1099 3.85013 23.1007 3.17906C24.0939 2.508 25.057 1.78416 26 1Z" fill="#4C4948" stroke="#4C4948"/>
<path d="M13.6887 8.31641H13.3115V11.9281H13.6887V8.31641Z" fill="#4C4948" stroke="#4C4948"/>
<path d="M10.4163 7.96165L8.60962 11.0894L8.93626 11.2779L10.743 8.15015L10.4163 7.96165Z" fill="#4C4948" stroke="#4C4948"/>
<path d="M16.5874 7.95843L16.2607 8.14697L18.0678 11.2747L18.3945 11.0861L16.5874 7.95843Z" fill="#4C4948" stroke="#4C4948"/>
</svg>
