<svg width="19" height="25" viewBox="0 0 19 25" fill="none" xmlns="http://www.w3.org/2000/svg">
<path fill-rule="evenodd" clip-rule="evenodd" d="M7.3142 0.0125764C6.83894 0.0736875 6.36863 0.418132 6.09635 1.0348C5.6805 1.95702 5.72505 3.17369 5.77456 4.16813C6.00724 8.81258 6.59141 13.2626 5.48247 13.1959C4.36363 13.1292 3.51708 12.1292 2.41804 11.9681C1.49723 11.8348 0.358585 12.3348 0.0516465 13.3848C-0.185983 14.1904 0.442745 14.8404 0.992264 15.2237C3.15073 16.7292 5.48247 17.907 6.35873 20.0015L7.23499 22.0959H16.6214C16.7946 21.7681 16.9531 21.4237 17.1115 21.0848C17.7947 19.6015 18.3689 18.0126 18.6561 16.3681C18.8046 15.4904 18.7501 14.6792 18.6759 13.8015C18.567 12.4959 18.5273 11.1848 18.4927 9.87369C18.463 8.70147 17.0273 7.61258 16.2105 8.62369C15.7253 9.22369 15.5273 8.72924 15.453 8.06258C15.4035 7.61813 15.2401 7.32924 14.8837 7.11258C14.2946 6.75147 13.2747 6.75702 12.8985 7.49591C12.7995 7.69035 12.8242 8.12369 12.6015 8.21258C12.3638 8.30702 12.245 8.04035 12.2054 7.80702C12.1163 7.24036 12.3143 6.69591 11.8292 6.29035C11.4232 5.95147 10.7994 5.7848 10.3291 6.06258C9.89842 6.31813 9.73505 6.7848 9.64594 7.29035C9.60634 7.50702 9.55683 7.67369 9.41326 7.8348C9.01721 8.27369 9.07167 3.50702 9.07167 3.19591C9.06177 1.92369 8.88355 -0.181868 7.32905 0.0125764H7.3142Z" fill="#4C4948"/>
<rect x="7.42627" y="23.3335" width="8.91111" height="1.66667" rx="0.833333" fill="#4C4948"/>
</svg>
