<svg width="25" height="14" viewBox="0 0 25 14" fill="none" xmlns="http://www.w3.org/2000/svg">
<path d="M23.4751 1.24913H3.52489C3.23493 1.24913 3 0.96959 3 0.624568C3 0.279546 3.23493 0 3.52489 0H23.4751C23.7651 0 24 0.279546 24 0.624568C24 0.96959 23.7651 1.24913 23.4751 1.24913Z" fill="#4C4948"/>
<path d="M23.4751 6.24913H3.52489C3.23493 6.24913 3 5.96959 3 5.62456C3 5.27954 3.23493 5 3.52489 5H23.4751C23.7651 5 24 5.27954 24 5.62456C24 5.96959 23.7651 6.24913 23.4751 6.24913Z" fill="#4C4948"/>
<path d="M23.6001 11.2491H8.39992C8.179 11.2491 8 10.9696 8 10.6246C8 10.2795 8.179 10 8.39992 10H23.6001C23.821 10 24 10.2795 24 10.6246C24 10.9721 23.821 11.2491 23.6001 11.2491Z" fill="#4C4948"/>
</svg>
