<?xml version="1.0" encoding="UTF-8"?><svg id="_圖層_2" xmlns="http://www.w3.org/2000/svg" viewBox="0 0 68 68"><defs><style>.cls-1{fill:#fff;}.cls-2{fill:#4c4948;}</style></defs><g id="_圖層_1-2"><circle class="cls-1" cx="34" cy="34" r="34"/><g><path class="cls-2" d="M50.73,18.28l-.36,.35,.35-.35c-.34-.35-.94-.35-1.29,0l-7.22,7.45H17.02c-.52,0-1,.25-1.28,.66-.26,.38-.3,.84-.13,1.26l5.5,13.42h22.43v-14.03l7.2-7.43c.36-.37,.36-.96,0-1.33Z"/><path class="cls-2" d="M41.17,45.81c-1.12,0-2.03,.94-2.03,2.09s.91,2.09,2.03,2.09,2.03-.94,2.03-2.09-.91-2.09-2.03-2.09Z"/><path class="cls-2" d="M23.47,45.81c-1.12,0-2.03,.94-2.03,2.09s.91,2.09,2.03,2.09,2.03-.94,2.03-2.09-.91-2.09-2.03-2.09Z"/><path class="cls-2" d="M42.31,42.81H22.33c-.49,0-.89,.41-.89,.92s.4,.92,.89,.92h19.98c.49,0,.89-.41,.89-.92s-.4-.92-.89-.92Z"/></g></g></svg>