<?xml version="1.0" encoding="UTF-8"?><svg id="_圖層_2" xmlns="http://www.w3.org/2000/svg" viewBox="0 0 68 68"><defs><style>.cls-1{fill:#fff;}.cls-2{fill:#4c4948;}</style></defs><g id="_圖層_1-2"><circle class="cls-1" cx="34" cy="34" r="34"/><path class="cls-2" d="M50.71,47.13l-7.15-7.15c1.77-2.48,2.81-5.52,2.81-8.79,0-8.38-6.8-15.18-15.18-15.18s-15.18,6.8-15.18,15.18,6.8,15.18,15.18,15.18c3.28,0,6.31-1.04,8.79-2.81l7.15,7.15c.4,.4,1.04,.4,1.43,0l2.15-2.15c.39-.39,.39-1.04,0-1.43Zm-19.53-6.84c-5.03,0-9.11-4.08-9.11-9.11s4.08-9.11,9.11-9.11,9.11,4.08,9.11,9.11-4.08,9.11-9.11,9.11Z"/></g></svg>