<?xml version="1.0" encoding="UTF-8"?><svg id="_圖層_2" xmlns="http://www.w3.org/2000/svg" viewBox="0 0 30 30"><defs><style>.cls-1{fill:#fff;}</style></defs><g id="_圖層_2-2"><path class="cls-1" d="M29.75,26.68l-6.13-6.13c1.51-2.13,2.41-4.73,2.41-7.54C26.02,5.83,20.2,0,13.01,0S0,5.83,0,13.01s5.83,13.01,13.01,13.01c2.81,0,5.41-.89,7.54-2.41l6.13,6.13c.34,.34,.89,.34,1.23,0l1.84-1.84c.34-.34,.34-.89,0-1.23Zm-16.74-5.86c-4.31,0-7.81-3.49-7.81-7.81s3.49-7.81,7.81-7.81,7.81,3.49,7.81,7.81-3.49,7.81-7.81,7.81Z"/></g></svg>