<?xml version="1.0" encoding="UTF-8"?><svg id="_圖層_2" xmlns="http://www.w3.org/2000/svg" viewBox="0 0 27.21 10.09"><g id="_圖層_1-2"><g><polygon points="2.97 0 0 0 0 1.73 2.97 1.73 2.97 9.95 5.19 9.95 5.19 1.73 8.22 1.73 8.22 0 5.19 0 2.97 0"/><polygon points="22.49 2.56 20.25 2.56 19.08 4.7 17.94 2.56 15.69 2.56 17.7 6.17 15.59 9.95 17.85 9.95 19.09 7.67 20.33 9.95 22.59 9.95 20.47 6.17 22.49 2.56"/><path d="M26.96,8.39c-.09,0-.2,.01-.33,.01-.18,0-.32-.02-.44-.06-.11-.05-.2-.12-.25-.23s-.08-.27-.08-.47v-3.58h1.24v-1.5h-1.24V.72h-2.14v1.83h-1v1.5h1v3.82c0,.52,.09,.95,.27,1.28,.18,.32,.43,.56,.77,.71,.34,.15,.74,.23,1.2,.23,.24,0,.46-.02,.67-.05,.21-.03,.4-.08,.58-.14v-1.54c-.08,.01-.16,.03-.25,.03Z"/><path d="M14.27,3.41c-.28-.32-.63-.56-1.04-.73-.41-.17-.88-.26-1.4-.26-.56,0-1.06,.1-1.5,.29-.44,.19-.81,.45-1.11,.8-.3,.34-.52,.75-.68,1.21s-.23,.97-.23,1.52v.26c0,.49,.08,.95,.25,1.39,.17,.43,.41,.82,.73,1.15,.32,.33,.72,.59,1.18,.77,.46,.19,.99,.28,1.58,.28,.48,0,.91-.06,1.29-.19,.38-.13,.7-.29,.97-.49,.27-.21,.49-.42,.64-.64l-1-1.14c-.22,.28-.49,.48-.79,.62-.31,.13-.63,.19-.96,.19-.27,0-.52-.05-.73-.14-.21-.1-.4-.23-.55-.4-.15-.17-.26-.37-.34-.61-.04-.12-.07-.24-.09-.37h4.65v-.88c0-.55-.08-1.05-.23-1.49-.15-.45-.36-.83-.64-1.14Zm-1.22,2.13h-2.53s0-.1,.01-.14c.05-.26,.12-.49,.22-.69,.1-.2,.24-.36,.42-.46s.39-.16,.65-.16c.27,0,.5,.05,.68,.16,.18,.1,.32,.26,.41,.45,.1,.2,.14,.42,.14,.68v.16Z"/></g></g></svg>