<svg width="334" height="210" viewBox="0 0 334 210" fill="none" xmlns="http://www.w3.org/2000/svg">
<path d="M322.612 66.9011C307.178 66.9046 297.942 62.3825 257.325 49.262C241.464 43.2415 223.701 40.0623 214.286 46.0089C214.286 46.0089 214.182 46.0715 213.998 46.1896C213.952 46.2191 213.906 46.2486 213.849 46.2817L213.862 46.2628C213.862 46.2628 213.853 46.2754 213.849 46.2817C210.179 48.7672 207.868 52.7225 207.589 58.5602C210.922 58.8462 213.347 59.5363 213.347 59.5363C247.87 71.1154 274.062 73.6074 290.229 73.6093C293.541 73.6073 296.874 73.4066 300.196 72.9935C307.867 72.0433 315.472 70.0044 322.636 66.903C322.632 66.9093 322.623 66.8976 322.607 66.9074L322.612 66.9011Z" fill="#D8B9C2"/>
<path d="M211.804 54.6255C209.379 56.1454 196.553 64.3556 192.693 69.3096C189.802 72.0523 188.137 76.7595 189.397 84.6507C191.326 96.7511 197.689 112.624 198.492 123.851C198.69 126.617 198.543 129.099 197.921 131.171C197.357 133.041 196.404 134.587 194.925 135.704C200.31 132.192 211.521 122.708 212.939 121.494C213.049 121.414 213.096 121.367 213.096 121.367C218.93 116.844 219.916 106.471 211.48 87.4185C207.419 78.2619 205.83 71.1952 206.092 65.847C206.346 60.5103 208.459 56.8945 211.815 54.6223L211.804 54.6255Z" fill="#FF8080"/>
<path d="M199.444 122.397C193.777 121.585 187.413 119.408 181.23 116.411C166.241 109.133 145.242 98.3738 130.037 102.557L129.991 102.568C124.406 104.117 119.602 107.691 116.169 114.199C129.502 115.524 147.258 122.772 169.958 131.507C183.999 136.904 191.881 137.121 195.903 134.09C195.903 134.09 195.911 134.086 195.927 134.078C195.927 134.078 195.931 134.073 195.935 134.067C197.385 132.964 198.331 131.444 198.886 129.602C199.503 127.555 199.638 125.114 199.448 122.392L199.444 122.397Z" fill="#D8B9C2"/>
<path d="M120.523 112.215C119.675 112.389 106.982 115.159 89.0311 127.351C88.9569 127.402 88.8726 127.456 88.7984 127.507C83.6896 131.011 79.9583 137.225 77.4933 146.966C74.4945 158.828 72.6571 168.849 69.7359 176.338C69.6757 176.496 69.6132 176.647 69.5468 176.803C68.4288 179.598 67.1423 182.032 65.5849 184.059C64.5633 185.377 63.4231 186.531 62.1307 187.5C61.6043 187.889 61.0545 188.255 60.4751 188.594L86.2256 174.478L87.0596 174.021C95.334 169.162 98.09 157.284 102.406 136.027C103.381 131.243 104.74 127.287 106.458 124.052C109.951 117.429 114.836 113.798 120.523 112.215Z" fill="#FF8080"/>
<path d="M47.3834 172.467C45.8849 181.364 44.9129 181.732 45.0391 181.763C45.1653 181.794 36.2603 185.035 26.8754 184.704C45.232 190.948 55.6833 191.641 62.2085 188.031L62.3865 187.934L62.4293 187.912C62.9378 187.618 63.4235 187.295 63.8885 186.95C65.0304 186.095 66.0378 185.075 66.9403 183.91C68.3253 182.117 69.4585 179.971 70.4407 177.5C70.4994 177.362 70.5491 177.227 70.6077 177.089C68.2783 176.862 65.7129 176.477 62.8889 175.956C58.4184 175.132 53.2954 173.957 47.3854 172.474L47.3834 172.467Z" fill="#D8B9C2"/>
</svg>
