<svg width="164" height="439" viewBox="0 0 164 439" fill="none" xmlns="http://www.w3.org/2000/svg">
<g style="mix-blend-mode:multiply">
<path d="M-125.024 335.674C-103.445 358.859 -68.6173 376.064 -17.1376 353.165C59.7498 318.964 81.0182 247.899 86.0013 228.567C92.0078 205.266 93.2661 108.258 19.1217 58.5757C-55.0227 8.8933 -114.764 76.9535 -124.622 109.239C-139.194 156.964 -90.6664 162.334 -76.5728 196.352C-66.6071 220.406 -85.9612 244.272 -108.17 261.708C-136.597 284.026 -146.602 312.49 -125.024 335.674Z" stroke="#D4CFC6" stroke-width="5"/>
</g>
<g style="mix-blend-mode:multiply">
<path d="M-134.662 360.857C-113.471 385.506 -78.5981 404.982 -25.4487 385.214C53.9324 355.69 77.9338 285.632 83.6461 266.524C90.5317 243.491 95.0296 146.111 21.2221 91.5333C-52.5854 36.9559 -115.641 101.576 -126.743 133.391C-143.156 180.423 -93.9484 188.87 -80.7339 223.933C-71.3898 248.726 -91.8776 271.486 -115.057 287.606C-144.727 308.24 -155.853 336.207 -134.662 360.857Z" fill="#D4CFC6"/>
</g>
</svg>
