<svg width="108" height="223" viewBox="0 0 108 223" fill="none" xmlns="http://www.w3.org/2000/svg">
<path d="M253.696 51.8356C301.197 80.9048 315.595 128.588 280.159 157.622C246.314 185.352 190.97 218.502 96.7395 165.446C67.8089 149.156 50.5297 121.484 51.621 101.801C53.3811 70.0029 74.2535 50.6529 92.3057 38.6321C132.153 12.0954 206.197 22.767 253.698 51.8362L253.696 51.8356Z" stroke="#D4CFC6" stroke-width="5" stroke-linecap="round" stroke-linejoin="round"/>
<g style="mix-blend-mode:multiply" opacity="0.62">
<path d="M56.673 161.067C40.6977 131.007 52.0515 123.608 80.7217 100.721C104.198 81.9809 129.417 72.8915 153.209 78.3051C181.781 84.806 196.279 105.508 200.293 128.376C207.048 166.863 197.067 190.122 157.409 199.149C117.748 208.176 72.647 191.126 56.673 161.067Z" fill="#2D827D" fill-opacity="0.77"/>
<path d="M56.673 161.067C40.6977 131.007 52.0515 123.608 80.7217 100.721C104.198 81.9809 129.417 72.8915 153.209 78.3051C181.781 84.806 196.279 105.508 200.293 128.376C207.048 166.863 197.067 190.122 157.409 199.149C117.748 208.176 72.647 191.126 56.673 161.067Z" stroke="#D4CFC6" stroke-width="5" stroke-linecap="round" stroke-linejoin="round"/>
</g>
</svg>
