<svg width="363" height="420" viewBox="0 0 363 420" fill="none" xmlns="http://www.w3.org/2000/svg">
<g filter="url(#filter0_d_1901_128462)">
<path d="M10.3258 41.456C10.3654 36.4235 14.1388 32.2046 19.1357 31.6058L62.6726 26.3887C63.8683 26.2454 65.08 26.3193 66.2494 26.6067L132.058 42.7828C132.748 42.9525 133.455 43.0481 134.166 43.068L226.043 45.6307C226.807 45.6521 227.571 45.5857 228.32 45.4329L278.342 35.2313C279.797 34.9345 281.3 34.9656 282.742 35.3225L329.158 46.8098C331.604 47.4152 334.188 47.0747 336.394 45.8566L340.416 43.6356C347.111 39.9383 355.31 44.8201 355.25 52.4683L352.487 403.352C352.443 408.875 347.931 413.317 342.408 413.273L17.4185 410.714C11.8958 410.671 7.45403 406.159 7.49751 400.636L10.3258 41.456Z" fill="#D4CFC6"/>
<path d="M13.737 42.0527C13.95 37.5585 18.3336 38.8551 19.3655 38.926C21.9731 40.2526 24.9358 37.7203 27.454 39.7621C29.3159 41.3968 30.9564 43.4316 32.9136 43.2649C34.5772 39.4728 36.3095 44.0326 37.8928 42.695C38.9843 41.9753 40.0423 38.7435 41.1374 40.1273C41.5147 39.8979 41.6329 40.0244 41.969 39.5436C42.1885 39.696 42.287 40.0798 42.5817 38.0979C43.3012 39.8241 45.0457 37.998 45.7987 38.0541C46.8769 37.4033 47.707 37.975 48.6398 39.6903C49.5622 41.1041 49.9537 43.9014 51.1537 41.3113C51.9146 43.2638 54.892 43.0549 55.6773 40.9388C56.129 38.0225 55.8753 38.9875 56.0804 38.0723C56.3257 37.2014 56.8594 35.4726 57.4012 35.6087C58.9249 33.1467 61.5105 32.7589 63.1744 35.0514C65.4398 33.1164 68.153 31.6496 70.3252 34.7875C71.0819 34.7055 71.1059 35.8422 71.8729 38.9502C72.4439 42.4773 73.1863 38.7219 73.8206 39.3548C74.9114 39.0369 76.8357 39.5041 77.7974 39.8068C78.7364 42.012 78.7943 41.4222 79.9494 42.5992C82.3963 43.711 84.9064 42.2803 87.2335 43.4603C88.7648 44.5461 90.6473 42.5955 92.229 43.732C94.186 50.0266 97.205 40.3427 98.6859 45.9052C99.2197 47.699 99.5052 50.7529 100.308 48.9696C100.768 48.5337 101.207 50.1823 101.657 50.7259C103.388 51.223 104.389 47.118 106.028 49.0837C106.846 45.4106 107.631 48.1608 108.412 49.1528C109.463 49.9899 110.886 49.4109 111.904 49.3624C112.674 51.4406 113.124 50.3264 113.99 52.1542C114.671 53.227 115.384 51.2547 116.076 52.3967C118.064 52.7765 120.161 48.4353 122.162 51.3269C123.796 53.2926 125.559 54.8512 127.287 54.4629C127.092 49.011 133.422 55.3903 134.805 51.4704C136.898 48.7994 138.88 53.9137 140.915 53.9046C142.616 58.8912 144.335 52.8138 146.114 54.743C147.387 55.7075 148.23 55.6702 149.392 53.7139C150.051 52.1744 149.698 52.4982 150.428 52.6421C150.672 47.7023 151.021 52.0502 151.247 52.6673C152.371 50.3026 153.629 53.9231 154.718 52.613C155.499 54.1639 156.122 53.0511 156.776 55.3607C158.003 54.5164 159.231 57.3957 160.665 58.0223C162.695 57.9253 164.719 56.6917 166.614 58.9231C168.197 60.8759 169.988 57.2731 171.547 57.0657C172.416 55.0506 172.605 56.1949 173.327 55.5727C173.723 55.8898 174.068 52.7591 174.5 54.91C175.569 56.0299 176.666 56.5094 177.761 54.9859C178.827 51.7982 179.899 56.4407 180.942 55.1177C182.093 60.6776 183.131 53.1884 184.295 52.8711C186.412 54.062 188.701 54.9151 190.862 52.973C191.725 53.6265 192.777 52.7432 193.614 52.7749C194.517 52.7255 194.641 50.5037 195.344 49.1968C196.805 45.9808 199.293 51.6329 200.923 48.8766C201.724 50.2455 202.213 46.0736 203.085 47.8073C204.612 46.5069 204.461 47.2781 205.61 45.0769C206.894 41.5078 209.375 44.3655 210.65 45.4744C211.636 48.8667 212.124 47.0684 212.575 48.1018C213.046 48.5576 213.066 50.5859 213.939 52.7214C214.685 53.1166 215.262 57.4476 216.277 56.4006C217.411 58.4252 218.178 55.367 219.04 55.4114C220.44 51.5859 222.5 54.8422 223.947 55.3622C225.937 56.4453 227.95 54.7281 229.943 55.4094C231.377 53.1476 232.776 55.2873 234.19 55.4491C234.981 55.1791 236.432 56.4715 236.425 53.5202C237.886 51.9619 239.556 52.8101 241.034 53.2174C241.168 51.0019 240.937 48.84 241.126 48.2701C242.498 49.97 243.854 44.6119 245.282 45.9544C246.293 45.416 247.292 48.821 248.323 46.0286C250.639 45.1551 252.929 47.7477 255.251 46.0831C256.167 45.7261 256.756 45.624 257.545 44.9521C258.747 43.7434 259.516 40.5282 260.895 42.9503C262.174 42.1943 263.423 44.0565 264.662 43.5199C266.164 43.5632 265.677 41.9581 266.738 41.8597C267.514 39.3228 269.011 43.1586 269.837 41.9658C271.211 45.6876 272.683 39.7528 274.068 41.9802C275.264 43.1388 275.35 42.9071 276.248 45.1433C277.181 43.6185 278.467 46.2722 279.564 47.3357C280.763 49.411 281.754 46.6434 282.951 48.6496C283.77 48.0156 284.058 51.4526 284.883 48.7967C285.457 49.021 285.688 47.9868 286.196 45.9689C286.762 41.829 286.937 43.9967 287.607 45.2641C288.416 44.3286 289.205 46.3128 290.014 45.3019C290.9 47.4752 291.844 42.3212 292.723 45.3233C293.606 43.7604 294.954 45.5166 295.736 45.4537C296.477 46.4266 296.964 45.8402 297.778 42.9581C298.719 41.716 299.157 39.484 300.127 42.9515C302.089 45.4033 303.287 46.6497 305.628 48.5896C307.229 47.3338 308.798 50.3916 310.402 48.6335C311.79 47.69 312.812 52.4765 314.161 49.7431C315.264 50.072 316.388 49.1264 317.491 49.7442C318.553 49.2816 319.633 47.4252 320.673 49.7441C321.381 49.6932 322.536 48.5971 323.125 50.7618C324.781 55.0447 325.861 55.5053 327.763 56.1671C328.71 56.432 329.657 58.5367 330.605 56.4343C331.375 54.3683 332.113 57.2876 332.875 58.3862C334.704 59.9767 336.921 59.0523 338.052 55.2246C339.49 50.5454 341.4 50.8053 343.664 51.0115C344.728 52.8408 345.621 49.8841 346.651 49.955C346.881 51.941 347.305 50.946 347.53 50.0687C347.95 49.9024 347.873 49.7009 348.199 48.5355C349.9 45.4532 351.633 44.8766 353.066 50.0306C353.067 49.9176 353.655 43.1658 354.221 38.9318C354.798 33.712 355.373 28.3227 355.377 27.8329C354.077 29.876 352.774 33.8907 351.412 34.2819C350.657 33.4785 348.913 36.1522 348.178 34.2062C346.985 33.6128 346.252 30.323 345.131 32.6061C343.981 31.0649 342.815 30.0322 341.662 32.7107C340.424 33.9567 339.535 40.9573 338.217 37.2736C336.237 37.3585 335.01 37.8888 333.413 41.2608C331.768 44.7014 329.277 41.0901 327.458 38.8717C325.783 38.3248 324.029 35.5544 322.247 38.3284C320.495 37.1969 318.752 37.5473 317.15 36.6745C315.308 32.5283 313.489 30.6427 311.34 31.9696C309.382 32.9023 307.645 35.011 305.665 31.68C304.715 34.7619 304.035 31.8116 303.121 30.6867C301.093 29.7791 299.241 28.8288 297.31 27.3192C295.764 26.1328 294.942 20.6697 293.462 21.1667C292.404 16.0094 291.093 23.3834 289.987 21.0828C288.813 22.5429 287.947 20.489 286.751 18.7214C285.701 21.4949 284.618 17.6372 283.571 18.8095C281.56 18.4169 278.596 17.2444 276.791 20.0182C276.236 18.5947 275.895 18.793 275.209 22.8125C274.407 22.7811 273.397 20.3054 272.547 22.9234C271.507 22.9152 271.061 26.6981 270.087 25.0829C269.597 27.0005 269.175 25.2453 268.703 25.2165C268.487 25.2901 268.079 23.5727 267.714 27.4315C266.881 27.5443 265.743 25.5259 264.825 28.9597C264.069 30.3038 263.377 32.854 262.623 29.9659C261.72 27.6606 261.499 24.4941 260.378 26.0237C259.688 26.4578 259.262 27.3964 258.755 29.2636C257.631 33.4367 256.053 29.6442 254.739 30.2115C252.117 31.6539 249.477 33.5546 246.896 30.156C246.231 30.785 245.717 29.9961 245.076 30.5499C244.1 33.3176 244.16 31.8487 243.082 33.4226C241.289 33.1385 239.433 29.7582 237.587 32.1737C236.55 36.0021 235.728 32.4856 234.692 33.2623C234.085 31.7003 233.302 31.8762 232.723 33.5859C231.999 35.3321 232.301 36.5589 231.891 38.3641C231.194 40.3177 228.796 40.7447 227.56 39.5168C226.474 35.5775 225.343 37.2451 224.209 39.5029C222.57 41.1415 221.371 40.0646 220.034 37.1405C219.274 31.2132 218.864 35.5615 218.015 34.1294C217.207 35.3035 216.713 31.0612 215.995 31.7337C214.779 29.1873 213.178 31.8685 211.563 28.5089C209.93 27.4537 208.237 25.9711 206.728 28.7723C204.878 27.8598 202.979 29.4146 201.202 29.7837C200.283 32.803 200.333 31.962 199.366 30.7676C198.408 31.2812 197.999 31.6359 197.209 32.7474C195.926 29.0451 194.254 30.0869 192.852 32.8952C191.535 31.629 190.182 32.736 188.856 32.914C187.064 34.388 185.153 31.2773 183.231 30.7913C181.286 33.2186 179.359 34.4027 177.627 32.7502C177.064 35.0126 176.709 33.6472 176.214 35.6966C176.121 33.8749 175.332 37.498 175.273 37.8618C174.167 40.1575 173.149 36.9597 172.144 37.0522C170.792 35.9992 169.665 39.0421 168.478 34.8131C167.583 33.8139 166.701 32.3691 165.593 29.6917C164.354 29.2675 163.275 29.6797 162.155 30.845C161.024 31.0685 160.459 30.9887 159.56 28.7651C159.044 26.0672 159.052 25.094 158.255 27.6433C157.47 25.8853 156.595 33.5516 155.819 31.6429C154.723 33.3045 153.418 31.7307 152.234 32.3367C150.639 31.3258 149.011 26.9615 147.305 31.2996C145.625 32.3663 143.965 29.9609 142.314 31.436C141.676 28.4296 140.213 34.1196 139.683 31.5221C139.12 32.7484 139.156 32.7612 138.553 35.7768C137.941 40.7451 136.777 40.6669 136.095 36.7558C135.109 36.6916 134.492 36.7181 133.453 35.5985C132.258 31.5202 130.964 35.3465 129.738 35.4625C128.482 35.1386 127.702 35.6851 126.51 37.4904C124.752 39.4042 123.774 36.4579 122.47 34.1369C121.709 31.2738 121.583 32.805 120.685 31.8372C120.112 29.4403 119.59 31.7218 118.992 29.3247C117.934 30.2959 116.605 26.4551 115.483 29.115C114.402 28.1206 113.734 29.8422 112.767 30.249C112.087 29.6534 111.691 32.5512 111.195 28.8426C110.362 25.0371 110.306 31.6047 109.31 26.9C107.986 30.4248 106.649 26.8791 105.342 26.9127C104.699 24.8858 103.931 27.674 103.283 26.8526C102.251 26.4614 102.73 27.5264 101.911 28.7695C100.918 31.4303 99.9553 33.8528 98.7322 30.038C97.788 32.3476 96.871 30.9024 95.952 30.0161C95.2306 29.4892 94.4661 30.243 93.7592 29.8167C93.0812 31.1928 92.453 28.4941 91.7425 27.5466C91.0502 24.9353 90.2675 28.0122 89.5698 26.4055C88.2932 27.4504 87.3847 22.9661 86.1342 21.6691C84.9139 16.837 83.4873 21.4661 82.2 21.2864C81.1974 19.0934 80.4354 21.7937 79.4368 18.4516C78.7597 23.5827 78.1902 17.299 77.5829 17.74C77.1878 17.9818 76.8054 13.3887 76.3359 15.9971C75.9625 14.4495 75.4682 18.9038 75.0941 16.1569C73.8455 16.5364 73.447 16.2381 72.5349 12.8715C70.5597 9.84823 68.2548 5.83654 65.7538 9.67228C64.4732 8.95893 63.1821 9.9032 61.898 9.64192C60.1575 7.73817 58.3848 10.2422 56.6341 9.63186C54.8918 7.96043 53.1262 9.56654 51.3707 9.56527C50.3271 10.3231 49.6027 11.4791 48.6682 10.624C47.9462 11.4598 47.1521 8.89789 46.4114 10.5058C45.0881 9.41537 43.2409 8.49662 42.0803 13.492C41.5766 15.2839 41.4274 17.4742 41.0104 15.9827C40.7508 14.8064 40.4707 15.9094 40.1858 17.9416C39.7106 20.6128 39.4975 22.2311 39.5613 21.2081C38.1132 24.7005 34.1838 21.4546 31.9716 23.4026C30.3809 24.062 28.803 25.3368 27.1029 24.1052C26.1645 22.4715 25.6554 25.5883 24.7786 26.1026C23.5383 26.727 22.0405 24.6054 20.7692 26.2531C19.0247 27.1184 17.3403 23.8902 15.6163 25.6851C13.9055 25.816 12.186 26.713 10.4583 25.117C10.4512 26.0211 13.7504 41.3182 13.7445 42.0716L13.737 42.0527Z" fill="white"/>
</g>
<defs>
<filter id="filter0_d_1901_128462" x="0.497192" y="0.0994873" width="361.879" height="419.174" filterUnits="userSpaceOnUse" color-interpolation-filters="sRGB">
<feFlood flood-opacity="0" result="BackgroundImageFix"/>
<feColorMatrix in="SourceAlpha" type="matrix" values="0 0 0 0 0 0 0 0 0 0 0 0 0 0 0 0 0 0 127 0" result="hardAlpha"/>
<feOffset dy="-1"/>
<feGaussianBlur stdDeviation="3.5"/>
<feComposite in2="hardAlpha" operator="out"/>
<feColorMatrix type="matrix" values="0 0 0 0 0 0 0 0 0 0 0 0 0 0 0 0 0 0 0.25 0"/>
<feBlend mode="normal" in2="BackgroundImageFix" result="effect1_dropShadow_1901_128462"/>
<feBlend mode="normal" in="SourceGraphic" in2="effect1_dropShadow_1901_128462" result="shape"/>
</filter>
</defs>
</svg>
