<?xml version="1.0" encoding="utf-8"?>
<!-- Generator: Adobe Illustrator 26.3.1, SVG Export Plug-In . SVG Version: 6.00 Build 0)  -->
<svg version="1.1" id="圖層_1" xmlns="http://www.w3.org/2000/svg" xmlns:xlink="http://www.w3.org/1999/xlink" x="0px" y="0px"
	 viewBox="0 0 334 210" style="enable-background:new 0 0 334 210;" xml:space="preserve">
<style type="text/css">
	.st0{fill:#FF8080;}
	.st1{fill:#D8B9C2;}
</style>
<path class="st0" d="M215.1,93.7c-2,0.5-12.6,2.9-16,4.9c-2.5,1-4.2,3.3-4,7.7c0.3,6.7,3.6,16.1,3.2,22.2c-0.1,1.5-0.4,2.8-1.1,3.8
	c-0.6,0.9-1.5,1.6-2.7,2c4.4-1.1,13.9-4.4,15.1-4.8c0.1,0,0.1-0.1,0.1-0.1c4.9-1.5,6.6-6.9,2-18.3c-2.2-5.4-2.8-9.4-2-12.3
	C210.4,96,212.4,94.4,215.1,93.7L215.1,93.7z"/>
<path class="st1" d="M199.4,122.4c-5.7-0.8-12-3-18.2-6c-15-7.3-36-18-51.2-13.9l0,0c-5.6,1.5-10.4,5.1-13.8,11.6
	c13.3,1.3,31.1,8.6,53.8,17.3c14,5.4,21.9,5.6,25.9,2.6l0,0l0,0c1.4-1.1,2.4-2.6,3-4.5C199.5,127.6,199.6,125.1,199.4,122.4
	L199.4,122.4z"/>
<path class="st0" d="M120.5,112.2c-0.8,0.2-13.5,2.9-31.5,15.1c-0.1,0.1-0.2,0.1-0.2,0.2c-5.1,3.5-8.8,9.7-11.3,19.5
	c-3,11.9-4.8,21.9-7.8,29.4c-0.1,0.2-0.1,0.3-0.2,0.5c-1.1,2.8-2.4,5.2-4,7.3c-1,1.3-2.2,2.5-3.5,3.4c-0.5,0.4-1.1,0.8-1.7,1.1
	l25.8-14.1l0.8-0.5c8.3-4.9,11-16.7,15.3-38c1-4.8,2.3-8.7,4.1-12C110,117.4,114.8,113.8,120.5,112.2z"/>
<path class="st1" d="M47.4,172.5c-1.5,8.9-2.5,9.3-2.3,9.3c0.1,0-8.8,3.3-18.2,2.9c18.4,6.2,28.8,6.9,35.3,3.3l0.2-0.1l0,0
	c0.5-0.3,1-0.6,1.5-1c1.1-0.9,2.1-1.9,3.1-3c1.4-1.8,2.5-3.9,3.5-6.4c0.1-0.1,0.1-0.3,0.2-0.4c-2.3-0.2-4.9-0.6-7.7-1.1
	C58.4,175.1,53.3,174,47.4,172.5L47.4,172.5z"/>
</svg>
