<svg width="504" height="780" viewBox="0 0 504 780" fill="none" xmlns="http://www.w3.org/2000/svg">
<path d="M827.555 181.103C982.505 283.082 1029.47 450.362 913.881 552.217C803.478 649.499 622.946 765.794 315.565 579.665C221.193 522.517 164.828 425.439 168.388 356.389C174.129 244.837 242.215 176.954 301.101 134.783C431.083 41.6886 672.614 79.1261 827.563 181.105L827.555 181.103Z" stroke="#D4CFC6" stroke-width="7" stroke-linecap="round" stroke-linejoin="round"/>
<g style="mix-blend-mode:multiply" opacity="0.62">
<path d="M184.869 564.304C132.757 458.849 169.793 432.895 263.316 352.602C339.895 286.859 422.159 254.972 499.768 273.964C592.971 296.77 640.263 369.397 653.358 449.621C675.392 584.637 642.836 666.235 513.47 697.903C384.097 729.571 236.976 669.756 184.869 564.304Z" fill="#2D827D" fill-opacity="0.77"/>
<path d="M184.869 564.304C132.757 458.849 169.793 432.895 263.316 352.602C339.895 286.859 422.159 254.972 499.768 273.964C592.971 296.77 640.263 369.397 653.358 449.621C675.392 584.637 642.836 666.235 513.47 697.903C384.097 729.571 236.976 669.756 184.869 564.304Z" stroke="#D4CFC6" stroke-width="8" stroke-linecap="round" stroke-linejoin="round"/>
</g>
</svg>
