<svg width="1152" height="935" viewBox="0 0 1152 935" fill="none" xmlns="http://www.w3.org/2000/svg">
<g style="mix-blend-mode:multiply">
<path d="M63.7749 393.225C29.2646 498.028 33.9512 633.667 185.252 754.032C411.226 933.803 657.762 881.398 723.533 864.675C802.813 844.517 1094.62 687.559 1123.64 377.156C1152.66 66.7526 853.152 -4.1509 740.836 19.0557C574.803 53.3612 636.905 211.515 557.981 311.258C502.173 381.787 399.714 361.83 311.867 322.433C199.423 272.005 98.2851 288.421 63.7749 393.225Z" stroke="#D4CFC6" stroke-width="7"/>
</g>
<g style="mix-blend-mode:multiply">
<path d="M-26.9705 405.331C-66.4817 511.372 -68.5056 650.914 76.1299 781.606C292.15 976.8 540.08 934.469 606.358 920.359C686.249 903.35 984.389 755.739 1028.57 438.256C1072.76 120.773 778.19 33.9746 665.272 52.5735C498.349 80.0675 552.353 245.414 468.892 344.186C409.876 414.029 308.895 388.75 223.415 344.186C113.999 287.144 12.5407 299.29 -26.9705 405.331Z" fill="#D4CFC6"/>
</g>
</svg>
