<?xml version="1.0" encoding="UTF-8"?><svg id="_圖層_2" xmlns="http://www.w3.org/2000/svg" viewBox="0 0 16 15.99"><defs><style>.cls-1{fill:#4c4948;}</style></defs><g id="_圖層_1-2"><path class="cls-1" d="M11.33,7.44L15.77,3c.31-.31,.31-.8,0-1.11L14.11,.23c-.31-.31-.8-.31-1.11,0l-4.44,4.44c-.31,.31-.8,.31-1.11,0L3,.23C2.7-.08,2.2-.08,1.89,.23L.23,1.89C-.08,2.2-.08,2.7,.23,3L4.67,7.44c.31,.31,.31,.8,0,1.11L.23,12.99c-.31,.31-.31,.8,0,1.11l1.66,1.66c.31,.31,.8,.31,1.11,0l4.44-4.44c.31-.31,.8-.31,1.11,0l4.44,4.44c.31,.31,.8,.31,1.11,0l1.66-1.66c.31-.31,.31-.8,0-1.11l-4.44-4.44c-.3-.31-.3-.81,0-1.11Z"/></g></svg>