<?xml version="1.0" encoding="UTF-8"?><svg id="_圖層_2" xmlns="http://www.w3.org/2000/svg" viewBox="0 0 283.49 388.8"><defs><style>.cls-1{fill:#004d7e;}.cls-2{fill:#00807e;}.cls-3{fill:#ffb128;}.cls-4{fill:#6b9995;}.cls-5{fill:#c02d67;}.cls-6{fill:#e28092;}.cls-7{fill:#4080a7;}</style></defs><g id="_圖層_1-2"><path d="M115.85,21.19c.29,3.12,.74,5.94,.78,8.77,.1,7.61-.1,15.23,.08,22.84,.13,5.32,.61,10.65,1.1,15.95,.87,9.46,3.3,18.59,6.11,27.62,1.84,5.9,3,11.93,4.07,17.99,.47,2.65,.85,5.32,1.13,7.99,.34,3.21-.6,6.28-1.51,9.29-.86,2.83-2.97,4.6-5.75,5.56-8.61,2.98-17.64,4.17-26.46,6.28-4.45,1.07-8.88,2.25-13.35,3.21-2.81,.6-5.68,.93-8.53,1.3-3.87,.51-7.75,.96-11.64,1.4-2.13,.24-4.28,.36-6.41,.61-3.69,.43-7.38,.89-11.07,1.37-3.59,.47-7.18,1.01-10.78,1.45-3.42,.42-6.84,.85-10.27,1.1-1.72,.12-3.47-.16-5.21-.24-2.2-.1-4.41-.14-6.61-.32-.59-.05-7.05-1.76-8.33-6.53-1.15-4.26-.73-8.53,.43-12.72,2.09-7.56,5.02-14.81,8.36-21.9,2.45-5.2,4.56-10.6,7.36-15.6,3.71-6.62,7.89-12.98,11.96-19.4,2.75-4.34,5.87-8.39,9.47-12.07,2.56-2.62,5.09-5.28,7.47-8.06,4.17-4.88,9.56-8.07,15.09-11.05,5.06-2.73,10.36-5.05,15.27-8.03,4.98-3.03,10.39-4.77,15.8-6.69,6.16-2.19,12.13-4.82,17.72-8.26,1.06-.65,2.23-1.12,3.72-1.86Z"/><path d="M36.51,280.81c-.76,.43-.41,1.1,.07,1.84,1.86,2.92,4.4,5.16,7.07,7.29,3.64,2.9,7.27,5.8,10.91,8.7,3.35,2.67,6.68,5.37,10.07,7.98,.61,.47,.85,.69,.36,1.41-.73,1.1-.71,2.29-.64,3.66,.19,3.66-.11,7.34-.16,11.01-.04,3.32-.09,6.65,0,9.96,.09,3.18,.41,6.35,.49,9.53,.02,.92-.47,1.86-.64,2.48,.3,.71,.65,1.16,.67,1.64,.15,2.58,.3,5.16,.27,7.75-.01,1.28,1.78,3.5,2.87,3.73,1.22,.26,2.45,.53,3.61,.97,3.99,1.54,8.2,1.87,12.37,2.47,2.92,.42,5.9,.58,8.65,1.89,.91,.43,.82,.87,.29,1.31-3.07,2.49-5.96,5.3-9.34,7.28-5.02,2.95-10.37,5.35-15.63,7.87-2.53,1.21-5.26,1.77-8.11,1.76-2.93-.01-5.59-1.11-8.09-2.31-3.53-1.7-6.86-3.84-10.2-5.9-2.64-1.63-5.18-3.42-7.75-5.17-3.03-2.05-5.1-4.99-6.66-8.15-2.13-4.3-4.11-8.72-5.61-13.27-1.27-3.84-1.94-7.91-2.54-11.93-.61-4.05-.66-8.19-1.22-12.25-1.17-8.6-1.26-17.25-1.05-25.89,.12-4.99,.46-10.01,1.15-14.96,.83-5.96,2.15-11.84,3.26-17.76,1.43-7.62,3.81-14.97,6.33-22.27,1.74-5.04,3.7-10.04,7.13-14.22,1.8-2.2,2.89-3.18,5-5.08,.51-.46,1.7-.42,2.5-.25,5.06,1.1,10.08,2.4,15.15,3.41,1.32,.26,2.29,.41,3.29,1.56,2.54,2.94,6.39,4.63,10.14,6.01,4.44,1.64,8.81,.88,13.05-.78,3.71-1.45,6.76-3.82,9.28-6.94,1.2-1.49,2.51-2.8,3.33-4.61,.36-.78,1.84-1.12,2.87-1.52,4.27-1.65,7.99-4.14,11.34-7.22,2.32-2.13,4.8-4.1,6.9-6.42,2.34-2.57,4.36-5.44,6.47-8.22,.6-.79,2.88-1.71,3.86-1.83,1.06-.13,2.14-.58,3.09-1.11,5.32-2.97,10.81-5.55,16.51-7.68,6.76-2.53,13.5-5.1,20.22-7.73,1.14-.45,1.78-.21,2.66,.59,1.5,1.37,3.18,2.58,4.87,3.72,.71,.48,.71,.84,.54,1.6-.37,1.66-1.68,2.51-2.77,3.54-2.6,2.44-5.15,4.96-7.87,7.26-2.94,2.49-6.07,4.77-9.09,7.17-2.15,1.71-4.26,3.48-6.38,5.23-2.26,1.87-4.51,3.76-6.79,5.62-.23,.19-.6,.32-.89,.28-1.49-.18-2.66,.53-3.93,1.16-10.66,5.3-20.57,11.84-30.54,18.3-4.24,2.75-8.65,5.23-12.83,8.07-2.84,1.92-5.34,4.34-8.13,6.36-3.98,2.89-8.02,5.68-12.14,8.37-1.9,1.24-3.98,2.22-6.07,3.12-1.03,.44-2.24,.45-2.92,1.52-.17,.27-.46,.62-.39,.86,.83,3.01-.09,5.97-.08,9.04-1.64-.07-2.2-1.38-3.07-2.28-2.59-2.64-5.19-5.27-7.78-7.9l-.63,.33c.08,.43,.03,.97,.27,1.28,1.29,1.65,2.58,3.31,4,4.86,4.62,5.06,9.29,10.08,13.95,15.11,2.52,2.72,5.03,5.46,7.59,8.15,4.49,4.72,9.03,9.41,13.54,14.13,2.04,2.14,1.82,3.45-.63,5.55-.71,.61-1.02,1.68-1.55,2.51-.39,.63-.8,1.25-1.27,1.82-1.1,1.36-3.3,1.84-4.93,.9-3.81-2.2-7.62-4.42-11.32-6.79-3.79-2.43-7.51-4.96-11.14-7.61-2.82-2.05-5.42-4.39-8.2-6.51-3.17-2.42-6.47-4.68-9.62-7.13-2.49-1.94-4.83-4.07-7.4-6.25Z"/><path d="M67.42,308.79c.79,.32,1.51,.51,2.11,.88,3.18,1.99,6.3,4.08,9.5,6.04,2.52,1.55,5.1,3.05,8.2,3.09,.13,0,.29,.06,.39,0,1.75-1.01,2.57,.09,3.28,1.43,1.45,2.74,3.97,4.28,6.51,5.74,2.9,1.67,5.86,3.22,8.84,4.73,1.77,.9,3.65,1.38,5.65,.69,.84-.29,1.35-.73,1.12-1.72-.22-.97,.29-1.3,1.19-1.44,.67-.11,1.31-.48,2.1-.79-.69-1.23-1.23-2.2-1.72-3.07,1.15-.43,2.11-.73,3.02-1.13,1.16-.52,1.07-1.34,.3-2.11-.79-.79-1.44-1.36-.18-2.41,.89-.74,.64-2.06-.42-2.71-2.97-1.82-6.06-3.37-9.83-4.17,.24-.36,.42-.73,.7-1.02,.25-.26,.71-.35,.89-.64,.42-.65,1.05-1.4,.98-2.05-.07-.6-.87-1.52-1.45-1.6-1.78-.26-3.61-.28-5.41-.2-1.76,.08-3.5,.42-5.26,.59-.25,.02-.62-.21-.8-.43-1.17-1.48-2.2-3.1-3.48-4.48-4.04-4.34-8.18-8.6-12.28-12.89-3.77-3.95-7.53-7.91-11.29-11.87-1-1.05-1.99-2.12-2.93-3.23-.24-.29-.44-.75-.41-1.12,.11-1.29,.42-2.57,.46-3.87,.05-1.35-.14-2.7-.2-4.05-.02-.51,0-1.03,0-1.79,1.02,.14,1.94,.19,2.81,.39,5.13,1.2,10.25,2.44,15.38,3.66,4.41,1.04,8.8,2.2,13.25,3.06,4.01,.77,8.09,1.16,12.13,1.78,3.53,.55,7.04,1.2,10.56,1.8,3.7,.63,7.4,1.27,11.11,1.87,3.02,.49,6.05,.98,9.08,1.39,1.57,.21,3.16,.26,4.82,.38,0,3.32-.02,6.54,0,9.77,.09,14.69,.17,29.39,.29,44.08,.03,3.62,.22,7.25,.27,10.87,.12,9.54,.19,19.07,.28,28.61,0,.13-.06,.27-.12,.53-.87-.1-1.85,.03-2.56-.34-2.84-1.5-6.05-1.25-9.03-2.11-4.17-1.21-8.38-2.32-12.6-3.32-6.84-1.63-13.69-3.22-20.56-4.68-2.13-.45-4.36-.41-6.54-.64-.48-.05-.93-.3-1.4-.46-.95-.32-1.88-.76-2.85-.92-4.25-.73-8.51-1.41-12.78-2.04-2.99-.44-5.99-.79-9-1.09-1.01-.1-1.57-.08-1.19-1.45,.27-.97-.18-2.12-.18-3.19-.02-8.47,0-16.93-.02-25.4,0-1.5-.45-3.03-.22-4.48,.62-3.83-.17-7.53-.61-11.28-.04-.32,.04-.65,.09-1.21Z"/><path d="M127.18,165.02c.74,2.26,.68,4.72,.66,7.06-.39,12.81-5.82,25.23-14.87,34.1-5.29,5.07-11.94,8.45-18.77,10.93-3.43,1.19-6.86,2.5-10.44,3.2-5.95,1.16-12.11,1.29-18.07,1.28-9.75,.18-19.61-1.16-28.62-5.07-9.07-3.84-17.16-10.74-21.2-19.86-1.13-1.91-2.55-5.69-2.69-8.5-.37-2.92-.06-5.92,.09-8.79,0-.11,.09-.2,.2-.2,.1,0,.18,.07,.19,.17,.22,1.5,.24,2.92,.4,4.35,.26,2.81,.9,5.59,1.97,8.17,2.68,5.32,6.2,10.35,10.86,14.05,10.92,8.61,25.05,11.75,38.87,12.14,5.91,.2,11.71,.28,17.48-.68,3.42-.57,6.77-1.75,10.08-2.79,6.61-2.19,13.05-5.21,18.24-9.92,6.16-5.81,11.02-13.07,13.44-21.24,1.16-3.66,1.87-7.54,2.17-11.38,.12-2.27,.25-4.7-.37-6.88-.05-.11,.01-.24,.13-.27,.1-.03,.21,.03,.24,.13h0Z"/><path d="M126.17,161.45c-1.2-.13-2.42-.19-3.61-.41-1.61-.3-2.18-1.75-2.99-2.93-.59-.86-1.19-1.75-1.97-2.41-.33-.28-1.32-.19-1.68,.11-.35,.29-.28,1.09-.37,1.67-.02,.11,.15,.23,.21,.36,1.65,3.32,0,5.92-3.78,6.08-1.43,.06-2.86,.59-4.27,.51-6.64-.42-13.26-1.01-19.25-4.38-.54-.31-1.53-.22-2.13,.06-.87,.41-.71,1.28-.35,2.09,.62,1.41,.15,2.47-.85,3.65-3.25,3.87-7.35,4.44-12.04,3.79-3.18-.44-6.06-1.33-8.49-3.45-.61-.53-1.11-1.2-1.58-1.86-1.25-1.73-2.23-1.74-3.38,.07-2.04,3.21-4.62,5.93-8.05,7.56-1.88,.89-4.08,1.44-6.15,1.5-3.35,.09-6.73-.27-10.08-.59-2.52-.24-3.67-1.88-3.79-4.33,0-.09,.03-.21-.01-.28-.39-.58-.7-1.34-1.25-1.63-.3-.16-1.2,.35-1.53,.79-1.73,2.26-3.81,4.12-6.22,5.58-3.16,1.92-6.48,3.54-10.29,3.35-3.38-.17-6.53-1.03-8.54-4.12-1.09-1.68-1.48-3.59-.92-5.48,1.01-3.45,2.22-6.84,3.4-10.23,.33-.95,.6-1.96,2.07-.8,.9,.71,2.33,1.06,3.52,1.05,3.7-.03,7.4-.31,11.1-.5,1.97-.1,3.94-.12,5.9-.31,4.03-.41,8.04-.9,12.06-1.37,3.14-.37,6.28-.8,9.42-1.16,4.21-.49,8.42-.97,12.63-1.4,3.3-.34,6.62-.46,9.9-.91,4.22-.57,8.45-1.21,12.62-2.11,5.15-1.11,10.21-2.59,15.35-3.77,3.83-.88,7.71-1.55,11.57-2.32,.18-.04,.38-.05,.55-.11,3.47-1.3,6.95-2.6,10.42-3.9,2.57-.96,4.65-.66,6.24,1.5,1.65,2.25,3.36,4.68,4.14,7.3,1.26,4.26,.57,8.49-2.5,12-1.23,1.4-2.24,1.63-5.01,1.73Z"/><path d="M205.55,239.8c.45,4.65,.9,9.3,1.33,13.95,.3,3.16,.53,6.32,.88,9.48,.41,3.79,.89,7.57,1.39,11.35,.54,4.1,1.25,8.18,1.69,12.28,.5,4.69,.65,9.42,1.24,14.09,.21,1.67,.06,3.06-.85,4.34-.6,.83-1.51,1.43-2.17,2.23-1.95,2.37-3.83,4.8-5.77,7.18-1,1.23-2,2.47-3.09,3.62-2.89,3.04-5.82,6.04-8.76,9.03-.26,.27-.69,.38-1.05,.56-.16-.37-.43-.72-.48-1.1-.77-5.61-1.59-11.22-2.26-16.85-1.15-9.73-3.29-19.26-5.36-28.81-1.52-7.01-2.7-14.1-4.04-21.15-.1-.54-.28-1.07-.43-1.61-.62-2.28-.59-2.24,1.19-3.7,2.02-1.66,4.05-3.32,5.95-5.11,4.49-4.25,9.59-7.64,14.83-10.83,1.54-.94,3.15-1.78,4.69-2.72,.85-.52,1.22-.25,1.26,.63,.05,1.04,.01,2.08,.01,3.12-.07,0-.14,.01-.21,.02Z"/><path d="M150.54,367.29c-.03-.65-.07-1.06-.08-1.47-.1-8.17-.12-16.35-.32-24.52-.12-4.81-.72-9.62-.76-14.43-.07-8.08,.32-16.16,.16-24.24-.15-7.52-.69-15.04-1.22-22.55-.19-2.74,.38-4.63,3.02-6.06,3.58-1.93,6.89-4.34,10.32-6.55,1.35-.87,1.86-.85,2.33,.56,1.06,3.24,2.1,6.51,2.84,9.84,.84,3.79,1.43,7.65,1.98,11.5,.42,2.9,.59,5.84,.9,8.76,.28,2.59,.58,5.18,.89,7.77,.25,2.03,.58,4.05,.79,6.08,.41,3.94,.78,7.89,1.12,11.84,.15,1.68,.21,3.37,.3,5.05,.11,2.11,.14,4.22,.3,6.33,.22,2.78,.57,5.55,.78,8.33,.03,.43-.25,.98-.56,1.32-1.12,1.21-2.33,2.35-3.49,3.53-4.09,4.18-8.15,8.38-12.27,12.54-1.95,1.97-4,3.85-6.02,5.75-.24,.23-.58,.35-1.04,.61Z"/><path d="M201.37,233.48c-.24,.34-.39,.72-.67,.9-3.87,2.63-7.77,5.21-11.63,7.86-1.3,.89-2.52,1.91-3.7,2.96-2.31,2.06-4.69,4.07-6.81,6.31-1.37,1.45-2.73,1.22-4.31,.79-10.92-2.97-21.86-5.88-32.77-8.91-4.4-1.23-8.72-2.76-13.1-4.09-5.1-1.54-10.18-3.18-15.59-3.33-.83-.02-1.65-.25-2.84-.44,.39-.51,.62-1.03,1.01-1.28,4.72-3.03,9.43-6.08,14.22-8.99,4.08-2.48,8.31-4.7,12.36-7.22,2.52-1.56,5.02-1.41,7.58-.54,3.81,1.29,7.52,2.86,11.36,4.04,5.96,1.83,11.99,3.43,18,5.11,4.54,1.27,9.06,2.61,13.62,3.77,4.3,1.09,8.65,2,13.27,3.05Z"/><path d="M159.59,265.11c-.52,.67-.76,1.24-1.2,1.52-3.84,2.42-7.71,4.8-11.59,7.17-.33,.2-.81,.27-1.19,.23-3.56-.38-7.13-.75-10.68-1.24-3.21-.45-6.41-1.05-9.61-1.58-3.89-.65-7.77-1.33-11.66-1.92-2.53-.38-5.09-.54-7.62-.93-3.43-.53-6.86-1.12-10.27-1.8-5.67-1.14-11.32-2.39-16.98-3.57-2.49-.52-4.98-.97-7.9-1.54,.54-.63,.78-1.11,1.18-1.35,3.01-1.82,6.17-3.43,9.06-5.43,3.97-2.75,7.78-5.72,11.57-8.72,1.38-1.09,2.68-.38,3.83-.04,7.01,2.04,13.97,4.25,20.94,6.43,8.78,2.75,17.48,5.73,26.43,7.92,5.19,1.27,10.24,3.15,15.7,4.87Z"/><path d="M176.63,223.88c.37-.55,.57-1.17,.99-1.43,4.16-2.53,8.62-4.26,13.48-4.88,1.88-.24,3.78-.47,5.64-.84,4.02-.8,8-1.43,12.15-1.25,5.12,.22,10.27-.24,15.4-.12,3.48,.09,6.94,.69,10.42,1.06,.19,.02,.38,.02,.57,.02,5.8,.1,11.6,.41,17.39,.18,2.46-.09,4.91-1.18,7.29-2.03,4.09-1.46,8.12-3.09,12.19-4.64,.2-.08,.47,0,.87,0-.1,1.22-.11,2.42-.31,3.59-.5,3,.43,4.21,3.36,4.64,2.23,.33,4.44,.89,6.64,1.4,.3,.07,.54,.4,.8,.62-.16,.19-.28,.47-.49,.57-4.61,2.28-9.1,4.86-13.89,6.69-3.58,1.37-7.51,2.14-11.34,2.5-5.1,.47-10.26,.38-15.39,.34-4.17-.03-8.37-.13-12.5-.61-3.1-.36-6.12-1.38-9.18-2.13-3.86-.95-7.7-1.98-11.58-2.86-1.26-.29-2.6-.27-3.91-.32-2.77-.12-5.54-.29-8.31-.25-1.21,.02-2.46,.4-3.6,.84-1.42,.54-2.74,1.35-4.13,1.97-.43,.19-1.01,.27-1.46,.15-3.6-1-7.19-2.07-11.09-3.2Z"/><path d="M155.4,217.61c.25-.55,.35-1.2,.73-1.55,3.76-3.45,7.64-6.78,11.33-10.3,3.03-2.89,5.86-6,8.78-9.01,2.96-3.06,4.65-6.74,5.53-10.88,1.05-4.92,2.6-9.77,3.18-14.74,.64-5.45,2.16-10.63,3.9-15.73,1.09-3.18,3.13-6.06,4.85-9.01,3.73-6.42,8.55-11.98,13.76-17.23,2.03-2.05,3.96-4.2,5.96-6.29,.21-.22,.56-.32,.84-.48,.5,1.84,.91,3.53,1.44,5.19,.41,1.26,1.3,1.68,2.64,1.28,1.68-.49,3.39-.86,5.41-1.36-.2,.8-.19,1.5-.51,1.96-1.68,2.44-3.3,4.95-5.21,7.21-2.55,3.01-5.24,5.91-8.08,8.64-2.38,2.29-5.07,4.25-7.6,6.38-1.22,1.02-2.63,1.94-3.5,3.21-.91,1.34-1.43,3.01-1.85,4.6-1.13,4.28-2.18,8.59-3.13,12.92-.83,3.76-1.69,7.47-3.45,10.95-1.56,3.09-2.65,6.42-4.18,9.53-2.21,4.49-5.15,8.51-8.66,12.08-2.53,2.58-4.97,5.27-7.7,7.62-2.19,1.89-4.92,3.15-7.08,5.06-1.75,1.55-3.3,1.63-5.22,.71-.62-.3-1.29-.47-2.17-.79Z"/><path d="M222.63,349.49c-1.91,.13-2.79-1.62-2.87-3.84-.07-1.92,.5-3.85,.65-5.79,.16-2.08,.11-4.17,.28-6.25,.07-.83,.35-1.7,.74-2.44,2.14-4.06,4.31-8.11,6.57-12.1,.56-1,1.44-1.85,2.3-2.63,.37-.34,1.16-.61,1.56-.44,.49,.21,.98,.86,1.11,1.41,.84,3.48-.37,6.73-1.52,9.87-1.86,5.08-4.05,10.03-6.07,15.05-.95,2.35-1.82,4.74-2.74,7.16Z"/><path d="M190.93,355.63c1.93,1.07,2.52,2.76,2.9,4.53,.62,2.83,.25,5.65-.24,8.47-.55,3.2-.89,6.43-1.48,9.62-.39,2.13-1.42,4.19-1.49,6.31-.05,1.69-.58,2.75-1.83,3.53-2.28,1.41-4.01,.73-4.26-2.02-.12-1.34-.34-2.61,.75-3.97,1.46-1.83,1.64-4.26,.98-6.54-.78-2.7,.11-5.09,.91-7.57,1.02-3.15,1.81-6.38,2.73-9.56,.26-.91,.64-1.78,1.01-2.79Z"/><path d="M85.31,375.64c-.48-1.56,1-1.73,1.63-2.35,1.7-1.65,3.55-3.16,5.42-4.63,1.64-1.29,3.37-2.46,5.08-3.65,.2-.14,.54-.13,.81-.12,3.59,.09,7.2,.08,10.69,1.63,.35,1.23-.51,2.15-1.3,2.91-2.34,2.27-4.79,4.43-7.23,6.6-.2,.18-.61,.18-.92,.16-2.37-.17-4.74-.44-7.12-.54-2.35-.09-4.72-.02-7.06-.02Z"/><path d="M146.92,374.17c.72-.3,1.35-.49,1.89-.82,.45-.27,.83-.68,1.2-1.07,.99-1.06,1.94-2.17,2.96-3.19,.2-.2,.73-.24,1.03-.14,.9,.33,1.82,.68,2.62,1.19,.3,.19,.56,.97,.41,1.28-1.38,2.98-2.71,6.01-4.34,8.85-1.63,2.83-2.24,2.86-5.78,2.12-1.81-.38-3.68-.52-5.51-.82-.48-.08-1.03-.22-1.35-.53-.14-.14,.2-.81,.39-1.21,.77-1.58,1.55-3.16,2.36-4.72,.26-.5,.56-1.31,.93-1.36,.94-.12,1.92,.1,2.88,.21,.16,.02,.3,.19,.31,.2Z"/><path d="M134.02,372.51c-.57,1.12-.94,2.17-1.57,3.03-1.02,1.39-2.16,2.7-3.35,3.94-.3,.31-1.02,.38-1.52,.31-3.63-.5-7.25-1.05-10.87-1.6-.54-.08-1.08-.23-1.92-.41,.32-.57,.49-1.08,.83-1.43,1.79-1.88,3.16-4.01,3.92-6.51,.24-.78,.5-1.11,1.48-.83,4.17,1.2,8.38,2.27,13.01,3.5Z"/><path d="M170.31,176.84c1.15-3.15,2.76-6.11,4.29-9.05,.75-1.6,1.95-2.95,3.41-4.02,1.02-.61,1.92-.61,2.79-.81,.71-.23,1.56,.48,1.37,1.2,0,0-.06,.32-.06,.32-.18,1.14-.58,2.46-.65,3.62,0,0,0,.16,0,.16,.05,.16,.39,.12,.52,.14,0,0,.62,.03,.62,.03,.63,0,1.32,.58,1.29,1.29-.01,.37-.39,1.32-.48,1.68-.36,1.15-.79,2.41-1.18,3.56-.12,.37-.33,.96-.55,1.25-1.42,2.12-3.38,3.74-4.72,5.87,.24-.81,.73-1.52,1.18-2.22,.86-1.41,2.27-3.14,2.9-4.63,.46-1.77,.94-3.66,1.44-5.42,0,0,.04-.15,.04-.15-.04,.1,.06,.18,.03,.18-.45-.03-1.03,.03-1.46-.12-1.79-.62-.91-2.88-.7-4.26,.04-.2,.27-1.31,.31-1.48,.02-.11,0,.03,.02,.11,.05,.21,.25,.35,.43,.31-.85,.16-1.86,.27-2.39,.58-1.26,.84-2.38,2.02-3.15,3.39-1.72,2.88-3.64,5.58-5.3,8.48h0Z"/><path d="M15.73,198.51c.3,.46,.29,1.02,.45,1.5,0,0-.24,.02-.24,.02-5.34-.24-12.32-7.23-14.9-11.7-.77-1.19-.97-2.74-1.05-4.17,2.19,.58,4.4,1.16,6.55,1.89,1.76,.62,3.5,1.29,5.2,2.05-1.86-.23-3.69-.54-5.5-.9-1.82-.31-3.65-.61-5.45-.98,0,0,1.09-.88,1.09-.88,.25,1.4,1.37,2.96,2.3,4.15,2.72,3.39,5.85,6.61,9.43,9.11,.72,.48,1.47,.89,2.32,1.06,0,0-.18,.21-.18,.21-.02-.48,.12-.92-.03-1.36h0Z"/><path d="M183.52,340.21c.24-.44,.4-.97,.74-1.32,3.52-3.56,7.09-7.08,10.61-10.65,1.14-1.16,2.07-.16,3.01,.23,1.06,.44,.29,1.14,.09,1.73-1.21,3.66-3.21,6.88-5.64,9.84-.3,.37-.93,.64-1.42,.65-2.39,.07-4.77,.03-7.16,.03-.08-.17-.16-.34-.24-.52Z"/><path d="M164.35,372.53c2.24,.72,4.24,1.35,6.21,2.04,.16,.05,.3,.46,.28,.68-.28,2.48-.38,5.02-1.73,7.21-.37,.61-1.15,1.26-1.82,1.35-2.12,.27-4.28,.29-6.95,.44,.5-1,.8-1.69,1.18-2.32,1.69-2.76,3.04-5.63,2.82-9.39Z"/><path d="M173.34,377.22c3.77-.2,7.53-.41,11.63-.63-.33,2.03-.64,3.94-.91,5.63h-11.76c.37-1.79,.7-3.36,1.04-4.99Z"/><path d="M201.11,340.32c1.72-2.97,4.34-5.75,3.77-9.94,2.04,.39,3.83,.73,5.69,1.08,.12,3.83-1.58,6.89-3.58,9.83-.13,.2-.61,.31-.88,.25-1.56-.34-3.11-.75-5-1.22Z"/><path d="M219.05,333.16c.05,2.47,.35,4.84-.84,6.74-2.1-.41-4.02-.79-6.2-1.21,.4-1.68,.85-3.56,1.32-5.53h5.72Z"/><path d="M84.96,179.04c-3.51,1.89-7.03,3.78-10.52,5.71-.37,.21-.59,.71-.88,1.07,.49,.08,1.06,.38,1.44,.22,2.25-.98,4.46-2.05,6.66-3.13,1.11-.54,2.16-1.19,3.61-1.99-.49,2.75-2.07,4.51-3.08,6.53-1.05,2.09-2.11,4.18-3.17,6.27l.43,.22c2.79-2.65,4.77-5.91,6.63-9.23,.7-1.25,1.14-2.74,1.32-4.17,.2-1.58-1.03-2.24-2.45-1.48Z"/><path d="M77.27,204.59c-.26,.09-.54,.16-.81,.17-4.6,.08-9.2-.11-13.43-2.05-3.22-1.48-6.6-2.9-8.53-6.25-.18-.31-.94-.61-1.18-.47-.52,.29-1.16,.78-.53,1.58,.98,1.23,1.74,2.75,2.97,3.66,5.48,4.07,11.53,6.58,18.54,6.11,1.14,0,2.27,.07,3.4-.02,.93-.07,1.71-.62,1.48-1.63-.19-.82-.83-1.49-1.91-1.11Z"/><path d="M41.06,181.26c-1.94,.51-3.6,1.43-4.04,3.55-.36,1.71,.16,3.19,1.4,4.57,1.32,1.46,2.76,2,4.58,1.48,1.58-.45,3.22-.89,4.11-2.47,1.17-2.08,1.53-5.29-1.36-6.52,0,.79,.21,1.73-.74,2.11-.87,.35-1.85,.92-2.75,.22-.98-.75-1.03-1.85-.7-3.05-.22,.05-.36,.08-.49,.12Z"/><path d="M101.56,174.3c-.81,.43-1.73,.72-2.24,1.58-1.22,2.06-1.17,4.44,.42,6.36,1.59,1.93,3.42,2.37,5.25,1.19,2.55-1.65,3.77-4.65,3-7.7-.24-.96-.67-1.81-1.75-2.14,0,.86,.85,1.71-.15,2.45-.03,.57-.43,.66-.89,.69-.06,.01-.13,.03-.19,.04-.68,.3-1.36,.5-2.1,.2-.07-.08-.15-.16-.22-.24-.69-.14-.81-.63-.75-1.24,0-.28-.09-.59,0-.84,.15-.48-.14-.49-.39-.36Z"/><g><path class="cls-5" d="M113.53,16.92c-1.05-.3-2.3,.31-3.39-.53-.59-.46-.93-1.05-1.19-1.7-.16-.4,0-.8,.38-1.08,.47-.35,.92-.73,1.38-1.09,.05-.04,.11-.12,.13-.11,1.11,.63,1.84-.78,2.9-.52,1.01,.25,2.07,.3,3,.84,.3,.18,.74,.32,.95,.31,.64-.03,.56,.42,.5,.66-.17,.63-.34,1.21-.82,1.8-1.04,1.3-2.37,1.27-3.84,1.42Z"/><path class="cls-1" d="M113.55,5.37c.08-.49-.12-1.12,.28-1.44,.72-.58,1.34-1.41,2.47-1.28,.41,.05,.69,.12,.91,.53,.53,.99,1.14,1.94,1.69,2.93,.59,1.05,.49,2.26,.64,3.39,.08,.6-.51,1.04-1.23,1.06-1.21,.04-2.14-.48-2.83-1.43-.55-.75-1.05-1.54-1.53-2.34-.25-.42-.5-.88-.39-1.42Z"/><path class="cls-7" d="M126.37,2.74c.22,1.7-.2,3.34-.64,4.99-.09,.36-.4,.4-.65,.53-1.37,.66-2.36-.13-2.4-1.69-.03-1.46,.2-2.89,.17-4.33-.02-1,.49-1.64,1.25-2.14,.55-.36,1.97,.36,2.11,1.05,.11,.52,.21,1.03,.16,1.6Zm-.66-2.24s.04-.04,.06-.06c-.04-.02-.08-.04-.12-.05-.01,0-.04,.03-.06,.05,.04,.02,.07,.04,.11,.06Z"/><path class="cls-2" d="M127.57,18.21c-1.26-.21-1.91-.97-2-2.22,.46-1.33,1.64-1.22,2.69-1.33,1.7-.19,3.37,.22,5.07,.24,.61,0,1.02,.48,1.23,.99,.19,.46-.06,.77-.51,1.09-1.23,.89-2.59,1.15-4.05,1.12-.81-.02-1.63-.27-2.42,.11Z"/><path class="cls-6" d="M115.86,24.21c0-1.68,.43-3.03,1.09-4.33,.24-.48,.62-.86,1.22-.89,.28-.02,.52-.08,.67-.34,.32-.53,.71-.19,1.07-.07,.47,.16,.37,.59,.28,.89-.12,.39-.15,.73-.12,1.16,.14,1.85-.45,3.54-1.19,5.21-.45,1.02-1.22,.76-1.99,.63-.81-.13-1-.74-1.06-1.42-.03-.35,.03-.7,.04-.84Z"/><path class="cls-3" d="M123.79,17.36c.05,.03,.1,.08,.15,.09,2.04,.48,3.06,1.69,3.2,3.79,.01,.17,0,.38,.09,.51,.71,1.12,.11,2.16-.21,3.19-.22,.72-1.36,.85-1.94,.33-.76-.69-.96-1.73-1.6-2.49-.29-1.39-.63-2.78-.54-4.22,.04-.59,.09-1.13,.84-1.2Z"/><path class="cls-4" d="M126.47,12.48c-.21-.03-.61,0-.75-.49-.21-.75-.12-1.45,.56-1.84,1.17-.67,2.16-1.59,3.49-2.06,.62-.22,1.32-.45,1.95-.75,.21-.1,.51-.26,.71,.06,.19,.3,.47,.65,.31,.96-.65,1.29-1.52,2.42-2.86,3.05-1.04,.49-2.07,1.03-3.41,1.07Z"/></g></g></svg>