<?xml version="1.0" encoding="UTF-8"?><svg id="_圖層_2" xmlns="http://www.w3.org/2000/svg" viewBox="0 0 180.09 924.46"><g id="_圖層_3"><g><path d="M41.32,43.2c-19.62,0-27.13,.21-36.31,1.67V0C14.19,1.46,22.54,1.88,40.69,1.88h108.1c13.77,0,20.66-.42,30.47-1.67-.42,8.56-.63,14.4-.63,30.47v60.31c0,18.36,.21,25.25,1.46,35.06h-39.65c1.04-9.18,1.46-17.32,1.46-34.85V43.2h-34.22v39.23c0,16.28,.42,24.21,1.46,33.39h-38.61c1.04-9.18,1.46-17.53,1.46-33.39V43.2h-30.68Z"/><path d="M56.97,174.67c-16.9,2.09-25.88,11.89-25.88,28.38,0,8.35,2.71,15.65,7.72,21.08,2.92,3.13,5.22,4.59,10.64,6.26l-10.23,36.31c-10.85-4.8-15.65-7.93-21.49-13.77C6.05,241.03,0,224.33,0,203.67s5.84-36.52,17.74-48.41c12.52-12.31,30.26-18.99,50.92-18.99,41.32,0,68.66,26.5,68.66,66.36,0,32.55-17.74,55.3-48.83,62.6-6.68,1.67-15.44,2.5-27.34,3.13-.83,0-2.09,0-4.17,.21v-93.91Zm28.8,54.26c13.36-2.92,20.45-11.89,20.45-26.29s-6.68-23.79-20.45-27.34v53.63Z"/><path d="M47.58,321.79c-10.85,2.09-15.65,9.18-15.65,23.16,0,12.52,3.55,19.62,10.02,19.62,3.13,0,5.84-1.67,7.51-4.59,1.67-2.92,2.5-5.63,4.8-17.11,3.13-15.86,5.22-24,7.51-30.88,3.76-10.02,8.56-16.9,14.82-20.87,5.63-3.34,12.73-5.22,19.82-5.22,25.04,0,40.27,21.08,40.27,55.93,0,19.82-4.38,34.64-13.36,44.45-6.05,6.89-12.1,10.23-23.79,13.56l-4.38-40.28c8.56-1.04,12.31-6.26,12.31-17.53s-3.55-17.53-8.97-17.53-7.72,4.38-12.31,25.04c-4.38,20.45-6.26,26.92-10.02,34.22-6.68,13.56-16.9,20.03-31.93,20.03-11.06,0-21.08-3.76-27.75-10.64-10.02-10.02-15.23-27.13-15.23-49.46,0-26.29,7.09-44.87,20.87-54.88,5.84-4.17,10.85-6.26,20.87-8.35l4.59,41.32Z"/><path d="M136.69,438.23c10.43,0,18.78-.42,28.59-1.67v42.57c-8.56-1.04-18.57-1.67-28.59-1.67h-4.38v7.51c0,9.18,.21,13.98,1.04,20.45h-34.64c.83-6.26,1.25-11.69,1.25-19.2v-8.76H46.54c-5.84,0-8.76,1.04-10.64,3.76-1.46,2.3-2.3,5.63-2.3,9.6,0,5.43,1.04,9.39,3.76,14.61l-31.72,3.13c-2.92-9.39-4.17-17.53-4.17-28.8,0-14.19,2.3-24,7.3-30.68,6.05-7.93,13.15-10.85,27.34-10.85h63.86v-7.93c0-6.68-.42-12.1-1.25-18.16h34.85c-.83,6.05-1.25,11.27-1.25,18.57v7.51h4.38Z"/><path d="M132.3,565.32c-8.56-1.25-16.9-1.67-31.51-1.67H36.52c-11.27,0-22.54,.63-31.51,1.67v-43.61c10.23,1.25,18.16,1.67,31.51,1.67H100.79c13.56,0,22.12-.42,31.51-1.67v43.61Zm46.33-.63h-31.3v-42.36h31.3v42.36Z"/><path d="M132.3,624.16c-5.01,.42-9.39,1.46-17.95,3.96l-64.9,19.41c-.42,.21-1.25,.42-2.3,.83-2.09,.63-2.3,.63-5.84,1.67,1.88,.63,2.92,.83,3.76,1.04,.42,.21,1.04,.42,2.09,.63,1.04,.42,1.88,.63,2.5,.83l64.69,19.41c7.72,2.29,13.36,3.55,17.95,3.96v46.33c-9.39-4.17-13.36-5.84-20.24-8.56l-89.52-35.06c-8.97-3.55-12.31-4.59-17.53-5.63v-45.7c5.22-1.04,8.56-2.09,17.53-5.63l89.52-35.06c2.92-1.25,9.6-4.17,20.24-8.76v46.33Z"/><path d="M92.24,818.24c10.02,0,14.61-6.05,14.61-19.82s-4.38-20.45-14.61-23.58l6.47-39.86c12.31,4.17,18.99,8.76,25.25,17.53,7.93,11.27,11.9,26.71,11.9,46.95,0,15.44-2.92,30.47-7.3,38.61-7.3,13.36-18.78,19.2-37.56,19.2H34.64c-12.73,0-20.24,.42-29.63,1.46v-40.48H14.61c-8.97-11.69-12.52-23.37-12.52-40.48,0-15.86,3.76-27.75,11.48-36.1,6.89-7.51,16.9-11.48,28.38-11.48,13.15,0,23.58,5.22,30.47,15.23,7.51,10.64,11.89,24.62,13.56,43.41,.83,8.14,1.04,14.4,1.46,29.42h4.8Zm-31.51,0c-.42-18.57-1.46-27.55-4.17-36.1-2.5-7.51-7.72-12.1-13.77-12.1-7.51,0-11.89,6.26-11.89,17.11,0,8.56,3.13,17.95,7.93,23.58,4.17,4.8,9.81,7.51,16.07,7.51h5.84Z"/><path d="M178.63,924.46c-8.76-1.25-17.32-1.67-31.51-1.67H36.52c-12.52,0-20.45,.42-31.51,1.67v-43.61c9.39,1.25,16.49,1.67,31.51,1.67h110.6c14.82,0,23.58-.42,31.51-1.67v43.61Z"/></g></g></svg>