<?xml version="1.0" encoding="UTF-8"?><svg id="_層_2" xmlns="http://www.w3.org/2000/svg" viewBox="0 0 28.6 22.57"><defs><style>.cls-1{fill:#c02d67;}</style></defs><g id="_層_1-2"><path class="cls-1" d="M19.24,.11c-2.26,.41-4.06,1.72-4.93,3.5C13.44,1.83,11.64,.52,9.38,.11,6.79-.36,3.93,.7,2.1,2.8,.2,4.99-.49,8.2,.36,10.98c.4,1.3,1.13,2.6,2.25,3.99,1.5,1.86,3.3,3.44,5.34,4.69,2.02,1.23,4.04,2.03,6.17,2.87,.06,.02,.12,.04,.18,.04s.12-.01,.18-.04c2.13-.84,4.15-1.63,6.17-2.87,2.04-1.25,3.84-2.83,5.34-4.69,1.11-1.39,1.85-2.69,2.25-3.99,.85-2.78,.17-5.99-1.74-8.18C24.67,.7,21.82-.36,19.23,.11h0Z"/></g></svg>