<?xml version="1.0" encoding="UTF-8"?><svg id="_圖層_2" xmlns="http://www.w3.org/2000/svg" xmlns:xlink="http://www.w3.org/1999/xlink" viewBox="0 0 121.76 26.49"><defs><style>.cls-1{fill:none;}.cls-2{clip-path:url(#clippath);}.cls-3{fill:#fff;}.cls-4{fill:#ca3f68;}</style><clipPath id="clippath"><rect class="cls-1" width="121.76" height="26.49"/></clipPath></defs><g id="_圖層_5"><g class="cls-2"><g><path class="cls-3" d="M17.74,11.81c-.62,0-1.12,.52-1.12,1.15v4.95c0,.64,.51,1.15,1.12,1.15s1.12-.52,1.12-1.15v-4.95c0-.64-.51-1.15-1.12-1.15Z"/><path class="cls-3" d="M13.21,3.89h-.13c-.58,0-1.06,.49-1.06,1.09l.14,.78c.72,4.05,.68,8.2-.14,12.23,0,.6,.48,1.09,1.06,1.09h.13c.58,0,1.06-.49,1.06-1.09V4.98c0-.6-.48-1.09-1.06-1.09Z"/><path class="cls-3" d="M24.42,11.42c-2.24-.22-4.14,1.6-4.14,3.86v2.89c0,.5,.4,.91,.88,.91s.88-.41,.88-.91v-2.89c0-1.23,1.05-2.21,2.27-2.05,1.01,.13,1.74,1.07,1.74,2.12v2.81c0,.5,.4,.91,.88,.91s.88-.41,.88-.91v-2.77c0-2.02-1.45-3.79-3.41-3.97h0Z"/><path class="cls-3" d="M36.11,12.81c-.15,0-.29,.04-.42,.11-.7-.77-1.69-1.26-2.79-1.26-2.13,0-3.85,1.81-3.85,4.04s1.73,4.04,3.85,4.04c.84,0,1.61-.29,2.25-.76v3.08h0c-.04,1.1-.89,1.97-1.92,1.97-.82,0-1.53-.56-1.8-1.34-.13-.38-.5-.63-.9-.63-.65,0-1.14,.66-.92,1.3,.54,1.55,1.96,2.66,3.62,2.66,1.86,0,3.41-1.38,3.77-3.22,.05-.12,.09-.26,.09-.4V13.8c0-.55-.43-.99-.96-.99h0Zm-3.21,4.94c-1.06,0-1.93-.92-1.93-2.06s.86-2.06,1.93-2.06,1.93,.92,1.93,2.06-.86,2.06-1.93,2.06Z"/><path class="cls-3" d="M8.67,10.94c.88-.79,1.42-1.89,1.42-3.11,0-2.38-2.09-4.32-4.66-4.32-1.11,0-2.13,.36-2.93,.97-.22-.35-.6-.58-1.03-.58h-.11c-.68,0-1.23,.57-1.23,1.27l.3,1.52c.53,2.68,.58,5.43,.16,8.13l-.46,3c0,.7,.55,1.27,1.23,1.27h.11c.49,0,.91-.3,1.11-.73,.9,.69,2.06,1.11,3.33,1.11,2.83,0,5.13-2.08,5.13-4.63,0-1.64-.95-3.07-2.37-3.89h0Zm-3.23-5.45c1.51,0,2.73,1.05,2.73,2.34s-1.23,2.34-2.73,2.34-2.73-1.05-2.73-2.34,1.23-2.34,2.73-2.34Zm.47,11.99c-1.77,0-3.21-1.19-3.21-2.65s1.44-2.65,3.21-2.65,3.21,1.19,3.21,2.65-1.44,2.65-3.21,2.65h0Z"/><path class="cls-3" d="M58.77,11.81c-.62,0-1.12,.52-1.12,1.15v4.95c0,.64,.51,1.15,1.12,1.15s1.12-.52,1.12-1.15v-4.95c0-.64-.51-1.15-1.12-1.15Z"/><path class="cls-3" d="M54.25,3.89h-.13c-.58,0-1.06,.49-1.06,1.09l.14,.78c.72,4.05,.68,8.2-.14,12.23,0,.6,.48,1.09,1.06,1.09h.13c.58,0,1.06-.49,1.06-1.09V4.98c0-.6-.48-1.09-1.06-1.09Z"/><path class="cls-3" d="M65.46,11.42c-2.24-.22-4.14,1.6-4.14,3.86v2.89c0,.5,.4,.91,.88,.91s.88-.41,.88-.91v-2.89c0-1.23,1.05-2.21,2.27-2.05,1.01,.13,1.74,1.07,1.74,2.12v2.81c0,.5,.4,.91,.88,.91s.88-.41,.88-.91v-2.77c0-2.02-1.45-3.79-3.41-3.97h0Z"/><path class="cls-3" d="M77.15,12.81c-.15,0-.29,.04-.42,.11-.7-.77-1.69-1.26-2.79-1.26-2.13,0-3.85,1.81-3.85,4.04s1.73,4.04,3.85,4.04c.84,0,1.61-.29,2.25-.76v3.08h0c-.04,1.1-.89,1.97-1.92,1.97-.82,0-1.53-.56-1.8-1.34-.13-.38-.5-.63-.9-.63-.65,0-1.14,.66-.92,1.3,.54,1.55,1.96,2.66,3.62,2.66,1.86,0,3.41-1.38,3.77-3.22,.05-.12,.09-.26,.09-.4V13.8c0-.55-.43-.99-.96-.99h0Zm-3.21,4.94c-1.06,0-1.93-.92-1.93-2.06s.86-2.06,1.93-2.06,1.93,.92,1.93,2.06-.86,2.06-1.93,2.06Z"/><path class="cls-3" d="M49.7,10.94c.88-.79,1.42-1.89,1.42-3.11,0-2.38-2.09-4.32-4.66-4.32-1.11,0-2.13,.36-2.93,.97-.22-.35-.6-.58-1.03-.58h-.11c-.68,0-1.23,.57-1.23,1.27l.3,1.52c.53,2.68,.58,5.43,.16,8.13l-.46,3c0,.7,.55,1.27,1.23,1.27h.11c.49,0,.91-.3,1.11-.73,.9,.69,2.06,1.11,3.33,1.11,2.83,0,5.13-2.08,5.13-4.63,0-1.64-.95-3.07-2.37-3.89h0Zm-3.23-5.45c1.51,0,2.73,1.05,2.73,2.34s-1.23,2.34-2.73,2.34-2.73-1.05-2.73-2.34,1.23-2.34,2.73-2.34h0Zm.47,11.99c-1.77,0-3.21-1.19-3.21-2.65s1.44-2.65,3.21-2.65,3.21,1.19,3.21,2.65-1.44,2.65-3.21,2.65Z"/><path class="cls-3" d="M97.37,4.34l-3.59,.33c-1.08,.1-2.17,.14-3.26,.12l1.83-2.62c.39-.55,.26-1.33-.27-1.72l-.1-.07c-.26-.19-.58-.27-.9-.22-.32,.05-.6,.23-.8,.52l-2.34,3.98-4.78-.31c-.67,0-1.21,.56-1.21,1.24v.11c0,.69,.54,1.24,1.21,1.24h3.38c-1.25,1.9-2.69,3.66-4.29,5.25l-.04,.04c-.39,.55-.26,1.33,.27,1.72l.1,.07c.21,.16,.46,.23,.7,.23,.37,0,.74-.18,.98-.51l4.75-6.8h8.38c.67,0,1.21-.56,1.21-1.24v-.11c0-.68-.54-1.24-1.24-1.24h0Z"/><path class="cls-3" d="M95.03,17.94v-.38c0-.51-.34-.93-.76-.93h-3.91c-.42,0-.76,.42-.76,.93v.17c0,.51,.34,.93,.76,.93l.53-.13c1.12-.27,2.28-.23,3.38,.13,.42,.14,.76-.19,.76-.71Z"/><path class="cls-3" d="M92.32,7.76c-1.85-.17-3.15,.63-4.4,1.83-1.25,1.2-1.73,2.53-1.81,4.42-.08,1.79-.04,4.37-.07,6.24-.01,.74,.47,1.17,1.1,1.18,.63,0,1.09-.39,1.13-1.15,.07-1.57,.04-3.53,.07-5.22,.02,0,.05,0,.07,0h4.63c.5,0,.9-.42,.9-.93v-.17c0-.51-.41-.93-.9-.93l-.62,.13c-1.31,.27-2.66,.23-3.95-.11,.15-.75,.48-1.33,1.05-1.85,.78-.72,1.66-1.39,2.79-1.13,2.2,.5,3.74,.97,3.97,4.17,.26,3.73-.1,7.33-3.5,10.01-.87,.69-.46,1.21-.02,1.73,.44,.52,.83,.55,1.66-.14,.39-.32,.79-.74,1.19-1.21,1.6-1.9,2.53-4.29,2.76-6.79,.12-1.26,.22-2.41,.14-3.46-.31-3.98-2.64-6.28-6.2-6.61h0Z"/><path class="cls-3" d="M120.45,12.56s0-.04,0-.06c.03-.77-.51-1.13-.94-1.16-.02,0-.03,0-.04,0-.02,0-.03,0-.06,0-.3,.02-1.31,.2-1.65,.24-1.38,.16-2.5,.15-3.83-.07-.32-.05-.72-.19-1.07-.19-.52,0-.83,.5-.91,1.13,0,.01,0,.04,0,.06,.1,.6,.18,1.17,.81,1.17,2.12,0,4.46,.12,6.61,.06,.64-.02,.98-.44,1.1-1.18h0Z"/><path class="cls-3" d="M109.64,8.8c.12-.12,.2-.27,.25-.42,.23-.21,.38-.51,.38-.84,0-.62-.49-1.13-1.1-1.13l-1.52,.14c-1.03,.1-2.07,.09-3.09,0l-1.49-.14c-.6,0-1.1,.51-1.1,1.13s.49,1.13,1.1,1.13h3.86c-1.4,1.68-2.95,3.23-4.63,4.61l-.52,.43c-.21,.21-.32,.5-.32,.8s.11,.58,.32,.8c.21,.21,.48,.33,.78,.33s.57-.12,.78-.33l2.06-2.12c.19,2.31,.12,4.63-.22,6.92h0c0,.62,.47,1.11,1.04,1.11h.11c.58,0,1.04-.49,1.04-1.1V11.13l2.28-2.34h0Z"/><path class="cls-3" d="M106.39,4.51c.81-.02,1.57-.25,1.55-1.15-.02-.9-.71-1.76-1.64-1.9-.93-.14-1.85,.46-1.83,1.5,.02,1.04,1.11,1.56,1.92,1.55Z"/><path class="cls-3" d="M109.67,12.68c-.54-.23-1.11-.3-1.35,.3-.25,.6-.03,1.38,.55,1.75,.58,.37,1.36,.25,1.65-.45,.28-.69-.29-1.37-.83-1.6h0Z"/><path class="cls-3" d="M114.27,10.15h3.49c2.13,0,3.86-1.78,3.86-3.97s-1.57-3.79-3.55-3.95l.06-.68c0-.46-.36-.83-.81-.83s-.8,.37-.8,.83v.67h-1.03v-.67c0-.46-.36-.83-.81-.83s-.81,.37-.81,.83l.06,.68c-1.97,.17-3.53,1.88-3.53,3.95,0,2.19,1.73,3.97,3.86,3.97h0Zm-1.98-2.95l1.6-.13-.11,1.23c-.65-.13-1.19-.54-1.49-1.11h0Zm4.27,1.15h-1.1v-1.39c.37-.02,.73-.02,1.1,0v1.4h0Zm1.68-.04l-.11-1.25,1.64,.12c-.3,.58-.86,1-1.52,1.13h0Zm1.24-3.55c.11,.13,.21,.27,.28,.43l-1.71,.13c0-.43,0-.85,.03-1.28,.54,.05,1.04,.3,1.4,.73h0Zm-2.91-.89v1.53c-.37,0-.74,0-1.1-.02v-1.51c.37-.02,.73-.02,1.1,0h0Zm-2.61,.16c.02,.42,.03,.83,.03,1.24l-1.69-.12c.08-.14,.17-.28,.27-.4,.36-.42,.85-.67,1.38-.73h0Z"/><path class="cls-3" d="M119.97,20.78c-.16,.11-.04,.03-.04,.03-.29,.25-.53,.68-.76,.92-1.81,1.87-4.01,1.58-5.99,.12-.25-.18-.58-.63-.82-.75-.46-.24-1.11-.24-1.3,.34-.19,.58-.4,.82,.43,1.41,3.46,2.44,6.32,2.5,9.5-.43,.76-.71,.43-.77,.25-1.36s-1.07-.41-1.28-.27h0Z"/><path class="cls-3" d="M15.67,7.2c-.17-.19-.48-.23-.59-.54-.06-.17-.05-.33-.02-.49,.02-.1,.1-.16,.21-.17,.13-.01,.27-.03,.4-.04,.01,0,.04-.01,.04,0,.14,.27,.45,.08,.63,.26,.17,.18,.37,.32,.48,.55,.03,.07,.1,.16,.15,.18,.13,.07,.06,.15,.02,.19-.11,.11-.22,.2-.38,.25-.36,.13-.62-.05-.92-.2h0Z"/><path class="cls-3" d="M17.1,4.9c.08-.09,.12-.24,.23-.25,.21-.02,.43-.11,.64,.06,.08,.06,.12,.11,.11,.22-.02,.27-.02,.53-.03,.8-.02,.29-.18,.51-.29,.76-.06,.13-.23,.14-.37,.06-.24-.15-.36-.37-.37-.64-.01-.22-.02-.44,0-.66,0-.12,.01-.24,.1-.33h0Z"/><path class="cls-3" d="M19.91,6c-.17,.37-.45,.64-.74,.91-.06,.06-.13,.03-.19,.02-.35-.04-.44-.32-.26-.64,.17-.29,.39-.55,.57-.84,.12-.2,.3-.27,.51-.27,.15,0,.34,.32,.28,.48-.04,.12-.09,.23-.17,.34h0Zm.15-.53s.01,0,.02,0c0,0,0-.02-.02-.02,0,0-.01,0-.02,0,0,0,.01,.02,.01,.03h0Z"/><path class="cls-3" d="M18.24,9.24c-.22-.2-.25-.43-.12-.7,.25-.21,.47-.03,.68,.07,.35,.18,.63,.47,.95,.69,.12,.08,.14,.22,.12,.35-.02,.12-.11,.14-.23,.15-.35,.02-.64-.1-.92-.29-.15-.11-.28-.26-.48-.29h0Z"/><path class="cls-3" d="M15.23,8.95c.21-.33,.46-.55,.74-.73,.11-.07,.23-.09,.34-.02,.06,.03,.11,.05,.17,.02,.13-.07,.16,.05,.22,.12,.07,.09,0,.16-.06,.21-.07,.06-.12,.13-.17,.22-.2,.38-.52,.65-.87,.89-.21,.15-.33,0-.46-.12-.14-.13-.1-.27-.03-.42,.04-.07,.09-.14,.11-.16h0Z"/><path class="cls-3" d="M17.6,8.58s.01,.03,.02,.04c.34,.35,.39,.72,.15,1.16-.02,.04-.05,.08-.05,.11,0,.31-.24,.44-.43,.61-.13,.12-.37,0-.42-.18-.06-.23,.03-.46,0-.7,.12-.31,.22-.63,.41-.91,.08-.11,.16-.21,.31-.13h0Z"/><path class="cls-3" d="M18.73,7.95s-.12-.08-.08-.19c.05-.17,.16-.3,.34-.3,.31,.01,.61-.04,.93,.03,.15,.04,.31,.08,.47,.1,.05,0,.13,.01,.13,.1,0,.08,.01,.19-.06,.23-.29,.17-.59,.29-.93,.25-.26-.03-.53-.06-.79-.22h0Z"/><path class="cls-3" d="M20.05,5.47s-.01-.02-.01-.03c0,0,.02,0,.02,0,0,0,.01,.02,.02,.02,0,0-.01,0-.02,0h0Z"/><path class="cls-3" d="M56.61,7.2c-.17-.19-.48-.23-.59-.54-.06-.17-.05-.33-.02-.49,.02-.1,.1-.16,.21-.17,.13-.01,.27-.03,.4-.04,.01,0,.03-.01,.04,0,.14,.27,.45,.08,.63,.26,.17,.18,.37,.32,.48,.55,.04,.07,.1,.16,.15,.18,.13,.07,.06,.15,.02,.19-.11,.11-.22,.2-.38,.25-.36,.13-.62-.05-.92-.2h0Z"/><path class="cls-3" d="M58.04,4.9c.08-.09,.12-.24,.23-.25,.21-.02,.43-.11,.64,.06,.08,.06,.12,.11,.11,.22-.02,.27-.02,.53-.03,.8-.02,.29-.18,.51-.29,.76-.06,.13-.23,.14-.37,.06-.24-.15-.36-.37-.37-.64-.01-.22-.02-.44,0-.66,0-.12,.01-.24,.1-.33h0Z"/><path class="cls-3" d="M60.85,6c-.17,.37-.45,.64-.74,.91-.06,.06-.13,.03-.19,.02-.35-.04-.44-.32-.26-.64,.17-.29,.39-.55,.57-.84,.12-.2,.3-.27,.51-.27,.15,0,.34,.32,.28,.48-.04,.12-.09,.23-.17,.34h0Zm.15-.53s.01,0,.02,0c0,0,0-.02-.02-.02,0,0-.01,0-.02,0,0,0,.01,.02,.01,.03h0Z"/><path class="cls-3" d="M59.18,9.24c-.22-.2-.25-.43-.12-.7,.25-.21,.47-.03,.68,.07,.35,.18,.63,.47,.95,.69,.12,.08,.14,.22,.12,.35-.02,.12-.11,.14-.23,.15-.35,.02-.64-.1-.92-.29-.15-.11-.28-.26-.48-.29h0Z"/><path class="cls-3" d="M56.17,8.95c.21-.33,.46-.55,.74-.73,.11-.07,.23-.09,.34-.02,.06,.03,.11,.05,.17,.02,.13-.07,.16,.05,.22,.12,.07,.09,0,.16-.06,.21-.07,.06-.12,.13-.17,.22-.2,.38-.52,.65-.87,.89-.21,.15-.33,0-.46-.12-.14-.13-.1-.27-.03-.42,.04-.07,.09-.14,.11-.16h0Z"/><path class="cls-3" d="M58.54,8.58s.01,.03,.02,.04c.34,.35,.39,.72,.15,1.16-.02,.04-.05,.08-.05,.11,0,.31-.24,.44-.43,.61-.13,.12-.37,0-.42-.18-.06-.23,.03-.46,0-.7,.12-.31,.22-.63,.41-.91,.08-.11,.16-.21,.31-.13h0Z"/><path class="cls-3" d="M59.67,7.95s-.12-.08-.08-.19c.05-.17,.16-.3,.34-.3,.31,.01,.61-.04,.93,.03,.15,.04,.31,.08,.47,.1,.05,0,.13,.01,.13,.1,0,.08,.01,.19-.06,.23-.29,.17-.59,.29-.93,.25-.26-.03-.53-.06-.79-.22h0Z"/><path class="cls-3" d="M61,5.47s-.01-.02-.01-.03c0,0,.02,0,.02,0,0,0,.01,.02,.02,.02,0,0-.01,0-.02,0h0Z"/><path class="cls-4" d="M113.02,15.65c.44-.52,1.14-.81,1.8-.69,.66,.12,1.22,.58,1.33,1.26,.11-.68,.67-1.14,1.32-1.26,.66-.12,1.36,.17,1.8,.69,.47,.56,.64,1.38,.43,2.09-.11,.38-.33,.73-.57,1.04-.39,.49-.85,.91-1.38,1.24-.52,.33-1.04,.54-1.61,.77-.57-.23-1.09-.44-1.61-.77-.53-.33-.99-.75-1.38-1.24-.24-.31-.46-.66-.57-1.04-.21-.71-.04-1.53,.43-2.09h0Z"/></g></g></g></svg>