<?xml version="1.0" encoding="UTF-8"?><svg id="_圖層_2" xmlns="http://www.w3.org/2000/svg" xmlns:xlink="http://www.w3.org/1999/xlink" viewBox="0 0 216 47"><defs><style>.cls-1{fill:none;}.cls-2{clip-path:url(#clippath);}.cls-3{fill:#fff;}.cls-4{fill:#ca3f68;}</style><clipPath id="clippath"><rect class="cls-1" width="216" height="47"/></clipPath></defs><g id="_圖層_5"><g class="cls-2"><g><path class="cls-3" d="M31.47,20.96c-1.1,0-1.99,.92-1.99,2.05v8.78c0,1.13,.9,2.05,1.99,2.05s1.99-.92,1.99-2.05v-8.78c0-1.13-.9-2.05-1.99-2.05Z"/><path class="cls-3" d="M23.43,6.91h-.24c-1.03,0-1.88,.87-1.88,1.93l.25,1.38c1.28,7.18,1.2,14.55-.25,21.69,0,1.06,.85,1.93,1.88,1.93h.24c1.03,0,1.88-.87,1.88-1.93V8.84c0-1.06-.85-1.93-1.88-1.93Z"/><path class="cls-3" d="M43.34,20.26c-3.98-.38-7.34,2.84-7.34,6.85v5.12c0,.89,.7,1.61,1.57,1.61s1.57-.72,1.57-1.61v-5.12c0-2.17,1.86-3.91,4.03-3.63,1.8,.24,3.09,1.9,3.09,3.76v4.99c0,.89,.7,1.61,1.57,1.61s1.57-.72,1.57-1.61v-4.92c0-3.58-2.58-6.72-6.05-7.05h0Z"/><path class="cls-3" d="M64.06,22.72c-.27,0-.52,.07-.75,.19-1.25-1.37-3-2.23-4.95-2.23-3.77,0-6.84,3.22-6.84,7.16s3.07,7.16,6.84,7.16c1.49,0,2.86-.51,3.99-1.36v5.47h0c-.08,1.94-1.58,3.5-3.41,3.5-1.46,0-2.71-.99-3.2-2.37-.24-.68-.88-1.12-1.59-1.12-1.16,0-2.02,1.17-1.63,2.3,.96,2.74,3.47,4.71,6.42,4.71,3.29,0,6.04-2.45,6.68-5.71,.1-.22,.15-.46,.15-.71v-15.22c0-.97-.77-1.76-1.71-1.76h0Zm-5.7,8.76c-1.89,0-3.42-1.64-3.42-3.65s1.53-3.65,3.42-3.65,3.42,1.64,3.42,3.65-1.53,3.65-3.42,3.65Z"/><path class="cls-3" d="M15.38,19.4c1.55-1.39,2.53-3.35,2.53-5.51,0-4.23-3.71-7.67-8.26-7.67-1.97,0-3.77,.64-5.19,1.71-.39-.62-1.07-1.04-1.83-1.04h-.19C1.22,6.9,.24,7.91,.24,9.15l.53,2.7c.93,4.75,1.03,9.64,.29,14.42L.24,31.59c0,1.24,.98,2.25,2.19,2.25h.19c.87,0,1.62-.53,1.97-1.29,1.59,1.23,3.65,1.97,5.9,1.97,5.02,0,9.1-3.68,9.1-8.21,0-2.9-1.68-5.45-4.21-6.91h0Zm-5.73-9.66c2.67,0,4.85,1.87,4.85,4.15s-2.17,4.15-4.85,4.15-4.85-1.87-4.85-4.15,2.17-4.15,4.85-4.15Zm.84,21.26c-3.13,0-5.69-2.11-5.69-4.69s2.55-4.69,5.69-4.69,5.69,2.11,5.69,4.69-2.55,4.69-5.69,4.69h0Z"/><path class="cls-3" d="M104.27,20.96c-1.1,0-1.99,.92-1.99,2.05v8.78c0,1.13,.9,2.05,1.99,2.05s1.99-.92,1.99-2.05v-8.78c0-1.13-.9-2.05-1.99-2.05Z"/><path class="cls-3" d="M96.23,6.91h-.24c-1.03,0-1.88,.87-1.88,1.93l.25,1.38c1.28,7.18,1.2,14.55-.25,21.69,0,1.06,.85,1.93,1.88,1.93h.24c1.03,0,1.88-.87,1.88-1.93V8.84c0-1.06-.85-1.93-1.88-1.93Z"/><path class="cls-3" d="M116.14,20.26c-3.98-.38-7.34,2.84-7.34,6.85v5.12c0,.89,.7,1.61,1.57,1.61s1.57-.72,1.57-1.61v-5.12c0-2.17,1.86-3.91,4.03-3.63,1.8,.24,3.09,1.9,3.09,3.76v4.99c0,.89,.7,1.61,1.57,1.61s1.57-.72,1.57-1.61v-4.92c0-3.58-2.58-6.72-6.05-7.05h0Z"/><path class="cls-3" d="M136.86,22.72c-.27,0-.52,.07-.75,.19-1.25-1.37-3-2.23-4.95-2.23-3.77,0-6.84,3.22-6.84,7.16s3.07,7.16,6.84,7.16c1.49,0,2.86-.51,3.99-1.36v5.47h0c-.08,1.94-1.58,3.5-3.41,3.5-1.46,0-2.71-.99-3.2-2.37-.24-.68-.88-1.12-1.59-1.12-1.16,0-2.02,1.17-1.63,2.3,.96,2.74,3.47,4.71,6.42,4.71,3.29,0,6.04-2.45,6.68-5.71,.1-.22,.15-.46,.15-.71v-15.22c0-.97-.77-1.76-1.71-1.76h0Zm-5.7,8.76c-1.89,0-3.42-1.64-3.42-3.65s1.53-3.65,3.42-3.65,3.42,1.64,3.42,3.65-1.53,3.65-3.42,3.65Z"/><path class="cls-3" d="M88.18,19.4c1.55-1.39,2.53-3.35,2.53-5.51,0-4.23-3.71-7.67-8.26-7.67-1.97,0-3.77,.64-5.19,1.71-.39-.62-1.07-1.04-1.83-1.04h-.19c-1.2,0-2.19,1.01-2.19,2.25l.53,2.7c.93,4.75,1.03,9.64,.29,14.42l-.82,5.32c0,1.24,.98,2.25,2.19,2.25h.19c.87,0,1.62-.53,1.97-1.29,1.59,1.23,3.65,1.97,5.9,1.97,5.02,0,9.1-3.68,9.1-8.21,0-2.9-1.68-5.45-4.21-6.91h0Zm-5.73-9.66c2.67,0,4.85,1.87,4.85,4.15s-2.17,4.15-4.85,4.15-4.85-1.87-4.85-4.15,2.17-4.15,4.85-4.15h0Zm.84,21.26c-3.13,0-5.69-2.11-5.69-4.69s2.55-4.69,5.69-4.69,5.69,2.11,5.69,4.69-2.55,4.69-5.69,4.69Z"/><path class="cls-3" d="M172.74,7.7l-6.38,.59c-1.92,.18-3.86,.24-5.79,.21l3.25-4.65c.69-.98,.47-2.36-.49-3.06l-.17-.13c-.46-.34-1.03-.48-1.59-.38-.56,.09-1.06,.41-1.41,.92l-4.16,7.06-8.47-.55c-1.18,0-2.15,.99-2.15,2.2v.19c0,1.22,.96,2.2,2.15,2.2h5.99c-2.22,3.36-4.77,6.49-7.62,9.31l-.07,.08c-.69,.98-.47,2.36,.49,3.06l.17,.13c.38,.27,.81,.41,1.24,.41,.66,0,1.32-.32,1.73-.91l8.43-12.07h14.87c1.19,0,2.15-.99,2.15-2.2v-.19c0-1.21-.96-2.2-2.19-2.2h0Z"/><path class="cls-3" d="M168.58,31.83v-.68c0-.91-.61-1.65-1.36-1.65h-6.93c-.75,0-1.36,.74-1.36,1.65v.3c0,.91,.61,1.65,1.36,1.65l.93-.23c1.99-.49,4.04-.41,6,.23,.75,.25,1.36-.33,1.36-1.27Z"/><path class="cls-3" d="M163.78,13.76c-3.27-.3-5.6,1.11-7.81,3.25-2.21,2.13-3.07,4.49-3.21,7.84-.13,3.18-.08,7.75-.12,11.07-.02,1.32,.83,2.08,1.95,2.09,1.12,0,1.94-.69,2-2.04,.12-2.78,.08-6.27,.12-9.26,.04,0,.08,.01,.12,.01h8.21c.88,0,1.61-.74,1.61-1.65v-.3c0-.91-.72-1.65-1.61-1.65l-1.1,.23c-2.32,.48-4.71,.41-7-.2,.27-1.33,.85-2.36,1.85-3.28,1.39-1.28,2.94-2.47,4.96-2.01,3.9,.88,6.63,1.72,7.04,7.4,.47,6.61-.18,13.01-6.21,17.75-1.55,1.22-.81,2.14-.03,3.07,.78,.93,1.48,.98,2.95-.26,.69-.57,1.4-1.31,2.11-2.15,2.83-3.37,4.49-7.61,4.9-12.05,.21-2.23,.39-4.28,.25-6.14-.56-7.06-4.68-11.14-11-11.72h0Z"/><path class="cls-3" d="M213.68,22.29s-.01-.07-.01-.1c.05-1.37-.91-2.01-1.66-2.06-.03,0-.05,0-.08,0-.03,0-.06,0-.11,0-.53,.03-2.33,.36-2.92,.43-2.45,.28-4.43,.26-6.8-.12-.56-.09-1.29-.34-1.89-.33-.93,0-1.48,.88-1.62,2,0,.02-.01,.08-.01,.1,.18,1.06,.32,2.07,1.44,2.07,3.77,.01,7.92,.21,11.72,.1,1.13-.03,1.73-.78,1.95-2.09h0Z"/><path class="cls-3" d="M194.51,15.6c.21-.21,.35-.47,.45-.75,.41-.37,.67-.9,.67-1.5,0-1.1-.87-2-1.95-2l-2.7,.25c-1.82,.17-3.66,.17-5.49,0l-2.65-.25c-1.07,0-1.94,.9-1.94,2s.87,2,1.94,2h6.85c-2.48,2.98-5.24,5.72-8.21,8.17l-.92,.76c-.37,.38-.57,.88-.57,1.41s.2,1.04,.57,1.41c.36,.38,.85,.58,1.38,.58s1.01-.21,1.38-.58l3.66-3.76c.33,4.09,.21,8.21-.38,12.28v.02c0,1.08,.83,1.95,1.85,1.95h.19c1.02,0,1.85-.87,1.85-1.95v-15.91l4.04-4.15h-.01Z"/><path class="cls-3" d="M188.74,7.99c1.44-.03,2.78-.44,2.75-2.04-.03-1.6-1.26-3.12-2.9-3.37-1.65-.25-3.29,.82-3.25,2.67,.03,1.84,1.97,2.77,3.41,2.74Z"/><path class="cls-3" d="M194.56,22.5c-.96-.41-1.97-.54-2.4,.53-.44,1.07-.05,2.45,.97,3.11,1.02,.66,2.42,.44,2.92-.79s-.52-2.44-1.48-2.84h0Z"/><path class="cls-3" d="M202.72,18h6.19c3.77,0,6.85-3.16,6.85-7.04s-2.78-6.72-6.29-7.01l.1-1.21c0-.81-.64-1.47-1.43-1.47s-1.43,.66-1.43,1.47v1.18h-1.82v-1.18c0-.81-.64-1.47-1.43-1.47s-1.43,.66-1.43,1.48l.1,1.2c-3.5,.3-6.26,3.33-6.26,7.01,0,3.88,3.07,7.04,6.85,7.04h0Zm-3.52-5.23l2.85-.23-.2,2.19c-1.15-.23-2.12-.96-2.65-1.96h0Zm7.57,2.04h-1.95v-2.47c.65-.04,1.3-.04,1.95,0v2.48h0Zm2.97-.08l-.2-2.22,2.9,.21c-.54,1.03-1.52,1.78-2.7,2.01h0Zm2.19-6.29c.2,.24,.37,.49,.5,.76l-3.04,.23c0-.76,.01-1.51,.05-2.27,.95,.08,1.85,.54,2.49,1.29h0Zm-5.17-1.58v2.71c-.65,.01-1.3,0-1.95-.03v-2.67c.65-.03,1.3-.03,1.95,0h0Zm-4.63,.28c.04,.74,.06,1.47,.05,2.2l-2.99-.21c.13-.25,.29-.49,.48-.71,.63-.74,1.51-1.19,2.46-1.29h0Z"/><path class="cls-3" d="M212.83,36.86c-.29,.19-.07,.05-.07,.05-.52,.45-.94,1.21-1.35,1.63-3.22,3.31-7.11,2.8-10.62,.22-.43-.32-1.03-1.12-1.45-1.34-.81-.42-1.97-.42-2.31,.6-.34,1.02-.71,1.46,.76,2.5,6.13,4.34,11.21,4.44,16.86-.77,1.36-1.25,.77-1.36,.44-2.42-.32-1.06-1.89-.73-2.27-.48h0Z"/><path class="cls-3" d="M27.8,12.77c-.3-.34-.86-.4-1.05-.95-.11-.29-.09-.58-.04-.86,.03-.18,.17-.28,.37-.29,.24-.02,.48-.05,.71-.08,.02,0,.06-.02,.07,0,.24,.47,.8,.14,1.11,.47,.3,.31,.65,.57,.85,.97,.06,.13,.18,.28,.26,.32,.22,.13,.1,.27,.03,.34-.2,.19-.38,.35-.67,.45-.65,.23-1.09-.08-1.63-.36h0Z"/><path class="cls-3" d="M30.33,8.69c.13-.16,.21-.42,.41-.45,.37-.04,.77-.2,1.13,.1,.13,.11,.21,.2,.2,.39-.03,.47-.03,.94-.06,1.41-.03,.51-.32,.91-.52,1.34-.11,.23-.4,.26-.65,.1-.43-.26-.63-.65-.66-1.14-.02-.39-.03-.78-.01-1.17,0-.21,.02-.42,.17-.59h0Z"/><path class="cls-3" d="M35.32,10.64c-.3,.65-.8,1.14-1.31,1.62-.11,.1-.22,.05-.34,.04-.62-.07-.78-.57-.45-1.13,.31-.52,.7-.98,1.01-1.49,.22-.36,.53-.47,.9-.48,.27,0,.6,.57,.5,.84-.08,.21-.15,.41-.3,.6h0Zm.26-.94s.02,0,.03,0c0-.01-.01-.03-.03-.04,0,0-.02,0-.03,0,0,.01,.02,.03,.02,.05h0Z"/><path class="cls-3" d="M32.36,16.38c-.39-.36-.44-.77-.21-1.24,.45-.37,.83-.06,1.21,.13,.63,.31,1.11,.83,1.69,1.22,.21,.14,.24,.4,.21,.63-.03,.21-.19,.26-.42,.27-.62,.04-1.14-.17-1.64-.51-.27-.19-.5-.46-.86-.51h0Z"/><path class="cls-3" d="M27.01,15.87c.37-.59,.81-.98,1.32-1.29,.19-.12,.4-.17,.61-.04,.1,.06,.2,.09,.31,.03,.22-.12,.29,.09,.38,.22,.13,.16,0,.29-.1,.38-.13,.11-.22,.23-.3,.38-.35,.68-.93,1.15-1.55,1.58-.38,.26-.59,0-.82-.22-.25-.23-.18-.49-.05-.74,.07-.13,.16-.24,.2-.29h0Z"/><path class="cls-3" d="M31.24,15.23s.02,.05,.03,.06c.6,.63,.68,1.28,.27,2.06-.03,.06-.08,.14-.08,.2,0,.55-.43,.79-.76,1.08-.23,.21-.65,0-.74-.32-.11-.41,.05-.82,0-1.24,.21-.55,.39-1.12,.74-1.61,.14-.2,.28-.38,.55-.24h0Z"/><path class="cls-3" d="M33.23,14.11c-.07-.06-.21-.14-.15-.34,.09-.31,.28-.54,.6-.53,.55,.02,1.09-.08,1.65,.05,.26,.06,.55,.14,.84,.17,.09,.01,.23,.02,.23,.18,0,.15,.02,.33-.11,.41-.51,.31-1.05,.52-1.65,.44-.46-.06-.94-.1-1.41-.39h0Z"/><path class="cls-3" d="M35.58,9.71s-.02-.03-.02-.05c0,0,.03,0,.03,0,.01,0,.02,.03,.03,.04,0,0-.02,0-.03,0h0Z"/><path class="cls-3" d="M100.43,12.77c-.3-.34-.86-.4-1.05-.95-.11-.29-.09-.58-.04-.86,.03-.18,.17-.28,.37-.29,.24-.02,.48-.05,.71-.08,.02,0,.06-.02,.07,0,.24,.47,.8,.14,1.11,.47,.3,.31,.65,.57,.85,.97,.06,.13,.18,.28,.26,.32,.22,.13,.1,.27,.03,.34-.2,.19-.38,.35-.67,.45-.64,.23-1.09-.08-1.63-.36h0Z"/><path class="cls-3" d="M102.96,8.69c.13-.16,.21-.42,.41-.45,.37-.04,.77-.2,1.13,.1,.13,.11,.21,.2,.2,.39-.03,.47-.03,.94-.06,1.41-.03,.51-.32,.91-.52,1.34-.11,.23-.4,.26-.65,.1-.43-.26-.63-.65-.66-1.14-.02-.39-.03-.78-.01-1.17,0-.21,.02-.42,.17-.59h0Z"/><path class="cls-3" d="M107.95,10.64c-.3,.65-.8,1.14-1.31,1.62-.11,.1-.22,.05-.34,.04-.62-.07-.78-.57-.45-1.13,.31-.52,.7-.98,1.01-1.49,.21-.36,.52-.47,.9-.48,.27,0,.6,.57,.5,.84-.08,.21-.15,.41-.3,.6h0Zm.26-.94s.02,0,.03,0c0-.01-.01-.03-.03-.04,0,0-.02,0-.03,0,0,.01,.02,.03,.02,.05h0Z"/><path class="cls-3" d="M104.99,16.38c-.39-.36-.44-.77-.21-1.24,.45-.37,.83-.06,1.21,.13,.63,.31,1.11,.83,1.69,1.22,.21,.14,.24,.4,.21,.63-.03,.21-.19,.26-.42,.27-.62,.04-1.14-.17-1.64-.51-.27-.19-.5-.46-.85-.51h0Z"/><path class="cls-3" d="M99.64,15.87c.37-.59,.81-.98,1.32-1.29,.19-.12,.4-.17,.61-.04,.1,.06,.2,.09,.31,.03,.23-.12,.29,.09,.38,.22,.13,.16,0,.29-.1,.38-.13,.11-.22,.23-.3,.38-.35,.68-.93,1.15-1.55,1.58-.38,.26-.59,0-.82-.22-.25-.23-.18-.49-.05-.74,.07-.13,.16-.24,.2-.29h0Z"/><path class="cls-3" d="M103.87,15.23s.02,.05,.03,.06c.6,.63,.68,1.28,.27,2.06-.03,.06-.08,.14-.08,.2,0,.55-.43,.79-.76,1.08-.24,.21-.66,0-.74-.32-.11-.41,.05-.82,0-1.24,.21-.55,.39-1.12,.74-1.61,.14-.2,.28-.38,.55-.24h0Z"/><path class="cls-3" d="M105.86,14.11c-.07-.06-.21-.14-.15-.34,.09-.31,.28-.54,.6-.53,.55,.02,1.09-.08,1.65,.05,.26,.06,.56,.14,.84,.17,.09,.01,.23,.02,.23,.18,0,.15,.02,.33-.1,.41-.51,.31-1.05,.52-1.65,.44-.46-.06-.94-.1-1.41-.39h0Z"/><path class="cls-3" d="M108.21,9.71s-.02-.03-.02-.05c0,0,.03,0,.03,0,.01,0,.02,.03,.03,.04-.01,0-.02,0-.03,0h0Z"/><path class="cls-4" d="M200.51,27.76c.78-.92,2.03-1.43,3.19-1.22,1.17,.22,2.16,1.03,2.35,2.24,.19-1.2,1.18-2.02,2.35-2.24,1.17-.22,2.41,.3,3.19,1.22,.84,1,1.14,2.45,.77,3.71-.2,.68-.58,1.29-1.01,1.84-.68,.87-1.51,1.62-2.45,2.2-.93,.58-1.84,.95-2.86,1.36-1.01-.41-1.93-.78-2.86-1.36-.93-.58-1.76-1.34-2.45-2.2-.43-.55-.81-1.16-1.01-1.84-.38-1.26-.08-2.72,.77-3.71h0Z"/></g></g></g></svg>