<?xml version="1.0" encoding="UTF-8"?><svg id="_圖層_2" xmlns="http://www.w3.org/2000/svg" viewBox="0 0 48.76 48.76"><defs><style>.cls-1{fill:#fff;}</style></defs><g id="_圖層_5"><path class="cls-1" d="M24.38,0C10.91,0,0,10.91,0,24.38s10.91,24.38,24.38,24.38,24.38-10.91,24.38-24.38S37.85,0,24.38,0h0Zm11.62,15.85c-.07,.99-.63,4.44-1.2,8.17-.85,5.28-1.76,11.06-1.76,11.06,0,0-.14,1.62-1.34,1.9s-3.17-.99-3.52-1.27c-.28-.21-5.28-3.38-7.12-4.93-.49-.42-1.06-1.27,.07-2.25,2.54-2.32,5.57-5.21,7.4-7.05,.85-.85,1.69-2.82-1.83-.42-5,3.45-9.93,6.69-9.93,6.69,0,0-1.13,.7-3.24,.07-2.11-.63-4.58-1.48-4.58-1.48,0,0-1.69-1.06,1.2-2.18,0,0,12.19-5,16.42-6.76,1.62-.7,7.12-2.96,7.12-2.96,0,0,2.54-.99,2.32,1.41h0Z"/></g></svg>