<?xml version="1.0" encoding="UTF-8"?><svg xmlns="http://www.w3.org/2000/svg" viewBox="0 0 1360 641.84"><defs><style>.cls-1{fill:#fff;}.cls-2{fill:#ccc;mix-blend-mode:multiply;}.cls-3{isolation:isolate;}</style></defs><g class="cls-3"><g id="_圖層_2"><g id="_圖層_7"><polygon class="cls-2" points="1360 602 1147 613 876 587 505 584 295 602 88 582 0 602 0 0 1360 0 1360 602"/><path class="cls-1" d="M1346.52,587.07c-.7,7.16-18.02,5.15-22.09,5.05-10.32-2.08-21.92,1.99-31.91-1.23-7.39-2.58-13.92-5.8-21.63-5.51-6.44,6.06-13.41-1.18-19.61,.97-4.28,1.16-8.35,6.32-12.71,4.13-1.48,.37-1.95,.17-3.26,.94-.87-.24-1.27-.85-2.37,2.31-2.89-2.74-9.71,.19-12.68,.11-4.23,1.05-7.52,.15-11.25-2.57-3.68-2.24-5.31-6.69-9.96-2.55-3.06-3.1-14.79-2.73-17.82,.65-1.69,4.65-.72,3.11-1.5,4.57-.94,1.39-2.99,4.15-5.13,3.94-5.93,3.94-16.11,4.59-22.74,.96-8.87,3.11-19.52,5.48-28.18,.51-2.98,.14-3.11-1.67-6.23-6.61-2.36-5.61-5.17,.38-7.69-.62-4.29,.52-11.89-.2-15.69-.67-3.77-3.5-3.98-2.56-8.57-4.42-9.68-1.74-19.53,.57-28.74-1.28-6.07-1.71-13.43,1.42-19.7-.37-7.91-10-19.51,5.46-25.52-3.38-2.16-2.85-3.38-7.71-6.49-4.86-1.8,.7-3.58-1.92-5.37-2.78-6.84-.77-10.66,5.78-17.18,2.67-3.11,5.86-6.29,1.49-9.4-.08-4.17-1.32-9.76-.38-13.77-.29-3.1-3.3-4.84-1.52-8.31-4.42-2.72-1.7-5.47,1.45-8.23-.36-7.85-.58-15.98,6.36-23.96,1.78-6.5-3.11-13.5-5.57-20.3-4.93,.94,8.68-24.21-1.4-29.54,4.86-8.17,4.28-16.14-3.84-24.16-3.8-6.86-7.92-13.45,1.78-20.52-1.27-5.05-1.52-8.37-1.45-12.89,1.68-2.55,2.46-1.17,1.94-4.05,1.72-.81,7.87-2.32,.95-3.23-.03-4.36,3.78-9.43-1.97-13.68,.13-3.13-2.46-5.55-.68-8.2-4.35-4.81,1.36-9.74-3.21-15.41-4.19-8,.18-15.94,2.17-23.48-1.36-6.3-3.09-13.25,2.67-19.39,3.02-3.36,3.22-4.14,1.4-6.97,2.4-1.57-.5-2.83,4.49-4.6,1.07-4.25-1.77-8.59-2.52-12.86-.08-4.1,5.09-8.47-2.29-12.54-.17-4.71-8.84-8.57,3.1-13.15,3.62-8.38-1.87-17.43-3.2-25.89-.08-3.42-1.03-7.54,.39-10.84,.35-3.56,.09-3.98,3.63-6.71,5.72-5.66,5.14-15.64-3.83-21.98,.58-3.2-2.17-5,4.48-8.49,1.73-5.98,2.09-5.41,.86-9.87,4.38-4.95,5.7-14.82,1.18-19.88-.57-3.99-5.39-5.86-2.52-7.67-4.16-1.87-.72-2.01-3.95-5.52-7.34-2.95-.62-5.36-7.51-9.33-5.83-4.53-3.21-7.46,1.67-10.86,1.61-5.4,6.11-13.62,.95-19.34,.14-7.88-1.7-15.76,1.06-23.64,0-5.58,3.62-11.16,.23-16.74-.01-3.11,.44-8.87-1.6-8.75,3.1-5.71,2.5-12.32,1.17-18.16,.54-.46,3.53,.52,6.97-.21,7.88-5.46-2.69-10.64,5.86-16.31,3.74-3.97,.87-8.01-4.54-11.99-.08-9.1,1.42-18.21-2.68-27.31,0-3.6,.58-5.92,.75-9.01,1.83-4.7,1.94-7.63,7.07-13.14,3.23-5.02,1.22-10-1.73-14.87-.86-5.92-.05-3.95,2.5-8.13,2.67-2.98,4.05-9-2.04-12.22-.13-5.53-5.91-11.15,3.56-16.68,.03-4.75-1.83-5.08-1.46-8.69-5.01-3.63,2.44-8.78-1.77-13.14-3.45-4.79-3.29-8.61,1.13-13.39-2.05-3.21,1.02-4.45-4.45-7.62-.21-2.27-.35-3.15,1.3-5.09,4.52-2.1,6.6-2.86,3.15-5.54,1.14-3.16,1.5-6.33-1.65-9.49-.03-3.56-3.45-7.12,4.77-10.68,0-3.43,2.5-8.8-.28-11.88-.17-2.95-1.54-4.85-.6-7.97,4-3.67,1.99-5.33,5.55-9.26,.04-7.81-3.88-12.57-5.85-21.86-8.91-6.27,2.02-12.55-2.83-18.82-.01-5.44,1.52-9.62-6.09-14.85-1.72-4.36-.51-8.76,1.01-13.13,.04-4.17,.75-8.37,3.72-12.54,.04-2.79,.09-7.31,1.85-9.7-1.59-6.66-6.8-10.93-7.52-18.45-8.55-3.74-.41-7.54-3.75-11.21-.39-2.97,3.3-5.97-1.34-9.01-3.08-7.26-2.51-15.97-1.01-20.31,5.1-5.52,7.47-13.06,7.08-21.99,6.78-4.25-2.9-7.68,1.82-11.74,1.72-.97-3.16-2.61-1.57-3.47-.17-1.65,.27-1.34,.59-2.59,2.45-6.61,4.93-13.42,5.87-19.23-2.32,0,.18-2.11,10.94-4.21,17.69-2.11,8.32-4.21,16.91-4.21,17.69,5.06-3.27,10.07-9.68,15.43-10.32,3,1.27,9.79-3.01,12.75,.08,4.72,.93,7.71,6.16,12.06,2.51,4.58,2.44,9.21,4.07,13.67-.21,4.84-2,8.13-13.16,13.44-7.31,7.8-.16,12.62-1.02,18.81-6.41,6.38-5.5,16.31,.22,23.55,3.73,6.62,.85,13.62,5.24,20.56,.8,6.94,1.78,13.8,1.2,20.14,2.57,7.39,6.58,14.62,9.56,23.05,7.42,7.69-1.51,14.47-4.89,22.38,.39,3.65-4.92,6.42-.23,10.06,1.55,8.02,1.42,15.35,2.91,23.01,5.29,6.13,1.87,9.54,10.56,15.36,9.75,4.33,8.2,9.27-3.56,13.7,.09,4.58-2.34,8.06,.92,12.83,3.72,4.05-4.43,8.44,1.7,12.53-.18,7.94,.6,19.66,2.43,26.69-2.01,2.23,2.26,3.57,1.94,6.15-4.47,3.16,.04,7.22,3.97,10.49-.21,4.1,0,5.74-6.03,9.63-3.47,1.87-3.06,3.59-.27,5.45-.23,.85-.12,2.51,2.61,3.83-3.54,3.28-.19,7.83,3.01,11.34-2.47,2.94-2.15,5.59-6.22,8.65-1.63,3.63,3.66,4.6,8.7,8.97,6.25,2.71-.7,4.36-2.2,6.3-5.18,4.3-6.66,10.64-.64,15.8-1.56,10.29-2.33,20.64-5.39,30.92-.01,2.6-1.01,4.65,.24,7.16-.65,3.76-4.42,3.57-2.08,7.77-4.6,7.08,.43,14.5,5.79,21.7,1.92,3.97-6.11,7.32-.52,11.38-1.77,2.44,2.48,5.52,2.19,7.75-.54,2.8-2.79,1.57-4.74,3.13-7.62,2.69-3.12,12.13-3.83,17.04-1.89,4.4,6.26,8.81,3.59,13.21-.02,6.41-2.63,11.17-.93,16.53,3.71,3.18,9.43,4.66,2.5,8.05,4.77,3.15-1.88,5.23,4.87,8.04,3.79,4.87,4.04,11.1-.25,17.57,5.08,6.47,1.66,13.19,4,19.05-.48,7.32,1.43,14.76-1.07,21.75-1.68,3.53-4.82,3.36-3.48,7.21-1.59,3.76-.83,5.36-1.4,8.44-3.18,5.17,5.88,11.73,4.2,17.17-.29,5.23,2,10.53,.22,15.75-.08,7.02-2.37,14.65,2.56,22.24,3.31,7.59-3.89,15.15-5.8,22.03-3.19,2.15-3.61,3.59-1.44,5.48-4.71,.42,2.9,3.42-2.88,3.64-3.46,4.29-3.67,8.4,1.41,12.36,1.25,5.36,1.66,9.71-3.2,14.52,3.52,3.56,1.58,7.08,3.87,11.53,8.12,4.9,.66,9.14-.01,13.52-1.88,4.45-.37,6.68-.25,10.29,3.28,2.12,4.29,2.12,5.84,5.18,1.77,3.15,2.79,6.36-9.43,9.48-6.4,4.27-2.66,9.46-.17,14.11-1.15,6.32,1.59,12.87,8.52,19.46,1.59,6.59-1.72,13.21,2.09,19.67-.28,2.61,4.78,8.2-4.3,10.37-.17,2.18-1.96,2.04-1.98,4.32-6.79,2.26-7.92,6.85-7.81,9.66-1.59,3.89,.09,6.32,.04,10.45,1.81,4.84,6.48,9.82,.37,14.65,.17,4.96,.5,8.02-.38,12.66-3.27,6.87-3.07,10.82,1.61,16.03,5.29,3.09,4.55,3.54,2.11,7.11,3.64,2.33,3.81,4.32,.17,6.75,3.98,4.14-1.56,9.5,4.54,13.84,.29,4.29,1.57,6.87-1.18,10.67-1.84,2.7,.94,4.17-3.68,6.24,2.22,3.4,6.05,3.42-4.41,7.49,3.07,5.11-5.63,10.49,0,15.64-.07,2.6,3.22,5.54-1.23,8.12,.07,4.08,.61,2.16-1.08,5.35-3.07,3.83-4.25,7.55-8.12,12.49-2.06,3.65-3.69,7.31-1.4,10.96,0,2.86,.83,5.85-.38,8.65,.29,2.63-2.2,5.19,2.09,8.02,3.59,2.81,4.15,5.8-.76,8.6,1.79,5-1.68,8.72,5.45,13.69,7.5,4.96,7.68,10.44,.29,15.52,.56,4.02,3.48,6.94-.83,10.98,4.48,2.51-8.18,4.95,1.82,7.33,1.11,1.55-.39,3.2,6.92,4.97,2.76,1.52,2.46,3.33-4.64,4.89-.27,4.91-.62,6.49-.15,10.19,5.2,7.88,4.79,17.09,11.15,26.83,5.01,5.07,1.12,10.13-.4,15.2,0,6.92,3.01,13.83-1,20.75-.05,6.92,2.64,13.83,.06,20.75,.04,4.09-1.22,6.91-3.07,10.62-1.72,2.82-1.34,6.03,2.73,8.9,.16,5.25,1.72,12.56,3.16,16.98-4.81,1.93-2.86,2.45-6.35,4.14-3.98,1.06,1.87,2.13,.11,3.19-3.13,1.79-4.26,2.58-6.84,2.36-5.21,5.6-5.58,21.19-.46,29.85-3.59,6.25-1.07,12.43-3.12,19.17-1.18,3.75,2.59,5.66-2.38,9.1-3.21,4.87-1.01,10.84,2.35,15.8-.29,6.85-1.4,13.59,3.72,20.33,.84,6.74-.23,13.49-1.68,20.35,.84,0-1.44-13.48-25.76-13.48-26.96Z"/></g></g></g></svg>