<?xml version="1.0" encoding="utf-8"?>
<!-- Generator: Adobe Illustrator 26.3.1, SVG Export Plug-In . SVG Version: 6.00 Build 0)  -->
<svg version="1.1" id="圖層_1" xmlns="http://www.w3.org/2000/svg" xmlns:xlink="http://www.w3.org/1999/xlink" x="0px" y="0px"
	 viewBox="0 0 1360 641.8" style="enable-background:new 0 0 1360 641.8;" xml:space="preserve">
<style type="text/css">
	.st0{fill:#CCCCCC;}
	.st1{fill:#FFFFFF;}
</style>
<g>
	<g id="_圖層_2">
		<g id="_圖層_7">
			<polygon class="st0" points="-0.1,40.2 212.9,29.1 483.9,54.9 854.9,57.7 1064.9,39.6 1271.9,59.5 1359.9,39.5 1360.2,641.5 
				0.2,642.2 			"/>
			<path class="st1" d="M13.3,55.1c0.7-7.2,18-5.2,22.1-5.1c10.3,2.1,21.9-2,31.9,1.2c7.4,2.6,13.9,5.8,21.6,5.5
				c6.4-6.1,13.4,1.2,19.6-1c4.3-1.2,8.3-6.3,12.7-4.1c1.5-0.4,1.9-0.2,3.3-0.9c0.9,0.2,1.3,0.8,2.4-2.3c2.9,2.7,9.7-0.2,12.7-0.1
				c4.2-1.1,7.5-0.2,11.3,2.6c3.7,2.2,5.3,6.7,10,2.5c3.1,3.1,14.8,2.7,17.8-0.7c1.7-4.7,0.7-3.1,1.5-4.6c0.9-1.4,3-4.2,5.1-3.9
				c5.9-3.9,16.1-4.6,22.7-1c8.9-3.1,19.5-5.5,28.2-0.5c3-0.1,3.1,1.7,6.2,6.6c2.4,5.6,5.2-0.4,7.7,0.6c4.3-0.5,11.9,0.2,15.7,0.7
				c3.8,3.5,4,2.6,8.6,4.4c9.7,1.7,19.5-0.6,28.7,1.3c6.1,1.7,13.4-1.4,19.7,0.4c7.9,10,19.5-5.5,25.5,3.4c2.2,2.8,3.4,7.7,6.5,4.9
				c1.8-0.7,3.6,1.9,5.4,2.8c6.8,0.8,10.7-5.8,17.2-2.7c3.1-5.9,6.3-1.5,9.4,0.1c4.2,1.3,9.8,0.4,13.8,0.3c3.1,3.3,4.8,1.5,8.3,4.4
				c2.7,1.7,5.5-1.5,8.2,0.4c7.9,0.6,16-6.4,24-1.8c6.5,3.1,13.5,5.6,20.3,4.9c-0.9-8.7,24.2,1.4,29.5-4.9
				c8.2-4.3,16.1,3.8,24.2,3.8c6.9,7.9,13.4-1.8,20.5,1.3c5.1,1.5,8.4,1.4,12.9-1.7c2.5-2.5,1.2-1.9,4-1.7c0.8-7.9,2.3-1,3.2,0
				c4.4-3.8,9.4,2,13.7-0.1c3.1,2.5,5.6,0.7,8.2,4.3c4.8-1.4,9.7,3.2,15.4,4.2c8-0.2,15.9-2.2,23.5,1.3c6.3,3.1,13.2-2.7,19.4-3
				c3.4-3.2,4.1-1.4,7-2.4c1.6,0.5,2.8-4.5,4.6-1.1c4.3,1.8,8.6,2.5,12.9,0.1c4.1-5.1,8.5,2.3,12.5,0.2c4.7,8.8,8.6-3.1,13.1-3.6
				c8.4,1.9,17.4,3.2,25.9,0.1c3.4,1,7.5-0.4,10.8-0.4c3.6-0.1,4-3.6,6.7-5.7c5.7-5.1,15.6,3.8,22-0.6c3.2,2.2,5-4.5,8.5-1.7
				c6-2.1,5.4-0.9,9.9-4.4c4.9-5.7,14.8-1.2,19.9,0.6c4,5.4,5.9,2.5,7.7,4.2c1.9,0.7,2,3.9,5.5,7.3c3,0.6,5.4,7.5,9.3,5.8
				c4.5,3.2,7.5-1.7,10.9-1.6c5.4-6.1,13.6-1,19.3-0.1c7.9,1.7,15.8-1.1,23.6,0c5.6-3.6,11.2-0.2,16.7,0c3.1-0.4,8.9,1.6,8.7-3.1
				c5.7-2.5,12.3-1.2,18.2-0.5c0.5-3.5-0.5-7,0.2-7.9c5.5,2.7,10.6-5.9,16.3-3.7c4-0.9,8,4.5,12,0.1c9.1-1.4,18.2,2.7,27.3,0
				c3.6-0.6,5.9-0.8,9-1.8c4.7-1.9,7.6-7.1,13.1-3.2c5-1.2,10,1.7,14.9,0.9c5.9,0,3.9-2.5,8.1-2.7c3-4.1,9,2,12.2,0.1
				c5.5,5.9,11.1-3.6,16.7,0c4.8,1.8,5.1,1.5,8.7,5c3.6-2.4,8.8,1.8,13.1,3.4c4.8,3.3,8.6-1.1,13.4,2c3.2-1,4.5,4.4,7.6,0.2
				c2.3,0.3,3.1-1.3,5.1-4.5c2.1-6.6,2.9-3.2,5.5-1.1c3.2-1.5,6.3,1.6,9.5,0c3.6,3.4,7.1-4.8,10.7,0c3.4-2.5,8.8,0.3,11.9,0.2
				c3,1.5,4.9,0.6,8-4c3.7-2,5.3-5.6,9.3,0c7.8,3.9,12.6,5.8,21.9,8.9c6.3-2,12.6,2.8,18.8,0c5.4-1.5,9.6,6.1,14.9,1.7
				c4.4,0.5,8.8-1,13.1,0c4.2-0.8,8.4-3.7,12.5,0c2.8-0.1,7.3-1.9,9.7,1.6c6.7,6.8,10.9,7.5,18.5,8.5c3.7,0.4,7.5,3.7,11.2,0.4
				c3-3.3,6,1.3,9,3.1c7.3,2.5,16,1,20.3-5.1c5.5-7.5,13.1-7.1,22-6.8c4.3,2.9,7.7-1.8,11.7-1.7c1,3.2,2.6,1.6,3.5,0.2
				c1.6-0.3,1.3-0.6,2.6-2.5c6.6-4.9,13.4-5.9,19.2,2.3c0-0.2,2.1-10.9,4.2-17.7c2.1-8.3,4.2-16.9,4.2-17.7
				c-5.1,3.3-10.1,9.7-15.4,10.3c-3-1.3-9.8,3-12.8-0.1c-4.7-0.9-7.7-6.2-12.1-2.5c-4.6-2.4-9.2-4.1-13.7,0.2
				c-4.8,2-8.1,13.2-13.4,7.3c-7.8,0.2-12.6,1-18.8,6.4c-6.4,5.5-16.3-0.2-23.6-3.7c-6.6-0.8-13.6-5.2-20.6-0.8
				c-6.9-1.8-13.8-1.2-20.1-2.6c-7.4-6.6-14.6-9.6-23.1-7.4c-7.7,1.5-14.5,4.9-22.4-0.4c-3.6,4.9-6.4,0.2-10.1-1.5
				c-8-1.4-15.4-2.9-23-5.3c-6.1-1.9-9.5-10.6-15.4-9.7c-4.3-8.2-9.3,3.6-13.7-0.1c-4.6,2.3-8.1-0.9-12.8-3.7
				c-4,4.4-8.4-1.7-12.5,0.2c-7.9-0.6-19.7-2.4-26.7,2c-2.2-2.3-3.6-1.9-6.1,4.5c-3.2,0-7.2-4-10.5,0.2c-4.1,0-5.7,6-9.6,3.5
				c-1.9,3.1-3.6,0.3-5.4,0.2c-0.8,0.1-2.5-2.6-3.8,3.5c-3.3,0.2-7.8-3-11.3,2.5c-2.9,2.2-5.6,6.2-8.6,1.6c-3.6-3.7-4.6-8.7-9-6.2
				c-2.7,0.7-4.4,2.2-6.3,5.2c-4.3,6.7-10.6,0.6-15.8,1.6c-10.3,2.3-20.6,5.4-30.9,0c-2.6,1-4.7-0.2-7.2,0.7
				c-3.8,4.4-3.6,2.1-7.8,4.6c-7.1-0.4-14.5-5.8-21.7-1.9c-4,6.1-7.3,0.5-11.4,1.8c-2.4-2.5-5.5-2.2-7.7,0.5
				c-2.8,2.8-1.6,4.7-3.1,7.6c-2.7,3.1-12.1,3.8-17,1.9c-4.4-6.3-8.8-3.6-13.2,0c-6.4,2.6-11.2,0.9-16.5-3.7
				c-3.2-9.4-4.7-2.5-8.1-4.8c-3.1,1.9-5.2-4.9-8-3.8c-4.9-4-11.1,0.3-17.6-5.1c-6.5-1.7-13.2-4-19,0.5c-7.3-1.4-14.8,1.1-21.7,1.7
				c-3.5,4.8-3.4,3.5-7.2,1.6c-3.8,0.8-5.4,1.4-8.4,3.2c-5.2-5.9-11.7-4.2-17.2,0.3c-5.2-2-10.5-0.2-15.7,0.1
				c-7,2.4-14.7-2.6-22.2-3.3c-7.6,3.9-15.1,5.8-22,3.2c-2.1,3.6-3.6,1.4-5.5,4.7c-0.4-2.9-3.4,2.9-3.6,3.5
				c-4.3,3.7-8.4-1.4-12.4-1.2c-5.4-1.7-9.7,3.2-14.5-3.5c-3.6-1.6-7.1-3.9-11.5-8.1c-4.9-0.7-9.1,0-13.5,1.9
				c-4.4,0.4-6.7,0.3-10.3-3.3c-2.1-4.3-2.1-5.8-5.2-1.8c-3.2-2.8-6.4,9.4-9.5,6.4c-4.3,2.7-9.5,0.2-14.1,1.2
				c-6.3-1.6-12.9-8.5-19.5-1.6c-6.6,1.7-13.2-2.1-19.7,0.3c-2.6-4.8-8.2,4.3-10.4,0.2c-2.2,2-2,2-4.3,6.8c-2.3,7.9-6.8,7.8-9.7,1.6
				c-3.9-0.1-6.3,0-10.5-1.8c-4.8-6.5-9.8-0.4-14.7-0.2c-5-0.5-8,0.4-12.7,3.3c-6.9,3.1-10.8-1.6-16-5.3c-3.1-4.5-3.5-2.1-7.1-3.6
				c-2.3-3.8-4.3-0.2-6.8-4c-4.1,1.6-9.5-4.5-13.8-0.3c-4.3-1.6-6.9,1.2-10.7,1.8c-2.7-0.9-4.2,3.7-6.2-2.2c-3.4-6-3.4,4.4-7.5-3.1
				c-5.1,5.6-10.5,0-15.6,0.1c-2.6-3.2-5.5,1.2-8.1-0.1c-4.1-0.6-2.2,1.1-5.3,3.1c-3.8,4.3-7.5,8.1-12.5,2.1c-3.6,3.7-7.3,1.4-11,0
				c-2.9-0.8-5.8,0.4-8.7-0.3c-2.6,2.2-5.2-2.1-8-3.6c-2.8-4.1-5.8,0.8-8.6-1.8c-5,1.7-8.7-5.4-13.7-7.5c-5-7.7-10.4-0.3-15.5-0.6
				c-4-3.5-6.9,0.8-11-4.5c-2.5,8.2-5-1.8-7.3-1.1c-1.5,0.4-3.2-6.9-5-2.8c-1.5-2.5-3.3,4.6-4.9,0.3c-4.9,0.6-6.5,0.2-10.2-5.2
				c-7.9-4.8-17.1-11.1-26.8-5c-5.1-1.1-10.1,0.4-15.2,0c-6.9-3-13.8,1-20.7,0.1c-6.9-2.6-13.8-0.1-20.8,0
				c-4.1,1.2-6.9,3.1-10.6,1.7c-2.8,1.3-6-2.7-8.9-0.2c-5.3-1.7-12.6-3.2-17,4.8c-1.9,2.9-2.4,6.4-4.1,4c-1.1-1.9-2.1-0.1-3.2,3.1
				c-1.8,4.3-2.6,6.8-2.4,5.2c-5.6,5.6-21.2,0.5-29.8,3.6c-6.2,1.1-12.4,3.1-19.2,1.2c-3.8-2.6-5.7,2.4-9.1,3.2
				c-4.9,1-10.8-2.3-15.8,0.3C33.7,31.2,27,26.1,20.2,29c-6.7,0.2-13.5,1.7-20.4-0.8C-0.1,29.6,13.4,53.9,13.3,55.1L13.3,55.1z"/>
		</g>
	</g>
</g>
</svg>
