<svg width="345" height="950" viewBox="0 0 345 950" fill="none" xmlns="http://www.w3.org/2000/svg">
<path d="M345 32.3659L290.967 15.5985L222.221 55.2305L128.107 59.8035L74.8346 32.3659L22.3235 62.8521L0 32.3659V950H345V32.3659Z" fill="#D9D9D9" fill-opacity="0.81"/>
<path d="M341.587 47.6568C341.41 41.4246 337.015 43.1742 335.983 43.2612C333.364 45.0717 330.421 41.5291 327.886 44.3318C326.011 46.5775 324.354 49.3803 322.398 49.1278C320.764 43.8531 318.995 50.155 317.422 48.2836C316.336 47.2739 315.304 42.7825 314.197 44.6887C313.822 44.3667 313.703 44.5408 313.37 43.8705C313.149 44.0794 313.048 44.6104 312.769 41.8599C312.036 44.2448 310.305 41.6944 309.552 41.7641C308.478 40.8501 307.644 41.6335 306.697 44.0011C305.763 45.9508 305.35 49.8242 304.17 46.2207C303.394 48.919 300.417 48.5969 299.649 45.6549C299.22 41.6074 299.466 42.9479 299.268 41.6771C299.029 40.4672 298.509 38.0648 297.966 38.2476C296.462 34.8182 293.879 34.2524 292.197 37.412C289.946 34.705 287.244 32.6421 285.046 36.9681C284.29 36.8463 284.257 38.4217 283.466 42.7216C282.867 47.6046 282.154 42.3908 281.515 43.2612C280.426 42.8086 278.498 43.4353 277.534 43.8444C276.577 46.8909 276.524 46.0727 275.359 47.6916C272.903 49.2062 270.404 47.1955 268.067 48.8058C266.527 50.2942 264.659 47.5698 263.068 49.1278C261.061 57.832 258.118 44.3754 256.593 52.0699C256.045 54.5506 255.736 58.7808 254.947 56.3001C254.49 55.6908 254.038 57.9713 253.584 58.7199C251.849 59.3901 250.879 53.6888 249.225 56.3958C248.436 51.2952 247.629 55.0989 246.84 56.4655C245.782 57.6144 244.364 56.7963 243.346 56.7179C242.56 59.5903 242.118 58.041 241.238 60.5652C240.548 62.0449 239.85 59.303 239.149 60.8785C237.158 61.3833 235.095 55.3427 233.07 59.3292C231.421 62.0362 229.645 64.1774 227.919 63.6203C228.158 56.0651 221.777 64.8389 220.424 59.3901C218.351 55.6647 216.329 62.7325 214.294 62.6977C212.554 69.5914 210.882 61.1483 209.088 63.8031C207.806 65.1261 206.964 65.0652 205.817 62.3408C205.17 60.1996 205.52 60.6522 204.79 60.8437C204.584 53.9935 204.201 60.0168 203.97 60.8698C202.864 57.5796 201.577 62.5845 200.499 60.7566C199.705 62.8979 199.091 61.3486 198.418 64.543C197.198 63.3592 195.947 67.337 194.508 68.19C192.479 68.0334 190.464 66.3012 188.551 69.3738C186.952 72.0634 185.189 67.0498 183.631 66.7451C182.779 63.9424 182.581 65.5266 181.863 64.6561C181.464 65.0914 181.145 60.748 180.695 63.7248C179.617 65.2654 178.516 65.9182 177.432 63.7944C176.392 59.364 175.283 65.7877 174.251 63.9424C173.056 71.6369 172.076 61.2441 170.914 60.7915C168.788 62.4192 166.492 63.5768 164.345 60.8611C163.477 61.7576 162.432 60.5216 161.595 60.5565C160.691 60.4781 160.585 57.3969 159.892 55.5777C158.456 51.1037 155.924 58.9114 154.315 55.0728C153.503 56.9616 153.047 51.1733 152.161 53.567C150.644 51.7478 150.788 52.8185 149.657 49.7546C148.401 44.7932 145.897 48.7274 144.613 50.2507C143.6 54.9422 143.126 52.4442 142.667 53.8716C142.192 54.4983 142.157 57.3098 141.266 60.2605C140.517 60.8001 139.906 66.7974 138.899 65.335C137.749 68.1291 137.006 63.8815 136.143 63.9337C134.773 58.6154 132.687 63.1068 131.236 63.8118C129.237 65.2915 127.237 62.8892 125.238 63.8118C123.822 60.6609 122.406 63.6116 120.991 63.8205C120.201 63.4375 118.74 65.2132 118.77 61.1222C117.322 58.9462 115.644 60.1038 114.163 60.6522C114.046 57.5796 114.295 54.5854 114.109 53.7933C112.724 56.1347 111.41 48.6926 109.971 50.5379C108.964 49.7807 107.939 54.4896 106.929 50.6076C104.62 49.3716 102.308 52.9403 99.9996 50.6076C99.0861 50.1027 98.4975 49.9547 97.7135 49.0147C96.5209 47.3261 95.7775 42.8608 94.3795 46.2033C93.1058 45.1413 91.8422 47.7091 90.6065 46.9518C89.1044 46.9953 89.6043 44.7758 88.5437 44.6278C87.7876 41.1026 86.2602 46.4035 85.4431 44.741C84.04 49.8851 82.6141 41.6422 81.211 44.7148C80.0057 46.3077 79.922 45.9856 79.006 49.0756C78.085 46.9518 76.7783 50.6163 75.6721 52.0786C74.4567 54.9423 73.4874 51.095 72.2746 53.8629C71.4602 52.9751 71.1455 57.7363 70.3412 54.0457C69.7652 54.3504 69.542 52.9142 69.0497 50.1114C68.5169 44.3667 68.3241 47.3696 67.6441 49.1191C66.8423 47.8135 66.038 50.5554 65.2362 49.1453C64.3329 52.1482 63.4296 44.9934 62.5264 49.1453C61.6561 46.9692 60.2936 49.389 59.5121 49.2932C58.7636 50.6337 58.2815 49.8155 57.4899 45.8116C56.5587 44.0794 56.1375 40.9807 55.1403 45.7768C53.1587 49.154 51.951 50.8687 49.5938 53.5322C48.0029 51.7739 46.4095 55.9955 44.8186 53.5409C43.4384 52.2178 42.3778 58.8417 41.0508 55.038C39.9445 55.4819 38.8281 54.1589 37.7193 55.0032C36.6613 54.3504 35.5956 51.7652 34.5375 54.9684C33.8296 54.89 32.6828 53.3581 32.0764 56.3523C30.3865 62.2712 29.3031 62.8979 27.3951 63.7944C26.4461 64.1513 25.482 67.0585 24.5508 64.1339C23.7972 61.2615 23.036 65.3002 22.2647 66.8148C20.4226 68.9995 18.2126 67.6939 17.1115 62.3757C15.7109 55.8736 13.7978 56.2131 11.532 56.4742C10.4536 58.9984 9.58333 54.89 8.55319 54.9771C8.30708 57.7276 7.89096 56.3436 7.67276 55.125C7.2541 54.89 7.33276 54.6115 7.0156 52.9925C5.33845 48.7013 3.61056 47.8832 2.1364 55.0119C2.1364 54.8552 1.60103 45.4895 1.0682 39.6142C0.53283 32.3723 0 24.8954 0 24.2165C1.28387 27.0627 2.55505 32.6421 3.91503 33.1992C4.67622 32.0938 6.39904 35.8191 7.15007 33.1295C8.34767 32.3201 9.10632 27.7677 10.21 30.9448C11.3721 28.821 12.5469 27.4022 13.6785 31.1276C14.9066 32.8684 15.7413 42.5823 17.0886 37.4903C19.0677 37.6296 20.2907 38.3782 21.8613 43.0697C23.4801 47.857 25.9996 42.8782 27.8366 39.8231C29.5163 39.0832 31.2924 35.2621 33.0532 39.1267C34.8141 37.5774 36.5547 38.0822 38.1633 36.8898C40.0384 31.1624 41.8729 28.5686 44.0118 30.4313C45.963 31.7456 47.6832 34.6876 49.6902 30.0918C50.6163 34.3742 51.3192 30.292 52.2427 28.7426C54.2776 27.5067 56.1375 26.2097 58.081 24.1381C59.6364 22.5104 60.5016 14.9465 61.9783 15.6515C63.077 8.51407 64.3304 18.7502 65.4544 15.5732C66.6165 17.61 67.4994 14.7724 68.7097 12.3352C69.7373 16.1912 70.8512 10.8555 71.889 12.4919C73.9036 11.9697 76.8773 10.3768 78.661 14.2414C79.2268 12.2743 79.5668 12.5528 80.2214 18.1322C81.0232 18.0974 82.0533 14.6766 82.883 18.315C83.9233 18.315 84.3394 23.5636 85.3264 21.3354C85.8009 23.9989 86.2373 21.5704 86.7092 21.5356C86.9249 21.64 87.3461 19.2638 87.681 24.6169C88.5133 24.7822 89.6677 21.9969 90.5583 26.7668C91.3043 28.6382 91.9767 32.1808 92.7531 28.1856C93.6741 24.9998 93.9202 20.6129 95.029 22.7454C95.7166 23.3547 96.1353 24.6604 96.6275 27.2542C97.7185 33.0512 99.3272 27.8113 100.636 28.6121C103.247 30.6401 105.873 33.3036 108.482 28.6208C109.141 29.4999 109.662 28.4119 110.298 29.1866C111.252 33.0338 111.204 30.997 112.27 33.1905C114.066 32.8162 115.949 28.1508 117.776 31.5193C118.783 36.8375 119.633 31.9719 120.663 33.0599C121.282 30.9013 122.064 31.1537 122.63 33.5299C123.34 35.9584 123.028 37.6557 123.424 40.1625C124.106 42.8782 126.502 43.4963 127.747 41.8076C128.864 36.3588 129.983 38.6828 131.099 41.825C132.725 44.1142 133.933 42.6345 135.293 38.5958C136.1 30.3877 136.476 36.4197 137.336 34.4439C138.135 36.0803 138.663 30.205 139.376 31.145C140.611 27.6285 142.192 31.3626 143.834 26.7233C145.475 25.2784 147.18 23.2416 148.667 27.1411C150.525 25.8964 152.412 28.0724 154.186 28.6033C155.082 32.7988 155.038 31.6324 156.015 29.9873C156.969 30.7098 157.375 31.2059 158.157 32.7553C159.468 27.6372 161.133 29.0995 162.513 33.0077C163.84 31.2668 165.185 32.8162 166.509 33.0773C168.291 35.1402 170.227 30.849 172.152 30.1962C174.078 33.5822 175.996 35.2447 177.742 32.9729C178.288 36.1151 178.653 34.2263 179.132 37.0726C179.239 34.5483 180 39.5793 180.056 40.0842C181.145 43.2786 182.187 38.8569 183.192 38.9962C184.552 37.5513 185.656 41.7815 186.876 35.9323C187.78 34.5571 188.673 32.5638 189.802 28.8645C191.045 28.29 192.121 28.8732 193.232 30.5009C194.361 30.8229 194.927 30.7185 195.843 27.6459C196.381 23.9118 196.381 22.5626 197.157 26.1053C197.957 23.6768 198.771 34.3133 199.563 31.676C200.646 33.9913 201.963 31.8239 203.143 32.6769C204.746 31.2929 206.408 25.261 208.08 31.293C209.752 32.7901 211.432 29.4738 213.071 31.5367C213.733 27.3761 215.152 35.2795 215.702 31.6847C216.256 33.3907 216.22 33.4081 216.798 37.5948C217.372 44.4885 218.537 44.3928 219.25 38.9788C220.237 38.9004 220.853 38.944 221.901 37.4033C223.129 31.763 224.393 37.0812 225.618 37.2553C226.877 36.8201 227.653 37.5861 228.83 40.1016C230.573 42.7738 231.576 38.7002 232.898 35.4971C233.682 31.5367 233.796 33.6605 234.702 32.3288C235.293 29.0125 235.798 32.1808 236.414 28.8645C237.465 30.2224 238.825 24.9128 239.926 28.6121C241.014 27.2455 241.669 29.6392 242.633 30.2137C243.318 29.3955 243.691 33.4168 244.216 28.2813C245.079 23.0153 245.084 32.1198 246.117 25.6091C247.413 30.5096 248.778 25.6091 250.085 25.67C250.745 22.8673 251.491 26.7407 252.145 25.6091C253.181 25.0782 252.693 26.5492 253.503 28.2813C254.475 31.9806 255.419 35.3491 256.672 30.0744C257.598 33.2862 258.527 31.2929 259.453 30.0744C260.178 29.3519 260.937 30.4051 261.648 29.822C262.315 31.7369 262.964 28.0028 263.682 26.6971C264.395 23.0849 265.154 27.3587 265.865 25.1391C267.133 26.6014 268.077 20.3953 269.338 18.611C270.597 11.9261 271.987 18.3585 273.276 18.1235C274.296 15.0945 275.037 18.846 276.062 14.2241C276.699 21.3441 277.318 12.6399 277.922 13.2579C278.315 13.5973 278.734 7.2346 279.183 10.8555C279.568 8.71431 280.028 14.8943 280.423 11.0905C281.669 11.6302 282.07 11.2211 283.009 6.56433C285.008 2.39502 287.345 -3.14079 289.817 2.20358C291.103 1.22871 292.387 2.55175 293.673 2.20358C295.429 -0.416383 297.182 3.07398 298.938 2.24708C300.694 -0.0508234 302.447 2.19482 304.203 2.21223C305.241 3.27414 305.956 4.88445 306.898 3.70938C307.613 4.87574 308.428 1.33316 309.156 3.57014C310.488 2.07302 312.343 0.819614 313.464 7.75685C313.954 10.2463 314.086 13.284 314.514 11.2211C314.783 9.59342 315.055 11.1254 315.324 13.9455C315.778 17.6535 315.978 19.8992 315.923 18.4804C317.344 23.3373 321.299 18.8808 323.496 21.6052C325.082 22.5365 326.65 24.3209 328.36 22.6323C329.312 20.3779 329.797 24.7039 330.669 25.4264C331.905 26.3055 333.42 23.3808 334.678 25.6788C336.416 26.8973 338.126 22.4408 339.837 24.9476C341.547 25.1478 343.259 26.4099 345 24.2165C345 25.4699 341.58 46.6385 341.58 47.683L341.587 47.6568Z" fill="white"/>
</svg>
