<?xml version="1.0" encoding="UTF-8"?><svg id="_圖層_2" xmlns="http://www.w3.org/2000/svg" viewBox="0 0 120.04 121.17"><defs><style>.cls-1,.cls-2{font-family:GenSenRoundedTW-B, 'GenSenRounded TW';font-size:25.18px;}.cls-3{fill:#ffffca;}.cls-4{fill:#6b8f8b;}.cls-2{fill:#fff;stroke:#fff;stroke-width:4px;}.cls-2,.cls-5{stroke-linecap:round;stroke-linejoin:round;}.cls-5{stroke:#000;stroke-width:3px;}</style></defs><g id="_圖層_5"><g><path class="cls-5" d="M63.81,111.86h0s0,0,0,0c-11.9,15.09-36.15,6.89-36.46-12.32h0s0,0,0,0c-19.08,2.26-30.44-20.69-17.07-34.49h0s0,0,0,0C-4.8,53.15,3.39,28.89,22.61,28.59h0s0,0,0,0C20.35,9.51,43.3-1.85,57.1,11.52h0s0,0,0,0c11.9-15.09,36.15-6.89,36.46,12.32h0s0,0,0,0c19.08-2.26,30.44,20.69,17.07,34.49h0s0,0,0,0c15.09,11.9,6.89,36.15-12.32,36.46h0s0,0,0,0c2.26,19.08-20.69,30.44-34.49,17.07Z"/><g><path class="cls-5" d="M63.42,112.47l-14.57,7.21c5.28-.2,10.56-2.47,14.57-7.21Z"/><path class="cls-5" d="M14.03,96.53c.61,.39,1.24,.76,1.89,1.08L116.19,48c.14-.72,.23-1.44,.28-2.16L14.03,96.53Z"/><path class="cls-5" d="M9.9,33.31l8.45-4.18c-3.27,.73-6.11,2.2-8.45,4.18Z"/><path class="cls-5" d="M38.26,17.26h0s-15.67,7.76-15.67,7.76c-.03,.66-.03,1.33,0,2.02l16.66-8.24,.19-.09h0s16.59-8.21,16.59-8.21c-.52-.44-1.06-.85-1.6-1.23l-15.98,7.91-.19,.09Z"/><path class="cls-5" d="M4.37,40.76c-.35,.8-.65,1.63-.9,2.46L80.5,5.11c-.82-.31-1.65-.57-2.51-.78L4.37,40.76Z"/><path class="cls-5" d="M36.58,13.39l.19-.09h0s12.98-6.43,12.98-6.43c-.86-.3-1.72-.56-2.59-.74l-11.38,5.63-.19,.09h0s-11.08,5.48-11.08,5.48c-.39,.8-.71,1.64-.99,2.51l13.05-6.46Z"/><path class="cls-5" d="M27.82,103.17c.11,.62,.26,1.22,.42,1.81L114.57,62.26c-.37-.49-.76-.97-1.18-1.43L27.82,103.17Z"/><path class="cls-5" d="M33.51,113.81c.47,.46,.96,.89,1.47,1.29l83.56-41.35c-.01-.65-.06-1.3-.14-1.95L33.51,113.81Z"/><path class="cls-5" d="M82.23,105.17h0s16.32-8.07,16.32-8.07c0-.64-.04-1.3-.11-1.96l-17.2,8.51-.19,.09h0s-16.89,8.36-16.89,8.36c.49,.46,.99,.88,1.49,1.28l16.39-8.11,.19-.09Z"/><path class="cls-5" d="M86.78,114.36l-.19,.09-6.24,3.09c2.29-.27,4.52-.92,6.59-1.92,.06-.03,.13-.06,.19-.09,2.16-1.06,4.14-2.49,5.82-4.23l-6.17,3.05h0Z"/><path class="cls-5" d="M21.72,99.46c1.16,.18,2.36,.26,3.6,.24L112.14,56.73c.77-.97,1.43-1.98,2-3.01L21.72,99.46Z"/><path class="cls-5" d="M29.82,108.91c.29,.54,.59,1.06,.92,1.56l86.69-42.9c-.2-.57-.43-1.13-.69-1.68L29.82,108.91Z"/><path class="cls-5" d="M78.76,98.15l-.19,.09-39.35,19.47c.74,.34,1.49,.65,2.26,.9l37.71-18.66h0s.19-.09,.19-.09l38.02-18.81c.26-.77,.48-1.55,.65-2.34l-39.29,19.44h0Z"/><path class="cls-5" d="M113.76,87.56l-14.57,7.21c6.2-.31,11.21-3.13,14.57-7.21Z"/><path class="cls-5" d="M84.11,108.96h0s-.19,.09-.19,.09l-13.98,6.92c.76,.34,1.53,.64,2.31,.87l12.28-6.08h0s.19-.09,.19-.09l12.59-6.23c.29-.76,.52-1.56,.71-2.37l-13.92,6.89Z"/><path class="cls-5" d="M2.6,48.37c-.03,.67-.01,1.34,.03,2.01L86.7,8.77c-.51-.44-1.03-.85-1.58-1.24L2.6,48.37Z"/><path class="cls-5" d="M5.88,60.2c.34,.5,.7,1,1.09,1.48L93.05,19.08c-.15-.6-.32-1.19-.51-1.77L5.88,60.2Z"/><path class="cls-5" d="M5.28,73.95c-.2,.75-.36,1.5-.47,2.25L105.92,26.17c-.67-.37-1.36-.7-2.08-.99L5.28,73.95Z"/><path class="cls-5" d="M6.15,86.98c.23,.56,.49,1.1,.77,1.64L114.5,35.38c-.03-.06-.06-.13-.09-.19l-.1-.2c-.21-.41-.42-.81-.65-1.21L6.15,86.98Z"/><path class="cls-5" d="M3.36,54.72c.17,.58,.36,1.16,.59,1.73L90.73,13.5c-.32-.52-.66-1.03-1.02-1.51L3.36,54.72Z"/><path class="cls-5" d="M10.12,64.83c.1,.08,.18,.16,.28,.24h0s0,0,0,0c-.86,.89-1.62,1.82-2.28,2.77L97.25,23.73c-1.16-.05-2.36-.02-3.58,.13h0c0-.12-.02-.24-.02-.36L10.12,64.83Z"/><path class="cls-5" d="M57.36,54.91l-.19,.09L4.67,80.98c.06,.63,.15,1.26,.27,1.89l52.85-26.15h0s.19-.09,.19-.09l53.16-26.3c-.43-.47-.87-.92-1.34-1.36l-52.43,25.95h0Z"/><path class="cls-5" d="M9.22,92.19c.39,.49,.81,.95,1.25,1.4L116.3,41.22c-.1-.62-.21-1.23-.36-1.84L9.22,92.19Z"/><path class="cls-5" d="M60.28,8.39l8.45-4.18c-2.99,.66-5.88,2.03-8.45,4.18Z"/><path class="cls-5" d="M34.09,7.89h0s1.2-.59,1.2-.59c-.48,.2-.94,.41-1.41,.64-.06,.03-.12,.07-.18,.1-.36,.18-.72,.37-1.07,.57l1.27-.63,.19-.09Z"/></g></g><g><g><path class="cls-4" d="M61.34,108.15h0s0,0,0,0c-11.9,15.09-36.15,6.89-36.46-12.32h0s0,0,0,0c-19.08,2.26-30.44-20.69-17.07-34.49h0s0,0,0,0C-7.27,49.45,.92,25.19,20.14,24.88h0s0,0,0,0C17.88,5.8,40.83-5.56,54.63,7.82h0s0,0,0,0c11.9-15.09,36.15-6.89,36.46,12.32h0s0,0,0,0c19.08-2.26,30.44,20.69,17.07,34.49h0s0,0,0,0c15.09,11.9,6.89,36.15-12.32,36.46h0s0,0,0,0c2.26,19.08-20.69,30.44-34.49,17.07Z"/><g><path class="cls-3" d="M60.95,108.76l-14.57,7.21c5.28-.2,10.56-2.47,14.57-7.21Z"/><path class="cls-3" d="M11.56,92.83c.61,.39,1.24,.76,1.89,1.08L113.72,44.29c.14-.72,.23-1.44,.28-2.16L11.56,92.83Z"/><path class="cls-3" d="M7.43,29.61l8.45-4.18c-3.27,.73-6.11,2.2-8.45,4.18Z"/><path class="cls-3" d="M35.79,13.56h0s-15.67,7.76-15.67,7.76c-.03,.66-.03,1.33,0,2.02l16.66-8.24,.19-.09h0S53.56,6.78,53.56,6.78c-.52-.44-1.06-.85-1.6-1.23l-15.98,7.91-.19,.09Z"/><path class="cls-3" d="M1.9,37.05c-.35,.8-.65,1.63-.9,2.46L78.03,1.4c-.82-.31-1.65-.57-2.51-.78L1.9,37.05Z"/><path class="cls-3" d="M34.11,9.68l.19-.09h0s12.98-6.43,12.98-6.43c-.86-.3-1.72-.56-2.59-.74l-11.38,5.63-.19,.09h0s-11.08,5.48-11.08,5.48c-.39,.8-.71,1.64-.99,2.51l13.05-6.46Z"/><path class="cls-3" d="M25.35,99.46c.11,.62,.26,1.22,.42,1.81L112.1,58.56c-.37-.49-.76-.97-1.18-1.43L25.35,99.46Z"/><path class="cls-3" d="M31.04,110.11c.47,.46,.96,.89,1.47,1.29l83.56-41.35c-.01-.65-.06-1.3-.14-1.95L31.04,110.11Z"/><path class="cls-3" d="M79.76,101.47h0s16.32-8.07,16.32-8.07c0-.64-.04-1.3-.11-1.96l-17.2,8.51-.19,.09h0s-16.89,8.36-16.89,8.36c.49,.46,.99,.88,1.49,1.28l16.39-8.11,.19-.09Z"/><path class="cls-3" d="M84.31,110.66l-.19,.09-6.24,3.09c2.29-.27,4.52-.92,6.59-1.92,.06-.03,.13-.06,.19-.09,2.16-1.06,4.14-2.49,5.82-4.23l-6.17,3.05h0Z"/><path class="cls-3" d="M19.25,95.75c1.16,.18,2.36,.26,3.6,.24L109.67,53.03c.77-.97,1.43-1.98,2-3.01L19.25,95.75Z"/><path class="cls-3" d="M27.35,105.2c.29,.54,.59,1.06,.92,1.56L114.96,63.87c-.2-.57-.43-1.13-.69-1.68L27.35,105.2Z"/><path class="cls-3" d="M76.29,94.44l-.19,.09-39.35,19.47c.74,.34,1.49,.65,2.26,.9l37.71-18.66h0s.19-.09,.19-.09l38.02-18.81c.26-.77,.48-1.55,.65-2.34l-39.29,19.44h0Z"/><path class="cls-3" d="M111.29,83.85l-14.57,7.21c6.2-.31,11.21-3.13,14.57-7.21Z"/><path class="cls-3" d="M81.63,105.25h0s-.19,.09-.19,.09l-13.98,6.92c.76,.34,1.53,.64,2.31,.87l12.28-6.08h0s.19-.09,.19-.09l12.59-6.23c.29-.76,.52-1.56,.71-2.37l-13.92,6.89Z"/><path class="cls-3" d="M.13,44.66c-.03,.67-.01,1.34,.03,2.01L84.23,5.06c-.51-.44-1.03-.85-1.58-1.24L.13,44.66Z"/><path class="cls-3" d="M3.41,56.49c.34,.5,.7,1,1.09,1.48L90.58,15.38c-.15-.6-.32-1.19-.51-1.77L3.41,56.49Z"/><path class="cls-3" d="M2.8,70.25c-.2,.75-.36,1.5-.47,2.25L103.44,22.47c-.67-.37-1.36-.7-2.08-.99L2.8,70.25Z"/><path class="cls-3" d="M3.68,83.27c.23,.56,.49,1.1,.77,1.64L112.03,31.67c-.03-.06-.06-.13-.09-.19l-.1-.2c-.21-.41-.42-.81-.65-1.21L3.68,83.27Z"/><path class="cls-3" d="M.88,51.01c.17,.58,.36,1.16,.59,1.73L88.26,9.8c-.32-.52-.66-1.03-1.02-1.51L.88,51.01Z"/><path class="cls-3" d="M7.65,61.12c.1,.08,.18,.16,.28,.24h0s0,0,0,0c-.86,.89-1.62,1.82-2.28,2.77L94.78,20.03c-1.16-.05-2.36-.02-3.58,.13h0c0-.12-.02-.24-.02-.36L7.65,61.12Z"/><path class="cls-3" d="M54.89,51.2l-.19,.09L2.2,77.28c.06,.63,.15,1.26,.27,1.89l52.85-26.15h0s.19-.09,.19-.09l53.16-26.3c-.43-.47-.87-.92-1.34-1.36l-52.43,25.95h0Z"/><path class="cls-3" d="M6.75,88.48c.39,.49,.81,.95,1.25,1.4L113.83,37.51c-.1-.62-.21-1.23-.36-1.84L6.75,88.48Z"/><path class="cls-3" d="M57.81,4.68L66.25,.5c-2.99,.66-5.88,2.03-8.45,4.18Z"/><path class="cls-3" d="M31.62,4.18h0s1.2-.59,1.2-.59c-.48,.2-.94,.41-1.41,.64-.06,.03-.12,.07-.18,.1-.36,.18-.72,.37-1.07,.57l1.27-.63,.19-.09Z"/></g></g><text class="cls-2" transform="translate(17.38 59.7) rotate(15.23)"><tspan x="0" y="0">MENU</tspan></text><text class="cls-1" transform="translate(17.38 59.7) rotate(15.23)"><tspan x="0" y="0">MENU</tspan></text></g></g></svg>