<svg width="77" height="701" viewBox="0 0 77 701" fill="none" xmlns="http://www.w3.org/2000/svg">
<path d="M62.5352 700.282L62.376 673.837C62.341 668.03 60.9074 663.494 58.0752 660.23C55.2168 656.94 51.2876 655.31 46.2877 655.34C42.1992 655.365 39.0539 656.321 36.8517 658.209C34.6234 660.098 33.1792 662.45 32.5191 665.267L32.3629 665.268C31.5157 662.981 30.0334 661.154 27.9157 659.787C25.772 658.419 23.0856 657.745 19.8565 657.765C15.3774 657.792 11.857 659.167 9.29524 661.891C6.73347 664.615 5.47063 668.971 5.5067 674.961L5.66126 700.624L62.5352 700.282ZM51.6954 684.097L37.9066 684.18L37.872 678.438C37.8596 676.381 38.4884 674.853 39.7585 673.856C41.0284 672.833 42.705 672.315 44.7883 672.302C46.8455 672.29 48.5022 672.788 49.7583 673.796C51.0142 674.778 51.6484 676.298 51.6608 678.355L51.6954 684.097ZM29.6255 684.23L16.8523 684.307L16.8212 679.151C16.8094 677.198 17.3478 675.788 18.4364 674.922C19.4987 674.03 21.0455 673.578 23.0767 673.566C25.134 673.554 26.7382 673.987 27.8893 674.865C29.0143 675.718 29.5826 677.121 29.5944 679.074L29.6255 684.23ZM62.2405 651.338L62.1419 634.971L4.99448 635.315L5.09305 651.682L62.2405 651.338ZM62.1064 629.072L62.0068 612.549L25.7966 612.767L25.8961 629.29L62.1064 629.072ZM13.6344 629.989C15.8479 629.976 17.7444 629.209 19.3238 627.689C20.877 626.143 21.6451 623.951 21.628 621.113C21.6109 618.274 20.8164 616.079 19.2445 614.525C17.6466 612.973 15.7279 612.203 13.4883 612.216C11.2228 612.23 9.33931 612.997 7.83802 614.516C6.33673 616.036 5.59471 618.228 5.61196 621.092C5.62937 623.983 6.41091 626.192 7.9566 627.719C9.50228 629.246 11.3949 630.003 13.6344 629.989ZM61.9713 606.651L61.8737 590.44L40.0381 590.572C38.9157 590.136 38.0265 589.503 37.3704 588.674C36.6883 587.844 36.3441 586.896 36.3376 585.828C36.3304 584.63 36.6894 583.691 37.4144 583.009C38.1133 582.302 39.27 581.943 40.8846 581.934L61.8217 581.808L61.7243 565.636L37.8966 565.779C33.1311 565.808 29.7139 567.027 27.645 569.435C25.5761 571.843 24.5531 574.949 24.576 578.751C24.5947 581.849 25.157 584.411 26.263 586.436C27.3688 588.434 28.7836 589.845 30.5073 590.668L30.508 590.785L25.6643 590.815L25.761 606.869L61.9713 606.651ZM75.3999 559.733C76.4549 557.617 77.3247 555.021 78.0093 551.944C78.7198 548.841 79.0619 545.101 79.0355 540.727C78.9946 533.93 77.0744 528.59 73.2749 524.706C69.4752 520.797 64.0468 518.863 56.9897 518.906L25.2324 519.097L25.3286 535.073L30.0553 535.084L30.0561 535.201C28.4738 536.252 27.1682 537.836 26.1393 539.951C25.1102 542.041 24.6032 544.336 24.6182 546.836C24.6469 551.601 26.3749 555.289 29.8021 557.898C33.2292 560.482 37.612 561.758 42.9504 561.725L44.2004 561.718C49.5128 561.686 53.8403 560.28 57.183 557.499C60.4995 554.693 62.144 551.011 62.1166 546.454C62.0975 543.277 61.5879 540.819 60.5878 539.08C59.5617 537.341 58.2379 535.904 56.6164 534.768L60.2101 534.746C63.309 534.727 65.4629 535.626 66.6718 537.442C67.8806 539.257 68.4928 541.441 68.5081 543.993C68.5235 546.545 68.1481 549.074 67.3819 551.578C66.6156 554.057 65.8192 555.872 64.9928 557.022L75.3999 559.733ZM43.9477 545.704L43.0883 545.709C40.7967 545.723 38.9191 545.291 37.4554 544.415C35.9916 543.512 35.2541 542.123 35.2428 540.248C35.2351 538.972 35.6062 537.889 36.3561 536.999C37.1059 536.109 37.9745 535.466 38.9617 535.069L47.8287 535.016C48.7946 535.401 49.6708 536.034 50.4574 536.914C51.2179 537.795 51.6019 538.86 51.6094 540.11C51.6209 542.011 50.9263 543.422 49.5255 544.342C48.0986 545.236 46.2393 545.69 43.9477 545.704ZM61.2846 492.629L61.1253 466.185C61.0904 460.377 59.6568 455.842 56.8246 452.577C53.9661 449.287 50.037 447.657 45.0371 447.687C40.9486 447.712 37.8033 448.669 35.6011 450.557C33.3728 452.445 31.9286 454.798 31.2685 457.614L31.1122 457.615C30.2651 455.329 28.7827 453.502 26.6651 452.134C24.5214 450.767 21.835 450.093 18.6059 450.112C14.1268 450.139 10.6064 451.515 8.04462 454.238C5.48285 456.962 4.22 461.319 4.25607 467.308L4.41064 492.972L61.2846 492.629ZM50.4447 476.444L36.6559 476.527L36.6213 470.785C36.609 468.728 37.2378 467.201 38.5079 466.204C39.7778 465.18 41.4544 464.662 43.5376 464.65C45.5949 464.637 47.2516 465.135 48.5077 466.143C49.7636 467.125 50.3978 468.645 50.4102 470.702L50.4447 476.444ZM28.3748 476.577L15.6016 476.654L15.5706 471.498C15.5588 469.545 16.0972 468.136 17.1858 467.27C18.2481 466.378 19.7949 465.926 21.8261 465.913C23.8834 465.901 25.4876 466.334 26.6387 467.213C27.7637 468.065 28.332 469.468 28.3438 471.421L28.3748 476.577ZM60.9898 443.685L60.8913 427.318L3.74386 427.662L3.84243 444.029L60.9898 443.685ZM60.8557 421.42L60.7562 404.897L24.5459 405.115L24.6455 421.638L60.8557 421.42ZM12.3838 422.337C14.5973 422.323 16.4938 421.557 18.0732 420.037C19.6264 418.491 20.3945 416.299 20.3774 413.46C20.3603 410.622 19.5658 408.426 17.9939 406.873C16.396 405.32 14.4773 404.55 12.2377 404.564C9.97213 404.578 8.08869 405.344 6.5874 406.864C5.0861 408.383 4.34408 410.575 4.36133 413.44C4.37874 416.33 5.16029 418.539 6.70597 420.066C8.25166 421.593 10.1443 422.35 12.3838 422.337ZM60.7207 398.998L60.6231 382.788L38.7875 382.919C37.6651 382.483 36.7758 381.851 36.1198 381.021C35.4377 380.192 35.0934 379.243 35.087 378.176C35.0798 376.978 35.4387 376.038 36.1638 375.357C36.8627 374.649 38.0194 374.291 39.634 374.281L60.5711 374.155L60.4737 357.983L36.646 358.127C31.8804 358.156 28.4632 359.374 26.3944 361.783C24.3255 364.191 23.3025 367.296 23.3254 371.098C23.3441 374.197 23.9064 376.759 25.0124 378.783C26.1182 380.782 27.5329 382.193 29.2567 383.016L29.2574 383.133L24.4137 383.162L24.5104 399.216L60.7207 398.998ZM74.1493 352.081C75.2043 349.965 76.0741 347.368 76.7587 344.291C77.4692 341.188 77.8113 337.449 77.7849 333.074C77.744 326.277 75.8238 320.937 72.0243 317.054C68.2246 313.144 62.7962 311.211 55.739 311.253L23.9818 311.445L24.078 327.421L28.8047 327.431L28.8054 327.549C27.2232 328.6 25.9176 330.183 24.8887 332.299C23.8596 334.388 23.3525 336.683 23.3676 339.183C23.3963 343.949 25.1243 347.636 28.5515 350.246C31.9786 352.829 36.3613 354.105 41.6998 354.073L42.9498 354.065C48.2622 354.033 52.5897 352.627 55.9324 349.847C59.2489 347.04 60.8934 343.358 60.866 338.801C60.8468 335.624 60.3372 333.166 59.3372 331.427C58.311 329.689 56.9873 328.251 55.3658 327.115L58.9595 327.094C62.0584 327.075 64.2123 327.973 65.4211 329.789C66.63 331.605 67.2421 333.789 67.2575 336.341C67.2729 338.893 66.8975 341.421 66.1313 343.926C65.365 346.404 64.5686 348.219 63.7422 349.37L74.1493 352.081ZM42.6971 338.051L41.8377 338.056C39.5461 338.07 37.6684 337.639 36.2048 336.762C34.741 335.859 34.0035 334.471 33.9922 332.596C33.9845 331.32 34.3556 330.237 35.1054 329.347C35.8553 328.457 36.7238 327.813 37.711 327.417L46.5781 327.363C47.544 327.748 48.4202 328.381 49.2067 329.262C49.9673 330.143 50.3513 331.208 50.3588 332.458C50.3703 334.359 49.6756 335.769 48.2749 336.689C46.848 337.583 44.9887 338.037 42.6971 338.051ZM60.034 284.977L59.9491 270.876L32.723 271.04C31.8115 271.045 30.9782 271.05 30.223 271.055C29.4418 271.059 28.6087 271.103 27.7238 271.187L27.7224 270.953C28.5544 270.739 29.4253 270.487 30.335 270.195C31.2446 269.877 32.089 269.546 32.8682 269.203L59.8646 256.852L59.767 240.642L2.893 240.984L2.97792 255.086L29.7353 254.925C30.6467 254.919 31.5712 254.926 32.5089 254.947C33.4464 254.941 34.3576 254.91 35.2427 254.852L35.2439 255.048C34.4118 255.261 33.502 255.54 32.5145 255.884C31.5008 256.203 30.5782 256.521 29.7468 256.839L3.05956 268.64L3.16001 285.32L60.034 284.977ZM59.7305 234.587L59.4901 194.666L46.834 194.742L46.978 218.648L36.6657 218.71L36.5455 198.75L25.1004 198.819L25.2206 218.779L15.8848 218.835L15.7446 195.555L2.61986 195.634L2.85653 234.93L59.7305 234.587ZM59.4856 180.955L59.3842 164.119L26.8345 155.956C26.4953 155.854 26.0911 155.765 25.6219 155.69C25.1265 155.589 24.5791 155.501 23.9797 155.426L23.9785 155.231C24.577 155.149 25.1234 155.068 25.6177 154.987C26.1118 154.879 26.5148 154.773 26.8267 154.667L59.2758 146.112L59.177 129.706L2.14323 116.494L2.23334 131.455L35.0481 138.211C35.4391 138.287 35.8693 138.362 36.3385 138.437C36.7817 138.513 37.316 138.588 37.9415 138.662L37.9426 138.857C37.3181 138.939 36.7847 139.021 36.3425 139.101C35.8742 139.182 35.4451 139.276 35.0551 139.383L2.33167 147.783L2.4199 162.431L35.2393 169.968C35.6304 170.044 36.0737 170.132 36.5691 170.233C37.0383 170.309 37.5596 170.384 38.1329 170.458L38.1341 170.654C37.5356 170.735 37.0023 170.817 36.534 170.898C36.0656 170.953 35.6364 171.033 35.2464 171.14L2.51823 178.759L2.61516 194.852L59.4856 180.955ZM43.7779 115.384C49.0643 115.352 53.0491 113.245 55.7323 109.062C58.4153 104.853 59.7376 99.5587 59.6992 93.1786C59.6607 86.7986 58.0671 81.6258 54.9181 77.6603C51.7692 73.6948 47.3953 71.7289 41.7964 71.7626C36.7705 71.7929 32.8335 73.1969 29.9856 75.9745C27.1117 78.7522 24.8842 82.9324 23.3032 88.5149C21.951 93.1586 20.8751 96.1339 20.0757 97.4408C19.2761 98.7217 18.2383 99.366 16.9623 99.3736C15.6081 99.3818 14.5118 98.9587 13.6733 98.1044C12.8347 97.224 12.4095 95.8072 12.3977 93.8542C12.3866 92.0052 12.8728 90.583 13.8564 89.5875C14.84 88.592 16.2172 88.0889 17.988 88.0782L19.238 88.0707L19.1484 73.1881L16.5312 73.2039C11.5834 73.2337 7.79306 75.1967 5.16022 79.0928C2.50119 82.963 1.19042 88.0101 1.2279 94.2339C1.26554 100.484 2.79326 105.514 5.81105 109.324C8.82869 113.108 13.0067 114.984 18.3452 114.952C23.0586 114.923 26.813 113.481 29.6084 110.626C32.3777 107.771 34.6949 103.355 36.56 97.3806C37.9146 93.1276 39.057 90.3862 39.9871 89.1567C40.8912 87.9272 42.0723 87.3081 43.5307 87.2994C45.1712 87.2895 46.4766 87.8285 47.4467 88.9164C48.3908 90.0045 48.8687 91.5251 48.8805 93.4782C48.8933 95.6136 48.3564 97.2705 47.2697 98.4489C46.1831 99.6274 44.4938 100.21 42.2021 100.198L40.4443 100.209L40.5358 115.404L43.7779 115.384ZM51.1821 67.0185C53.4737 67.0047 55.4223 66.2378 57.0277 64.7177C58.633 63.1715 59.427 60.9662 59.4098 58.1016C59.3927 55.2631 58.5983 53.0804 57.0266 51.5534C55.4288 50.0265 53.458 49.2701 51.1143 49.2842C48.7706 49.2984 46.8222 50.0783 45.269 51.6242C43.6895 53.1441 42.9085 55.3364 42.9257 58.2009C42.9428 61.0394 43.7502 63.2221 45.348 64.7489C46.9197 66.276 48.8644 67.0325 51.1821 67.0185ZM51.0353 42.644C53.3269 42.6302 55.2755 41.8632 56.8809 40.3431C58.4862 38.7969 59.2802 36.5916 59.263 33.7271C59.2459 30.8886 58.4515 28.7058 56.8798 27.1788C55.282 25.6519 53.3112 24.8956 50.9675 24.9097C48.6238 24.9238 46.6754 25.7038 45.1222 27.2496C43.5427 28.7696 42.7617 30.9618 42.7789 33.8263C42.796 36.6648 43.6034 38.8475 45.2012 40.3744C46.7729 41.9014 48.7176 42.6579 51.0353 42.644ZM50.8885 18.2694C53.1801 18.2556 55.1287 17.4887 56.7341 15.9685C58.3394 14.4224 59.1334 12.217 59.1162 9.35251C59.0991 6.51402 58.3047 4.33127 56.733 2.80425C55.1352 1.27739 53.1644 0.521012 50.8207 0.535127C48.477 0.549243 46.5286 1.32922 44.9754 2.87506C43.3959 4.39502 42.6149 6.58726 42.6321 9.45179C42.6492 12.2903 43.4566 14.473 45.0544 15.9998C46.6261 17.5268 48.5708 18.2834 50.8885 18.2694Z" fill="black"/>
</svg>
