<?xml version="1.0" encoding="UTF-8"?><svg xmlns="http://www.w3.org/2000/svg" viewBox="0 0 460.54 97.52"><defs><style>.cls-1{fill:#004d7e;}.cls-2{fill:#00807e;}.cls-3{fill:#ffb128;}.cls-4{fill:#6b9995;}.cls-5{fill:#c02d67;}.cls-6{fill:#e28092;}.cls-7{fill:#4080a7;}.cls-8{fill:#2b201c;}.cls-9{mix-blend-mode:color-burn;opacity:.8;}.cls-10{isolation:isolate;}</style></defs><g class="cls-10"><g id="_圖層_2"><g id="_圖層_1-2"><g><g class="cls-9"><path class="cls-8" d="M67.1,42.99c-2.62,0-4.75,2.13-4.75,4.75v18.22c0,2.62,2.13,4.75,4.75,4.75s4.75-2.13,4.75-4.75v-18.22c0-2.62-2.13-4.75-4.75-4.75Z"/><path class="cls-8" d="M49.96,13.83h-.51c-2.48,0-4.5,2.02-4.49,4.59l.53,2.87c2.73,14.91,2.56,29.99-.52,44.83,0,.03-.01,.07-.01,.1,0,2.48,2.02,4.5,4.5,4.5h.51c2.48,0,4.5-2.02,4.5-4.5V18.33c0-2.48-2.02-4.5-4.5-4.5Z"/><path class="cls-8" d="M92.44,41.54c-4.21-.39-8.25,.95-11.36,3.78-3.08,2.8-4.84,6.78-4.84,10.93v10.63c0,2.12,1.72,3.84,3.84,3.84s3.84-1.72,3.84-3.84v-10.63c0-2.04,.88-3.98,2.41-5.33,1.55-1.37,3.55-1.97,5.62-1.71,3.51,.45,6.16,3.59,6.16,7.3v10.37c0,2.12,1.72,3.84,3.84,3.84s3.84-1.72,3.84-3.84v-10.21c0-7.78-5.87-14.42-13.35-15.13Z"/><path class="cls-8" d="M136.58,46.63c-.5,0-1,.1-1.48,.29-2.86-2.93-6.63-4.54-10.67-4.54-8.31,0-15.08,6.89-15.08,15.37s6.77,15.37,15.08,15.37c2.85,0,5.6-.82,8.01-2.37v10.28s-.01,.07-.02,.1c-.15,3.8-3.13,6.78-6.77,6.78-2.81,0-5.36-1.85-6.35-4.6-.57-1.59-2.13-2.67-3.87-2.67-1.36,0-2.64,.67-3.43,1.79-.77,1.09-.95,2.42-.51,3.65,2.16,6.05,7.85,10.11,14.16,10.11,7.09,0,13.27-5.13,14.73-12.2,.23-.53,.35-1.08,.35-1.64v-31.59c0-2.29-1.86-4.14-4.15-4.14Zm-5.36,11.12c0,3.9-3.05,7.08-6.79,7.08s-6.79-3.18-6.79-7.08,3.05-7.08,6.79-7.08,6.79,3.18,6.79,7.08Z"/><path class="cls-8" d="M33.62,40.17c3.26-3.08,5.05-7.08,5.05-11.34,0-9.05-8.13-16.41-18.12-16.41-3.95,0-7.82,1.19-10.96,3.36-.98-1.23-2.45-1.95-4.03-1.95h-.4C2.32,13.83,0,16.14,0,19.09l1.13,5.6c1.98,9.84,2.19,19.85,.62,29.75l-1.75,11.12c0,2.85,2.32,5.16,5.16,5.16h.4c1.77,0,3.43-.94,4.36-2.44,3.53,2.49,7.91,3.85,12.42,3.85,10.98,0,19.91-7.86,19.91-17.53,0-5.79-3.21-11.14-8.63-14.42Zm-11.28,5.18c6.41,0,11.62,4.15,11.62,9.24s-5.21,9.24-11.62,9.24-11.62-4.15-11.62-9.24,5.21-9.24,11.62-9.24ZM10.72,28.83c0-4.48,4.41-8.12,9.83-8.12s9.83,3.64,9.83,8.12-4.41,8.12-9.83,8.12-9.83-3.64-9.83-8.12Z"/><path class="cls-8" d="M222.32,42.99c-2.62,0-4.75,2.13-4.75,4.75v18.22c0,2.62,2.13,4.75,4.75,4.75s4.75-2.13,4.75-4.75v-18.22c0-2.62-2.13-4.75-4.75-4.75Z"/><path class="cls-8" d="M205.18,13.83h-.51c-2.48,0-4.5,2.02-4.49,4.59l.53,2.87c2.73,14.91,2.56,29.99-.52,44.83,0,.03-.01,.07-.01,.1,0,2.48,2.02,4.5,4.5,4.5h.51c2.48,0,4.5-2.02,4.5-4.5V18.33c0-2.48-2.02-4.5-4.5-4.5Z"/><path class="cls-8" d="M247.66,41.54c-4.21-.39-8.25,.95-11.36,3.78-3.08,2.8-4.84,6.78-4.84,10.93v10.63c0,2.12,1.72,3.84,3.84,3.84s3.84-1.72,3.84-3.84v-10.63c0-2.04,.88-3.98,2.41-5.33,1.55-1.37,3.55-1.97,5.62-1.71,3.51,.45,6.16,3.59,6.16,7.3v10.37c0,2.12,1.72,3.84,3.84,3.84s3.84-1.72,3.84-3.84v-10.21c0-7.78-5.87-14.42-13.35-15.13Z"/><path class="cls-8" d="M291.8,46.63c-.5,0-1,.1-1.48,.29-2.86-2.93-6.63-4.54-10.67-4.54-8.32,0-15.08,6.89-15.08,15.37s6.76,15.37,15.08,15.37c2.85,0,5.6-.82,8-2.37v10.28s-.01,.07-.02,.1c-.15,3.8-3.13,6.78-6.77,6.78-2.81,0-5.36-1.85-6.35-4.6-.57-1.59-2.13-2.67-3.87-2.67-1.36,0-2.64,.67-3.43,1.78-.77,1.09-.95,2.42-.51,3.66,2.17,6.05,7.86,10.11,14.16,10.11,7.08,0,13.27-5.13,14.74-12.2,.23-.53,.34-1.08,.34-1.64v-31.59c0-2.29-1.86-4.14-4.15-4.14Zm-5.36,11.12c0,3.9-3.05,7.08-6.79,7.08s-6.79-3.18-6.79-7.08,3.05-7.08,6.79-7.08,6.79,3.18,6.79,7.08Z"/><path class="cls-8" d="M188.84,40.17c3.26-3.08,5.05-7.08,5.05-11.34,0-9.05-8.13-16.41-18.12-16.41-3.95,0-7.82,1.19-10.96,3.36-.98-1.23-2.45-1.95-4.02-1.95h-.4c-2.85,0-5.16,2.32-5.15,5.26l1.13,5.6c1.98,9.83,2.19,19.84,.62,29.75l-1.75,11.12c0,2.85,2.32,5.16,5.16,5.16h.4c1.77,0,3.42-.94,4.36-2.44,3.53,2.49,7.91,3.85,12.42,3.85,10.98,0,19.91-7.86,19.91-17.53,0-5.79-3.21-11.14-8.63-14.42Zm-13.07-3.22c-5.42,0-9.83-3.64-9.83-8.12s4.41-8.12,9.83-8.12,9.83,3.64,9.83,8.12-4.41,8.12-9.83,8.12Zm13.41,17.64c0,5.1-5.21,9.24-11.62,9.24s-11.62-4.15-11.62-9.24,5.21-9.24,11.62-9.24,11.62,4.15,11.62,9.24Z"/><path class="cls-5" d="M58.12,26.28c.3,.17,.59,.34,.77,.55,.04,.05,.09,.09,.15,.12l.37,.19c.74,.38,1.5,.78,2.4,.78,.34,0,.7-.06,1.09-.19,.71-.24,1.15-.62,1.62-1.05,.28-.26,.4-.53,.37-.82-.02-.2-.13-.48-.52-.69-.06-.04-.25-.25-.35-.47-.34-.68-.86-1.16-1.36-1.63-.18-.17-.36-.33-.53-.51-.43-.45-.99-.48-1.43-.51-.52-.04-.72-.07-.86-.34-.06-.1-.23-.33-.64-.24l-.44,.05c-.35,.04-.71,.08-1.06,.11-.65,.05-1.13,.44-1.24,1.02-.1,.54-.18,1.27,.1,2.06,.31,.87,1,1.27,1.56,1.58Z"/><path class="cls-1" d="M65.48,24.48c.31,.18,.64,.28,.95,.28,.15,0,.29-.02,.43-.06,.33-.1,.59-.33,.73-.64,.11-.24,.23-.47,.36-.7,.37-.69,.75-1.4,.8-2.27,.02-.42,.04-.84,.05-1.26,.02-.55,.03-1.11,.08-1.66,.05-.65-.29-.98-.61-1.24-.79-.64-1.64-.5-2.33-.38-.15,.02-.3,.05-.45,.07-.54,.06-.81,.49-1,.81-.06,.1-.12,.19-.19,.27-.47,.49-.49,1.12-.5,1.54-.03,.86-.02,1.7,.03,2.48,.08,1.23,.63,2.16,1.65,2.76Z"/><path class="cls-7" d="M71.72,26.02l.11,.02c.09,.02,.2,.04,.33,.04,.21,0,.45-.05,.68-.27,1.02-.95,2.19-2.02,2.88-3.47,.33-.44,.51-.91,.67-1.33,.1-.26,.09-.56,.02-.84,0-.02,0-.05,0-.07,0-.02,0-.04,0-.06,0-.07-.03-.14-.06-.2-.02-.03-.05-.09-.12-.16-.07-.13-.14-.25-.21-.36-.34-.48-.76-.74-1.15-.73-1.07,.03-1.83,.43-2.33,1.23-.31,.5-.66,.97-1.02,1.47-.38,.52-.78,1.05-1.12,1.63-.46,.76-.55,1.51-.25,2.11,.27,.55,.84,.9,1.6,.99Z"/><path class="cls-6" d="M63.28,31.85c.79-.67,.46-1.26,.28-1.48-.03-.04-.06-.08-.09-.12-.14-.21-.56-.85-1.35-.46-.02,.01-.05,.02-.18-.05-.39-.22-1.02-.38-1.81,.1-1.29,.77-2.23,1.66-2.97,2.81l-.06,.08c-.11,.13-.27,.34-.4,.58-.17,.33-.69,1.32,.23,2.14l.15,.13c.3,.27,.74,.68,1.32,.68,.27,0,.57-.08,.9-.3,1.31-.87,2.64-1.89,3.47-3.45,.15-.28,.29-.46,.51-.64Z"/><path class="cls-3" d="M75.42,27.1c-.84-.2-1.65-.17-2.42-.14-.4,.01-.79,.03-1.19,.01-.84-.06-1.48,.49-1.77,1.45-.21,.7,.27,1.07,.43,1.2l.37-.34-.33,.38s.05,.04,.07,.05c1.02,.59,2,.72,2.96,.84l.23,.03c.21,.03,.42,.04,.62,.04,1.02,0,2.06-.33,3.21-1.01,.48-.28,.47-.84,.47-1.17v-.11c0-.34-.15-.77-.93-.88-.51-.07-1.04-.19-1.54-.31l-.19-.04Z"/><path class="cls-5" d="M212.99,26.28c.3,.17,.59,.34,.77,.55,.04,.05,.09,.09,.15,.12l.37,.19c.74,.38,1.5,.78,2.4,.78,.34,0,.7-.06,1.09-.19,.71-.24,1.15-.62,1.61-1.05,.28-.26,.4-.53,.37-.82-.02-.2-.13-.48-.52-.69-.06-.04-.25-.25-.35-.47-.34-.68-.86-1.16-1.36-1.62-.18-.17-.36-.33-.53-.51-.43-.45-.99-.48-1.43-.51-.52-.04-.72-.07-.87-.36-.06-.1-.23-.32-.63-.23l-.44,.05c-.35,.04-.71,.08-1.06,.11-.65,.05-1.13,.44-1.24,1.02-.1,.54-.18,1.27,.1,2.06,.31,.87,1.01,1.27,1.56,1.58Z"/><path class="cls-1" d="M220.35,24.48c.31,.18,.64,.28,.95,.28,.15,0,.29-.02,.43-.06,.33-.1,.59-.33,.73-.64,.11-.24,.23-.47,.36-.7,.37-.69,.75-1.4,.8-2.27,.02-.42,.04-.84,.05-1.26,.02-.55,.04-1.11,.08-1.66,.05-.65-.29-.98-.61-1.24-.79-.64-1.64-.5-2.33-.38-.15,.02-.3,.05-.45,.07-.55,.06-.81,.49-1.01,.81-.06,.1-.12,.2-.18,.28-.47,.5-.49,1.13-.5,1.54-.03,.86-.02,1.7,.03,2.48,.08,1.23,.63,2.16,1.65,2.76Z"/><path class="cls-7" d="M226.59,26.02l.11,.02c.09,.02,.2,.04,.33,.04,.21,0,.45-.05,.68-.27,1.03-.95,2.19-2.02,2.88-3.47,.33-.44,.51-.91,.67-1.33,.1-.26,.09-.56,.02-.84,0-.01,0-.03,0-.04,0-.1,0-.2-.06-.29-.02-.03-.05-.08-.1-.14,0-.01,0-.01-.02-.03-.07-.13-.14-.26-.22-.36-.34-.48-.75-.74-1.16-.73-1.07,.03-1.83,.43-2.33,1.23-.31,.5-.66,.97-1.02,1.47-.38,.52-.78,1.05-1.12,1.63-.46,.76-.55,1.51-.25,2.11,.27,.55,.84,.9,1.59,.99Z"/><path class="cls-6" d="M218.15,31.85c.79-.67,.46-1.26,.28-1.48-.03-.04-.06-.08-.09-.12-.14-.21-.56-.85-1.34-.46-.02,.01-.05,.02-.18-.05-.39-.22-1.01-.38-1.81,.1-1.29,.77-2.24,1.66-2.97,2.81l-.06,.08c-.11,.13-.27,.34-.4,.58-.17,.33-.69,1.32,.23,2.14l.14,.13c.3,.28,.74,.68,1.32,.68,.27,0,.57-.08,.9-.3,1.31-.87,2.64-1.89,3.47-3.45,.15-.28,.29-.46,.51-.64Z"/><path class="cls-3" d="M230.29,27.1c-.84-.2-1.65-.17-2.42-.14-.4,.01-.79,.03-1.19,.01-.85-.05-1.49,.49-1.77,1.45-.21,.7,.27,1.08,.43,1.2l.37-.34h0l-.33,.38s.05,.04,.07,.05c1.02,.59,2,.72,2.96,.84l.24,.03c.21,.03,.42,.04,.63,.04,1.02,0,2.06-.33,3.21-1.01,.48-.28,.47-.84,.47-1.17v-.11c0-.34-.15-.77-.93-.88-.51-.07-1.04-.19-1.54-.31l-.19-.04Z"/><path class="cls-4" d="M75.01,33.81c-.47-.31-.91-.65-1.38-1.02-.7-.55-1.43-1.13-2.28-1.54-.11-.05-.22-.11-.33-.17-.73-.39-1.72-.91-2.8-.05-.05,.04-.1,.1-.13,.16-.21,.39-.32,.76-.35,1.13,0,0,.6,1.13,.53,1.66,.11,.13,.22,.26,.36,.38,.08,.07,.17,.11,.28,.12,.41,.05,.73,.3,1.1,.6,.16,.13,.33,.26,.5,.37,1.19,.78,2.29,1.16,3.46,1.16,.11,0,.22,0,.34-.01,.29-.02,1.19-.07,1.35-.97,.14-.79-.1-1.45-.66-1.81Z"/><path class="cls-2" d="M67.08,31.45s-.03-.07-.04-.08c-.05-.09-.12-.17-.22-.22-.98-.5-1.54,.27-1.81,.64-.69,.96-1.1,2.03-1.49,3.07l-.15,.39c-.03,.08-.04,.16-.03,.25,.04,.32,.01,.66-.02,1.02-.05,.52-.1,1.05,.05,1.62,.14,.52,.59,.96,1.14,1.13,.15,.05,.3,.07,.44,.07,.3,0,.58-.1,.8-.29,.12-.1,.24-.2,.36-.29,.65-.5,1.45-1.13,1.44-2.3,0-.03,.05-.1,.11-.21,.44-.8,.62-1.56,.59-2.27,.08-.53-.53-1.66-.53-1.66-.18-.29-.4-.58-.67-.86Z"/><path class="cls-4" d="M229.88,33.81c-.47-.31-.91-.65-1.38-1.02-.7-.55-1.43-1.13-2.28-1.55-.11-.05-.22-.11-.33-.17-.73-.38-1.72-.91-2.8-.05-.05,.04-.1,.1-.13,.16-.21,.39-.32,.76-.35,1.13-.07-.11-.15-.22-.23-.33,.04,.09,.7,1.48,.76,1.99,.11,.13,.22,.26,.36,.38,.08,.07,.17,.11,.28,.12,.41,.05,.73,.3,1.1,.59,.16,.13,.33,.26,.5,.37,1.18,.78,2.29,1.16,3.46,1.16,.11,0,.22,0,.34-.01,.29-.02,1.19-.07,1.35-.98,.14-.79-.11-1.45-.66-1.81Z"/><path class="cls-2" d="M221.95,31.45s-.03-.06-.03-.07c-.05-.1-.13-.18-.22-.23-.98-.5-1.54,.27-1.81,.64-.7,.96-1.1,2.04-1.49,3.08l-.14,.38c-.03,.08-.04,.16-.03,.25,.04,.32,0,.66-.02,1.02-.05,.52-.1,1.05,.05,1.62,.14,.52,.59,.96,1.14,1.13,.15,.05,.3,.07,.44,.07,.3,0,.58-.1,.8-.29,.12-.1,.24-.2,.36-.29,.65-.5,1.45-1.13,1.44-2.3,0-.03,.05-.1,.11-.21,.44-.8,.62-1.56,.59-2.27-.05-.51-.71-1.9-.76-1.99-.13-.18-.27-.36-.45-.53Z"/></g><g class="cls-9"><path class="cls-8" d="M368.3,15.47s-.04,0-.05,0l-13.59,1.22c-3.68,.33-7.49,.48-11.33,.44l6.37-8.87c1.62-2.26,1.1-5.42-1.16-7.05l-.36-.26c-1.09-.79-2.43-1.1-3.76-.88-1.36,.22-2.51,.95-3.36,2.14l-8.71,14.38-17.79-1.13c-2.8,0-5.08,2.28-5.08,5.08v.39c0,2.8,2.28,5.08,5.08,5.08h11.83c-4.61,6.69-9.87,12.89-15.67,18.49l-.17,.2c-.79,1.09-1.1,2.43-.88,3.76,.22,1.33,.94,2.5,2.04,3.28l.36,.26c.86,.62,1.88,.95,2.94,.95,1.63,0,3.16-.79,4.11-2.1l17.83-24.84h31.44c2.8,0,5.08-2.28,5.08-5.08v-.39c0-2.84-2.27-5.07-5.17-5.07Z"/><path class="cls-8" d="M356.39,69.16c.29,.09,.59,.14,.87,.14,.53,0,1.02-.16,1.45-.47,.78-.57,1.22-1.58,1.22-2.78v-1.42c0-2.17-1.52-3.93-3.39-3.93h-14.77c-1.87,0-3.39,1.76-3.39,3.93v.62c0,2.17,1.52,3.93,3.39,3.93,.04,0,.08,0,.12-.01l1.99-.47c4.12-.98,8.45-.82,12.52,.46Z"/><path class="cls-8" d="M349.25,28.05c-7.82-.7-12.99,3.08-17.03,6.87-4.65,4.36-6.68,9.18-7,16.62-.18,4.3-.2,9.78-.21,15.07,0,2.8-.01,5.52-.05,7.92-.02,1.42,.42,2.63,1.27,3.5,.83,.85,2.04,1.33,3.39,1.34h.05c2.78,0,4.58-1.8,4.71-4.71,.16-3.75,.18-8.15,.2-12.4,0-2.15,.02-4.28,.05-6.31h17.29c2.17,0,3.93-1.76,3.93-3.93v-.62c0-2.16-1.75-3.92-4.01-3.92h-.02l-2.36,.47c-4.67,.94-9.58,.84-14.23-.29,.6-2.45,1.75-4.34,3.69-6.08,2.73-2.44,5.98-4.97,10.13-4.06,8.52,1.88,13.79,3.61,14.61,14.91,.95,12.99,.02,26.39-13.04,36.41-1.32,1.01-2.01,2.02-2.12,3.07-.16,1.55,.98,2.86,1.98,4.02,.92,1.06,1.81,1.6,2.83,1.6,1.15,0,2.46-.68,4.17-2.06,1.48-1.2,3.02-2.72,4.57-4.51,6-6.95,9.66-15.7,10.57-25.28,.43-4.57,.85-8.89,.53-12.83-1.17-14.5-9.88-23.53-23.91-24.78Z"/><path class="cls-8" d="M456.1,46.33h0c.02-.11,0-.21-.01-.28,.11-2.93-1.99-4.66-4.02-4.8h-.23s-.22,0-.22,0c-.69,.04-2.26,.29-3.79,.53-1.01,.16-1.96,.31-2.47,.37-5.26,.6-9.42,.52-14.37-.25-.41-.06-.86-.17-1.33-.27-.92-.21-1.87-.43-2.77-.43h-.02c-2.06,0-3.58,1.76-3.96,4.62-.02,.12-.03,.22-.02,.33l.03,.16c.36,2.13,.77,4.55,3.53,4.56,2.93,.01,6.05,.08,9.06,.14,3.52,.07,7.11,.14,10.64,.14,1.8,0,3.57-.02,5.31-.07,2.55-.07,4.1-1.67,4.62-4.76Z"/><path class="cls-8" d="M416.12,31.11c.96-.89,1.51-2.12,1.51-3.4,0-2.56-2.09-4.64-4.71-4.64h0l-5.74,.52c-3.86,.35-7.76,.35-11.6,0l-5.69-.52c-2.56,0-4.64,2.08-4.64,4.65s2.08,4.65,4.64,4.65h13.52c-5.08,5.84-10.71,11.24-16.74,16.06l-2.01,1.62c-.88,.87-1.36,2.04-1.36,3.29s.48,2.41,1.36,3.28c.87,.87,2.04,1.36,3.28,1.36s2.41-.48,3.29-1.36l7.03-7.03c.6,8.11,.3,16.27-.89,24.28,0,.02,0,.09,0,.12,0,2.51,2,4.54,4.45,4.54h.4c2.45,0,4.45-2.04,4.45-4.54V41.19l8.46-8.46c.45-.45,.79-.99,1.03-1.62Z"/><path class="cls-8" d="M397.38,15.6c1.39,.93,3.2,1.47,4.89,1.47,.05,0,.11,0,.16,0,4.27-.09,6.41-1.69,6.35-4.75-.07-3.66-2.98-6.94-6.62-7.47-2.06-.3-4.14,.28-5.58,1.55-1.28,1.13-1.96,2.72-1.93,4.48,.04,1.88,1.01,3.55,2.74,4.71Z"/><path class="cls-8" d="M415.03,46.22c-3.66-1.52-5.17-.1-5.78,1.37-1.05,2.51-.06,5.61,2.26,7.07,.87,.55,1.87,.83,2.85,.83,.49,0,.97-.07,1.42-.22,1.22-.39,2.17-1.27,2.68-2.49,.54-1.3,.38-2.74-.45-4.05-.68-1.08-1.8-2.01-2.98-2.51Z"/><path class="cls-8" d="M432.23,37.85h13.2c8.33,0,15.1-6.77,15.1-15.1,0-7.64-5.84-14.12-13.38-14.99l.17-2.07c0-1.96-1.59-3.54-3.54-3.54s-3.54,1.59-3.54,3.54v1.96h-2.88v-1.96c0-1.96-1.59-3.54-3.54-3.54-.95,0-1.84,.37-2.51,1.04-.67,.67-1.04,1.57-1.04,2.57l.17,2.01c-7.5,.89-13.31,7.38-13.31,14.98,0,8.33,6.77,15.1,15.1,15.1Zm-6.63-19.29c.17-.25,.35-.48,.55-.7,1.15-1.3,2.69-2.15,4.38-2.43,.06,1.22,.09,2.37,.09,3.48l-5.02-.34Zm4.65,8l-.31,3.39c-1.79-.48-3.33-1.55-4.36-3.03l4.67-.36Zm6.97-.5c1.06-.05,2.12-.05,3.16,0v4.17h-3.16v-4.17Zm0-6.73v-4.59c1.04-.04,2.1-.04,3.16,0v4.65c-1.05,.01-2.11,0-3.16-.06Zm9.76-.3c0-1.16,.03-2.35,.09-3.61,1.73,.27,3.29,1.12,4.45,2.44,.22,.25,.42,.51,.61,.79l-5.14,.38Zm5.15,7.82c-1.03,1.52-2.64,2.64-4.46,3.11l-.32-3.45,4.78,.34Z"/><path class="cls-8" d="M459.1,77.31c-.25-.79-.81-1.35-1.62-1.64-1.45-.52-3.33-.03-3.97,.39h0c-.09,.06-.18,.12-.26,.18h-.01s0,0,0,0c-.09,.07-.16,.14-.21,.22-.57,.54-1.07,1.2-1.55,1.85-.38,.5-.73,.97-1.07,1.31-6.06,6.08-13.87,6.22-21.99,.39-.37-.26-.83-.74-1.28-1.2-.66-.68-1.29-1.33-1.87-1.61-1.31-.66-2.81-.78-3.91-.33-.82,.34-1.41,.98-1.71,1.86-.08,.22-.15,.43-.22,.63-.69,1.9-.94,3.08,2.04,5.13,6.53,4.49,12.42,6.74,18.07,6.74,6.28,0,12.26-2.79,18.5-8.38,2.31-2.07,2.25-2.89,1.55-4.4-.15-.33-.32-.69-.46-1.14Z"/><path class="cls-5" d="M444.26,54.58c-2.26,.41-4.06,1.72-4.93,3.5-.87-1.78-2.67-3.09-4.93-3.5-2.59-.47-5.45,.59-7.28,2.69-1.9,2.19-2.59,5.4-1.74,8.18,.4,1.3,1.13,2.6,2.25,3.99,1.5,1.86,3.3,3.44,5.34,4.69,2.02,1.23,4.04,2.03,6.17,2.87,.06,.02,.12,.04,.18,.04s.12-.01,.18-.04c2.13-.84,4.15-1.63,6.17-2.87,2.04-1.25,3.84-2.83,5.34-4.69,1.11-1.39,1.85-2.69,2.25-3.99,.85-2.78,.17-5.99-1.74-8.18-1.83-2.1-4.68-3.16-7.27-2.69Z"/></g></g></g></g></g></svg>