<?xml version="1.0" encoding="UTF-8"?><svg id="_圖層_2" xmlns="http://www.w3.org/2000/svg" viewBox="0 0 204.74 116"><defs><style>.cls-1{fill:#fff;}</style></defs><g id="_圖層_5"><path class="cls-1" d="M29.84,91.6c-1.17,0-2.12,.96-2.12,2.13v8.15c0,1.17,.95,2.13,2.12,2.13s2.12-.96,2.12-2.13v-8.15c0-1.17-.95-2.13-2.12-2.13Z"/><path class="cls-1" d="M22.22,78.55h-.23c-1.11,0-2,.91-2,2.06l.24,1.29c1.22,6.67,1.14,13.41-.24,20.05,0,.01,0,.03,0,.04,0,1.11,.9,2.01,2,2.01h.23c1.11,0,2-.91,2-2.01v-21.42c0-1.11-.9-2.01-2-2.01h0Z"/><path class="cls-1" d="M41.56,91.01s-.03-.05-.07-.08c-.3-.25-.59-.51-.79-.86-.08-.14-.17-.18-.29-.05-.08,.1-.18,.12-.25,.03-.06-.08-.16-.19-.04-.3,.09-.08,.1-.2,.07-.29-.19-.52-.37-1.05-.77-1.47-.48-.51-1.09-.84-1.59-1.32-.48-.46-1.08-.67-1.75-.68h-.16c-.4,0-.45,.07-.26,.42,.32,.61,.65,1.21,1.16,1.69,.29,.28,.59,.55,.83,.88,.18,.26,.37,.53,.61,.73,.44,.38,.92,.72,1.32,1.16,.03,.04,.07,.07,.1,.1-1.35,.16-2.61,.73-3.64,1.68-1.37,1.25-2.15,3.03-2.15,4.89v4.75c0,.95,.77,1.72,1.71,1.72s1.71-.77,1.71-1.72v-4.75c0-.91,.39-1.78,1.07-2.38,.69-.61,1.58-.88,2.5-.76,1.56,.2,2.74,1.6,2.74,3.26v4.64c0,.95,.77,1.72,1.71,1.72s1.71-.77,1.71-1.72v-4.57c0-3.32-2.38-6.17-5.49-6.71h0Z"/><path class="cls-1" d="M60.72,93.23c-.22,0-.44,.04-.66,.13-1.27-1.31-2.95-2.03-4.75-2.03-3.7,0-6.71,3.09-6.71,6.88s3.01,6.88,6.71,6.88c1.27,0,2.49-.36,3.56-1.05v4.59s0,.03,0,.05c-.07,1.7-1.39,3.03-3.01,3.03-1.25,0-2.38-.83-2.82-2.05-.26-.72-.95-1.2-1.72-1.2-.61,0-1.18,.3-1.53,.8-.34,.49-.43,1.09-.23,1.64,.96,2.71,3.49,4.53,6.3,4.53,3.15,0,5.91-2.3,6.55-5.46,.1-.24,.16-.48,.16-.73v-14.13c0-1.02-.83-1.86-1.85-1.86h0Zm-5.4,8.13c-1.66,0-3.01-1.42-3.01-3.16s1.35-3.16,3.01-3.16,3.01,1.42,3.01,3.16-1.35,3.16-3.01,3.16Z"/><path class="cls-1" d="M14.96,90.34c1.45-1.38,2.24-3.16,2.24-5.07,0-4.05-3.61-7.34-8.06-7.34-1.75,0-3.48,.53-4.88,1.5-.44-.55-1.09-.87-1.79-.87h-.18c-1.27,0-2.3,1.04-2.3,2.36l.5,2.5c.88,4.4,.97,8.88,.28,13.3l-.78,4.97c0,1.27,1.03,2.32,2.3,2.32h.18c.79,0,1.52-.42,1.94-1.09,1.57,1.11,3.52,1.72,5.52,1.72,4.88,0,8.85-3.52,8.85-7.85,0-2.59-1.43-4.98-3.84-6.45h0Zm-5.82-8.7c2.41,0,4.36,1.63,4.36,3.63s-1.96,3.63-4.36,3.63-4.36-1.63-4.36-3.63,1.96-3.63,4.36-3.63Zm.79,19.28c-2.85,0-5.16-1.85-5.16-4.13s2.31-4.13,5.16-4.13,5.16,1.85,5.16,4.13-2.31,4.13-5.16,4.13Z"/><path class="cls-1" d="M98.84,91.6c-1.17,0-2.12,.96-2.12,2.13v8.15c0,1.17,.95,2.13,2.12,2.13s2.12-.96,2.12-2.13v-8.15c0-1.17-.95-2.13-2.12-2.13Z"/><path class="cls-1" d="M91.22,78.55h-.23c-1.11,0-2,.91-2,2.06l.24,1.29c1.22,6.67,1.14,13.41-.23,20.05,0,.01,0,.03,0,.04,0,1.11,.9,2.01,2,2.01h.23c1.11,0,2-.91,2-2.01v-21.42c0-1.11-.9-2.01-2-2.01h0Z"/><path class="cls-1" d="M110.11,90.95c-1.87-.18-3.67,.42-5.05,1.69-1.37,1.25-2.15,3.03-2.15,4.89v4.75c0,.95,.77,1.72,1.71,1.72s1.71-.77,1.71-1.72v-4.75c0-.91,.39-1.78,1.07-2.38,.69-.61,1.57-.88,2.49-.76,1.56,.2,2.74,1.6,2.74,3.26v4.64c0,.95,.77,1.72,1.71,1.72s1.71-.77,1.71-1.72v-4.57c0-3.48-2.61-6.46-5.94-6.77h0Z"/><path class="cls-1" d="M129.73,93.23c-.22,0-.44,.04-.66,.13-1.27-1.31-2.95-2.03-4.75-2.03-3.7,0-6.71,3.09-6.71,6.88s3.01,6.88,6.71,6.88c1.26,0,2.49-.36,3.55-1.05v4.59s0,.03,0,.04c-.07,1.7-1.39,3.03-3.01,3.03-1.25,0-2.38-.83-2.82-2.05-.26-.72-.95-1.2-1.72-1.2-.61,0-1.18,.3-1.53,.8-.34,.49-.43,1.08-.23,1.64,.96,2.71,3.5,4.53,6.3,4.53,3.15,0,5.91-2.3,6.55-5.46,.1-.24,.16-.48,.16-.73v-14.13c0-1.02-.83-1.86-1.85-1.86h0Zm-5.4,8.14c-1.66,0-3.01-1.42-3.01-3.16s1.35-3.16,3.01-3.16,3.01,1.42,3.01,3.16-1.35,3.16-3.01,3.16Z"/><path class="cls-1" d="M83.96,90.34c1.45-1.38,2.24-3.16,2.24-5.07,0-4.05-3.61-7.34-8.06-7.34-1.75,0-3.48,.53-4.87,1.5-.44-.55-1.09-.87-1.79-.87h-.18c-1.27,0-2.3,1.04-2.3,2.36l.5,2.5c.88,4.4,.97,8.88,.28,13.3l-.78,4.97c0,1.27,1.03,2.32,2.3,2.32h.18c.79,0,1.52-.42,1.94-1.09,1.57,1.11,3.52,1.72,5.52,1.72,4.88,0,8.85-3.52,8.85-7.85,0-2.59-1.43-4.98-3.84-6.45Zm-5.82-8.7c2.41,0,4.36,1.63,4.36,3.63s-1.96,3.63-4.36,3.63-4.36-1.63-4.36-3.63,1.96-3.63,4.36-3.63Zm.8,19.28c-2.85,0-5.16-1.85-5.16-4.13s2.31-4.13,5.16-4.13,5.16,1.85,5.16,4.13-2.31,4.13-5.16,4.13Z"/><path class="cls-1" d="M163.74,79.29h-.03l-6.04,.54c-1.63,.15-3.32,.21-5.03,.2l2.83-3.96c.72-1.01,.49-2.43-.52-3.16l-.16-.12c-.48-.35-1.08-.49-1.67-.39-.6,.1-1.12,.43-1.5,.96l-3.87,6.43-7.91-.51c-1.25,0-2.26,1.02-2.26,2.27v.17c0,1.26,1.01,2.27,2.26,2.27h5.25c-2.05,2.99-4.38,5.76-6.96,8.26l-.08,.09c-.72,1.01-.49,2.43,.51,3.16l.16,.12c.39,.28,.84,.42,1.31,.42,.72,0,1.41-.35,1.83-.94l7.93-11.11h13.97c1.25,0,2.26-1.02,2.26-2.27v-.17c0-1.27-1.01-2.27-2.3-2.27h0Z"/><path class="cls-1" d="M158.44,103.31c.13,.04,.26,.06,.39,.06,.24,0,.46-.07,.65-.21,.35-.25,.55-.71,.55-1.25v-.63c0-.97-.68-1.76-1.51-1.76h-6.57c-.83,0-1.51,.79-1.51,1.76v.28c0,.97,.68,1.76,1.51,1.76,.02,0,.04,0,.05,0l.88-.22c1.83-.44,3.76-.37,5.56,.21h0Z"/><path class="cls-1" d="M155.26,84.92c-3.47-.31-5.78,1.38-7.57,3.07-2.07,1.95-2.97,4.11-3.11,7.43-.08,1.93-.09,4.37-.09,6.74,0,1.25,0,2.47-.02,3.54,0,.63,.19,1.18,.57,1.57,.37,.38,.91,.59,1.51,.6h.02c1.24,0,2.04-.81,2.1-2.11,.07-1.68,.08-3.65,.09-5.55,0-.96,0-1.91,.02-2.81h7.68c.96,0,1.75-.79,1.75-1.76v-.28c0-.97-.78-1.76-1.78-1.76h0l-1.05,.21c-2.07,.42-4.25,.38-6.32-.13,.27-1.09,.78-1.94,1.64-2.71,1.21-1.09,2.65-2.22,4.5-1.81,3.79,.84,6.13,1.61,6.49,6.67,.42,5.81,0,11.8-5.79,16.28-.59,.45-.9,.9-.94,1.38-.07,.69,.43,1.28,.88,1.8,.41,.47,.81,.71,1.26,.71,.51,0,1.1-.3,1.86-.93,.66-.54,1.34-1.21,2.03-2.02,2.67-3.11,4.29-7.02,4.7-11.31,.2-2.04,.38-3.98,.24-5.74-.52-6.49-4.4-10.53-10.63-11.09Z"/><path class="cls-1" d="M202.77,93.1c0-.05,0-.1,0-.13,.05-1.31-.88-2.09-1.79-2.15h-.21c-.31,.02-1.01,.13-1.68,.24-.45,.07-.87,.14-1.1,.17-2.34,.27-4.19,.23-6.38-.11-.18-.03-.38-.08-.59-.12-.41-.09-.83-.19-1.23-.19h0c-.92,0-1.59,.79-1.76,2.07,0,.05-.01,.1,0,.15v.07c.17,.96,.36,2.04,1.59,2.05,1.31,0,2.69,.04,4.03,.06,1.56,.03,3.16,.06,4.73,.06,.8,0,1.59,0,2.36-.03,1.14-.03,1.83-.75,2.06-2.13h0Z"/><path class="cls-1" d="M184.99,86.29c.43-.4,.67-.95,.67-1.52,0-1.15-.93-2.08-2.1-2.08l-2.55,.23c-1.71,.16-3.45,.16-5.16,0l-2.53-.23c-1.14,0-2.07,.93-2.07,2.08s.93,2.08,2.07,2.08h6c-2.26,2.61-4.76,5.03-7.44,7.18l-.9,.72c-.39,.39-.6,.92-.6,1.47s.21,1.08,.6,1.47c.39,.39,.91,.61,1.46,.61s1.07-.21,1.46-.61l3.12-3.14c.27,3.62,.13,7.27-.4,10.85v.05c0,1.12,.89,2.04,1.98,2.04h.18c1.09,0,1.98-.92,1.98-2.04v-14.67l3.76-3.78c.2-.2,.35-.44,.46-.72h0Z"/><path class="cls-1" d="M176.66,79.36c.62,.42,1.43,.66,2.18,.66h.07c1.9-.04,2.85-.75,2.83-2.13-.03-1.64-1.33-3.11-2.95-3.35-.91-.13-1.84,.12-2.48,.7-.57,.5-.88,1.22-.86,2.01,.02,.84,.45,1.59,1.22,2.11h0Z"/><path class="cls-1" d="M184.51,93.05c-1.63-.68-2.3-.04-2.57,.61-.47,1.13-.03,2.52,1.01,3.17,.39,.25,.83,.37,1.27,.37,.22,0,.43-.03,.63-.1,.54-.17,.97-.57,1.19-1.12,.19-.46,.19-.96,0-1.45-.26-.63-.85-1.22-1.52-1.49h0Z"/><path class="cls-1" d="M192.15,89.31h5.87c3.7,0,6.72-3.03,6.72-6.76,0-3.42-2.59-6.32-5.94-6.71l.07-.92c0-.88-.71-1.59-1.58-1.59s-1.58,.71-1.58,1.59v.87h-1.27v-.87c0-.88-.71-1.59-1.58-1.59-.42,0-.82,.17-1.12,.47-.3,.3-.46,.71-.46,1.15l.08,.89c-3.34,.4-5.92,3.3-5.92,6.71,0,3.73,3.01,6.76,6.71,6.76h0Zm6.86-3.54l-.14-1.53,2.11,.15c-.46,.67-1.17,1.17-1.97,1.38h0Zm-.27-6.5c.76,.12,1.46,.5,1.97,1.09,.09,.11,.18,.22,.27,.35l-2.27,.17c0-.52,.01-1.05,.04-1.61h0Zm-4.37-.3c.46-.02,.93-.02,1.4,0v2.07c-.47,0-.93,0-1.4-.03v-2.05Zm0,5.06c.47-.02,.94-.02,1.4,0v1.86h-1.4v-1.85h0Zm-4.92-3.67c.51-.58,1.19-.96,1.94-1.09,.03,.55,.04,1.06,.04,1.55l-2.22-.15c.07-.11,.15-.21,.24-.31Zm1.82,3.9l-.14,1.51c-.79-.21-1.47-.69-1.93-1.34l2.06-.16h0Z"/><path class="cls-1" d="M204.1,106.95c-.11-.35-.36-.61-.72-.74-.65-.23-1.48-.01-1.77,.17-.04,.03-.08,.05-.12,.08h0s-.07,.07-.09,.1c-.25,.24-.48,.54-.69,.83-.17,.22-.32,.43-.48,.58-2.69,2.72-6.16,2.78-9.77,.17-.16-.12-.37-.33-.57-.54-.3-.3-.58-.59-.84-.72-.59-.29-1.25-.35-1.74-.15-.37,.15-.63,.44-.76,.83-.03,.1-.07,.19-.1,.28-.31,.85-.42,1.38,.91,2.3,2.9,2,5.52,3.01,8.04,3.01,2.79,0,5.45-1.25,8.22-3.75,1.03-.93,1-1.3,.69-1.97-.07-.15-.14-.31-.21-.51h0Z"/><path class="cls-1" d="M25.85,84.13c.13,.08,.26,.15,.34,.25l.24,.14c.33,.17,.67,.35,1.07,.35,.15,0,.31-.03,.49-.08,.32-.11,.51-.28,.72-.47,.12-.12,.18-.24,.16-.37,0-.09-.06-.21-.23-.31-.03-.02-.11-.11-.16-.21-.15-.3-.38-.52-.6-.73-.08-.08-.16-.15-.24-.23-.19-.2-.44-.22-.64-.23-.23-.02-.32-.03-.38-.15-.03-.05-.11-.16-.29-.11l-.2,.02c-.16,.02-.32,.04-.48,.05-.29,.02-.51,.2-.55,.46-.04,.25-.08,.57,.04,.92,.14,.39,.45,.57,.7,.71h0Z"/><path class="cls-1" d="M29.32,79.77c-.07,.01-.13,.02-.2,.03-.24,.03-.36,.22-.45,.37-.03,.04-.05,.08-.08,.12-.21,.22-.22,.5-.22,.69-.01,.38,0,.76,.01,1.11,.04,.55,.28,.97,.74,1.24,.14,.08,.28,.13,.42,.13,.07,0,.13,0,.19-.03,.15-.04,.26-.15,.33-.29,.05-.11,.1-.21,.16-.31,.16-.31,.33-.63,.36-1.02,0-.19,.02-.38,.02-.56,0-.25,.01-.5,.04-.75,.02-.29-.13-.44-.27-.56-.35-.29-.73-.22-1.04-.17h0Z"/><path class="cls-1" d="M31.89,84.02h.05s.09,.03,.15,.03c.09,0,.2-.02,.31-.12,.46-.42,.97-.9,1.28-1.55,.15-.2,.23-.41,.3-.59,.03-.08,.04-.16,.03-.24l.1-.03-.15-.26s-.03-.05-.05-.07c-.03-.06-.06-.11-.09-.16-.15-.21-.34-.34-.51-.33-.48,0-.82,.19-1.04,.55-.14,.22-.29,.43-.45,.66-.17,.23-.35,.47-.5,.73-.2,.34-.24,.68-.11,.95,.12,.25,.37,.41,.71,.45h0Z"/><path class="cls-1" d="M33.35,87.5c-.21-.14-.4-.29-.61-.46-.32-.25-.63-.5-1.02-.69-.05-.02-.1-.05-.15-.08-.32-.17-.77-.41-1.25-.02l-.06,.07c-.09,.17-.14,.33-.16,.5-.08-.13-.17-.25-.29-.38l-.05-.1-.07-.03c-.44-.22-.69,.12-.81,.29-.31,.43-.49,.91-.66,1.38l-.08,.23v.06c.03,.14,.01,.29,0,.45-.02,.23-.04,.47,.02,.72,.06,.23,.26,.43,.51,.51,.07,.02,.13,.03,.2,.03,.13,0,.26-.04,.36-.13,.05-.04,.11-.08,.16-.13,.29-.23,.65-.51,.64-1.03,0-.01,.02-.04,.05-.09,.19-.35,.28-.69,.27-1.01,.04,.05,.1,.11,.16,.16l.05,.05h.07c.18,.03,.32,.14,.49,.27,.07,.06,.15,.12,.22,.17,.53,.35,1.02,.52,1.55,.52h.15c.13,0,.53-.03,.6-.44,.06-.35-.05-.65-.3-.81h0Z"/><path class="cls-1" d="M28.14,86.62c.36-.3,.2-.57,.12-.67-.01-.02-.03-.04-.04-.05-.06-.09-.25-.38-.6-.21,0,0-.02,0-.08-.02-.17-.1-.45-.17-.81,.04-.58,.35-1,.75-1.32,1.27l.19,.12-.21-.1c-.05,.06-.12,.15-.18,.26-.08,.15-.31,.59,.1,.96l.06,.06c.13,.13,.33,.3,.59,.3,.12,0,.25-.04,.4-.14,.58-.39,1.17-.84,1.54-1.55,.07-.13,.13-.21,.23-.29h0Z"/><path class="cls-1" d="M31.38,85.67c.45,.27,.89,.32,1.31,.38h.11c.09,.03,.19,.03,.28,.03,.46,0,.92-.15,1.43-.45,.21-.13,.21-.38,.21-.53v-.05c0-.16-.07-.35-.42-.39-.23-.03-.47-.08-.69-.14l-.08-.02c-.37-.08-.73-.07-1.08-.06-.18,0-.35,.01-.53,0-.38-.02-.67,.22-.79,.65-.09,.32,.12,.48,.19,.54l.17-.16-.15,.17,.04,.03h0Z"/><path class="cls-1" d="M94.69,84.13c.13,.08,.26,.15,.34,.25l.24,.14c.33,.17,.67,.35,1.07,.35,.15,0,.31-.03,.49-.08,.32-.11,.51-.28,.72-.47,.12-.12,.18-.24,.16-.37,0-.09-.06-.21-.23-.31-.03-.02-.11-.11-.16-.21-.15-.3-.38-.52-.6-.73-.08-.08-.16-.15-.24-.23-.19-.2-.44-.22-.64-.23-.23-.02-.32-.03-.38-.15-.03-.05-.11-.16-.29-.11l-.2,.02c-.16,.02-.32,.04-.48,.05-.29,.02-.51,.2-.56,.46-.04,.25-.08,.57,.04,.92,.14,.39,.45,.57,.7,.71h0Z"/><path class="cls-1" d="M97.96,83.33c.14,.08,.28,.13,.42,.13,.07,0,.13,0,.19-.03,.15-.04,.26-.15,.33-.29,.05-.11,.1-.21,.16-.31,.16-.31,.33-.63,.36-1.02,0-.19,.02-.38,.02-.56,0-.25,.01-.5,.04-.75,.02-.29-.13-.44-.27-.56-.35-.29-.73-.22-1.04-.17-.07,.01-.13,.02-.2,.03-.24,.03-.36,.22-.45,.37-.03,.04-.05,.08-.08,.12-.21,.22-.22,.5-.22,.69-.01,.38,0,.76,.01,1.11,.04,.55,.28,.97,.74,1.24h0Z"/><path class="cls-1" d="M100.74,84.02h.05s.09,.03,.15,.03c.09,0,.21-.02,.31-.12,.46-.42,.97-.9,1.28-1.55,.15-.2,.23-.41,.3-.59,.03-.08,.04-.16,.03-.24l.1-.03-.15-.26s-.03-.05-.05-.07c-.03-.06-.06-.11-.09-.16-.15-.21-.33-.34-.51-.33-.48,0-.82,.19-1.04,.55-.14,.22-.29,.43-.45,.66-.17,.23-.35,.47-.5,.73-.2,.34-.24,.68-.11,.95,.12,.25,.37,.41,.71,.45h0Z"/><path class="cls-1" d="M102.2,87.5c-.21-.14-.4-.29-.61-.46-.31-.25-.63-.5-1.02-.69-.05-.02-.1-.05-.15-.08-.32-.17-.77-.41-1.25-.02l-.06,.07c-.09,.17-.14,.33-.16,.5-.08-.13-.17-.25-.29-.38l-.05-.1-.07-.03c-.44-.22-.69,.12-.81,.29-.31,.43-.49,.91-.66,1.38l-.08,.23v.06c.03,.14,.01,.29,0,.45-.02,.23-.04,.47,.02,.72,.06,.23,.26,.43,.51,.51,.07,.02,.13,.03,.2,.03,.13,0,.26-.04,.36-.13,.05-.04,.11-.08,.16-.13,.29-.23,.65-.51,.64-1.03,0-.01,.02-.04,.05-.09,.19-.35,.28-.69,.27-1.01,.04,.05,.1,.11,.16,.16l.05,.05h.07c.18,.03,.32,.14,.49,.27,.07,.06,.15,.12,.22,.17,.53,.35,1.02,.52,1.54,.52h.15c.13,0,.53-.03,.6-.44,.06-.35-.05-.65-.3-.81h0Z"/><path class="cls-1" d="M96.99,86.62c.36-.3,.2-.57,.12-.67-.01-.02-.03-.04-.04-.05-.06-.09-.25-.38-.6-.21,0,0-.02,0-.08-.02-.17-.1-.45-.17-.81,.04-.58,.35-1,.75-1.32,1.27l.19,.12-.21-.1c-.05,.06-.12,.15-.18,.26-.08,.15-.31,.59,.1,.96l.06,.06c.13,.13,.33,.3,.59,.3,.12,0,.25-.04,.4-.14,.58-.39,1.17-.84,1.54-1.55,.07-.13,.13-.21,.23-.29h0Z"/><path class="cls-1" d="M102.38,84.49c-.37-.08-.73-.07-1.08-.06-.18,0-.35,.01-.53,0-.38-.02-.67,.22-.79,.65-.09,.32,.12,.48,.19,.54l.17-.16-.15,.17,.04,.03c.45,.27,.89,.32,1.31,.38h.11c.09,.03,.19,.03,.28,.03,.46,0,.92-.15,1.43-.45,.21-.13,.21-.38,.21-.53v-.05c0-.16-.07-.35-.42-.39-.23-.03-.47-.08-.69-.14l-.08-.02h0Z"/><path class="cls-1" d="M197.5,96.78c-1,.18-1.8,.76-2.19,1.56-.39-.8-1.19-1.38-2.19-1.56-1.16-.21-2.42,.26-3.24,1.21-.85,.98-1.15,2.42-.77,3.66,.18,.58,.5,1.16,1,1.78,.67,.83,1.47,1.54,2.38,2.1,.9,.55,1.79,.91,2.74,1.28l.08,.03,.09-.03c.95-.38,1.85-.73,2.74-1.28,.91-.56,1.71-1.26,2.38-2.1,.5-.62,.82-1.2,1-1.78,.38-1.24,.08-2.68-.77-3.66-.81-.94-2.08-1.42-3.24-1.21h0Z"/><path class="cls-1" d="M50.83,77.52c.73,.38,1.45,.79,2.15,1.21,.49,.29,1,.56,1.41,.97,.3,.3,.58,.28,.87-.04,.94-1.08,1.72-2.28,2.49-3.49,.09-.14,.32-.3,.21-.43-.11-.14-.37-.06-.56-.04-.75,.09-1.51,.16-2.27,.18-.76,.02-1.52,0-2.28,0-.51,0-1.02-.09-1.52-.18-.4-.07-.8-.13-1.22-.2-.05,.01-.12-.03-.18,.06-.28,.44-.58,.87-.87,1.3-.14,.21-.06,.29,.18,.27,.57-.06,1.09,.13,1.58,.39h0Z"/><path class="cls-1" d="M72.28,74.49c.4,.09,.79,.18,1.19,.27,.16,0,.28-.06,.4-.14,.91-.61,1.73-1.32,2.44-2.15,.54-.63,1.06-1.27,1.48-1.99,.09-.16,.04-.24-.11-.31-.25-.12-.5-.24-.74-.37-.22-.12-.4-.12-.57,.09-.41,.49-.95,.86-1.48,1.2-.85,.55-1.79,.91-2.73,1.26-1.03,.38-2.09,.64-3.14,.92-.08,.02-.26-.05-.24,.16,.01,.16,.14,.15,.24,.18,1.06,.39,2.16,.61,3.25,.88h0Z"/><path class="cls-1" d="M47.44,79.07c-.13,.23-.28,.45-.43,.67-.17,.25-.34,.5-.5,.77-.15,.25-.1,.31,.18,.33,.21,.02,.43,.04,.64,.1,.73,.2,1.41,.49,2.03,.95,.64,.48,1.35,.86,1.82,1.54,.05,.07,.11,.13,.2,.11,.06,0,.1,0,.14-.05,.5-.5,1-1.01,1.5-1.51,.07-.08,.08-.17-.02-.26-.74-.63-1.42-1.33-2.27-1.83-.77-.44-1.52-.9-2.38-1.14-.54-.15-.62-.14-.88,.33h-.01Z"/><path class="cls-1" d="M49.66,84.86c-.37-.46-.78-.9-1.25-1.26-.85-.64-1.78-1.11-2.79-1.44h0c-.13-.03-.23,.04-.29,.14-.39,.66-.78,1.31-1.16,1.98-.08,.15-.13,.32,.11,.39,1.23,.36,2.28,1.02,3.13,1.99,.08,.08,.13,.11,.2,.05,.63-.54,1.36-.94,2.01-1.45,.15-.12,.17-.24,.04-.4Z"/><path class="cls-1" d="M77.1,75.26c-.11,.12-.16,.3,0,.35,.33,.1,.67,.14,1.06,.21,.04,.01,.1-.03,.15-.08,.66-.59,1.36-1.13,1.94-1.82,.55-.65,1.03-1.35,1.39-2.12,.11-.23,.06-.32-.19-.39-.51-.14-1.01-.31-1.51-.47-.16-.05-.2-.01-.26,.17-.24,.71-.49,1.43-.96,2.04-.55,.7-1.01,1.47-1.62,2.12h0Z"/><path class="cls-1" d="M81.07,76.17c.01,.12,.11,.07,.17,.08,.46,.07,.93,.13,1.39,.2,.17,0,.28-.06,.38-.21,.13-.18,.3-.34,.48-.49,.84-.71,1.51-1.54,1.89-2.58,.13-.37,.09-.45-.26-.56-.46-.15-.94-.27-1.39-.45-.25-.1-.32,.02-.34,.2-.04,.46-.24,.87-.43,1.27-.44,.9-.97,1.74-1.78,2.36-.06,.04-.12,.09-.1,.18h0Z"/><path class="cls-1" d="M43.6,89.21c.83-.27,1.52-.76,2.22-1.26,.17-.12,.16-.27,0-.42-.48-.46-1.04-.82-1.6-1.17-.25-.16-.48-.35-.72-.38-.14,0-.23,.04-.28,.13-.35,.58-.67,1.17-.92,1.8-.07,.17-.08,.31,.04,.46,.17,.23,.37,.44,.54,.67,.21,.3,.43,.26,.72,.17h0Z"/><path class="cls-1" d="M90.76,77.09c.14-.16,.32-.29,.42-.5,.64-1.42,1.06-2.89,1.07-4.47,0-.33,0-.66-.06-.99-.03-.11-.03-.23-.15-.27-.13-.04-.26,0-.32,.13-.37,.74-1.03,1.38-.79,2.35,.08,.35,.01,.72-.16,1.05-.2,.4-.34,.84-.43,1.27-.09,.44-.09,.91,.06,1.35,.07,.2,.18,.28,.36,.08h0Z"/><path class="cls-1" d="M60.29,16.76c-.79,.72-1.47,1.55-2.32,2.2-.71,.55-1.41,1.11-2.13,1.65-.78,.58-1.59,1.11-2.36,1.69-1.15,.85-2.35,1.64-3.61,2.34-.75,.42-1.53,.81-2.26,1.28-.52,.33-1.01,.72-1.58,.99-1.82,.87-3.63,1.74-5.44,2.62-.87,.42-1.7,.91-2.61,1.24-.51,.19-1.05,.3-1.53,.57-.29,.07-.53,.25-.81,.34-.27,.08-.37,.25-.45,.5-.24,.71-.26,1.44-.23,2.17,.04,.87,.71,1.98,1.91,1.96,.42,0,.81-.07,1.2-.2,.6-.2,1.22-.35,1.78-.67,.66-.38,1.19-.9,1.66-1.5,.23-.3,.52-.55,.69-.9,.34-.53,.66-1.06,.91-1.64,.25-.59,.35-1.22,.33-1.85,0-.15-.04-.3-.06-.46-.02-.19,.14-.22,.26-.25,.1-.02,.21,.01,.25,.17,.02,.09,.02,.21,.12,.27,.11,.25,.28,.45,.48,.62,.46,.36,1.03,.44,1.55,.42,.75-.04,1.41-.39,1.97-.92,.08,.01,.13-.05,.18-.1,.49-.46,.96-.94,1.28-1.55,.34-.64,.52-1.31,.46-2.04-.01-.15-.13-.27,.12-.36,.22-.08,.36-.02,.44,.17,.04,.1,.11,.17,.2,.23,.04,.04,.07,.1,.12,.14,.89,.62,1.86,.87,2.92,.52,.58-.19,1.18-.33,1.58-.85,.04-.04,.1-.08,.12-.13,.35-.87,.46-1.76,.24-2.68-.07-.31,0-.43,.33-.39,.08,0,.16,.04,.23,.07,0,.07,.04,.11,.08,.16,.31,.35,.7,.56,1.12,.71,.84,.3,1.71,.44,2.59,.37,.46-.04,.89-.19,1.21-.56,.21-.15,.31-.36,.38-.61,.16-.57,.2-1.16,.17-1.74-.02-.37-.07-.72-.43-.96-.2-.13-.34-.36-.44-.59-.04-.09-.2-.2-.04-.31,.14-.09,.29-.21,.48-.1,.1,.06,.21,.13,.29,.23,.33,.41,.78,.62,1.27,.75,.07,.04,.13,.09,.2,.12,1.03,.39,2.1,.49,3.19,.43,.24-.01,.49-.06,.71-.23,.24-.18,.42-.39,.59-.62,.27-.38,.57-.76,.49-1.28,.19-.4,.02-.8-.02-1.18-.05-.46-.38-.8-.66-1.15-.5-.64-1.12-1.09-1.92-1.31-.63-.17-1.27-.2-1.9-.27-.44-.05-.82,.21-1.24,.1-.03,0-.08,.06-.11,.1-.55,.84-1.2,1.58-1.94,2.26h-.02Z"/><path class="cls-1" d="M69.76,19.5c.83,2.7,.97,5.78-.26,8.37-.03,.07-.03,.1-.1,.09-.06,0-.04-.1-.07-.17,.01,.07-.06,.16,.04,.23,.08,.07,.21-.02,.24-.09,2.1-2.5,1.99-6.34,.71-9.2-.12-.54-.85-.62-1.01-.08-.36,1.27-.98,2.44-1.43,3.73,.69-.9,1.35-1.84,1.86-2.88h0Z"/><path class="cls-1" d="M87.64,73.49c-.16-.04-.33-.06-.47-.13-.2-.11-.29-.03-.36,.14-.16,.5-.41,.95-.68,1.39-.3,.49-.62,.96-.93,1.44-.04,.06-.1,.11-.06,.19,.04,.08,.13,.04,.2,.04h.78c.22,0,.41-.07,.54-.25,.52-.73,1.02-1.48,1.27-2.36,.08-.29,0-.4-.28-.47h0Z"/><path class="cls-1" d="M90.08,74.52s0-.02,.01-.03c.07-.17,.01-.25-.18-.25-.39,0-.78,.03-1.17-.06-.12-.03-.24,0-.28,.13-.08,.3-.23,.58-.36,.86-.06,.13-.02,.2,.12,.2h.71c.6,0,.98-.28,1.14-.85h0Z"/><path class="cls-1" d="M39.36,42.54c-.1,.09-.22,.02-.32-.03-.2-.1-.78-.4-.98-.49-2.11-.99-3.57-2.88-4.75-4.85,.42,.14,.86,.26,1.29,.3,.51-.09,1.01-.27,1.55-.34-.48-.09-.98-.12-1.48-.08-.44-.14-.85-.34-1.27-.56-.16-.08-.33-.2-.52-.27-.33-.15-.77,.19-.67,.55,.04,.16,.07,.18,.12,.27,.02,.04,.19,.36,.21,.41,1.24,2.63,3.49,4.84,6.46,5.16,.11,.02,.29,.04,.36-.08h0Z"/><path class="cls-1" d="M41.71,88.53c-.29,.25-.51,.56-.75,.86-.02,.03,0,.08,0,.1,0,.19,.56,.81,.73,.82,.07,0,.12-.01,.17-.06,.2-.18,.4-.36,.6-.54,.12-.11,.15-.2,.04-.34-.21-.26-.4-.53-.59-.8-.05-.08-.12-.1-.18-.05h0Z"/><path class="cls-1" d="M46.92,33.13c-.71,.19-1.31,.53-1.47,1.3-.13,.63,.06,1.17,.51,1.68,.48,.54,1.01,.74,1.67,.54,.58-.17,1.18-.33,1.5-.91,.43-.76,.56-1.94-.5-2.39,0,.29,.08,.63-.27,.77-.32,.13-.67,.34-1,.08-.36-.28-.37-.68-.26-1.12-.08,.02-.13,.03-.18,.04Z"/><path class="cls-1" d="M69.25,28c-.52-2.52-1.1-4.53-1.82-6.32l-.06-.12-.1-.02c-.08-.01-.16,.01-.21,.07l-.07,.11,.02,.08c.48,1.9,.88,3.98,1.2,6.36l.04,.38c.22,1.93,.45,3.93-.39,5.7-1.5,3.22-4.01,6.16-7.08,8.26-2.41,1.56-6.19,3.34-10.54,2.95-3.86-.3-10.68-1.65-12.93-7.35-.04-.11-.15-.17-.26-.14-.11,.03-.18,.15-.15,.25,.67,3.03,3.69,6.91,10.01,7.88,.97,.13,1.95,.19,2.93,.19,4.52,0,9.08-1.35,12.84-3.86h0c3.01-2.33,5.1-4.83,6.37-7.68,.95-2.1,.61-4.49,.19-6.77Z"/><path class="cls-1" d="M60.52,26.48c-.3,.16-.63,.26-.82,.58-.45,.76-.43,1.63,.16,2.34,.58,.71,1.25,.87,1.92,.44,.93-.6,1.38-1.71,1.1-2.83-.09-.35-.24-.67-.64-.79,0,.31,.31,.63-.05,.9-.01,.21-.16,.24-.32,.25-.02,0-.04,0-.07,.01-.25,.11-.5,.18-.76,.08-.03-.03-.05-.06-.08-.09-.25-.05-.3-.23-.28-.46,0-.1-.03-.21,0-.31,.05-.17-.05-.18-.14-.13h0Z"/><path class="cls-1" d="M71.85,71.66c1.16-.46,2.31-.92,3.32-1.69,.36-.27,.75-.52,.89-.97,.21-.65,.28-1.31,.12-1.98-.17-.7-.5-1.31-.94-1.86-.17-.24-.28-.52-.52-.71,0-.07-.04-.11-.08-.17-.4-.55-.83-1.09-1.2-1.65-.81-1.2-1.71-2.33-2.66-3.43-.04-.05-.11-.12-.12-.18-.02-.23-.2-.21-.29-.13-.17,.13-.36,.07-.54,.11-.38,.03-.72-.02-.87-.46-.07-.09-.17-.08-.24-.03-.2,.15-.46,.22-.64,.4-.79,.33-1.55,.75-2.39,.98-.48,.13-.9,.45-1.42,.48-1.13,.12-1.78-.47-2.16-1.47-.28-.72-.56-1.45-.8-2.19-.24-.73-.54-1.45-.55-2.25,0-.32,.11-.52,.39-.64,.28-.12,.56-.17,.81,.04,.19,.16,.37,.33,.51,.55,.44,.69,.81,1.42,1.11,2.18,.18,.45,.5,.67,.97,.69,.28,0,.53-.06,.79-.13,.76-.22,1.53-.4,2.24-.76,.31-.15,.41-.38,.31-.71-.06-.19-.09-.38-.13-.57-.04-.21,.04-.28,.2-.34,.46-.16,.93-.13,1.41-.13,.3,0,.56-.11,.83-.2,.19-.06,.25-.18,.13-.35-.29-.42-.56-.86-.93-1.22-.02-.04-.03-.1-.06-.14-.52-.86-1.05-1.72-1.51-2.61-.2-.4-.32-.85-.62-1.2-.23-.42-.46-.84-.69-1.27,.14-.08,.2-.02,.28,.08,.93,1.07,1.57,2.35,2.36,3.52,.26,.38,.44,.82,.78,1.14,.01,.04,.01,.09,.04,.12,.36,.41,.67,.86,.92,1.35,.22,.42,.08,.97-.34,1.2-.56,.31-1.17,.38-1.8,.34-.22-.01-.31,.04-.21,.29,.25,.64,.45,1.3,.76,1.92,.05,.14,.06,.34,.24,.36,.43,.04,.85-.02,1.27-.13,.09,0,.19,0,.28,0,.49-.08,.98-.17,1.47-.25,.89-.24,1.82-.28,2.7-.56,.8-.26,1.66-.41,2.36-.92,.12-.07,.26-.12,.37-.2,.28-.21,.6-.4,.75-.75,.07-.04,.1-.09,.12-.17,.28-.78-.02-1.8-.7-2.38-.87-.75-1.74-1.49-2.61-2.23-.04-.11-.16-.13-.24-.19-.95-.88-1.86-1.8-2.83-2.67-.45-.4-.9-.8-1.38-1.15-1.44-1.05-2.8-2.19-4.01-3.52-.28-.31-.57-.65-.98-.84-.48-.22-.82-.66-1.32-.86-.17-.07-.28-.06-.41,.07-.24,.23-.5,.43-.75,.65-.37,.34-.8,.61-1.15,.98,0,0,.02,.01,.02,.02,0,0-.02-.01-.02-.02-.39,.26-.76,.57-1.19,.76-.38,.17-.42,.46-.43,.78-.03,.63-.24,1.22-.57,1.74-.58,.91-1.49,1.45-2.46,1.85-1.31,.54-2.64,.97-4.09,.58-.05,.09-.1,.18-.16,.27,.05-.09,.1-.18,.16-.27h0c-.35-.2-.61-.49-.79-.84-.09-.17-.17-.35-.32-.48,0-.02,0-.04,0-.05-.02-.02-.04-.04-.05-.06h0c-.15-.19-.29-.39-.37-.63-.03-.08-.05-.12-.14-.12-.44,0-.87,.03-1.3,.14h-1.38c-.35,0-.71,0-1.06-.01-.19,0-.26,.07-.32,.24-.35,.87-.53,1.8-.93,2.64-.04,.07-.09,.14-.12,.21-.56,1.15-1.03,2.34-1.55,3.5-.71,1.76-1.45,3.52-2.45,5.15-.16,.26-.32,.52-.48,.77-.37,.57-.73,1.14-1.12,1.69-.32,.45-.08,.81,.41,1.18,.22,.29,.53,.46,.87,.56,2.12,.67,4.26,1.3,6.46,1.68,.12,.02,.26,.08,.37-.07,.28-.4,.53-.81,.63-1.3,.12-.15,.09-.34,.17-.5,.02-.23,.12-.46,.06-.69,0-.08,.01-.17,0-.25-.04-.62-.19-.71-.68-.71-.69,0-1.36-.22-1.96-.57-.26-.15-.4-.41-.29-.74,.07-.22,.13-.46,.19-.68,.15-.16,.17-.37,.24-.56,.45-1.22,1.08-2.36,1.46-3.61,.08-.29,.23-.55,.35-.82,.07-.15,.06,0,.08,.02-.02,.06-.06,.11-.07,.17-.18,.64-.35,1.28-.54,1.92-.28,.92-.59,1.83-.88,2.75-.1,.26-.2,.51-.3,.77-.07,.19,0,.29,.2,.37,.49,.19,1.01,.24,1.52,.29,.6-.04,1.06,.14,1.23,.78,.03,.1,.11,.11,.2,.11,.75,.05,1.5,.13,2.26,.12,.16,0,.33-.07,.49-.04,.39,.06,.75-.03,1.13-.08,.33-.04,.59-.23,.76-.49,.24-.36,.42-.79,.47-1.21,.07-.61,.13-1.22,.08-1.84-.03-.36,0-.72,.07-1.08,.05-.25,.12-.48,.45-.49,.27-.01,.47,.06,.61,.29,.25,.42,.29,.9,.41,1.35,.28,1.05,.48,2.12,.56,3.2,.04,.46,.09,.94-.1,1.39-.01,.22-.24,.32-.28,.52-.21,.05-.32,.26-.54,.31-.02,.01-.04,.03-.07,.04-.12,.04-.27-.05-.37,.06-.06,0-.12,.01-.19,.02-.24,0-.47,.05-.69,.1-.48,.04-.95,.1-1.43,.08-.55-.03-1.1,.03-1.64,.07-.78,.06-1.54,.26-2.33,.24-.11,0-.22,.04-.23,.13-.04,.36-.3,.62-.43,.94-.1,.03-.12,.14-.17,.21-.15,.19-.26,.41-.58,.24-.12-.06-.3-.02-.24,.19,.11,.37,.02,.75,.07,1.12,0,.27,.02,.55-.02,.81-.16,1.05-.14,2.12-.23,3.18-.07,.85-.16,1.7-.32,2.54-.11,.26-.06,.55-.13,.82-.04,.13,0,.27,.1,.4,.44,.55,1.06,.68,1.71,.78,.35,.12,.7,.16,1.06,.19,.27,.04,.55,.13,.82,.13,1.6-.02,3.21,.07,4.81-.1,.91-.09,1.82-.16,2.73-.28,.08-.02,.16-.04,.24-.05,.95-.17,1.93-.27,2.88-.46,1.76-.35,3.5-.79,5.19-1.42,.06-.02,.14,.02,.19-.06,.79-.15,1.55-.36,2.31-.63,.46-.07,.89-.23,1.32-.4l.02-.03Z"/><path class="cls-1" d="M58.63,30.67c-.04-.23-.14-.38-.29-.45-.16-.07-.34-.04-.55,.08-.26,.15-.47,.36-.63,.53-.59,.63-1.28,1.36-2.04,2.05l-.07,.06c-.27,.25-.58,.52-.66,.97l-.09,.53,.38-.38c.35-.34,.73-.66,1.11-.97,.33-.27,.67-.55,.98-.84,.23-.21,.46-.42,.7-.63,.13-.11,.26-.23,.39-.34,.01-.01,.02-.02,.03-.03,0,.07,.01,.14,.02,.21,.02,.17,.04,.33,.04,.48-.01,1.03-.29,2.08-.87,3.31-.11,.23-.2,.49-.04,.78l.03,.04c.12,.12,.24,.22,.37,.22h.04c.16-.03,.24-.17,.32-.34,.4-.81,.71-1.75,.91-2.85,.17-.88,.04-1.76-.08-2.42h0Z"/><path class="cls-1" d="M51.72,38.35c-.05-.09-.13-.2-.24-.13-.1,.05-.02,.15,0,.22,.24,.56,.44,1.14,.91,1.55,.99,.88,2.2,1.24,3.49,1.35,1.05-.09,2.05-.34,2.96-.86,.37-.21,.75-.46,.87-.93,.06-.25-.08-.36-.32-.31-.26,.05-.39,.27-.59,.4-1.31,.84-2.7,1.18-4.22,.73-.8-.24-1.58-.5-2.19-1.12-.27-.27-.48-.57-.66-.9h0Z"/><path class="cls-1" d="M61.88,12.73c-.34-.27-.63-.59-.91-.91-.22-.24-.44-.46-.7-.64-.77-.52-1.59-.95-2.46-1.3-.9-.38-1.79-.8-2.7-1.16-.84-.34-1.75-.45-2.61-.74-.65-.22-1.32-.4-2-.49-1.12-.16-2.25-.26-3.36-.46-1.61-.28-3.23-.49-4.86-.6-1.08-.08-2.16-.14-3.24-.26-.81-.08-1.63-.09-2.43-.19-1.01-.13-2.02-.31-2.97-.68-1.24-.48-2.42-1.1-3.6-1.73-1.02-.55-1.98-1.17-2.85-1.93-.16-.17-1-1.07-1.43-1.44,0-.02,0-.03,0-.05-.06-.08-.11-.2-.24-.11,0,0-.1-.13-.22,.08-.06,.03-.11,.07-.1,.18v.05c-.03,.08-.05,.17-.08,.28-.19,.85-.23,3.45-.23,3.45-.02,.42-.04,.84-.06,1.26-.02,.37-.06,.74-.07,1.12-.04,1.39,.01,2.78,.2,4.16v.19c0,.18-.05,.36,.03,.53,.05,.49,.09,.98,.15,1.47,.03,.25,.08,.51,.12,.76,.12,.7,.19,1.4,.43,2.07,.15,.9,.37,1.78,.71,2.64,.6,1.44,.99,2.97,1.59,4.42,.85,2.05,1.59,4.15,2.66,6.1,.16,.29,.28,.62,.54,.86,.19,.31,.36,.63,.63,.88,.25,.52,.67,.88,1.09,1.23,2.63-1.26,11.89-5.71,16.88-8.6,4.26-2.46,9.52-7.74,12.08-10.44Z"/></g></svg>