<?xml version="1.0" encoding="UTF-8"?><svg id="_圖層_2" xmlns="http://www.w3.org/2000/svg" viewBox="0 0 452.03 95.73"><defs><style>.cls-1{stroke:#000;stroke-linecap:round;stroke-linejoin:round;}</style></defs><g id="_圖層_1-2"><g><path class="cls-1" d="M65.86,42.69c-2.3,0-4.17,1.88-4.17,4.17v17.89c0,2.3,1.88,4.17,4.17,4.17s4.17-1.88,4.17-4.17v-17.89c0-2.3-1.88-4.17-4.17-4.17Z"/><path class="cls-1" d="M49.04,14.07h-.5c-2.16,0-3.93,1.77-3.93,3.93l.52,2.82c2.68,14.62,2.51,29.63-.52,44.18,0,2.16,1.77,3.93,3.93,3.93h.5c2.16,0,3.93-1.77,3.93-3.93V18c0-2.16-1.77-3.93-3.93-3.93Z"/><path class="cls-1" d="M90.69,41.26c-8.33-.78-15.36,5.78-15.36,13.95v10.43c0,1.81,1.47,3.28,3.28,3.28s3.28-1.47,3.28-3.28v-10.43c0-4.43,3.89-7.97,8.43-7.39,3.76,.48,6.47,3.86,6.47,7.65v10.17c0,1.81,1.47,3.28,3.28,3.28s3.28-1.47,3.28-3.28v-10.02c0-7.29-5.4-13.68-12.66-14.36Z"/><path class="cls-1" d="M134.06,46.27c-.56,0-1.09,.14-1.57,.38-2.61-2.8-6.28-4.55-10.36-4.55-7.89,0-14.31,6.55-14.31,14.59s6.42,14.59,14.31,14.59c3.12,0,5.99-1.03,8.35-2.76v11.14h-.02c-.16,3.96-3.3,7.13-7.14,7.13-3.06,0-5.68-2.01-6.69-4.83-.5-1.39-1.85-2.29-3.33-2.29-2.43,0-4.23,2.39-3.41,4.68,2,5.59,7.26,9.6,13.43,9.6,6.89,0,12.65-5,13.99-11.63,.2-.45,.32-.94,.32-1.45v-31.01c0-1.97-1.61-3.58-3.58-3.58Zm-11.93,17.86c-3.95,0-7.16-3.34-7.16-7.44s3.21-7.44,7.16-7.44,7.16,3.34,7.16,7.44-3.21,7.44-7.16,7.44Z"/><path class="cls-1" d="M32.18,39.52c3.25-2.84,5.29-6.82,5.29-11.22,0-8.61-7.76-15.62-17.29-15.62-4.12,0-7.9,1.31-10.87,3.49-.82-1.26-2.23-2.11-3.84-2.11h-.39c-2.52,0-4.58,2.06-4.58,4.58l1.11,5.49c1.95,9.68,2.15,19.63,.61,29.38l-1.72,10.84c0,2.52,2.06,4.58,4.58,4.58h.39c1.82,0,3.39-1.08,4.12-2.63,3.33,2.5,7.64,4.01,12.35,4.01,10.5,0,19.05-7.5,19.05-16.72,0-5.91-3.52-11.1-8.81-14.07Zm-12-19.68c5.59,0,10.14,3.8,10.14,8.46s-4.55,8.46-10.14,8.46-10.14-3.8-10.14-8.46,4.55-8.46,10.14-8.46Zm1.76,43.31c-6.56,0-11.9-4.29-11.9-9.56s5.34-9.56,11.9-9.56,11.9,4.29,11.9,9.56-5.34,9.56-11.9,9.56Z"/><path class="cls-1" d="M218.21,42.69c-2.3,0-4.17,1.88-4.17,4.17v17.89c0,2.3,1.88,4.17,4.17,4.17s4.17-1.88,4.17-4.17v-17.89c0-2.3-1.88-4.17-4.17-4.17Z"/><path class="cls-1" d="M201.39,14.07h-.5c-2.16,0-3.93,1.77-3.93,3.93l.52,2.82c2.68,14.62,2.51,29.63-.52,44.18,0,2.16,1.77,3.93,3.93,3.93h.5c2.16,0,3.93-1.77,3.93-3.93V18c0-2.16-1.77-3.93-3.93-3.93Z"/><path class="cls-1" d="M243.04,41.26c-8.33-.78-15.36,5.78-15.36,13.95v10.43c0,1.81,1.47,3.28,3.28,3.28s3.28-1.47,3.28-3.28v-10.43c0-4.43,3.89-7.97,8.43-7.39,3.76,.48,6.47,3.86,6.47,7.65v10.17c0,1.81,1.47,3.28,3.28,3.28s3.28-1.47,3.28-3.28v-10.02c0-7.29-5.4-13.68-12.66-14.36Z"/><path class="cls-1" d="M286.41,46.27c-.56,0-1.09,.14-1.57,.38-2.61-2.8-6.28-4.55-10.36-4.55-7.89,0-14.31,6.55-14.31,14.59s6.42,14.59,14.31,14.59c3.12,0,5.99-1.03,8.35-2.76v11.14h-.02c-.16,3.96-3.3,7.13-7.14,7.13-3.06,0-5.68-2.01-6.69-4.83-.5-1.39-1.85-2.29-3.33-2.29-2.43,0-4.23,2.39-3.41,4.68,2,5.59,7.26,9.6,13.43,9.6,6.89,0,12.65-5,13.99-11.63,.2-.45,.32-.94,.32-1.45v-31.01c0-1.97-1.61-3.58-3.58-3.58Zm-11.93,17.86c-3.95,0-7.16-3.34-7.16-7.44s3.21-7.44,7.16-7.44,7.16,3.34,7.16,7.44-3.21,7.44-7.16,7.44Z"/><path class="cls-1" d="M184.53,39.52c3.25-2.84,5.29-6.82,5.29-11.22,0-8.61-7.76-15.62-17.29-15.62-4.12,0-7.9,1.31-10.87,3.49-.82-1.26-2.23-2.11-3.84-2.11h-.39c-2.52,0-4.58,2.06-4.58,4.58l1.11,5.49c1.95,9.68,2.15,19.63,.61,29.38l-1.72,10.84c0,2.52,2.06,4.58,4.58,4.58h.39c1.82,0,3.39-1.08,4.12-2.63,3.33,2.5,7.64,4.01,12.35,4.01,10.5,0,19.05-7.5,19.05-16.72,0-5.91-3.52-11.1-8.81-14.07Zm-12-19.68c5.59,0,10.14,3.8,10.14,8.46s-4.55,8.46-10.14,8.46-10.14-3.8-10.14-8.46,4.55-8.46,10.14-8.46Zm1.76,43.31c-6.56,0-11.9-4.29-11.9-9.56s5.34-9.56,11.9-9.56,11.9,4.29,11.9,9.56-5.34,9.56-11.9,9.56Z"/><path class="cls-1" d="M361.49,15.68h0l-13.34,1.2c-4.01,.36-8.07,.49-12.11,.42l6.8-9.47h0c1.44-2,.98-4.8-1.02-6.23l-.36-.26c-.97-.69-2.15-.97-3.33-.78-1.18,.19-2.21,.83-2.96,1.87l-8.7,14.37-17.73-1.13c-2.48,0-4.49,2.01-4.49,4.49v.39c0,2.48,2.01,4.49,4.49,4.49h12.54c-4.64,6.85-9.98,13.21-15.94,18.96l-.14,.16c-1.44,2-.98,4.8,1.02,6.23l.36,.26c.79,.56,1.7,.84,2.6,.84,1.39,0,2.76-.65,3.63-1.86l17.65-24.58h31.11c2.48,0,4.49-2.02,4.49-4.49v-.39c0-2.47-2.01-4.49-4.59-4.49Z"/><path class="cls-1" d="M352.79,64.84v-1.39c0-1.85-1.28-3.36-2.84-3.36h-14.5c-1.56,0-2.84,1.51-2.84,3.36v.61c0,1.85,1.28,3.36,2.84,3.36l1.95-.47c4.16-.99,8.45-.83,12.55,.47,1.56,.5,2.84-.67,2.84-2.58Z"/><path class="cls-1" d="M342.75,28.03c-6.85-.61-11.71,2.27-16.34,6.61s-6.42,9.14-6.71,15.97c-.28,6.47-.16,15.79-.25,22.55-.04,2.69,1.74,4.23,4.09,4.25,2.35,.02,4.06-1.4,4.18-4.15,.25-5.67,.16-12.77,.25-18.86,.09,0,.17,.03,.26,.03h17.19c1.85,0,3.36-1.51,3.36-3.36v-.61c0-1.85-1.51-3.36-3.36-3.36l-2.31,.47c-4.85,.98-9.86,.83-14.65-.41,.57-2.71,1.78-4.81,3.88-6.69,2.91-2.61,6.15-5.03,10.37-4.1,8.16,1.8,13.88,3.5,14.73,15.07,.98,13.47-.38,26.49-12.99,36.16-3.24,2.49-1.7,4.36-.06,6.25,1.64,1.89,3.09,1.99,6.18-.52,1.44-1.17,2.94-2.66,4.42-4.37,5.93-6.87,9.4-15.51,10.26-24.54,.43-4.55,.82-8.72,.52-12.51-1.16-14.37-9.79-22.7-23.02-23.87Z"/><path class="cls-1" d="M447.18,45.4c0-.06-.02-.15-.02-.21,.11-2.79-1.91-4.1-3.48-4.2-.06,0-.11,0-.16-.01-.06,0-.13,0-.23,.02-1.11,.06-4.88,.74-6.12,.88-5.13,.58-9.28,.53-14.23-.24-1.18-.18-2.69-.69-3.96-.68-1.94,0-3.09,1.79-3.39,4.08,0,.05-.03,.16-.02,.21,.37,2.15,.66,4.21,3.01,4.22,7.89,.03,16.58,.43,24.53,.21,2.37-.06,3.62-1.59,4.07-4.26Z"/><path class="cls-1" d="M407.06,31.78c.43-.43,.74-.96,.94-1.52,.86-.75,1.41-1.83,1.41-3.05,0-2.24-1.82-4.07-4.09-4.07h0l-5.64,.51c-3.81,.35-7.67,.34-11.48,0l-5.54-.51c-2.24,0-4.07,1.83-4.07,4.07s1.83,4.07,4.07,4.07h14.34c-5.19,6.07-10.96,11.66-17.19,16.64l-1.93,1.55c-.77,.77-1.19,1.79-1.19,2.88s.42,2.11,1.19,2.88c.76,.77,1.79,1.19,2.88,1.19s2.11-.42,2.88-1.19l7.65-7.65c.7,8.33,.44,16.73-.8,25.01v.04c0,2.19,1.73,3.97,3.87,3.97h.39c2.14,0,3.88-1.78,3.88-3.97V40.23l8.45-8.45Z"/><path class="cls-1" d="M394.97,16.28c3.01-.06,5.81-.9,5.75-4.16-.06-3.26-2.63-6.36-6.08-6.86-3.45-.5-6.88,1.68-6.81,5.43,.07,3.75,4.13,5.65,7.14,5.59Z"/><path class="cls-1" d="M407.16,45.83c-2.01-.84-4.12-1.1-5.03,1.08s-.11,4.99,2.03,6.33c2.14,1.34,5.06,.9,6.11-1.61,1.05-2.51-1.09-4.96-3.1-5.79Z"/><path class="cls-1" d="M424.24,36.67h12.96c7.9,0,14.33-6.43,14.33-14.33s-5.81-13.68-13.17-14.27l.21-2.47c0-1.65-1.34-2.99-2.99-2.99s-2.99,1.34-2.99,2.99v2.41h-3.81v-2.41c0-1.65-1.34-2.99-2.99-2.99s-2.99,1.34-2.99,3.01l.21,2.45c-7.33,.62-13.11,6.78-13.11,14.27,0,7.9,6.43,14.33,14.33,14.33Zm-7.36-10.66l5.96-.46-.41,4.46c-2.4-.47-4.44-1.96-5.55-4Zm15.85,4.16h-4.08v-5.04c1.36-.08,2.72-.08,4.08,0v5.05Zm6.22-.15l-.41-4.52,6.07,.43c-1.12,2.1-3.19,3.63-5.65,4.09Zm4.59-12.81c.42,.48,.77,.99,1.05,1.54l-6.36,.47c-.01-1.54,.03-3.08,.11-4.62,1.99,.17,3.86,1.1,5.2,2.62Zm-10.81-3.2v5.52c-1.36,.03-2.73,0-4.08-.07v-5.44c1.36-.07,2.72-.07,4.08,0Zm-9.69,.59c.08,1.5,.12,2.99,.11,4.49l-6.26-.43c.28-.51,.61-1,1.01-1.45,1.32-1.5,3.17-2.43,5.14-2.62Z"/><path class="cls-1" d="M445.39,75.07c-.6,.39-.15,.11-.15,.11-1.09,.91-1.97,2.47-2.82,3.32-6.73,6.75-14.88,5.7-22.22,.44-.91-.65-2.15-2.29-3.03-2.72-1.7-.85-4.13-.86-4.84,1.22s-1.48,2.97,1.6,5.09c12.84,8.83,23.46,9.04,35.28-1.57,2.84-2.55,1.61-2.77,.93-4.92-.68-2.15-3.96-1.49-4.75-.97Z"/><g><path class="cls-1" d="M58.18,26.01c-.62-.7-1.8-.82-2.2-1.94-.22-.6-.19-1.18-.08-1.76,.07-.36,.36-.57,.77-.6,.5-.04,1-.1,1.49-.16,.05,0,.13-.04,.14-.02,.51,.96,1.68,.28,2.33,.95,.62,.64,1.36,1.16,1.77,1.98,.13,.26,.38,.57,.54,.66,.47,.27,.21,.56,.06,.7-.41,.38-.8,.71-1.41,.92-1.35,.46-2.29-.17-3.41-.74Z"/><path class="cls-1" d="M63.48,17.71c.28-.32,.43-.86,.86-.91,.78-.09,1.61-.4,2.36,.2,.28,.22,.44,.4,.41,.79-.07,.96-.07,1.92-.12,2.88-.06,1.03-.68,1.85-1.09,2.73-.22,.47-.84,.52-1.37,.2-.89-.53-1.32-1.33-1.38-2.32-.05-.79-.06-1.59-.03-2.38,.01-.42,.04-.86,.36-1.2Z"/><path class="cls-1" d="M73.91,21.68c-.62,1.32-1.67,2.32-2.74,3.3-.23,.21-.47,.11-.71,.08-1.29-.15-1.64-1.17-.95-2.31,.64-1.06,1.46-1.99,2.11-3.04,.45-.73,1.1-.96,1.88-.97,.56-.01,1.25,1.16,1.04,1.72-.16,.42-.32,.84-.62,1.22Zm.55-1.91s.05-.01,.07-.02c-.02-.03-.03-.07-.06-.09,0,0-.04,0-.06,.01,.02,.03,.04,.06,.05,.1Z"/><path class="cls-1" d="M67.71,33.37c-.81-.73-.93-1.57-.43-2.52,.94-.75,1.74-.12,2.54,.27,1.31,.64,2.33,1.7,3.54,2.49,.44,.28,.51,.81,.43,1.28-.07,.42-.4,.52-.87,.55-1.3,.08-2.39-.35-3.43-1.04-.57-.38-1.05-.94-1.79-1.03Z"/><path class="cls-1" d="M56.53,32.33c.77-1.21,1.7-1.99,2.76-2.62,.4-.24,.84-.34,1.28-.09,.21,.12,.41,.18,.64,.06,.47-.24,.6,.19,.8,.44,.27,.33,0,.59-.21,.77-.27,.23-.45,.46-.62,.78-.74,1.39-1.94,2.35-3.24,3.21-.79,.53-1.23-.01-1.72-.45-.52-.47-.38-.99-.11-1.5,.14-.26,.34-.49,.42-.59Z"/><path class="cls-1" d="M65.37,31.02s.04,.1,.07,.13c1.25,1.28,1.43,2.61,.57,4.19-.07,.13-.17,.28-.17,.41,0,1.13-.9,1.6-1.6,2.2-.49,.42-1.37-.01-1.55-.65-.23-.84,.1-1.68-.02-2.52,.43-1.13,.82-2.29,1.54-3.28,.3-.41,.58-.77,1.15-.48Z"/><path class="cls-1" d="M69.54,28.74c-.14-.12-.44-.28-.31-.7,.19-.63,.58-1.1,1.25-1.07,1.15,.05,2.28-.16,3.45,.11,.55,.13,1.16,.28,1.75,.35,.19,.03,.49,.05,.49,.37,0,.3,.04,.68-.22,.83-1.06,.63-2.2,1.05-3.45,.89-.97-.12-1.96-.21-2.95-.79Z"/><path class="cls-1" d="M74.46,19.77s-.04-.06-.05-.1c.02,0,.06-.02,.06-.01,.03,.02,.04,.06,.06,.09-.02,0-.04,.01-.07,.02Z"/></g><g><path class="cls-1" d="M210.18,26.01c-.62-.7-1.8-.82-2.2-1.94-.22-.6-.19-1.18-.08-1.76,.07-.36,.36-.57,.77-.6,.5-.04,1-.1,1.49-.16,.05,0,.13-.04,.14-.02,.51,.96,1.68,.28,2.33,.95,.62,.64,1.36,1.16,1.77,1.98,.13,.26,.38,.57,.54,.66,.47,.27,.21,.56,.06,.7-.41,.38-.8,.71-1.41,.92-1.35,.46-2.29-.17-3.41-.74Z"/><path class="cls-1" d="M215.48,17.71c.28-.32,.43-.86,.86-.91,.78-.09,1.61-.4,2.36,.2,.28,.22,.44,.4,.41,.79-.07,.96-.07,1.92-.12,2.88-.06,1.03-.68,1.85-1.09,2.73-.22,.47-.84,.52-1.37,.2-.89-.53-1.32-1.33-1.38-2.32-.05-.79-.06-1.59-.03-2.38,.01-.42,.04-.86,.36-1.2Z"/><path class="cls-1" d="M225.91,21.68c-.62,1.32-1.67,2.32-2.74,3.3-.23,.21-.47,.11-.71,.08-1.29-.15-1.64-1.17-.95-2.31,.64-1.06,1.46-1.99,2.11-3.04,.45-.73,1.1-.96,1.88-.97,.56-.01,1.25,1.16,1.04,1.72-.16,.42-.32,.84-.62,1.22Zm.55-1.91s.05-.01,.07-.02c-.02-.03-.03-.07-.06-.09,0,0-.04,0-.06,.01,.02,.03,.04,.06,.05,.1Z"/><path class="cls-1" d="M219.71,33.37c-.81-.73-.93-1.57-.43-2.52,.94-.75,1.74-.12,2.54,.27,1.31,.64,2.33,1.7,3.54,2.49,.44,.28,.51,.81,.43,1.28-.07,.42-.4,.52-.87,.55-1.3,.08-2.39-.35-3.43-1.04-.57-.38-1.05-.94-1.79-1.03Z"/><path class="cls-1" d="M208.53,32.33c.77-1.21,1.7-1.99,2.76-2.62,.4-.24,.84-.34,1.28-.09,.21,.12,.41,.18,.64,.06,.47-.24,.6,.19,.8,.44,.27,.33,0,.59-.21,.77-.27,.23-.45,.46-.62,.78-.74,1.39-1.94,2.35-3.24,3.21-.79,.53-1.23-.01-1.72-.45-.52-.47-.38-.99-.11-1.5,.14-.26,.34-.49,.42-.59Z"/><path class="cls-1" d="M217.37,31.02s.04,.1,.07,.13c1.25,1.28,1.43,2.61,.57,4.19-.07,.13-.17,.28-.17,.41,0,1.13-.9,1.6-1.6,2.2-.49,.42-1.37-.01-1.55-.65-.23-.84,.1-1.68-.02-2.52,.43-1.13,.82-2.29,1.54-3.28,.3-.41,.58-.77,1.15-.48Z"/><path class="cls-1" d="M221.54,28.74c-.14-.12-.44-.28-.31-.7,.19-.63,.58-1.1,1.25-1.07,1.15,.05,2.28-.16,3.45,.11,.55,.13,1.16,.28,1.75,.35,.19,.03,.49,.05,.49,.37,0,.3,.04,.68-.22,.83-1.06,.63-2.2,1.05-3.45,.89-.97-.12-1.96-.21-2.95-.79Z"/><path class="cls-1" d="M226.46,19.77s-.04-.06-.05-.1c.02,0,.06-.02,.06-.01,.03,.02,.04,.06,.06,.09-.02,0-.04,.01-.07,.02Z"/></g><path class="cls-1" d="M419.61,56.54c1.63-1.88,4.24-2.92,6.68-2.48s4.52,2.1,4.92,4.56c.4-2.45,2.47-4.12,4.92-4.56,2.45-.44,5.05,.61,6.68,2.48,1.76,2.03,2.39,4.99,1.61,7.56-.42,1.38-1.21,2.62-2.12,3.75-1.43,1.78-3.17,3.3-5.12,4.49-1.94,1.18-3.86,1.94-5.98,2.78-2.12-.83-4.04-1.59-5.98-2.78-1.95-1.19-3.69-2.72-5.12-4.49-.9-1.12-1.69-2.37-2.12-3.75-.79-2.57-.16-5.53,1.61-7.56Z"/></g></g></svg>