<?xml version="1.0" encoding="UTF-8"?><svg id="_層_2" xmlns="http://www.w3.org/2000/svg" xmlns:xlink="http://www.w3.org/1999/xlink" viewBox="0 0 587 374.58"><defs><style>.cls-1{fill:none;}.cls-2{clip-path:url(#clippath);}.cls-3{fill:#f85b00;}.cls-4{fill:#0076cb;}.cls-5{fill:#00807e;}.cls-6{fill:#ffc880;}.cls-7{fill:#ffb128;}.cls-8{fill:#d4cfc6;}.cls-9{fill:#e28092;}.cls-10{fill:#3a80a2;}.cls-11{fill:#5be5e7;}.cls-12{opacity:.63;}</style><clipPath id="clippath"><path class="cls-1" d="M587,10c0-5.52-4.48-10-10-10H10C4.48,0,0,4.48,0,10V374.58H587V10Z"/></clipPath></defs><g id="_層_2-2"><g id="_層_1-2"><g id="_層_2-2"><g id="_層_2-2-2"><path class="cls-5" d="M587,10c0-5.52-4.48-10-10-10H10C4.48,0,0,4.48,0,10V374.58H587V10Z"/><g class="cls-12"><g class="cls-2"><g><path class="cls-7" d="M245.8,162.32c.55,.74,.89,1.16,1.18,1.62,2.05,3.23,5.08,6.06,5.86,9.83,.83,4.03,1.8,7.97,2.74,11.94,.93,3.88,2.24,7.9-.62,12.32-.61,.94,0,2.91,.06,4.4,.2,4.56-.15,9.02-1.7,13.62-2.42,7.19-5.55,14-8.93,20.67-2.55,5.05-6.39,8.85-10.2,12.59-2.33,2.28-4.8,4.39-6.98,6.86-5.94,6.73-12.26,11.68-20.48,12.58-3.44,.38-6.93,3.23-11.71,5.61-4.94-.46-11.3-1.2-17.71-1.63-6.25-.41-11.75-2.64-17.34-5.39-7.95-3.92-13.91-10.8-21.07-15.83-2.6-4.84-8.05-6.8-9.18-13.14-5.65-6.93-7.88-16.58-12.35-24.46-.79-1.4-1.08-3.3-1.41-5.04-.82-4.37-1.68-8.74-2.24-13.2-.29-2.33,0-4.85,.07-7.29,.06-2.1,.2-4.21,.29-6.32,.04-.92-.27-2.07,.11-2.73,2.04-3.55,2.54-7.45,3.56-11.3,.95-3.57,2.84-6.97,4.53-10.3,.83-1.62,2.1-3.02,3.28-4.37,3.57-4.1,7.15-8.2,10.83-12.15,2.46-2.63,5.08-4.73,8.46-5.47,3.87-.85,7.67-2.72,11.53-3.81,4.68-1.32,9.38-2.27,13.35,1.1,2.73,2.32,6.17,.77,9.07,.09,3.58-.84,6.71-1.19,9.78,.61,.85,.5,1.95,.65,2.97,.66,8.75,.15,16.36,3.59,23.67,8.04,1.73,1.05,3.69,1.65,5.57,2.41,.69,.28,1.83,.13,2.1,.68,2.46,4.95,7.55,5.15,11.22,7.89,.2,.15,.43,.37,.51,.62,1.84,6.13,6.71,7.19,11.15,8.27l.03,.02h0Z"/><path class="cls-8" d="M207.75,150.73c-.97,1.95-1.47,3.12-2.12,4.24-4.57,7.8-7.22,17.23-14.3,22.95-7.55,6.1-14.78,12.4-22.11,18.7-7.15,6.15-14.16,13.26-26.55,12.03-2.63-.26-6.11,3.14-9.16,4.89-9.36,5.37-19.09,9.45-30.44,11.19-17.72,2.71-35.4,3.49-53.08,3.64-13.37,.11-25.5-3.83-37.48-7.79-7.32-2.42-14.42-5.32-21.96-7.22-20.56-5.19-37.81-13.09-48.6-29.39-4.51-6.81-14.29-11.06-24.46-18.53-4.37-10.88-9.72-25.04-15.77-38.96-5.9-13.57-7.19-27.52-7.46-42.24-.38-20.94,7.61-40.91,10.43-61.38,7.35-10.71,5.56-24.26,17.64-33.49,8.44-19.38,26.28-34.5,38-52.42,2.09-3.19,5.76-5.84,9.06-8.42,8.29-6.46,16.54-12.99,25.3-18.99,4.58-3.14,10.18-5.25,15.38-7.74,4.48-2.14,9.06-4.15,13.57-6.24,1.98-.92,4.05-2.8,5.85-2.72,9.66,.44,18.41-2.73,27.58-4.76,8.52-1.88,17.7-1.59,26.54-1.63,4.3-.02,8.61,1.13,12.74,2.15,12.47,3.07,24.96,6.13,37.24,9.59,8.19,2.31,15.43,5.54,20.65,11.84,5.96,7.2,14.01,13.16,20.49,20.09,7.85,8.39,14.93,17.23,12.14,29.24-1.92,8.24,5.08,13.8,9.63,19.14,5.63,6.62,9.76,12.81,9.32,21.2-.12,2.34,.75,4.79,1.82,6.95,9.16,18.52,10.17,38.24,8.74,58.4-.34,4.77,.54,9.54,.98,14.29,.16,1.76,1.71,3.97,.85,5.15-7.74,10.53-2.63,21.44-4.41,32.1-.1,.6-.3,1.3-.76,1.74-10.87,10.5-7.82,21.87-5.3,32.38v.02h.01Z"/><path class="cls-10" d="M234.58-78.63c2.29,.28,5.44,2.62,8.4,5.88,3.21,3.53,7.03,6.56,10.83,9.48,3.73,2.87,5.91,6.41,7.4,10.9,2.42,7.27,4.21,14.54,5.27,22.18,.83,5.99-.32,11.55-.99,17.19-.85,7.23-3.06,14.27-5.29,21.24-1,3.12-2.48,5.82-4.71,8.29-1.91,2.12-3.57,4.67-4.62,7.31-2.6,6.54-7.41,10.21-13.9,12.26-6.4,2.02-12.81,4.05-19.02,6.54-3.05,1.22-5.63,.75-8.37-.27-3.59-1.34-7.08-3.03-10.75-4.07-5.37-1.52-9.73-4.86-14.17-7.84-4.41-2.96-9.67-5.29-12.05-10.66-5.56-1.52-6.41-6.47-8.11-10.9-.91-2.38-2.39-4.53-3.57-6.81-2.71-5.22-3.83-10.76-3.33-16.63,.43-5.05-2.08-9.94-.64-15.09,1.38-4.93,2.36-9.97,3.75-14.89,.41-1.46,1.36-2.96,2.47-4.01,2.64-2.49,4.55-5.35,5.86-8.73,2.08-5.37,7.74-7.44,11.09-11.68,.96-1.22,2.55-1.93,3.78-2.95,2.69-2.23,5.01-5.53,8.09-6.54,4.74-1.54,9.98-1.57,15.01-2.13,1.26-.14,2.74,.56,3.8,.12,3.76-1.57,7.65-.84,11.42-.74,3.45,.09,6.87,1.35,12.36,2.53v.02h0Z"/><path class="cls-6" d="M347.66,48.97c.98,.18,2.28,1.28,3.48,2.77,1.29,1.62,2.87,3.03,4.44,4.4,1.54,1.34,2.39,2.94,2.91,4.92,.85,3.22,1.43,6.41,1.69,9.75,.2,2.62-.45,4.99-.89,7.42-.56,3.11-1.71,6.1-2.86,9.06-.52,1.32-1.23,2.45-2.26,3.47-.88,.87-1.67,1.93-2.2,3.04-1.3,2.76-3.48,4.22-6.35,4.94-2.82,.7-5.66,1.41-8.42,2.32-1.35,.45-2.46,.17-3.62-.34-1.52-.68-2.99-1.5-4.55-2.05-2.29-.8-4.09-2.37-5.93-3.78-1.83-1.4-4.05-2.55-4.94-4.94-2.37-.81-2.6-2.97-3.22-4.94-.33-1.05-.91-2.03-1.36-3.05-1.03-2.33-1.37-4.77-1-7.29,.32-2.18-.64-4.36,.13-6.55,.73-2.1,1.29-4.25,2.02-6.35,.22-.62,.67-1.25,1.18-1.67,1.21-1.01,2.11-2.2,2.77-3.62,1.04-2.27,3.55-3.01,5.12-4.76,.45-.5,1.15-.77,1.72-1.18,1.23-.89,2.32-2.26,3.68-2.61,2.09-.54,4.36-.41,6.56-.52,.55-.03,1.17,.32,1.64,.15,1.67-.58,3.34-.16,4.96,0,1.49,.13,2.94,.77,5.29,1.43h0v-.02Z"/><path class="cls-5" d="M22.25,258.85c.88-2.7,2.58-5.35,4.71-7.37,3.4-3.21,5.88-6.91,7.58-11.3,2.3-5.95,6.85-9.56,10.87-12.75,2.35-1.87,4.57-3.63,6.21-5.7,1.33-1.69,2.99-2.79,4.45-3.75,.67-.45,1.31-.87,1.8-1.28,1.12-.93,2.24-2.05,3.42-3.23,2.77-2.78,5.92-5.92,10.03-7.26,5.67-1.85,11.59-2.34,17.33-2.81,1.92-.16,3.9-.32,5.8-.54,1.4-.16,2.68,.05,3.71,.22,.31,.05,.76,.12,1.02,.14,5.23-2.09,10.41-1.77,14.99-1.48,1.2,.07,2.33,.14,3.45,.17,3.89,.1,7.66,1.05,12.02,2.15,2.05,.52,4.36,1.1,6.94,1.66,5.79,.83,11.84,6.67,14.96,10.11,4.48,4.93,9.87,9.21,15.47,13.52,5.87,4.52,9.83,10.33,12.48,18.27,3.83,11.51,6.44,22.52,7.99,33.65,1.08,7.73,.11,14.86-.82,21.76-.22,1.61-.44,3.22-.63,4.84-1.35,11.47-4.89,22.54-8.02,32.3-.03,.09-.06,.17-.08,.26-1.71,5.24-4.27,9.7-7.83,13.65-2.58,2.87-4.72,6.24-6.02,9.5-4.1,10.3-11.75,17.09-23.39,20.76-8.7,2.74-18.55,5.85-27.87,9.58-6.21,2.49-11.38,1.21-15.61-.37-1.94-.72-3.85-1.51-5.7-2.27-3.39-1.4-6.6-2.71-9.88-3.64-7.54-2.13-13.63-6.3-19.52-10.34-.92-.63-1.83-1.25-2.74-1.87-1.2-.81-2.45-1.58-3.77-2.4-5.27-3.27-11.19-6.95-14.76-13.44-7.67-3-10.05-9.81-11.99-15.36-.33-.95-.66-1.9-1.02-2.83-.76-1.98-1.89-3.94-3.08-6.02-.67-1.16-1.36-2.37-2.01-3.61-4.4-8.48-6.22-17.58-5.41-27.06,.22-2.64-.24-5.43-.73-8.39-.73-4.44-1.57-9.46-.08-14.78,.99-3.53,1.86-7.21,2.71-10.77,.88-3.7,1.79-7.53,2.85-11.3l.18-.6v-.02h0Zm147.21,78.81c.02-.07,.05-.14,.07-.21,3-9.38,6.4-20.01,7.65-30.63,.2-1.67,.42-3.33,.65-4.99,.89-6.59,1.73-12.82,.83-19.34-1.47-10.58-3.97-21.07-7.62-32.07-2.09-6.27-5-10.6-9.46-14.03-5.92-4.56-11.65-9.11-16.62-14.58-4.29-4.72-8.02-7.09-9.68-7.29l-.41-.07c-2.8-.61-5.25-1.22-7.41-1.77-4.01-1.01-7.18-1.81-10.08-1.89-1.27-.03-2.54-.11-3.76-.19-4.06-.25-7.9-.49-11.32,.94-2.07,.87-4.09,.54-5.57,.3-.43-.07-1.07-.17-1.3-.16-2.02,.23-4.07,.4-6.05,.56-5.46,.45-10.63,.88-15.3,2.4-2.08,.68-4.22,2.82-6.49,5.09-1.28,1.28-2.59,2.6-4.04,3.79-.86,.71-1.76,1.31-2.56,1.84-.99,.66-1.93,1.28-2.39,1.86-2.28,2.88-5.01,5.05-7.66,7.15-3.58,2.84-6.68,5.3-8.11,8.99-2.19,5.66-5.38,10.42-9.77,14.56-1.1,1.04-2.06,2.58-2.44,3.91-1.01,3.59-1.9,7.33-2.76,10.95-.86,3.64-1.76,7.4-2.79,11.11-.96,3.42-.35,7.07,.29,10.93,.56,3.37,1.13,6.85,.82,10.6-.66,7.78,.83,15.25,4.45,22.21,.56,1.08,1.17,2.15,1.82,3.28,1.31,2.28,2.66,4.63,3.67,7.26,.4,1.04,.76,2.08,1.11,3.09,2.02,5.79,3.39,9.12,7.92,10.36l2.03,.56,.86,1.93c2.29,5.16,7.12,8.16,12.23,11.33,1.33,.83,2.71,1.68,4.04,2.58,.94,.63,1.87,1.27,2.81,1.91,5.54,3.8,10.77,7.38,16.91,9.11,3.78,1.07,7.37,2.55,10.85,3.98,1.87,.77,3.63,1.49,5.43,2.16,3.89,1.45,6.39,1.57,9.2,.44,9.63-3.86,19.65-7.02,28.5-9.81,9.06-2.86,14.71-7.8,17.8-15.57,1.7-4.28,4.35-8.48,7.67-12.17,2.74-3.04,4.64-6.37,5.98-10.45v.04h0Z"/><path class="cls-3" d="M484.87,56.42c.32-.06,.85,.11,1.39,.42,.59,.33,1.23,.57,1.87,.8,.63,.22,1.08,.6,1.47,1.14,.64,.87,1.2,1.77,1.68,2.75,.38,.77,.46,1.57,.62,2.35,.2,1.01,.22,2.05,.22,3.09,0,.46-.08,.89-.27,1.32-.16,.37-.27,.78-.3,1.19-.06,.99-.55,1.7-1.33,2.26-.77,.55-1.54,1.11-2.27,1.72-.36,.3-.72,.35-1.14,.33-.54-.02-1.08-.1-1.62-.07-.79,.03-1.52-.23-2.25-.43-.72-.2-1.53-.29-2.09-.9-.81,.04-1.15-.59-1.57-1.11-.23-.28-.52-.5-.78-.76-.59-.58-.99-1.28-1.18-2.09-.16-.7-.72-1.25-.75-2-.03-.72-.12-1.44-.15-2.17,0-.21,.05-.46,.16-.65,.25-.45,.38-.92,.4-1.43,.04-.81,.71-1.34,.98-2.06,.08-.21,.26-.37,.38-.56,.26-.42,.43-.96,.8-1.23,.57-.42,1.27-.65,1.92-.95,.16-.07,.39-.04,.52-.15,.44-.38,.99-.45,1.5-.6,.47-.14,.98-.12,1.77-.2h.02Z"/><path class="cls-11" d="M431.95,193.38c-.32,.06-.85-.11-1.39-.42-.59-.33-1.23-.57-1.87-.8-.63-.22-1.08-.6-1.47-1.14-.64-.87-1.2-1.77-1.68-2.75-.38-.77-.46-1.57-.62-2.35-.2-1.01-.22-2.05-.22-3.09,0-.46,.08-.89,.27-1.32,.16-.37,.27-.78,.3-1.19,.06-.99,.55-1.7,1.33-2.26,.77-.55,1.54-1.11,2.27-1.72,.36-.3,.72-.35,1.14-.33,.54,.02,1.08,.1,1.62,.07,.79-.03,1.52,.23,2.25,.43,.72,.2,1.53,.29,2.09,.9,.81-.04,1.15,.59,1.57,1.11,.23,.28,.52,.5,.78,.76,.59,.58,.99,1.28,1.18,2.09,.16,.7,.72,1.25,.75,2,.03,.72,.12,1.44,.15,2.17,0,.21-.05,.46-.16,.65-.25,.45-.38,.92-.4,1.43-.04,.81-.71,1.34-.98,2.06-.08,.21-.26,.37-.38,.56-.26,.42-.43,.96-.8,1.23-.57,.42-1.27,.65-1.92,.95-.16,.07-.39,.04-.52,.15-.44,.38-.99,.45-1.5,.6-.47,.14-.98,.12-1.77,.2h-.02Z"/><path class="cls-10" d="M419.99,264.24c3.18-.63,8.42,1.13,13.8,4.19,5.83,3.32,12.27,5.69,18.63,7.95,6.25,2.21,10.71,5.99,14.67,11.34,6.42,8.67,11.98,17.6,16.75,27.35,3.73,7.64,4.62,15.59,6.2,23.42,2.02,10.04,2.15,20.42,2.21,30.71,.03,4.61-.77,8.86-2.67,13.15-1.63,3.67-2.73,7.8-2.98,11.8-.62,9.88-5.44,16.89-13.23,22.47-7.67,5.49-15.35,11.02-22.58,17.07-3.54,2.96-7.2,3.46-11.32,3.3-5.39-.22-10.79-.96-16.16-.74-7.85,.32-15.14-2.24-22.38-4.29-7.19-2.03-15.24-2.85-20.78-8.98-8.1,.4-11.4-5.85-15.61-11.03-2.26-2.78-5.18-5.02-7.75-7.55-5.9-5.8-9.82-12.72-11.72-20.78-1.63-6.94-7.14-12.39-7.46-19.89-.31-7.19-1.2-14.36-1.5-21.55-.09-2.14,.53-4.55,1.56-6.44,2.44-4.49,3.74-9.15,4.01-14.24,.43-8.09,7.09-13.33,9.72-20.46,.75-2.05,2.56-3.69,3.77-5.6,2.63-4.16,4.28-9.59,7.96-12.28,5.66-4.13,12.66-6.46,19.15-9.42,1.62-.74,3.91-.45,5.14-1.51,4.34-3.75,9.87-4.47,14.94-5.98,4.65-1.39,9.78-1.2,17.64-2.02h-.01Z"/><path class="cls-9" d="M579.59,92.55c4.15-.82,11,1.47,18.03,5.48,7.62,4.34,16.03,7.44,24.34,10.38,8.16,2.89,13.99,7.82,19.17,14.82,8.38,11.33,15.65,22.99,21.88,35.74,4.88,9.98,6.04,20.36,8.1,30.59,2.64,13.11,2.81,26.67,2.89,40.12,.04,6.02-1.01,11.58-3.49,17.18-2.13,4.79-3.57,10.2-3.9,15.42-.81,12.9-7.11,22.07-17.29,29.36-10.02,7.18-20.06,14.4-29.5,22.3-4.63,3.87-9.41,4.53-14.79,4.31-7.04-.29-14.1-1.25-21.11-.96-10.26,.42-19.78-2.93-29.24-5.6-9.4-2.66-19.91-3.72-27.15-11.74-10.58,.52-14.89-7.64-20.39-14.41-2.95-3.63-6.76-6.56-10.13-9.86-7.71-7.57-12.84-16.62-15.31-27.15-2.13-9.07-9.32-16.18-9.75-25.99-.41-9.4-1.57-18.76-1.96-28.16-.12-2.79,.69-5.95,2.03-8.42,3.19-5.86,4.89-11.95,5.24-18.6,.56-10.57,9.27-17.41,12.7-26.73,.99-2.68,3.35-4.82,4.92-7.31,3.43-5.44,5.59-12.53,10.4-16.04,7.39-5.4,16.53-8.44,25.01-12.3,2.11-.96,5.11-.58,6.71-1.97,5.67-4.89,12.89-5.84,19.52-7.81,6.08-1.81,12.77-1.57,23.05-2.64h.02Z"/><path class="cls-7" d="M433.93,219.44c1.32-.26,3.49,.47,5.72,1.74,2.42,1.38,5.09,2.36,7.73,3.3,2.59,.92,4.44,2.48,6.08,4.7,2.66,3.6,4.97,7.3,6.94,11.34,1.55,3.17,1.92,6.46,2.57,9.71,.84,4.16,.89,8.47,.92,12.74,.01,1.91-.32,3.68-1.11,5.45-.67,1.52-1.13,3.24-1.24,4.89-.26,4.1-2.26,7.01-5.49,9.32-3.18,2.28-6.37,4.57-9.36,7.08-1.47,1.23-2.99,1.44-4.69,1.37-2.24-.09-4.48-.4-6.7-.31-3.26,.13-6.28-.93-9.28-1.78-2.98-.84-6.32-1.18-8.62-3.73-3.36,.16-4.73-2.43-6.47-4.57-.94-1.15-2.15-2.08-3.21-3.13-2.45-2.4-4.07-5.28-4.86-8.62-.68-2.88-2.96-5.14-3.09-8.25-.13-2.98-.5-5.96-.62-8.94-.04-.89,.22-1.89,.64-2.67,1.01-1.86,1.55-3.79,1.66-5.9,.18-3.35,2.94-5.53,4.03-8.49,.31-.85,1.06-1.53,1.56-2.32,1.09-1.73,1.78-3.98,3.3-5.09,2.35-1.71,5.25-2.68,7.94-3.9,.67-.31,1.62-.19,2.13-.62,1.8-1.55,4.09-1.85,6.2-2.48,1.93-.58,4.05-.5,7.32-.84h0Z"/><path class="cls-4" d="M564.64,259.81c.06,.32-.11,.85-.42,1.39-.33,.59-.57,1.23-.8,1.87-.22,.63-.6,1.08-1.14,1.47-.87,.64-1.77,1.2-2.75,1.68-.77,.38-1.57,.46-2.35,.62-1.01,.2-2.05,.22-3.09,.22-.46,0-.89-.08-1.32-.27-.37-.16-.78-.27-1.19-.3-.99-.06-1.7-.55-2.26-1.33-.55-.77-1.11-1.54-1.72-2.27-.3-.36-.35-.72-.33-1.14,.02-.54,.1-1.08,.07-1.62-.03-.79,.23-1.52,.43-2.25,.2-.72,.29-1.53,.9-2.09-.04-.81,.59-1.15,1.11-1.57,.28-.23,.5-.52,.76-.78,.58-.59,1.28-.99,2.09-1.18,.7-.16,1.25-.72,2-.75,.72-.03,1.44-.12,2.17-.15,.22,0,.46,.05,.65,.16,.45,.25,.92,.38,1.43,.4,.81,.04,1.34,.71,2.06,.98,.21,.08,.37,.26,.56,.38,.42,.26,.96,.43,1.23,.8,.42,.57,.65,1.27,.95,1.92,.07,.16,.04,.39,.15,.52,.38,.44,.45,.99,.6,1.5,.14,.47,.12,.98,.2,1.77v.02h0Z"/></g></g></g></g></g></g></g></svg>