<?xml version="1.0" encoding="UTF-8"?><svg id="_圖層_2" xmlns="http://www.w3.org/2000/svg" viewBox="0 0 55 55"><defs><style>.cls-1{fill:#fff;}.cls-2{stroke-miterlimit:10;}.cls-2,.cls-3{fill:#2d827d;stroke:#2d827d;}</style></defs><g id="_圖層_1-2"><g><circle class="cls-1" cx="27.5" cy="27.5" r="27.5"/><path class="cls-2" d="M16.66,32.34h18.51v-12.29H12.87c-.6,0-1.03,.54-.82,1.06l4.6,11.24Z"/><path class="cls-3" d="M34.98,20.66l6.43-6.63c.12-.12,.12-.32,0-.44h0s0,0,0,0h0c-.11-.11-.28-.11-.38,0l-6.45,6.66,.41,.42Z"/><path class="cls-3" d="M32.33,38.63c0,.73,.57,1.3,1.24,1.3s1.24-.57,1.24-1.3-.57-1.3-1.24-1.3-1.24,.57-1.24,1.3Z"/><path class="cls-3" d="M17.16,38.63c0,.73,.57,1.3,1.24,1.3s1.24-.57,1.24-1.3-.57-1.3-1.24-1.3-1.24,.57-1.24,1.3Z"/><path class="cls-3" d="M17.42,35.35h17.13c.13,0,.26-.11,.26-.29h0c0-.18-.13-.29-.26-.29H17.42c-.13,0-.26,.11-.26,.29h0c0,.18,.13,.29,.26,.29Z"/></g></g></svg>