<?xml version="1.0" encoding="UTF-8"?><svg id="_圖層_2" xmlns="http://www.w3.org/2000/svg" xmlns:xlink="http://www.w3.org/1999/xlink" viewBox="0 0 155.24 220.45"><defs><style>.cls-1{fill:#fff;stroke:#fff;stroke-linecap:round;stroke-linejoin:round;stroke-width:7px;}</style></defs><g id="_圖層_1-2"><g><g><path class="cls-1" d="M60.32,89.2c-.32-.07-.72,.06-1.09-.09-.96-.4-1.2-.82-1.07-2,.06-.58,.3-1.18,.21-1.73-.1-.68,.07-1.31,.12-1.95,.07-.89,.26-1.76,.36-2.64,.13-1.21,.08-2.44,.15-3.66,.09-1.73,.09-3.47,.41-5.18,.21-1.15,.58-2.26,.86-3.4,.36-1.43,.93-2.81,1.14-4.28,.03-.22,.2-.36,.27-.56,.34-.95,.5-1.97,.87-2.87,.4-.95,.76-1.94,1.2-2.88,.61-1.3,1.09-2.66,1.73-3.95,.9-1.81,1.94-3.56,2.85-5.37,.33-.66,.72-1.36,1.29-1.92,.43-.42,.52-1.08,.9-1.56,.85-1.06,1.5-2.26,2.39-3.31,.53-.63,1.09-1.3,1.63-1.91,.7-.8,1.53-1.53,2.28-2.32,.75-.8,1.42-1.65,2.07-2.53,.75-1.02,1.59-1.97,2.32-3,.63-.88,1.37-1.69,1.98-2.6,1.04-1.55,2.32-2.93,3.3-4.53,.1-.17,.19-.4,.42-.34,.28,.06,.22,.34,.23,.54,.04,1.14,.1,2.29,.31,3.41,.13,.7,.44,1.34,.73,2,.36,.82,.71,1.68,1.04,2.52,.5,1.27,1.18,2.43,1.91,3.58,.02,.03,.05,.08,.08,.09,.93,.29,1.18,1.22,1.7,1.88,.56,.7,1.18,1.34,1.77,2.01,.37,.42,.84,.75,1.23,1.16,.54,.56,1.05,1.16,1.57,1.73,.78,.86,1.46,1.81,2.42,2.51,.3,.22,.51,.57,.73,.87,.53,.73,1.06,1.43,1.96,1.73,.03,.01,.08,.04,.09,.07,.6,1.61,1.97,2.66,2.93,4.02,.57,.81,1.32,1.53,1.97,2.31,.78,.94,1.58,1.87,2.44,2.72,.93,.92,1.53,2.03,2.25,3.07,.49,.72,1,1.46,1.21,2.37,.1,.44,.52,.84,.57,1.31,.17,1.52,.52,3.01,.55,4.56,.02,1.19,.12,2.4,.18,3.6,.08,1.59-.12,3.18-1,4.58-.3,.48-.86,.7-1.32,1.02-.18,.13-.45,.2-.57,.39-.52,.8-1.35,.98-2.18,1.19-.26,.06-.59,.09-.73,.43-.05,.12-.18,.15-.3,.11-1.45-.52-2.84,.05-4.23,.29-1.04,.18-2.08,.47-3.08,.82-.82,.28-1.66,.18-2.47,.35-1.22,.25-2.45,.2-3.68,.26-1.07,.05-2.17-.06-3.21,.09-.85,.12-1.74,.18-2.6,.43-1.25,.38-2.59,.52-3.92,.47-.54-.02-1.1-.01-1.63,.06-1.64,.21-3.29,.2-4.93,.44-1.99,.29-3.84,1-5.72,1.65-.33,.11-.7,.1-.98,.36-.1,.09-.25,.15-.15,.32,.08,.13,.14,.22,.36,.2,.71-.06,1.39-.31,2-.6,.8-.38,1.67-.41,2.48-.71,.4-.15,.49-.66,.88-.64,.31,.02,.56,.24,.97,.2,1.79-.18,3.58-.37,5.38-.49,2.07-.14,4.16-.16,6.21-.69,1.31-.34,2.71-.34,4.09-.32,.83,.01,1.66-.03,2.48-.15,.59-.08,1.2-.09,1.8-.11,1.14-.03,2.22-.36,3.32-.59,.15-.03,.21-.16,.26-.29,.04-.12,.14-.25,.25-.2,.84,.37,1.57-.17,2.35-.29,1.15-.17,2.3-.26,3.45-.4,1.49-.18,2.87-.74,4.18-1.42,.63-.32,1.18-.43,1.8-.03,1.03,.66,2.03,1.36,3,2.1,.47,.36,.85,.82,1.4,1.12,.35,.19,.52,.72,.77,1.1,.25,.38,.41,.84,.9,1.01,.05,.02,.11,.09,.11,.13-.05,.94,.55,1.82,.24,2.8-.19,.62-.1,1.31-.51,1.89-.67,.92-1.5,1.5-2.69,1.63-.65,.07-1.3,.19-1.95,.27-.46,.06-.94,.06-1.32-.09-.77-.3-1.57-.16-2.35-.34-1.37-.33-2.73-.66-3.96-1.39-.19-.11-.45-.12-.65-.22-.91-.42-1.72-1.02-2.54-1.58-1.05-.71-2.04-1.5-3.07-2.25-.14-.1-.3-.19-.46-.24-.13-.04-.27-.01-.36,.12-.08,.12-.05,.24,.04,.32,.33,.32,.47,.84,1.01,.95,.22,.04,.29,.21,.23,.46-.11,.42,0,.79,.22,1.17,.46,.75,.11,2.54-.65,2.99-.39,.23-.94,.33-1.4,.28-2.19-.24-4.1-1.08-5.7-2.66-.63-.62-1.15-1.27-1.63-1.99-.09-.14-.26-.23-.39-.34-.21-.17-.3-.09-.33,.16-.07,.62,.03,1.23,.17,1.82,.04,.17,.13,.33,.08,.5-.26,.87-.5,1.75-.78,2.61-.15,.46-1.53,1.2-2.1,1.23-1.33,.07-2.6-.25-3.78-.76-.98-.42-1.91-1.04-2.51-2.03-.26-.43-.53-.86-.75-1.31-.07-.15-.18-.33-.4-.28-.22,.05-.23,.25-.22,.43,0,.53-.2,1-.41,1.46-.29,.63-.81,.94-1.49,1.1-.86,.2-1.63-.05-2.41-.28-1.02-.3-1.93-.82-2.68-1.61-.4-.41-.94-.69-1.31-1.12-.62-.72-1.48-1.23-1.85-2.19-.15-.4-.58-.72-.9-1.04-.65-.65-1.09-1.4-1.48-2.21-.08-.17-.22-.32-.34-.47-.11-.14-.21-.32-.42-.23-.21,.08-.1,.26-.11,.41,0,.09-.02,.22-.08,.28-.6,.63-.51,1.49-.52,2.21,0,.5-.02,1.05,.06,1.58,.1,.6-.13,.89-.71,1.08-1.33,.44-2.71,.63-4.08,.9-.95,.19-1.9,.34-2.93,.37Z"/><path class="cls-1" d="M66.61,131.74c-.41-.37-.7-.45-1.07-.2-.63,.42-1.24-.05-1.87-.1-1.12-.08-2.22-.28-3.37-.21-1.21,.06-2.44-.06-3.66-.14-1.94-.12-3.89-.09-5.83-.33-1.04-.13-2.07-.28-3.1-.42-.04,0-.08-.04-.11-.02-1.03,.44-1.89-.34-2.85-.4-1.06-.06-2.09-.41-3.18-.25-.62,.09-1.23-.69-1.12-1.36,.14-.91,.2-1.82,.12-2.74-.01-.12,0-.25-.1-.32-.5-.31-.4-.85-.49-1.31-.05-.3,0-.62,.28-.7,.36-.11,.73-.46,1.14-.17,.13,.09,.23,.13,.36,.08,.94-.36,1.93-.45,2.91-.59,.84-.13,1.67-.34,2.51-.5,1.36-.26,2.72-.5,4.07-.78,1.04-.21,2.1-.36,3.15-.48,1.14-.12,2.29-.22,3.41-.46,1.37-.29,2.74-.57,4.12-.82,1.7-.31,3.39-.66,5.11-.92,1.38-.21,2.76-.41,4.14-.64,1.17-.2,2.36-.28,3.51-.59,.48-.13,.89-.38,1.33-.56,1.12-.45,2.35-.54,3.46-1.03,.17-.08,.4-.05,.57,.05,1.03,.56,2.16,.92,3.24,1.34,.93,.36,1.87,.9,3,.81,.44-.03,.95,.25,1.46,.2,.86-.07,.92-.06,1.07,.83,.25,1.41,.99,2.51,2.11,3.32,.45,.33,1.1,.38,1.59,.67,1.12,.67,2.34,.9,3.61,.93,.6,.01,.74,.32,.74,.81,.03,1.65,0,3.31,.1,4.95,.08,1.22-.04,2.43,0,3.65,.04,.98,0,2.01-.07,3.01-.09,1.12-.03,2.25-.12,3.36-.07,.87-.09,1.73-.1,2.6-.03,1.51,.03,3.03-.06,4.54-.06,1.12-.38,2.23-.44,3.35-.07,1.24-.37,2.44-.44,3.69-.06,1.11-.31,2.23-.42,3.35-.16,1.55-.7,3.02-.86,4.57-.11,1-.4,1.99-.65,2.97-.2,.79-.48,1.56-.7,2.35-.05,.16-.11,.31-.27,.36-.56,.16-.48,.54-.33,.93,.19,.48,.05,.5-.43,.51-1.27,.02-2.43-.47-3.65-.65-1.11-.16-2.14-.62-3.23-.84-1.4-.28-2.71-1-4.1-1.16-1.47-.16-2.78-.85-4.26-.97-1.13-.09-2.23-.53-3.35-.82-.39-.1-.75-.26-1.19-.22-.43,.04-.71-.43-1.12-.59-.44-.17-.83-.3-1.3-.15-.38,.13-.7,.05-.83-.4-.03-.11-.1-.21-.23-.24-.93-.2-1.72-.73-2.57-1.11-.42-.19-.89-.16-1.29-.36-1.09-.54-2.28-.81-3.4-1.25-1.7-.67-3.45-1.19-5.18-1.78-1.06-.36-1.01-.42-.94-1.51,.11-1.93,.9-3.64,1.5-5.41,.32-.94,.53-1.91,.89-2.83,.48-1.23,.79-2.52,1.4-3.7,.32-.61,.48-1.31,.73-1.96,.57-1.49,1.32-2.91,2.1-4.3,.64-1.15,1.26-2.32,1.89-3.48,.53-.99,1.11-1.94,1.67-2.91,.22-.37,.54-.45,.98-.54Z"/><path class="cls-1" d="M66.13,103.25c.99-.19,2.02-.24,2.92-.8,.3-.19,.68-.27,1.03-.37,.81-.23,1.42-.7,1.84-1.43,.25-.44,.57-.84,.84-1.27,.21-.34,.37-.28,.53,.03,.32,.64,.85,1.06,1.47,1.39,.23,.12,.47,.2,.73,.17,.25-.03,.54-.12,.61-.35,.07-.22-.22-.36-.39-.46-1.31-.68-2.17-1.79-3.04-2.93-.54-.71-1.07-1.44-1.53-2.19-.49-.8-.81-1.72-1.09-2.63-.45-1.45-.88-2.92-1-4.45-.05-.68-.21-1.36-.12-2.05,.06-.44-.23-.88-.04-1.32,.07-.15,.06-.39,.28-.4,.19-.01,.3,.14,.4,.3,1.06,1.63,2.12,3.27,3.62,4.53,1.56,1.31,3.17,2.57,5.25,3,1.2,.25,2.23-.05,3.13-.85,.21-.19,.25-.48,.35-.74,.13-.32,.32-.33,.52-.08,.19,.24,.36,.51,.5,.78,.29,.57,.9,.84,1.25,1.36,.19,.29,.56,.34,.86,.48,1.29,.61,2.66,.56,4.04,.62,2.29,.09,3.7-1.82,3.77-3.78,.01-.34,.15-.68,.29-1,.12-.27,.5-.32,.53-.08,.09,.6,.6,.85,.94,1.14,1.35,1.16,2.88,2.01,4.72,2.16,.44,.04,.86,.15,1.33,.08,1.56-.26,2.29-.96,2.41-2.52,.04-.49-.12-1-.22-1.49-.05-.24-.14-.51,.09-.63,.19-.1,.36,.13,.54,.26,1.19,.83,2.34,1.74,3.67,2.36,1.03,.48,2.06,.95,3.15,1.29,.71,.22,1.44,.3,2.16,.43,.71,.12,1.43,.14,2.12,.38,.27,.09,.54,.03,.81,.04,.54,.03,.73,.21,.59,.74-.34,1.31-.4,2.66-.67,3.98-.18,.88-.66,1.62-.8,2.51-.14,.87-.53,1.71-.82,2.56-.44,1.29-.05,1.88,1.03,2.55,.59,.37,1.15,.81,1.68,1.27,.27,.24,.22,.56-.03,.83-.35,.37-.81,.57-1.26,.74-1.01,.4-1.95,.97-3.04,1.22-.66,.15-1.29,.46-1.92,.71-.21,.08-.36,.26-.43,.46-.52,1.38-1.58,2.26-2.73,3.1-1.08,.78-2.1,1.67-3.22,2.41-.89,.58-1.83,1.07-2.85,1.28-.83,.17-1.62,.45-2.43,.63-.93,.21-1.85,.62-2.78,.67-1.79,.11-3.59,.39-5.4-.11-1.25-.34-2.58-.44-3.85-.71-.91-.2-1.78-.54-2.72-.58-.26-.01-.36-.29-.58-.38-.39-.17-.79-.35-1.24-.32-.37,.03-.67-.08-.96-.34-.5-.46-1.17-.59-1.8-.77-.07-.02-.17-.02-.21-.07-1-1.13-2.42-1.64-3.66-2.4-.96-.59-1.88-1.22-2.78-1.88-.46-.34-.81-.78-1.26-1.14-1.41-1.14-2.85-2.25-4.06-3.6-.5-.56-1.23-.93-1.52-1.68-.08-.19-.36-.34-.23-.56,.16-.27,.46-.08,.7-.08Zm42.53-4.83c.02-.3,.04-.54-.05-.8-.35-1-.97-1.62-2.04-1.97-1.34-.43-2.48-.27-3.5,.63-.84,.75-1.35,1.75-1.36,2.89-.01,.79,.35,1.61,.91,2.09,.64,.54,1.3,1.37,2.38,1.02,.03-.01,.08,0,.11,.02,1.05,.36,1.88-.13,2.64-.75,.37-.3,.79-.71,.73-1.22-.07-.68,.2-1.31,.17-1.93Zm-15.89,9.65c.15,1.46,.6,2.88,1.47,4.17,.64,.95,1.35,1.79,2.52,2.1,.28,.07,.51,.08,.69-.14,.2-.25,0-.45-.17-.61-.15-.14-.37-.22-.54-.35-.37-.27-.88-.36-1.13-.79-.66-1.11-1.09-2.31-1.47-3.53-.2-.61-.18-1.28-.52-1.85-.1-.17-.18-.36-.44-.28-.24,.06-.38,.2-.39,.45,0,.25,0,.51,0,.84Z"/><path class="cls-1" d="M58.88,93.84c-.26-1.23,.43-2.51,.49-3.87,.01-.32,.16-.52,.59-.35,.67,.27,1.37,.25,2.11,.14,1.45-.2,2.86-.56,4.27-.91,.47-.11,.89-.37,1.38-.47,.25-.05,.45-.04,.48,.25,.09,.81,.42,1.55,.67,2.31,.8,2.39,1.61,4.77,3.33,6.7,.25,.28,.46,.57-.08,.82-.15,.07-.29,.29-.33,.46-.23,1-1.06,1.55-1.69,2.23-.42,.46-1.1,.45-1.66,.55-1.08,.2-2.18,.31-3.29,.32-1.31,0-2.57-.13-3.36-1.39-.03-.05-.07-.11-.12-.12-.98-.32-1-1.42-1.64-2.02-.15-.14-.05-.5-.14-.77-.44-1.21-1.01-2.38-1-3.88Z"/><path class="cls-1" d="M87.32,177.04c-.38-.45-.93-.57-1.46-.69-1.76-.41-3.53-.65-5.36-.32-.65,.12-1.3,.23-1.93,.42-.66,.21-1.02-.02-.99-.7,.04-.62-.09-1.25,.12-1.85,.09-.27-.15-.46-.17-.72-.11-1.34-.05-2.68-.09-4.02-.02-.62,.6-.88,.85-1.35,.07-.13,.21-.23,.3-.36,.48-.67,.69-.74,1.5-.51,1.12,.33,2.26,.58,3.35,1.01,.04,.01,.08,.03,.11,.03,1.43,.05,2.67,.85,4.07,1.01,.12,.01,.23,.04,.35,.03,.93-.07,.98,.06,1.01,1.02,.03,1.1-.42,2.1-.52,3.16-.04,.5-.25,.58-.87,.51,.39,.31,.74,.64,.53,1.18-.28,.72,.05,1.65-.74,2.2-.02-.02-.05-.03-.07-.05Zm-.42-3.38c.2,.02,.4,.08,.44-.13,.03-.2-.2-.14-.31-.19-.74-.35-1.5-.56-2.33-.66-1.08-.12-2.14-.27-3.21-.01-.1,.02-.18,.01-.28,0-1.08-.19-2.09,0-3,.63-.18,.13-.2,.29,.05,.39,.23,.1,.44,.08,.66-.07,.33-.23,.71-.32,1.11-.34,2.22-.13,4.44-.36,6.62,.34,.09,.03,.19,.03,.25,.03Z"/><path class="cls-1" d="M94.71,17.33c-.3,1.89-.99,3.6-2.42,4.94-.04,.04-.11,.08-.12,.13-.3,1.11-1.47,.92-2.19,1.4-.37,.25-1.03-.05-1.52-.25-1.45-.57-2.55-1.5-3.41-2.85-.67-1.05-.72-2.16-.73-3.27-.01-1.44,1.45-2.99,2.85-3.4,1.02-.3,2.04-.46,3.09-.34,1.82,.21,3.37,.91,4.36,2.54,.12,.2,.13,.39,.09,1.1Z"/><path class="cls-1" d="M55.15,173.03c-.09,.04-.07,.13-.06,.2,.22,1.73,.2,3.46,.13,5.19-.01,.31,.07,.62,.07,.93,0,.3-.16,.43-.46,.29-.46-.22-.92-.43-1.38-.65-.31-.15-.41-.35-.37-.75,.08-.78,.09-1.58,.03-2.36-.09-1.1-.26-2.19-.4-3.29-.07-.56,.13-.78,.69-.71,.31,.04,.62,.1,.92,.17,.32,.07,.61,.18,.66,.65,.17-.65,.46-.67,.96-.4,.47,.26,1.08,.12,1.54,.05,1.29-.21,2.03,.46,2.77,1.31,.91,1.04,1.7,2.17,2.42,3.33,.44,.71,.75,1.53,1.14,2.29,.14,.26,.15,.57-.19,.76-.62,.34-1.08,.93-1.82,1.11-.33,.08-.64,.1-.96,.08-.82-.05-1.63,0-2.46-.14-.87-.14-1.48-.66-2.26-.86-.25-.07-.23-.25-.21-.47,.1-.83-.07-1.66-.06-2.49,.03-1.28-.29-2.5-.43-3.75-.03-.25-.02-.25-.29-.49Z"/><path class="cls-1" d="M85.32,190.46c-1.1-.46-2.25-.4-3.41-.35-.93,.03-1.86,.13-2.8,.04-.42-.04-.57-.2-.54-.62,.07-.79-.06-1.57-.25-2.33-.11-.43-.02-.84-.03-1.26,0-.11,.1-.31,.19-.34,.6-.15,1.2-.35,1.81-.37,.92-.02,1.83,.04,2.72-.3,.26-.1,.63,0,.92,.11,.66,.23,1.33,.05,1.99,.17-.5-.37-1.09-.43-1.65-.43-.75,0-1.52-.28-2.28,.17-.2,.12-.56-.28-.95-.25-.72,.06-1.45-.02-2.15,.31-.33,.15-.66,.03-.7-.43-.05-.58-.09-1.17-.18-1.75-.05-.36,.09-.49,.4-.47,1.46,.09,2.92-.1,4.37-.17,1.18-.06,2.29,.21,3.42,.38,.59,.09,.75,.36,.66,.97-.22,1.57-.45,3.15-.63,4.73-.04,.38,.03,.77-.03,1.17-.09,.53-.25,.93-.81,1.08-.03-.02-.05-.04-.08-.06Z"/><path class="cls-1" d="M59.3,161.58c0-.88,.11-.91,.77-.83,1.01,.13,1.84,.76,2.82,.95,1.05,.2,1.95,.81,3.02,.96,.47,.07,.94,.48,1.45,.68,1.74,.66,3.45,1.44,5.26,1.91,1.57,.41,3.1,1,4.75,1.08,.29,.01,.54,.17,.66,.41,.14,.27-.09,.51-.26,.67-1.01,.99-1.91,2.09-2.83,3.15-.28,.32-.62,.39-.96,.06-.71-.68-1.55-1.17-2.35-1.71-.83-.56-1.65-1.18-2.56-1.58-1.2-.53-2.27-1.3-3.49-1.79-1.83-.72-3.64-1.49-5.62-1.7-.24-.03-.48-.11-.49-.41-.01-.68-.08-1.36-.16-1.84Z"/><path class="cls-1" d="M79.88,193.9c1.61-.06,3.22-.26,4.82-.44,.21-.02,.42,0,.64,.01,.35,0,.42,.21,.35,.51-.17,.76-.17,1.54-.23,2.31-.08,.86-.38,1.7-.48,2.56-.14,1.25-.72,2.36-.97,3.56-.02,.1-.05,.19-.06,.29q-.11,.87-1.02,.96c-.55,.06-1.04,.19-1.65-.06-1.51-.62-1.71-1.9-2.02-3.22-.17-.71,.1-1.37,.06-2.04-.05-1.09-.19-2.18-.33-3.27-.13-.98-.03-1.13,.89-1.18Z"/><path class="cls-1" d="M60.26,171.37c-.46-.12-.65-.36-.47-.86,.2-.53,0-1.07,0-1.61,0-.15-.02-.31-.03-.46-.04-.49,.15-.65,.62-.46,1.21,.48,2.42,.93,3.62,1.42,1.37,.56,2.68,1.23,4.06,1.78,.83,.33,1.56,.89,2.43,1.17,.45,.15,.91,.19,1.35,.33,.47,.15,.44,.34,.2,.67-.71,.98-1.66,1.74-2.5,2.59-.57,.58-1.35,.95-2.02,1.46-.22,.17-.46,.08-.61-.14-.88-1.27-1.74-2.57-2.94-3.54-.9-.73-1.79-1.5-2.9-1.93-.3-.09-.57-.23-.81-.43Z"/><path class="cls-1" d="M34.82,127.83c.16,.51-.04,.69-.3,.88-.32,.25-.45,.64-.57,1.01-.35,1.08-1.11,1.87-1.87,2.66-.15,.16-.34,.31-.57,.17-.23-.14-.29-.38-.2-.62,.27-.78,.44-1.59,.83-2.32,.12-.23,.24-.46,.04-.71-.17-.22-.4-.16-.65-.14-1.22,.12-2.43,.29-3.61,.65-.51,.16-1.07-.1-1.59,.21-.22,.13-.95-.63-.95-.93,0-.33-.04-.67,.03-.98,.08-.32,.16-.7,.7-.56,.36,.1,.69-.09,.96-.34,.54-.48,1.17-.7,1.88-.67,.24,0,.48-.04,.68-.15,.67-.37,1.4-.52,2.14-.65,.62-.11,1.16-.42,1.73-.65,.12-.05,.22-.23,.36-.12,.86,.67,1.83,.3,2.75,.29,.76,0,1.51-.09,2.27-.14,.19-.01,.43,.02,.39,.24-.16,.83,0,1.68-.22,2.5-.1,.35-.28,.51-.63,.45-.73-.12-1.46,.29-2.18-.05-.04-.02-.13,.01-.16,.05-.36,.44-.75,.41-1.26-.07Z"/><path class="cls-1" d="M87.39,177.09c.26,.09,.45,.2,.35,.55-.06,.2-.05,.43,0,.64,.06,.3,0,.49-.21,.76-.33,.42-.16,1.01-.29,1.52-.13,.48-.14,1-.22,1.49-.04,.26-.1,.45-.5,.32-1.61-.51-3.29-.72-4.95-.63-1.02,.05-2.04,.04-3.06,.16-.34,.04-.48-.09-.52-.38-.05-.35-.1-.7-.12-1.05-.04-.75-.08-1.51-.1-2.26-.01-.48,.26-.84,.68-1,.98-.36,1.96-.75,3.05-.6,.28,.04,.58-.02,.87-.03,1.4-.04,2.79,.06,4.15,.44,.25,.07,.54,.02,.81,.02,.02,.02,.04,.03,.07,.05Z"/><path class="cls-1" d="M59.49,165.37c.04-.74,.56-.96,1.31-.65,.99,.42,2.02,.7,3.05,1.01,.68,.21,1.35,.5,1.99,.82,1.87,.96,3.8,1.79,5.61,2.88,.67,.41,1.32,.88,2.08,1.16,.53,.2,.52,.62,.15,1.07-.55,.67-.93,.94-1.92,.43-1.16-.59-2.35-1.14-3.5-1.78-.4-.22-.85-.36-1.27-.52-1.96-.74-3.77-1.8-5.74-2.5-.24-.09-.49-.19-.74-.13-.62,.14-.84-.16-.87-.73-.02-.37-.09-.74-.14-1.07Z"/><path class="cls-1" d="M85.17,210.78c-1.07,.26-1.94,.17-2.79,.28-.6,.08-1.15-.15-1.72-.24-.38-.06-.76-.24-1.13-.23-.67,.01-.77-.37-.78-.89,0-.18,.02-.35,.09-.51,.14-.32-.2-.8,.21-.97,.34-.14,.6,.27,.92,.41,.64,.27,1.3,.43,1.98,.38,.32-.02,.78,0,.75-.58,0-.25,.21-.26,.43-.22,.65,.11,1.31,.21,1.97,.29,1.2,.15,2.38,.04,3.57-.13,.62-.09,1.23-.13,1.84-.32,.86-.26,1.54-.89,2.41-1.11,.15-.04,.3-.14,.44-.04,.17,.13,.1,.31,.05,.48-.67,2.23-1.92,3.32-4.39,3.85-1,.22-1.98-.13-2.97-.02-.4,.05-.64-.55-.89-.43Z"/><path class="cls-1" d="M35.54,178.59c.12-.94,.19-1.75,.39-2.54,.52-2,1.24-3.94,1.84-5.92,.23-.75,.51-1.39,1.09-1.92,.92-.84,1.82-.83,2.67,.1,.41,.45,.42,.78-.12,1.02-1.13,.5-1.13,1.47-1.05,2.42,.04,.55-.07,1.01-.33,1.44-.47,.77-1.08,1.48-1.31,2.34-.22,.8-.77,1.44-.86,2.3-.1,.84-.17,1.66-.08,2.5,.03,.34,.15,.67,.23,1,.04,.18,.02,.36-.12,.48-.19,.17-.32-.01-.46-.09-1.06-.63-1.85-2.01-1.86-3.11Z"/><path class="cls-1" d="M52.5,174.5c0,1.06,0,2.13,0,3.19,0,.56-.09,.75-.67,.59-.11-.03-.25-.02-.34-.08-1.07-.69-2.28-1.06-3.4-1.63-.64-.33-1.21-.82-1.97-.92-.35-.05-.47-.43-.32-.69,.47-.82,.69-1.72,1-2.6,.23-.64,.56-.93,1.22-.89,1.28,.06,2.55,.27,3.84,.25,.4,0,.62,.23,.6,.69-.03,.7,0,1.4,0,2.09,.02,0,.04,0,.05,0Z"/><path class="cls-1" d="M96.36,119.92c.07,.61,.14,1.41,.25,2.2,.11,.82-.14,1.09-.96,1.08-.88,0-1.64-.35-2.39-.73-.3-.16-.57-.3-.92-.28-.37,.02-.55-.33-.85-.48-1.19-.56-2.09-1.41-2.41-2.74-.05-.22-.17-.48,.05-.66,.19-.16,.41-.03,.62,.03,1.66,.47,3.33,.62,5.04,.3,.15-.03,.31-.03,.47-.03,1.1-.05,1.13,0,1.11,1.33Z"/><path class="cls-1" d="M60.26,171.37c.24,.19,.51,.34,.81,.43,.83,.89,1.91,1.49,2.74,2.38,.96,1.03,1.71,2.22,2.51,3.38,.37,.54-.11,.79-.42,1.04-.3,.24-.67,.38-.98,.63-.35,.28-.53-.05-.66-.31-.34-.66-.64-1.33-1.04-1.97-.48-.77-1.01-1.5-1.63-2.13-.72-.74-1.14-1.67-1.78-2.46-.42-.51-.22-.87,.46-.99Z"/><path class="cls-1" d="M85.4,190.51c.56,.56,.65,1.99,.17,2.63-.14,.18-.29,.17-.47,.11-1.23-.4-2.48-.05-3.71-.11-.7-.03-1.4,.05-2.09,.04-.38,0-.6-.25-.57-.65,.03-.39,.06-.77-.02-1.17-.06-.29,.09-.56,.46-.53,1.42,.1,2.83-.14,4.24-.23,.63-.04,1.31,.14,1.93-.15,.02,.02,.05,.04,.08,.06Z"/><path class="cls-1" d="M81.41,208.53c-.52,.11-.9-.23-1.31-.44-.32-.16-.27-.56-.19-.85,.12-.41-.03-.75-.09-1.13-.1-.68-.13-1.38,.08-2.06,.05-.17,.22-.19,.34-.08,.23,.23,.48,.31,.8,.26,.14-.02,.36,.07,.34,.17-.1,.75,1.27,.51,.92,1.41-.07,.18-.06,.39-.07,.58-.04,.6-.22,1.17-.11,1.79,.11,.59-.44,.28-.71,.34Z"/><path class="cls-1" d="M41.73,170.65c.72,.31,1.6,.45,2.46,.67,.3,.08,.61,.11,.91,.2,.85,.26,.85,.27,.69,1.14-.12,.7-.51,.95-1.16,.73-1.06-.35-2.11-.7-3.16-1.06-.56-.19-.75-1.12-.37-1.52,.17-.18,.33-.17,.64-.15Z"/><path class="cls-1" d="M108.14,98.58c.11,1.59-1.7,3.26-3.29,3-.7-.11-1.47-.46-1.78-1.29-.14-.37-.61-.51-.53-1.08,.23-1.54,1.04-2.65,2.28-2.96,.65-.16,1.21,.1,1.8,.3,.19,.06,.26,.21,.1,.36-.27,.26-.31,.61-.43,.94-.15,.42-.12,.79,.24,1.05,.38,.28,.81,.21,1.22-.03,.13-.08,.15-.29,.39-.29Z"/></g><image width="913" height="1872" transform="translate(155.24 30.54) rotate(-161.75) scale(.11 -.11)" xlink:href="game-elf-01.png"/></g></g></svg>