<?xml version="1.0" encoding="UTF-8"?><svg id="_圖層_2" xmlns="http://www.w3.org/2000/svg" viewBox="0 0 183.36 187.66"><defs><style>.cls-1{fill:#fff;}.cls-2{fill:#ffb300;}.cls-3{fill:#e78f00;}.cls-4{fill:#d3d3d3;}</style></defs><g id="_圖層_1-2"><g><path class="cls-2" d="M141.04,5.05c-25.2-22.89-39.55,39.44-39.55,39.44l1.02,14.91c16.48-.51,33.59-12.34,33.59-12.34,0,0,30.15-19.13,4.94-42.02Zm-27.6,43.11c.24-.65,3.25-8.76,3.49-9.38,10.33-26.29,23.93-21.19,23.93-21.19,2.32,14.61-27.43,30.57-27.43,30.57Z"/><path class="cls-2" d="M162.69,47.29c-5.03-33.67-55.59,5.51-55.59,5.51l-8.65,12.19c13.08,10.03,33.82,11.7,33.82,11.7,0,0,35.45,4.26,30.42-29.41Zm-48.65,15.91c.6-.35,8.06-4.73,8.64-5.05,24.63-13.82,31.94-1.27,31.94-1.27-7.45,12.78-40.58,6.32-40.58,6.32Z"/><path class="cls-2" d="M71.82,56.2S23.79,11.26,15.44,45.26c-8.35,33.99,28.34,33,28.34,33,0,0,21.29-.71,35.64-9.73l-7.59-12.34Zm-49.04-.34s8.68-12.16,32.58,4.34c.56,.39,7.78,5.58,8.36,5.99,0,0-34.54,3.46-40.94-10.33Z"/><path class="cls-2" d="M41.21,9.43c-25.19,24.3,6.38,43.03,6.38,43.03,0,0,18.39,10.76,35.34,10.77l.15-14.48S66.4-14.87,41.21,9.43Zm.87,12.88s13.83-5.65,25.25,21.04c.27,.62,3.61,8.87,3.88,9.53,0,0-31.06-15.49-29.13-30.57Z"/><path class="cls-3" d="M148.72,52.61c4.28,1.5,5.91,4.28,5.91,4.28-7.23,12.41-38.69,6.67-40.5,6.33-.02,0-.03,.02-.05,.03-.82,.5-1.69,.96-2.57,1.47l-8.7,6.06s44.4,15.02,53.39-10.6c0,0-1.03-5.6-7.49-7.58Z"/><rect class="cls-1" x="7.61" y="62.78" width="168.15" height="123.36" rx="3.12" ry="3.12"/><path class="cls-3" d="M66.17,67.98c-.84-.61-1.69-1.16-2.49-1.75-.01-.01-.03-.02-.04-.03-1.88,.18-34.63,3.05-40.86-10.34,0,0,1.95-2.73,6.54-3.85-6.88,1.38-8.48,7.07-8.48,7.07,6.76,27.09,49.54,14.82,49.54,14.82l-4.22-5.92Z"/><path class="cls-3" d="M144.18,19.14s-4.38-3.72-10.68-1.1c4.31-1.59,7.37-.45,7.37-.45,2.25,14.19-25.74,29.65-27.35,30.53,0,.02-.01,.03-.02,.05-.32,.91-.7,1.82-1.05,2.77l-2.9,10.2s43.89-16.47,34.63-42Z"/><path class="cls-3" d="M72.01,55.7c-.39-.96-.81-1.88-1.17-2.81,0-.02-.01-.03-.02-.05-1.68-.85-30.93-15.88-29.05-30.53,0,0,3.1-1.27,7.59,.24-6.56-2.5-10.94,1.46-10.94,1.46-8.72,26.52,34.01,38.95,34.01,38.95l-.42-7.26Z"/><rect class="cls-2" x="78.01" y="40.82" width="28.06" height="28.12" rx="5.63" ry="5.63"/><rect class="cls-4" x="7.68" y="116.37" width="68.48" height="2.76"/><rect class="cls-4" x="108.1" y="116.37" width="67.56" height="2.76"/><rect class="cls-1" y="61.87" width="183.36" height="54.62" rx="2.94" ry="2.94"/><rect class="cls-2" x="76.16" y="60.53" width="31.94" height="127.13"/></g></g></svg>