<?xml version="1.0" encoding="UTF-8"?><svg id="_圖層_2" xmlns="http://www.w3.org/2000/svg" xmlns:xlink="http://www.w3.org/1999/xlink" viewBox="0 0 136.39 255.23"><defs><style>.cls-1{fill:#fff;stroke:#fff;stroke-linecap:round;stroke-linejoin:round;stroke-width:7px;}</style></defs><g id="_圖層_1-2"><g><g><path class="cls-1" d="M36.73,111.45c-1.02,.07-1.16,0-1.44-1-.23-.8-.52-1.58-.73-2.39-.24-.9-.72-1.76-.83-2.7-.1-.87-.51-1.64-.66-2.5-.21-1.2-.7-2.35-1.18-3.5-.53-1.27-.91-2.6-1.31-3.92-.1-.33-.18-.64-.37-.94-.22-.35-.25-.76-.34-1.15-.25-1.05-.48-2.1-.58-3.18-.12-1.42-.31-2.83-.49-4.23-.14-1.17-.04-2.39-.45-3.54-.14-.4-.06-.92-.03-1.35,.07-1.08-.31-2.12-.25-3.15,.04-.67-.03-1.33,0-1.99,.09-1.82,0-3.64,.07-5.46,.03-.93,0-1.9,.3-2.81,.19-.59,.02-1.2,.08-1.8,.11-1.14,.39-2.26,.42-3.42,.03-1.1,.26-2.19,.49-3.27,.4-1.84,.73-3.7,1.08-5.55,.24-1.24,.73-2.41,1.07-3.62,.39-1.36,1.08-2.65,1.63-3.97,.67-1.58,1.23-3.23,1.63-4.9,.44-1.82,1.06-3.58,1.49-5.4,.21-.91,.37-1.89,.83-2.77,.27-.52,.32-1.16,.45-1.76,.4-1.95,1.12-3.81,1.45-5.78,.03-.21,.02-.52,.3-.55,.34-.04,.45,.28,.54,.52,.51,1.35,1.24,2.59,1.91,3.87,.27,.52,.64,.92,1.09,1.27,1.09,.84,1.81,2.06,2.88,2.92,1.15,.93,2.13,2.05,3.37,2.9,.58,.4,1.08,.78,1.82,.71,.2-.02,.47,.07,.53,.25,.18,.49,.63,.57,.99,.81,1.34,.9,2.82,1.52,4.28,2.12,1.54,.64,3.02,1.41,4.55,2.05,1.05,.44,2.07,.96,3.13,1.38,1.02,.41,1.93,1.12,2.99,1.51,.08,.03,.16,.1,.25,.11,.55,.04,.95,.31,1.42,.61,.7,.43,1.43,.87,2.17,1.28,.82,.46,1.63,.95,2.46,1.41,.77,.42,1.56,.81,2.34,1.21,.94,.48,1.84,1.05,2.83,1.44,.99,.38,1.9,.93,2.88,1.36,.75,.32,1.47,.83,2.16,1.31,.91,.62,1.7,1.41,2.68,1.93,.08,.04,.16,.11,.2,.18,.45,.82,1.22,1.31,1.89,1.91,.19,.17,.33,.37,.46,.59,1.54,2.56,2.77,5.26,4.01,7.97,.63,1.37,1.17,2.75,1.37,4.22,.15,1.15,.38,2.38-.61,3.38-.3,.31-.5,.76-.65,1.13-.56,1.39-1.89,1.98-2.83,2.96-.7,.73-1.58,1.15-2.51,1.54-.96,.41-1.79,1.11-2.68,1.68-1.09,.71-2.03,1.59-3.24,2.18-1.18,.58-2.43,1.1-3.49,1.93-.17,.14-.39,.22-.6,.31-1.99,.82-4,1.57-5.96,2.45-2.29,1.03-4.51,2.2-6.63,3.56-.19,.12-.37,.27-.58,.35-1.36,.57-2.59,1.38-3.9,2.04-1.26,.64-2.58,1.22-3.69,2.14-.29,.24-.66,.41-1.01,.56-1.27,.57-2.31,1.5-3.5,2.2-.86,.51-1.56,1.29-2.33,1.95-.12,.1-.19,.26-.31,.36-.31,.29-.33,1.07-.42,1.01-.62-.43-1.41-.46-1.98-.99-.63-.59-1.34-1.1-2.02-1.65-.19-.16-.39-.11-.57,0-.24,.14-.17,.33-.04,.52,.05,.07,.08,.18,.06,.26-.25,1.03,.1,1.99,.49,2.87,.26,.59,.25,1.12,.26,1.7,.02,.67-.08,1.28-.5,1.79-.78,.95-1.61,1.83-2.81,2.26-1.28,.45-2.36,1.31-3.66,1.75-.71,.24-1.39,.51-2.15,.52Z"/><path class="cls-1" d="M65.55,157.66c-.62-.25-.95-.33-1.35,.09-.46,.48-1.12,.63-1.82,.76-1.45,.27-2.85,.72-4.23,1.32-1.16,.5-2.38,.95-3.61,1.28-1.02,.27-2.05,.62-2.99,1-.95,.39-1.94,.69-2.88,1.06-1.19,.47-2.48,.67-3.72,1-.75,.2-1.44,.62-2.25,.59-.06,0-.15,.05-.17,.1-.25,.49-.64,.43-1.12,.46-1.69,.08-3.34,.49-4.92,1.08-.52,.19-.95,.57-1.58,.39-.51-.15-.86-.44-1.03-.89-.24-.66-.36-1.36-.61-2.01-.26-.69-.41-1.48-1.28-1.79-.33-.12-.51-.5-.39-.85,.35-1.1,1.04-1.92,2-2.6,1.38-.98,2.84-1.84,4.25-2.76,1.38-.89,2.71-1.88,4.19-2.61,.4-.2,.71-.53,1.09-.77,.98-.64,2.01-1.24,3.04-1.74,1.02-.49,1.93-1.15,2.93-1.64,.63-.31,1.3-.58,1.8-1.16,.48-.55,1.22-.76,1.81-1.17,1.56-1.07,3.15-2.09,4.72-3.12,.95-.62,1.98-1.15,2.97-1.73,2.14-1.26,4.28-2.54,6.47-3.72,.91-.49,1.63-1.32,2.4-2.04,1.16-1.1,2.52-1.95,3.76-2.95,.27-.22,.64-.15,.98-.16,1.93-.07,3.86,.07,5.8-.09,1.28-.11,2.52-.39,3.73-.78,1.2-.39,1.16-.42,1.83,.74,.67,1.15,1.75,1.8,2.93,2.35,1.02,.47,2.07,.07,3.09,.25,1.7,.31,3.29-.15,4.87-.73,.36-.13,.54,.08,.67,.39,.48,1.14,.98,2.28,1.47,3.42,.53,1.24,1.08,2.48,1.58,3.73,.3,.75,.48,1.55,.83,2.28,.26,.54,.51,1.04,.6,1.66,.11,.72,.68,1.3,.88,2.03,.43,1.54,1.12,2.99,1.63,4.5,.29,.86,.52,1.74,.87,2.59,.67,1.6,1.4,3.18,1.9,4.83,.36,1.19,.78,2.37,.99,3.63,.18,1.08,.36,2.23,.94,3.23,.04,.07,.06,.17,.07,.26,.09,.77,.18,1.5,.6,2.24,.33,.57,.24,1.4,.46,2.1,.36,1.18,.71,2.38,.9,3.6,.13,.84,.44,1.66,.38,2.53-.02,.27,.03,.53,.21,.77,.11,.14,.17,.32,.2,.5,.39,2.32,.72,4.64,.88,6.99,0,.07,0,.15-.03,.2-.55,.67-.57,1.59-1.09,2.28-.35,.47-.77,.64-1.32,.68-.78,.06-1.58,.12-2.34,.3-.7,.16-1.39,.23-2.09,.3-.88,.1-1.8,.09-2.65,.33-.94,.26-1.89,.2-2.83,.31-.91,.11-1.8,.25-2.7,.44-.75,.16-1.58,.29-2.38,.25-1.09-.06-2.09,.34-3.13,.53-1.04,.19-2.11,.12-3.14,.42-.52,.15-1.13-.08-1.62,.35-.06,.06-.22,.03-.32,0-1.33-.32-2.7-.28-4.04-.28-1.6,0-3.19,.23-4.79,.31-.65,.03-1.3,.06-1.95,.07-1.27,.03-2.55-.03-3.81,.22-.79,.15-1.6-.1-2.43,0-1.33,.17-2.68,.22-4.03,.26-.9,.03-1.26-.24-1.34-.99-.05-.48-.31-.94-.39-1.43-.24-1.3-.37-2.6-.34-3.93,.02-.69,0-1.44-.11-2.11-.19-1.12-.14-2.24-.24-3.36-.07-.78-.19-1.58-.13-2.38,.03-.45,.05-.91-.06-1.35-.2-.8,.13-1.59,.05-2.41-.06-.54-.04-1.12-.06-1.67-.02-.46,0-.89,.06-1.35,.11-1,.21-2,.21-3.01,0-.58,.09-1.17,.24-1.73,.31-1.16,.34-2.37,.41-3.55,.1-1.48,.45-2.92,.53-4.39,.03-.67,.07-1.43,1.12-1.69Z"/><path class="cls-1" d="M105.41,94.67c.15,1.68,.3,3.26,.43,4.85,.06,.74,.15,1.49,.09,2.23-.06,.75,.32,1.36,.76,1.73,.41,.34,1.07,.57,1.68,.58,.86,.02,1.63,.4,2.42,.65,.51,.16,.6,.61,.32,1.05-.27,.42-.57,.83-.9,1.19-1.14,1.22-2.27,2.46-3.65,3.42-.57,.4-.86,1.05-1.41,1.45-.15,.11-.24,.41-.23,.62,.08,1.29-.42,2.38-.98,3.52-.72,1.46-1.61,2.81-2.41,4.21-.8,1.4-1.85,2.65-3.08,3.69-.67,.57-1.42,1.03-2.14,1.54-.86,.61-1.58,1.39-2.52,1.91-.65,.36-1.17,1.02-1.85,1.24-1.99,.64-3.76,1.88-5.96,2.02-1.55,.1-3.08,.63-4.62,.93-.82,.16-1.7,.08-2.48,.35-1.2,.42-2.48-.32-3.64,.38-.35,.22-.72-.22-1.11-.17-.76,.09-1.51-.1-2.29,.04-.4,.07-1.02-.29-1.56-.41-.75-.16-1.47-.42-2.25-.36-.15,.01-.33,0-.47-.07-.94-.46-2.01-.14-2.98-.48-.32-.11-.7-.13-1.04-.25-1.76-.58-3.52-1.17-5.28-1.75-1.43-.47-2.88-.89-4.23-1.6-.56-.29-1.15-.53-1.75-.72-.5-.16-.78-.6-1.23-.83-.23-.12-.2-.37,.08-.44,1.02-.25,1.76-1.01,2.66-1.47,.73-.38,1.08-1.18,1.71-1.69,.24-.19,.4-.48,.68-.65,.84-.52,.83-1.45,1.07-2.25,.15-.5,.21-1.02,.33-1.53,.17-.73,.17-.69,.78-.28,.85,.58,1.77,1.01,2.85,.74,.11-.03,.23-.06,.31-.13,.21-.18,.57-.34,.5-.65-.08-.33-.45-.26-.74-.33-1.15-.27-2.37-.37-3.37-1.12-.67-.5-1.47-.81-2.14-1.28-.8-.57-1.64-1.07-2.37-1.77-.65-.62-1.38-1.18-1.9-1.9-1.05-1.45-2.29-2.75-3.13-4.37-.6-1.16-1.05-2.4-1.75-3.51-.11-.17-.16-.38-.19-.58-.04-.28-.16-.61,.17-.8,.31-.19,.49,.1,.7,.25,1.9,1.38,3.92,2.55,6.07,3.5,.26,.12,.58,.08,.86,.17,1.4,.45,2.83,.86,4.3,.88,1.54,.02,3.09,.03,4.4-1.14,.74-.66,1.14-1.34,1.17-2.3,.02-.59,.24-.72,.7-.34,.91,.75,2.02,1.1,3.03,1.65,.2,.11,.43,.17,.66,.12,.6-.15,1.22-.09,1.83-.11,.55-.02,1.04-.24,1.55-.42,.83-.29,1.61-.68,2.44-.95,1.54-.5,2.48-2.55,2.37-4.1-.06-.91-.31-1.76-.43-2.65-.04-.32-.03-.59,.3-.75,.35-.17,.39,.13,.55,.31,.38,.43,.96,.48,1.46,.67,1.77,.67,3.65,.85,5.47,.49,1.28-.25,2.68-.45,3.57-1.69,.72-1,.72-2.5,.24-3.53-.21-.44-.43-.9-.85-1.21-.19-.14-.28-.41-.16-.61,.13-.21,.42-.2,.62-.13,1.68,.54,3.41,.83,5.14,1.07,.69,.1,1.49,.29,2.08,.2,1.44-.21,2.91-.03,4.33-.5,1.53-.5,3.18-.56,4.71-1.1,.51-.18,.71,.26,.71,.59-.02,1.25,.74,2.33,.73,3.58,0,.4,.4,.73,.29,1.07Zm-10.11,2.85c-.82,.1-1.91,0-2.76,.61-1.45,1.06-1.95,2.66-2.03,4.38-.02,.47,.11,.99,.32,1.42,.46,.94,1.26,1.6,2.19,2.02,1.28,.57,2.6,.36,3.83-.15,1.35-.56,2-1.74,2.39-3.07,.08-.27,.08-.55-.11-.78-.3-.35-.36-.75-.4-1.2-.15-1.76-1.65-3.24-3.44-3.24Zm-3.18,26.1c.38-.03,.69-.2,.78-.61,.11-.47-.35-.39-.56-.52-.18-.11-.43-.15-.65-.17-.92-.1-1.83-.2-2.47-1-.05-.07-.15-.1-.23-.15-.64-.46-1.19-1.05-1.64-1.65-.71-.95-1.53-1.82-2.19-2.82-.12-.18-.31-.37-.57-.21-.23,.15-.47,.36-.36,.66,.24,.71,.43,1.47,.9,2.04,1.08,1.31,2.16,2.58,3.66,3.52,1.09,.68,2.14,.85,3.31,.9Z"/><path class="cls-1" d="M74.25,93.61c-.07,.85,.43,1.54,.85,2.06,.63,.77,.48,1.62,.66,2.43,.12,.54,.21,1.12,.12,1.65-.14,.83-.59,1.55-1.3,2.06-1.42,1.03-3.05,1.2-4.74,1.28-.95,.05-1.85-.16-2.73-.34-.85-.18-1.6-.79-2.32-1.34-.05-.04-.08-.12-.13-.15-.36-.25-.62-.88-1.16-.59-.58,.31-.02,.77,.06,1.13,.29,1.37-.15,2.39-1.26,3.27-1.05,.83-2.27,.68-3.44,.8-1.68,.17-3.12-.71-4.66-1.17-1.09-.32-2.05-.89-3.08-1.32-.24-.1-.52-.21-.54-.54-.02-.34,.32-.35,.51-.48,.99-.65,1.96-1.3,2.67-2.29,.2-.28,.65-.38,.98-.59,.62-.4,1.31-.75,1.42-1.61,.02-.16,.16-.27,.29-.23,.97,.29,1.5-.64,2.31-.82,.5-.12,.99-.43,1.37-.84,.09-.1,.22-.2,.34-.22,1.24-.16,2.13-1.14,3.32-1.44,.67-.17,1.12-.89,1.81-1.02,1.17-.21,2.09-.89,3.07-1.45,.76-.43,1.39-1.08,2.17-1.47,1.34-.67,2.7-1.31,4.06-1.93,1.1-.51,2.37-.72,3.3-1.61,.27-.26,.71-.25,1.06-.41,1.35-.62,2.56-1.46,3.79-2.28,.25-.17,.52-.3,.47-.67-.02-.19,.09-.31,.26-.34,1.11-.2,1.87-.98,2.71-1.63,.17-.13,.34-.21,.52-.3,1.57-.73,3.19-1.41,4.51-2.52,.9-.75,1.83-1.52,2.56-2.47,.62-.81,1.33-1.21,2.44-.94,1.43,.35,2.87,.64,4.3,1.05,.7,.2,1.33,.6,2.1,.64,.36,.02,.67,.48,1.03,.72,.55,.38,1.05,.84,1.76,.89,.14,.01,.28,.13,.26,.27-.06,.53,.33,.79,.65,1.03,.37,.28,.43,.69,.56,1.05,.64,1.77,.98,3.53-.34,5.18-.1,.12-.19,.25-.31,.34-.99,.71-1.9,1.51-3.08,1.94-.91,.33-1.83,.56-2.76,.78-.99,.24-1.99,.48-2.99,.71-.58,.13-1.22-.03-1.73,.1-1.07,.28-2.08-.12-3.13,0-.86,.09-1.76-.28-2.64-.41-2-.29-3.9-1.01-5.86-1.47-.23-.05-.43-.13-.63,.06-.22,.21-.38,.35,0,.6,.36,.23,.8,.33,1.07,.7,.03,.03,.09,.09,.1,.08,.86-.52,.81,.31,1.04,.71,.38,.67,1.06,1.11,1.33,1.91,.32,.94,.42,1.82-.06,2.68-.27,.48-.9,.8-1.33,.82-.73,.04-1.26,.55-1.98,.55-2.26,.01-4.46-.07-6.58-1.08-.98-.47-1.77-1.27-2.85-1.52-.06-.01-.12,0-.19,0Z"/><path class="cls-1" d="M47.69,124.73c-.79,.03-1.36-.31-1.91-.57-.79-.38-1.75-.42-2.38-1.19-.39-.48-.99-.75-1.31-1.35-.42-.81-1.29-1.24-1.8-1.99-.91-1.36-1.77-2.71-1.92-4.44-.07-.78-.26-1.59-.49-2.37-.14-.46-.04-.67,.48-.67,.4,0,.8-.14,1.2-.16,.84-.04,1.25-.8,1.95-1.11,1.2-.52,2.2-1.37,3.22-2.2,.66-.53,1.41-.94,1.95-1.63,.19-.25,.46-.17,.62,.09,.7,1.16,1.68,2.09,2.59,3.08,.54,.59,1.02,1.25,1.56,1.85,1.34,1.52,2.88,2.75,4.68,3.64,.49,.24,.84,.49,.3,1.05-.16,.17-.28,.54-.22,.76,.31,1.11-.46,1.93-.73,2.87-.24,.87-1.08,1.22-1.74,1.71-1.15,.84-2.49,1.32-3.75,1.97-.74,.38-1.64,.38-2.32,.64Z"/><path class="cls-1" d="M100.44,191.39c.9-.01,1.17,.21,1.38,1,.33,1.26,.69,2.51,1.01,3.78,.12,.49,.1,.87-.52,1.19-2.32,1.19-4.86,1.59-7.33,2.26-1.36,.37-2.74,.48-4.14,.58-.99,.07-1.98,.03-2.97,.2-.66,.12-1.33-.21-2.02-.04-.16,.04-.23-.19-.29-.33-.72-1.73-1.61-3.39-2.22-5.16-.04-.11-.08-.21-.14-.31-.44-.79-.38-.93,.55-1.15,1.2-.29,2.43-.26,3.64-.34,1.4-.09,2.78-.24,4.16-.55,1.5-.33,3.04-.5,4.57-.53,1.35-.02,2.65-.31,3.96-.53,.16-.03,.31-.06,.36-.07Z"/><path class="cls-1" d="M45.26,14.21c.03,.66,.06,1.31,.06,1.96,0,1.28-.35,2.45-.84,3.6-.05,.12-.18,.27-.15,.37,.25,.84-.45,1.07-.91,1.46-.2,.16-.48,.25-.48,.59,0,.2-.22,.31-.38,.34-.74,.16-1.44,.44-2.24,.38-1.07-.08-2.09-.33-3.1-.63-.9-.27-1.49-1.06-2.28-1.52-.89-.51-1.1-1.47-1.49-2.31-.7-1.51-.53-3.02,.09-4.51,.16-.39,.51-.62,.78-.93,1.07-1.19,2.42-1.95,3.91-2.32,1.12-.28,2.28-.59,3.52-.19,.67,.22,1.33,.38,1.98,.71,1.31,.66,1.3,1.87,1.54,2.99Z"/><path class="cls-1" d="M104.22,244.88c-1.69,.16-2.98-.72-4.26-1.62-.15-.11-.24-.26-.28-.45-.21-1.09-.32-2.18,.05-3.27,.13-.38,.29-.45,.7-.33,2.24,.68,4.47,.67,6.65-.29,.2-.09,.45-.21,.55-.38,.37-.68,.78-.55,1.27-.15,.53,.43,1.22,.44,1.85,.61,1.13,.3,2.23,.69,3.36,.99,1.13,.3,2.31,.44,3.39,.91,.52,.23,.89,.62,1.2,1.05,.27,.39,.02,.84-.51,.95-2.62,.55-5.2,1.24-7.89,1.47-2.02,.18-4.05,.34-6.07,.51Z"/><path class="cls-1" d="M54.4,230c-.59-.11-1.23-.33-1.73-.81-.91-.87-1.35-1.96-1.61-3.2-.37-1.78-.33-3.58-.48-5.37-.07-.85,.14-1.75,.39-2.58,.42-1.4,.72-2.84,1.04-4.26,.21-.96,.28-1.96,.43-2.93,.16-1.03,.47-2.02,1.16-2.84,.25-.3,.54-.46,.94-.43,.71,.06,1.44-.19,2.11,.26,.54,.35,.58,.54,.07,.94-1.03,.81-1.2,2-1.33,3.15-.14,1.19-.25,2.38-.17,3.59,.04,.7,.11,1.34,.89,1.65,.32,.13,.25,.49,.18,.73-.17,.56-.27,1.14-.48,1.69-.64,1.66-.93,3.4-1.17,5.17-.15,1.15,.15,2.26,.04,3.38-.04,.44,.25,.77,.35,1.15,.12,.46-.04,.7-.62,.7Z"/><path class="cls-1" d="M24.69,171.72c.05-.3,.11-.59,.13-.88,.04-.52-.28-.81-.76-.62-.77,.31-1.5,.69-2.22,1.14-.99,.61-1.8,1.54-2.97,1.86-.22,.06-.42,.18-.55,.38-.08,.12-.19,.18-.34,.19-1.12,.04-2.11-1.33-1.73-2.4,.06-.18,.12-.32,.35-.34,.54-.04,.88-.41,1.06-.85,.37-.88,1.16-1.23,1.88-1.67,.15-.09,.34-.15,.46-.27,.84-.91,1.87-1.58,2.89-2.26,.2-.13,.33-.37,.48-.56,.53-.68,1.23-.93,2.08-1.01,.89-.08,1.68-.48,2.43-.98,.82-.54,1.8-.72,2.64-1.24,.26-.16,.4,.11,.45,.35,.16,.78,.38,1.52,.74,2.24,.33,.65,.07,1.18-.62,1.42-.52,.17-.9,.61-1.45,.72-.21,.04-.39,.21-.64,.16-.32-.07-.51,.07-.61,.39-.12,.4-.36,.63-.81,.39-.18-.1-.41,.02-.33,.15,.3,.46-.13,.76-.17,1.14-.07,.63-.13,1.26-.18,1.89-.09,1.17-.37,2.31-.98,3.34-.12,.2-.28,.4-.54,.29-.27-.12-.51-.3-.5-.66,.02-.77,0-1.54-.16-2.3Z"/><path class="cls-1" d="M73.14,204.1c.16-1.14,.34-2.36,.51-3.58,.07-.46,.33-.55,.66-.29,1.63,1.31,3.46,2.29,5.27,3.31,2.06,1.16,4.01,2.56,6.36,3.09,1.46,.33,1.65,1.58,2.05,2.68,.11,.31-1.58,2.5-1.92,2.51-.26,0-.54-.06-.79-.15-.88-.33-1.75-.7-2.63-1.03-1.12-.41-2.23-.83-3.29-1.37-1.73-.88-3.13-2.19-4.55-3.46-.38-.34-.8-.59-1.23-.83-.37-.21-.48-.44-.44-.89Z"/><path class="cls-1" d="M91.06,210.91c-.77,.18-1.12-.16-1.44-.94-.46-1.1-.75-2.27-1.37-3.3-.29-.48-.14-.69,.44-.71,2.5-.1,5.01-.24,7.47-.71,1.85-.36,3.64-.98,5.35-1.81,.38-.19,.79-.32,1.19-.49,.43-.18,.56,0,.59,.42,.07,1.26,.16,2.53,.27,3.78,.05,.55-.17,.82-.65,1.03-2.13,.92-4.33,1.66-6.56,2.3-.04,.01-.09,.03-.13,.03-1.09-.14-2.13,.37-3.21,.29-.64-.05-1.25,.23-1.93,.12Z"/><path class="cls-1" d="M93.01,215.41c2.17-.08,4.29-.33,6.36-1.08,1.34-.48,2.64-1.05,3.97-1.55,.39-.15,.6-.12,.64,.35,.02,.2,.11,.4,.11,.6-.03,1.38,.35,2.72,.39,4.1,0,.28-.06,.45-.31,.61-1.06,.68-2.28,.96-3.44,1.36-1.36,.47-2.71,.97-4.14,1.23-.67,.12-1.34,.15-2.01,.26-.42,.07-.63-.14-.77-.56-.44-1.26-.95-2.49-1.42-3.73-.08-.21-.14-.43-.2-.65-.2-.8-.02-1.01,.82-.94Z"/><path class="cls-1" d="M88.11,201.37c1.76-.1,3.52-.15,5.27-.33,1-.11,1.99-.42,2.97-.68,1.42-.37,2.83-.77,4.23-1.19,.58-.18,1.13-.45,1.69-.68,.25-.1,.51-.18,.56,.21,.1,.88,.3,1.74,.29,2.63,0,.26-.02,.53-.32,.6-.62,.15-1.13,.55-1.76,.68-1.26,.27-2.39,.91-3.66,1.2-1.3,.3-2.61,.54-3.93,.68-1.77,.19-3.55,.26-5.33,.41-.39,.03-.59-.17-.75-.46-.48-.83-.68-1.77-1.07-2.64-.14-.32,.11-.45,.4-.45,.48,0,.95,0,1.43,0,0,0,0,.01,0,.02Z"/><path class="cls-1" d="M72.56,209.79c.07,.04,.19,.08,.26,.15,1.53,1.49,3.34,2.59,5.18,3.62,1.42,.8,2.96,1.37,4.57,1.75,.77,.18,.8,.43,.36,1.06-.96,1.39-1.96,2.75-2.77,4.23-.29,.53-.61,.58-1.06,.18-2.02-1.75-3.83-3.7-5.47-5.8-.57-.73-.86-1.65-1.59-2.26-.13-.11-.13-.29-.1-.45,.12-.58,.13-1.16,.15-1.74,0-.26-.02-.68,.48-.73Z"/><path class="cls-1" d="M99.98,231.21c-1.41,.15-1.94-.87-2.58-1.78-.61-.88-.86-1.93-1.44-2.83-.23-.35-.16-.71,.36-.79,.16-.02,.31-.11,.46-.09,1.13,.13,2.21-.16,3.25-.47,1.22-.36,2.44-.78,3.54-1.45,1-.61,1.33-.5,1.43,.65,.08,.83,.07,1.67,.04,2.5-.04,.84,.02,1.68,.19,2.5,.11,.53-.07,.75-.52,.8-1.2,.15-2.36,.52-3.56,.69-.42,.06-.76,.47-1.18,.27Z"/><path class="cls-1" d="M75.1,225.25c-.7-.07-1.41-.23-1.99-.6-1.41-.91-2.93-1.61-4.35-2.48-.44-.27-.7-.55-.68-1.12,.05-1.36-.66-2.56-.88-3.87-.21-1.29-.6-2.54-.61-3.86,0-.58,.2-.75,.73-.52,.48,.21,.98,.02,1.47,.12,.4,.08,.65,.19,.78,.67,.4,1.43,.77,2.88,1.42,4.23,1.23,2.55,2.58,5.01,4.84,6.83,.29,.23,.18,.36-.06,.5-.14,.08-.27,.1-.67,.11Z"/><path class="cls-1" d="M85.97,205.83c-.11-.02-.28-.03-.41-.1-1.37-.72-2.81-1.31-4.1-2.2-.74-.51-1.55-.92-2.35-1.34-1.67-.9-3.25-1.95-4.73-3.13-.26-.2-.3-.43-.21-.72,.19-.56,.41-1.1,.54-1.68,.11-.49,.53-.57,.94-.26,2.03,1.55,4.24,2.8,6.54,3.9,.73,.35,1.5,.62,2.19,1.05,.47,.29,.82,.63,.95,1.17,.23,.95,.73,1.8,1.04,2.72,.12,.35,.18,.65-.41,.58Z"/><path class="cls-1" d="M93.18,134.67c-.52-.2-1.31-.22-1.9-.1-1.18,.23-2.23-.15-3.32-.29-1-.13-1.78-.81-2.37-1.63-.2-.28-.59-.59-.46-.92,.17-.42,.68-.19,1.04-.28,1.5-.37,3.07-.49,4.44-1.34,.74-.46,1.56-.79,2.3-1.27,.26-.17,.47-.08,.7,.18,.4,.46,.59,1.01,.82,1.55,.32,.78,.84,1.44,1.21,2.19,.36,.71,.24,1.21-.49,1.47-.58,.21-1.16,.52-1.98,.44Z"/><path class="cls-1" d="M73.24,205.81c.27,.09,.5,.27,.72,.47,.7,.63,1.31,1.37,2.07,1.95,1.04,.79,2.1,1.59,3.28,2.14,1.32,.61,2.67,1.18,4.09,1.54,.61,.16,1.2,.41,1.78,.66,.37,.16,.18,.45,.03,.61-.34,.37-.6,.79-.85,1.22-.2,.35-.49,.32-.82,.22-2.84-.81-5.52-1.91-7.87-3.78-.87-.69-1.72-1.47-2.74-1.98-.41-.21-.49-.51-.37-.96,.15-.54,.2-1.11,.3-1.66,.04-.21,.11-.4,.38-.42Z"/><path class="cls-1" d="M79.12,222.11c-.03,.07-.07,.21-.15,.31-.48,.6-.97,1.19-1.46,1.78-.26,.31-.47,.33-.83,.01-2.23-1.99-3.78-4.44-5.07-7.11-.48-.98-.73-2.04-1.21-3.01-.21-.43-.13-.7,.43-.79,1.09-.19,1.05-.2,1.58,.8,.88,1.69,2.06,3.17,3.39,4.53,1.01,1.03,1.94,2.14,3.12,3,.13,.1,.22,.23,.2,.47Z"/><path class="cls-1" d="M90.7,212.37c-.04-.32,.13-.38,.4-.4,1.1-.08,2.21-.26,3.31-.25,1.17,.02,2.31-.23,3.38-.54,1.83-.54,3.64-1.22,5.36-2.06,.48-.23,.6-.11,.64,.33,.05,.61-.04,1.22,.09,1.83,.06,.28-.16,.37-.39,.46-2.11,.73-4.17,1.61-6.35,2.12-1.02,.24-2.08,.36-3.13,.44-.7,.06-1.4,.04-2.07,.3-.25,.1-.5,.07-.57-.17-.22-.69-.57-1.33-.67-2.06Z"/><path class="cls-1" d="M76.97,193.72c1.15,0,2.3-.01,3.44,0,.5,0,.99,.07,1.48,.13,.27,.03,.37,.26,.41,.48,.28,1.34,.98,2.52,1.37,3.81,.15,.52,.53,.94,.63,1.49,.04,.2,.1,.42-.08,.57-.18,.15-.39,.07-.57-.03-.65-.35-1.32-.68-1.96-1.07-2.11-1.28-4.21-2.6-6.33-3.88-.36-.22-.41-.51-.36-.86,.05-.38,.31-.49,.67-.53,.43-.05,.86-.01,1.29-.12Z"/><path class="cls-1" d="M96.41,224.81c-1.05,0-1.25-.15-1.49-.97-.06-.2-.11-.39-.17-.59-.21-.75-.12-.86,.64-.93,1.79-.18,3.48-.74,5.16-1.34,1.12-.4,2.27-.75,3.35-1.28,.38-.19,.61,0,.69,.39,.04,.2,.02,.41,.05,.61,.2,1.71,.19,1.68-1.41,2.24-1.4,.49-2.74,1.18-4.2,1.49-.92,.2-1.87,.28-2.62,.39Z"/><path class="cls-1" d="M102.97,238.69c-.75,.13-1.08-.18-1.17-.94-.19-1.56-.8-3.02-1.15-4.54-.11-.48,.01-.68,.46-.76,.71-.13,1.42-.28,2.14-.4,.73-.12,1.05,.16,1.08,.92,.05,1.02,.1,2.04,.14,3.05,.02,.53,.31,.94,.5,1.4,.08,.18,.26,.29,.42,.05,.13-.2,.29-.33,.5-.22,.3,.16,.84-.04,.9,.45,.06,.51-.51,.35-.76,.45-.97,.4-2.02,.45-3.05,.53Z"/><path class="cls-1" d="M56.25,215.91c-.14-1.74-.15-3.48,.22-5.19,.09-.43,.23-.82,.46-1.19,.26-.43,.63-.5,.95-.15,.26,.28,.71,.66,.14,1.06-.38,.26-.14,.4,.06,.55,.68,.52,1.36,1.05,2.07,1.53,.36,.25,.52,.53,.5,.96-.03,.56-.01,1.13-.06,1.69-.02,.2-.02,.5-.29,.56-.23,.06-.37-.15-.5-.3-.54-.59-1.27-.93-1.9-1.39-.18-.13-.45-.28-.63-.11-.25,.23,.09,.39,.19,.56,.33,.59,.27,1.4-.15,1.92-.17,.21-.39,.24-.61,.16-.29-.11-.5-.31-.44-.66Z"/><path class="cls-1" d="M64.28,215.52c.36-.84-.04-1.72,.04-2.59,.03-.39,.01-.86,.67-.76,1.02,.15,1.17,.27,1.03,.98-.31,1.53,.1,2.99,.4,4.47,.14,.71,.36,1.39,.58,2.08,.09,.26,.18,.62-.13,.8-.3,.18-.48-.12-.69-.28-.13-.1-.25-.23-.39-.26-1.16-.25-1.27-1.15-1.33-2.1-.05-.77,.07-1.54-.18-2.33Z"/><path class="cls-1" d="M63.63,212.27c-.14,1.56-.17,2.95-.1,4.34,.02,.47-.02,.95,.2,1.4,.1,.2,.14,.46-.1,.61-.23,.14-.42-.02-.6-.17-.65-.56-1.08-1.14-.97-2.14,.13-1.15-.02-2.34-.3-3.49-.09-.38-.06-.74,.29-.95,.34-.21,1.4-.02,1.54,.24,.05,.09,.05,.22,.04,.16Z"/><path class="cls-1" d="M97.95,100.05c.71,1.66-.19,4.02-1.76,4.84-.68,.36-1.24,.21-1.89,.23-.98,.02-1.41-.9-2.23-1.09-.11-.03-.18-.33-.22-.52-.33-1.63-.47-3.09,1.1-4.36,.67-.54,1.48-.68,2.34-.59,.4,.04,.41,.19,.27,.53-.24,.56-.23,1.14,.13,1.67,.54,.79,1.31,.79,1.86,0,.14-.2,.25-.42,.42-.71Z"/></g><image width="913" height="1872" transform="translate(120.76) rotate(176.39) scale(.13 -.13)" xlink:href="game-elf-02.png"/></g></g></svg>