<?xml version="1.0" encoding="UTF-8"?><svg id="_圖層_2" xmlns="http://www.w3.org/2000/svg" xmlns:xlink="http://www.w3.org/1999/xlink" viewBox="0 0 155.24 220.45"><defs><style>.cls-1{fill:#fff;stroke:#fff;stroke-linecap:round;stroke-linejoin:round;stroke-width:7px;}</style></defs><g id="_圖層_1-2"><g><g><path class="cls-1" d="M58.14,87.1c.05-.56,.2-1.14,.18-1.68-.03-.73,.09-1.44,.17-2.15,.08-.79,.17-1.57,.31-2.35,.2-1.19,.13-2.4,.17-3.59,.03-.95,.1-1.9,.18-2.84,.05-.65,.02-1.3,.14-1.96,.23-1.31,.58-2.59,.92-3.87,.35-1.3,.74-2.59,1.08-3.89,.3-1.16,.71-2.28,1.1-3.39,.82-2.35,1.72-4.69,2.83-6.93,.65-1.3,1.22-2.65,2.03-3.87,.29-.44,.47-.94,.72-1.41,.51-.94,1.16-1.79,1.7-2.7,.64-1.09,1.35-2.14,2.04-3.19,.61-.92,1.46-1.67,2.1-2.57,.66-.93,1.6-1.56,2.33-2.42,.74-.88,1.51-1.73,2.24-2.62,.57-.69,1.09-1.41,1.63-2.12,.81-1.06,1.62-2.13,2.45-3.19,.48-.61,.93-1.24,1.36-1.89,.53-.79,1.12-1.55,1.73-2.28,.37-.44,.61-.95,.94-1.41,.1-.14,.17-.34,.39-.28,.19,.05,.2,.25,.2,.39,0,1.03,.12,2.05,.21,3.07,.06,.66,.24,1.3,.52,1.91,.71,1.57,1.39,3.14,2.08,4.71,.32,.74,.86,1.34,1.24,2.04,.11,.19,.3,.3,.5,.39,.36,.16,.66,.32,.69,.82,.02,.38,.42,.67,.67,.92,.96,.99,1.81,2.08,2.87,2.99,.52,.45,.96,1.02,1.44,1.54,.85,.91,1.6,1.9,2.55,2.72,.36,.31,.72,.76,1.03,1.21,.38,.56,.85,1.15,1.61,1.32,.08,.02,.14,.05,.17,.14,.47,1.33,1.55,2.24,2.36,3.32,.95,1.26,2,2.44,3.07,3.59,.75,.81,1.47,1.65,2.23,2.45,.75,.78,1.25,1.81,1.89,2.7,.75,1.06,1.15,2.28,1.68,3.44,.16,.34,.27,.69,.21,1.08-.08,.51,.22,.94,.29,1.42,.15,1.05-.02,2.12,.17,3.15,.17,.93,.08,1.86,.15,2.79,.11,1.55-.13,3.13-.98,4.52-.31,.51-.91,.71-1.36,1.07-.17,.13-.4,.21-.52,.38-.55,.79-1.4,.99-2.25,1.19-.04,0-.09,.01-.11,.04-.56,.57-1.26,.28-1.91,.31-1.15,.05-2.26,.28-3.39,.55-.94,.22-1.9,.44-2.81,.73-1.13,.37-2.31,.16-3.42,.57-.41,.15-.98-.08-1.49,0-1.5,.2-3.01,.1-4.52,.16-.7,.03-1.44,.12-2.11,.3-1.73,.48-3.48,.58-5.26,.62-1.4,.04-2.79,.26-4.19,.32-1.43,.06-2.81,.39-4.19,.74-.71,.18-1.4,.46-2.08,.73-.49,.19-1.02,.23-1.48,.5-.17,.1-.35,.17-.52,.25-.15,.07-.17,.19-.12,.34,.06,.17,.15,.19,.31,.15,.79-.18,1.57-.39,2.29-.75,.56-.28,1.18-.24,1.75-.42,.5-.16,.87-.63,1.25-.72,.37-.08,.9,.12,1.39,.08,1.68-.15,3.36-.32,5.04-.45,1.11-.08,2.24-.15,3.35-.23,1.39-.09,2.69-.65,4.08-.65,1.02,0,2.02-.23,3.06-.13,.7,.07,1.43-.01,2.14-.13,.68-.11,1.36-.05,2.03-.14,1.1-.14,2.18-.33,3.25-.6,.15-.04,.23-.13,.27-.28,.06-.2,.23-.23,.38-.17,.52,.22,.95,0,1.42-.18,.54-.21,1.14-.22,1.72-.3,1.23-.19,2.5-.1,3.7-.49,1.02-.33,2.06-.63,2.99-1.19,.62-.37,1.14-.4,1.79-.02,1.36,.79,2.55,1.79,3.81,2.72,.82,.6,1.17,1.47,1.8,2.17,.14,.15,.2,.36,.44,.41,.07,.01,.16,.08,.17,.14,.26,1.52,.58,3.06-.2,4.51-.6,1.12-1.56,1.73-2.91,1.83-.55,.04-1.14,.14-1.7,.23-.68,.12-1.32,0-1.95-.22-.59-.19-1.19-.06-1.79-.19-1.38-.31-2.74-.67-3.97-1.4-.19-.11-.45-.1-.67-.17-.72-.21-1.2-.81-1.85-1.16-1.35-.74-2.49-1.8-3.74-2.7-.06-.05-.13-.09-.2-.12-.21-.11-.42-.27-.64-.07-.27,.25,.05,.41,.15,.53,.26,.31,.41,.74,.91,.79,.23,.02,.26,.2,.19,.4-.14,.42-.02,.78,.21,1.14,.44,.72,.07,2.66-.65,3.08-.35,.21-.85,.24-1.26,.25-.65,.02-1.37-.02-1.95-.29-.93-.43-1.9-.82-2.77-1.41-.8-.54-1.43-1.25-2.09-1.91-.35-.35-.6-.89-.95-1.3-.08-.09-.13-.21-.28-.15-.13,.06-.14,.21-.14,.3,.04,.55,.03,1.13,.18,1.65,.09,.31,.09,.56,0,.84-.23,.76-.38,1.54-.69,2.27-.25,.58-.84,.94-1.41,1.12-.87,.28-1.8,.35-2.69,.02-.43-.16-.89-.14-1.3-.32-1.52-.69-2.84-1.6-3.55-3.2-.06-.13-.11-.25-.17-.37-.09-.19-.23-.35-.44-.31-.26,.04-.22,.26-.22,.46-.01,1.27-.82,2.35-1.86,2.52-.6,.1-1.19,.07-1.79-.08-1.29-.33-2.43-.88-3.41-1.82-.42-.41-.94-.76-1.34-1.19-.61-.66-1.4-1.17-1.77-2.06-.18-.43-.58-.8-.92-1.11-.75-.7-1.09-1.63-1.64-2.44-.1-.15-.17-.31-.33-.4-.19-.11-.35-.06-.4,.17-.21,.85-.61,1.67-.55,2.56,.04,.56,.04,1.13,.09,1.69,.06,.6-.15,.91-.72,1.1-1.95,.65-3.99,.85-5.98,1.25-.64,.13-1.33,.09-1.98-.01-.96-.15-1.31-.8-1.23-1.98Z"/><path class="cls-1" d="M66.53,131.65c-.31-.28-.56-.41-.93-.21-.57,.3-1.13,.02-1.71-.05-1.21-.13-2.42-.3-3.66-.24-1.29,.06-2.6-.09-3.9-.16-1.65-.09-3.3-.14-4.95-.29-1.21-.11-2.44-.19-3.63-.44-.06-.01-.13-.05-.17-.03-1.05,.49-1.9-.38-2.88-.41-1.05-.04-2.06-.39-3.14-.24-.62,.09-1.2-.7-1.13-1.37,.09-.87,.23-1.74,.12-2.62-.02-.2-.02-.34-.2-.5-.45-.41-.35-1-.4-1.53-.02-.25,.95-.84,1.17-.66,.49,.4,.88,.03,1.28-.05,1.24-.24,2.5-.41,3.73-.67,1.42-.3,2.84-.57,4.27-.84,1.67-.31,3.35-.53,5.03-.72,2.46-.28,4.86-.94,7.3-1.37,1.54-.27,3.09-.54,4.64-.8,1.72-.29,3.44-.6,5.17-.77,1.38-.14,2.64-.61,3.9-1.11,.98-.39,2.06-.4,3.01-.88,.1-.05,.28-.03,.4,.02,1.05,.46,2.15,.83,3.22,1.26,.98,.4,1.96,.9,3.09,.87,.45-.01,.86,.36,1.35,.25,.17-.04,.37,0,.52-.06,.36-.15,.52,0,.6,.32,.08,.32,.16,.64,.24,.97,.31,1.31,1.1,2.29,2.18,3.01,.43,.29,1.04,.29,1.5,.58,1.08,.71,2.29,.91,3.55,.92,.59,0,.74,.33,.75,.81,.04,1.63,.02,3.27,.11,4.9,.06,1.05-.09,2.09-.07,3.14,.05,2.16-.06,4.31-.16,6.47-.09,1.86-.18,3.72-.05,5.59,.03,.48-.13,.97-.1,1.45,.08,1.54-.42,3.02-.47,4.56-.02,.67-.28,1.34-.29,2.01-.03,1.21-.29,2.39-.41,3.58-.1,.98-.23,1.95-.51,2.92-.19,.65-.35,1.35-.39,2.06-.07,1.07-.38,2.11-.63,3.15-.21,.87-.52,1.71-.77,2.57-.04,.14-.1,.28-.23,.32-.58,.19-.49,.59-.36,1.04,.1,.35,.05,.51-.42,.49-1.38-.06-2.66-.56-4-.79-1.05-.17-2.03-.57-3.06-.8-1.32-.29-2.57-.9-3.88-1.08-1.49-.2-2.85-.85-4.34-1.01-1.21-.13-2.37-.64-3.57-.89-.88-.18-1.7-.46-2.47-.91-.28-.16-.57-.03-.86,.02-.23,.04-.54,.17-.65-.08-.29-.66-.98-.65-1.47-.92-.96-.53-2.01-.87-3.06-1.22-1.03-.34-2.05-.78-3.09-1.09-1.22-.36-2.34-.97-3.59-1.26-.82-.19-1.64-.47-2.39-.88-.2-.11-.39-.27-.35-.5,.18-.91,.12-1.84,.45-2.74,.28-.78,.59-1.57,.75-2.39,.08-.44,.4-.76,.49-1.19,.27-1.36,.83-2.62,1.26-3.93,.37-1.16,.93-2.28,1.33-3.43,.52-1.46,1.32-2.78,1.9-4.2,.2-.48,.44-.97,.76-1.38,.64-.85,.99-1.85,1.5-2.77,.65-1.16,1.28-2.34,1.98-3.48,.17-.28,.48-.22,.8-.35Z"/><path class="cls-1" d="M66.11,103.14c.99-.13,2-.19,2.9-.74,.33-.2,.75-.32,1.12-.42,.92-.24,1.43-.87,1.9-1.6,.23-.36,.48-.71,.72-1.07,.19-.29,.34-.43,.55,.01,.32,.69,.91,1.11,1.58,1.43,.17,.08,.38,.1,.57,.11,.27,.01,.54-.09,.61-.35,.07-.24-.18-.37-.37-.48-.45-.25-.82-.6-1.26-.86-.83-.5-1.15-1.41-1.78-2.07-.48-.51-.86-1.14-1.25-1.75-.65-1.04-1.06-2.16-1.4-3.31-.2-.69-.45-1.37-.61-2.07-.29-1.25-.5-2.53-.46-3.81,.02-.51-.19-1-.07-1.51,.05-.2,.04-.48,.27-.55,.28-.09,.32,.21,.44,.37,1.12,1.58,2.16,3.26,3.66,4.5,1.53,1.27,3.12,2.53,5.15,2.95,.81,.17,1.68,.19,2.36-.24,.45-.28,1.1-.55,1.16-1.28,0-.14,.05-.33,.26-.34,.18,0,.29,.12,.35,.27,.37,.89,1.21,1.41,1.75,2.16,.16,.23,.45,.3,.72,.37,.36,.11,.71,.21,1.07,.32,1.47,.45,2.99,.43,4.43,.09,.93-.22,1.62-1.07,2.03-2.04,.3-.71,.29-1.47,.51-2.19,.08-.25,.09-.53,.42-.56,.31-.03,.27,.25,.34,.44,.15,.38,.53,.57,.81,.82,1.35,1.18,2.89,1.96,4.71,2.18,.79,.1,1.55,.15,2.3-.16,1-.41,1.68-1.79,1.42-2.85-.08-.32-.07-.66-.2-.97-.07-.17-.06-.36,.1-.48,.19-.14,.32,.03,.46,.13,1.1,.73,2.2,1.46,3.31,2.17,.25,.16,.49,.42,.86,.27,.06-.02,.2,.05,.25,.12,.32,.5,.87,.51,1.35,.71,1.78,.75,3.73,.74,5.56,1.25,.17,.05,.35,.03,.53,.03,.7,0,.82,.04,.69,.68-.29,1.31-.31,2.66-.69,3.97-.5,1.74-1,3.47-1.59,5.18-.38,1.09-.07,1.9,.96,2.45,.63,.34,1.16,.79,1.7,1.25,.36,.31,.31,.61,0,.89-.38,.35-.85,.56-1.31,.76-1.12,.49-2.23,1.04-3.42,1.35-1.2,.3-2.01,.97-2.51,2.11-.39,.89-1.26,1.33-1.99,1.89-.41,.31-.83,.63-1.21,.96-1.1,.95-2.34,1.69-3.59,2.4-.38,.22-.84,.31-1.27,.42-1.85,.47-3.69,1.15-5.57,1.34-1.65,.17-3.36,.38-5.05-.1-1.27-.36-2.61-.46-3.9-.74-.94-.21-1.86-.53-2.83-.6-.11,0-.24-.07-.31-.15-.38-.45-.9-.5-1.43-.54-.41-.03-.79-.06-1.1-.42-.17-.2-.49-.29-.78-.37-.51-.14-.98-.29-1.41-.7-.53-.5-1.22-.85-1.87-1.22-1.41-.81-2.87-1.51-4.1-2.63-1.63-1.48-3.41-2.79-4.99-4.33-.59-.57-1.14-1.18-1.78-1.7-.29-.23-.29-.67-.54-.96-.1-.11,.03-.26,.21-.25,.18,0,.35,.02,.53,.03Zm40.12-.86c.51,.03,.9-.33,1.25-.6,.5-.38,1.12-.81,1.01-1.59-.04-.3-.04-.57,.02-.86,.42-1.85-.17-2.94-1.91-3.6-.09-.03-.18-.08-.27-.12-1.01-.37-1.97-.17-2.85,.34-.85,.5-1.25,1.37-1.63,2.23-.29,.65-.16,1.31,.05,1.96,.39,1.2,1.42,1.72,2.4,2.3,.04,.02,.12,0,.17-.02,.58-.23,1.17,.25,1.76-.05Zm-13,4.44c-.42,0-.49,.24-.49,.62-.02,2.08,.75,3.84,1.96,5.51,.57,.78,1.31,1.11,2.12,1.43,.25,.1,.47,.03,.62-.18,.18-.24-.02-.41-.17-.55-.17-.16-.39-.26-.58-.4-.35-.25-.82-.35-1.06-.71-.58-.85-.92-1.83-1.26-2.8-.29-.83-.54-1.66-.72-2.52-.04-.21-.16-.41-.43-.4Z"/><path class="cls-1" d="M66.1,101.86c-.7,.24-1.5,.02-2.31,0-.89-.02-1.42-.63-1.97-1.21-.08-.08-.12-.24-.21-.27-.96-.33-1.32-1.29-1.55-2.02-.55-1.69-1.38-3.33-1.27-5.2,.04-.71,.32-1.36,.39-2.06,.05-.46,.18-.92,.25-1.38,.04-.26,.18-.35,.4-.24,.81,.42,1.64,.26,2.49,.14,1.75-.24,3.44-.68,5.1-1.28,.48-.17,.72-.12,.79,.44,.16,1.26,.83,2.36,1.17,3.56,.42,1.48,1.04,2.87,2,4.1,.29,.37,.62,.73,.85,1.15,.15,.29,.32,.56-.14,.76-.13,.06-.27,.22-.29,.35-.15,.95-.97,1.42-1.49,2.11-.47,.62-1.24,.63-1.9,.78-.72,.16-1.45,.28-2.31,.23Z"/><path class="cls-1" d="M94.71,17.03c-.16,1.6-.72,3.05-1.67,4.37-.37,.51-.98,.81-1.15,1.5-.06,.24-.43,.22-.66,.31-.77,.29-1.47,.82-2.4,.44-1.68-.69-3.08-1.62-3.96-3.33-.45-.89-.58-1.79-.56-2.7,.02-1.25,1.08-3.32,2.82-3.66,.65-.13,1.32-.34,1.98-.37,1.26-.07,2.53,.03,3.61,.8,.56,.4,1.18,.69,1.59,1.33,.27,.43,.38,.83,.4,1.3Z"/><path class="cls-1" d="M77.99,173.51c.42,.2,.77,.15,1.19-.12,.55-.35,1.25-.26,1.89-.3,.79-.05,1.59-.06,2.39-.02,.98,.05,1.98,.04,2.92,.39,.25,.09,.53,.15,.8,.17,.65,.04,1.1,.46,.94,1.04-.21,.76,.01,1.63-.6,2.27-.04,.04-.06,.04-.03,.12,.29,.65,.18,1.27-.04,1.99-.22,.71-.26,1.49-.38,2.24-.01,.08-.02,.15-.03,.23-.14,.92-.24,1.05-1.07,.71-1.14-.46-2.32-.51-3.49-.53-1.36-.02-2.72,.1-4.08,.16-.27,.01-.45-.08-.47-.38-.06-1.14-.13-2.28-.17-3.42-.01-.43,.29-.72,.65-.89,1.24-.57,2.55-.75,3.92-.64,.63,.05,1.25-.05,1.9,.04,.71,.1,1.43,.12,2.12,.35,.22,.07,.61,.19,.68-.03,.11-.34-.3-.33-.52-.4-1.73-.61-3.53-.79-5.34-.64-.79,.07-1.61,.1-2.38,.47-.85,.41-1.24,.1-1.21-.84,0-.31,.03-.63,0-.94-.04-.38,.05-.7,.33-.96,.03-.02,.05-.04,.08-.06Z"/><path class="cls-1" d="M85.21,190.35c-1.65-.63-3.35-.27-5.03-.22-.44,.01-.85-.1-1.28-.11-.31,0-.35-.28-.33-.52,.09-.81-.12-1.58-.27-2.35-.07-.37-.02-.73-.08-1.1-.02-.15,.02-.4,.2-.46,.55-.18,1.12-.46,1.67-.44,.9,.04,1.77-.02,2.64-.18,.14-.02,.22-.03,.24-.17,.02-.2-.16-.12-.25-.16-.03-.02-.09-.03-.11-.02-.87,.43-1.76-.27-2.65,.04-.3,.1-.64,.08-.95,.24-.44,.22-.77,.01-.82-.46-.06-.58-.1-1.17-.18-1.75-.05-.33,.11-.43,.39-.42,1.28,.07,2.54-.12,3.81-.2,1.46-.1,2.9,.12,4.31,.48,.45,.12,.4,.52,.34,.83-.33,1.6-.38,3.24-.61,4.86-.05,.38,0,.85-.06,1.26-.08,.47-.29,.91-.9,.89-.03-.01-.05-.03-.08-.05Z"/><path class="cls-1" d="M68.62,167.09c-.22,.08-.32,.03-.42-.22-.13-.32-.55-.25-.8-.42-.85-.6-1.82-.9-2.76-1.3-.54-.23-1.05-.56-1.63-.67-1.01-.2-1.94-.7-2.99-.7-.41,0-.59-.22-.62-.61-.04-.56-.02-1.11-.15-1.67-.14-.61,.17-.85,.78-.79,1.01,.11,1.85,.69,2.82,.93,.81,.2,1.56,.6,2.36,.8,1.06,.26,1.98,.84,2.98,1.21,2.67,.99,5.36,1.91,8.15,2.49,.48,.1,1,0,1.45,.31,.28,.19,.35,.35,.15,.61-.14,.19-.27,.38-.44,.54-.91,.91-1.72,1.9-2.56,2.87-.39,.45-.75,.28-1.1-.03-1.46-1.24-3.11-2.2-4.73-3.2-.15-.09-.28-.22-.48-.15Z"/><path class="cls-1" d="M77.91,173.58c-.29-.01-.33-.2-.35-.44-.13-1.38-.11-2.75-.11-4.13,0-.26,.16-.44,.3-.62,.38-.47,.81-.9,1.13-1.42,.15-.24,.38-.23,.62-.19,1.28,.2,2.5,.58,3.72,1,.33,.11,.66,.27,1.02,.11,.06-.03,.17-.02,.23,.02,.93,.58,2.01,.67,3.03,.96,.23,.07,.46,.06,.69,.04,.54-.06,.77,.23,.83,.76,.06,.52-.31,1.03-.03,1.54-.55,.63-.32,1.47-.6,2.17-.12,.29-.3,.39-.64,.19-1.38-.78-2.91-1.08-4.46-1.13-.61-.02-1.29,.11-1.88,.09-.63-.02-1.24,.05-1.86,.09-.66,.04-1.12,.43-1.55,.88-.03,.02-.05,.04-.08,.06Z"/><path class="cls-1" d="M79.86,193.88c1.62-.16,3.24-.33,4.85-.48,.19-.02,.39,0,.58,0,.37,0,.47,.17,.38,.53-.21,.77-.21,1.57-.23,2.37-.01,.56-.25,1.09-.35,1.64-.16,.9-.21,1.85-.57,2.69-.23,.54-.31,1.12-.51,1.67-.06,.16-.14,.35-.11,.51,.12,.64-.21,.8-.76,.78-.35-.01-.7-.02-.99,.24-.09,.08-.17,.06-.26,0-.48-.26-.97-.49-1.43-.78-1.02-.65-.89-1.81-1.21-2.78-.25-.76,.11-1.47,.04-2.21-.09-.96-.18-1.91-.28-2.87-.01-.12-.04-.23-.05-.35q-.06-.97,.88-.97Z"/><path class="cls-1" d="M60.26,181.21c-.76,.24-1.71-.17-2.65-.3-.55-.08-1.05-.6-1.62-.82-.04-.02-.1-.1-.09-.14,.14-.61,0-1.22-.01-1.82-.02-1.38-.11-2.74-.42-4.09-.11-.47-.15-.94-.34-1.4-.13-.31,.05-.66,.45-.5,.87,.37,1.78,.17,2.64,.13,.85-.04,1.24,.5,1.67,.94,.49,.5,.89,1.12,1.35,1.66,.87,1.04,1.47,2.22,2.1,3.4,.16,.29,.29,.59,.44,.89,.17,.33,.08,.6-.18,.84-.94,.87-1.82,1.21-3.32,1.21Z"/><path class="cls-1" d="M60.15,171.26c-.37-.07-.51-.4-.41-.65,.27-.68,.08-1.35,.01-2.01-.07-.76,.04-.88,.77-.64,1.24,.4,2.42,.96,3.62,1.47,1.43,.61,2.85,1.22,4.27,1.84,.59,.26,1.09,.67,1.75,.86,.56,.17,1.13,.32,1.7,.5,.42,.13,.43,.35,.19,.64-1.28,1.58-2.79,2.9-4.48,4.01-.33,.22-.5,.05-.71-.22-.92-1.19-1.72-2.49-2.92-3.44-.83-.67-1.7-1.3-2.63-1.82-.43-.08-.79-.32-1.15-.55Z"/><path class="cls-1" d="M25.35,128.15c.08-.25-.06-.52,.11-.75,.15-.2,.23-.43,.59-.3,.36,.13,.71-.08,.96-.32,.53-.52,1.16-.69,1.86-.7,.29,0,.55-.07,.79-.19,.67-.34,1.38-.54,2.13-.62,.59-.06,1.06-.42,1.6-.63,.28-.11,.4-.21,.73,.03,.43,.3,1.05,.22,1.59,.19,1.01-.05,2.03-.13,3.03-.23,.45-.04,.58,.14,.51,.54-.11,.54-.08,1.09-.09,1.63-.01,.83-.28,1.09-1.09,1.02-.63-.06-1.26,.28-1.89-.02-.05-.03-.18,.11-.28,.18-.1,.06-.24,.2-.29,.17-.52-.31-.71,0-1,.39-.3,.4-.55,.79-.72,1.25-.37,.99-1.06,1.77-1.78,2.51-.16,.16-.36,.37-.61,.19-.2-.14-.26-.41-.18-.64,.24-.74,.42-1.51,.78-2.21,.13-.24,.31-.5,.13-.77-.18-.27-.48-.2-.75-.18-1.03,.09-2.06,.18-3.04,.53-.39,.14-.79,.22-1.21,.12-.13-.03-.28-.01-.41,.02-.92,.27-1.49-.21-1.46-1.21Z"/><path class="cls-1" d="M59.48,165.27c.02-.7,.55-.97,1.3-.64,.98,.43,2.01,.72,3.04,1.02,.65,.19,1.25,.53,1.86,.82,1.96,.91,3.93,1.79,5.77,2.93,.64,.39,1.29,.79,1.99,1.09,.52,.22,.6,.69,.21,1.07-.23,.21-.45,.44-.63,.69-.21,.31-.48,.32-.68,.09-.52-.59-1.29-.57-1.92-.88-.68-.33-1.3-.76-1.98-1.08-.1-.05-.19-.15-.3-.18-1.67-.53-3.19-1.41-4.81-2.05-.63-.25-1.2-.65-1.86-.85-.43-.13-.86-.27-1.32-.2-.31,.05-.5-.08-.54-.39-.06-.46-.11-.93-.16-1.43Z"/><path class="cls-1" d="M35.55,178.44c.1-1.49,.49-2.83,.87-4.19,.44-1.58,1.08-3.09,1.44-4.69,.17-.73,.68-1.35,1.41-1.7,.99-.48,1.33-.43,2.17,.32,.48,.43,.49,.82-.08,1.1-1.16,.58-1.11,1.56-1,2.59,.05,.49-.15,.93-.39,1.32-.42,.7-.94,1.33-1.24,2.1-.1,.25-.32,.45-.16,.75,.05,.09,0,.21-.08,.26-.77,.49-.62,1.34-.74,2.05-.16,.94-.07,1.89,.2,2.81,.08,.26,.04,.5-.16,.63-.21,.14-.36-.08-.54-.2-1.13-.78-1.63-1.88-1.71-3.14Z"/><path class="cls-1" d="M78.74,209.84c.05-.6,.09-1.01,.12-1.42,.03-.39,.24-.41,.51-.22,.72,.48,1.51,.71,2.36,.74,.47,.02,.9,0,.94-.64,.01-.23,.22-.22,.41-.19,.69,.11,1.38,.22,2.08,.31,1.16,.14,2.3-.04,3.46-.1,1.44-.07,2.65-.7,3.89-1.31,.16-.08,.32-.16,.49-.2,.33-.07,.52,.09,.41,.42-.39,1.22-.9,2.31-2.11,3.02-.91,.54-1.83,.92-2.88,.97-.77,.04-1.64,.12-2.28-.13-1.1-.43-2.12-.22-3.17-.11-1.11,.11-2.15-.25-3.22-.43-.1-.02-.19-.06-.29-.06-.59,.01-.83-.26-.74-.65Z"/><path class="cls-1" d="M52.47,172.81c-.13,1.69-.05,3.23,.03,4.78,.03,.67-.28,.86-.98,.54-.97-.45-1.92-.94-2.89-1.37-.83-.38-1.59-.91-2.5-1.14-.3-.08-.55-.43-.36-.75,.46-.82,.72-1.71,1.02-2.59,.23-.68,.65-.91,1.37-.88,1.16,.05,2.3,.32,3.48,.19,.54-.06,.79,.24,.8,.79,0,.19,.03,.38,.03,.43Z"/><path class="cls-1" d="M96.63,122.23c0,.61-.4,.94-1.04,.9-.93-.07-1.79-.35-2.58-.87-.12-.08-.24-.12-.37-.16-1.4-.39-2.57-1.09-3.29-2.4-.17-.3-.23-.66-.3-1.01-.11-.51,0-.62,.51-.46,.86,.27,1.76,.37,2.65,.48,1.13,.14,2.25-.15,3.37-.26,.48-.05,.69,.04,.74,.54,.11,1.11,.12,2.22,.32,3.24Z"/><path class="cls-1" d="M60.15,171.26c.36,.23,.72,.46,1.15,.55,.38,.68,1.05,1.08,1.64,1.52,.74,.54,1.26,1.26,1.81,1.94,.56,.69,1.01,1.47,1.54,2.19,.2,.28,.18,.48-.04,.72-.41,.43-.95,.68-1.42,1.02-.24,.17-.46-.01-.57-.3-.59-1.5-1.49-2.82-2.56-4-.73-.8-1.27-1.71-1.88-2.59-.4-.57-.31-.79,.33-1.04Z"/><path class="cls-1" d="M85.28,190.39c.18,.29,.67,.38,.63,.79-.06,.6-.06,1.21-.31,1.78-.09,.2-.25,.26-.43,.21-1.63-.4-3.27,0-4.9-.08-.29-.01-.59,0-.88,0-.59-.02-.72-.17-.66-.75,.03-.31,.03-.61-.05-.92-.1-.39,.06-.71,.55-.66,1.44,.14,2.86-.25,4.31-.2,.42,.02,.84-.26,1.29,0,.15,.09,.28-.09,.38-.21,.02,.02,.05,.03,.08,.05Z"/><path class="cls-1" d="M53.13,177.79c0-1.26-.04-2.51-.27-3.76-.1-.54-.1-1.11-.18-1.66-.05-.38,.12-.65,.58-.57,.06,0,.12,0,.17,.01,1.5,.35,1.36,0,1.65,1.67,.26,1.51,.08,3.03,.15,4.54,.02,.35,.04,.7,.04,1.05,0,.57-.15,.66-.67,.43-.16-.07-.32-.16-.48-.22-.98-.4-1-.43-1-1.49Z"/><path class="cls-1" d="M82.23,205.7c.1,.48-.13,.91-.14,1.35,0,.18-.03,.35-.05,.53-.04,.29,.34,.7-.03,.85-.37,.15-.88,.12-1.25-.07-.98-.54-.94-.2-.79-1.46,.02-.19,.04-.41-.04-.58-.32-.69-.13-1.38-.08-2.08,.02-.36,.18-.53,.52-.24,.16,.14,.36,.16,.55,.15,.56-.03,.44,.68,.73,.75,.5,.11,.7,.28,.58,.78,0,.02,0,.04,0,.03Z"/><path class="cls-1" d="M41.52,170.54c.51,.13,1.02,.25,1.52,.41,.65,.21,1.33,.29,1.99,.47,.92,.25,1.08,.62,.65,1.45-.21,.41-.44,.71-1.04,.46-1.01-.42-2.07-.71-3.11-1.06-.64-.22-.88-1-.5-1.51,.15-.2,.3-.22,.51-.2Z"/><path class="cls-1" d="M108.18,98.46c-.05,1.15-.64,1.96-1.53,2.58-.48,.33-1.03,.6-1.64,.48-.79-.15-1.49-.46-1.91-1.21-.04-.07-.05-.16-.11-.2-1.03-.84-.27-1.75,.04-2.51,.37-.88,1.17-1.47,2.2-1.48,.39,0,.8,.14,1.18,.28,.29,.1,.51,.23,.18,.62-.23,.26-.3,.67-.38,1.02-.08,.33,.05,.63,.35,.8,.39,.23,.78,.18,1.16-.05,.15-.09,.18-.31,.45-.32Z"/></g><image width="913" height="1872" transform="translate(155.24 30.54) rotate(-161.75) scale(.11 -.11)" xlink:href="game-elf-01.png"/></g></g></svg>