<?xml version="1.0" encoding="UTF-8"?><svg id="_圖層_2" xmlns="http://www.w3.org/2000/svg" xmlns:xlink="http://www.w3.org/1999/xlink" viewBox="0 0 159.52 231.86"><defs><style>.cls-1{fill:#fff;stroke:#fff;stroke-linecap:round;stroke-linejoin:round;stroke-width:7px;}</style></defs><g id="_圖層_1-2"><g><g><path class="cls-1" d="M34.8,71.15c-.08-.68-.1-1.43-.27-2.14-.19-.79-.17-1.59-.16-2.38,.02-1.27-.13-2.54-.17-3.8-.05-1.69,.11-3.35,.33-5.01,.19-1.49,.53-2.96,.66-4.46,.09-1.1,.22-2.2,.2-3.31-.02-1.16,.12-2.33,.17-3.49,.13-3.24,.29-6.47,.22-9.71,0-.18-.08-.39,.17-.46,.19-.05,.29,.09,.4,.22,.66,.72,1.18,1.54,1.84,2.26,.71,.77,1.48,1.37,2.39,1.88,.86,.48,1.65,1.11,2.51,1.62,1.2,.73,2.47,1.35,3.75,1.91,.04,.02,.08,.03,.12,.03,1.21-.21,2.19,.54,3.28,.79,1.12,.26,2.25,.47,3.37,.69,1.88,.36,3.74,.83,5.61,1.19,1.39,.26,2.73,.83,4.15,.83,.53,0,.95,.18,1.42,.32,2.82,.84,5.66,1.64,8.52,2.36,1.26,.31,2.57,.48,3.81,.83,1.02,.28,2.01,.79,3.02,1.18,1.14,.44,2.07,1.24,3.15,1.75,.14,.07,.26,.19,.38,.31,1.34,1.33,2.58,2.74,3.7,4.26,.93,1.26,2.01,2.4,2.74,3.81,.49,.94,.84,1.92,.96,2.97,.07,.61-.36,1.11-.49,1.69-.33,1.48-1.42,2.54-2.19,3.79-.18,.29-.41,.53-.67,.72-1.07,.77-1.99,1.66-2.8,2.7-1.09,1.41-2.54,2.48-3.82,3.72-1.68,1.63-3.7,2.81-5.56,4.21-1.99,1.5-3.81,3.2-5.62,4.91-1.68,1.58-3.51,2.99-5.16,4.6-1.71,1.67-3.42,3.33-4.83,5.26-.24,.33-.44,.72-.37,1.15,.07,.46-.15,.42-.46,.34-1-.24-1.95-.58-2.82-1.12-.12-.07-.27-.12-.4-.15-.23-.04-.47-.27-.69-.02-.2,.23,.14,.34,.17,.53,.04,.22,.1,.45,.1,.67,0,.42,.19,.71,.44,1.03,.69,.89,1.17,1.9,1.06,3.05-.08,.89-.61,1.63-1.23,2.22-1.23,1.17-2.52,2.29-3.94,3.23-.14,.09-.27,.19-.41,.27-1.26,.7-1.84,.53-2.55-.69-.71-1.22-1.49-2.39-2.12-3.65-.36-.72-.72-1.46-1.09-2.18-.64-1.27-1.54-2.39-2.31-3.59-.57-.89-1.11-1.81-1.68-2.7-.41-.64-.77-1.34-1.02-2.09-.44-1.3-.95-2.58-1.42-3.87-.25-.67-.52-1.34-.7-2.03-.26-1.01-.74-1.95-.93-3.01-.12-.68-.55-1.41-.71-2.09-.26-1.17-.6-2.33-.79-3.52-.17-1.07-.56-2.09-.66-3.18-.1-1.06-.34-2.1-.44-3.16-.05-.49-.36-.94-.18-1.5Z"/><path class="cls-1" d="M83.17,141.36c-.42-.07-.72-.08-.9,.38-.16,.4-.53,.63-.96,.81-1.33,.54-2.56,1.26-3.73,2.12-1.05,.78-2.18,1.44-3.3,2.13-1.73,1.06-3.35,2.3-5.17,3.18-.99,.48-1.87,1.15-2.88,1.56-.31,.13-.68,.22-.73,.66-.01,.12-.13,.16-.24,.17-1.55,.19-2.81,1.06-4.14,1.77-.17,.09-.3,.2-.43,.34-.66,.69-1.68,.55-2.1-.32-.42-.88-1-1.65-1.57-2.43-.1-.14-.22-.16-.36-.18-.71-.14-.79-.35-.69-1.06,.18-1.2,.91-2.02,1.73-2.8,.69-.66,1.4-1.32,2.03-2.02,1.15-1.27,2.38-2.47,3.57-3.7,1.07-1.11,2.19-2.18,3.38-3.17,.94-.78,1.83-1.65,2.64-2.57,.44-.5,.89-1.01,1.36-1.49,1.49-1.54,2.95-3.12,4.51-4.59,1.79-1.69,3.54-3.44,5.4-5.07,.86-.75,1.4-1.8,2.05-2.74,.66-.96,1.55-1.73,2.18-2.71,.08-.12,.28-.2,.43-.22,1.22-.15,2.41-.53,3.6-.81,1-.23,2.1-.39,2.99-1.11,.33-.26,.89-.25,1.27-.56,.09-.08,.21-.13,.31-.2,.66-.55,.72-.58,1.32,.07,.79,.87,1.8,1.31,2.9,1.56,.69,.15,1.42,.04,2.1-.17,.45-.14,.92-.15,1.36-.23,.85-.16,1.7-.43,2.42-.95,.07-.05,.12-.12,.18-.17,.82-.57,1.02-.52,1.66,.26,1.08,1.32,1.94,2.8,3.01,4.11,.83,1.01,1.5,2.13,2.25,3.19,1,1.4,1.92,2.89,2.83,4.36,1.19,1.92,2.47,3.79,3.78,5.64,1.06,1.5,1.95,3.13,2.77,4.79,.61,1.24,1.29,2.45,1.95,3.66,.74,1.34,1.53,2.68,2.1,4.11,.88,2.2,2.07,4.26,2.82,6.5,.25,.75,.48,1.52,.71,2.28,.24,.79-.37,2.77-.95,3-1.1,.43-2.17,.94-3.26,1.36-.82,.32-1.72,.59-2.57,.9-1.35,.49-2.79,.76-4.07,1.39-1.71,.83-3.55,1.28-5.25,2.11-.8,.4-1.71,.58-2.52,.98-1.51,.74-3.16,.75-4.75,1.1-.75,.16-1.42,.55-2.16,.73-1.96,.48-3.89,1.12-5.86,1.59-1.87,.45-3.7,1.08-5.54,1.63-.3,.09-.6,.11-.91,.16-.28,.04-.48-.07-.57-.27-.39-.91-1.03-1.68-1.28-2.69-.21-.86-.61-1.7-.78-2.57-.21-1.05-.67-2.02-.89-3.06-.26-1.21-.66-2.4-1.05-3.58-.24-.75-.36-1.51-.47-2.28-.07-.51-.36-.94-.43-1.46-.28-1.98-.67-3.93-.82-5.94-.09-1.23-.28-2.47-.47-3.7-.15-.98-.24-2.01-.26-3.02,0-.34,.33-.46,.43-.78Z"/><path class="cls-1" d="M81.37,91.57c-.09-.83-.23-1.64-.72-2.37-.22-.32-.34-.74-.4-1.14-.06-.35,.24-.53,.51-.35,.79,.53,1.68,.42,2.54,.47,1.83,.11,3.49-.52,5.03-1.43,1.79-1.07,1.92-3.05,.58-4.48-.25-.27-.53-.51-.8-.76-.14-.14-.25-.3-.16-.49,.08-.16,.28-.15,.45-.14,1.55,.1,3.1,.07,4.63-.13,1.53-.2,3.05-.53,4.48-1.16,.95-.42,1.87-.91,2.81-1.36,.49-.24,1.02-.37,1.45-.77,.32-.3,.64,.09,.75,.38,.5,1.33,1.32,2.5,1.79,3.85,.62,1.78,1.23,3.56,1.74,5.37,.35,1.23,1.08,1.75,2.35,1.61,.72-.08,1.44,0,2.15,.03,.53,.02,.64,.35,.59,.81-.07,.64-.45,1.16-.77,1.67-.91,1.44-1.89,2.82-2.85,4.22-.16,.23-.3,.49-.22,.75,.46,1.59,.01,3.07-.52,4.55-.32,.88-.52,1.8-.83,2.69-.49,1.41-1.03,2.81-2.06,3.92-1.44,1.57-2.54,3.47-4.22,4.77-1.35,1.05-2.63,2.24-4.34,2.81-1.34,.45-2.57,1.18-3.87,1.75-.65,.29-1.37,.4-1.99,.77-.95,.56-2.07,.58-3.09,.99-.84,.34-1.9,.48-2.88,.54-.96,.06-1.93-.03-2.9,.07-1.52,.15-3.03,.41-4.58,.24-2.13-.24-4.27-.42-6.41-.61-1.19-.11-2.34-.46-3.54-.55-.34-.03-.67-.29-.97-.5-.21-.15-.03-.32,.11-.38,.85-.35,1.33-1.09,1.86-1.75,.76-.95,1.46-1.96,1.91-3.1,.28-.7,.01-1.5,.07-2.26,.06-.9,.03-.92,.91-.61,.61,.21,1.22,.18,1.83,.07,.18-.03,.35-.11,.51-.21,.24-.14,.42-.45,.38-.64-.06-.28-.41-.24-.69-.24-.84,0-1.7,.08-2.52-.08-.64-.13-1.26-.45-1.91-.63-.76-.21-1.49-.52-2.23-.82-1.02-.41-1.93-1.01-2.77-1.68-1-.81-2.09-1.51-2.94-2.51-.64-.75-1.38-1.41-1.89-2.26-.27-.44-.75-.7-.92-1.21-.07-.21-.23-.43-.03-.63,.2-.21,.38,0,.56,.08,1.93,.72,3.87,1.48,5.93,1.66,2.09,.19,4.24,.27,6.23-.62,.9-.4,1.66-.98,1.98-2.07,.16-.53,.22-.97,.06-1.47-.1-.34,.09-.42,.36-.34,.35,.1,.72,.2,1.04,.37,.56,.29,1.2,.18,1.77,.42,.29,.12,.6,.08,.91-.02,.61-.2,1.22-.37,1.83-.56,.12-.04,.27-.05,.34-.13,.73-.77,1.75-1.11,2.52-1.83,.76-.72,.96-1.62,1.08-2.6Zm19.32-2.28c-.01-.2-.02-.58-.42-.83-.14-.09-.23-.29-.29-.46-.76-2.2-2.57-2.87-4.72-1.82-.54,.26-.98,.6-1.34,1.13-.65,.96-.69,1.97-.55,3.06,.17,1.36,1.29,2.6,2.63,2.82,1.2,.2,2.31-.09,3.28-.79,.98-.7,1.4-1.72,1.4-3.11Zm-3.44,19.04c.61-.13,1.18-.23,1.74-.37,.22-.06,.38-.23,.38-.5,0-.34-.26-.32-.47-.38-.26-.08-.53-.04-.8,0-.43,.06-.88,.18-1.29,.03-1.02-.39-1.93-.99-2.8-1.62-.74-.54-1.43-1.17-2.14-1.75-.21-.17-.45-.33-.7-.04-.21,.24-.25,.46-.02,.76,1.07,1.4,2.32,2.55,3.99,3.17,.71,.26,1.43,.49,2.11,.72Z"/><path class="cls-1" d="M82.87,87.53c-.63,.07-1.64-.26-2.65-.4-.33-.05-.77-.24-1.14-.42-.07-.04-.15-.11-.22-.1-.22,.02-.5-.1-.64,.07-.17,.21,.12,.36,.23,.51,.32,.46,.72,.85,1.14,1.23,.48,.42,.53,1.1,.75,1.66,.46,1.13,.62,2.32-.29,3.32-.53,.58-1.16,1.1-1.93,1.35-.64,.21-1.23,.61-1.91,.66-.96,.07-1.92,.38-2.89,.07-.74-.24-1.48-.49-2.15-.91-.19-.12-.38-.2-.55,0-.17,.19-.04,.35,.09,.54,.56,.83,.65,1.74,.38,2.7-.09,.3-.39,.39-.55,.63-.48,.7-1.29,.88-2.02,1.15-1.1,.4-2.23,.48-3.39,.31-.7-.1-1.42-.09-2.12-.2-.77-.12-1.54-.27-2.29-.49-.29-.08-.5-.35-.14-.7,.73-.72,1.31-1.55,1.85-2.43,.32-.52,.86-.96,1.28-1.45,.22-.26,.41-.53,.3-.88-.1-.33,.11-.42,.31-.33,.37,.15,.48-.1,.68-.29,.54-.5,1.21-.89,1.68-1.42,.65-.73,1.48-1.2,2.19-1.84,1.11-1,2.3-1.9,3.5-2.79,.73-.54,1.22-1.3,1.86-1.92,.49-.48,.98-.98,1.52-1.4,1.04-.82,2.1-1.62,3.17-2.39,1-.72,1.9-1.57,2.87-2.33,.75-.59,1.35-1.37,2-2.07,.09-.1,.19-.2,.11-.38-.13-.31,0-.44,.33-.48,.45-.06,.67-.49,.9-.79,.45-.61,.97-1.14,1.56-1.62,1.55-1.28,3.05-2.62,4.08-4.39,.29-.49,.57-.99,.81-1.5,.19-.42,.55-.56,.93-.6,1.28-.14,2.56-.08,3.84-.06,.79,0,1.59,.09,2.36,.17,.54,.06,1.15,.44,1.74,.65,.29,.1,.57,.38,.92,.12,.04-.03,.17,.02,.21,.07,.95,1.06,1.99,2.06,2.4,3.5,.27,.95,.13,1.89-.36,2.66-.84,1.33-1.97,2.44-3.4,3.14-1.32,.64-2.57,1.45-3.99,1.85-.82,.23-1.65,.59-2.54,.54-.27-.01-.47,.12-.69,.22-.59,.28-1.21,.05-1.82,.13-.81,.1-1.66,.22-2.43,.14-1.1-.11-2.2-.07-3.29-.13-.25-.01-.53-.07-.59,.27-.07,.4,.31,.47,.51,.47,.41,.01,.81,.33,1.24,.07,.18-.11,.31-.03,.35,.18,.08,.46,.45,.65,.79,.89,.86,.6,1.39,1.37,1.46,2.48,.06,.9-.6,1.28-1.14,1.65-.38,.26-.82,.53-1.29,.68-1.14,.37-2.31,.6-3.93,.67Z"/><path class="cls-1" d="M61.77,117.57c-.91,.07-1.71-.33-2.6-.23-.29,.03-.77-.35-1.17-.53-.85-.39-1.49-1.1-2.31-1.56-.63-.35-1.2-.91-1.68-1.5-.64-.78-1.22-1.58-1.53-2.56-.16-.48-.45-.92-.67-1.38-.25-.51-.14-.66,.39-.85,.69-.25,1.27-.67,1.79-1.21,.92-.95,1.89-1.84,2.69-2.92,.42-.56,.84-1.14,1.31-1.68,.17-.2,.34-.24,.51-.05,.98,1.1,2.33,1.71,3.46,2.62,1.53,1.24,3.26,2.12,5.16,2.65,.51,.14,1.16,.22,.76,1.08-.09,.2,.05,.52,.11,.78,.22,.95,0,1.9-.28,2.76-.23,.66-.86,1.2-1.42,1.71-1.11,1.02-2.29,1.95-3.63,2.67-.31,.16-.59,.27-.88,.22Z"/><path class="cls-1" d="M108.69,172.78c-.34,.07-.47-.09-.57-.23-1.07-1.41-2.13-2.83-3.2-4.25-.14-.18-.12-.3,.03-.47,.31-.37,.73-.52,1.16-.66,1.51-.49,3.07-.81,4.51-1.47,1.99-.92,4.05-1.62,6.14-2.21,.72-.2,1.29-.71,2.03-.88,.92-.21,.92-.2,1.43,.63,.53,.86,.95,1.76,1.42,2.65,.44,.84,.43,.88-.29,1.45-1.37,1.09-2.98,1.79-4.49,2.65-2.15,1.22-4.53,1.8-6.85,2.52-.47,.15-.98,.1-1.32,.27Z"/><path class="cls-1" d="M39.33,29.67c.2,.68-.26,1.46-.04,2.25,.02,.07-.03,.16-.07,.23-.74,1.33-1.57,2.46-3.33,2.57-1.6,.1-3.05-.06-4.47-.9-1.6-.93-2.86-3.21-2.51-4.98,.16-.85,.65-1.57,1.21-2.18,1.51-1.64,3.29-2.71,5.64-2.63,1.63,.06,2.82,1.05,3.07,2.68,.07,.44,.31,.81,.4,1.26,.1,.53,.13,1.05,.1,1.68Z"/><path class="cls-1" d="M131.35,206.34c-1.06-.02-1.88-.27-2.68-.61-.39-.16-.52-.53-.66-.85-.33-.74-.44-1.53-.41-2.34,.01-.37,.22-.36,.49-.34,1.74,.1,3.39-.26,4.91-1.12,.47-.26,.87-.62,1.08-1.13,.09-.21,.19-.4,.45-.26,.61,.33,1.27,.27,1.92,.31,1.9,.13,3.81,.25,5.71,.21,.59-.01,1.06,.3,1.55,.55,.45,.23,.41,.68-.09,.96-.8,.46-1.63,.86-2.45,1.27-1.42,.73-2.96,1.17-4.44,1.75-1.4,.55-2.86,.9-4.27,1.38-.42,.14-.83,.24-1.09,.22Z"/><path class="cls-1" d="M83.07,192.54c0-1.51-.08-3.04-.23-4.57-.08-.8-.02-1.6,.32-2.34,.34-.73,2.13-1.33,2.8-.92,.19,.11,.35,.3,.17,.51-.72,.8-.77,1.77-.67,2.76,.11,1.2,.23,2.4,.66,3.54,.17,.46,.29,.98,.96,1.08,.34,.05,.34,.45,.32,.77-.07,.92-.13,1.84-.18,2.76-.09,1.5-.04,2.99,.44,4.43,.24,.73,.36,1.51,.85,2.17,.31,.43,.13,.71-.45,.74-1.24,.06-2.18-.52-2.84-1.54-.79-1.22-1.18-2.61-1.62-3.98-.56-1.76-.72-3.55-.54-5.4Z"/><path class="cls-1" d="M53.81,157.17c-.18-.02-.31,.1-.12,.35,.18,.22,.12,.41,.04,.63-.14,.41-.03,.82,.07,1.22,.27,1.14,.27,2.28,.03,3.42-.05,.25-.09,.52-.39,.56-.32,.04-.48-.2-.56-.47-.26-.82-.58-1.63-.7-2.5-.03-.26-.1-.5-.35-.61-.26-.12-.45,.06-.66,.21-.94,.71-1.75,1.56-2.45,2.49-.43,.57-1.13,.8-1.52,1.42-.24,.37-.78,.06-1.1-.02-.56-.14-.75-.77-.95-1.27-.16-.39,.14-.57,.48-.72,.31-.14,.39-.49,.44-.78,.14-.75,.64-1.23,1.17-1.69,.33-.28,.64-.55,.77-1,.13-.44,.55-.7,.84-1.02,.61-.68,1.19-1.38,1.58-2.21,.05-.1,.1-.2,.21-.2,1.14,0,1.8-.86,2.6-1.47,.6-.46,1.2-.93,1.79-1.41,.28-.22,.43-.19,.61,.14,.29,.54,.64,1.05,.98,1.57,.47,.71,.4,1.03-.32,1.49-.55,.35-.95,.91-1.62,1.08-.16,.04-.19,.26-.22,.42-.06,.31-.21,.49-.67,.36Z"/><path class="cls-1" d="M98.49,176.13c.01-1.31,.02-1.34,1.08-.92,1.65,.67,3.37,1.1,5.05,1.66,1.82,.61,3.65,1.05,5.56,1.21,1.33,.11,2.11,1.69,1.49,2.87-.08,.15-.16,.29-.23,.44-.45,.97-.46,1.02-1.51,.88-1.65-.21-3.29-.45-4.92-.77-1.64-.32-3.08-1.19-4.56-1.94-.35-.18-.69-.37-1.08-.45-.49-.1-.69-.42-.73-.86-.07-.77-.12-1.54-.16-2.12Z"/><path class="cls-1" d="M124.56,175.33c0,.27-.07,.43-.24,.55-2.03,1.4-3.99,2.9-6.4,3.69-1.05,.35-2.11,.66-3.14,1.05-.48,.18-.82,.16-1.13-.33-.6-.93-1.27-1.81-1.92-2.7-.31-.42-.07-.58,.31-.7,.85-.25,1.69-.51,2.53-.77,2.44-.75,4.78-1.69,6.81-3.3,.51-.4,1.07-.74,1.59-1.12,.19-.14,.39-.24,.49,.05,.39,1.21,.75,2.43,1.1,3.58Z"/><path class="cls-1" d="M127.34,183.85c.02,.27-.12,.43-.32,.57-2.02,1.39-4.01,2.84-6.33,3.72-1.36,.52-1.4,.51-2.14-.74-.54-.91-1.25-1.71-1.75-2.65-.26-.47-.17-.67,.33-.78,3.11-.64,5.7-2.28,8.16-4.18,.53-.41,.6-.37,.81,.26,.34,1.07,.72,2.13,1.09,3.2,.07,.19,.11,.4,.16,.59Z"/><path class="cls-1" d="M111.01,176.19c-.16,.02-.28-.03-.37-.16-.45-.63-.91-1.27-1.36-1.9-.27-.37-.18-.61,.27-.7,1.4-.27,2.74-.73,4.1-1.12,1.95-.56,3.69-1.59,5.46-2.53,.93-.49,1.83-1.01,2.65-1.68,.24-.2,.38-.17,.51,.12,.33,.69,.56,1.41,.76,2.15,.1,.37-.14,.53-.39,.68-1.81,1.12-3.54,2.4-5.53,3.19-1.95,.77-3.98,1.32-5.98,1.92-.04,.01-.08,.02-.12,.03Z"/><path class="cls-1" d="M99.4,183.19c.11,.06,.22,.12,.33,.18,1.48,.79,3.03,1.44,4.64,1.88,1.44,.39,2.93,.61,4.43,.62,.5,0,.58,.23,.44,.62-.53,1.46-1.1,2.91-1.61,4.38-.15,.44-.37,.41-.7,.24-2.7-1.43-5.18-3.17-7.37-5.32-.27-.26-.62-2.08-.47-2.4,.06-.13,.19-.15,.3-.19Z"/><path class="cls-1" d="M125.38,195.78c-.53,.07-.91-.42-1.32-.8-.76-.71-1.44-1.51-2.04-2.36-.29-.41-.34-.67,.25-.81,2.3-.53,4.15-1.88,5.93-3.34,.38-.31,.6-.24,.73,.24,.37,1.32,.73,2.65,1.1,3.98,0,.02,.01,.04,.01,.06,0,.32,.44,.54,.28,.84-.19,.35-.62,.48-.97,.61-.98,.37-1.88,.89-2.82,1.33-.31,.15-.66,.22-1.16,.24Z"/><path class="cls-1" d="M103.73,195.63c-.38-.07-.77-.1-1.15-.21-1.32-.38-2.63-.77-3.95-1.16-.45-.13-.71-.39-.84-.87-.26-.94-.85-1.73-1.28-2.59-.55-1.1-1.07-2.21-1.46-3.38-.21-.65-.17-.68,.51-.71,.35-.02,.71,0,1.03-.13,.63-.23,.92,.03,1.15,.58,1.09,2.57,2.98,4.53,5,6.36,.6,.55,1.31,1.07,2.14,1.3,.13,.04,.23,.1,.24,.24,.01,.15-.08,.22-.21,.26-.39,.13-.76,.33-1.19,.32Z"/><path class="cls-1" d="M109.57,177.33c-1.21-.29-2.56-.47-3.85-.92-1.35-.48-2.72-.89-4.1-1.27-.87-.24-1.68-.63-2.53-.93-.49-.18-.75-.53-.61-1.11,.08-.31,.03-.65,.04-.98,.02-.62,.17-.73,.75-.53,1.04,.36,2.09,.72,3.13,1.09,1.42,.5,2.88,.84,4.35,1.12,.84,.16,1.54,.44,1.97,1.28,.33,.63,.79,1.19,1.2,1.79,.08,.12,.19,.24,.08,.39-.08,.11-.22,.1-.45,.1Z"/><path class="cls-1" d="M100.69,117.17c-.35-.06-.6-.02-.8,.21-.33,.39-.78,.14-1.16,.2-1.38,.21-2.68,.08-3.76-.96-.49-.48-.48-.66,.17-.87,2.02-.65,3.68-1.88,5.18-3.34,.49-.48,.66-.52,1.08,.02,.69,.89,1.44,1.73,2.2,2.56,.39,.42,.29,.9-.25,1.29-.81,.59-1.75,.78-2.65,.88Z"/><path class="cls-1" d="M108.65,185.07c-2.27-.17-4.44-.63-6.51-1.56-.9-.4-1.78-.84-2.72-1.15-.32-.11-.46-.26-.45-.62,0-.47-.06-.94-.11-1.41-.05-.49,.15-.6,.57-.43,.72,.3,1.37,.72,2.04,1.12,1.69,1.01,3.55,1.45,5.49,1.66,1.08,.12,2.16,.26,3.24,.38,.29,.03,.41,.15,.29,.45-.17,.42-.28,.87-.5,1.25-.32,.53-.9,.22-1.34,.31Z"/><path class="cls-1" d="M107.17,192.13c-.37,.75-.62,1.57-1.11,2.26-.18,.25-.4,.07-.6-.04-1.59-.88-2.96-2.03-4.2-3.36-1.08-1.16-2.07-2.38-2.86-3.77-.15-.27-.28-.53,.07-.65,.35-.13,.67-.77,1.11-.22,1.27,1.6,2.92,2.76,4.56,3.91,.82,.57,1.69,1.08,2.63,1.45,.19,.08,.39,.17,.4,.42Z"/><path class="cls-1" d="M125.55,178.29c.03,.25-.03,.4-.19,.5-1.99,1.29-3.91,2.68-6.15,3.57-1,.4-2.13,.48-3.01,1.18-.16,.13-.27,0-.35-.12-.3-.44-.61-.87-.9-1.32-.23-.36-.13-.61,.3-.74,.75-.22,1.49-.47,2.25-.67,1.88-.49,3.51-1.47,5.09-2.54,.67-.45,1.31-.92,1.93-1.43,.29-.24,.49-.26,.61,.16,.14,.5,.3,.98,.42,1.41Z"/><path class="cls-1" d="M103.91,168.17c.21,0,.31,.08,.39,.22,.83,1.41,1.82,2.72,2.72,4.08,.12,.19,.3,.4,.13,.6-.15,.19-.39,.03-.58-.02-2.11-.56-4.22-1.13-6.25-1.96-.49-.2-1.01-.33-1.5-.54-.36-.15-.43-.41-.45-.72-.01-.35,.26-.42,.54-.47,1.6-.29,3.11-.94,4.73-1.11,.1-.01,.2-.06,.25-.08Z"/><path class="cls-1" d="M128.41,187.07c.01,.21-.03,.35-.19,.46-1.96,1.36-3.85,2.83-6.2,3.48-.32,.09-.7,.37-.99,.07-.41-.43-.76-.92-.92-1.51-.07-.24,.15-.31,.33-.37,2.52-.77,4.58-2.35,6.71-3.8,.36-.25,.58-.28,.72,.19,.14,.52,.48,.96,.55,1.47Z"/><path class="cls-1" d="M129.42,195.59c.49-.02,.56,.25,.65,.51,.38,1.07,.54,2.21,1.08,3.22,.19,.36,.34,.89,.88,.24,.21-.25,.65-.13,.94,0,.29,.13,.24,.34-.03,.5-1,.58-2.05,1.04-3.18,1.31-.29,.07-.55,.1-.64-.26-.37-1.38-1.26-2.49-1.88-3.74-.27-.54-.17-.79,.33-1,.66-.28,1.32-.56,1.86-.79Z"/><path class="cls-1" d="M87.23,186.76c.72,.51,1.51,.81,2.27,1.16,.38,.18,.61,.4,.69,.79,.09,.46,.17,.93,.23,1.4,.04,.33-.11,.47-.44,.31-.59-.28-1.19-.57-1.83-.74-.22-.06-.49-.2-.63,.01-.15,.23,.15,.33,.29,.47,.3,.32,.33,1.32,.05,1.63-.23,.26-.76,.16-.86-.22-.43-1.69-.99-3.36-.8-5.14,0-.02,0-.04,0-.06,.06-.31,.1-.63,.48-.71,.34-.07,.51,.18,.71,.4,.31,.33-.03,.5-.17,.7Z"/><path class="cls-1" d="M93.07,187.35c-.07-.84,.46-.61,.76-.7,.4-.12,.64,.07,.67,.48,.07,.87,.3,1.68,.64,2.49,.37,.9,.83,1.74,1.29,2.59,.11,.2,.23,.4,.29,.61,.1,.36-.04,.52-.42,.39-.12-.04-.22-.16-.33-.16-1.34-.02-1.7-.94-1.95-2.02-.3-1.3-.67-2.58-.96-3.67Z"/><path class="cls-1" d="M90.86,187.58c-.1-.89,.55-.66,.91-.77,.45-.13,.67,.06,.72,.59,.13,1.47,.48,2.9,1.02,4.27,.07,.19,.24,.38,.06,.56-.18,.19-.36,.02-.56-.04-.63-.23-.94-.58-1.07-1.31-.17-.95-.43-1.91-.9-2.79-.1-.2-.15-.43-.17-.51Z"/><path class="cls-1" d="M99.09,87.34c.74,1.07,.75,2.12,.33,3.14-.7,1.68-1.44,1.89-3.08,1.81-1.19-.05-1.96-.9-2.16-2.38-.23-1.7,.58-2.97,2.37-3.24,.29-.04,.45-.02,.37,.32-.1,.41,.12,.77,.22,1.14,.09,.35,.4,.55,.74,.58,.38,.04,.71-.14,.94-.47,.17-.24,.2-.51,.28-.9Z"/></g><image width="913" height="1872" transform="translate(98.59) rotate(163.23) scale(.11 -.11)" xlink:href="game-elf-02.png"/></g></g></svg>