<?xml version="1.0" encoding="UTF-8"?><svg id="_圖層_2" xmlns="http://www.w3.org/2000/svg" viewBox="0 0 242.2 246.9"><defs><style>.cls-1{fill:#ffb128;}</style></defs><g id="_圖層_1-2"><path class="cls-1" d="M237.66,110.9c-.6-2.64-4.21-3.04-5.03-.42-1.34,4.61-3.33,8.96-5.18,13.47-.99,1.61-1.99,3.25-2.95,4.83-.43-1.13-.86-2.25-1.31-3.34l-.3-.59-.22-.04-1.27-7.26c1.05-.84,1.91-1.81,2.66-2.87,1.33-1.87,2.85-3.72,2.41-6.29,.95-1.96,.09-3.91-.11-5.83-.24-2.3-1.9-3.95-3.26-5.67-2.48-3.15-5.55-5.39-9.5-6.48-3.12-.86-6.28-.96-9.44-1.35-2.2-.27-4.06,1.05-6.15,.5l-2.27-8.25c-1.68-1.32-3.11-2.89-4.53-4.46-1.07-1.18-2.15-2.28-3.48-3.18-3.83-2.57-7.9-4.66-12.16-6.42-4.48-1.85-8.87-3.92-13.38-5.69-17.25-6.78-35.83-9.63-54.2-11.36-16.83-1.58-36.21,.69-52.18-5.44-6.15-2.36-12.01-5.43-17.83-8.53-5.05-2.7-9.84-5.77-14.12-9.53-.57-.61-2.79-2.98-4.8-4.96,3-2.18,4.96-5.71,4.96-9.71C24,5.37,18.63,0,12,0S0,5.37,0,12s5.37,12,12,12c.17,0,.34-.02,.51-.03,.15,.83,.33,1.66,.51,2.5-.43,5.33-.55,12.25-.55,12.26-.1,2.07-.2,4.15-.29,6.22-.12,1.83-.29,3.66-.34,5.5-.19,6.85,.08,13.69,.96,20.49,3.23,24.73,9.59,49.1,19.96,71.83,5.23,11.47,11.6,21.97,18.62,32.35,3.91,5.78,8.37,17.52,14.96,20.66,.02,0,.03,.02,.05,.03,.37,.28,.76,.53,1.18,.74,3.73,2.84,5.09,9.16,5.09,9.16l-4.14-4.2h-.4c-2.37-.45-4.82-.55-7.27-.38-2.19-.68-4.23-1.69-6.29-2.74-.79-.38-1.66-.98-2.55-1.34-1.64-.75-3.8,.93-3.33,2.74,.18,.76,.36,.88,.57,1.33,.11,.23,.92,1.77,1.03,2.02,3.58,7.57,8.88,14.41,15.6,19.12l.03,.04,.07,.02c4.77,3.32,10.25,5.59,16.35,6.25,.33,.07,.78,.13,1.15,.04l1.76,.63c8.11,7.65,19.99,14.03,36.31,16.52,42.9,6.53,91.52-15.38,109.79-55.87,4.47-9.84,3.17-21.02,1.21-31.76,.33-.46,.67-.93,1.02-1.42,.25-.11,.46-.31,.56-.5,1.02-1.21,1.92-2.48,2.74-3.8,0,0,.01-.02,.02-.02,.18-.22,.34-.51,.5-.85,6.92-12.09,5.87-28.25,.29-40.64Z"/></g></svg>