<?xml version="1.0" encoding="UTF-8"?><svg id="_圖層_2" xmlns="http://www.w3.org/2000/svg" viewBox="0 0 26.89 26.89"><defs><style>.cls-1{fill:#fff;}</style></defs><g id="_圖層_1-2"><path class="cls-1" d="M12.71,12.14l-4.49-2.06L3.11,7.81,.34,6.54c-.08-.03-.16-.03-.23,.02-.07,.04-.11,.12-.11,.2v14.29c0,.1,.06,.18,.14,.22l12.37,5.6s.07,.02,.1,.02c.05,0,.09-.01,.13-.04,.07-.04,.11-.12,.11-.2V12.36c0-.1-.06-.18-.14-.22h0Z"/><path class="cls-1" d="M26.78,6.56c-.07-.04-.16-.05-.23-.02l-12.37,5.6c-.09,.04-.14,.12-.14,.22v14.3c0,.08,.04,.16,.11,.2,.04,.03,.08,.04,.13,.04,.03,0,.07,0,.1-.02l12.37-5.6c.09-.04,.14-.12,.14-.22V6.76c0-.08-.04-.16-.11-.2h0Z"/><path class="cls-1" d="M25.65,5.49c0-.1-.06-.18-.14-.22l-1.91-.84L15.61,.93l-.78-.34h-.02S13.54,.02,13.54,.02c-.06-.03-.13-.03-.19,0L1.38,5.28c-.09,.04-.14,.12-.14,.22s.06,.18,.14,.22l1.78,.8,.74,.33h0l6.5,2.89,2.93,1.39s.07,.02,.1,.02,.07,0,.1-.02l11.96-5.42c.09-.04,.14-.12,.14-.22h0Z"/></g></svg>