<?xml version="1.0" encoding="UTF-8"?><svg id="_圖層_2" xmlns="http://www.w3.org/2000/svg" viewBox="0 0 25.64 18.76"><g id="_圖層_1-2"><path d="M24.02,.24c-2.09-1.18-6.65,2.28-8.25,3.66-.38,.33-.61,.82-.61,1.33l.22,2.85c0,.15,.02,.29,.06,.43-.11-.1-.22-.2-.34-.3-.04-.03-.08-.07-.12-.1-.03-.02-.06-.05-.09-.07,.23-2.21-.29-3.35-.4-3.55,0-.01,0-.03,0-.04-.56-.18-1.11-.27-1.67-.27s-1.11,.09-1.67,.27c0,0-.83,1.63-.31,3.52-.25,.2-.49,.4-.72,.62,.09-.24,.14-.5,.14-.76l.22-2.57c0-.53-.23-1.03-.63-1.37C8.24,2.49,3.7-.93,1.62,.24-.53,1.46-.54,11.76,1.62,12.98c1.8,1.02,5.28-1.41,7.23-2.99-1.01,1.32-1.77,2.88-2.18,4.51-.26,1-.38,2.04-.35,3.06,.78-1.04,1.69-1.51,2.61-1.87,.28,1.36,.85,2.08,2.01,3.07-.65-2.72,.57-3.06,1.08-5.81,.32-1.7-.09-2.81-.03-3.76v-.1s.02-.07,.02-.1c.27,.04,.54,.06,.81,.06s.54-.02,.81-.06h0c0,.07,.01,.13,.02,.18h0c.06,.95-.34,2.07-.03,3.77,.51,2.75,1.73,3.1,1.08,5.81,1.16-.99,1.73-1.71,2.01-3.07,.92,.36,1.83,.83,2.61,1.87,.03-1.03-.1-2.07-.36-3.08,0,0,0,.02,0,.02h0c-.03-.14-.07-.26-.11-.39,0-.03-.02-.07-.03-.1-.06-.2-.13-.41-.2-.61-.02-.06-.04-.11-.06-.17-.06-.16-.12-.31-.18-.46-.02-.05-.04-.11-.07-.16-.09-.2-.18-.4-.27-.59,0,0,0,0,0-.02-.09-.19-.2-.38-.3-.56-.03-.05-.05-.09-.08-.14-.09-.16-.19-.32-.28-.47-.02-.03-.04-.06-.06-.09-.12-.19-.25-.37-.38-.55-.01-.02-.03-.04-.04-.06-.04-.05-.08-.1-.12-.15,1.95,1.57,5.43,4.01,7.23,2.99,2.17-1.23,2.15-11.52,0-12.74h0Z"/></g></svg>