<?xml version="1.0" encoding="UTF-8"?><svg id="_圖層_2" xmlns="http://www.w3.org/2000/svg" viewBox="0 0 223.64 191.92"><defs><style>.cls-1,.cls-2{fill:#ccc;}.cls-3{fill:#2d827d;}.cls-2{opacity:.2;}</style></defs><g id="_圖層_1-2"><g><polygon class="cls-1" points="218.27 165.15 111.82 191.92 111.82 101.19 218.27 74.42 218.27 165.15"/><polygon class="cls-1" points="111.82 191.92 5.37 165.15 5.37 74.42 111.82 101.19 111.82 191.92"/><polygon class="cls-3" points="111.82 95.22 223.64 67.28 223.64 47.37 111.82 75.31 111.82 95.22"/><polygon class="cls-3" points="111.82 95.22 0 67.28 0 47.37 111.82 75.31 111.82 95.22"/><polygon class="cls-3" points="0 47.53 111.82 24.79 223.64 47.53 111.82 75.29 0 47.53"/></g><polygon class="cls-2" points="5.37 68.42 5.37 75.29 111.82 102.27 218.27 75.76 218.27 67.93 111.82 95.22 5.37 68.42"/><polygon class="cls-1" points="61.74 179.33 43.95 174.85 43.95 58.36 61.74 62.86 61.74 179.33"/><polygon class="cls-1" points="161.9 179.33 179.69 174.85 179.69 58.36 161.9 62.86 161.9 179.33"/><polygon class="cls-1" points="61.66 62.8 43.95 58.22 146.67 31.87 165.01 35.61 61.66 62.8"/><polygon class="cls-1" points="161.98 62.8 179.69 58.22 76.97 31.87 58.63 35.61 161.98 62.8"/><g><path class="cls-1" d="M180.52,9.4c-19.68-32.29-73.9,28.93-73.9,28.93l5.32,6.25s95.32,8.67,68.59-35.18Zm-62.13,31.1s46.64-31.61,56-20.76c16.94,19.63-56,20.76-56,20.76Z"/><path class="cls-1" d="M112,44.59s.11,0,.18,.02c.02,0,.06,0,.08,0,.05,0,.12,0,.19,.02,.06,0,.13,0,.19,.02,.06,0,.13,0,.19,.02,.08,0,.17,.01,.26,.02,.07,0,.15,.01,.23,.02,.11,0,.22,.02,.34,.02,.09,0,.19,.01,.28,.02,.12,0,.24,.02,.37,.03,.07,0,.15,0,.22,.01,.34,.02,.72,.05,1.12,.07,.06,0,.12,0,.18,.01,.2,.01,.42,.02,.63,.04,.09,0,.18,.01,.27,.02,.22,.01,.46,.02,.69,.04,.1,0,.2,.01,.3,.02,.24,.01,.49,.02,.75,.04,.1,0,.2,0,.3,.01,.28,.01,.56,.03,.84,.04,.07,0,.15,0,.23,0,.32,.01,.64,.03,.97,.04,.02,0,.04,0,.06,0,1.51,.06,3.17,.11,4.94,.14,.05,0,.09,0,.14,0,.4,0,.81,.01,1.23,.02,.07,0,.15,0,.22,0,.42,0,.84,0,1.27,.01,.06,0,.12,0,.18,0,.45,0,.91,0,1.38,0h.02c2.98,0,6.19-.07,9.49-.22,.03,0,.06,0,.09,0,.53-.02,1.07-.05,1.6-.08,.02,0,.05,0,.07,0,3.9-.22,7.9-.57,11.84-1.1,.02,0,.03,0,.05,0,.56-.08,1.11-.16,1.66-.24,0,0,0,0,0,0,3.37-.51,6.66-1.16,9.75-1.98,0,0,0,0,0,0,.5-.13,1-.27,1.49-.42,.02,0,.05-.01,.07-.02,.49-.14,.98-.29,1.46-.45,0,0,0,0,.01,0,2.93-.94,5.63-2.06,7.98-3.41,.03-.02,.06-.03,.09-.05,.36-.21,.72-.42,1.07-.64,.04-.02,.08-.05,.11-.07,.35-.22,.69-.45,1.01-.68,.02-.01,.04-.03,.06-.04,1.73-1.23,3.2-2.62,4.34-4.19,.02-.02,.04-.05,.05-.07,.2-.28,.39-.57,.57-.86,.03-.06,.07-.11,.1-.17,.17-.28,.33-.57,.48-.87,.03-.06,.06-.13,.1-.2,.15-.3,.28-.6,.41-.91,.02-.05,.04-.1,.06-.16,.55-1.43,.87-2.97,.92-4.63,0,0,0,0,0,0-9.27-7.01-15.93-6.26-15.93-6.26,2.17,.17,3.92,.87,5.09,2.22,4.02,4.66,2.97,8.27-.96,11.08-.47,.33-.97,.66-1.52,.97,0,0,0,0,0,0-12.68,7.24-45.44,8.49-52.27,8.68-.33,0-.59,.02-.79,.02-.2,0-.34,0-.41,0-.03,0-.05,0-.05,0l-6.46,4.08s.02,0,.07,0h0Z"/><path class="cls-1" d="M118.39,40.51s13.57-9.19,27.54-15.96c0,0,0,0,0,0,0,0-6.44-.7-9.6-3-3.57-2.6-5.35-5.27-5.29-5.96-13.67,10.62-24.42,22.76-24.42,22.76l5.32,6.25,6.46-4.08Z"/></g><g><path class="cls-1" d="M112.78,44.58l5.32-6.25S63.88-22.88,44.19,9.4C17.46,53.26,112.78,44.58,112.78,44.58ZM50.32,19.75c9.36-10.85,56,20.76,56,20.76,0,0-72.94-1.13-56-20.76Z"/><path class="cls-1" d="M112.71,44.59s-.11,0-.18,.02c-.02,0-.06,0-.08,0-.05,0-.12,0-.19,.02-.06,0-.13,0-.19,.02-.06,0-.13,0-.19,.02-.08,0-.17,.01-.26,.02-.07,0-.15,.01-.23,.02-.11,0-.22,.02-.34,.02-.09,0-.19,.01-.28,.02-.12,0-.24,.02-.37,.03-.07,0-.15,0-.22,.01-.34,.02-.72,.05-1.12,.07-.06,0-.12,0-.18,.01-.2,.01-.42,.02-.63,.04-.09,0-.17,.01-.27,.02-.22,.01-.46,.02-.69,.04-.1,0-.2,.01-.3,.02-.24,.01-.49,.02-.75,.04-.1,0-.2,0-.3,.01-.28,.01-.56,.03-.84,.04-.07,0-.15,0-.23,0-.32,.01-.64,.03-.97,.04-.02,0-.04,0-.06,0-1.51,.06-3.17,.11-4.94,.14-.05,0-.09,0-.14,0-.4,0-.81,.01-1.23,.02-.07,0-.15,0-.22,0-.42,0-.84,0-1.27,.01-.06,0-.12,0-.18,0-.45,0-.91,0-1.38,0h-.02c-2.98,0-6.19-.07-9.49-.22-.03,0-.06,0-.09,0-.53-.02-1.07-.05-1.6-.08-.02,0-.05,0-.07,0-3.9-.22-7.9-.57-11.84-1.1-.02,0-.03,0-.05,0-.56-.08-1.11-.16-1.66-.24,0,0,0,0,0,0-3.37-.51-6.66-1.16-9.75-1.98,0,0,0,0,0,0-.5-.13-1-.27-1.49-.42-.02,0-.05-.01-.07-.02-.49-.14-.98-.29-1.46-.45,0,0,0,0-.01,0-2.93-.94-5.63-2.06-7.98-3.41-.03-.02-.06-.03-.09-.05-.36-.21-.72-.42-1.07-.64-.04-.02-.08-.05-.11-.07-.35-.22-.69-.45-1.01-.68-.02-.01-.04-.03-.06-.04-1.73-1.23-3.2-2.62-4.34-4.19-.02-.02-.04-.05-.05-.07-.2-.28-.39-.57-.57-.86-.03-.06-.07-.11-.1-.17-.17-.28-.33-.57-.48-.87-.03-.06-.06-.13-.1-.2-.15-.3-.28-.6-.41-.91-.02-.05-.04-.1-.06-.16-.55-1.43-.87-2.97-.92-4.63h0c9.27-7.01,15.93-6.26,15.93-6.26-2.17,.17-3.92,.87-5.09,2.22-4.02,4.66-2.97,8.27,.96,11.08,.47,.33,.97,.66,1.52,.97h0c12.68,7.24,45.44,8.49,52.27,8.68,.33,0,.59,.02,.79,.02,.2,0,.34,0,.41,0,.03,0,.05,0,.05,0l6.46,4.08s-.02,0-.07,0h0Z"/><path class="cls-1" d="M106.32,40.51s-13.57-9.19-27.54-15.96c0,0,0,0,0,0,0,0,6.44-.7,9.6-3,3.57-2.6,5.35-5.27,5.29-5.96,13.67,10.62,24.42,22.76,24.42,22.76l-5.32,6.25-6.46-4.08Z"/></g><path class="cls-1" d="M95.27,45.27l9.98,2.63c4.29,1.13,8.8,1.13,13.09,0l9.34-2.46s-.68-13.87-15.88-13.87-16.52,13.71-16.52,13.71Z"/></g></svg>