<svg width="933" height="587" viewBox="0 0 933 587" fill="none" xmlns="http://www.w3.org/2000/svg">
<g clip-path="url(#clip0_1884_85196)">
<path d="M988.006 -76.6099H-52.2441V1098.86H988.006V-76.6099Z" fill="white"/>
<path opacity="0.25" d="M988.006 -76.6099H-52.2441V1098.86H988.006V-76.6099Z" fill="#FFFFE0"/>
<g style="mix-blend-mode:multiply">
<path d="M10.0065 0C4.48293 0 0 4.48 0 10V577C0 582.52 4.48293 587 10.0065 587H374.825V0H10.0065Z" fill="#00807E"/>
</g>
<g opacity="0.63">
<path d="M162.426 341.2C163.166 340.65 163.586 340.31 164.047 340.02C167.279 337.97 170.111 334.94 173.883 334.16C177.916 333.33 181.858 332.36 185.831 331.42C189.713 330.49 193.736 329.18 198.159 332.04C199.1 332.65 201.071 332.04 202.562 331.98C207.125 331.78 211.588 332.13 216.191 333.68C223.385 336.1 230.2 339.23 236.874 342.61C241.928 345.16 245.73 349 249.472 352.81C251.754 355.14 253.865 357.61 256.337 359.79C263.071 365.73 268.025 372.05 268.925 380.27C269.305 383.71 272.157 387.2 274.539 391.98C274.079 396.92 273.338 403.28 272.908 409.69C272.498 415.94 270.266 421.44 267.514 427.03C263.592 434.98 256.707 440.94 251.674 448.1C246.831 450.7 244.869 456.15 238.525 457.28C231.591 462.93 221.934 465.16 214.049 469.63C212.648 470.42 210.747 470.71 209.006 471.04C204.633 471.86 200.26 472.72 195.797 473.28C193.466 473.57 190.944 473.28 188.503 473.21C186.401 473.15 184.29 473.01 182.178 472.92C181.258 472.88 180.107 473.19 179.447 472.81C175.894 470.77 171.992 470.27 168.139 469.25C164.567 468.3 161.165 466.41 157.833 464.72C156.211 463.89 154.811 462.62 153.46 461.44C149.357 457.87 145.254 454.29 141.302 450.61C138.67 448.15 136.569 445.53 135.828 442.15C134.978 438.28 133.106 434.48 132.016 430.62C130.695 425.94 129.744 421.24 133.116 417.27C135.438 414.54 133.887 411.1 133.206 408.2C132.366 404.62 132.016 401.49 133.817 398.42C134.317 397.57 134.467 396.47 134.477 395.45C134.627 386.7 138.07 379.09 142.523 371.78C143.573 370.05 144.174 368.09 144.934 366.21C145.214 365.52 145.064 364.38 145.615 364.11C150.568 361.65 150.768 356.56 153.51 352.89C153.66 352.69 153.88 352.46 154.13 352.38C160.264 350.54 161.325 345.67 162.406 341.23L162.426 341.2Z" fill="#FFB128"/>
<path d="M150.828 379.25C152.779 380.22 153.95 380.72 155.071 381.37C162.876 385.94 172.312 388.59 178.036 395.67C184.14 403.22 190.444 410.45 196.748 417.78C202.902 424.93 210.017 431.94 208.786 444.33C208.526 446.96 211.928 450.44 213.679 453.49C219.053 462.85 223.135 472.58 224.877 483.93C227.588 501.65 228.369 519.33 228.519 537.01C228.629 550.38 224.686 562.51 220.724 574.49C218.302 581.81 215.4 588.91 213.499 596.45C208.306 617.01 200.401 634.26 184.09 645.05C177.275 649.56 173.023 659.34 165.548 669.51C154.661 673.88 140.491 679.23 126.562 685.28C112.983 691.18 99.0243 692.47 84.2946 692.74C63.341 693.12 43.3579 685.13 22.8745 682.31C12.1575 674.96 -1.40137 676.75 -10.6374 664.67C-30.0301 656.23 -45.16 638.39 -63.0917 626.67C-66.2838 624.58 -68.9355 620.91 -71.5172 617.61C-77.9814 609.32 -84.5157 601.07 -90.5196 592.31C-93.6617 587.73 -95.7731 582.13 -98.2647 576.93C-100.406 572.45 -102.417 567.87 -104.509 563.36C-105.429 561.38 -107.311 559.31 -107.231 557.51C-106.79 547.85 -109.962 539.1 -111.994 529.93C-113.875 521.41 -113.585 512.23 -113.625 503.39C-113.645 499.09 -112.494 494.78 -111.473 490.65C-108.401 478.18 -105.339 465.69 -101.877 453.41C-99.5655 445.22 -96.3334 437.98 -90.0293 432.76C-82.8246 426.8 -76.8607 418.75 -69.9262 412.27C-61.5307 404.42 -52.6849 397.34 -40.667 400.13C-32.4216 402.05 -26.858 395.05 -21.5145 390.5C-14.8902 384.87 -8.69614 380.74 -0.300652 381.18C2.04088 381.3 4.49249 380.43 6.6539 379.36C25.186 370.2 44.9189 369.19 65.0921 370.62C69.8652 370.96 74.6384 370.08 79.3914 369.64C81.1526 369.48 83.364 367.93 84.5448 368.79C95.0817 376.53 105.999 371.42 116.666 373.2C117.266 373.3 117.967 373.5 118.407 373.96C128.914 384.83 140.291 381.78 150.808 379.26L150.828 379.25Z" fill="#D4CFC6"/>
<path d="M-78.6821 352.42C-78.402 350.13 -76.0604 346.98 -72.7983 344.02C-69.266 340.81 -66.234 336.99 -63.3121 333.19C-60.4402 329.46 -56.8979 327.28 -52.405 325.79C-45.1302 323.37 -37.8554 321.58 -30.2104 320.52C-24.2165 319.69 -18.6529 320.84 -13.0092 321.51C-5.77448 322.36 1.27013 324.57 8.24469 326.8C11.3667 327.8 14.0685 329.28 16.5401 331.51C18.6615 333.42 21.2132 335.08 23.8549 336.13C30.3992 338.73 34.0716 343.54 36.1229 350.03C38.1442 356.43 40.1756 362.84 42.6672 369.05C43.888 372.1 43.4177 374.68 42.397 377.42C41.0561 381.01 39.365 384.5 38.3244 388.17C36.8034 393.54 33.4612 397.9 30.4792 402.34C27.5173 406.75 25.1858 412.01 19.8123 414.39C18.2913 419.95 13.338 420.8 8.90512 422.5C6.52357 423.41 4.37216 424.89 2.09067 426.07C-3.13274 428.78 -8.67638 429.9 -14.5502 429.4C-19.6035 428.97 -24.4967 431.48 -29.6501 430.04C-34.5833 428.66 -39.6266 427.68 -44.5498 426.29C-46.0108 425.88 -47.5118 424.93 -48.5625 423.82C-51.0541 421.18 -53.9159 419.27 -57.2982 417.96C-62.6717 415.88 -64.743 410.22 -68.9858 406.87C-70.2066 405.91 -70.9171 404.32 -71.9377 403.09C-74.1692 400.4 -77.4714 398.08 -78.482 395C-80.023 390.26 -80.053 385.02 -80.6134 379.99C-80.7535 378.73 -80.053 377.25 -80.4933 376.19C-82.0644 372.43 -81.3339 368.54 -81.2338 364.77C-81.1438 361.32 -79.8829 357.9 -78.7022 352.41L-78.6821 352.42Z" fill="#3A80A2"/>
<path d="M49.0018 239.34C49.1819 238.36 50.2826 237.06 51.7736 235.86C53.3947 234.57 54.8056 232.99 56.1765 231.42C57.5174 229.88 59.1184 229.03 61.0997 228.51C64.3218 227.66 67.5139 227.08 70.8561 226.82C73.4778 226.62 75.8493 227.27 78.2809 227.71C81.393 228.27 84.3849 229.42 87.3469 230.57C88.6677 231.09 89.7985 231.8 90.8191 232.83C91.6897 233.71 92.7504 234.5 93.8611 235.03C96.6229 236.33 98.0839 238.51 98.8043 241.38C99.5048 244.2 100.215 247.04 101.126 249.8C101.576 251.15 101.296 252.26 100.786 253.42C100.105 254.94 99.2847 256.41 98.7343 257.97C97.9338 260.26 96.3628 262.06 94.9518 263.9C93.5509 265.73 92.4002 267.95 90.0086 268.84C89.1981 271.21 87.0367 271.44 85.0654 272.06C84.0147 272.39 83.034 272.97 82.0134 273.42C79.6819 274.45 77.2402 274.79 74.7186 274.42C72.5372 274.1 70.3558 275.06 68.1643 274.29C66.0629 273.56 63.9115 273 61.8102 272.27C61.1898 272.05 60.5593 271.6 60.1391 271.09C59.1284 269.88 57.9376 268.98 56.5167 268.32C54.2452 267.28 53.5047 264.77 51.7536 263.2C51.2533 262.75 50.9831 262.05 50.5728 261.48C49.6822 260.25 48.3113 259.16 47.9611 257.8C47.4208 255.71 47.5508 253.44 47.4408 251.24C47.4107 250.69 47.761 250.07 47.5909 249.6C47.0105 247.93 47.4308 246.26 47.5809 244.64C47.7109 243.15 48.3514 241.7 49.0118 239.35L49.0018 239.34Z" fill="#FFC880"/>
<path d="M259.019 564.75C256.317 563.87 253.665 562.17 251.644 560.04C248.432 556.64 244.729 554.16 240.336 552.46C234.383 550.16 230.77 545.61 227.578 541.59C225.707 539.24 223.946 537.02 221.874 535.38C220.183 534.05 219.083 532.39 218.122 530.93C217.672 530.26 217.251 529.62 216.841 529.13C215.911 528.01 214.79 526.89 213.609 525.71C210.827 522.94 207.685 519.79 206.344 515.68C204.493 510.01 204.003 504.09 203.532 498.35C203.372 496.43 203.212 494.45 202.992 492.55C202.832 491.15 203.042 489.87 203.212 488.84C203.262 488.53 203.332 488.08 203.352 487.82C201.261 482.59 201.581 477.41 201.871 472.83C201.941 471.63 202.011 470.5 202.041 469.38C202.142 465.49 203.092 461.72 204.193 457.36C204.713 455.31 205.294 453 205.854 450.42C206.684 444.63 212.528 438.58 215.971 435.46C220.904 430.98 225.187 425.59 229.499 419.99C234.022 414.12 239.836 410.16 247.781 407.51C259.299 403.68 270.316 401.07 281.453 399.52C289.188 398.44 296.323 399.41 303.228 400.34C304.839 400.56 306.45 400.78 308.071 400.97C319.548 402.32 330.626 405.86 340.392 408.99C340.482 409.02 340.562 409.05 340.652 409.07C345.895 410.78 350.358 413.34 354.311 416.9C357.183 419.48 360.555 421.62 363.817 422.92C374.124 427.02 380.918 434.67 384.591 446.31C387.333 455.01 390.445 464.86 394.177 474.18C396.669 480.39 395.388 485.56 393.807 489.79C393.086 491.73 392.296 493.64 391.535 495.49C390.134 498.88 388.824 502.09 387.893 505.37C385.762 512.91 381.589 519 377.546 524.89C376.916 525.81 376.295 526.72 375.675 527.63C374.864 528.83 374.094 530.08 373.273 531.4C370.001 536.67 366.319 542.59 359.825 546.16C356.823 553.83 350.008 556.21 344.455 558.15C343.504 558.48 342.553 558.81 341.623 559.17C339.641 559.93 337.68 561.06 335.599 562.25C334.438 562.92 333.227 563.61 331.986 564.26C323.501 568.66 314.395 570.48 304.909 569.67C302.267 569.45 299.475 569.91 296.513 570.4C292.07 571.13 287.047 571.97 281.724 570.48C278.191 569.49 274.509 568.62 270.946 567.77C267.244 566.89 263.412 565.98 259.639 564.92C259.439 564.86 259.239 564.8 259.039 564.74L259.019 564.75ZM337.88 417.53C337.81 417.51 337.74 417.48 337.67 417.46C328.284 414.46 317.647 411.06 307.02 409.81C305.349 409.61 303.688 409.39 302.027 409.16C295.432 408.27 289.198 407.43 282.674 408.33C272.087 409.8 261.59 412.3 250.583 415.95C244.309 418.04 239.976 420.95 236.544 425.41C231.981 431.33 227.428 437.06 221.954 442.03C217.231 446.32 214.86 450.05 214.66 451.71L214.59 452.12C213.979 454.92 213.369 457.37 212.818 459.53C211.808 463.54 211.007 466.71 210.927 469.61C210.897 470.88 210.817 472.15 210.737 473.37C210.487 477.43 210.247 481.27 211.678 484.69C212.548 486.76 212.218 488.78 211.978 490.26C211.908 490.69 211.808 491.33 211.818 491.56C212.048 493.58 212.218 495.63 212.378 497.61C212.829 503.07 213.259 508.24 214.78 512.91C215.46 514.99 217.602 517.13 219.873 519.4C221.154 520.68 222.475 521.99 223.666 523.44C224.376 524.3 224.976 525.2 225.507 526C226.167 526.99 226.788 527.93 227.368 528.39C230.25 530.67 232.421 533.4 234.523 536.05C237.365 539.63 239.826 542.73 243.519 544.16C249.182 546.35 253.945 549.54 258.088 553.93C259.129 555.03 260.67 555.99 262.001 556.37C265.593 557.38 269.335 558.27 272.958 559.13C276.6 559.99 280.363 560.89 284.075 561.92C287.497 562.88 291.15 562.27 295.012 561.63C298.384 561.07 301.867 560.5 305.619 560.81C313.404 561.47 320.879 559.98 327.844 556.36C328.924 555.8 329.995 555.19 331.126 554.54C333.407 553.23 335.759 551.88 338.391 550.87C339.431 550.47 340.472 550.11 341.483 549.76C347.276 547.74 350.609 546.37 351.849 541.84L352.41 539.81L354.341 538.95C359.504 536.66 362.506 531.83 365.678 526.72C366.509 525.39 367.36 524.01 368.26 522.68C368.891 521.74 369.531 520.81 370.171 519.87C373.974 514.33 377.556 509.1 379.287 502.96C380.358 499.18 381.839 495.59 383.27 492.11C384.04 490.24 384.761 488.48 385.431 486.68C386.882 482.79 387.002 480.29 385.872 477.48C382.009 467.85 378.847 457.83 376.055 448.98C373.193 439.92 368.25 434.27 360.475 431.18C356.192 429.48 351.989 426.83 348.297 423.51C345.255 420.77 341.923 418.87 337.84 417.53H337.88Z" fill="#00807E"/>
<path d="M56.4563 102.13C56.3963 101.81 56.5664 101.28 56.8766 100.74C57.2068 100.15 57.4469 99.5099 57.6771 98.8699C57.8972 98.2399 58.2775 97.7899 58.8178 97.3999C59.6884 96.7599 60.589 96.1999 61.5696 95.7199C62.3401 95.3399 63.1407 95.2599 63.9212 95.0999C64.9318 94.8999 65.9725 94.8799 67.0132 94.8799C67.4735 94.8799 67.9038 94.9599 68.3341 95.1499C68.7043 95.3099 69.1146 95.4199 69.5248 95.4499C70.5155 95.5099 71.2259 95.9999 71.7863 96.7799C72.3367 97.5499 72.897 98.3199 73.5074 99.0499C73.8076 99.4099 73.8577 99.7699 73.8377 100.19C73.8176 100.73 73.7376 101.27 73.7676 101.81C73.7976 102.6 73.5375 103.33 73.3373 104.06C73.1372 104.78 73.0471 105.59 72.4367 106.15C72.4768 106.96 71.8464 107.3 71.326 107.72C71.0458 107.95 70.8257 108.24 70.5655 108.5C69.9851 109.09 69.2847 109.49 68.4741 109.68C67.7737 109.84 67.2233 110.4 66.4728 110.43C65.7524 110.46 65.0319 110.55 64.3014 110.58C64.0913 110.58 63.8411 110.53 63.651 110.42C63.2007 110.17 62.7304 110.04 62.2201 110.02C61.4095 109.98 60.8792 109.31 60.1587 109.04C59.9486 108.96 59.7885 108.78 59.5983 108.66C59.1781 108.4 58.6377 108.23 58.3675 107.86C57.9473 107.29 57.7171 106.59 57.4169 105.94C57.3469 105.78 57.3769 105.55 57.2668 105.42C56.8866 104.98 56.8165 104.43 56.6664 103.92C56.5263 103.45 56.5464 102.94 56.4663 102.15L56.4563 102.13Z" fill="#F85B00"/>
<path d="M193.506 155.05C193.566 155.37 193.396 155.9 193.086 156.44C192.756 157.03 192.516 157.67 192.286 158.31C192.065 158.94 191.685 159.39 191.145 159.78C190.274 160.42 189.374 160.98 188.393 161.46C187.622 161.84 186.822 161.92 186.041 162.08C185.031 162.28 183.99 162.3 182.949 162.3C182.489 162.3 182.059 162.22 181.629 162.03C181.258 161.87 180.848 161.76 180.438 161.73C179.447 161.67 178.737 161.18 178.176 160.4C177.626 159.63 177.066 158.86 176.455 158.13C176.155 157.77 176.105 157.41 176.125 156.99C176.145 156.45 176.225 155.91 176.195 155.37C176.165 154.58 176.425 153.85 176.625 153.12C176.825 152.4 176.915 151.59 177.526 151.03C177.486 150.22 178.116 149.88 178.637 149.46C178.917 149.23 179.137 148.94 179.397 148.68C179.977 148.09 180.678 147.69 181.488 147.5C182.189 147.34 182.739 146.78 183.49 146.75C184.21 146.72 184.931 146.63 185.661 146.6C185.871 146.6 186.122 146.65 186.312 146.76C186.762 147.01 187.232 147.14 187.743 147.16C188.553 147.2 189.083 147.87 189.804 148.14C190.014 148.22 190.174 148.4 190.364 148.52C190.785 148.78 191.325 148.95 191.595 149.32C192.015 149.89 192.246 150.59 192.546 151.24C192.616 151.4 192.586 151.63 192.696 151.76C193.076 152.2 193.146 152.75 193.296 153.26C193.436 153.73 193.416 154.24 193.496 155.03L193.506 155.05Z" fill="#5BE5E7"/>
<path d="M264.412 167.01C263.782 163.83 265.543 158.59 268.605 153.21C271.927 147.38 274.299 140.94 276.56 134.58C278.772 128.33 282.554 123.87 287.908 119.91C296.583 113.49 305.519 107.93 315.276 103.16C322.921 99.4303 330.876 98.5403 338.711 96.9603C348.758 94.9403 359.144 94.8103 369.441 94.7503C374.054 94.7203 378.307 95.5203 382.6 97.4203C386.272 99.0503 390.405 100.15 394.407 100.4C404.294 101.02 411.308 105.84 416.892 113.63C422.386 121.3 427.919 128.98 433.973 136.21C436.935 139.75 437.436 143.41 437.275 147.53C437.055 152.92 436.315 158.32 436.535 163.69C436.855 171.54 434.293 178.83 432.242 186.07C430.211 193.26 429.39 201.31 423.256 206.85C423.657 214.95 417.402 218.25 412.219 222.46C409.437 224.72 407.196 227.64 404.664 230.21C398.86 236.11 391.936 240.03 383.871 241.93C376.926 243.56 371.472 249.07 363.968 249.39C356.773 249.7 349.598 250.59 342.403 250.89C340.262 250.98 337.85 250.36 335.959 249.33C331.466 246.89 326.803 245.59 321.71 245.32C313.615 244.89 308.371 238.23 301.236 235.6C299.185 234.85 297.544 233.04 295.633 231.83C291.47 229.2 286.037 227.55 283.345 223.87C279.212 218.21 276.881 211.21 273.919 204.72C273.178 203.1 273.468 200.81 272.408 199.58C268.655 195.24 267.935 189.71 266.424 184.64C265.033 179.99 265.223 174.86 264.402 167L264.412 167.01Z" fill="#3A80A2"/>
<path d="M92.6099 7.41013C91.7894 3.26012 94.0809 -3.58988 98.0935 -10.6199C102.436 -18.2399 105.538 -26.6499 108.48 -34.9599C111.372 -43.1199 116.305 -48.9499 123.31 -54.1299C134.647 -62.5099 146.315 -69.7799 159.073 -76.0099C169.06 -80.8899 179.447 -82.0499 189.683 -84.1099C202.802 -86.7499 216.371 -86.9199 229.83 -86.9999C235.854 -87.0399 241.417 -85.9899 247.021 -83.5099C251.814 -81.3799 257.228 -79.9399 262.451 -79.6099C275.359 -78.7999 284.535 -72.4999 291.83 -62.3199C299.015 -52.2999 306.24 -42.2599 314.145 -32.8199C318.017 -28.1899 318.678 -23.4099 318.458 -18.0299C318.167 -10.9899 317.207 -3.92988 317.497 3.08012C317.917 13.3401 314.565 22.8601 311.893 32.3201C309.232 41.7201 308.171 52.2301 300.146 59.4701C300.666 70.0501 292.501 74.3601 285.726 79.8601C282.094 82.8101 279.162 86.6201 275.86 89.9901C268.285 97.7001 259.229 102.83 248.692 105.3C239.616 107.43 232.501 114.62 222.685 115.05C213.279 115.46 203.913 116.62 194.507 117.01C191.715 117.13 188.553 116.32 186.081 114.98C180.217 111.79 174.123 110.09 167.469 109.74C156.892 109.18 150.047 100.47 140.721 97.0401C138.04 96.0501 135.898 93.6901 133.407 92.1201C127.963 88.6901 120.868 86.5301 117.356 81.7201C111.953 74.3301 108.911 65.1901 105.048 56.7101C104.087 54.6001 104.468 51.6001 103.077 50.0001C98.1836 44.3301 97.2329 37.1101 95.2617 30.4801C93.4505 24.4001 93.6906 17.7101 92.6199 7.43012L92.6099 7.41013Z" fill="#E28092"/>
<path d="M219.584 153.07C219.323 151.75 220.054 149.58 221.325 147.35C222.706 144.93 223.686 142.26 224.627 139.62C225.547 137.03 227.108 135.18 229.33 133.54C232.932 130.88 236.635 128.57 240.677 126.6C243.849 125.05 247.142 124.68 250.394 124.03C254.556 123.19 258.869 123.14 263.142 123.11C265.053 123.1 266.824 123.43 268.596 124.22C270.117 124.89 271.838 125.35 273.489 125.46C277.591 125.72 280.503 127.72 282.815 130.95C285.096 134.13 287.388 137.32 289.9 140.31C291.13 141.78 291.34 143.3 291.27 145C291.18 147.24 290.87 149.48 290.96 151.7C291.09 154.96 290.03 157.98 289.179 160.98C288.339 163.96 287.998 167.3 285.447 169.6C285.607 172.96 283.015 174.33 280.874 176.07C279.723 177.01 278.792 178.22 277.742 179.28C275.34 181.73 272.458 183.35 269.116 184.14C266.234 184.82 263.973 187.1 260.861 187.23C257.879 187.36 254.897 187.73 251.915 187.85C251.024 187.89 250.023 187.63 249.243 187.21C247.382 186.2 245.45 185.66 243.339 185.55C239.987 185.37 237.805 182.61 234.844 181.52C233.993 181.21 233.313 180.46 232.522 179.96C230.791 178.87 228.539 178.18 227.429 176.66C225.718 174.31 224.747 171.41 223.526 168.72C223.216 168.05 223.336 167.1 222.906 166.59C221.355 164.79 221.055 162.5 220.424 160.39C219.844 158.46 219.924 156.34 219.584 153.07Z" fill="#FFB128"/>
<path d="M259.98 22.3601C260.3 22.3001 260.831 22.4701 261.371 22.7801C261.961 23.1101 262.602 23.3501 263.242 23.5801C263.872 23.8001 264.323 24.1801 264.713 24.7201C265.353 25.5901 265.914 26.4901 266.394 27.4701C266.774 28.2401 266.854 29.0401 267.015 29.8201C267.215 30.8301 267.235 31.8701 267.235 32.9101C267.235 33.3701 267.155 33.8001 266.965 34.2301C266.804 34.6001 266.694 35.0101 266.664 35.4201C266.604 36.4101 266.114 37.1201 265.333 37.6801C264.563 38.2301 263.792 38.7901 263.062 39.4001C262.702 39.7001 262.341 39.7501 261.921 39.7301C261.381 39.7101 260.841 39.6301 260.3 39.6601C259.51 39.6901 258.779 39.4301 258.049 39.2301C257.328 39.0301 256.518 38.9401 255.957 38.3301C255.147 38.3701 254.807 37.7401 254.386 37.2201C254.156 36.9401 253.866 36.7201 253.606 36.4601C253.015 35.8801 252.615 35.1801 252.425 34.3701C252.265 33.6701 251.705 33.1201 251.675 32.3701C251.644 31.6501 251.554 30.9301 251.524 30.2001C251.524 29.9801 251.574 29.7401 251.685 29.5501C251.935 29.1001 252.065 28.6301 252.085 28.1201C252.125 27.3101 252.795 26.7801 253.065 26.0601C253.145 25.8501 253.326 25.6901 253.446 25.5001C253.706 25.0801 253.876 24.5401 254.246 24.2701C254.817 23.8501 255.517 23.6201 256.167 23.3201C256.328 23.2501 256.558 23.2801 256.688 23.1701C257.128 22.7901 257.678 22.7201 258.189 22.5701C258.659 22.4301 259.169 22.4501 259.96 22.3701L259.98 22.3601Z" fill="#0076CB"/>
</g>
<path d="M922.182 0H289.419V158.31C289.419 173.53 277.071 185.87 261.841 185.87H186.682C162.306 185.87 142.553 205.62 142.553 229.97C142.553 254.33 162.316 274.07 186.682 274.07H261.841C277.071 274.07 289.419 286.41 289.419 301.63V586.99H922.182C927.706 586.99 932.189 582.51 932.189 576.99V10C932.189 4.48 927.706 0 922.182 0Z" fill="white"/>
<path d="M175.023 239C174.559 239 174.183 238.856 173.895 238.568C173.607 238.28 173.463 237.904 173.463 237.44V223.28C173.463 221.856 174.183 221.144 175.623 221.144C177.047 221.144 177.759 221.856 177.759 223.28V235.4H182.895C184.095 235.4 184.695 236 184.695 237.2C184.695 238.4 184.095 239 182.895 239H179.079H175.023ZM194.12 239.336C191.656 239.336 189.68 238.504 188.192 236.84C186.688 235.16 185.936 232.88 185.936 230C185.936 227.104 186.688 224.832 188.192 223.184C189.664 221.6 191.64 220.808 194.12 220.808C196.6 220.808 198.576 221.608 200.048 223.208C201.552 224.856 202.304 227.112 202.304 229.976C202.304 232.872 201.552 235.16 200.048 236.84C198.56 238.504 196.584 239.336 194.12 239.336ZM194.12 235.64C195.304 235.64 196.232 235.128 196.904 234.104C197.592 233.096 197.936 231.72 197.936 229.976C197.936 228.264 197.592 226.92 196.904 225.944C196.232 224.968 195.304 224.48 194.12 224.48C192.936 224.48 192.008 224.968 191.336 225.944C190.664 226.904 190.328 228.248 190.328 229.976C190.328 231.72 190.664 233.104 191.336 234.128C192.024 235.136 192.952 235.64 194.12 235.64ZM213.659 239.336C211.067 239.336 208.971 238.56 207.371 237.008C205.659 235.36 204.803 233.08 204.803 230.168C204.803 227.288 205.667 224.984 207.395 223.256C209.043 221.624 211.107 220.808 213.587 220.808C215.299 220.808 216.819 221.264 218.147 222.176C218.563 222.528 218.771 222.888 218.771 223.256C218.771 223.592 218.587 223.984 218.219 224.432C217.419 225.376 216.539 225.52 215.579 224.864C215.019 224.608 214.403 224.48 213.731 224.48C212.387 224.48 211.299 224.968 210.467 225.944C209.619 226.952 209.195 228.312 209.195 230.024C209.195 231.832 209.595 233.208 210.395 234.152C211.227 235.144 212.459 235.64 214.091 235.64C214.827 235.64 215.395 235.488 215.795 235.184V232.304H214.715C213.547 232.304 212.963 231.72 212.963 230.552C212.963 229.384 213.547 228.8 214.715 228.8H216.275H218.051C218.515 228.8 218.891 228.944 219.179 229.232C219.467 229.52 219.611 229.896 219.611 230.36V236.312C219.611 236.552 219.555 236.8 219.443 237.056C219.331 237.296 219.203 237.48 219.059 237.608C218.371 238.12 217.579 238.528 216.683 238.832C215.707 239.168 214.699 239.336 213.659 239.336ZM225.381 239C223.941 239 223.221 238.288 223.221 236.864V223.28C223.221 221.856 223.941 221.144 225.381 221.144C226.805 221.144 227.517 221.856 227.517 223.28V230.072V236.864C227.517 238.288 226.805 239 225.381 239ZM233.652 239C232.292 239 231.612 238.32 231.612 236.96V222.704C231.612 222.24 231.756 221.864 232.044 221.576C232.332 221.288 232.708 221.144 233.172 221.144H234.852C235.588 221.144 236.14 221.48 236.508 222.152L240.42 229.688L242.172 233.648H242.292C242.292 233.6 242.284 233.528 242.268 233.432C241.9 230.552 241.716 228.424 241.716 227.048V223.184C241.716 221.824 242.396 221.144 243.756 221.144C245.116 221.144 245.796 221.824 245.796 223.184V237.44C245.796 237.904 245.652 238.28 245.364 238.568C245.076 238.856 244.7 239 244.236 239H243.612H242.436C241.764 239 241.276 238.704 240.972 238.112L237.012 230.384L235.26 226.472H235.14C235.172 226.824 235.228 227.376 235.308 228.128C235.564 230.368 235.692 232.016 235.692 233.072V236.96C235.692 238.32 235.012 239 233.652 239Z" fill="black"/>
<path d="M166.788 331.336C164.964 331.336 163.252 330.864 161.652 329.92C160.628 329.152 160.508 328.288 161.292 327.328C161.692 326.848 162.148 326.576 162.66 326.512C163.188 326.448 163.716 326.592 164.244 326.944C165.204 327.408 166.084 327.64 166.884 327.64C168.436 327.64 169.212 327.12 169.212 326.08C169.212 325.648 169.012 325.288 168.612 325C168.356 324.808 167.82 324.536 167.004 324.184C166.86 324.136 166.756 324.096 166.692 324.064L164.412 323.104C163.356 322.688 162.516 322.104 161.892 321.352C161.156 320.456 160.788 319.408 160.788 318.208C160.788 316.688 161.396 315.416 162.612 314.392C163.844 313.336 165.396 312.808 167.268 312.808C168.9 312.808 170.412 313.248 171.804 314.128C172.652 314.816 172.732 315.592 172.044 316.456C171.692 316.904 171.284 317.168 170.82 317.248C170.372 317.328 169.908 317.224 169.428 316.936C168.772 316.632 168.052 316.48 167.268 316.48C166.596 316.48 166.068 316.608 165.684 316.864C165.316 317.12 165.132 317.488 165.132 317.968C165.132 318.384 165.356 318.744 165.804 319.048C166.108 319.24 166.7 319.512 167.58 319.864C167.692 319.912 167.78 319.944 167.844 319.96L170.076 320.848C172.428 321.792 173.604 323.424 173.604 325.744C173.604 327.296 173.012 328.6 171.828 329.656C170.548 330.776 168.868 331.336 166.788 331.336ZM178.732 331C177.292 331 176.572 330.288 176.572 328.864V315.28C176.572 313.856 177.292 313.144 178.732 313.144C180.156 313.144 180.868 313.856 180.868 315.28V322.072V328.864C180.868 330.288 180.156 331 178.732 331ZM193.003 331.336C190.411 331.336 188.315 330.56 186.715 329.008C185.003 327.36 184.147 325.08 184.147 322.168C184.147 319.288 185.011 316.984 186.739 315.256C188.387 313.624 190.451 312.808 192.931 312.808C194.643 312.808 196.163 313.264 197.491 314.176C197.907 314.528 198.115 314.888 198.115 315.256C198.115 315.592 197.931 315.984 197.563 316.432C196.763 317.376 195.883 317.52 194.923 316.864C194.363 316.608 193.747 316.48 193.075 316.48C191.731 316.48 190.643 316.968 189.811 317.944C188.963 318.952 188.539 320.312 188.539 322.024C188.539 323.832 188.939 325.208 189.739 326.152C190.571 327.144 191.803 327.64 193.435 327.64C194.171 327.64 194.739 327.488 195.139 327.184V324.304H194.059C192.891 324.304 192.307 323.72 192.307 322.552C192.307 321.384 192.891 320.8 194.059 320.8H195.619H197.395C197.859 320.8 198.235 320.944 198.523 321.232C198.811 321.52 198.955 321.896 198.955 322.36V328.312C198.955 328.552 198.899 328.8 198.787 329.056C198.675 329.296 198.547 329.48 198.403 329.608C197.715 330.12 196.923 330.528 196.027 330.832C195.051 331.168 194.043 331.336 193.003 331.336ZM204.604 331C203.244 331 202.564 330.32 202.564 328.96V314.704C202.564 314.24 202.708 313.864 202.996 313.576C203.284 313.288 203.66 313.144 204.124 313.144H205.804C206.54 313.144 207.092 313.48 207.46 314.152L211.372 321.688L213.124 325.648H213.244C213.244 325.6 213.236 325.528 213.22 325.432C212.852 322.552 212.668 320.424 212.668 319.048V315.184C212.668 313.824 213.348 313.144 214.708 313.144C216.068 313.144 216.748 313.824 216.748 315.184V329.44C216.748 329.904 216.604 330.28 216.316 330.568C216.028 330.856 215.652 331 215.188 331H214.564H213.388C212.716 331 212.228 330.704 211.924 330.112L207.964 322.384L206.212 318.472H206.092C206.124 318.824 206.18 319.376 206.26 320.128C206.516 322.368 206.644 324.016 206.644 325.072V328.96C206.644 330.32 205.964 331 204.604 331ZM233.529 331.336C231.113 331.336 229.305 330.632 228.105 329.224C226.889 327.784 226.281 325.576 226.281 322.6V315.28C226.281 313.856 226.993 313.144 228.417 313.144C229.841 313.144 230.553 313.856 230.553 315.28V323.056C230.553 324.704 230.801 325.888 231.297 326.608C231.777 327.296 232.521 327.64 233.529 327.64C234.537 327.64 235.281 327.296 235.761 326.608C236.289 325.872 236.553 324.688 236.553 323.056V318.112V315.208C236.553 313.832 237.241 313.144 238.617 313.144C239.993 313.144 240.681 313.832 240.681 315.208V322.6C240.681 325.592 240.081 327.8 238.881 329.224C237.713 330.632 235.929 331.336 233.529 331.336ZM246.842 331C245.402 331 244.682 330.288 244.682 328.864V314.704C244.682 314.24 244.826 313.864 245.114 313.576C245.402 313.288 245.778 313.144 246.242 313.144H247.802H250.946C253.122 313.144 254.81 313.56 256.01 314.392C257.418 315.368 258.122 316.888 258.122 318.952C258.122 320.968 257.418 322.52 256.01 323.608C254.746 324.584 253.098 325.072 251.066 325.072H248.978V328.864C248.978 330.288 248.266 331 246.842 331ZM248.978 321.688H250.85C252.914 321.688 253.946 320.776 253.946 318.952C253.946 318.088 253.666 317.456 253.106 317.056C252.594 316.704 251.802 316.528 250.73 316.528H248.978V319.12V321.688Z" fill="white"/>
<g clip-path="url(#clip1_1884_85196)">
<g style="mix-blend-mode:multiply" opacity="0.8">
<path d="M524.63 119.922C523.666 119.922 522.882 120.709 522.882 121.676V128.385C522.882 129.352 523.666 130.139 524.63 130.139C525.594 130.139 526.378 129.352 526.378 128.385V121.676C526.378 120.709 525.594 119.922 524.63 119.922Z" fill="#2B201C"/>
<path d="M518.341 109.187H518.154C517.241 109.187 516.501 109.933 516.501 110.881L516.695 111.94C517.699 117.425 517.633 122.977 516.501 128.44C516.501 128.451 516.497 128.466 516.497 128.477C516.497 129.392 517.241 130.135 518.15 130.135H518.337C519.25 130.135 519.99 129.389 519.99 128.477V110.848C519.99 109.933 519.246 109.19 518.337 109.19L518.341 109.187Z" fill="#2B201C"/>
<path d="M534.303 119.44C534.292 119.418 534.277 119.396 534.248 119.374C534.002 119.164 533.757 118.951 533.595 118.664C533.529 118.547 533.452 118.514 533.357 118.62C533.287 118.701 533.207 118.716 533.152 118.642C533.1 118.58 533.02 118.484 533.119 118.392C533.196 118.322 533.203 118.23 533.177 118.157C533.02 117.727 532.87 117.297 532.54 116.944C532.148 116.525 531.642 116.252 531.228 115.859C530.832 115.484 530.337 115.304 529.783 115.3C529.739 115.3 529.699 115.3 529.655 115.3C529.329 115.3 529.285 115.359 529.439 115.646C529.703 116.146 529.978 116.639 530.396 117.036C530.637 117.264 530.883 117.488 531.081 117.76C531.231 117.973 531.389 118.194 531.583 118.363C531.95 118.679 532.345 118.955 532.672 119.315C532.697 119.344 532.73 119.37 532.756 119.4C531.645 119.532 530.604 120.002 529.754 120.778C528.625 121.808 527.977 123.275 527.977 124.804V128.716C527.977 129.499 528.611 130.135 529.391 130.135C530.172 130.135 530.806 129.499 530.806 128.716V124.804C530.806 124.054 531.129 123.341 531.689 122.844C532.257 122.341 532.99 122.12 533.749 122.216C535.036 122.381 536.007 123.536 536.007 124.9V128.716C536.007 129.499 536.641 130.135 537.422 130.135C538.202 130.135 538.836 129.499 538.836 128.716V124.955C538.836 122.223 536.876 119.874 534.306 119.436L534.303 119.44Z" fill="#2B201C"/>
<path d="M550.125 121.264C549.941 121.264 549.762 121.3 549.582 121.37C548.534 120.293 547.148 119.701 545.664 119.701C542.611 119.701 540.126 122.242 540.126 125.363C540.126 128.484 542.611 131.025 545.664 131.025C546.709 131.025 547.716 130.727 548.6 130.157V133.933C548.6 133.933 548.596 133.959 548.592 133.973C548.537 135.37 547.445 136.466 546.111 136.466C545.081 136.466 544.147 135.786 543.784 134.778C543.571 134.19 542.999 133.793 542.362 133.793C541.86 133.793 541.39 134.039 541.101 134.451C540.819 134.852 540.749 135.345 540.914 135.8C541.709 138.028 543.798 139.525 546.111 139.525C548.713 139.525 550.986 137.635 551.521 135.032C551.605 134.837 551.649 134.635 551.649 134.429V122.8C551.649 121.959 550.964 121.271 550.125 121.271V121.264ZM545.668 127.962C544.297 127.962 543.179 126.793 543.179 125.359C543.179 123.925 544.297 122.756 545.668 122.756C547.038 122.756 548.156 123.925 548.156 125.359C548.156 126.793 547.038 127.962 545.668 127.962V127.962Z" fill="#2B201C"/>
<path d="M512.348 118.889C513.543 117.756 514.199 116.286 514.199 114.716C514.199 111.381 511.215 108.672 507.547 108.672C506.099 108.672 504.677 109.109 503.522 109.907C503.163 109.455 502.624 109.19 502.045 109.19H501.899C500.854 109.19 500 110.043 500.004 111.131L500.418 113.19C501.144 116.812 501.22 120.495 500.645 124.139L500 128.231C500 129.278 500.85 130.135 501.899 130.135H502.045C502.694 130.135 503.302 129.79 503.647 129.238C504.941 130.153 506.55 130.653 508.203 130.653C512.234 130.653 515.511 127.756 515.511 124.198C515.511 122.065 514.334 120.098 512.344 118.889H512.348ZM507.547 111.727C509.533 111.727 511.149 113.065 511.149 114.712C511.149 116.359 509.533 117.698 507.547 117.698C505.56 117.698 503.944 116.359 503.944 114.712C503.944 113.065 505.56 111.727 507.547 111.727ZM508.203 127.595C505.853 127.595 503.944 126.069 503.944 124.198C503.944 122.326 505.853 120.801 508.203 120.801C510.552 120.801 512.462 122.326 512.462 124.198C512.462 126.069 510.552 127.595 508.203 127.595Z" fill="#2B201C"/>
<path d="M581.586 119.922C580.622 119.922 579.838 120.709 579.838 121.676V128.385C579.838 129.352 580.622 130.139 581.586 130.139C582.55 130.139 583.334 129.352 583.334 128.385V121.676C583.334 120.709 582.55 119.922 581.586 119.922Z" fill="#2B201C"/>
<path d="M575.297 109.187H575.11C574.197 109.187 573.457 109.933 573.457 110.881L573.651 111.94C574.656 117.425 574.59 122.977 573.461 128.44C573.461 128.451 573.457 128.466 573.457 128.477C573.457 129.392 574.201 130.135 575.11 130.135H575.297C576.21 130.135 576.95 129.389 576.95 128.477V110.848C576.95 109.933 576.206 109.19 575.297 109.19V109.187Z" fill="#2B201C"/>
<path d="M590.888 119.389C589.341 119.242 587.861 119.738 586.717 120.782C585.588 121.811 584.939 123.278 584.939 124.808V128.72C584.939 129.503 585.574 130.139 586.354 130.139C587.135 130.139 587.769 129.503 587.769 128.72V124.808C587.769 124.058 588.091 123.345 588.652 122.848C589.22 122.345 589.95 122.12 590.712 122.22C591.999 122.385 592.97 123.539 592.97 124.903V128.72C592.97 129.503 593.604 130.139 594.385 130.139C595.165 130.139 595.799 129.503 595.799 128.72V124.958C595.799 122.095 593.644 119.646 590.895 119.389H590.888Z" fill="#2B201C"/>
<path d="M607.084 121.264C606.901 121.264 606.718 121.3 606.542 121.37C605.494 120.293 604.108 119.701 602.624 119.701C599.571 119.701 597.086 122.242 597.086 125.363C597.086 128.484 599.571 131.025 602.624 131.025C603.669 131.025 604.676 130.727 605.556 130.157V133.933C605.556 133.933 605.552 133.959 605.552 133.97C605.497 135.367 604.405 136.462 603.071 136.462C602.041 136.462 601.107 135.782 600.744 134.775C600.531 134.186 599.959 133.789 599.322 133.789C598.82 133.789 598.35 134.036 598.061 134.447C597.779 134.848 597.709 135.341 597.874 135.797C598.669 138.025 600.758 139.521 603.071 139.521C605.673 139.521 607.946 137.631 608.481 135.028C608.565 134.834 608.609 134.631 608.609 134.425V122.797C608.609 121.955 607.924 121.267 607.084 121.267V121.264ZM602.628 127.962C601.257 127.962 600.139 126.793 600.139 125.359C600.139 123.925 601.257 122.756 602.628 122.756C603.998 122.756 605.116 123.925 605.116 125.359C605.116 126.793 603.998 127.962 602.628 127.962Z" fill="#2B201C"/>
<path d="M569.308 118.889C570.503 117.756 571.159 116.286 571.159 114.716C571.159 111.381 568.176 108.672 564.507 108.672C563.059 108.672 561.637 109.109 560.486 109.907C560.127 109.455 559.588 109.19 559.009 109.19H558.862C557.818 109.19 556.964 110.043 556.968 111.131L557.382 113.19C558.107 116.808 558.184 120.495 557.609 124.139L556.964 128.231C556.964 129.278 557.814 130.135 558.862 130.135H559.009C559.658 130.135 560.266 129.79 560.611 129.238C561.904 130.153 563.513 130.653 565.166 130.653C569.198 130.653 572.475 127.756 572.475 124.198C572.475 122.065 571.298 120.098 569.308 118.889V118.889ZM564.507 111.727C566.493 111.727 568.11 113.065 568.11 114.712C568.11 116.359 566.493 117.698 564.507 117.698C562.52 117.698 560.904 116.359 560.904 114.712C560.904 113.065 562.52 111.727 564.507 111.727ZM565.166 127.595C562.817 127.595 560.908 126.069 560.908 124.198C560.908 122.326 562.817 120.801 565.166 120.801C567.516 120.801 569.425 122.326 569.425 124.198C569.425 126.069 567.516 127.595 565.166 127.595Z" fill="#2B201C"/>
<path d="M635.156 109.793C635.156 109.793 635.142 109.793 635.134 109.793L630.15 110.242C628.801 110.363 627.408 110.418 626.001 110.403L628.335 107.142C628.933 106.308 628.742 105.142 627.91 104.543L627.778 104.448C627.379 104.157 626.884 104.043 626.397 104.124C625.898 104.205 625.473 104.477 625.161 104.914L621.965 110.209L615.438 109.789C614.408 109.789 613.572 110.628 613.572 111.661V111.804C613.572 112.837 614.408 113.675 615.438 113.675H619.77C618.08 116.135 616.153 118.414 614.023 120.473L613.961 120.547C613.363 121.381 613.554 122.547 614.386 123.146L614.518 123.242C614.837 123.47 615.211 123.591 615.599 123.591C616.197 123.591 616.761 123.3 617.109 122.815L623.651 113.675H635.186C636.216 113.675 637.051 112.837 637.051 111.804V111.661C637.051 110.613 636.216 109.789 635.149 109.789L635.156 109.793Z" fill="#2B201C"/>
<path d="M630.783 129.561C630.893 129.595 631 129.613 631.106 129.613C631.3 129.613 631.483 129.554 631.641 129.44C631.927 129.231 632.092 128.856 632.092 128.414V127.892C632.092 127.095 631.531 126.444 630.846 126.444H625.425C624.736 126.444 624.179 127.095 624.179 127.892V128.12C624.179 128.918 624.739 129.569 625.425 129.569C625.44 129.569 625.454 129.569 625.469 129.565L626.198 129.389C627.712 129.025 629.299 129.087 630.791 129.561H630.783Z" fill="#2B201C"/>
<path d="M628.163 114.422C625.3 114.168 623.394 115.558 621.91 116.951C620.202 118.558 619.458 120.33 619.341 123.069C619.275 124.653 619.267 126.668 619.264 128.617C619.264 129.646 619.26 130.646 619.245 131.528C619.238 132.05 619.399 132.499 619.714 132.819C620.022 133.135 620.466 133.308 620.961 133.311H620.979C622.002 133.311 622.665 132.646 622.713 131.576C622.771 130.194 622.779 128.573 622.786 127.006C622.786 126.22 622.793 125.436 622.804 124.694H629.145C629.94 124.694 630.589 124.043 630.589 123.245V123.017C630.589 122.22 629.944 121.573 629.116 121.573H629.108L628.243 121.749C626.532 122.095 624.732 122.058 623.024 121.642C623.244 120.742 623.666 120.047 624.377 119.411C625.377 118.51 626.568 117.58 628.089 117.918C631.216 118.609 633.147 119.245 633.448 123.403C633.796 128.183 633.455 133.113 628.665 136.8C628.181 137.172 627.924 137.543 627.888 137.933C627.829 138.503 628.247 138.988 628.613 139.414C628.951 139.804 629.281 140.003 629.654 140.003C630.076 140.003 630.56 139.753 631.186 139.242C631.733 138.8 632.293 138.242 632.861 137.58C635.064 135.021 636.406 131.8 636.743 128.271C636.904 126.591 637.054 124.999 636.937 123.547C636.508 118.209 633.309 114.881 628.163 114.422V114.422Z" fill="#2B201C"/>
<path d="M667.376 121.157C667.384 121.113 667.376 121.076 667.373 121.054C667.413 119.973 666.643 119.334 665.896 119.282H665.808H665.727C665.474 119.297 664.895 119.389 664.338 119.477C663.968 119.536 663.62 119.591 663.429 119.613C661.498 119.834 659.973 119.804 658.159 119.521C658.008 119.499 657.843 119.459 657.671 119.422C657.334 119.345 656.982 119.264 656.656 119.264H656.652C655.893 119.264 655.336 119.914 655.197 120.97C655.19 121.01 655.186 121.05 655.193 121.091L655.204 121.15C655.336 121.936 655.49 122.826 656.502 122.834C657.579 122.837 658.719 122.863 659.826 122.885C661.116 122.911 662.436 122.936 663.73 122.936C664.389 122.936 665.042 122.929 665.679 122.911C666.618 122.885 667.189 122.293 667.38 121.157H667.376Z" fill="#2B201C"/>
<path d="M652.701 115.554C653.053 115.227 653.254 114.775 653.254 114.301C653.254 113.356 652.484 112.587 651.52 112.587L649.413 112.779C648.002 112.907 646.569 112.907 645.154 112.779L643.065 112.587C642.123 112.587 641.357 113.356 641.357 114.301C641.357 115.245 642.123 116.014 643.065 116.014H648.017C646.155 118.165 644.091 120.15 641.877 121.922L641.137 122.518C640.815 122.841 640.639 123.271 640.639 123.731C640.639 124.19 640.815 124.62 641.137 124.944C641.46 125.268 641.888 125.444 642.343 125.444C642.797 125.444 643.23 125.268 643.552 124.944L646.125 122.363C646.345 125.345 646.235 128.345 645.799 131.293C645.799 131.301 645.799 131.326 645.799 131.337C645.799 132.26 646.532 133.014 647.434 133.014H647.58C648.482 133.014 649.215 132.26 649.215 131.337V119.268L652.319 116.154C652.484 115.988 652.613 115.79 652.701 115.558V115.554Z" fill="#2B201C"/>
<path d="M645.822 109.848C646.331 110.19 646.998 110.393 647.618 110.393C647.636 110.393 647.658 110.393 647.677 110.393C649.245 110.359 650.03 109.771 650.011 108.643C649.986 107.293 648.915 106.084 647.578 105.889C646.823 105.779 646.057 105.992 645.529 106.462C645.06 106.878 644.807 107.466 644.818 108.117C644.832 108.812 645.188 109.426 645.826 109.852L645.822 109.848Z" fill="#2B201C"/>
<path d="M652.301 121.113C650.953 120.551 650.403 121.076 650.176 121.617C649.791 122.543 650.154 123.687 651.008 124.223C651.327 124.426 651.697 124.528 652.056 124.528C652.236 124.528 652.411 124.503 652.58 124.448C653.027 124.304 653.379 123.977 653.566 123.528C653.724 123.146 653.724 122.734 653.559 122.337C653.346 121.819 652.855 121.337 652.305 121.109L652.301 121.113Z" fill="#2B201C"/>
<path d="M658.613 118.04H663.458C666.515 118.04 669.003 115.543 669.003 112.477C669.003 109.665 666.863 107.279 664.096 106.959L664.158 106.201C664.158 105.481 663.572 104.893 662.853 104.893C662.135 104.893 661.549 105.481 661.549 106.201V106.918H660.5V106.201C660.5 105.481 659.914 104.893 659.196 104.893C658.847 104.893 658.521 105.029 658.272 105.279C658.026 105.529 657.891 105.859 657.891 106.227L657.953 106.962C655.201 107.293 653.067 109.679 653.067 112.481C653.067 115.547 655.552 118.043 658.609 118.043L658.613 118.04ZM664.275 115.128L664.162 113.867L665.906 113.992C665.529 114.547 664.942 114.955 664.279 115.132L664.275 115.128ZM664.056 109.782C664.686 109.882 665.258 110.194 665.683 110.679C665.76 110.768 665.833 110.863 665.903 110.966L664.026 111.106C664.026 110.679 664.037 110.242 664.059 109.782H664.056ZM660.445 109.532C660.827 109.518 661.215 109.518 661.6 109.532V111.238C661.215 111.242 660.83 111.238 660.445 111.216V109.532V109.532ZM660.445 113.698C660.83 113.679 661.219 113.679 661.6 113.698V115.227H660.445V113.701V113.698ZM656.384 110.679C656.802 110.201 657.367 109.889 657.986 109.786C658.008 110.238 658.019 110.657 658.019 111.058L656.186 110.933C656.249 110.845 656.315 110.76 656.384 110.679ZM657.883 113.885L657.77 115.124C657.117 114.948 656.557 114.558 656.179 114.018L657.88 113.885H657.883Z" fill="#2B201C"/>
<path d="M668.476 132.558C668.384 132.267 668.179 132.058 667.878 131.951C667.343 131.76 666.654 131.94 666.416 132.095C666.383 132.117 666.35 132.139 666.32 132.161H666.313V132.164C666.28 132.19 666.255 132.216 666.236 132.242C666.027 132.44 665.844 132.687 665.664 132.922C665.525 133.106 665.397 133.278 665.272 133.403C663.051 135.639 660.185 135.69 657.205 133.547C657.07 133.451 656.901 133.275 656.736 133.106C656.491 132.856 656.26 132.617 656.047 132.51C655.563 132.267 655.014 132.22 654.607 132.389C654.302 132.514 654.086 132.753 653.976 133.076C653.951 133.157 653.921 133.234 653.896 133.308C653.639 134.01 653.551 134.444 654.647 135.201C657.044 136.852 659.206 137.683 661.281 137.683C663.586 137.683 665.782 136.657 668.069 134.598C668.915 133.834 668.897 133.532 668.641 132.977C668.586 132.856 668.523 132.723 668.472 132.558H668.476Z" fill="#2B201C"/>
<path d="M521.335 113.778C521.445 113.841 521.551 113.903 521.617 113.98L521.811 114.094C522.082 114.234 522.361 114.381 522.695 114.381C522.819 114.381 522.951 114.359 523.098 114.311C523.358 114.223 523.519 114.083 523.691 113.925C523.794 113.83 523.842 113.727 523.827 113.62C523.82 113.547 523.779 113.444 523.636 113.363C523.614 113.348 523.545 113.271 523.508 113.194C523.384 112.944 523.193 112.767 523.01 112.594C522.944 112.532 522.878 112.469 522.815 112.407C522.658 112.242 522.453 112.227 522.288 112.216C522.097 112.201 522.027 112.19 521.976 112.091C521.954 112.05 521.888 111.962 521.738 112.003L521.577 112.021C521.445 112.036 521.316 112.05 521.184 112.061C520.943 112.08 520.767 112.223 520.726 112.44C520.69 112.642 520.66 112.911 520.763 113.201C520.88 113.521 521.133 113.668 521.338 113.786L521.335 113.778Z" fill="#2B201C"/>
<path d="M524.201 110.19C524.146 110.201 524.091 110.209 524.036 110.216C523.834 110.238 523.735 110.4 523.666 110.518C523.644 110.554 523.622 110.587 523.6 110.617C523.427 110.801 523.42 111.032 523.416 111.187C523.405 111.503 523.409 111.812 523.427 112.098C523.457 112.554 523.662 112.896 524.036 113.12C524.149 113.187 524.27 113.223 524.384 113.223C524.439 113.223 524.49 113.216 524.542 113.201C524.662 113.165 524.758 113.08 524.813 112.962C524.853 112.874 524.897 112.79 524.945 112.705C525.08 112.451 525.22 112.19 525.238 111.867C525.245 111.712 525.253 111.558 525.256 111.404C525.264 111.198 525.267 110.995 525.286 110.79C525.304 110.551 525.179 110.426 525.062 110.33C524.772 110.095 524.457 110.146 524.204 110.187L524.201 110.19Z" fill="#2B201C"/>
<path d="M526.326 113.683L526.367 113.69C526.4 113.698 526.44 113.705 526.488 113.705C526.565 113.705 526.656 113.687 526.74 113.606C527.118 113.256 527.543 112.863 527.8 112.33C527.921 112.168 527.987 111.995 528.045 111.841C528.067 111.778 528.075 111.712 528.071 111.646L528.152 111.624L528.027 111.407C528.027 111.407 528.005 111.367 527.983 111.348C527.957 111.301 527.932 111.256 527.906 111.216C527.781 111.039 527.627 110.937 527.481 110.948C527.085 110.955 526.806 111.106 526.623 111.403C526.51 111.587 526.381 111.76 526.249 111.944C526.11 112.135 525.963 112.33 525.835 112.543C525.667 112.823 525.634 113.102 525.744 113.323C525.843 113.525 526.051 113.657 526.33 113.69L526.326 113.683Z" fill="#2B201C"/>
<path d="M527.533 116.547C527.361 116.433 527.199 116.308 527.027 116.172C526.767 115.966 526.503 115.756 526.188 115.602C526.147 115.584 526.107 115.562 526.067 115.54C525.799 115.396 525.433 115.201 525.037 115.521L524.989 115.58C524.916 115.72 524.876 115.856 524.861 115.988C524.795 115.881 524.718 115.779 524.619 115.679L524.579 115.595L524.524 115.569C524.161 115.385 523.956 115.668 523.857 115.804C523.6 116.157 523.454 116.554 523.311 116.937L523.241 117.124L523.248 117.172C523.263 117.29 523.252 117.415 523.241 117.543C523.223 117.734 523.204 117.929 523.259 118.139C523.311 118.33 523.476 118.495 523.681 118.558C523.736 118.576 523.791 118.584 523.846 118.584C523.956 118.584 524.058 118.547 524.143 118.477C524.187 118.44 524.231 118.407 524.275 118.37C524.513 118.183 524.81 117.951 524.806 117.525C524.806 117.514 524.824 117.492 524.846 117.448C525.004 117.157 525.074 116.881 525.066 116.62C525.103 116.665 525.147 116.709 525.195 116.753L525.238 116.793L525.297 116.801C525.447 116.819 525.565 116.911 525.7 117.017C525.759 117.065 525.821 117.113 525.884 117.154C526.32 117.444 526.727 117.58 527.159 117.58C527.199 117.58 527.24 117.58 527.284 117.58C527.394 117.573 527.723 117.554 527.782 117.216C527.833 116.926 527.742 116.679 527.537 116.547H527.533Z" fill="#2B201C"/>
<path d="M523.23 115.826C523.523 115.58 523.398 115.359 523.332 115.275C523.321 115.26 523.31 115.245 523.299 115.231C523.248 115.153 523.094 114.914 522.801 115.062C522.793 115.062 522.786 115.069 522.738 115.043C522.596 114.962 522.365 114.903 522.071 115.08C521.595 115.367 521.247 115.698 520.979 116.124L521.137 116.223L520.961 116.142C520.921 116.194 520.862 116.267 520.814 116.356C520.752 116.477 520.561 116.845 520.899 117.146L520.95 117.194C521.06 117.297 521.221 117.444 521.437 117.444C521.536 117.444 521.646 117.411 521.767 117.33C522.247 117.01 522.735 116.635 523.039 116.058C523.094 115.955 523.145 115.889 523.226 115.823L523.23 115.826Z" fill="#2B201C"/>
<path d="M525.905 115.04C526.279 115.26 526.638 115.304 526.99 115.349L527.078 115.36C527.155 115.371 527.232 115.374 527.309 115.374C527.687 115.374 528.068 115.253 528.489 115.003C528.665 114.896 528.665 114.69 528.662 114.569V114.529C528.662 114.4 528.607 114.242 528.317 114.205C528.126 114.179 527.932 114.135 527.745 114.091L527.683 114.076C527.375 114.007 527.078 114.018 526.792 114.025C526.646 114.029 526.503 114.036 526.356 114.029C526.041 114.01 525.806 114.209 525.704 114.565C525.627 114.826 525.803 114.962 525.861 115.01L526.001 114.882L525.88 115.025L525.909 115.047L525.905 115.04Z" fill="#2B201C"/>
<path d="M578.159 113.778C578.269 113.841 578.375 113.903 578.441 113.98L578.635 114.094C578.907 114.234 579.185 114.381 579.519 114.381C579.643 114.381 579.775 114.359 579.922 114.311C580.182 114.223 580.343 114.083 580.516 113.925C580.618 113.83 580.666 113.727 580.651 113.62C580.644 113.547 580.604 113.444 580.461 113.363C580.439 113.348 580.369 113.271 580.332 113.194C580.208 112.944 580.017 112.767 579.834 112.594C579.768 112.532 579.702 112.469 579.64 112.407C579.482 112.242 579.277 112.227 579.112 112.216C578.921 112.201 578.852 112.19 578.8 112.091C578.778 112.05 578.712 111.962 578.562 112.003L578.401 112.021C578.269 112.036 578.141 112.05 578.009 112.061C577.767 112.08 577.591 112.223 577.551 112.44C577.514 112.642 577.485 112.911 577.587 113.201C577.704 113.521 577.957 113.668 578.163 113.786L578.159 113.778Z" fill="#2B201C"/>
<path d="M580.864 113.117C580.978 113.183 581.099 113.22 581.212 113.22C581.267 113.22 581.319 113.212 581.37 113.197C581.491 113.161 581.586 113.076 581.641 112.958C581.681 112.87 581.725 112.786 581.773 112.701C581.909 112.447 582.048 112.186 582.066 111.863C582.074 111.708 582.081 111.554 582.085 111.4C582.092 111.194 582.096 110.992 582.114 110.786C582.132 110.547 582.008 110.422 581.89 110.326C581.601 110.091 581.286 110.142 581.033 110.183C580.978 110.194 580.923 110.201 580.868 110.208C580.666 110.231 580.567 110.392 580.498 110.51C580.476 110.547 580.454 110.58 580.432 110.609C580.259 110.793 580.252 111.025 580.248 111.179C580.237 111.495 580.241 111.804 580.259 112.091C580.289 112.547 580.494 112.889 580.868 113.113L580.864 113.117Z" fill="#2B201C"/>
<path d="M583.154 113.683L583.195 113.69C583.228 113.698 583.268 113.705 583.316 113.705C583.393 113.705 583.484 113.687 583.569 113.606C583.946 113.256 584.371 112.863 584.628 112.33C584.749 112.168 584.815 111.995 584.873 111.841C584.895 111.778 584.903 111.712 584.899 111.646L584.98 111.624L584.855 111.407C584.855 111.407 584.833 111.367 584.811 111.348C584.785 111.301 584.76 111.256 584.734 111.216C584.609 111.039 584.459 110.937 584.309 110.948C583.913 110.955 583.635 111.106 583.451 111.403C583.338 111.587 583.209 111.76 583.077 111.944C582.938 112.135 582.792 112.33 582.663 112.543C582.495 112.823 582.462 113.102 582.572 113.323C582.671 113.525 582.88 113.657 583.158 113.69L583.154 113.683Z" fill="#2B201C"/>
<path d="M584.361 116.547C584.189 116.433 584.027 116.308 583.855 116.172C583.595 115.966 583.331 115.756 583.016 115.602C582.976 115.584 582.935 115.562 582.895 115.54C582.627 115.396 582.261 115.201 581.865 115.521L581.817 115.58C581.744 115.72 581.704 115.856 581.689 115.988C581.623 115.881 581.546 115.779 581.447 115.679L581.407 115.595L581.352 115.569C580.989 115.385 580.784 115.668 580.685 115.804C580.428 116.157 580.282 116.554 580.139 116.937L580.069 117.124L580.076 117.172C580.091 117.29 580.08 117.415 580.069 117.543C580.051 117.734 580.032 117.929 580.087 118.139C580.139 118.33 580.304 118.495 580.509 118.558C580.564 118.576 580.619 118.584 580.674 118.584C580.784 118.584 580.886 118.547 580.971 118.477C581.015 118.44 581.059 118.407 581.103 118.37C581.341 118.183 581.638 117.951 581.634 117.525C581.634 117.514 581.652 117.492 581.674 117.448C581.832 117.157 581.902 116.881 581.894 116.62C581.931 116.665 581.975 116.709 582.023 116.753L582.067 116.793L582.125 116.801C582.276 116.819 582.393 116.911 582.528 117.017C582.587 117.065 582.649 117.113 582.712 117.154C583.148 117.444 583.555 117.58 583.987 117.58C584.027 117.58 584.068 117.58 584.112 117.58C584.222 117.573 584.552 117.554 584.61 117.216C584.662 116.926 584.57 116.679 584.365 116.547H584.361Z" fill="#2B201C"/>
<path d="M580.058 115.826C580.351 115.58 580.226 115.359 580.16 115.275C580.149 115.26 580.138 115.245 580.127 115.231C580.076 115.153 579.918 114.914 579.629 115.062C579.622 115.062 579.614 115.069 579.567 115.043C579.424 114.962 579.193 114.903 578.9 115.08C578.423 115.367 578.075 115.698 577.807 116.124L577.965 116.223L577.789 116.142C577.749 116.194 577.69 116.267 577.642 116.356C577.58 116.477 577.389 116.845 577.727 117.146L577.778 117.194C577.888 117.297 578.049 117.444 578.265 117.444C578.364 117.444 578.474 117.411 578.595 117.33C579.075 117.01 579.563 116.635 579.867 116.058C579.922 115.955 579.973 115.889 580.054 115.823L580.058 115.826Z" fill="#2B201C"/>
<path d="M584.511 114.073C584.203 114.003 583.906 114.014 583.62 114.021C583.474 114.025 583.331 114.032 583.184 114.025C582.873 114.006 582.634 114.205 582.532 114.562C582.455 114.823 582.631 114.959 582.689 115.006L582.829 114.878L582.708 115.021L582.737 115.043C583.111 115.264 583.47 115.308 583.822 115.352L583.91 115.363C583.987 115.374 584.064 115.378 584.141 115.378C584.518 115.378 584.9 115.256 585.321 115.006C585.497 114.9 585.497 114.694 585.493 114.573V114.532C585.493 114.403 585.438 114.245 585.149 114.209C584.958 114.183 584.764 114.139 584.577 114.095L584.515 114.08L584.511 114.073Z" fill="#2B201C"/>
<path d="M663.025 124.186C662.197 124.337 661.537 124.815 661.219 125.47C660.9 124.815 660.24 124.334 659.412 124.186C658.455 124.014 657.41 124.403 656.74 125.179C656.04 125.988 655.79 127.172 656.102 128.194C656.249 128.672 656.516 129.15 656.927 129.661C657.476 130.348 658.136 130.929 658.888 131.389C659.628 131.841 660.368 132.135 661.153 132.444L661.222 132.47L661.292 132.444C662.076 132.135 662.817 131.841 663.557 131.389C664.308 130.929 664.968 130.348 665.518 129.661C665.928 129.15 666.196 128.672 666.342 128.194C666.654 127.172 666.405 125.988 665.705 125.179C665.034 124.403 663.986 124.014 663.033 124.186H663.025Z" fill="#C12D67"/>
<path d="M541.955 108.334C542.556 108.646 543.15 108.984 543.732 109.33C544.136 109.569 544.557 109.79 544.894 110.128C545.139 110.373 545.377 110.362 545.609 110.095C546.386 109.205 547.031 108.216 547.661 107.22C547.735 107.102 547.922 106.97 547.837 106.863C547.749 106.749 547.53 106.812 547.376 106.83C546.752 106.907 546.129 106.962 545.503 106.977C544.876 106.992 544.249 106.977 543.622 106.981C543.197 106.981 542.783 106.907 542.369 106.834C542.039 106.775 541.706 106.727 541.365 106.672C541.321 106.683 541.266 106.65 541.218 106.723C540.984 107.084 540.742 107.437 540.503 107.793C540.386 107.97 540.452 108.036 540.65 108.017C541.123 107.97 541.552 108.124 541.955 108.337V108.334Z" fill="#2B201C"/>
<path d="M559.661 105.845C559.987 105.922 560.314 105.995 560.64 106.069C560.768 106.069 560.871 106.021 560.973 105.951C561.721 105.448 562.403 104.867 562.989 104.183C563.433 103.665 563.865 103.135 564.213 102.547C564.29 102.418 564.243 102.348 564.125 102.29C563.92 102.19 563.715 102.095 563.517 101.984C563.337 101.889 563.191 101.889 563.048 102.058C562.707 102.462 562.267 102.764 561.827 103.043C561.127 103.492 560.35 103.793 559.573 104.084C558.727 104.4 557.847 104.609 556.978 104.845C556.909 104.863 556.766 104.801 556.78 104.973C556.791 105.106 556.898 105.095 556.982 105.124C557.854 105.444 558.767 105.628 559.668 105.845H559.661Z" fill="#2B201C"/>
<path d="M539.163 109.609C539.053 109.8 538.928 109.977 538.807 110.161C538.664 110.37 538.525 110.576 538.393 110.793C538.272 110.995 538.312 111.05 538.54 111.069C538.715 111.084 538.891 111.102 539.064 111.15C539.665 111.315 540.229 111.55 540.739 111.933C541.263 112.326 541.853 112.639 542.241 113.198C542.282 113.253 542.329 113.304 542.41 113.289C542.458 113.289 542.494 113.282 542.527 113.249C542.938 112.834 543.352 112.422 543.762 112.006C543.821 111.944 543.832 111.867 543.744 111.793C543.132 111.275 542.571 110.698 541.867 110.289C541.233 109.925 540.61 109.547 539.903 109.348C539.459 109.223 539.393 109.231 539.174 109.62L539.163 109.609Z" fill="#2B201C"/>
<path d="M540.995 114.378C540.687 113.995 540.353 113.635 539.961 113.337C539.261 112.811 538.488 112.425 537.659 112.15H537.663C537.553 112.128 537.476 112.179 537.425 112.264C537.102 112.804 536.78 113.344 536.468 113.892C536.399 114.014 536.358 114.157 536.556 114.216C537.575 114.514 538.44 115.058 539.144 115.856C539.206 115.925 539.25 115.944 539.305 115.9C539.826 115.458 540.427 115.128 540.962 114.705C541.083 114.609 541.101 114.51 540.995 114.378V114.378Z" fill="#2B201C"/>
<path d="M563.642 106.477C563.554 106.573 563.513 106.723 563.645 106.764C563.917 106.848 564.203 106.878 564.518 106.937C564.551 106.948 564.598 106.911 564.642 106.87C565.188 106.389 565.764 105.937 566.24 105.374C566.695 104.837 567.087 104.264 567.391 103.628C567.479 103.44 567.439 103.363 567.237 103.308C566.819 103.194 566.405 103.054 565.991 102.922C565.855 102.878 565.826 102.911 565.779 103.058C565.581 103.646 565.375 104.234 564.983 104.734C564.532 105.312 564.151 105.944 563.645 106.481L563.642 106.477Z" fill="#2B201C"/>
<path d="M566.922 107.227C566.933 107.323 567.01 107.286 567.061 107.293C567.442 107.348 567.827 107.403 568.208 107.459C568.351 107.466 568.436 107.411 568.524 107.289C568.63 107.139 568.773 107.006 568.916 106.885C569.608 106.304 570.162 105.62 570.473 104.76C570.583 104.459 570.547 104.392 570.257 104.297C569.876 104.172 569.484 104.073 569.114 103.925C568.905 103.845 568.846 103.94 568.835 104.091C568.802 104.47 568.641 104.804 568.48 105.135C568.12 105.878 567.681 106.565 567.01 107.076C566.962 107.113 566.915 107.153 566.926 107.223L566.922 107.227Z" fill="#2B201C"/>
<path d="M535.988 117.955C536.669 117.731 537.245 117.326 537.82 116.922C537.963 116.823 537.952 116.701 537.828 116.58C537.432 116.198 536.966 115.903 536.504 115.613C536.299 115.484 536.109 115.326 535.907 115.304C535.795 115.307 535.719 115.341 535.68 115.407C535.394 115.885 535.13 116.37 534.921 116.885C534.866 117.021 534.851 117.139 534.95 117.264C535.093 117.451 535.258 117.628 535.394 117.819C535.566 118.065 535.746 118.036 535.991 117.955H535.988Z" fill="#2B201C"/>
<path d="M574.915 107.98C575.032 107.848 575.183 107.741 575.26 107.572C575.787 106.403 576.136 105.19 576.143 103.892C576.136 103.62 576.15 103.348 576.092 103.076C576.07 102.984 576.07 102.885 575.967 102.852C575.861 102.819 575.754 102.852 575.7 102.955C575.395 103.565 574.849 104.091 575.047 104.885C575.117 105.172 575.058 105.477 574.919 105.752C574.754 106.083 574.64 106.44 574.567 106.797C574.49 107.157 574.494 107.547 574.618 107.911C574.673 108.072 574.769 108.142 574.912 107.98H574.915Z" fill="#2B201C"/>
<path d="M549.766 58.3335C549.113 58.9254 548.553 59.6092 547.849 60.146C547.259 60.5945 546.683 61.0615 546.09 61.5026C545.448 61.9769 544.781 62.4181 544.14 62.8923C543.187 63.5945 542.201 64.2453 541.16 64.8188C540.537 65.1607 539.899 65.4879 539.298 65.8703C538.869 66.146 538.462 66.4622 537.997 66.6828C536.494 67.396 534.999 68.1166 533.503 68.8409C532.789 69.1865 532.1 69.5909 531.352 69.8629C530.93 70.0173 530.487 70.1093 530.091 70.3335C529.853 70.3887 529.651 70.5431 529.424 70.6166C529.204 70.6865 529.12 70.8262 529.05 71.032C528.852 71.6166 528.834 72.2159 528.86 72.8151C528.889 73.532 529.446 74.4438 530.439 74.4254C530.784 74.4181 531.11 74.3703 531.429 74.2637C531.924 74.0982 532.437 73.9732 532.895 73.7085C533.437 73.3923 533.877 72.9659 534.262 72.4769C534.453 72.2306 534.695 72.0247 534.834 71.7379C535.116 71.3041 535.38 70.8629 535.585 70.385C535.794 69.896 535.871 69.385 535.86 68.8592C535.86 68.7342 535.823 68.6093 535.812 68.4843C535.798 68.3298 535.926 68.3004 536.025 68.2784C536.106 68.2637 536.201 68.2894 536.23 68.4144C536.249 68.4879 536.249 68.5835 536.326 68.635C536.417 68.8372 536.553 69.0063 536.725 69.1423C537.103 69.4401 537.572 69.5063 538.008 69.4879C538.627 69.4585 539.17 69.1644 539.632 68.7343C539.701 68.7453 539.738 68.6938 539.782 68.6534C540.189 68.2747 540.577 67.8813 540.841 67.3813C541.12 66.8556 541.274 66.3041 541.219 65.7048C541.208 65.5835 541.112 65.4806 541.314 65.4107C541.497 65.3482 541.607 65.3923 541.677 65.5504C541.713 65.635 541.768 65.6901 541.838 65.7379C541.871 65.7747 541.897 65.8225 541.937 65.8519C542.674 66.3592 543.469 66.5651 544.349 66.282C544.825 66.1276 545.324 66.01 545.653 65.5835C545.686 65.5467 545.734 65.5173 545.752 65.4732C546.042 64.7563 546.13 64.021 545.954 63.2637C545.895 63.0063 545.961 62.907 546.229 62.9438C546.295 62.9512 546.357 62.9806 546.419 62.999C546.412 63.0578 546.449 63.0909 546.482 63.1313C546.735 63.4217 547.057 63.5909 547.409 63.7159C548.102 63.9659 548.816 64.0762 549.546 64.021C549.927 63.9916 550.279 63.8666 550.546 63.5615C550.722 63.4401 550.799 63.2673 550.858 63.0615C550.99 62.5909 551.027 62.1092 551.001 61.6276C550.986 61.3262 550.946 61.0357 550.649 60.8409C550.484 60.7306 550.37 60.5467 550.29 60.3592C550.257 60.2857 550.121 60.1938 550.257 60.1056C550.37 60.0284 550.499 59.9365 550.649 60.0247C550.733 60.0762 550.825 60.135 550.887 60.2122C551.162 60.5504 551.529 60.7232 551.935 60.8262C551.99 60.8592 552.045 60.8997 552.104 60.9217C552.954 61.2416 553.838 61.3262 554.736 61.2784C554.937 61.2673 555.139 61.2306 555.322 61.0909C555.516 60.9438 555.67 60.7673 555.806 60.5798C556.026 60.2673 556.279 59.9585 556.209 59.5284C556.367 59.2012 556.224 58.874 556.191 58.5541C556.15 58.1717 555.876 57.896 555.648 57.6056C555.234 57.0798 554.725 56.7048 554.065 56.5247C553.544 56.3813 553.02 56.3629 552.493 56.3004C552.126 56.2563 551.818 56.4732 551.47 56.385C551.448 56.3776 551.404 56.4328 551.382 56.4659C550.931 57.157 550.392 57.7673 549.78 58.3225L549.766 58.3335Z" fill="#2B201C"/>
<path d="M557.586 60.591C558.272 62.8116 558.389 65.3484 557.374 67.4771C557.352 67.5359 557.348 67.5616 557.293 67.5543C557.246 67.5543 557.257 67.4697 557.235 67.4146C557.246 67.4697 557.187 67.5469 557.271 67.6057C557.337 67.6609 557.444 67.591 557.473 67.5285C559.203 65.4697 559.119 62.3116 558.063 59.9587C557.964 59.5175 557.363 59.4513 557.227 59.8888C556.927 60.9329 556.421 61.8962 556.051 62.955C556.619 62.216 557.169 61.4403 557.586 60.5874V60.591Z" fill="#2B201C"/>
<path d="M572.343 105.017C572.214 104.984 572.071 104.97 571.958 104.907C571.793 104.815 571.72 104.881 571.661 105.021C571.525 105.429 571.32 105.804 571.097 106.168C570.851 106.569 570.587 106.959 570.33 107.352C570.298 107.404 570.246 107.444 570.279 107.51C570.312 107.576 570.385 107.547 570.44 107.547C570.657 107.547 570.869 107.547 571.086 107.547C571.265 107.547 571.423 107.492 571.529 107.345C571.961 106.745 572.372 106.128 572.577 105.404C572.643 105.165 572.585 105.073 572.346 105.014L572.343 105.017Z" fill="#2B201C"/>
<path d="M574.355 105.867C574.355 105.867 574.362 105.852 574.366 105.845C574.42 105.701 574.377 105.639 574.219 105.639C573.896 105.639 573.574 105.661 573.251 105.591C573.156 105.569 573.057 105.584 573.024 105.701C572.954 105.951 572.837 106.176 572.724 106.407C572.672 106.514 572.705 106.569 572.826 106.569C573.024 106.569 573.218 106.569 573.416 106.569C573.91 106.569 574.224 106.335 574.358 105.867H574.355Z" fill="#2B201C"/>
<path d="M532.488 79.5467C532.407 79.6203 532.308 79.5651 532.228 79.521C532.066 79.4364 531.583 79.1938 531.418 79.1166C529.677 78.3004 528.475 76.7453 527.496 75.1239C527.84 75.2416 528.203 75.3409 528.559 75.3703C528.977 75.2931 529.394 75.1497 529.838 75.0945C529.438 75.0173 529.028 74.9989 528.617 75.0284C528.255 74.9144 527.914 74.7453 527.569 74.5688C527.437 74.5063 527.294 74.407 527.144 74.3445C526.869 74.2195 526.51 74.4989 526.591 74.8004C526.62 74.9291 526.649 74.9475 526.686 75.0247C526.704 75.0614 526.84 75.3225 526.858 75.3629C527.881 77.5284 529.739 79.3445 532.195 79.6092C532.286 79.6276 532.437 79.646 532.488 79.5431V79.5467Z" fill="#2B201C"/>
<path d="M534.431 117.396C534.189 117.602 534.005 117.859 533.807 118.106C533.789 118.128 533.8 118.172 533.8 118.19C533.804 118.345 534.266 118.856 534.401 118.867C534.456 118.87 534.5 118.856 534.544 118.819C534.709 118.672 534.874 118.521 535.039 118.374C535.138 118.286 535.164 118.209 535.068 118.091C534.896 117.878 534.738 117.657 534.577 117.437C534.533 117.374 534.478 117.352 534.427 117.396H534.431Z" fill="#2B201C"/>
<path d="M538.734 71.808C538.151 71.9624 537.649 72.2418 537.517 72.8815C537.411 73.3999 537.568 73.8448 537.938 74.2639C538.334 74.705 538.77 74.8705 539.317 74.7124C539.793 74.5764 540.288 74.444 540.555 73.9661C540.907 73.3374 541.017 72.3668 540.145 71.9955C540.145 72.2345 540.207 72.5176 539.921 72.6315C539.661 72.7381 539.364 72.9109 539.093 72.6977C538.8 72.4698 538.785 72.1389 538.88 71.7749C538.814 71.7896 538.774 71.8006 538.734 71.808V71.808Z" fill="#2B201C"/>
<path d="M557.161 67.5834C556.733 65.5062 556.253 63.8517 555.655 62.3848L555.604 62.2856L555.523 62.2709C555.461 62.2598 555.391 62.2819 555.351 62.3297L555.296 62.4179L555.314 62.4878C555.714 64.0539 556.04 65.7672 556.304 67.7194L556.337 68.0282C556.516 69.6164 556.707 71.2598 556.018 72.7231C554.779 75.3738 552.705 77.7892 550.172 79.5245C548.186 80.8113 545.063 82.2745 541.475 81.951C538.286 81.7047 532.656 80.5907 530.802 75.9032C530.772 75.8113 530.677 75.7635 530.586 75.7892C530.494 75.815 530.439 75.9106 530.461 75.9988C531.011 78.4914 533.507 81.6863 538.726 82.4841C539.528 82.5907 540.335 82.6422 541.145 82.6422C544.876 82.6422 548.636 81.5319 551.741 79.4694H551.748C554.237 77.5539 555.956 75.4914 557.008 73.1532C557.788 71.4289 557.513 69.4584 557.161 67.5834V67.5834Z" fill="#2B201C"/>
<path d="M549.952 66.3299C549.706 66.4586 549.432 66.5468 549.278 66.8079C548.907 67.4292 548.926 68.1498 549.406 68.7307C549.886 69.3116 550.436 69.4476 550.989 69.091C551.759 68.5946 552.125 67.6866 551.895 66.7638C551.821 66.4733 551.693 66.216 551.367 66.1167C551.367 66.3741 551.623 66.6351 551.323 66.8593C551.312 67.0321 551.191 67.0579 551.055 67.0689C551.037 67.0726 551.019 67.0763 551 67.0799C550.795 67.1682 550.59 67.2307 550.37 67.1424C550.348 67.1204 550.326 67.0946 550.304 67.0689C550.095 67.0248 550.058 66.8777 550.077 66.6939C550.077 66.6093 550.051 66.5174 550.077 66.4402C550.121 66.2968 550.033 66.2932 549.959 66.3336L549.952 66.3299Z" fill="#2B201C"/>
<path d="M559.31 103.51C560.266 103.135 561.219 102.753 562.047 102.12C562.341 101.896 562.663 101.694 562.781 101.322C562.953 100.789 563.015 100.245 562.876 99.69C562.733 99.1165 562.465 98.6128 562.099 98.1606C561.96 97.9657 561.868 97.7304 561.674 97.576C561.674 97.5209 561.641 97.4841 561.611 97.44C561.278 96.9878 560.93 96.5466 560.618 96.0834C559.947 95.0944 559.203 94.1643 558.426 93.2635C558.39 93.2194 558.335 93.1679 558.331 93.1165C558.313 92.929 558.17 92.9473 558.093 93.0062C557.95 93.1128 557.796 93.065 557.649 93.0944C557.334 93.1165 557.052 93.0797 556.935 92.7194C556.876 92.6422 556.792 92.6532 556.733 92.6974C556.568 92.8224 556.356 92.8775 556.209 93.0282C555.553 93.3003 554.926 93.6496 554.237 93.8371C553.838 93.9437 553.493 94.2084 553.068 94.2341C552.137 94.3297 551.598 93.8444 551.287 93.0282C551.059 92.4326 550.821 91.8371 550.623 91.2268C550.429 90.6238 550.176 90.0319 550.172 89.3738C550.172 89.1128 550.264 88.9474 550.491 88.8481C550.719 88.7525 550.957 88.7121 551.158 88.8849C551.312 89.0135 551.466 89.1569 551.58 89.3334C551.946 89.8996 552.247 90.4988 552.492 91.1275C552.639 91.4988 552.903 91.679 553.295 91.6973C553.522 91.7047 553.731 91.6496 553.944 91.5907C554.571 91.4106 555.208 91.2635 555.795 90.9621C556.051 90.842 556.137 90.6471 556.051 90.3775C556.004 90.2231 555.974 90.0687 555.941 89.9106C555.905 89.7415 555.974 89.679 556.11 89.6312C556.487 89.4988 556.88 89.5209 557.272 89.5282C557.517 89.5319 557.734 89.4363 557.957 89.3665C558.111 89.3187 558.166 89.2194 558.063 89.076C557.822 88.7304 557.598 88.3701 557.294 88.0724C557.279 88.0356 557.268 87.9915 557.246 87.9584C556.814 87.2525 556.381 86.5429 556 85.8076C555.831 85.4768 555.736 85.1091 555.491 84.8187C555.3 84.4694 555.113 84.1238 554.922 83.7709C555.036 83.701 555.084 83.7525 555.157 83.8334C555.923 84.7157 556.451 85.7635 557.103 86.7268C557.316 87.0429 557.47 87.3996 557.748 87.6679C557.759 87.701 557.759 87.7415 557.778 87.7635C558.078 88.1018 558.327 88.4731 558.536 88.8775C558.716 89.2268 558.602 89.6753 558.258 89.8665C557.792 90.1201 557.29 90.1753 556.773 90.1459C556.59 90.1348 556.52 90.179 556.601 90.3812C556.81 90.9069 556.971 91.4547 557.231 91.9621C557.275 92.076 557.283 92.2451 557.426 92.2562C557.778 92.2893 558.129 92.2378 558.474 92.1532C558.551 92.1532 558.628 92.1606 558.701 92.1496C559.108 92.0834 559.511 92.0135 559.914 91.9474C560.647 91.7488 561.417 91.7194 562.143 91.4841C562.806 91.2672 563.51 91.1496 564.089 90.7231C564.192 90.6679 564.305 90.6275 564.397 90.5576C564.628 90.3812 564.895 90.2304 565.02 89.9437C565.075 89.9143 565.101 89.8665 565.123 89.8076C565.35 89.1643 565.104 88.3297 564.543 87.8481C563.829 87.2341 563.11 86.6238 562.392 86.0135C562.359 85.9216 562.26 85.9106 562.198 85.8554C561.413 85.1312 560.662 84.3701 559.863 83.6606C559.493 83.3334 559.123 83.0062 558.723 82.7157C557.536 81.8518 556.41 80.9143 555.417 79.8187C555.183 79.5613 554.948 79.2819 554.611 79.1238C554.219 78.94 553.933 78.5834 553.522 78.4179C553.383 78.3628 553.291 78.3665 553.181 78.4731C552.984 78.6606 552.767 78.826 552.562 79.0062C552.254 79.2856 551.902 79.5099 551.613 79.815C551.62 79.8187 551.627 79.826 551.631 79.8297C551.624 79.826 551.616 79.8187 551.613 79.815C551.29 80.0282 550.982 80.2856 550.634 80.4437C550.319 80.5871 550.29 80.8187 550.279 81.0871C550.257 81.6091 550.081 82.0944 549.81 82.5172C549.329 83.2672 548.578 83.7084 547.779 84.0356C546.702 84.4768 545.598 84.8371 544.403 84.5135C544.359 84.5871 544.319 84.6606 544.275 84.7341C544.319 84.6606 544.359 84.5871 544.403 84.5135L544.396 84.5062C544.107 84.3481 543.894 84.1091 543.744 83.8187C543.67 83.6753 543.601 83.5319 543.48 83.4253C543.48 83.4106 543.48 83.3959 543.473 83.3812C543.458 83.3628 543.443 83.3444 543.429 83.3297C543.429 83.3297 543.429 83.3297 543.432 83.3297C543.308 83.1716 543.19 83.0062 543.124 82.815C543.102 82.7488 543.08 82.7157 543.007 82.7157C542.644 82.7121 542.285 82.7378 541.933 82.8297C541.556 82.8297 541.178 82.8297 540.797 82.8297C540.507 82.8297 540.214 82.8297 539.925 82.8187C539.767 82.8113 539.712 82.8738 539.657 83.0172C539.368 83.7304 539.217 84.4951 538.887 85.1937C538.854 85.2525 538.814 85.3076 538.785 85.3665C538.323 86.3113 537.934 87.2893 537.509 88.2488C536.919 89.701 536.311 91.1459 535.486 92.4841C535.354 92.6973 535.226 92.9106 535.09 93.1201C534.786 93.5871 534.489 94.0576 534.167 94.5135C533.903 94.8849 534.101 95.1826 534.508 95.4878C534.691 95.7304 534.947 95.8628 535.222 95.951C536.974 96.5062 538.737 97.0209 540.551 97.3371C540.647 97.3554 540.768 97.4032 540.856 97.2782C541.083 96.9474 541.292 96.6091 541.372 96.2084C541.471 96.0871 541.449 95.9253 541.512 95.7929C541.526 95.6018 541.607 95.4179 541.563 95.2231C541.563 95.1532 541.574 95.0871 541.57 95.0172C541.541 94.5062 541.413 94.4363 541.01 94.4363C540.438 94.4363 539.888 94.2562 539.39 93.9694C539.173 93.8444 539.06 93.6348 539.148 93.3628C539.206 93.179 539.254 92.9878 539.305 92.8003C539.43 92.6716 539.445 92.4951 539.503 92.3371C539.877 91.3371 540.394 90.3959 540.705 89.3701C540.775 89.1348 540.892 88.9179 540.991 88.6937C541.046 88.5724 541.043 88.6863 541.061 88.7121C541.043 88.7599 541.013 88.804 541.002 88.8518C540.852 89.3775 540.716 89.9069 540.555 90.4326C540.32 91.19 540.071 91.94 539.826 92.6937C539.745 92.9069 539.657 93.1165 539.58 93.3297C539.521 93.4878 539.58 93.565 539.745 93.6312C540.152 93.7893 540.577 93.8297 541.002 93.8738C541.493 93.8407 541.875 93.9878 542.017 94.5135C542.039 94.5981 542.105 94.6018 542.179 94.6054C542.798 94.6496 543.418 94.7121 544.041 94.7047C544.176 94.7047 544.315 94.6496 544.444 94.6679C544.763 94.7194 545.067 94.6459 545.375 94.6018C545.646 94.565 545.859 94.4143 546.005 94.1974C546.207 93.8996 546.353 93.5466 546.394 93.2047C546.449 92.7047 546.504 92.1974 546.463 91.69C546.441 91.3922 546.463 91.0981 546.518 90.804C546.559 90.5981 546.621 90.4106 546.892 90.3996C547.112 90.3885 547.277 90.4474 547.398 90.6422C547.607 90.9841 547.64 91.3812 547.739 91.7562C547.97 92.6201 548.135 93.4988 548.201 94.3885C548.23 94.7672 548.278 95.1606 548.116 95.5319C548.105 95.7121 547.918 95.7929 547.882 95.9584C547.709 96.0025 547.614 96.1753 547.438 96.2121C547.42 96.2231 547.402 96.2378 547.383 96.2488C547.284 96.2782 547.163 96.2084 547.075 96.3003C547.024 96.304 546.973 96.3113 546.921 96.315C546.727 96.3076 546.537 96.3554 546.35 96.3959C545.954 96.4253 545.562 96.4804 545.166 96.4584C544.711 96.4363 544.261 96.4841 543.81 96.5172C543.168 96.5687 542.538 96.7341 541.889 96.7157C541.801 96.7157 541.71 96.7525 541.702 96.8224C541.666 97.1201 541.457 97.3334 541.35 97.5944C541.266 97.6201 541.255 97.7121 541.211 97.7709C541.09 97.9253 540.995 98.1091 540.735 97.9657C540.639 97.9143 540.489 97.951 540.537 98.1238C540.625 98.429 540.551 98.7378 540.592 99.0429C540.592 99.2672 540.61 99.4915 540.577 99.7121C540.449 100.58 540.463 101.458 540.39 102.33C540.331 103.032 540.258 103.727 540.13 104.422C540.038 104.635 540.082 104.874 540.02 105.094C539.987 105.205 540.016 105.319 540.101 105.425C540.467 105.878 540.977 105.988 541.508 106.065C541.794 106.161 542.087 106.197 542.384 106.219C542.608 106.256 542.835 106.33 543.058 106.326C544.381 106.308 545.708 106.381 547.031 106.241C547.783 106.164 548.534 106.109 549.285 106.014C549.351 105.999 549.414 105.984 549.48 105.973C550.268 105.833 551.07 105.749 551.855 105.594C553.31 105.308 554.747 104.947 556.139 104.429C556.191 104.414 556.257 104.444 556.293 104.377C556.942 104.252 557.576 104.08 558.199 103.859C558.577 103.8 558.936 103.672 559.291 103.532L559.31 103.51Z" fill="#2B201C"/>
<path d="M548.395 69.7786C548.358 69.5911 548.277 69.4661 548.153 69.4073C548.024 69.3484 547.87 69.3705 547.698 69.4698C547.482 69.5948 547.31 69.7639 547.181 69.9036C546.698 70.4183 546.122 71.0212 545.495 71.5874L545.437 71.6389C545.213 71.8411 544.96 72.069 544.894 72.433L544.817 72.8705L545.133 72.558C545.418 72.2749 545.737 72.0139 546.045 71.7602C546.316 71.5396 546.595 71.3117 546.852 71.0654C547.038 70.8889 547.233 70.7161 547.427 70.547C547.533 70.4551 547.64 70.3595 547.746 70.2639C547.757 70.2529 547.764 70.2455 547.771 70.2418C547.775 70.3006 547.782 70.3595 547.79 70.4183C547.804 70.5543 547.819 70.6867 547.819 70.8154C547.808 71.6609 547.581 72.5249 547.104 73.5396C547.013 73.7308 546.936 73.9404 547.071 74.183L547.097 74.2161C547.2 74.3154 547.295 74.3962 547.405 74.3962C547.416 74.3962 547.431 74.3962 547.442 74.3962C547.57 74.3742 547.64 74.2529 547.706 74.1205C548.039 73.4514 548.288 72.683 548.461 71.7712C548.6 71.047 548.497 70.3264 548.391 69.7823L548.395 69.7786Z" fill="#2B201C"/>
<path d="M542.696 76.1017C542.655 76.0282 542.589 75.94 542.494 75.9914C542.413 76.0356 542.476 76.1164 542.501 76.1753C542.696 76.6348 542.868 77.1164 543.249 77.4547C544.07 78.1789 545.067 78.4731 546.13 78.565C546.995 78.4878 547.819 78.2892 548.571 77.8554C548.879 77.6789 549.194 77.4804 549.286 77.0907C549.333 76.8848 549.223 76.7966 549.018 76.8334C548.805 76.8738 548.695 77.0539 548.534 77.1606C547.457 77.8554 546.309 78.1348 545.049 77.7635C544.389 77.5687 543.744 77.3517 543.238 76.8444C543.018 76.6238 542.842 76.3738 542.692 76.1017H542.696Z" fill="#2B201C"/>
<path d="M551.081 55.0137C550.803 54.7931 550.565 54.5321 550.326 54.2674C550.147 54.0689 549.967 53.885 549.747 53.738C549.11 53.3078 548.432 52.9586 547.72 52.6644C546.976 52.3556 546.243 52.01 545.492 51.7122C544.796 51.4365 544.048 51.3446 543.341 51.1056C542.802 50.9218 542.252 50.7784 541.691 50.7012C540.768 50.5689 539.837 50.4843 538.92 50.3262C537.59 50.0983 536.252 49.9255 534.907 49.8299C534.016 49.7674 533.126 49.7122 532.235 49.6167C531.568 49.5468 530.894 49.5431 530.227 49.4622C529.391 49.3593 528.559 49.2049 527.778 48.9034C526.756 48.51 525.777 47.9953 524.81 47.4769C523.97 47.0284 523.171 46.5137 522.457 45.885C522.325 45.7417 521.632 45.0027 521.28 44.7012C521.28 44.6865 521.273 44.6755 521.273 44.6608C521.221 44.5946 521.181 44.4953 521.079 44.5725C521.079 44.5725 520.998 44.4696 520.899 44.6387C520.848 44.6608 520.811 44.6975 520.818 44.7894C520.818 44.8042 520.818 44.8152 520.818 44.8299C520.796 44.8924 520.778 44.9696 520.756 45.0615C520.602 45.7637 520.565 47.8997 520.565 47.8997C520.551 48.2453 520.532 48.5909 520.518 48.9402C520.499 49.2453 520.47 49.5505 520.459 49.8593C520.43 51.0027 520.47 52.1461 520.62 53.2821C520.62 53.3336 520.62 53.385 520.62 53.4365C520.62 53.5836 520.576 53.7343 520.646 53.874C520.686 54.2784 520.723 54.6828 520.767 55.0872C520.793 55.2968 520.833 55.5064 520.866 55.7122C520.961 56.2858 521.02 56.8666 521.221 57.4144C521.342 58.1571 521.529 58.8814 521.804 59.5836C522.303 60.7711 522.622 62.0247 523.12 63.2196C523.824 64.9034 524.432 66.6314 525.312 68.2417C525.444 68.4843 525.546 68.7527 525.759 68.9475C525.913 69.2012 526.056 69.4622 526.276 69.6718C526.481 70.1019 526.825 70.3961 527.177 70.6828C529.351 69.6461 536.993 65.9806 541.112 63.6093C544.631 61.5836 548.97 57.238 551.081 55.0137V55.0137Z" fill="#2B201C"/>
<path d="M517.769 44.9364C517.465 44.8482 517.102 45.0283 516.783 44.782C516.611 44.6496 516.512 44.4768 516.438 44.2857C516.391 44.168 516.438 44.0541 516.548 43.9695C516.684 43.8666 516.816 43.7563 516.951 43.6496C516.966 43.6386 516.984 43.6129 516.988 43.6166C517.311 43.8004 517.523 43.3886 517.831 43.4658C518.124 43.5357 518.436 43.5541 518.703 43.7121C518.791 43.7636 518.92 43.8077 518.978 43.8041C519.165 43.793 519.143 43.9291 519.125 43.9952C519.077 44.1791 519.026 44.3482 518.887 44.521C518.582 44.8996 518.198 44.8923 517.769 44.9327V44.9364Z" fill="#2B201C"/>
<path d="M517.776 41.5654C517.798 41.422 517.743 41.2382 517.856 41.1463C518.065 40.9772 518.245 40.7345 518.575 40.7713C518.696 40.786 518.776 40.8081 518.839 40.9257C518.993 41.2162 519.168 41.4919 519.33 41.7787C519.502 42.0838 519.473 42.4368 519.517 42.7676C519.542 42.9441 519.37 43.0728 519.157 43.0765C518.806 43.0875 518.534 42.9368 518.333 42.661C518.175 42.4404 518.025 42.2125 517.889 41.9772C517.816 41.8559 517.743 41.7198 517.776 41.5654V41.5654Z" fill="#2B201C"/>
<path d="M521.508 40.8005C521.57 41.2968 521.449 41.7748 521.321 42.2564C521.291 42.3593 521.203 42.374 521.13 42.4108C520.731 42.602 520.445 42.374 520.434 41.9182C520.423 41.4917 520.492 41.0762 520.485 40.6535C520.481 40.363 520.628 40.1755 520.848 40.0285C521.006 39.9218 521.42 40.1351 521.46 40.3336C521.489 40.4843 521.522 40.6351 521.504 40.8005H521.508ZM521.317 40.1461C521.317 40.1461 521.328 40.1351 521.335 40.1277C521.324 40.124 521.313 40.1167 521.302 40.113C521.299 40.113 521.291 40.124 521.288 40.1277C521.299 40.1351 521.31 40.1387 521.321 40.1461H521.317Z" fill="#2B201C"/>
<path d="M521.859 45.3153C521.493 45.2528 521.306 45.0322 521.276 44.6682C521.408 44.2785 521.757 44.3116 522.061 44.2785C522.556 44.2234 523.043 44.3447 523.534 44.3484C523.714 44.3484 523.831 44.4881 523.893 44.6388C523.948 44.7748 523.875 44.8631 523.743 44.9587C523.384 45.2197 522.988 45.2932 522.563 45.2859C522.328 45.2822 522.09 45.205 521.859 45.319V45.3153Z" fill="#2B201C"/>
<path d="M518.447 47.065C518.447 46.576 518.572 46.179 518.762 45.8003C518.832 45.6606 518.942 45.5503 519.118 45.5393C519.198 45.5356 519.268 45.5135 519.312 45.44C519.404 45.2856 519.521 45.3849 519.624 45.4179C519.759 45.4657 519.734 45.5907 519.704 45.679C519.668 45.7929 519.66 45.8922 519.668 46.0172C519.708 46.5576 519.536 47.0503 519.319 47.5393C519.187 47.8371 518.964 47.7599 518.74 47.7231C518.502 47.6863 518.451 47.5062 518.432 47.3076C518.425 47.2084 518.443 47.1018 518.443 47.0613L518.447 47.065Z" fill="#2B201C"/>
<path d="M520.756 45.0654C520.756 45.0654 520.785 45.0875 520.8 45.0912C521.393 45.2309 521.69 45.5838 521.73 46.1978C521.73 46.2493 521.73 46.3081 521.756 46.3485C521.965 46.6757 521.789 46.9772 521.697 47.2787C521.632 47.4882 521.302 47.5287 521.133 47.3743C520.913 47.172 520.855 46.8706 520.668 46.65C520.583 46.2419 520.484 45.8412 520.51 45.4184C520.521 45.2456 520.536 45.0875 520.756 45.0691V45.0654Z" fill="#2B201C"/>
<path d="M521.537 43.6425C521.474 43.6315 521.361 43.6425 521.32 43.4992C521.258 43.2822 521.287 43.0764 521.485 42.9624C521.826 42.7675 522.112 42.4992 522.5 42.3631C522.68 42.3006 522.885 42.2308 523.069 42.1462C523.127 42.1168 523.219 42.069 523.277 42.1646C523.332 42.2492 523.413 42.3558 523.365 42.4477C523.175 42.8227 522.926 43.1536 522.533 43.3374C522.233 43.4808 521.932 43.6352 521.54 43.6499L521.537 43.6425Z" fill="#2B201C"/>
<path d="M521.316 40.1459C521.316 40.1459 521.294 40.1349 521.283 40.1275C521.287 40.1238 521.294 40.1128 521.298 40.1128C521.309 40.1128 521.32 40.1238 521.331 40.1275C521.327 40.1349 521.32 40.1385 521.313 40.1459H521.316Z" fill="#2B201C"/>
</g>
</g>
</g>
<defs>
<clipPath id="clip0_1884_85196">
<rect width="933" height="587" rx="10" fill="white"/>
</clipPath>
<clipPath id="clip1_1884_85196">
<rect width="169" height="100" fill="white" transform="translate(500 40)"/>
</clipPath>
</defs>
</svg>
