<svg width="993" height="587" viewBox="0 0 993 587" fill="none" xmlns="http://www.w3.org/2000/svg">
<g clip-path="url(#clip0_2655_133942)">
<path d="M1051.54 -76.61H-55.604V1098.86H1051.54V-76.61Z" fill="white"/>
<path opacity="0.25" d="M1051.54 -76.61H-55.604V1098.86H1051.54V-76.61Z" fill="#FFFFE0"/>
<g style="mix-blend-mode:multiply">
<path d="M10.65 0C4.77122 0 0 4.48 0 10V577C0 582.52 4.77122 587 10.65 587H398.93V0H10.65Z" fill="#00807E"/>
</g>
<g opacity="0.63">
<path d="M172.872 341.2C173.66 340.65 174.107 340.31 174.597 340.02C178.037 337.97 181.051 334.94 185.066 334.16C189.358 333.33 193.554 332.36 197.782 331.42C201.914 330.49 206.196 329.18 210.903 332.04C211.904 332.65 214.002 332.04 215.589 331.98C220.445 331.78 225.195 332.13 230.094 333.68C237.752 336.1 245.004 339.23 252.108 342.61C257.486 345.16 261.533 349 265.516 352.81C267.945 355.14 270.192 357.61 272.822 359.79C279.99 365.73 285.262 372.05 286.22 380.27C286.625 383.71 289.66 387.2 292.195 391.98C291.705 396.92 290.917 403.28 290.459 409.69C290.022 415.94 287.647 421.44 284.718 427.03C280.544 434.98 273.216 440.94 267.859 448.1C262.705 450.7 260.617 456.15 253.865 457.28C246.485 462.93 236.207 465.16 227.815 469.63C226.324 470.42 224.301 470.71 222.448 471.04C217.793 471.86 213.139 472.72 208.389 473.28C205.908 473.57 203.224 473.28 200.626 473.21C198.389 473.15 196.142 473.01 193.895 472.92C192.915 472.88 191.69 473.19 190.987 472.81C187.207 470.77 183.053 470.27 178.953 469.25C175.151 468.3 171.53 466.41 167.983 464.72C166.258 463.89 164.767 462.62 163.329 461.44C158.963 457.87 154.596 454.29 150.389 450.61C147.588 448.15 145.352 445.53 144.564 442.15C143.658 438.28 141.667 434.48 140.506 430.62C139.1 425.94 138.089 421.24 141.678 417.27C144.148 414.54 142.498 411.1 141.773 408.2C140.879 404.62 140.506 401.49 142.423 398.42C142.956 397.57 143.115 396.47 143.126 395.45C143.286 386.7 146.949 379.09 151.689 371.78C152.807 370.05 153.446 368.09 154.255 366.21C154.553 365.52 154.394 364.38 154.979 364.11C160.251 361.65 160.464 356.56 163.382 352.89C163.542 352.69 163.776 352.46 164.043 352.38C170.571 350.54 171.7 345.67 172.85 341.23L172.872 341.2Z" fill="#FFB128"/>
<path d="M160.528 379.25C162.605 380.22 163.851 380.72 165.044 381.37C173.351 385.94 183.394 388.59 189.486 395.67C195.982 403.22 202.692 410.45 209.401 417.78C215.951 424.93 223.523 431.94 222.213 444.33C221.936 446.96 225.557 450.44 227.421 453.49C233.14 462.85 237.485 472.58 239.338 483.93C242.225 501.65 243.055 519.33 243.215 537.01C243.332 550.38 239.136 562.51 234.919 574.49C232.341 581.81 229.253 588.91 227.229 596.45C221.702 617.01 213.288 634.26 195.929 645.05C188.676 649.56 184.15 659.34 176.194 669.51C164.607 673.88 149.527 679.23 134.702 685.28C120.25 691.18 105.393 692.47 89.716 692.74C67.4148 693.12 46.1466 685.13 24.346 682.31C12.9398 674.96 -1.49106 676.75 -11.3211 664.67C-31.9609 656.23 -48.0637 638.39 -67.1486 626.67C-70.546 624.58 -73.3682 620.91 -76.116 617.61C-82.9959 609.32 -89.9504 601.07 -96.3404 592.31C-99.6845 587.73 -101.932 582.13 -104.584 576.93C-106.863 572.45 -109.003 567.87 -111.229 563.36C-112.209 561.38 -114.211 559.31 -114.126 557.51C-113.657 547.85 -117.033 539.1 -119.195 529.93C-121.198 521.41 -120.889 512.23 -120.931 503.39C-120.953 499.09 -119.728 494.78 -118.642 490.65C-115.372 478.18 -112.113 465.69 -108.428 453.41C-105.968 445.22 -102.528 437.98 -95.8185 432.76C-88.1505 426.8 -81.8031 418.75 -74.4226 412.27C-65.4872 404.42 -56.0726 397.34 -43.2818 400.13C-34.5062 402.05 -28.5848 395.05 -22.8977 390.5C-15.8473 384.87 -9.25495 380.74 -0.319554 381.18C2.17256 381.3 4.78182 380.43 7.08223 379.36C26.8061 370.2 47.808 369.19 69.2785 370.62C74.3586 370.96 79.4387 370.08 84.4974 369.64C86.3718 369.48 88.7255 367.93 89.9822 368.79C101.197 376.53 112.816 371.42 124.169 373.2C124.808 373.3 125.553 373.5 126.022 373.96C137.205 384.83 149.314 381.78 160.507 379.26L160.528 379.25Z" fill="#D4CFC6"/>
<path d="M-83.7413 352.42C-83.4431 350.13 -80.951 346.98 -77.4791 344.02C-73.7196 340.81 -70.4926 336.99 -67.3828 333.19C-64.3263 329.46 -60.5561 327.28 -55.7743 325.79C-48.0317 323.37 -40.2891 321.58 -32.1525 320.52C-25.7731 319.69 -19.8517 320.84 -13.845 321.51C-6.14504 322.36 1.35259 324.57 8.77567 326.8C12.0985 327.8 14.974 329.28 17.6046 331.51C19.8624 333.42 22.5781 335.08 25.3898 336.13C32.3549 338.73 36.2635 343.54 38.4467 350.03C40.598 356.43 42.76 362.84 45.4118 369.05C46.7112 372.1 46.2106 374.68 45.1243 377.42C43.6972 381.01 41.8973 384.5 40.7897 388.17C39.1709 393.54 35.6138 397.9 32.4401 402.34C29.2877 406.75 26.8062 412.01 21.0871 414.39C19.4683 419.95 14.1966 420.8 9.47858 422.5C6.94387 423.41 4.65411 424.89 2.2259 426.07C-3.33343 428.78 -9.23356 429.9 -15.4851 429.4C-20.8634 428.97 -26.0713 431.48 -31.5561 430.04C-36.8065 428.66 -42.1742 427.68 -47.414 426.29C-48.9689 425.88 -50.5664 424.93 -51.6847 423.82C-54.3365 421.18 -57.3824 419.27 -60.9821 417.96C-66.7012 415.88 -68.9058 410.22 -73.4214 406.87C-74.7207 405.91 -75.4769 404.32 -76.5632 403.09C-78.9381 400.4 -82.4526 398.08 -83.5283 395C-85.1684 390.26 -85.2004 385.02 -85.7968 379.99C-85.9459 378.73 -85.2004 377.25 -85.669 376.19C-87.341 372.43 -86.5636 368.54 -86.4571 364.77C-86.3612 361.32 -85.0193 357.9 -83.7626 352.41L-83.7413 352.42Z" fill="#3A80A2"/>
<path d="M52.1532 239.34C52.3449 238.36 53.5164 237.06 55.1033 235.86C56.8286 234.57 58.3302 232.99 59.7893 231.42C61.2164 229.88 62.9204 229.03 65.0291 228.51C68.4584 227.66 71.8558 227.08 75.4129 226.82C78.2032 226.62 80.7273 227.27 83.3152 227.71C86.6274 228.27 89.8118 229.42 92.9642 230.57C94.37 231.09 95.5734 231.8 96.6597 232.83C97.5863 233.71 98.7152 234.5 99.8974 235.03C102.837 236.33 104.392 238.51 105.158 241.38C105.904 244.2 106.66 247.04 107.629 249.8C108.109 251.15 107.81 252.26 107.267 253.42C106.543 254.94 105.67 256.41 105.084 257.97C104.232 260.26 102.56 262.06 101.058 263.9C99.5672 265.73 98.3424 267.95 95.7971 268.84C94.9344 271.21 92.634 271.44 90.536 272.06C89.4177 272.39 88.374 272.97 87.2877 273.42C84.8062 274.45 82.2076 274.79 79.5238 274.42C77.2021 274.1 74.8804 275.06 72.548 274.29C70.3115 273.56 68.0218 273 65.7852 272.27C65.1249 272.05 64.454 271.6 64.0067 271.09C62.931 269.88 61.6637 268.98 60.1514 268.32C57.7338 267.28 56.9457 264.77 55.082 263.2C54.5494 262.75 54.2619 262.05 53.8252 261.48C52.8774 260.25 51.4183 259.16 51.0456 257.8C50.4705 255.71 50.6089 253.44 50.4918 251.24C50.4598 250.69 50.8326 250.07 50.6515 249.6C50.0338 247.93 50.4811 246.26 50.6409 244.64C50.7793 243.15 51.4609 241.7 52.1638 239.35L52.1532 239.34Z" fill="#FFC880"/>
<path d="M275.677 564.75C272.801 563.87 269.979 562.17 267.827 560.04C264.409 556.64 260.468 554.16 255.793 552.46C249.456 550.16 245.611 545.61 242.214 541.59C240.223 539.24 238.348 537.02 236.144 535.38C234.344 534.05 233.172 532.39 232.15 530.93C231.671 530.26 231.223 529.62 230.787 529.13C229.796 528.01 228.603 526.89 227.347 525.71C224.386 522.94 221.042 519.79 219.615 515.68C217.644 510.01 217.123 504.09 216.622 498.35C216.452 496.43 216.281 494.45 216.047 492.55C215.877 491.15 216.1 489.87 216.281 488.84C216.335 488.53 216.409 488.08 216.43 487.82C214.204 482.59 214.545 477.41 214.854 472.83C214.929 471.63 215.003 470.5 215.035 469.38C215.142 465.49 216.153 461.72 217.325 457.36C217.879 455.31 218.496 453 219.093 450.42C219.977 444.63 226.196 438.58 229.86 435.46C235.111 430.98 239.669 425.59 244.259 419.99C249.073 414.12 255.26 410.16 263.717 407.51C275.975 403.68 287.7 401.07 299.554 399.52C307.786 398.44 315.38 399.41 322.729 400.34C324.443 400.56 326.158 400.78 327.883 400.97C340.099 402.32 351.888 405.86 362.283 408.99C362.379 409.02 362.464 409.05 362.56 409.07C368.14 410.78 372.89 413.34 377.097 416.9C380.154 419.48 383.743 421.62 387.215 422.92C398.184 427.02 405.415 434.67 409.324 446.31C412.242 455.01 415.554 464.86 419.527 474.18C422.179 480.39 420.815 485.56 419.133 489.79C418.366 491.73 417.525 493.64 416.715 495.49C415.224 498.88 413.829 502.09 412.839 505.37C410.57 512.91 406.129 519 401.826 524.89C401.155 525.81 400.495 526.72 399.835 527.63C398.972 528.83 398.152 530.08 397.279 531.4C393.796 536.67 389.877 542.59 382.965 546.16C379.77 553.83 372.517 556.21 366.607 558.15C365.595 558.48 364.583 558.81 363.593 559.17C361.484 559.93 359.397 561.06 357.181 562.25C355.946 562.92 354.657 563.61 353.337 564.26C344.305 568.66 334.614 570.48 324.518 569.67C321.706 569.45 318.735 569.91 315.582 570.4C310.854 571.13 305.507 571.97 299.842 570.48C296.082 569.49 292.163 568.62 288.371 567.77C284.431 566.89 280.352 565.98 276.337 564.92C276.124 564.86 275.911 564.8 275.698 564.74L275.677 564.75ZM359.61 417.53C359.535 417.51 359.461 417.48 359.386 417.46C349.396 414.46 338.075 411.06 326.765 409.81C324.986 409.61 323.218 409.39 321.45 409.16C314.432 408.27 307.797 407.43 300.853 408.33C289.586 409.8 278.414 412.3 266.699 415.95C260.021 418.04 255.41 420.95 251.757 425.41C246.9 431.33 242.054 437.06 236.229 442.03C231.202 446.32 228.678 450.05 228.465 451.71L228.39 452.12C227.741 454.92 227.091 457.37 226.505 459.53C225.43 463.54 224.578 466.71 224.492 469.61C224.46 470.88 224.375 472.15 224.29 473.37C224.024 477.43 223.768 481.27 225.291 484.69C226.218 486.76 225.866 488.78 225.611 490.26C225.536 490.69 225.43 491.33 225.44 491.56C225.685 493.58 225.866 495.63 226.037 497.61C226.516 503.07 226.974 508.24 228.593 512.91C229.317 514.99 231.596 517.13 234.014 519.4C235.377 520.68 236.783 521.99 238.05 523.44C238.806 524.3 239.445 525.2 240.01 526C240.712 526.99 241.373 527.93 241.99 528.39C245.058 530.67 247.369 533.4 249.605 536.05C252.63 539.63 255.25 542.73 259.18 544.16C265.208 546.35 270.277 549.54 274.686 553.93C275.794 555.03 277.434 555.99 278.85 556.37C282.674 557.38 286.657 558.27 290.512 559.13C294.389 559.99 298.393 560.89 302.344 561.92C305.987 562.88 309.874 562.27 313.985 561.63C317.574 561.07 321.28 560.5 325.274 560.81C333.56 561.47 341.515 559.98 348.928 556.36C350.078 555.8 351.217 555.19 352.421 554.54C354.849 553.23 357.352 551.88 360.153 550.87C361.26 550.47 362.368 550.11 363.444 549.76C369.61 547.74 373.156 546.37 374.477 541.84L375.073 539.81L377.129 538.95C382.624 536.66 385.819 531.83 389.195 526.72C390.079 525.39 390.985 524.01 391.943 522.68C392.614 521.74 393.296 520.81 393.977 519.87C398.024 514.33 401.837 509.1 403.68 502.96C404.819 499.18 406.395 495.59 407.918 492.11C408.738 490.24 409.505 488.48 410.219 486.68C411.763 482.79 411.891 480.29 410.687 477.48C406.576 467.85 403.211 457.83 400.24 448.98C397.194 439.92 391.933 434.27 383.657 431.18C379.099 429.48 374.626 426.83 370.696 423.51C367.459 420.77 363.912 418.87 359.567 417.53H359.61Z" fill="#00807E"/>
<path d="M60.0874 102.13C60.0235 101.81 60.2046 101.28 60.5347 100.74C60.8862 100.15 61.1418 99.51 61.3867 98.87C61.621 98.24 62.0257 97.79 62.6008 97.4C63.5274 96.76 64.4859 96.2 65.5296 95.72C66.3497 95.34 67.2017 95.26 68.0324 95.1C69.108 94.9 70.2156 94.88 71.3232 94.88C71.8131 94.88 72.2711 94.96 72.729 95.15C73.1231 95.31 73.5597 95.42 73.9964 95.45C75.0508 95.51 75.8069 96 76.4033 96.78C76.9891 97.55 77.5855 98.32 78.2351 99.05C78.5546 99.41 78.6079 99.77 78.5866 100.19C78.5653 100.73 78.4801 101.27 78.512 101.81C78.544 102.6 78.2671 103.33 78.0541 104.06C77.8411 104.78 77.7452 105.59 77.0956 106.15C77.1382 106.96 76.4672 107.3 75.9134 107.72C75.6152 107.95 75.3809 108.24 75.104 108.5C74.4863 109.09 73.7408 109.49 72.8781 109.68C72.1326 109.84 71.5469 110.4 70.7481 110.43C69.9813 110.46 69.2145 110.55 68.4371 110.58C68.2134 110.58 67.9472 110.53 67.7448 110.42C67.2656 110.17 66.765 110.04 66.2219 110.02C65.3592 109.98 64.7948 109.31 64.028 109.04C63.8043 108.96 63.6339 108.78 63.4315 108.66C62.9842 108.4 62.4091 108.23 62.1216 107.86C61.6743 107.29 61.4293 106.59 61.1098 105.94C61.0353 105.78 61.0672 105.55 60.9501 105.42C60.5454 104.98 60.4708 104.43 60.3111 103.92C60.162 103.45 60.1833 102.94 60.0981 102.15L60.0874 102.13Z" fill="#F85B00"/>
<path d="M205.951 155.05C206.014 155.37 205.833 155.9 205.503 156.44C205.152 157.03 204.896 157.67 204.651 158.31C204.417 158.94 204.012 159.39 203.437 159.78C202.511 160.42 201.552 160.98 200.508 161.46C199.688 161.84 198.836 161.92 198.006 162.08C196.93 162.28 195.822 162.3 194.715 162.3C194.225 162.3 193.767 162.22 193.309 162.03C192.915 161.87 192.478 161.76 192.042 161.73C190.987 161.67 190.231 161.18 189.635 160.4C189.049 159.63 188.452 158.86 187.803 158.13C187.483 157.77 187.43 157.41 187.451 156.99C187.473 156.45 187.558 155.91 187.526 155.37C187.494 154.58 187.771 153.85 187.984 153.12C188.197 152.4 188.293 151.59 188.942 151.03C188.9 150.22 189.571 149.88 190.125 149.46C190.423 149.23 190.657 148.94 190.934 148.68C191.552 148.09 192.297 147.69 193.16 147.5C193.905 147.34 194.491 146.78 195.29 146.75C196.057 146.72 196.823 146.63 197.601 146.6C197.825 146.6 198.091 146.65 198.293 146.76C198.772 147.01 199.273 147.14 199.816 147.16C200.679 147.2 201.243 147.87 202.01 148.14C202.234 148.22 202.404 148.4 202.606 148.52C203.054 148.78 203.629 148.95 203.916 149.32C204.364 149.89 204.609 150.59 204.928 151.24C205.003 151.4 204.971 151.63 205.088 151.76C205.493 152.2 205.567 152.75 205.727 153.26C205.876 153.73 205.855 154.24 205.94 155.03L205.951 155.05Z" fill="#5BE5E7"/>
<path d="M281.417 167.01C280.746 163.83 282.62 158.59 285.879 153.21C289.415 147.38 291.939 140.94 294.346 134.58C296.7 128.33 300.725 123.87 306.423 119.91C315.657 113.49 325.167 107.93 335.551 103.16C343.688 99.43 352.154 98.54 360.493 96.96C371.186 94.94 382.241 94.81 393.2 94.75C398.109 94.72 402.636 95.52 407.204 97.42C411.113 99.05 415.511 100.15 419.771 100.4C430.294 101.02 437.759 105.84 443.702 113.63C449.549 121.3 455.439 128.98 461.882 136.21C465.034 139.75 465.567 143.41 465.396 147.53C465.162 152.92 464.374 158.32 464.608 163.69C464.949 171.54 462.223 178.83 460.039 186.07C457.877 193.26 457.004 201.31 450.476 206.85C450.902 214.95 444.245 218.25 438.729 222.46C435.768 224.72 433.382 227.64 430.688 230.21C424.511 236.11 417.141 240.03 408.557 241.93C401.166 243.56 395.362 249.07 387.374 249.39C379.717 249.7 372.081 250.59 364.423 250.89C362.144 250.98 359.577 250.36 357.565 249.33C352.783 246.89 347.82 245.59 342.399 245.32C333.783 244.89 328.202 238.23 320.609 235.6C318.426 234.85 316.679 233.04 314.645 231.83C310.214 229.2 304.431 227.55 301.567 223.87C297.168 218.21 294.687 211.21 291.534 204.72C290.746 203.1 291.055 200.81 289.926 199.58C285.932 195.24 285.166 189.71 283.557 184.64C282.077 179.99 282.279 174.86 281.406 167L281.417 167.01Z" fill="#3A80A2"/>
<path d="M98.5664 7.41C97.6931 3.26 100.132 -3.59 104.403 -10.62C109.025 -18.24 112.326 -26.65 115.457 -34.96C118.535 -43.12 123.786 -48.95 131.241 -54.13C143.307 -62.51 155.725 -69.78 169.304 -76.01C179.933 -80.89 190.988 -82.05 201.883 -84.11C215.845 -86.75 230.286 -86.92 244.61 -87C251.022 -87.04 256.943 -85.99 262.907 -83.51C268.009 -81.38 273.77 -79.94 279.33 -79.61C293.068 -78.8 302.834 -72.5 310.598 -62.32C318.245 -52.3 325.934 -42.26 334.348 -32.82C338.469 -28.19 339.172 -23.41 338.938 -18.03C338.629 -10.99 337.607 -3.93 337.916 3.08C338.363 13.34 334.795 22.86 331.952 32.32C329.119 41.72 327.99 52.23 319.448 59.47C320.002 70.05 311.312 74.36 304.102 79.86C300.236 82.81 297.115 86.62 293.601 89.99C285.539 97.7 275.9 102.83 264.686 105.3C255.026 107.43 247.454 114.62 237.006 115.05C226.995 115.46 217.027 116.62 207.016 117.01C204.044 117.13 200.679 116.32 198.048 114.98C191.808 111.79 185.322 110.09 178.239 109.74C166.982 109.18 159.698 100.47 149.772 97.04C146.918 96.05 144.639 93.69 141.987 92.12C136.193 88.69 128.642 86.53 124.904 81.72C119.153 74.33 115.915 65.19 111.804 56.71C110.782 54.6 111.187 51.6 109.706 50C104.498 44.33 103.487 37.11 101.389 30.48C99.461 24.4 99.7166 17.71 98.577 7.43L98.5664 7.41Z" fill="#E28092"/>
<path d="M233.705 153.07C233.428 151.75 234.205 149.58 235.558 147.35C237.027 144.93 238.071 142.26 239.072 139.62C240.052 137.03 241.713 135.18 244.078 133.54C247.912 130.88 251.852 128.57 256.155 126.6C259.531 125.05 263.035 124.68 266.496 124.03C270.927 123.19 275.517 123.14 280.064 123.11C282.098 123.1 283.983 123.43 285.869 124.22C287.487 124.89 289.319 125.35 291.076 125.46C295.443 125.72 298.542 127.72 301.002 130.95C303.43 134.13 305.869 137.32 308.542 140.31C309.852 141.78 310.076 143.3 310.002 145C309.906 147.24 309.576 149.48 309.671 151.7C309.81 154.96 308.681 157.98 307.776 160.98C306.881 163.96 306.519 167.3 303.803 169.6C303.974 172.96 301.215 174.33 298.936 176.07C297.711 177.01 296.721 178.22 295.603 179.28C293.047 181.73 289.979 183.35 286.422 184.14C283.355 184.82 280.948 187.1 277.636 187.23C274.462 187.36 271.289 187.73 268.115 187.85C267.167 187.89 266.102 187.63 265.271 187.21C263.29 186.2 261.235 185.66 258.988 185.55C255.42 185.37 253.098 182.61 249.946 181.52C249.041 181.21 248.316 180.46 247.475 179.96C245.633 178.87 243.236 178.18 242.054 176.66C240.233 174.31 239.2 171.41 237.901 168.72C237.571 168.05 237.698 167.1 237.24 166.59C235.59 164.79 235.27 162.5 234.599 160.39C233.982 158.46 234.067 156.34 233.705 153.07V153.07Z" fill="#FFB128"/>
<path d="M276.699 22.36C277.04 22.3 277.604 22.47 278.179 22.78C278.808 23.11 279.489 23.35 280.171 23.58C280.842 23.8 281.321 24.18 281.736 24.72C282.418 25.59 283.014 26.49 283.526 27.47C283.93 28.24 284.016 29.04 284.186 29.82C284.399 30.83 284.42 31.87 284.42 32.91C284.42 33.37 284.335 33.8 284.133 34.23C283.962 34.6 283.845 35.01 283.813 35.42C283.749 36.41 283.227 37.12 282.397 37.68C281.577 38.23 280.757 38.79 279.979 39.4C279.596 39.7 279.212 39.75 278.765 39.73C278.19 39.71 277.615 39.63 277.04 39.66C276.198 39.69 275.421 39.43 274.644 39.23C273.877 39.03 273.014 38.94 272.418 38.33C271.555 38.37 271.193 37.74 270.746 37.22C270.501 36.94 270.192 36.72 269.915 36.46C269.287 35.88 268.861 35.18 268.658 34.37C268.488 33.67 267.891 33.12 267.859 32.37C267.828 31.65 267.732 30.93 267.7 30.2C267.7 29.98 267.753 29.74 267.87 29.55C268.136 29.1 268.275 28.63 268.296 28.12C268.339 27.31 269.052 26.78 269.34 26.06C269.425 25.85 269.617 25.69 269.745 25.5C270.021 25.08 270.202 24.54 270.597 24.27C271.204 23.85 271.949 23.62 272.641 23.32C272.812 23.25 273.057 23.28 273.195 23.17C273.664 22.79 274.249 22.72 274.793 22.57C275.293 22.43 275.836 22.45 276.678 22.37L276.699 22.36Z" fill="#0076CB"/>
</g>
<path d="M981.487 0H308.031V158.31C308.031 173.53 294.889 185.87 278.68 185.87H198.687C172.744 185.87 151.721 205.62 151.721 229.97C151.721 254.33 172.755 274.07 198.687 274.07H278.68C294.889 274.07 308.031 286.41 308.031 301.63V586.99H981.487C987.366 586.99 992.137 582.51 992.137 576.99V10C992.137 4.48 987.366 0 981.487 0Z" fill="white"/>
<path d="M187.857 239C186.417 239 185.697 238.288 185.697 236.864V222.704C185.697 222.24 185.841 221.864 186.129 221.576C186.417 221.288 186.793 221.144 187.257 221.144H188.961H192.249C196.905 221.144 199.233 223.016 199.233 226.76C199.233 229.24 198.209 230.96 196.161 231.92L199.161 237.248C199.465 237.776 199.521 238.2 199.329 238.52C199.137 238.84 198.737 239 198.129 239H196.449C195.713 239 195.177 238.672 194.841 238.016L192.057 232.712H189.993V236.864C189.993 238.288 189.281 239 187.857 239ZM189.993 229.328H191.913C193.993 229.328 195.033 228.472 195.033 226.76C195.033 225.944 194.769 225.36 194.241 225.008C193.745 224.688 192.969 224.528 191.913 224.528H189.993V226.928V229.328ZM204.249 239C203.785 239 203.409 238.856 203.121 238.568C202.833 238.28 202.689 237.904 202.689 237.44V222.704C202.689 222.24 202.833 221.864 203.121 221.576C203.409 221.288 203.785 221.144 204.249 221.144H212.241C213.425 221.144 214.017 221.736 214.017 222.92C214.017 224.104 213.425 224.696 212.241 224.696H206.985V228.008H211.161C212.361 228.008 212.961 228.608 212.961 229.808C212.961 231.008 212.361 231.608 211.161 231.608H206.985V235.4H212.481C213.681 235.4 214.281 236 214.281 237.2C214.281 238.4 213.681 239 212.481 239H208.473H204.249ZM223.35 239.336C221.526 239.336 219.814 238.864 218.214 237.92C217.19 237.152 217.07 236.288 217.854 235.328C218.254 234.848 218.71 234.576 219.222 234.512C219.75 234.448 220.278 234.592 220.806 234.944C221.766 235.408 222.646 235.64 223.446 235.64C224.998 235.64 225.774 235.12 225.774 234.08C225.774 233.648 225.574 233.288 225.174 233C224.918 232.808 224.382 232.536 223.566 232.184C223.422 232.136 223.318 232.096 223.254 232.064L220.974 231.104C219.918 230.688 219.078 230.104 218.454 229.352C217.718 228.456 217.35 227.408 217.35 226.208C217.35 224.688 217.958 223.416 219.174 222.392C220.406 221.336 221.958 220.808 223.83 220.808C225.462 220.808 226.974 221.248 228.366 222.128C229.214 222.816 229.294 223.592 228.606 224.456C228.254 224.904 227.846 225.168 227.382 225.248C226.934 225.328 226.47 225.224 225.99 224.936C225.334 224.632 224.614 224.48 223.83 224.48C223.158 224.48 222.63 224.608 222.246 224.864C221.878 225.12 221.694 225.488 221.694 225.968C221.694 226.384 221.918 226.744 222.366 227.048C222.67 227.24 223.262 227.512 224.142 227.864C224.254 227.912 224.342 227.944 224.406 227.96L226.638 228.848C228.99 229.792 230.166 231.424 230.166 233.744C230.166 235.296 229.574 236.6 228.39 237.656C227.11 238.776 225.43 239.336 223.35 239.336ZM234.694 239C234.23 239 233.854 238.856 233.566 238.568C233.278 238.28 233.134 237.904 233.134 237.44V222.704C233.134 222.24 233.278 221.864 233.566 221.576C233.854 221.288 234.23 221.144 234.694 221.144H242.686C243.87 221.144 244.462 221.736 244.462 222.92C244.462 224.104 243.87 224.696 242.686 224.696H237.43V228.008H241.606C242.806 228.008 243.406 228.608 243.406 229.808C243.406 231.008 242.806 231.608 241.606 231.608H237.43V235.4H242.926C244.126 235.4 244.726 236 244.726 237.2C244.726 238.4 244.126 239 242.926 239H238.918H234.694ZM253.868 239C252.428 239 251.708 238.288 251.708 236.864V224.696H248.66C247.476 224.696 246.884 224.104 246.884 222.92C246.884 221.736 247.476 221.144 248.66 221.144H253.868H259.076C260.26 221.144 260.852 221.736 260.852 222.92C260.852 224.104 260.26 224.696 259.076 224.696H256.004V236.864C256.004 238.288 255.292 239 253.868 239Z" fill="black"/>
</g>
<defs>
<clipPath id="clip0_2655_133942">
<rect width="993" height="587" rx="10" fill="white"/>
</clipPath>
</defs>
</svg>
