<svg width="933" height="587" viewBox="0 0 933 587" fill="none" xmlns="http://www.w3.org/2000/svg">
<g clip-path="url(#clip0_1884_85293)">
<path d="M986.746 -76.6099H-52.1777V1098.86H986.746V-76.6099Z" fill="white"/>
<path opacity="0.25" d="M986.746 -76.6099H-52.1777V1098.86H986.746V-76.6099Z" fill="#FFFFE0"/>
<g style="mix-blend-mode:multiply">
<path d="M9.99379 0C4.47722 0 0 4.48 0 10V577C0 582.52 4.47722 587 9.99379 587H374.347V0H9.99379Z" fill="#00807E"/>
</g>
<g opacity="0.63">
<path d="M162.219 341.2C162.959 340.65 163.379 340.31 163.838 340.02C167.066 337.97 169.894 334.94 173.662 334.16C177.69 333.33 181.627 332.36 185.595 331.42C189.472 330.49 193.49 329.18 197.907 332.04C198.846 332.65 200.815 332.04 202.304 331.98C206.861 331.78 211.319 332.13 215.916 333.68C223.101 336.1 229.907 339.23 236.573 342.61C241.62 345.16 245.418 349 249.155 352.81C251.434 355.14 253.542 357.61 256.011 359.79C262.737 365.73 267.684 372.05 268.583 380.27C268.963 383.71 271.811 387.2 274.19 391.98C273.73 396.92 272.99 403.28 272.561 409.69C272.151 415.94 269.922 421.44 267.174 427.03C263.256 434.98 256.381 440.94 251.354 448.1C246.517 450.7 244.558 456.15 238.222 457.28C231.296 462.93 221.652 465.16 213.777 469.63C212.378 470.42 210.479 470.71 208.74 471.04C204.373 471.86 200.006 472.72 195.549 473.28C193.22 473.57 190.702 473.28 188.263 473.21C186.164 473.15 184.056 473.01 181.947 472.92C181.028 472.88 179.878 473.19 179.219 472.81C175.671 470.77 171.773 470.27 167.926 469.25C164.358 468.3 160.96 466.41 157.632 464.72C156.013 463.89 154.614 462.62 153.265 461.44C149.167 457.87 145.07 454.29 141.122 450.61C138.494 448.15 136.395 445.53 135.656 442.15C134.806 438.28 132.937 434.48 131.848 430.62C130.529 425.94 129.58 421.24 132.947 417.27C135.266 414.54 133.717 411.1 133.037 408.2C132.198 404.62 131.848 401.49 133.647 398.42C134.147 397.57 134.297 396.47 134.307 395.45C134.456 386.7 137.894 379.09 142.342 371.78C143.391 370.05 143.991 368.09 144.75 366.21C145.03 365.52 144.88 364.38 145.43 364.11C150.377 361.65 150.576 356.56 153.315 352.89C153.465 352.69 153.685 352.46 153.934 352.38C160.061 350.54 161.12 345.67 162.199 341.23L162.219 341.2Z" fill="#FFB128"/>
<path d="M150.637 379.25C152.585 380.22 153.755 380.72 154.874 381.37C162.669 385.94 172.093 388.59 177.81 395.67C183.906 403.22 190.202 410.45 196.498 417.78C202.644 424.93 209.75 431.94 208.521 444.33C208.261 446.96 211.659 450.44 213.408 453.49C218.774 462.85 222.852 472.58 224.591 483.93C227.299 501.65 228.078 519.33 228.228 537.01C228.338 550.38 224.401 562.51 220.443 574.49C218.025 581.81 215.126 588.91 213.228 596.45C208.041 617.01 200.146 634.26 183.856 645.05C177.05 649.56 172.803 659.34 165.337 669.51C154.464 673.88 140.313 679.23 126.402 685.28C112.84 691.18 98.8987 692.47 84.1879 692.74C63.2609 693.12 43.3033 685.13 22.846 682.31C12.1427 674.96 -1.39892 676.75 -10.6232 664.67C-29.9911 656.23 -45.1017 638.39 -63.0106 626.67C-66.1986 624.58 -68.847 620.91 -71.4254 617.61C-77.8814 609.32 -84.4073 601.07 -90.4036 592.31C-93.5416 587.73 -95.6503 582.13 -98.1388 576.93C-100.277 572.45 -102.286 567.87 -104.375 563.36C-105.294 561.38 -107.173 559.31 -107.093 557.51C-106.653 547.85 -109.822 539.1 -111.85 529.93C-113.729 521.41 -113.439 512.23 -113.479 503.39C-113.499 499.09 -112.35 494.78 -111.331 490.65C-108.262 478.18 -105.204 465.69 -101.747 453.41C-99.438 445.22 -96.21 437.98 -89.9139 432.76C-82.7184 426.8 -76.7621 418.75 -69.8364 412.27C-61.4516 404.42 -52.6171 397.34 -40.6145 400.13C-32.3796 402.05 -26.8231 395.05 -21.4864 390.5C-14.8705 384.87 -8.68439 380.74 -0.299599 381.18C2.03895 381.3 4.48743 380.43 6.64609 379.36C25.1546 370.2 44.8623 369.19 65.0098 370.62C69.7768 370.96 74.5439 370.08 79.2909 369.64C81.0498 369.48 83.2585 367.93 84.4377 368.79C94.9612 376.53 105.864 371.42 116.518 373.2C117.117 373.3 117.817 373.5 118.257 373.96C128.75 384.83 140.113 381.78 150.617 379.26L150.637 379.25Z" fill="#D4CFC6"/>
<path d="M-78.5812 352.42C-78.3014 350.13 -75.9629 346.98 -72.7049 344.02C-69.1771 340.81 -66.149 336.99 -63.2308 333.19C-60.3626 329.46 -56.8248 327.28 -52.3375 325.79C-45.0721 323.37 -37.8066 321.58 -30.1713 320.52C-24.185 319.69 -18.6285 320.84 -12.992 321.51C-5.76649 322.36 1.26913 324.57 8.2348 326.8C11.3529 327.8 14.0512 329.28 16.5197 331.51C18.6383 333.42 21.1868 335.08 23.8251 336.13C30.3611 338.73 34.0288 343.54 36.0775 350.03C38.0962 356.43 40.125 362.84 42.6134 369.05C43.8327 372.1 43.363 374.68 42.3436 377.42C41.0044 381.01 39.3155 384.5 38.2761 388.17C36.7571 393.54 33.4191 397.9 30.441 402.34C27.4828 406.75 25.1543 412.01 19.7876 414.39C18.2686 419.95 13.3216 420.8 8.89439 422.5C6.51587 423.41 4.36721 424.89 2.08862 426.07C-3.12813 428.78 -8.6647 429.9 -14.531 429.4C-19.5779 428.97 -24.4649 431.48 -29.6117 430.04C-34.5386 428.66 -39.5755 427.68 -44.4924 426.29C-45.9515 425.88 -47.4506 424.93 -48.4999 423.82C-50.9884 421.18 -53.8466 419.27 -57.2245 417.96C-62.5912 415.88 -64.6599 410.22 -68.8973 406.87C-70.1165 405.91 -70.826 404.32 -71.8454 403.09C-74.074 400.4 -77.372 398.08 -78.3814 395C-79.9204 390.26 -79.9504 385.02 -80.51 379.99C-80.6499 378.73 -79.9504 377.25 -80.3901 376.19C-81.9591 372.43 -81.2296 368.54 -81.1296 364.77C-81.0397 361.32 -79.7805 357.9 -78.6012 352.41L-78.5812 352.42Z" fill="#3A80A2"/>
<path d="M48.94 239.34C49.1199 238.36 50.2192 237.06 51.7083 235.86C53.3273 234.57 54.7364 232.99 56.1056 231.42C57.4448 229.88 59.0438 229.03 61.0225 228.51C64.2405 227.66 67.4285 227.08 70.7665 226.82C73.3848 226.62 75.7534 227.27 78.1819 227.71C81.2899 228.27 84.2781 229.42 87.2362 230.57C88.5554 231.09 89.6847 231.8 90.7041 232.83C91.5735 233.71 92.6329 234.5 93.7422 235.03C96.5005 236.33 97.9596 238.51 98.6791 241.38C99.3787 244.2 100.088 247.04 100.998 249.8C101.447 251.15 101.168 252.26 100.658 253.42C99.9783 254.94 99.1588 256.41 98.6092 257.97C97.8097 260.26 96.2406 262.06 94.8315 263.9C93.4324 265.73 92.2831 267.95 89.8946 268.84C89.0851 271.21 86.9264 271.44 84.9577 272.06C83.9083 272.39 82.9289 272.97 81.9095 273.42C79.581 274.45 77.1425 274.79 74.6241 274.42C72.4454 274.1 70.2668 275.06 68.0781 274.29C65.9795 273.56 63.8308 273 61.7321 272.27C61.1125 272.05 60.4829 271.6 60.0631 271.09C59.0538 269.88 57.8645 268.98 56.4454 268.32C54.1768 267.28 53.4372 264.77 51.6883 263.2C51.1886 262.75 50.9188 262.05 50.5091 261.48C49.6196 260.25 48.2505 259.16 47.9007 257.8C47.361 255.71 47.4909 253.44 47.381 251.24C47.351 250.69 47.7008 250.07 47.5309 249.6C46.9513 247.93 47.371 246.26 47.5209 244.64C47.6508 243.15 48.2904 241.7 48.95 239.35L48.94 239.34Z" fill="#FFC880"/>
<path d="M258.69 564.75C255.991 563.87 253.343 562.17 251.324 560.04C248.116 556.64 244.419 554.16 240.031 552.46C234.085 550.16 230.477 545.61 227.289 541.59C225.42 539.24 223.661 537.02 221.593 535.38C219.904 534.05 218.805 532.39 217.845 530.93C217.395 530.26 216.976 529.62 216.566 529.13C215.636 528.01 214.517 526.89 213.338 525.71C210.56 522.94 207.422 519.79 206.082 515.68C204.234 510.01 203.744 504.09 203.274 498.35C203.114 496.43 202.954 494.45 202.735 492.55C202.575 491.15 202.784 489.87 202.954 488.84C203.004 488.53 203.074 488.08 203.094 487.82C201.006 482.59 201.325 477.41 201.615 472.83C201.685 471.63 201.755 470.5 201.785 469.38C201.885 465.49 202.834 461.72 203.934 457.36C204.453 455.31 205.033 453 205.593 450.42C206.422 444.63 212.259 438.58 215.696 435.46C220.623 430.98 224.901 425.59 229.208 419.99C233.725 414.12 239.532 410.16 247.467 407.51C258.97 403.68 269.973 401.07 281.096 399.52C288.821 398.44 295.947 399.41 302.842 400.34C304.451 400.56 306.06 400.78 307.679 400.97C319.142 402.32 330.205 405.86 339.959 408.99C340.049 409.02 340.129 409.05 340.219 409.07C345.456 410.78 349.913 413.34 353.861 416.9C356.729 419.48 360.097 421.62 363.355 422.92C373.648 427.02 380.434 434.67 384.102 446.31C386.84 455.01 389.948 464.86 393.676 474.18C396.164 480.39 394.885 485.56 393.306 489.79C392.586 491.73 391.797 493.64 391.037 495.49C389.638 498.88 388.329 502.09 387.4 505.37C385.271 512.91 381.104 519 377.066 524.89C376.437 525.81 375.817 526.72 375.197 527.63C374.388 528.83 373.618 530.08 372.799 531.4C369.531 536.67 365.853 542.59 359.367 546.16C356.369 553.83 349.563 556.21 344.017 558.15C343.067 558.48 342.118 558.81 341.188 559.17C339.21 559.93 337.251 561.06 335.172 562.25C334.013 562.92 332.804 563.61 331.564 564.26C323.09 568.66 313.995 570.48 304.521 569.67C301.883 569.45 299.095 569.91 296.136 570.4C291.699 571.13 286.682 571.97 281.366 570.48C277.838 569.49 274.16 568.62 270.602 567.77C266.905 566.89 263.077 565.98 259.309 564.92C259.109 564.86 258.91 564.8 258.71 564.74L258.69 564.75ZM337.451 417.53C337.381 417.51 337.311 417.48 337.241 417.46C327.867 414.46 317.243 411.06 306.63 409.81C304.961 409.61 303.302 409.39 301.643 409.16C295.057 408.27 288.831 407.43 282.315 408.33C271.742 409.8 261.258 412.3 250.265 415.95C243.999 418.04 239.672 420.95 236.244 425.41C231.687 431.33 227.139 437.06 221.673 442.03C216.956 446.32 214.587 450.05 214.387 451.71L214.317 452.12C213.708 454.92 213.098 457.37 212.548 459.53C211.539 463.54 210.74 466.71 210.66 469.61C210.63 470.88 210.55 472.15 210.47 473.37C210.22 477.43 209.98 481.27 211.409 484.69C212.279 486.76 211.949 488.78 211.709 490.26C211.639 490.69 211.539 491.33 211.549 491.56C211.779 493.58 211.949 495.63 212.109 497.61C212.558 503.07 212.988 508.24 214.507 512.91C215.187 514.99 217.325 517.13 219.594 519.4C220.873 520.68 222.192 521.99 223.382 523.44C224.091 524.3 224.691 525.2 225.221 526C225.88 526.99 226.5 527.93 227.079 528.39C229.958 530.67 232.126 533.4 234.225 536.05C237.063 539.63 239.522 542.73 243.209 544.16C248.866 546.35 253.623 549.54 257.76 553.93C258.8 555.03 260.339 555.99 261.668 556.37C265.256 557.38 268.993 558.27 272.611 559.13C276.249 559.99 280.006 560.89 283.714 561.92C287.132 562.88 290.78 562.27 294.637 561.63C298.005 561.07 301.483 560.5 305.231 560.81C313.006 561.47 320.471 559.98 327.427 556.36C328.506 555.8 329.576 555.19 330.705 554.54C332.984 553.23 335.332 551.88 337.96 550.87C339 550.47 340.039 550.11 341.049 549.76C346.835 547.74 350.163 546.37 351.402 541.84L351.962 539.81L353.891 538.95C359.047 536.66 362.045 531.83 365.214 526.72C366.043 525.39 366.892 524.01 367.792 522.68C368.421 521.74 369.061 520.81 369.701 519.87C373.498 514.33 377.076 509.1 378.805 502.96C379.874 499.18 381.353 495.59 382.783 492.11C383.552 490.24 384.272 488.48 384.941 486.68C386.39 482.79 386.51 480.29 385.381 477.48C381.523 467.85 378.365 457.83 375.577 448.98C372.719 439.92 367.782 434.27 360.017 431.18C355.739 429.48 351.542 426.83 347.854 423.51C344.816 420.77 341.488 418.87 337.411 417.53H337.451Z" fill="#00807E"/>
<path d="M56.385 102.13C56.325 101.81 56.4949 101.28 56.8047 100.74C57.1345 100.15 57.3744 99.5099 57.6042 98.8699C57.8241 98.2399 58.2039 97.7899 58.7435 97.3999C59.613 96.7599 60.5124 96.1999 61.4918 95.7199C62.2613 95.3399 63.0608 95.2599 63.8404 95.0999C64.8497 94.8999 65.8891 94.8799 66.9284 94.8799C67.3881 94.8799 67.8179 94.9599 68.2476 95.1499C68.6174 95.3099 69.0271 95.4199 69.4369 95.4499C70.4263 95.5099 71.1358 95.9999 71.6955 96.7799C72.2451 97.5499 72.8048 98.3199 73.4144 99.0499C73.7142 99.4099 73.7642 99.7699 73.7442 100.19C73.7242 100.73 73.6443 101.27 73.6742 101.81C73.7042 102.6 73.4444 103.33 73.2445 104.06C73.0446 104.78 72.9547 105.59 72.3451 106.15C72.385 106.96 71.7554 107.3 71.2358 107.72C70.9559 107.95 70.7361 108.24 70.4762 108.5C69.8966 109.09 69.197 109.49 68.3875 109.68C67.688 109.84 67.1383 110.4 66.3888 110.43C65.6692 110.46 64.9497 110.55 64.2201 110.58C64.0103 110.58 63.7604 110.53 63.5705 110.42C63.1208 110.17 62.6511 110.04 62.1414 110.02C61.3319 109.98 60.8022 109.31 60.0827 109.04C59.8728 108.96 59.7129 108.78 59.523 108.66C59.1033 108.4 58.5636 108.23 58.2938 107.86C57.8741 107.29 57.6442 106.59 57.3444 105.94C57.2744 105.78 57.3044 105.55 57.1945 105.42C56.8147 104.98 56.7448 104.43 56.5949 103.92C56.4549 103.45 56.4749 102.94 56.395 102.15L56.385 102.13Z" fill="#F85B00"/>
<path d="M193.261 155.05C193.321 155.37 193.151 155.9 192.841 156.44C192.511 157.03 192.271 157.67 192.041 158.31C191.821 158.94 191.442 159.39 190.902 159.78C190.033 160.42 189.133 160.98 188.154 161.46C187.384 161.84 186.585 161.92 185.805 162.08C184.796 162.28 183.756 162.3 182.717 162.3C182.257 162.3 181.828 162.22 181.398 162.03C181.028 161.87 180.618 161.76 180.209 161.73C179.219 161.67 178.51 161.18 177.95 160.4C177.4 159.63 176.841 158.86 176.231 158.13C175.931 157.77 175.881 157.41 175.901 156.99C175.921 156.45 176.001 155.91 175.971 155.37C175.941 154.58 176.201 153.85 176.401 153.12C176.601 152.4 176.691 151.59 177.3 151.03C177.26 150.22 177.89 149.88 178.41 149.46C178.69 149.23 178.909 148.94 179.169 148.68C179.749 148.09 180.449 147.69 181.258 147.5C181.958 147.34 182.507 146.78 183.257 146.75C183.976 146.72 184.696 146.63 185.425 146.6C185.635 146.6 185.885 146.65 186.075 146.76C186.525 147.01 186.994 147.14 187.504 147.16C188.314 147.2 188.843 147.87 189.563 148.14C189.773 148.22 189.933 148.4 190.122 148.52C190.542 148.78 191.082 148.95 191.352 149.32C191.771 149.89 192.001 150.59 192.301 151.24C192.371 151.4 192.341 151.63 192.451 151.76C192.831 152.2 192.901 152.75 193.051 153.26C193.191 153.73 193.171 154.24 193.251 155.03L193.261 155.05Z" fill="#5BE5E7"/>
<path d="M264.076 167.01C263.447 163.83 265.206 158.59 268.264 153.21C271.582 147.38 273.95 140.94 276.209 134.58C278.417 128.33 282.195 123.87 287.542 119.91C296.206 113.49 305.131 107.93 314.875 103.16C322.51 99.4303 330.455 98.5403 338.28 96.9603C348.314 94.9403 358.688 94.8103 368.971 94.7503C373.578 94.7203 377.826 95.5203 382.113 97.4203C385.781 99.0503 389.908 100.15 393.906 100.4C403.779 101.02 410.785 105.84 416.362 113.63C421.848 121.3 427.375 128.98 433.421 136.21C436.379 139.75 436.879 143.41 436.719 147.53C436.499 152.92 435.76 158.32 435.979 163.69C436.299 171.54 433.741 178.83 431.692 186.07C429.663 193.26 428.844 201.31 422.718 206.85C423.117 214.95 416.871 218.25 411.695 222.46C408.916 224.72 406.678 227.64 404.149 230.21C398.353 236.11 391.437 240.03 383.382 241.93C376.446 243.56 371 249.07 363.505 249.39C356.319 249.7 349.153 250.59 341.968 250.89C339.829 250.98 337.421 250.36 335.532 249.33C331.045 246.89 326.388 245.59 321.301 245.32C313.216 244.89 307.979 238.23 300.853 235.6C298.805 234.85 297.166 233.04 295.257 231.83C291.1 229.2 285.673 227.55 282.985 223.87C278.857 218.21 276.529 211.21 273.57 204.72C272.831 203.1 273.121 200.81 272.061 199.58C268.314 195.24 267.594 189.71 266.085 184.64C264.696 179.99 264.886 174.86 264.066 167L264.076 167.01Z" fill="#3A80A2"/>
<path d="M92.4925 7.41013C91.673 3.26012 93.9616 -3.58988 97.9691 -10.6199C102.306 -18.2399 105.405 -26.6499 108.343 -34.9599C111.231 -43.1199 116.158 -48.9499 123.153 -54.1299C134.476 -62.5099 146.129 -69.7799 158.871 -76.0099C168.845 -80.8899 179.219 -82.0499 189.442 -84.1099C202.544 -86.7499 216.096 -86.9199 229.537 -86.9999C235.554 -87.0399 241.11 -85.9899 246.707 -83.5099C251.494 -81.3799 256.9 -79.9399 262.117 -79.6099C275.009 -78.7999 284.173 -72.4999 291.459 -62.3199C298.634 -52.2999 305.85 -42.2599 313.745 -32.8199C317.613 -28.1899 318.272 -23.4099 318.052 -18.0299C317.762 -10.9899 316.803 -3.92988 317.093 3.08012C317.513 13.3401 314.165 22.8601 311.496 32.3201C308.838 41.7201 307.779 52.2301 299.764 59.4701C300.283 70.0501 292.128 74.3601 285.363 79.8601C281.735 82.8101 278.807 86.6201 275.509 89.9901C267.943 97.7001 258.899 102.83 248.376 105.3C239.311 107.43 232.206 114.62 222.402 115.05C213.008 115.46 203.653 116.62 194.259 117.01C191.471 117.13 188.313 116.32 185.845 114.98C179.988 111.79 173.902 110.09 167.256 109.74C156.693 109.18 149.857 100.47 140.543 97.0401C137.864 96.0501 135.726 93.6901 133.237 92.1201C127.801 88.6901 120.715 86.5301 117.207 81.7201C111.811 74.3301 108.772 65.1901 104.915 56.7101C103.955 54.6001 104.335 51.6001 102.946 50.0001C98.0591 44.3301 97.1097 37.1101 95.1409 30.4801C93.332 24.4001 93.5719 17.7101 92.5025 7.43012L92.4925 7.41013Z" fill="#E28092"/>
<path d="M219.304 153.07C219.044 151.75 219.774 149.58 221.043 147.35C222.422 144.93 223.402 142.26 224.341 139.62C225.26 137.03 226.82 135.18 229.038 133.54C232.636 130.88 236.334 128.57 240.371 126.6C243.539 125.05 246.827 124.68 250.075 124.03C254.232 123.19 258.54 123.14 262.807 123.11C264.716 123.1 266.485 123.43 268.254 124.22C269.773 124.89 271.492 125.35 273.141 125.46C277.238 125.72 280.146 127.72 282.455 130.95C284.734 134.13 287.022 137.32 289.531 140.31C290.76 141.78 290.97 143.3 290.9 145C290.81 147.24 290.5 149.48 290.59 151.7C290.72 154.96 289.66 157.98 288.811 160.98C287.971 163.96 287.632 167.3 285.083 169.6C285.243 172.96 282.655 174.33 280.516 176.07C279.367 177.01 278.437 178.22 277.388 179.28C274.99 181.73 272.111 183.35 268.773 184.14C265.895 184.82 263.637 187.1 260.529 187.23C257.55 187.36 254.572 187.73 251.594 187.85C250.705 187.89 249.705 187.63 248.926 187.21C247.067 186.2 245.138 185.66 243.029 185.55C239.682 185.37 237.503 182.61 234.545 181.52C233.695 181.21 233.016 180.46 232.226 179.96C230.497 178.87 228.249 178.18 227.139 176.66C225.43 174.31 224.461 171.41 223.242 168.72C222.932 168.05 223.052 167.1 222.622 166.59C221.073 164.79 220.773 162.5 220.144 160.39C219.564 158.46 219.644 156.34 219.304 153.07Z" fill="#FFB128"/>
<path d="M259.649 22.3601C259.969 22.3001 260.498 22.4701 261.038 22.7801C261.628 23.1101 262.267 23.3501 262.907 23.5801C263.536 23.8001 263.986 24.1801 264.376 24.7201C265.016 25.5901 265.575 26.4901 266.055 27.4701C266.435 28.2401 266.515 29.0401 266.674 29.8201C266.874 30.8301 266.894 31.8701 266.894 32.9101C266.894 33.3701 266.814 33.8001 266.625 34.2301C266.465 34.6001 266.355 35.0101 266.325 35.4201C266.265 36.4101 265.775 37.1201 264.996 37.6801C264.226 38.2301 263.456 38.7901 262.727 39.4001C262.367 39.7001 262.007 39.7501 261.588 39.7301C261.048 39.7101 260.508 39.6301 259.969 39.6601C259.179 39.6901 258.45 39.4301 257.72 39.2301C257.001 39.0301 256.191 38.9401 255.631 38.3301C254.822 38.3701 254.482 37.7401 254.062 37.2201C253.832 36.9401 253.543 36.7201 253.283 36.4601C252.693 35.8801 252.293 35.1801 252.104 34.3701C251.944 33.6701 251.384 33.1201 251.354 32.3701C251.324 31.6501 251.234 30.9301 251.204 30.2001C251.204 29.9801 251.254 29.7401 251.364 29.5501C251.614 29.1001 251.744 28.6301 251.764 28.1201C251.804 27.3101 252.473 26.7801 252.743 26.0601C252.823 25.8501 253.003 25.6901 253.123 25.5001C253.383 25.0801 253.553 24.5401 253.922 24.2701C254.492 23.8501 255.192 23.6201 255.841 23.3201C256.001 23.2501 256.231 23.2801 256.361 23.1701C256.801 22.7901 257.35 22.7201 257.86 22.5701C258.33 22.4301 258.839 22.4501 259.629 22.3701L259.649 22.3601Z" fill="#0076CB"/>
</g>
<g filter="url(#filter0_d_1884_85293)">
<path d="M923.006 587H291.049V428.69C291.049 413.47 278.717 401.13 263.506 401.13H188.443C164.098 401.13 144.37 381.38 144.37 357.03C144.37 332.67 164.108 312.93 188.443 312.93H263.506C278.717 312.93 291.049 300.59 291.049 285.37V0H923.006C928.523 0 933 4.48 933 10V577C933 582.52 928.523 587 923.006 587Z" fill="white"/>
</g>
<path d="M186.749 276C186.285 276 185.909 275.856 185.621 275.568C185.333 275.28 185.189 274.904 185.189 274.44V260.28C185.189 258.856 185.909 258.144 187.349 258.144C188.773 258.144 189.485 258.856 189.485 260.28V272.4H194.621C195.821 272.4 196.421 273 196.421 274.2C196.421 275.4 195.821 276 194.621 276H190.805H186.749ZM205.846 276.336C203.382 276.336 201.406 275.504 199.918 273.84C198.414 272.16 197.662 269.88 197.662 267C197.662 264.104 198.414 261.832 199.918 260.184C201.39 258.6 203.366 257.808 205.846 257.808C208.326 257.808 210.302 258.608 211.774 260.208C213.278 261.856 214.03 264.112 214.03 266.976C214.03 269.872 213.278 272.16 211.774 273.84C210.286 275.504 208.31 276.336 205.846 276.336ZM205.846 272.64C207.03 272.64 207.958 272.128 208.63 271.104C209.318 270.096 209.662 268.72 209.662 266.976C209.662 265.264 209.318 263.92 208.63 262.944C207.958 261.968 207.03 261.48 205.846 261.48C204.662 261.48 203.734 261.968 203.062 262.944C202.39 263.904 202.054 265.248 202.054 266.976C202.054 268.72 202.39 270.104 203.062 271.128C203.75 272.136 204.678 272.64 205.846 272.64ZM225.385 276.336C222.793 276.336 220.697 275.56 219.097 274.008C217.385 272.36 216.529 270.08 216.529 267.168C216.529 264.288 217.393 261.984 219.121 260.256C220.769 258.624 222.833 257.808 225.313 257.808C227.025 257.808 228.545 258.264 229.873 259.176C230.289 259.528 230.497 259.888 230.497 260.256C230.497 260.592 230.313 260.984 229.945 261.432C229.145 262.376 228.265 262.52 227.305 261.864C226.745 261.608 226.129 261.48 225.457 261.48C224.113 261.48 223.025 261.968 222.193 262.944C221.345 263.952 220.921 265.312 220.921 267.024C220.921 268.832 221.321 270.208 222.121 271.152C222.953 272.144 224.185 272.64 225.817 272.64C226.553 272.64 227.121 272.488 227.521 272.184V269.304H226.441C225.273 269.304 224.689 268.72 224.689 267.552C224.689 266.384 225.273 265.8 226.441 265.8H228.001H229.777C230.241 265.8 230.617 265.944 230.905 266.232C231.193 266.52 231.337 266.896 231.337 267.36V273.312C231.337 273.552 231.281 273.8 231.169 274.056C231.057 274.296 230.929 274.48 230.785 274.608C230.097 275.12 229.305 275.528 228.409 275.832C227.433 276.168 226.425 276.336 225.385 276.336ZM237.106 276C235.666 276 234.946 275.288 234.946 273.864V260.28C234.946 258.856 235.666 258.144 237.106 258.144C238.53 258.144 239.242 258.856 239.242 260.28V267.072V273.864C239.242 275.288 238.53 276 237.106 276ZM245.377 276C244.017 276 243.337 275.32 243.337 273.96V259.704C243.337 259.24 243.481 258.864 243.769 258.576C244.057 258.288 244.433 258.144 244.897 258.144H246.577C247.313 258.144 247.865 258.48 248.233 259.152L252.145 266.688L253.897 270.648H254.017C254.017 270.6 254.009 270.528 253.993 270.432C253.625 267.552 253.441 265.424 253.441 264.048V260.184C253.441 258.824 254.121 258.144 255.481 258.144C256.841 258.144 257.521 258.824 257.521 260.184V274.44C257.521 274.904 257.377 275.28 257.089 275.568C256.801 275.856 256.425 276 255.961 276H255.337H254.161C253.489 276 253.001 275.704 252.697 275.112L248.737 267.384L246.985 263.472H246.865C246.897 263.824 246.953 264.376 247.033 265.128C247.289 267.368 247.417 269.016 247.417 270.072V273.96C247.417 275.32 246.737 276 245.377 276Z" fill="white"/>
<path d="M178.513 368.336C176.689 368.336 174.977 367.864 173.377 366.92C172.353 366.152 172.233 365.288 173.017 364.328C173.417 363.848 173.873 363.576 174.385 363.512C174.913 363.448 175.441 363.592 175.969 363.944C176.929 364.408 177.809 364.64 178.609 364.64C180.161 364.64 180.937 364.12 180.937 363.08C180.937 362.648 180.737 362.288 180.337 362C180.081 361.808 179.545 361.536 178.729 361.184C178.585 361.136 178.481 361.096 178.417 361.064L176.137 360.104C175.081 359.688 174.241 359.104 173.617 358.352C172.881 357.456 172.513 356.408 172.513 355.208C172.513 353.688 173.121 352.416 174.337 351.392C175.569 350.336 177.121 349.808 178.993 349.808C180.625 349.808 182.137 350.248 183.529 351.128C184.377 351.816 184.457 352.592 183.769 353.456C183.417 353.904 183.009 354.168 182.545 354.248C182.097 354.328 181.633 354.224 181.153 353.936C180.497 353.632 179.777 353.48 178.993 353.48C178.321 353.48 177.793 353.608 177.409 353.864C177.041 354.12 176.857 354.488 176.857 354.968C176.857 355.384 177.081 355.744 177.529 356.048C177.833 356.24 178.425 356.512 179.305 356.864C179.417 356.912 179.505 356.944 179.569 356.96L181.801 357.848C184.153 358.792 185.329 360.424 185.329 362.744C185.329 364.296 184.737 365.6 183.553 366.656C182.273 367.776 180.593 368.336 178.513 368.336ZM190.458 368C189.018 368 188.298 367.288 188.298 365.864V352.28C188.298 350.856 189.018 350.144 190.458 350.144C191.882 350.144 192.594 350.856 192.594 352.28V359.072V365.864C192.594 367.288 191.882 368 190.458 368ZM204.728 368.336C202.136 368.336 200.04 367.56 198.44 366.008C196.728 364.36 195.872 362.08 195.872 359.168C195.872 356.288 196.736 353.984 198.464 352.256C200.112 350.624 202.176 349.808 204.656 349.808C206.368 349.808 207.888 350.264 209.216 351.176C209.632 351.528 209.84 351.888 209.84 352.256C209.84 352.592 209.656 352.984 209.288 353.432C208.488 354.376 207.608 354.52 206.648 353.864C206.088 353.608 205.472 353.48 204.8 353.48C203.456 353.48 202.368 353.968 201.536 354.944C200.688 355.952 200.264 357.312 200.264 359.024C200.264 360.832 200.664 362.208 201.464 363.152C202.296 364.144 203.528 364.64 205.16 364.64C205.896 364.64 206.464 364.488 206.864 364.184V361.304H205.784C204.616 361.304 204.032 360.72 204.032 359.552C204.032 358.384 204.616 357.8 205.784 357.8H207.344H209.12C209.584 357.8 209.96 357.944 210.248 358.232C210.536 358.52 210.68 358.896 210.68 359.36V365.312C210.68 365.552 210.624 365.8 210.512 366.056C210.4 366.296 210.272 366.48 210.128 366.608C209.44 367.12 208.648 367.528 207.752 367.832C206.776 368.168 205.768 368.336 204.728 368.336ZM216.33 368C214.97 368 214.29 367.32 214.29 365.96V351.704C214.29 351.24 214.434 350.864 214.722 350.576C215.01 350.288 215.386 350.144 215.85 350.144H217.53C218.266 350.144 218.818 350.48 219.186 351.152L223.098 358.688L224.85 362.648H224.97C224.97 362.6 224.962 362.528 224.946 362.432C224.578 359.552 224.394 357.424 224.394 356.048V352.184C224.394 350.824 225.074 350.144 226.434 350.144C227.794 350.144 228.474 350.824 228.474 352.184V366.44C228.474 366.904 228.33 367.28 228.042 367.568C227.754 367.856 227.378 368 226.914 368H226.29H225.114C224.442 368 223.954 367.704 223.65 367.112L219.69 359.384L217.938 355.472H217.818C217.85 355.824 217.906 356.376 217.986 357.128C218.242 359.368 218.37 361.016 218.37 362.072V365.96C218.37 367.32 217.69 368 216.33 368ZM245.254 368.336C242.838 368.336 241.03 367.632 239.83 366.224C238.614 364.784 238.006 362.576 238.006 359.6V352.28C238.006 350.856 238.718 350.144 240.142 350.144C241.566 350.144 242.278 350.856 242.278 352.28V360.056C242.278 361.704 242.526 362.888 243.022 363.608C243.502 364.296 244.246 364.64 245.254 364.64C246.262 364.64 247.006 364.296 247.486 363.608C248.014 362.872 248.278 361.688 248.278 360.056V355.112V352.208C248.278 350.832 248.966 350.144 250.342 350.144C251.718 350.144 252.406 350.832 252.406 352.208V359.6C252.406 362.592 251.806 364.8 250.606 366.224C249.438 367.632 247.654 368.336 245.254 368.336ZM258.567 368C257.127 368 256.407 367.288 256.407 365.864V351.704C256.407 351.24 256.551 350.864 256.839 350.576C257.127 350.288 257.503 350.144 257.967 350.144H259.527H262.671C264.847 350.144 266.535 350.56 267.735 351.392C269.143 352.368 269.847 353.888 269.847 355.952C269.847 357.968 269.143 359.52 267.735 360.608C266.471 361.584 264.823 362.072 262.791 362.072H260.703V365.864C260.703 367.288 259.991 368 258.567 368ZM260.703 358.688H262.575C264.639 358.688 265.671 357.776 265.671 355.952C265.671 355.088 265.391 354.456 264.831 354.056C264.319 353.704 263.527 353.528 262.455 353.528H260.703V356.12V358.688Z" fill="black"/>
<g clip-path="url(#clip1_1884_85293)">
<g style="mix-blend-mode:multiply" opacity="0.8">
<path d="M524.63 119.922C523.666 119.922 522.882 120.709 522.882 121.676V128.385C522.882 129.352 523.666 130.139 524.63 130.139C525.594 130.139 526.378 129.352 526.378 128.385V121.676C526.378 120.709 525.594 119.922 524.63 119.922Z" fill="#2B201C"/>
<path d="M518.341 109.187H518.154C517.241 109.187 516.501 109.933 516.501 110.881L516.695 111.94C517.699 117.425 517.633 122.977 516.501 128.44C516.501 128.451 516.497 128.466 516.497 128.477C516.497 129.392 517.241 130.135 518.15 130.135H518.337C519.25 130.135 519.99 129.389 519.99 128.477V110.848C519.99 109.933 519.246 109.19 518.337 109.19L518.341 109.187Z" fill="#2B201C"/>
<path d="M534.303 119.44C534.292 119.418 534.277 119.396 534.248 119.374C534.002 119.164 533.757 118.951 533.595 118.664C533.529 118.547 533.452 118.514 533.357 118.62C533.287 118.701 533.207 118.716 533.152 118.642C533.1 118.58 533.02 118.484 533.119 118.392C533.196 118.322 533.203 118.23 533.177 118.157C533.02 117.727 532.87 117.297 532.54 116.944C532.148 116.525 531.642 116.252 531.228 115.859C530.832 115.484 530.337 115.304 529.783 115.3C529.739 115.3 529.699 115.3 529.655 115.3C529.329 115.3 529.285 115.359 529.439 115.646C529.703 116.146 529.978 116.639 530.396 117.036C530.637 117.264 530.883 117.488 531.081 117.76C531.231 117.973 531.389 118.194 531.583 118.363C531.95 118.679 532.345 118.955 532.672 119.315C532.697 119.344 532.73 119.37 532.756 119.4C531.645 119.532 530.604 120.002 529.754 120.778C528.625 121.808 527.977 123.275 527.977 124.804V128.716C527.977 129.499 528.611 130.135 529.391 130.135C530.172 130.135 530.806 129.499 530.806 128.716V124.804C530.806 124.054 531.129 123.341 531.689 122.844C532.257 122.341 532.99 122.12 533.749 122.216C535.036 122.381 536.007 123.536 536.007 124.9V128.716C536.007 129.499 536.641 130.135 537.422 130.135C538.202 130.135 538.836 129.499 538.836 128.716V124.955C538.836 122.223 536.876 119.874 534.306 119.436L534.303 119.44Z" fill="#2B201C"/>
<path d="M550.125 121.264C549.941 121.264 549.762 121.3 549.582 121.37C548.534 120.293 547.148 119.701 545.664 119.701C542.611 119.701 540.126 122.242 540.126 125.363C540.126 128.484 542.611 131.025 545.664 131.025C546.709 131.025 547.716 130.727 548.6 130.157V133.933C548.6 133.933 548.596 133.959 548.592 133.973C548.537 135.37 547.445 136.466 546.111 136.466C545.081 136.466 544.147 135.786 543.784 134.778C543.571 134.19 542.999 133.793 542.362 133.793C541.86 133.793 541.39 134.039 541.101 134.451C540.819 134.852 540.749 135.345 540.914 135.8C541.709 138.028 543.798 139.525 546.111 139.525C548.713 139.525 550.986 137.635 551.521 135.032C551.605 134.837 551.649 134.635 551.649 134.429V122.8C551.649 121.959 550.964 121.271 550.125 121.271V121.264ZM545.668 127.962C544.297 127.962 543.179 126.793 543.179 125.359C543.179 123.925 544.297 122.756 545.668 122.756C547.038 122.756 548.156 123.925 548.156 125.359C548.156 126.793 547.038 127.962 545.668 127.962V127.962Z" fill="#2B201C"/>
<path d="M512.348 118.889C513.543 117.756 514.199 116.286 514.199 114.716C514.199 111.381 511.215 108.672 507.547 108.672C506.099 108.672 504.677 109.109 503.522 109.907C503.163 109.455 502.624 109.19 502.045 109.19H501.899C500.854 109.19 500 110.043 500.004 111.131L500.418 113.19C501.144 116.812 501.22 120.495 500.645 124.139L500 128.231C500 129.278 500.85 130.135 501.899 130.135H502.045C502.694 130.135 503.302 129.79 503.647 129.238C504.941 130.153 506.55 130.653 508.203 130.653C512.234 130.653 515.511 127.756 515.511 124.198C515.511 122.065 514.334 120.098 512.344 118.889H512.348ZM507.547 111.727C509.533 111.727 511.149 113.065 511.149 114.712C511.149 116.359 509.533 117.698 507.547 117.698C505.56 117.698 503.944 116.359 503.944 114.712C503.944 113.065 505.56 111.727 507.547 111.727ZM508.203 127.595C505.853 127.595 503.944 126.069 503.944 124.198C503.944 122.326 505.853 120.801 508.203 120.801C510.552 120.801 512.462 122.326 512.462 124.198C512.462 126.069 510.552 127.595 508.203 127.595Z" fill="#2B201C"/>
<path d="M581.586 119.922C580.622 119.922 579.838 120.709 579.838 121.676V128.385C579.838 129.352 580.622 130.139 581.586 130.139C582.55 130.139 583.334 129.352 583.334 128.385V121.676C583.334 120.709 582.55 119.922 581.586 119.922Z" fill="#2B201C"/>
<path d="M575.297 109.187H575.11C574.197 109.187 573.457 109.933 573.457 110.881L573.651 111.94C574.656 117.425 574.59 122.977 573.461 128.44C573.461 128.451 573.457 128.466 573.457 128.477C573.457 129.392 574.201 130.135 575.11 130.135H575.297C576.21 130.135 576.95 129.389 576.95 128.477V110.848C576.95 109.933 576.206 109.19 575.297 109.19V109.187Z" fill="#2B201C"/>
<path d="M590.888 119.389C589.341 119.242 587.861 119.738 586.717 120.782C585.588 121.811 584.939 123.278 584.939 124.808V128.72C584.939 129.503 585.574 130.139 586.354 130.139C587.135 130.139 587.769 129.503 587.769 128.72V124.808C587.769 124.058 588.091 123.345 588.652 122.848C589.22 122.345 589.95 122.12 590.712 122.22C591.999 122.385 592.97 123.539 592.97 124.903V128.72C592.97 129.503 593.604 130.139 594.385 130.139C595.165 130.139 595.799 129.503 595.799 128.72V124.958C595.799 122.095 593.644 119.646 590.895 119.389H590.888Z" fill="#2B201C"/>
<path d="M607.084 121.264C606.901 121.264 606.718 121.3 606.542 121.37C605.494 120.293 604.108 119.701 602.624 119.701C599.571 119.701 597.086 122.242 597.086 125.363C597.086 128.484 599.571 131.025 602.624 131.025C603.669 131.025 604.676 130.727 605.556 130.157V133.933C605.556 133.933 605.552 133.959 605.552 133.97C605.497 135.367 604.405 136.462 603.071 136.462C602.041 136.462 601.107 135.782 600.744 134.775C600.531 134.186 599.959 133.789 599.322 133.789C598.82 133.789 598.35 134.036 598.061 134.447C597.779 134.848 597.709 135.341 597.874 135.797C598.669 138.025 600.758 139.521 603.071 139.521C605.673 139.521 607.946 137.631 608.481 135.028C608.565 134.834 608.609 134.631 608.609 134.425V122.797C608.609 121.955 607.924 121.267 607.084 121.267V121.264ZM602.628 127.962C601.257 127.962 600.139 126.793 600.139 125.359C600.139 123.925 601.257 122.756 602.628 122.756C603.998 122.756 605.116 123.925 605.116 125.359C605.116 126.793 603.998 127.962 602.628 127.962Z" fill="#2B201C"/>
<path d="M569.308 118.889C570.503 117.756 571.159 116.286 571.159 114.716C571.159 111.381 568.176 108.672 564.507 108.672C563.059 108.672 561.637 109.109 560.486 109.907C560.127 109.455 559.588 109.19 559.009 109.19H558.862C557.818 109.19 556.964 110.043 556.968 111.131L557.382 113.19C558.107 116.808 558.184 120.495 557.609 124.139L556.964 128.231C556.964 129.278 557.814 130.135 558.862 130.135H559.009C559.658 130.135 560.266 129.79 560.611 129.238C561.904 130.153 563.513 130.653 565.166 130.653C569.198 130.653 572.475 127.756 572.475 124.198C572.475 122.065 571.298 120.098 569.308 118.889V118.889ZM564.507 111.727C566.493 111.727 568.11 113.065 568.11 114.712C568.11 116.359 566.493 117.698 564.507 117.698C562.52 117.698 560.904 116.359 560.904 114.712C560.904 113.065 562.52 111.727 564.507 111.727ZM565.166 127.595C562.817 127.595 560.908 126.069 560.908 124.198C560.908 122.326 562.817 120.801 565.166 120.801C567.516 120.801 569.425 122.326 569.425 124.198C569.425 126.069 567.516 127.595 565.166 127.595Z" fill="#2B201C"/>
<path d="M635.156 109.793C635.156 109.793 635.142 109.793 635.134 109.793L630.15 110.242C628.801 110.363 627.408 110.418 626.001 110.403L628.335 107.142C628.933 106.308 628.742 105.142 627.91 104.543L627.778 104.448C627.379 104.157 626.884 104.043 626.397 104.124C625.898 104.205 625.473 104.477 625.161 104.914L621.965 110.209L615.438 109.789C614.408 109.789 613.572 110.628 613.572 111.661V111.804C613.572 112.837 614.408 113.675 615.438 113.675H619.77C618.08 116.135 616.153 118.414 614.023 120.473L613.961 120.547C613.363 121.381 613.554 122.547 614.386 123.146L614.518 123.242C614.837 123.47 615.211 123.591 615.599 123.591C616.197 123.591 616.761 123.3 617.109 122.815L623.651 113.675H635.186C636.216 113.675 637.051 112.837 637.051 111.804V111.661C637.051 110.613 636.216 109.789 635.149 109.789L635.156 109.793Z" fill="#2B201C"/>
<path d="M630.783 129.561C630.893 129.595 631 129.613 631.106 129.613C631.3 129.613 631.483 129.554 631.641 129.44C631.927 129.231 632.092 128.856 632.092 128.414V127.892C632.092 127.095 631.531 126.444 630.846 126.444H625.425C624.736 126.444 624.179 127.095 624.179 127.892V128.12C624.179 128.918 624.739 129.569 625.425 129.569C625.44 129.569 625.454 129.569 625.469 129.565L626.198 129.389C627.712 129.025 629.299 129.087 630.791 129.561H630.783Z" fill="#2B201C"/>
<path d="M628.163 114.422C625.3 114.168 623.394 115.558 621.91 116.951C620.202 118.558 619.458 120.33 619.341 123.069C619.275 124.653 619.267 126.668 619.264 128.617C619.264 129.646 619.26 130.646 619.245 131.528C619.238 132.05 619.399 132.499 619.714 132.819C620.022 133.135 620.466 133.308 620.961 133.311H620.979C622.002 133.311 622.665 132.646 622.713 131.576C622.771 130.194 622.779 128.573 622.786 127.006C622.786 126.22 622.793 125.436 622.804 124.694H629.145C629.94 124.694 630.589 124.043 630.589 123.245V123.017C630.589 122.22 629.944 121.573 629.116 121.573H629.108L628.243 121.749C626.532 122.095 624.732 122.058 623.024 121.642C623.244 120.742 623.666 120.047 624.377 119.411C625.377 118.51 626.568 117.58 628.089 117.918C631.216 118.609 633.147 119.245 633.448 123.403C633.796 128.183 633.455 133.113 628.665 136.8C628.181 137.172 627.924 137.543 627.888 137.933C627.829 138.503 628.247 138.988 628.613 139.414C628.951 139.804 629.281 140.003 629.654 140.003C630.076 140.003 630.56 139.753 631.186 139.242C631.733 138.8 632.293 138.242 632.861 137.58C635.064 135.021 636.406 131.8 636.743 128.271C636.904 126.591 637.054 124.999 636.937 123.547C636.508 118.209 633.309 114.881 628.163 114.422V114.422Z" fill="#2B201C"/>
<path d="M667.376 121.157C667.384 121.113 667.376 121.076 667.373 121.054C667.413 119.973 666.643 119.334 665.896 119.282H665.808H665.727C665.474 119.297 664.895 119.389 664.338 119.477C663.968 119.536 663.62 119.591 663.429 119.613C661.498 119.834 659.973 119.804 658.159 119.521C658.008 119.499 657.843 119.459 657.671 119.422C657.334 119.345 656.982 119.264 656.656 119.264H656.652C655.893 119.264 655.336 119.914 655.197 120.97C655.19 121.01 655.186 121.05 655.193 121.091L655.204 121.15C655.336 121.936 655.49 122.826 656.502 122.834C657.579 122.837 658.719 122.863 659.826 122.885C661.116 122.911 662.436 122.936 663.73 122.936C664.389 122.936 665.042 122.929 665.679 122.911C666.618 122.885 667.189 122.293 667.38 121.157H667.376Z" fill="#2B201C"/>
<path d="M652.701 115.554C653.053 115.227 653.254 114.775 653.254 114.301C653.254 113.356 652.484 112.587 651.52 112.587L649.413 112.779C648.002 112.907 646.569 112.907 645.154 112.779L643.065 112.587C642.123 112.587 641.357 113.356 641.357 114.301C641.357 115.245 642.123 116.014 643.065 116.014H648.017C646.155 118.165 644.091 120.15 641.877 121.922L641.137 122.518C640.815 122.841 640.639 123.271 640.639 123.731C640.639 124.19 640.815 124.62 641.137 124.944C641.46 125.268 641.888 125.444 642.343 125.444C642.797 125.444 643.23 125.268 643.552 124.944L646.125 122.363C646.345 125.345 646.235 128.345 645.799 131.293C645.799 131.301 645.799 131.326 645.799 131.337C645.799 132.26 646.532 133.014 647.434 133.014H647.58C648.482 133.014 649.215 132.26 649.215 131.337V119.268L652.319 116.154C652.484 115.988 652.613 115.79 652.701 115.558V115.554Z" fill="#2B201C"/>
<path d="M645.822 109.848C646.331 110.19 646.998 110.393 647.618 110.393C647.636 110.393 647.658 110.393 647.677 110.393C649.245 110.359 650.03 109.771 650.011 108.643C649.986 107.293 648.915 106.084 647.578 105.889C646.823 105.779 646.057 105.992 645.529 106.462C645.06 106.878 644.807 107.466 644.818 108.117C644.832 108.812 645.188 109.426 645.826 109.852L645.822 109.848Z" fill="#2B201C"/>
<path d="M652.301 121.113C650.953 120.551 650.403 121.076 650.176 121.617C649.791 122.543 650.154 123.687 651.008 124.223C651.327 124.426 651.697 124.528 652.056 124.528C652.236 124.528 652.411 124.503 652.58 124.448C653.027 124.304 653.379 123.977 653.566 123.528C653.724 123.146 653.724 122.734 653.559 122.337C653.346 121.819 652.855 121.337 652.305 121.109L652.301 121.113Z" fill="#2B201C"/>
<path d="M658.613 118.04H663.458C666.515 118.04 669.003 115.543 669.003 112.477C669.003 109.665 666.863 107.279 664.096 106.959L664.158 106.201C664.158 105.481 663.572 104.893 662.853 104.893C662.135 104.893 661.549 105.481 661.549 106.201V106.918H660.5V106.201C660.5 105.481 659.914 104.893 659.196 104.893C658.847 104.893 658.521 105.029 658.272 105.279C658.026 105.529 657.891 105.859 657.891 106.227L657.953 106.962C655.201 107.293 653.067 109.679 653.067 112.481C653.067 115.547 655.552 118.043 658.609 118.043L658.613 118.04ZM664.275 115.128L664.162 113.867L665.906 113.992C665.529 114.547 664.942 114.955 664.279 115.132L664.275 115.128ZM664.056 109.782C664.686 109.882 665.258 110.194 665.683 110.679C665.76 110.768 665.833 110.863 665.903 110.966L664.026 111.106C664.026 110.679 664.037 110.242 664.059 109.782H664.056ZM660.445 109.532C660.827 109.518 661.215 109.518 661.6 109.532V111.238C661.215 111.242 660.83 111.238 660.445 111.216V109.532V109.532ZM660.445 113.698C660.83 113.679 661.219 113.679 661.6 113.698V115.227H660.445V113.701V113.698ZM656.384 110.679C656.802 110.201 657.367 109.889 657.986 109.786C658.008 110.238 658.019 110.657 658.019 111.058L656.186 110.933C656.249 110.845 656.315 110.76 656.384 110.679ZM657.883 113.885L657.77 115.124C657.117 114.948 656.557 114.558 656.179 114.018L657.88 113.885H657.883Z" fill="#2B201C"/>
<path d="M668.476 132.558C668.384 132.267 668.179 132.058 667.878 131.951C667.343 131.76 666.654 131.94 666.416 132.095C666.383 132.117 666.35 132.139 666.32 132.161H666.313V132.164C666.28 132.19 666.255 132.216 666.236 132.242C666.027 132.44 665.844 132.687 665.664 132.922C665.525 133.106 665.397 133.278 665.272 133.403C663.051 135.639 660.185 135.69 657.205 133.547C657.07 133.451 656.901 133.275 656.736 133.106C656.491 132.856 656.26 132.617 656.047 132.51C655.563 132.267 655.014 132.22 654.607 132.389C654.302 132.514 654.086 132.753 653.976 133.076C653.951 133.157 653.921 133.234 653.896 133.308C653.639 134.01 653.551 134.444 654.647 135.201C657.044 136.852 659.206 137.683 661.281 137.683C663.586 137.683 665.782 136.657 668.069 134.598C668.915 133.834 668.897 133.532 668.641 132.977C668.586 132.856 668.523 132.723 668.472 132.558H668.476Z" fill="#2B201C"/>
<path d="M521.335 113.778C521.445 113.841 521.551 113.903 521.617 113.98L521.811 114.094C522.082 114.234 522.361 114.381 522.695 114.381C522.819 114.381 522.951 114.359 523.098 114.311C523.358 114.223 523.519 114.083 523.691 113.925C523.794 113.83 523.842 113.727 523.827 113.62C523.82 113.547 523.779 113.444 523.636 113.363C523.614 113.348 523.545 113.271 523.508 113.194C523.384 112.944 523.193 112.767 523.01 112.594C522.944 112.532 522.878 112.469 522.815 112.407C522.658 112.242 522.453 112.227 522.288 112.216C522.097 112.201 522.027 112.19 521.976 112.091C521.954 112.05 521.888 111.962 521.738 112.003L521.577 112.021C521.445 112.036 521.316 112.05 521.184 112.061C520.943 112.08 520.767 112.223 520.726 112.44C520.69 112.642 520.66 112.911 520.763 113.201C520.88 113.521 521.133 113.668 521.338 113.786L521.335 113.778Z" fill="#2B201C"/>
<path d="M524.201 110.19C524.146 110.201 524.091 110.209 524.036 110.216C523.834 110.238 523.735 110.4 523.666 110.518C523.644 110.554 523.622 110.587 523.6 110.617C523.427 110.801 523.42 111.032 523.416 111.187C523.405 111.503 523.409 111.812 523.427 112.098C523.457 112.554 523.662 112.896 524.036 113.12C524.149 113.187 524.27 113.223 524.384 113.223C524.439 113.223 524.49 113.216 524.542 113.201C524.662 113.165 524.758 113.08 524.813 112.962C524.853 112.874 524.897 112.79 524.945 112.705C525.08 112.451 525.22 112.19 525.238 111.867C525.245 111.712 525.253 111.558 525.256 111.404C525.264 111.198 525.267 110.995 525.286 110.79C525.304 110.551 525.179 110.426 525.062 110.33C524.772 110.095 524.457 110.146 524.204 110.187L524.201 110.19Z" fill="#2B201C"/>
<path d="M526.326 113.683L526.367 113.69C526.4 113.698 526.44 113.705 526.488 113.705C526.565 113.705 526.656 113.687 526.74 113.606C527.118 113.256 527.543 112.863 527.8 112.33C527.921 112.168 527.987 111.995 528.045 111.841C528.067 111.778 528.075 111.712 528.071 111.646L528.152 111.624L528.027 111.407C528.027 111.407 528.005 111.367 527.983 111.348C527.957 111.301 527.932 111.256 527.906 111.216C527.781 111.039 527.627 110.937 527.481 110.948C527.085 110.955 526.806 111.106 526.623 111.403C526.51 111.587 526.381 111.76 526.249 111.944C526.11 112.135 525.963 112.33 525.835 112.543C525.667 112.823 525.634 113.102 525.744 113.323C525.843 113.525 526.051 113.657 526.33 113.69L526.326 113.683Z" fill="#2B201C"/>
<path d="M527.533 116.547C527.361 116.433 527.199 116.308 527.027 116.172C526.767 115.966 526.503 115.756 526.188 115.602C526.147 115.584 526.107 115.562 526.067 115.54C525.799 115.396 525.433 115.201 525.037 115.521L524.989 115.58C524.916 115.72 524.876 115.856 524.861 115.988C524.795 115.881 524.718 115.779 524.619 115.679L524.579 115.595L524.524 115.569C524.161 115.385 523.956 115.668 523.857 115.804C523.6 116.157 523.454 116.554 523.311 116.937L523.241 117.124L523.248 117.172C523.263 117.29 523.252 117.415 523.241 117.543C523.223 117.734 523.204 117.929 523.259 118.139C523.311 118.33 523.476 118.495 523.681 118.558C523.736 118.576 523.791 118.584 523.846 118.584C523.956 118.584 524.058 118.547 524.143 118.477C524.187 118.44 524.231 118.407 524.275 118.37C524.513 118.183 524.81 117.951 524.806 117.525C524.806 117.514 524.824 117.492 524.846 117.448C525.004 117.157 525.074 116.881 525.066 116.62C525.103 116.665 525.147 116.709 525.195 116.753L525.238 116.793L525.297 116.801C525.447 116.819 525.565 116.911 525.7 117.017C525.759 117.065 525.821 117.113 525.884 117.154C526.32 117.444 526.727 117.58 527.159 117.58C527.199 117.58 527.24 117.58 527.284 117.58C527.394 117.573 527.723 117.554 527.782 117.216C527.833 116.926 527.742 116.679 527.537 116.547H527.533Z" fill="#2B201C"/>
<path d="M523.23 115.826C523.523 115.58 523.398 115.359 523.332 115.275C523.321 115.26 523.31 115.245 523.299 115.231C523.248 115.153 523.094 114.914 522.801 115.062C522.793 115.062 522.786 115.069 522.738 115.043C522.596 114.962 522.365 114.903 522.071 115.08C521.595 115.367 521.247 115.698 520.979 116.124L521.137 116.223L520.961 116.142C520.921 116.194 520.862 116.267 520.814 116.356C520.752 116.477 520.561 116.845 520.899 117.146L520.95 117.194C521.06 117.297 521.221 117.444 521.437 117.444C521.536 117.444 521.646 117.411 521.767 117.33C522.247 117.01 522.735 116.635 523.039 116.058C523.094 115.955 523.145 115.889 523.226 115.823L523.23 115.826Z" fill="#2B201C"/>
<path d="M525.905 115.04C526.279 115.26 526.638 115.304 526.99 115.349L527.078 115.36C527.155 115.371 527.232 115.374 527.309 115.374C527.687 115.374 528.068 115.253 528.489 115.003C528.665 114.896 528.665 114.69 528.662 114.569V114.529C528.662 114.4 528.607 114.242 528.317 114.205C528.126 114.179 527.932 114.135 527.745 114.091L527.683 114.076C527.375 114.007 527.078 114.018 526.792 114.025C526.646 114.029 526.503 114.036 526.356 114.029C526.041 114.01 525.806 114.209 525.704 114.565C525.627 114.826 525.803 114.962 525.861 115.01L526.001 114.882L525.88 115.025L525.909 115.047L525.905 115.04Z" fill="#2B201C"/>
<path d="M578.159 113.778C578.269 113.841 578.375 113.903 578.441 113.98L578.635 114.094C578.907 114.234 579.185 114.381 579.519 114.381C579.643 114.381 579.775 114.359 579.922 114.311C580.182 114.223 580.343 114.083 580.516 113.925C580.618 113.83 580.666 113.727 580.651 113.62C580.644 113.547 580.604 113.444 580.461 113.363C580.439 113.348 580.369 113.271 580.332 113.194C580.208 112.944 580.017 112.767 579.834 112.594C579.768 112.532 579.702 112.469 579.64 112.407C579.482 112.242 579.277 112.227 579.112 112.216C578.921 112.201 578.852 112.19 578.8 112.091C578.778 112.05 578.712 111.962 578.562 112.003L578.401 112.021C578.269 112.036 578.141 112.05 578.009 112.061C577.767 112.08 577.591 112.223 577.551 112.44C577.514 112.642 577.485 112.911 577.587 113.201C577.704 113.521 577.957 113.668 578.163 113.786L578.159 113.778Z" fill="#2B201C"/>
<path d="M580.864 113.117C580.978 113.183 581.099 113.22 581.212 113.22C581.267 113.22 581.319 113.212 581.37 113.197C581.491 113.161 581.586 113.076 581.641 112.958C581.681 112.87 581.725 112.786 581.773 112.701C581.909 112.447 582.048 112.186 582.066 111.863C582.074 111.708 582.081 111.554 582.085 111.4C582.092 111.194 582.096 110.992 582.114 110.786C582.132 110.547 582.008 110.422 581.89 110.326C581.601 110.091 581.286 110.142 581.033 110.183C580.978 110.194 580.923 110.201 580.868 110.208C580.666 110.231 580.567 110.392 580.498 110.51C580.476 110.547 580.454 110.58 580.432 110.609C580.259 110.793 580.252 111.025 580.248 111.179C580.237 111.495 580.241 111.804 580.259 112.091C580.289 112.547 580.494 112.889 580.868 113.113L580.864 113.117Z" fill="#2B201C"/>
<path d="M583.154 113.683L583.195 113.69C583.228 113.698 583.268 113.705 583.316 113.705C583.393 113.705 583.484 113.687 583.569 113.606C583.946 113.256 584.371 112.863 584.628 112.33C584.749 112.168 584.815 111.995 584.873 111.841C584.895 111.778 584.903 111.712 584.899 111.646L584.98 111.624L584.855 111.407C584.855 111.407 584.833 111.367 584.811 111.348C584.785 111.301 584.76 111.256 584.734 111.216C584.609 111.039 584.459 110.937 584.309 110.948C583.913 110.955 583.635 111.106 583.451 111.403C583.338 111.587 583.209 111.76 583.077 111.944C582.938 112.135 582.792 112.33 582.663 112.543C582.495 112.823 582.462 113.102 582.572 113.323C582.671 113.525 582.88 113.657 583.158 113.69L583.154 113.683Z" fill="#2B201C"/>
<path d="M584.361 116.547C584.189 116.433 584.027 116.308 583.855 116.172C583.595 115.966 583.331 115.756 583.016 115.602C582.976 115.584 582.935 115.562 582.895 115.54C582.627 115.396 582.261 115.201 581.865 115.521L581.817 115.58C581.744 115.72 581.704 115.856 581.689 115.988C581.623 115.881 581.546 115.779 581.447 115.679L581.407 115.595L581.352 115.569C580.989 115.385 580.784 115.668 580.685 115.804C580.428 116.157 580.282 116.554 580.139 116.937L580.069 117.124L580.076 117.172C580.091 117.29 580.08 117.415 580.069 117.543C580.051 117.734 580.032 117.929 580.087 118.139C580.139 118.33 580.304 118.495 580.509 118.558C580.564 118.576 580.619 118.584 580.674 118.584C580.784 118.584 580.886 118.547 580.971 118.477C581.015 118.44 581.059 118.407 581.103 118.37C581.341 118.183 581.638 117.951 581.634 117.525C581.634 117.514 581.652 117.492 581.674 117.448C581.832 117.157 581.902 116.881 581.894 116.62C581.931 116.665 581.975 116.709 582.023 116.753L582.067 116.793L582.125 116.801C582.276 116.819 582.393 116.911 582.528 117.017C582.587 117.065 582.649 117.113 582.712 117.154C583.148 117.444 583.555 117.58 583.987 117.58C584.027 117.58 584.068 117.58 584.112 117.58C584.222 117.573 584.552 117.554 584.61 117.216C584.662 116.926 584.57 116.679 584.365 116.547H584.361Z" fill="#2B201C"/>
<path d="M580.058 115.826C580.351 115.58 580.226 115.359 580.16 115.275C580.149 115.26 580.138 115.245 580.127 115.231C580.076 115.153 579.918 114.914 579.629 115.062C579.622 115.062 579.614 115.069 579.567 115.043C579.424 114.962 579.193 114.903 578.9 115.08C578.423 115.367 578.075 115.698 577.807 116.124L577.965 116.223L577.789 116.142C577.749 116.194 577.69 116.267 577.642 116.356C577.58 116.477 577.389 116.845 577.727 117.146L577.778 117.194C577.888 117.297 578.049 117.444 578.265 117.444C578.364 117.444 578.474 117.411 578.595 117.33C579.075 117.01 579.563 116.635 579.867 116.058C579.922 115.955 579.973 115.889 580.054 115.823L580.058 115.826Z" fill="#2B201C"/>
<path d="M584.511 114.073C584.203 114.003 583.906 114.014 583.62 114.021C583.474 114.025 583.331 114.032 583.184 114.025C582.873 114.006 582.634 114.205 582.532 114.562C582.455 114.823 582.631 114.959 582.689 115.006L582.829 114.878L582.708 115.021L582.737 115.043C583.111 115.264 583.47 115.308 583.822 115.352L583.91 115.363C583.987 115.374 584.064 115.378 584.141 115.378C584.518 115.378 584.9 115.256 585.321 115.006C585.497 114.9 585.497 114.694 585.493 114.573V114.532C585.493 114.403 585.438 114.245 585.149 114.209C584.958 114.183 584.764 114.139 584.577 114.095L584.515 114.08L584.511 114.073Z" fill="#2B201C"/>
<path d="M663.025 124.186C662.197 124.337 661.537 124.815 661.219 125.47C660.9 124.815 660.24 124.334 659.412 124.186C658.455 124.014 657.41 124.403 656.74 125.179C656.04 125.988 655.79 127.172 656.102 128.194C656.249 128.672 656.516 129.15 656.927 129.661C657.476 130.348 658.136 130.929 658.888 131.389C659.628 131.841 660.368 132.135 661.153 132.444L661.222 132.47L661.292 132.444C662.076 132.135 662.817 131.841 663.557 131.389C664.308 130.929 664.968 130.348 665.518 129.661C665.928 129.15 666.196 128.672 666.342 128.194C666.654 127.172 666.405 125.988 665.705 125.179C665.034 124.403 663.986 124.014 663.033 124.186H663.025Z" fill="#C12D67"/>
<path d="M541.955 108.334C542.556 108.646 543.15 108.984 543.732 109.33C544.136 109.569 544.557 109.79 544.894 110.128C545.139 110.373 545.377 110.362 545.609 110.095C546.386 109.205 547.031 108.216 547.661 107.22C547.735 107.102 547.922 106.97 547.837 106.863C547.749 106.749 547.53 106.812 547.376 106.83C546.752 106.907 546.129 106.962 545.503 106.977C544.876 106.992 544.249 106.977 543.622 106.981C543.197 106.981 542.783 106.907 542.369 106.834C542.039 106.775 541.706 106.727 541.365 106.672C541.321 106.683 541.266 106.65 541.218 106.723C540.984 107.084 540.742 107.437 540.503 107.793C540.386 107.97 540.452 108.036 540.65 108.017C541.123 107.97 541.552 108.124 541.955 108.337V108.334Z" fill="#2B201C"/>
<path d="M559.661 105.845C559.987 105.922 560.314 105.995 560.64 106.069C560.768 106.069 560.871 106.021 560.973 105.951C561.721 105.448 562.403 104.867 562.989 104.183C563.433 103.665 563.865 103.135 564.213 102.547C564.29 102.418 564.243 102.348 564.125 102.29C563.92 102.19 563.715 102.095 563.517 101.984C563.337 101.889 563.191 101.889 563.048 102.058C562.707 102.462 562.267 102.764 561.827 103.043C561.127 103.492 560.35 103.793 559.573 104.084C558.727 104.4 557.847 104.609 556.978 104.845C556.909 104.863 556.766 104.801 556.78 104.973C556.791 105.106 556.898 105.095 556.982 105.124C557.854 105.444 558.767 105.628 559.668 105.845H559.661Z" fill="#2B201C"/>
<path d="M539.163 109.609C539.053 109.8 538.928 109.977 538.807 110.161C538.664 110.37 538.525 110.576 538.393 110.793C538.272 110.995 538.312 111.05 538.54 111.069C538.715 111.084 538.891 111.102 539.064 111.15C539.665 111.315 540.229 111.55 540.739 111.933C541.263 112.326 541.853 112.639 542.241 113.198C542.282 113.253 542.329 113.304 542.41 113.289C542.458 113.289 542.494 113.282 542.527 113.249C542.938 112.834 543.352 112.422 543.762 112.006C543.821 111.944 543.832 111.867 543.744 111.793C543.132 111.275 542.571 110.698 541.867 110.289C541.233 109.925 540.61 109.547 539.903 109.348C539.459 109.223 539.393 109.231 539.174 109.62L539.163 109.609Z" fill="#2B201C"/>
<path d="M540.995 114.378C540.687 113.995 540.353 113.635 539.961 113.337C539.261 112.811 538.488 112.425 537.659 112.15H537.663C537.553 112.128 537.476 112.179 537.425 112.264C537.102 112.804 536.78 113.344 536.468 113.892C536.399 114.014 536.358 114.157 536.556 114.216C537.575 114.514 538.44 115.058 539.144 115.856C539.206 115.925 539.25 115.944 539.305 115.9C539.826 115.458 540.427 115.128 540.962 114.705C541.083 114.609 541.101 114.51 540.995 114.378V114.378Z" fill="#2B201C"/>
<path d="M563.642 106.477C563.554 106.573 563.513 106.723 563.645 106.764C563.917 106.848 564.203 106.878 564.518 106.937C564.551 106.948 564.598 106.911 564.642 106.87C565.188 106.389 565.764 105.937 566.24 105.374C566.695 104.837 567.087 104.264 567.391 103.628C567.479 103.44 567.439 103.363 567.237 103.308C566.819 103.194 566.405 103.054 565.991 102.922C565.855 102.878 565.826 102.911 565.779 103.058C565.581 103.646 565.375 104.234 564.983 104.734C564.532 105.312 564.151 105.944 563.645 106.481L563.642 106.477Z" fill="#2B201C"/>
<path d="M566.922 107.227C566.933 107.323 567.01 107.286 567.061 107.293C567.442 107.348 567.827 107.403 568.208 107.459C568.351 107.466 568.436 107.411 568.524 107.289C568.63 107.139 568.773 107.006 568.916 106.885C569.608 106.304 570.162 105.62 570.473 104.76C570.583 104.459 570.547 104.392 570.257 104.297C569.876 104.172 569.484 104.073 569.114 103.925C568.905 103.845 568.846 103.94 568.835 104.091C568.802 104.47 568.641 104.804 568.48 105.135C568.12 105.878 567.681 106.565 567.01 107.076C566.962 107.113 566.915 107.153 566.926 107.223L566.922 107.227Z" fill="#2B201C"/>
<path d="M535.988 117.955C536.669 117.731 537.245 117.326 537.82 116.922C537.963 116.823 537.952 116.701 537.828 116.58C537.432 116.198 536.966 115.903 536.504 115.613C536.299 115.484 536.109 115.326 535.907 115.304C535.795 115.307 535.719 115.341 535.68 115.407C535.394 115.885 535.13 116.37 534.921 116.885C534.866 117.021 534.851 117.139 534.95 117.264C535.093 117.451 535.258 117.628 535.394 117.819C535.566 118.065 535.746 118.036 535.991 117.955H535.988Z" fill="#2B201C"/>
<path d="M574.915 107.98C575.032 107.848 575.183 107.741 575.26 107.572C575.787 106.403 576.136 105.19 576.143 103.892C576.136 103.62 576.15 103.348 576.092 103.076C576.07 102.984 576.07 102.885 575.967 102.852C575.861 102.819 575.754 102.852 575.7 102.955C575.395 103.565 574.849 104.091 575.047 104.885C575.117 105.172 575.058 105.477 574.919 105.752C574.754 106.083 574.64 106.44 574.567 106.797C574.49 107.157 574.494 107.547 574.618 107.911C574.673 108.072 574.769 108.142 574.912 107.98H574.915Z" fill="#2B201C"/>
<path d="M549.766 58.3335C549.113 58.9254 548.553 59.6092 547.849 60.146C547.259 60.5945 546.683 61.0615 546.09 61.5026C545.448 61.9769 544.781 62.4181 544.14 62.8923C543.187 63.5945 542.201 64.2453 541.16 64.8188C540.537 65.1607 539.899 65.4879 539.298 65.8703C538.869 66.146 538.462 66.4622 537.997 66.6828C536.494 67.396 534.999 68.1166 533.503 68.8409C532.789 69.1865 532.1 69.5909 531.352 69.8629C530.93 70.0173 530.487 70.1093 530.091 70.3335C529.853 70.3887 529.651 70.5431 529.424 70.6166C529.204 70.6865 529.12 70.8262 529.05 71.032C528.852 71.6166 528.834 72.2159 528.86 72.8151C528.889 73.532 529.446 74.4438 530.439 74.4254C530.784 74.4181 531.11 74.3703 531.429 74.2637C531.924 74.0982 532.437 73.9732 532.895 73.7085C533.437 73.3923 533.877 72.9659 534.262 72.4769C534.453 72.2306 534.695 72.0247 534.834 71.7379C535.116 71.3041 535.38 70.8629 535.585 70.385C535.794 69.896 535.871 69.385 535.86 68.8592C535.86 68.7342 535.823 68.6093 535.812 68.4843C535.798 68.3298 535.926 68.3004 536.025 68.2784C536.106 68.2637 536.201 68.2894 536.23 68.4144C536.249 68.4879 536.249 68.5835 536.326 68.635C536.417 68.8372 536.553 69.0063 536.725 69.1423C537.103 69.4401 537.572 69.5063 538.008 69.4879C538.627 69.4585 539.17 69.1644 539.632 68.7343C539.701 68.7453 539.738 68.6938 539.782 68.6534C540.189 68.2747 540.577 67.8813 540.841 67.3813C541.12 66.8556 541.274 66.3041 541.219 65.7048C541.208 65.5835 541.112 65.4806 541.314 65.4107C541.497 65.3482 541.607 65.3923 541.677 65.5504C541.713 65.635 541.768 65.6901 541.838 65.7379C541.871 65.7747 541.897 65.8225 541.937 65.8519C542.674 66.3592 543.469 66.5651 544.349 66.282C544.825 66.1276 545.324 66.01 545.653 65.5835C545.686 65.5467 545.734 65.5173 545.752 65.4732C546.042 64.7563 546.13 64.021 545.954 63.2637C545.895 63.0063 545.961 62.907 546.229 62.9438C546.295 62.9512 546.357 62.9806 546.419 62.999C546.412 63.0578 546.449 63.0909 546.482 63.1313C546.735 63.4217 547.057 63.5909 547.409 63.7159C548.102 63.9659 548.816 64.0762 549.546 64.021C549.927 63.9916 550.279 63.8666 550.546 63.5615C550.722 63.4401 550.799 63.2673 550.858 63.0615C550.99 62.5909 551.027 62.1092 551.001 61.6276C550.986 61.3262 550.946 61.0357 550.649 60.8409C550.484 60.7306 550.37 60.5467 550.29 60.3592C550.257 60.2857 550.121 60.1938 550.257 60.1056C550.37 60.0284 550.499 59.9365 550.649 60.0247C550.733 60.0762 550.825 60.135 550.887 60.2122C551.162 60.5504 551.529 60.7232 551.935 60.8262C551.99 60.8592 552.045 60.8997 552.104 60.9217C552.954 61.2416 553.838 61.3262 554.736 61.2784C554.937 61.2673 555.139 61.2306 555.322 61.0909C555.516 60.9438 555.67 60.7673 555.806 60.5798C556.026 60.2673 556.279 59.9585 556.209 59.5284C556.367 59.2012 556.224 58.874 556.191 58.5541C556.15 58.1717 555.876 57.896 555.648 57.6056C555.234 57.0798 554.725 56.7048 554.065 56.5247C553.544 56.3813 553.02 56.3629 552.493 56.3004C552.126 56.2563 551.818 56.4732 551.47 56.385C551.448 56.3776 551.404 56.4328 551.382 56.4659C550.931 57.157 550.392 57.7673 549.78 58.3225L549.766 58.3335Z" fill="#2B201C"/>
<path d="M557.586 60.591C558.272 62.8116 558.389 65.3484 557.374 67.4771C557.352 67.5359 557.348 67.5616 557.293 67.5543C557.246 67.5543 557.257 67.4697 557.235 67.4146C557.246 67.4697 557.187 67.5469 557.271 67.6057C557.337 67.6609 557.444 67.591 557.473 67.5285C559.203 65.4697 559.119 62.3116 558.063 59.9587C557.964 59.5175 557.363 59.4513 557.227 59.8888C556.927 60.9329 556.421 61.8962 556.051 62.955C556.619 62.216 557.169 61.4403 557.586 60.5874V60.591Z" fill="#2B201C"/>
<path d="M572.343 105.017C572.214 104.984 572.071 104.97 571.958 104.907C571.793 104.815 571.72 104.881 571.661 105.021C571.525 105.429 571.32 105.804 571.097 106.168C570.851 106.569 570.587 106.959 570.33 107.352C570.298 107.404 570.246 107.444 570.279 107.51C570.312 107.576 570.385 107.547 570.44 107.547C570.657 107.547 570.869 107.547 571.086 107.547C571.265 107.547 571.423 107.492 571.529 107.345C571.961 106.745 572.372 106.128 572.577 105.404C572.643 105.165 572.585 105.073 572.346 105.014L572.343 105.017Z" fill="#2B201C"/>
<path d="M574.355 105.867C574.355 105.867 574.362 105.852 574.366 105.845C574.42 105.701 574.377 105.639 574.219 105.639C573.896 105.639 573.574 105.661 573.251 105.591C573.156 105.569 573.057 105.584 573.024 105.701C572.954 105.951 572.837 106.176 572.724 106.407C572.672 106.514 572.705 106.569 572.826 106.569C573.024 106.569 573.218 106.569 573.416 106.569C573.91 106.569 574.224 106.335 574.358 105.867H574.355Z" fill="#2B201C"/>
<path d="M532.488 79.5467C532.407 79.6203 532.308 79.5651 532.228 79.521C532.066 79.4364 531.583 79.1938 531.418 79.1166C529.677 78.3004 528.475 76.7453 527.496 75.1239C527.84 75.2416 528.203 75.3409 528.559 75.3703C528.977 75.2931 529.394 75.1497 529.838 75.0945C529.438 75.0173 529.028 74.9989 528.617 75.0284C528.255 74.9144 527.914 74.7453 527.569 74.5688C527.437 74.5063 527.294 74.407 527.144 74.3445C526.869 74.2195 526.51 74.4989 526.591 74.8004C526.62 74.9291 526.649 74.9475 526.686 75.0247C526.704 75.0614 526.84 75.3225 526.858 75.3629C527.881 77.5284 529.739 79.3445 532.195 79.6092C532.286 79.6276 532.437 79.646 532.488 79.5431V79.5467Z" fill="#2B201C"/>
<path d="M534.431 117.396C534.189 117.602 534.005 117.859 533.807 118.106C533.789 118.128 533.8 118.172 533.8 118.19C533.804 118.345 534.266 118.856 534.401 118.867C534.456 118.87 534.5 118.856 534.544 118.819C534.709 118.672 534.874 118.521 535.039 118.374C535.138 118.286 535.164 118.209 535.068 118.091C534.896 117.878 534.738 117.657 534.577 117.437C534.533 117.374 534.478 117.352 534.427 117.396H534.431Z" fill="#2B201C"/>
<path d="M538.734 71.808C538.151 71.9624 537.649 72.2418 537.517 72.8815C537.411 73.3999 537.568 73.8448 537.938 74.2639C538.334 74.705 538.77 74.8705 539.317 74.7124C539.793 74.5764 540.288 74.444 540.555 73.9661C540.907 73.3374 541.017 72.3668 540.145 71.9955C540.145 72.2345 540.207 72.5176 539.921 72.6315C539.661 72.7381 539.364 72.9109 539.093 72.6977C538.8 72.4698 538.785 72.1389 538.88 71.7749C538.814 71.7896 538.774 71.8006 538.734 71.808V71.808Z" fill="#2B201C"/>
<path d="M557.161 67.5834C556.733 65.5062 556.253 63.8517 555.655 62.3848L555.604 62.2856L555.523 62.2709C555.461 62.2598 555.391 62.2819 555.351 62.3297L555.296 62.4179L555.314 62.4878C555.714 64.0539 556.04 65.7672 556.304 67.7194L556.337 68.0282C556.516 69.6164 556.707 71.2598 556.018 72.7231C554.779 75.3738 552.705 77.7892 550.172 79.5245C548.186 80.8113 545.063 82.2745 541.475 81.951C538.286 81.7047 532.656 80.5907 530.802 75.9032C530.772 75.8113 530.677 75.7635 530.586 75.7892C530.494 75.815 530.439 75.9106 530.461 75.9988C531.011 78.4914 533.507 81.6863 538.726 82.4841C539.528 82.5907 540.335 82.6422 541.145 82.6422C544.876 82.6422 548.636 81.5319 551.741 79.4694H551.748C554.237 77.5539 555.956 75.4914 557.008 73.1532C557.788 71.4289 557.513 69.4584 557.161 67.5834V67.5834Z" fill="#2B201C"/>
<path d="M549.952 66.3299C549.706 66.4586 549.432 66.5468 549.278 66.8079C548.907 67.4292 548.926 68.1498 549.406 68.7307C549.886 69.3116 550.436 69.4476 550.989 69.091C551.759 68.5946 552.125 67.6866 551.895 66.7638C551.821 66.4733 551.693 66.216 551.367 66.1167C551.367 66.3741 551.623 66.6351 551.323 66.8593C551.312 67.0321 551.191 67.0579 551.055 67.0689C551.037 67.0726 551.019 67.0763 551 67.0799C550.795 67.1682 550.59 67.2307 550.37 67.1424C550.348 67.1204 550.326 67.0946 550.304 67.0689C550.095 67.0248 550.058 66.8777 550.077 66.6939C550.077 66.6093 550.051 66.5174 550.077 66.4402C550.121 66.2968 550.033 66.2932 549.959 66.3336L549.952 66.3299Z" fill="#2B201C"/>
<path d="M559.31 103.51C560.266 103.135 561.219 102.753 562.047 102.12C562.341 101.896 562.663 101.694 562.781 101.322C562.953 100.789 563.015 100.245 562.876 99.69C562.733 99.1165 562.465 98.6128 562.099 98.1606C561.96 97.9657 561.868 97.7304 561.674 97.576C561.674 97.5209 561.641 97.4841 561.611 97.44C561.278 96.9878 560.93 96.5466 560.618 96.0834C559.947 95.0944 559.203 94.1643 558.426 93.2635C558.39 93.2194 558.335 93.1679 558.331 93.1165C558.313 92.929 558.17 92.9473 558.093 93.0062C557.95 93.1128 557.796 93.065 557.649 93.0944C557.334 93.1165 557.052 93.0797 556.935 92.7194C556.876 92.6422 556.792 92.6532 556.733 92.6974C556.568 92.8224 556.356 92.8775 556.209 93.0282C555.553 93.3003 554.926 93.6496 554.237 93.8371C553.838 93.9437 553.493 94.2084 553.068 94.2341C552.137 94.3297 551.598 93.8444 551.287 93.0282C551.059 92.4326 550.821 91.8371 550.623 91.2268C550.429 90.6238 550.176 90.0319 550.172 89.3738C550.172 89.1128 550.264 88.9474 550.491 88.8481C550.719 88.7525 550.957 88.7121 551.158 88.8849C551.312 89.0135 551.466 89.1569 551.58 89.3334C551.946 89.8996 552.247 90.4988 552.492 91.1275C552.639 91.4988 552.903 91.679 553.295 91.6973C553.522 91.7047 553.731 91.6496 553.944 91.5907C554.571 91.4106 555.208 91.2635 555.795 90.9621C556.051 90.842 556.137 90.6471 556.051 90.3775C556.004 90.2231 555.974 90.0687 555.941 89.9106C555.905 89.7415 555.974 89.679 556.11 89.6312C556.487 89.4988 556.88 89.5209 557.272 89.5282C557.517 89.5319 557.734 89.4363 557.957 89.3665C558.111 89.3187 558.166 89.2194 558.063 89.076C557.822 88.7304 557.598 88.3701 557.294 88.0724C557.279 88.0356 557.268 87.9915 557.246 87.9584C556.814 87.2525 556.381 86.5429 556 85.8076C555.831 85.4768 555.736 85.1091 555.491 84.8187C555.3 84.4694 555.113 84.1238 554.922 83.7709C555.036 83.701 555.084 83.7525 555.157 83.8334C555.923 84.7157 556.451 85.7635 557.103 86.7268C557.316 87.0429 557.47 87.3996 557.748 87.6679C557.759 87.701 557.759 87.7415 557.778 87.7635C558.078 88.1018 558.327 88.4731 558.536 88.8775C558.716 89.2268 558.602 89.6753 558.258 89.8665C557.792 90.1201 557.29 90.1753 556.773 90.1459C556.59 90.1348 556.52 90.179 556.601 90.3812C556.81 90.9069 556.971 91.4547 557.231 91.9621C557.275 92.076 557.283 92.2451 557.426 92.2562C557.778 92.2893 558.129 92.2378 558.474 92.1532C558.551 92.1532 558.628 92.1606 558.701 92.1496C559.108 92.0834 559.511 92.0135 559.914 91.9474C560.647 91.7488 561.417 91.7194 562.143 91.4841C562.806 91.2672 563.51 91.1496 564.089 90.7231C564.192 90.6679 564.305 90.6275 564.397 90.5576C564.628 90.3812 564.895 90.2304 565.02 89.9437C565.075 89.9143 565.101 89.8665 565.123 89.8076C565.35 89.1643 565.104 88.3297 564.543 87.8481C563.829 87.2341 563.11 86.6238 562.392 86.0135C562.359 85.9216 562.26 85.9106 562.198 85.8554C561.413 85.1312 560.662 84.3701 559.863 83.6606C559.493 83.3334 559.123 83.0062 558.723 82.7157C557.536 81.8518 556.41 80.9143 555.417 79.8187C555.183 79.5613 554.948 79.2819 554.611 79.1238C554.219 78.94 553.933 78.5834 553.522 78.4179C553.383 78.3628 553.291 78.3665 553.181 78.4731C552.984 78.6606 552.767 78.826 552.562 79.0062C552.254 79.2856 551.902 79.5099 551.613 79.815C551.62 79.8187 551.627 79.826 551.631 79.8297C551.624 79.826 551.616 79.8187 551.613 79.815C551.29 80.0282 550.982 80.2856 550.634 80.4437C550.319 80.5871 550.29 80.8187 550.279 81.0871C550.257 81.6091 550.081 82.0944 549.81 82.5172C549.329 83.2672 548.578 83.7084 547.779 84.0356C546.702 84.4768 545.598 84.8371 544.403 84.5135C544.359 84.5871 544.319 84.6606 544.275 84.7341C544.319 84.6606 544.359 84.5871 544.403 84.5135L544.396 84.5062C544.107 84.3481 543.894 84.1091 543.744 83.8187C543.67 83.6753 543.601 83.5319 543.48 83.4253C543.48 83.4106 543.48 83.3959 543.473 83.3812C543.458 83.3628 543.443 83.3444 543.429 83.3297C543.429 83.3297 543.429 83.3297 543.432 83.3297C543.308 83.1716 543.19 83.0062 543.124 82.815C543.102 82.7488 543.08 82.7157 543.007 82.7157C542.644 82.7121 542.285 82.7378 541.933 82.8297C541.556 82.8297 541.178 82.8297 540.797 82.8297C540.507 82.8297 540.214 82.8297 539.925 82.8187C539.767 82.8113 539.712 82.8738 539.657 83.0172C539.368 83.7304 539.217 84.4951 538.887 85.1937C538.854 85.2525 538.814 85.3076 538.785 85.3665C538.323 86.3113 537.934 87.2893 537.509 88.2488C536.919 89.701 536.311 91.1459 535.486 92.4841C535.354 92.6973 535.226 92.9106 535.09 93.1201C534.786 93.5871 534.489 94.0576 534.167 94.5135C533.903 94.8849 534.101 95.1826 534.508 95.4878C534.691 95.7304 534.947 95.8628 535.222 95.951C536.974 96.5062 538.737 97.0209 540.551 97.3371C540.647 97.3554 540.768 97.4032 540.856 97.2782C541.083 96.9474 541.292 96.6091 541.372 96.2084C541.471 96.0871 541.449 95.9253 541.512 95.7929C541.526 95.6018 541.607 95.4179 541.563 95.2231C541.563 95.1532 541.574 95.0871 541.57 95.0172C541.541 94.5062 541.413 94.4363 541.01 94.4363C540.438 94.4363 539.888 94.2562 539.39 93.9694C539.173 93.8444 539.06 93.6348 539.148 93.3628C539.206 93.179 539.254 92.9878 539.305 92.8003C539.43 92.6716 539.445 92.4951 539.503 92.3371C539.877 91.3371 540.394 90.3959 540.705 89.3701C540.775 89.1348 540.892 88.9179 540.991 88.6937C541.046 88.5724 541.043 88.6863 541.061 88.7121C541.043 88.7599 541.013 88.804 541.002 88.8518C540.852 89.3775 540.716 89.9069 540.555 90.4326C540.32 91.19 540.071 91.94 539.826 92.6937C539.745 92.9069 539.657 93.1165 539.58 93.3297C539.521 93.4878 539.58 93.565 539.745 93.6312C540.152 93.7893 540.577 93.8297 541.002 93.8738C541.493 93.8407 541.875 93.9878 542.017 94.5135C542.039 94.5981 542.105 94.6018 542.179 94.6054C542.798 94.6496 543.418 94.7121 544.041 94.7047C544.176 94.7047 544.315 94.6496 544.444 94.6679C544.763 94.7194 545.067 94.6459 545.375 94.6018C545.646 94.565 545.859 94.4143 546.005 94.1974C546.207 93.8996 546.353 93.5466 546.394 93.2047C546.449 92.7047 546.504 92.1974 546.463 91.69C546.441 91.3922 546.463 91.0981 546.518 90.804C546.559 90.5981 546.621 90.4106 546.892 90.3996C547.112 90.3885 547.277 90.4474 547.398 90.6422C547.607 90.9841 547.64 91.3812 547.739 91.7562C547.97 92.6201 548.135 93.4988 548.201 94.3885C548.23 94.7672 548.278 95.1606 548.116 95.5319C548.105 95.7121 547.918 95.7929 547.882 95.9584C547.709 96.0025 547.614 96.1753 547.438 96.2121C547.42 96.2231 547.402 96.2378 547.383 96.2488C547.284 96.2782 547.163 96.2084 547.075 96.3003C547.024 96.304 546.973 96.3113 546.921 96.315C546.727 96.3076 546.537 96.3554 546.35 96.3959C545.954 96.4253 545.562 96.4804 545.166 96.4584C544.711 96.4363 544.261 96.4841 543.81 96.5172C543.168 96.5687 542.538 96.7341 541.889 96.7157C541.801 96.7157 541.71 96.7525 541.702 96.8224C541.666 97.1201 541.457 97.3334 541.35 97.5944C541.266 97.6201 541.255 97.7121 541.211 97.7709C541.09 97.9253 540.995 98.1091 540.735 97.9657C540.639 97.9143 540.489 97.951 540.537 98.1238C540.625 98.429 540.551 98.7378 540.592 99.0429C540.592 99.2672 540.61 99.4915 540.577 99.7121C540.449 100.58 540.463 101.458 540.39 102.33C540.331 103.032 540.258 103.727 540.13 104.422C540.038 104.635 540.082 104.874 540.02 105.094C539.987 105.205 540.016 105.319 540.101 105.425C540.467 105.878 540.977 105.988 541.508 106.065C541.794 106.161 542.087 106.197 542.384 106.219C542.608 106.256 542.835 106.33 543.058 106.326C544.381 106.308 545.708 106.381 547.031 106.241C547.783 106.164 548.534 106.109 549.285 106.014C549.351 105.999 549.414 105.984 549.48 105.973C550.268 105.833 551.07 105.749 551.855 105.594C553.31 105.308 554.747 104.947 556.139 104.429C556.191 104.414 556.257 104.444 556.293 104.377C556.942 104.252 557.576 104.08 558.199 103.859C558.577 103.8 558.936 103.672 559.291 103.532L559.31 103.51Z" fill="#2B201C"/>
<path d="M548.395 69.7786C548.358 69.5911 548.277 69.4661 548.153 69.4073C548.024 69.3484 547.87 69.3705 547.698 69.4698C547.482 69.5948 547.31 69.7639 547.181 69.9036C546.698 70.4183 546.122 71.0212 545.495 71.5874L545.437 71.6389C545.213 71.8411 544.96 72.069 544.894 72.433L544.817 72.8705L545.133 72.558C545.418 72.2749 545.737 72.0139 546.045 71.7602C546.316 71.5396 546.595 71.3117 546.852 71.0654C547.038 70.8889 547.233 70.7161 547.427 70.547C547.533 70.4551 547.64 70.3595 547.746 70.2639C547.757 70.2529 547.764 70.2455 547.771 70.2418C547.775 70.3006 547.782 70.3595 547.79 70.4183C547.804 70.5543 547.819 70.6867 547.819 70.8154C547.808 71.6609 547.581 72.5249 547.104 73.5396C547.013 73.7308 546.936 73.9404 547.071 74.183L547.097 74.2161C547.2 74.3154 547.295 74.3962 547.405 74.3962C547.416 74.3962 547.431 74.3962 547.442 74.3962C547.57 74.3742 547.64 74.2529 547.706 74.1205C548.039 73.4514 548.288 72.683 548.461 71.7712C548.6 71.047 548.497 70.3264 548.391 69.7823L548.395 69.7786Z" fill="#2B201C"/>
<path d="M542.696 76.1017C542.655 76.0282 542.589 75.94 542.494 75.9914C542.413 76.0356 542.476 76.1164 542.501 76.1753C542.696 76.6348 542.868 77.1164 543.249 77.4547C544.07 78.1789 545.067 78.4731 546.13 78.565C546.995 78.4878 547.819 78.2892 548.571 77.8554C548.879 77.6789 549.194 77.4804 549.286 77.0907C549.333 76.8848 549.223 76.7966 549.018 76.8334C548.805 76.8738 548.695 77.0539 548.534 77.1606C547.457 77.8554 546.309 78.1348 545.049 77.7635C544.389 77.5687 543.744 77.3517 543.238 76.8444C543.018 76.6238 542.842 76.3738 542.692 76.1017H542.696Z" fill="#2B201C"/>
<path d="M551.081 55.0137C550.803 54.7931 550.565 54.5321 550.326 54.2674C550.147 54.0689 549.967 53.885 549.747 53.738C549.11 53.3078 548.432 52.9586 547.72 52.6644C546.976 52.3556 546.243 52.01 545.492 51.7122C544.796 51.4365 544.048 51.3446 543.341 51.1056C542.802 50.9218 542.252 50.7784 541.691 50.7012C540.768 50.5689 539.837 50.4843 538.92 50.3262C537.59 50.0983 536.252 49.9255 534.907 49.8299C534.016 49.7674 533.126 49.7122 532.235 49.6167C531.568 49.5468 530.894 49.5431 530.227 49.4622C529.391 49.3593 528.559 49.2049 527.778 48.9034C526.756 48.51 525.777 47.9953 524.81 47.4769C523.97 47.0284 523.171 46.5137 522.457 45.885C522.325 45.7417 521.632 45.0027 521.28 44.7012C521.28 44.6865 521.273 44.6755 521.273 44.6608C521.221 44.5946 521.181 44.4953 521.079 44.5725C521.079 44.5725 520.998 44.4696 520.899 44.6387C520.848 44.6608 520.811 44.6975 520.818 44.7894C520.818 44.8042 520.818 44.8152 520.818 44.8299C520.796 44.8924 520.778 44.9696 520.756 45.0615C520.602 45.7637 520.565 47.8997 520.565 47.8997C520.551 48.2453 520.532 48.5909 520.518 48.9402C520.499 49.2453 520.47 49.5505 520.459 49.8593C520.43 51.0027 520.47 52.1461 520.62 53.2821C520.62 53.3336 520.62 53.385 520.62 53.4365C520.62 53.5836 520.576 53.7343 520.646 53.874C520.686 54.2784 520.723 54.6828 520.767 55.0872C520.793 55.2968 520.833 55.5064 520.866 55.7122C520.961 56.2858 521.02 56.8666 521.221 57.4144C521.342 58.1571 521.529 58.8814 521.804 59.5836C522.303 60.7711 522.622 62.0247 523.12 63.2196C523.824 64.9034 524.432 66.6314 525.312 68.2417C525.444 68.4843 525.546 68.7527 525.759 68.9475C525.913 69.2012 526.056 69.4622 526.276 69.6718C526.481 70.1019 526.825 70.3961 527.177 70.6828C529.351 69.6461 536.993 65.9806 541.112 63.6093C544.631 61.5836 548.97 57.238 551.081 55.0137V55.0137Z" fill="#2B201C"/>
<path d="M517.769 44.9364C517.465 44.8482 517.102 45.0283 516.783 44.782C516.611 44.6496 516.512 44.4768 516.438 44.2857C516.391 44.168 516.438 44.0541 516.548 43.9695C516.684 43.8666 516.816 43.7563 516.951 43.6496C516.966 43.6386 516.984 43.6129 516.988 43.6166C517.311 43.8004 517.523 43.3886 517.831 43.4658C518.124 43.5357 518.436 43.5541 518.703 43.7121C518.791 43.7636 518.92 43.8077 518.978 43.8041C519.165 43.793 519.143 43.9291 519.125 43.9952C519.077 44.1791 519.026 44.3482 518.887 44.521C518.582 44.8996 518.198 44.8923 517.769 44.9327V44.9364Z" fill="#2B201C"/>
<path d="M517.776 41.5654C517.798 41.422 517.743 41.2382 517.856 41.1463C518.065 40.9772 518.245 40.7345 518.575 40.7713C518.696 40.786 518.776 40.8081 518.839 40.9257C518.993 41.2162 519.168 41.4919 519.33 41.7787C519.502 42.0838 519.473 42.4368 519.517 42.7676C519.542 42.9441 519.37 43.0728 519.157 43.0765C518.806 43.0875 518.534 42.9368 518.333 42.661C518.175 42.4404 518.025 42.2125 517.889 41.9772C517.816 41.8559 517.743 41.7198 517.776 41.5654V41.5654Z" fill="#2B201C"/>
<path d="M521.508 40.8005C521.57 41.2968 521.449 41.7748 521.321 42.2564C521.291 42.3593 521.203 42.374 521.13 42.4108C520.731 42.602 520.445 42.374 520.434 41.9182C520.423 41.4917 520.492 41.0762 520.485 40.6535C520.481 40.363 520.628 40.1755 520.848 40.0285C521.006 39.9218 521.42 40.1351 521.46 40.3336C521.489 40.4843 521.522 40.6351 521.504 40.8005H521.508ZM521.317 40.1461C521.317 40.1461 521.328 40.1351 521.335 40.1277C521.324 40.124 521.313 40.1167 521.302 40.113C521.299 40.113 521.291 40.124 521.288 40.1277C521.299 40.1351 521.31 40.1387 521.321 40.1461H521.317Z" fill="#2B201C"/>
<path d="M521.859 45.3153C521.493 45.2528 521.306 45.0322 521.276 44.6682C521.408 44.2785 521.757 44.3116 522.061 44.2785C522.556 44.2234 523.043 44.3447 523.534 44.3484C523.714 44.3484 523.831 44.4881 523.893 44.6388C523.948 44.7748 523.875 44.8631 523.743 44.9587C523.384 45.2197 522.988 45.2932 522.563 45.2859C522.328 45.2822 522.09 45.205 521.859 45.319V45.3153Z" fill="#2B201C"/>
<path d="M518.447 47.065C518.447 46.576 518.572 46.179 518.762 45.8003C518.832 45.6606 518.942 45.5503 519.118 45.5393C519.198 45.5356 519.268 45.5135 519.312 45.44C519.404 45.2856 519.521 45.3849 519.624 45.4179C519.759 45.4657 519.734 45.5907 519.704 45.679C519.668 45.7929 519.66 45.8922 519.668 46.0172C519.708 46.5576 519.536 47.0503 519.319 47.5393C519.187 47.8371 518.964 47.7599 518.74 47.7231C518.502 47.6863 518.451 47.5062 518.432 47.3076C518.425 47.2084 518.443 47.1018 518.443 47.0613L518.447 47.065Z" fill="#2B201C"/>
<path d="M520.756 45.0654C520.756 45.0654 520.785 45.0875 520.8 45.0912C521.393 45.2309 521.69 45.5838 521.73 46.1978C521.73 46.2493 521.73 46.3081 521.756 46.3485C521.965 46.6757 521.789 46.9772 521.697 47.2787C521.632 47.4882 521.302 47.5287 521.133 47.3743C520.913 47.172 520.855 46.8706 520.668 46.65C520.583 46.2419 520.484 45.8412 520.51 45.4184C520.521 45.2456 520.536 45.0875 520.756 45.0691V45.0654Z" fill="#2B201C"/>
<path d="M521.537 43.6425C521.474 43.6315 521.361 43.6425 521.32 43.4992C521.258 43.2822 521.287 43.0764 521.485 42.9624C521.826 42.7675 522.112 42.4992 522.5 42.3631C522.68 42.3006 522.885 42.2308 523.069 42.1462C523.127 42.1168 523.219 42.069 523.277 42.1646C523.332 42.2492 523.413 42.3558 523.365 42.4477C523.175 42.8227 522.926 43.1536 522.533 43.3374C522.233 43.4808 521.932 43.6352 521.54 43.6499L521.537 43.6425Z" fill="#2B201C"/>
<path d="M521.316 40.1459C521.316 40.1459 521.294 40.1349 521.283 40.1275C521.287 40.1238 521.294 40.1128 521.298 40.1128C521.309 40.1128 521.32 40.1238 521.331 40.1275C521.327 40.1349 521.32 40.1385 521.313 40.1459H521.316Z" fill="#2B201C"/>
</g>
</g>
</g>
<defs>
<filter id="filter0_d_1884_85293" x="125.37" y="-21" width="840.63" height="639" filterUnits="userSpaceOnUse" color-interpolation-filters="sRGB">
<feFlood flood-opacity="0" result="BackgroundImageFix"/>
<feColorMatrix in="SourceAlpha" type="matrix" values="0 0 0 0 0 0 0 0 0 0 0 0 0 0 0 0 0 0 127 0" result="hardAlpha"/>
<feOffset dx="7" dy="5"/>
<feGaussianBlur stdDeviation="13"/>
<feColorMatrix type="matrix" values="0 0 0 0 0.317647 0 0 0 0 0.196078 0 0 0 0 0.0196078 0 0 0 0.3 0"/>
<feBlend mode="normal" in2="BackgroundImageFix" result="effect1_dropShadow_1884_85293"/>
<feBlend mode="normal" in="SourceGraphic" in2="effect1_dropShadow_1884_85293" result="shape"/>
</filter>
<clipPath id="clip0_1884_85293">
<rect width="933" height="587" rx="10" fill="white"/>
</clipPath>
<clipPath id="clip1_1884_85293">
<rect width="169" height="100" fill="white" transform="translate(500 40)"/>
</clipPath>
</defs>
</svg>
