<?xml version="1.0" encoding="UTF-8"?><svg id="_圖層_2" xmlns="http://www.w3.org/2000/svg" viewBox="0 0 178.63 1500.85"><g id="_圖層_3"><g><path d="M174.66,1395.46c-6.68,1.25-15.23,3.76-32.55,10.23-18.16,6.68-22.95,9.18-27.55,14.4-3.97,4.38-5.63,9.6-5.63,16.28v21.29h34.22c14.19,0,21.91-.42,31.51-1.67v44.87c-9.6-1.25-15.86-1.67-31.3-1.67H31.09c-12.94,0-20.66,.42-30.68,1.67,.42-9.18,.63-16.9,.63-31.09v-54.26c0-33.81,17.53-53.42,47.58-53.42,14.82,0,26.5,4.17,34.22,12.31,4.8,5.22,7.1,9.6,10.43,19.82,3.34-10.64,8.14-15.44,22.95-22.12,6.68-3.13,13.77-6.05,36.31-15.44,5.84-2.29,11.06-4.8,22.12-10.02v48.83Zm-101.42,29.63c0-12.31-7.51-19.83-19.41-19.83s-17.74,6.68-17.74,19.62v32.76h37.15v-32.55Z"/><path d="M121.66,1292.79c16.9-2.09,25.88-11.89,25.88-28.38,0-8.35-2.71-15.65-7.72-21.08-2.92-3.13-5.22-4.59-10.64-6.26l10.23-36.31c10.85,4.8,15.65,7.93,21.49,13.77,11.69,11.89,17.74,28.59,17.74,49.25s-5.84,36.52-17.74,48.41c-12.52,12.31-30.26,18.99-50.92,18.99-41.32,0-68.66-26.5-68.66-66.36,0-32.55,17.74-55.3,48.83-62.6,6.68-1.67,15.44-2.5,27.34-3.13,.83,0,2.09,0,4.17-.21v93.91Zm-28.8-54.26c-13.36,2.92-20.45,11.89-20.45,26.29s6.68,23.79,20.45,27.34v-53.63Z"/><path d="M92.65,1096.83c-6.26,1.88-9.18,3.13-12.31,5.84-4.8,4.17-7.3,10.02-7.3,17.53,0,16.9,13.36,26.92,36.31,26.92s37.15-10.64,37.15-27.34c0-8.14-3.34-15.65-9.18-19.82-2.71-1.88-4.8-2.92-9.6-3.76l6.05-38.4c8.97,2.29,14.61,4.8,20.66,8.76,15.44,10.43,24,29.42,24,53.63,0,20.03-6.26,37.15-17.95,48.62-11.89,12.1-30.26,18.78-50.71,18.78-41.74,0-68.45-26.29-68.45-66.99,0-32.14,15.86-54.47,43.61-61.35l7.72,37.56Z"/><path d="M109.77,1046.96c-41.74,0-68.24-26.71-68.24-68.86s26.5-68.86,67.82-68.86,69.07,27.54,69.07,69.07-26.71,68.66-68.66,68.66Zm-.21-39.86c23.16,0,37.15-10.85,37.15-29.01s-13.56-28.59-36.73-28.59-37.15,10.64-37.15,28.38,13.77,29.21,36.73,29.21Z"/><path d="M173.62,892.32c-9.6-1.25-18.36-1.67-31.51-1.67H77.84c-15.86,0-23.37,.42-31.51,1.67v-41.32h8.76q.83,0,2.92,.21h2.09c-11.69-10.64-17.11-23.37-17.11-39.86,0-10.85,2.5-19.83,7.51-26.71,2.71-3.76,5.22-5.84,10.43-8.56-12.73-12.94-18.16-25.67-18.16-43.82,0-29.84,16.28-45.07,47.79-45.07h51.75c12.94,0,21.49-.42,31.3-1.67v43.41c-9.81-1.25-17.32-1.67-31.51-1.67h-42.99c-15.65,0-21.7,4.59-21.7,16.49,0,10.64,8.35,20.24,22.33,25.46h42.57c12.52,0,21.29-.42,31.3-1.67v43.41c-9.39-1.25-18.16-1.67-31.51-1.67h-42.99c-8.76,0-12.73,.83-16.28,3.55-3.34,2.29-5.22,6.47-5.22,11.48,0,11.27,8.14,20.87,22.33,26.71h42.15c13.15,0,21.29-.42,31.51-1.67v42.99Z"/><path d="M173.62,663.82c-9.6-1.25-18.36-1.67-31.51-1.67H77.84c-15.86,0-23.37,.42-31.51,1.67v-41.32h8.76q.83,0,2.92,.21h2.09c-11.69-10.64-17.11-23.37-17.11-39.86,0-10.85,2.5-19.82,7.51-26.71,2.71-3.76,5.22-5.84,10.43-8.56-12.73-12.94-18.16-25.67-18.16-43.82,0-29.84,16.28-45.07,47.79-45.07h51.75c12.94,0,21.49-.42,31.3-1.67v43.41c-9.81-1.25-17.32-1.67-31.51-1.67h-42.99c-15.65,0-21.7,4.59-21.7,16.49,0,10.64,8.35,20.24,22.33,25.46h42.57c12.52,0,21.29-.42,31.3-1.67v43.41c-9.39-1.25-18.16-1.67-31.51-1.67h-42.99c-8.76,0-12.73,.83-16.28,3.55-3.34,2.29-5.22,6.47-5.22,11.48,0,11.27,8.14,20.87,22.33,26.71h42.15c13.15,0,21.29-.42,31.51-1.67v42.99Z"/><path d="M121.66,402.34c16.9-2.09,25.88-11.89,25.88-28.38,0-8.35-2.71-15.65-7.72-21.08-2.92-3.13-5.22-4.59-10.64-6.26l10.23-36.31c10.85,4.8,15.65,7.93,21.49,13.77,11.69,11.89,17.74,28.59,17.74,49.25s-5.84,36.52-17.74,48.41c-12.52,12.31-30.26,18.99-50.92,18.99-41.32,0-68.66-26.5-68.66-66.36,0-32.55,17.74-55.3,48.83-62.6,6.68-1.67,15.44-2.5,27.34-3.13,.83,0,2.09,0,4.17-.21v93.91Zm-28.8-54.26c-13.36,2.92-20.45,11.89-20.45,26.29s6.68,23.79,20.45,27.34v-53.63Z"/><path d="M173.62,291.74c-9.81-1.25-18.57-1.67-31.51-1.67H77.84c-14.4,0-23.16,.42-31.51,1.67v-41.53h8.76c1.25,0,4.38,.21,5.84,.21-12.52-13.15-17.74-25.88-17.74-42.99,0-14.4,3.96-25.88,11.69-33.6,8.35-8.35,18.57-11.89,35.06-11.89h52.38c12.1,0,22.54-.63,31.3-1.67v43.41c-10.02-1.25-18.78-1.67-31.51-1.67h-42.78c-8.35,0-11.89,.83-15.44,3.34-3.76,2.71-5.84,7.51-5.84,13.77,0,11.69,7.3,22.12,21.91,31.09h42.15c11.89,0,20.66-.42,31.51-1.67v43.2Z"/><path d="M166.94,41.11c-1.25,0-2.71,0-4.59-.21,11.27,13.98,15.02,24.62,15.02,42.15,0,37.98-25.46,60.93-67.61,60.93-21.7,0-39.02-6.26-50.92-17.95-10.64-10.64-16.28-25.25-16.28-42.36s4.38-29.01,15.44-42.78c-3.13,.21-5.01,.21-7.93,.21h-17.32c-14.61,0-23.58,.42-32.76,1.67V0C8.76,1.25,18.78,1.67,32.76,1.67h108.1c13.98,0,22.54-.42,32.76-1.67V41.11h-6.68Zm-56.97,62.39c11.9,0,21.49-3.34,27.55-9.6,5.01-5.01,7.93-12.52,7.93-20.24,0-18.57-15.44-32.14-36.1-32.14s-34.85,13.36-34.85,32.34,13.56,29.63,35.48,29.63Z"/></g></g></svg>