<?xml version="1.0" encoding="UTF-8"?><svg id="_圖層_2" xmlns="http://www.w3.org/2000/svg" viewBox="0 0 130.37 281.15"><defs><style>.cls-1{fill:#d88c6f;}.cls-2{fill:#d68058;}</style></defs><g id="_圖層_3"><g><path class="cls-2" d="M70.63,42.31c6.19-19.65,20.07-34.12,20.07-34.12l-17.21,1.36V0s-5.73,5.46-10.04,10.92c-4.3,5.46-14.34,20.47-17.21,47.77-2.49,23.74,2.6,42.32,3.97,46.75,8.44,.04,18.05,1.2,28.61,4.26-12.48-25.7-12.46-53.88-8.21-67.38Z"/><path class="cls-2" d="M1.82,140.25c-2.62,6.34-2.26,14.33,.1,20.28,5.61,14.16,10.78,23.31,18.95,36.14,0,0,.01,.02,.02,.03,32.75,46.47,3.84,65.33,3.84,65.33l14.34,2.73s-1.21,15.48-1.43,16.38c10.04-9.55,17.18-23.34,18.64-36.85,1.67-15.53,0-27.3-8.63-45.67-6.63-14.1-13.99-26-20.04-40.31-2.37-5.59-4.3-12.28-5.57-19.33-.14-.79-.27-1.54-.39-2.3-6.36,.74-12.99,1.99-19.89,3.84,0,0,.03-.11,.06-.28Z"/><path class="cls-2" d="M66.59,139.73c.05,.07,.11,.14,.16,.2,.09,.1,.17,.21,.25,.31,.19,.23,.38,.45,.57,.68,.15,.18,.3,.35,.45,.53,.08,.1,.17,.2,.26,.3,.8,.93,1.63,1.84,2.47,2.74,.11,.12,.22,.23,.33,.35,.11,.13,.24,.26,.36,.39,.58,.6,1.16,1.2,1.75,1.79,.41,.41,.84,.81,1.25,1.21,.44,.42,.88,.83,1.32,1.25,.28,.26,.56,.52,.84,.77,.26,.25,.53,.47,.79,.72,.77,.7,1.56,1.38,2.36,2.07,1.06,.89,2.13,1.78,3.23,2.64,.08,.07,.17,.14,.26,.21,.29,.23,.58,.46,.88,.69,.17,.13,.35,.27,.52,.4,.26,.2,.52,.41,.78,.6,.31,.24,.62,.47,.93,.71,.44,.33,.88,.65,1.32,.98,.01,0,.02,.02,.03,.02,.26,.19,.51,.38,.76,.56,.1,.07,.21,.15,.3,.22,.25,.19,.51,.36,.76,.55,.16,.11,.3,.21,.45,.32,.14,.1,.28,.2,.41,.3,.04,.03,.08,.06,.12,.08,.23,.16,.47,.33,.7,.49,.16,.1,.31,.21,.46,.31,.27,.18,.53,.36,.81,.54,.48,.32,.96,.63,1.46,.94,.65,.42,1.31,.82,1.98,1.22,.67,.4,1.35,.78,2.03,1.16,.4,.22,.81,.43,1.2,.64,.13,.07,.26,.14,.39,.2,1.88,.94,3.82,1.79,5.82,2.49,.6,.22,1.21,.42,1.83,.61,.21,.06,.44,.14,.68,.22,.24,.08,.49,.16,.76,.25,.12,.04,.24,.08,.36,.12,.13,.05,.25,.08,.38,.13,.22,.07,.44,.14,.67,.21,.29,.09,.57,.18,.87,.27,.5,.15,1.01,.29,1.52,.43,.52,.13,.94,.23,1.25,.3,.13,.03,.25,.05,.34,.08,.09,.01,.15,.03,.19,.02,.06,.02,.09,.03,.09,.03,2.01,.37,3.88,.44,4.93-.33,.4-.29,.72-.6,1.01-.91-1.88-2.08-20.86-22.33-53.67-31Z"/><path class="cls-1" d="M129.11,136.67c-18.24-14.39-35.22-22.62-50.28-26.98-10.56-3.06-20.17-4.22-28.61-4.26-23.84-.11-38.34,8.69-38.34,8.69-6.64,11.78-9.63,24.21-10.07,26.12-.04,.16-.06,.28-.06,.28,6.9-1.85,13.53-3.1,19.89-3.84,16.99-1.99,32.04-.37,44.94,3.04,32.81,8.67,51.79,28.92,53.67,31,.1,.11,.16,.18,.16,.18,14.82-21.24,8.69-34.24,8.69-34.24Z"/></g></g></svg>