<?xml version="1.0" encoding="UTF-8"?><svg id="_圖層_2" xmlns="http://www.w3.org/2000/svg" viewBox="0 0 58.39 99.51"><defs><style>.cls-1{fill:#95b8b0;}</style></defs><g id="_圖層_3"><path class="cls-1" d="M56.19,17.86c-7.68-5.64-15.14-11.6-23.24-17.86-.59,1.37-1.09,2.37-1.45,3.41-6.4,18.19-13.39,36.16-20.41,54.12-3.41,8.72-6.95,17.38-10.49,26.05-.69,1.7-1.23,3.17,.98,4.17,8.36,3.77,16.72,7.57,25.06,11.4,1.78,.82,2.85,.23,3.53-1.44,.43-1.04,.85-2.08,1.25-3.13,5.43-14.16,10.92-28.29,16.26-42.48,3.49-9.28,6.72-18.67,10.14-27.98,.94-2.55,.91-4.38-1.64-6.25Z"/></g></svg>