<?xml version="1.0" encoding="UTF-8"?><svg id="_圖層_2" xmlns="http://www.w3.org/2000/svg" viewBox="0 0 327.28 231.41"><defs><style>.cls-1{fill:#95b8b0;}.cls-2{fill:#809e90;}</style></defs><g id="_圖層_3"><g><g><path class="cls-2" d="M196.98,189.54c-.06,.38-.12,.76-.16,1.15-.05,.39-.1,.78-.14,1.17-.08,.79-.14,1.59-.16,2.39-.01,.18,0,.36-.01,.55,0,.07,0,.15,0,.23,0,.06,0,.12,0,.18,0,.27,0,.54,0,.81,0,.21,.01,.41,.02,.61,.01,.2,.03,.38,.04,.58,.03,.39,.08,.78,.13,1.17,.02,.11,.03,.22,.04,.34,.03,.15,.06,.31,.09,.46t0,.01c.03,.14,.05,.29,.08,.44,.05,.21,.09,.42,.14,.62,0,.01,0,.02,.01,.03,.05,.21,.09,.42,.15,.63,.03,.11,.07,.23,.11,.34,.01,.05,.03,.09,.04,.14,.22,.71,.51,1.39,.84,2.06,.05,.1,.09,.18,.14,.27,.11,.22,.23,.42,.36,.63,.12,.21,.24,.4,.38,.6,0,0,0,.01,0,.02t0,0c.16,.24,.34,.48,.51,.7,4.01,5.05,11.38,7.23,17.34,8.58,12.53,2.85,22.39,.38,35.5-1.12,0,0,.02,0,.03,0,48.57-7.81,63.17,18.28,63.17,18.28,.47-.9,3.49-5.12,3.49-5.12,2.15-.41,7.53,4.06,8.15,4.55-6.45-9.61-14.86-19.11-25.13-25.18-11.82-6.98-21.87-9.8-38.77-12.16-13.4-2.23-27.24-.91-40.79-1.57-5.3-.25-10.54-.25-15.81-.88-3.63-.44-6.56-1.84-9.47-3.52,0,.01,0,.02,0,.03-.12,.65-.23,1.31-.33,1.98Z"/><path class="cls-2" d="M261,123.15c-.23-.07-.47-.11-.71-.14-.41-.05-.83-.08-1.29-.06-.55,.02-1.14,.09-1.76,.2-.03,.01-.06,.01-.09,.02-.53,.1-1.07,.23-1.62,.38-.08,.02-.15,.04-.23,.06-.02,0-.05,.02-.07,.02-.36,.11-.74,.23-1.11,.36-.12,.04-.24,.08-.36,.13-.27,.09-.54,.2-.82,.31-.1,.04-.21,.08-.31,.12-.22,.09-.44,.18-.66,.27-.29,.12-.59,.25-.88,.38-1.19,.53-2.42,1.14-3.65,1.8-.57,.31-1.15,.62-1.73,.95-.21,.12-.43,.24-.64,.37-.55,.32-1.11,.65-1.65,.98-.85,.52-1.69,1.04-2.52,1.58,0,0-.01,0-.02,0-.1,.06-.2,.13-.3,.2-.27,.18-.53,.34-.8,.52-.14,.09-.28,.18-.42,.27-.25,.16-.5,.33-.74,.49-.55,.37-1.08,.74-1.6,1.1-.28,.19-.56,.38-.83,.57-.06,.04-.12,.09-.18,.13-.17,.12-.34,.24-.51,.36-.17,.12-.35,.25-.51,.36-.4,.29-.78,.56-1.15,.83-.12,.09-.25,.19-.38,.28-.18,.13-.36,.27-.53,.39-.15,.12-.29,.22-.44,.33-.19,.14-.38,.28-.56,.43-.35,.26-.67,.51-.97,.75-.22,.18-.44,.34-.64,.5-.13,.1-.25,.2-.36,.29-.15,.12-.29,.24-.43,.34-.24,.19-.45,.37-.63,.53h0c-.18,.16-.35,.29-.47,.4,0,0-.02,.01-.02,.02-.47,.43-.94,.85-1.4,1.29-.29,.27-.59,.54-.88,.81-.28,.25-.54,.51-.82,.77-.54,.51-1.09,1.03-1.64,1.55-.07,.07-.14,.14-.21,.21-.3,.29-.6,.57-.89,.86-.08,.09-.16,.16-.25,.25-.18,.17-.34,.35-.52,.51-.14,.14-.27,.29-.42,.43-.19,.19-.38,.37-.56,.56-.4,.4-.81,.82-1.21,1.23-.09,.09-.18,.19-.27,.28-.65,.67-1.29,1.35-1.93,2.04-.04,.03-.07,.07-.11,.11-.48,.52-.95,1.04-1.42,1.57-.34,.38-.68,.76-1.01,1.15-.75,.86-1.5,1.74-2.22,2.62,.21-.02,.4-.06,.6-.08,1-.13,2-.29,2.98-.46,.12-.02,.24-.03,.35-.05,.16-.03,.33-.06,.48-.1,.19-.04,.39-.07,.58-.11,.59-.12,1.17-.24,1.75-.37,.35-.07,.7-.15,1.04-.23,.11-.03,.22-.05,.33-.08,.25-.06,.49-.13,.74-.19,.19-.05,.38-.09,.58-.15,.11-.03,.22-.05,.32-.08,1.03-.27,2.04-.56,3.05-.87,.13-.04,.26-.08,.4-.12,.14-.04,.29-.09,.43-.13,.69-.21,1.37-.45,2.05-.67,.47-.16,.94-.34,1.41-.5,.49-.18,.97-.36,1.46-.55,.3-.12,.61-.23,.92-.35,.28-.11,.56-.23,.84-.34,.83-.33,1.66-.68,2.48-1.03,1.08-.47,2.17-.96,3.24-1.48,.09-.04,.17-.07,.25-.11,.29-.14,.58-.28,.86-.42,.17-.08,.34-.17,.51-.24,.25-.12,.5-.25,.76-.38,.29-.15,.59-.3,.89-.44,.42-.22,.83-.43,1.25-.64,0,0,.02,0,.03-.02,.24-.13,.48-.25,.72-.37,.09-.05,.18-.1,.28-.14,.24-.13,.47-.26,.71-.38,.14-.08,.27-.15,.41-.23,.13-.07,.25-.14,.38-.21,.04-.02,.07-.04,.11-.06,.21-.12,.43-.24,.64-.36,.14-.08,.28-.16,.41-.24,.24-.13,.48-.27,.72-.41,.42-.25,.84-.5,1.26-.76,.56-.34,1.12-.7,1.67-1.06,.55-.36,1.1-.74,1.64-1.12,.31-.23,.62-.46,.93-.68,.1-.08,.2-.15,.29-.23,1.41-1.08,2.77-2.24,4.03-3.51,.39-.38,.76-.76,1.13-1.16,.12-.13,.26-.28,.41-.44,.15-.15,.3-.31,.46-.48,.07-.07,.14-.16,.22-.23,.08-.08,.16-.16,.24-.25,.13-.14,.26-.28,.4-.43,.18-.18,.35-.37,.52-.56,.29-.33,.59-.67,.88-1,.29-.35,.51-.63,.67-.84,.07-.09,.13-.17,.18-.23,.04-.06,.08-.1,.09-.13,.04-.04,.06-.06,.06-.06,1-1.39,1.71-2.79,1.46-3.87-.24-1.11-.71-1.92-1.37-2.51l-.37-.29c-.14-.09-.28-.18-.43-.26-.29-.15-.61-.27-.94-.35Z"/><path class="cls-2" d="M125.14,53.49c-1.4-.44-2.96-.51-4.37-.37-1.53,.14-3.02,.51-4.49,.95-2.94,.89-5.75,2.15-8.5,3.5-1.13,.55-2.24,1.15-3.38,1.68-.3,.14-1.94,.69-1.96,1.09-.24,7.25-.05,14.6,2,21.51,3.06,10.31,6.89,20.17,12.2,29.34,.26,.46,.53,.91,.8,1.37,.03,.06,.07,.11,.1,.17,.15,.25,.31,.49,.46,.73,.61,.99,1.23,1.96,1.88,2.94,.13,.21,.28,.42,.42,.63,.08,.11,.15,.23,.22,.34,.13,.19,.26,.39,.38,.58,.11,.16,.22,.3,.33,.46,.1,.14,.21,.29,.31,.43,.03,.04,.06,.09,.09,.12,.09,.13,.18,.26,.27,.37,.17,.24,.33,.47,.5,.7,.21,.29,.42,.58,.65,.89,.02,.02,.03,.04,.04,.06,.05,.06,.1,.12,.15,.19,.19,.25,.38,.49,.57,.74,.31,.41,.62,.82,.95,1.23,.3,.37,.61,.75,.92,1.12,.32,.38,.65,.76,.97,1.15,.08,.09,.15,.17,.23,.26,.17,.19,.34,.39,.5,.58,.24,.27,.48,.53,.72,.79,.2,.22,.4,.44,.61,.65,.52,.55,1.04,1.09,1.57,1.63,0,.01,.02,.02,.04,.03-2.65-10.81-5.07-30.38-.67-60.63,.34-2.29,.55-4.62,.41-6.93-.1-1.76-.38-3.79-1.23-5.36-.3-.55-.68-1.05-1.13-1.48-.73-.7-1.62-1.17-2.57-1.47Z"/></g><path class="cls-1" d="M212.62,156.21c4.94-6,10.48-11.51,16.27-16.67,3.3-2.75,6.88-5.28,10.45-7.69h0s0,0,0,.01c6.76-3.72,14.97-10.95,23.02-8.11l-.39-.31c-.29-.23-.87-.69-1.16-.92,0,0,0,0,0,0-7-5.52-14.05-11.07-21.06-16.59-23.55,8.42-41.9,27.9-52.88,49.97-20.52-2.82-40.69-11.22-55.69-25.73-3.38-3.26-6.41-6.85-9.14-10.66,14.47,22.03,31.68,47.58,60.44,46.19-2.45,6.61-4.4,14.01-2.35,20.98,7.55,4.02,10.44,8.27,15.97,13.91,.37,.38,2.65,3.94,2.99,4.35-5.32-9.6-1.32-17.54,2.68-30.01,1.26-3.94,3.01-7.72,5.28-11.18,.05-.08,.11-.16,.16-.25,11.04-2.33,21.71-6.47,31.34-12.33,4-2.41,7.84-5.11,11.45-8.07,4.3-3.53,8.24-7.3,11.66-11.45-12.22,14.07-30.94,21.65-49.03,24.52Zm38.88-32.22h0s0,.01,0,.01c0,0,0-.01,0-.01Zm-18.79-14.51s0,.02,0,.02c0,0,0,0,0,0,0,0,0-.01,0-.02Zm12.6,36.67s0,0,0,0c0,0,0,0-.01,.01,0,0,0-.01,0-.01Z"/><g><polygon class="cls-1" points="45.33 69.51 45.32 69.5 45.32 69.51 45.33 69.51"/><path class="cls-1" d="M74.94,77.93s0,0,0-.01c0,0,0,0,0,0t0,.01Z"/><path class="cls-2" d="M33.59,76.03c.04-.18,.06-.36,.08-.51,.03-.24-.06-.56-.09-.8-.11-1.1-.18-2.36-.19-3.84-.01-1.76,.06-3.8,.23-6.19,.24-3.28,.68-7.19,1.4-11.88,2.01-13.25-.36-24.29-3.68-32.54-2.64-6.57-5.88-11.35-7.97-14.05-.11,.41-7.1,4.51-7.1,4.51C12.84,10.28,.6,.61,0,0,2.65,5.69,5.27,10.65,6.35,16.94c2.24,13.2,.84,26.7,2.63,39.92,.69,5.08,1.41,11.35,3.85,16.26,.04,.07,.07,.14,.1,.21,6.49,5.85,13.62,5.55,20.66,2.7Z"/><path class="cls-1" d="M101.42,38.55c-15.51,3.31-29.17,12.81-42.36,21.3-7.3,4.46-16.32,12.48-25.47,16.19-7.05,2.85-14.17,3.15-20.66-2.7,0,0,0,0,0,0,.02,.05,.05,.09,.08,.14,5.28,7.47,17.79,21.66,27.5,21.19,24.76-5.35,43.59-23.58,65.35-35.74,6.15-3.43,12.3-6.87,21.88-4.16-5.62-5.73-17.98-10.97-26.31-16.21Zm-56.09,30.96s0,0,0,0h0s0,0,0,0Zm29.61,8.42s0,0,0-.01c0,0,0,0,0,0,0,0,0,0,0,.01Z"/></g></g></g></svg>