<?xml version="1.0" encoding="UTF-8"?><svg xmlns="http://www.w3.org/2000/svg" viewBox="0 0 134.8 138.66"><defs><style>.cls-1,.cls-2{fill:#dea560;}.cls-3{fill:#da8080;}.cls-2{mix-blend-mode:multiply;opacity:.28;}.cls-4{isolation:isolate;}</style></defs><g class="cls-4"><g id="_圖層_2"><g id="_圖層_8"><g><path class="cls-2" d="M6.82,43.44C3.28,42.73,134.8,0,134.8,0L62.26,114.07,6.82,43.44Z"/><path class="cls-1" d="M.07,68.03c-3.54-.72,127.98-43.44,127.98-43.44L55.51,138.66,.07,68.03Z"/><g><path class="cls-3" d="M.07,68.03l.37,.47,2.38-1.87c-2.09,.83-3.11,1.33-2.75,1.4Z"/><path class="cls-3" d="M26.07,58.36L5.28,74.67l.88,1.12,23.98-18.82c-1.39,.47-2.75,.94-4.08,1.39Z"/><path class="cls-3" d="M52.39,49.48L11.01,81.96l.88,1.12L56.4,48.14c-1.34,.45-2.68,.89-4.01,1.34Z"/><path class="cls-3" d="M78.4,40.85L16.73,89.26l.88,1.12L82.38,39.54c-1.32,.43-2.64,.87-3.98,1.31Z"/><path class="cls-3" d="M104.24,32.36L22.46,96.55l.88,1.12L108.2,31.06c-1.28,.42-2.6,.85-3.96,1.3Z"/><polygon class="cls-3" points="126.94 26.32 28.18 103.84 29.06 104.96 124.64 29.94 126.94 26.32"/><polygon class="cls-3" points="111.98 49.85 33.9 111.13 34.78 112.25 109.68 53.47 111.98 49.85"/><polygon class="cls-3" points="97.02 73.38 39.63 118.43 40.51 119.55 94.72 77 97.02 73.38"/><polygon class="cls-3" points="82.06 96.91 45.35 125.72 46.23 126.84 79.76 100.53 82.06 96.91"/><polygon class="cls-3" points="64.79 124.06 67.09 120.44 51.08 133.01 51.96 134.13 64.79 124.06"/></g></g></g></g></g></svg>