<?xml version="1.0" encoding="UTF-8"?><svg id="_圖層_2" xmlns="http://www.w3.org/2000/svg" viewBox="0 0 153.33 64.52"><defs><style>.cls-1{fill:#95b8b0;}</style></defs><g id="_圖層_3"><path class="cls-1" d="M149.25,20.02c-6.32-4.31-13.18-7.52-20.33-10.01-8.16-2.84-16.44-5.46-25.13-6.22-7.35-.64-11.7,2.21-13.95,9.12-.67,2.05-1.16,4.16-1.69,6.25-1.09,4.37-1.9,8.83-3.28,13.1-1.85,5.75-6.38,8.37-12.25,7.09-2.95-.64-5.85-1.59-8.55-3.21-8.99-5.4-17.16-11.92-25.31-18.46-6.47-5.19-12.86-10.5-19.76-15.08-4.81-3.19-4.24-4.33-7.13,1.75-1.4,2.93-2.87,5.83-4.16,8.81-1.72,3.97-3.62,7.76-7.71,9.68,.62,1.92,1.94,2.61,3.16,3.3,7.06,3.99,14.13,7.95,21.22,11.88,9.92,5.5,19.88,10.96,29.79,16.47,4.12,2.29,8.44,4.15,13,5.27,7.86,1.94,13.85-1.48,18.28-7.56,4.26-5.84,10.06-9.72,15.69-13.89,1.49-1.1,3.23-1.41,5.08-1.58,7.33-.68,13.35,2.59,19.08,6.44,5.84,3.92,11.11,8.6,16.27,13.39,3,2.78,5.91,5.72,10.35,7.96,.47-12.65,.82-24.53,1.4-36.4,.18-3.64-1.06-6.07-4.06-8.11Z"/></g></svg>