<?xml version="1.0" encoding="UTF-8"?><svg id="_圖層_2" xmlns="http://www.w3.org/2000/svg" viewBox="0 0 78.11 89.24"><defs><style>.cls-1{fill:#e2b9c2;}</style></defs><g id="_圖層_3"><path class="cls-1" d="M78.11,12.75c-7.6,3.64-15.32,7.03-22.76,10.98-9.73,5.16-19.5,10.32-27.93,17.61-8.86,7.66-14.98,17.03-17.8,28.38-1.48,5.95-1.71,12.02,1.07,17.81,.17,.34,.32,.71,.04,1.26-2.67,.76-5.5,.34-8.3,.27-1.31-.03-1.37-1.26-1.51-2.18-.65-4.16-1.15-8.36-.8-12.57C1.81,53.42,11.03,36.68,27.87,24.13c5.26-3.92,10.86-7.25,16.55-10.5,8.95-5.11,18.4-9.14,27.63-13.63l6.06,12.75Z"/></g></svg>