<?xml version="1.0" encoding="UTF-8"?><svg id="_圖層_2" xmlns="http://www.w3.org/2000/svg" viewBox="0 0 269.62 295.99"><defs><style>.cls-1{fill:#ff8080;}.cls-2{fill:#333;}.cls-3{fill:#cdaeb7;}</style></defs><g id="_圖層_3"><g><path class="cls-2" d="M214.48,38.08c-.98-4.43-1.44-8.46-1.21-12.08-.24,3.63,.22,7.65,1.21,12.08Z"/><path class="cls-3" d="M.03,295.98c17.81-7.73,32.01-6.69,89.16-10.59,23.02-.4,46.01-5.31,52.22-17.47,0,0,.07-.13,.19-.37,.03-.06,.06-.12,.1-.19v.03s0-.02,0-.03c2.29-4.95,1.86-11.06-2.39-18.51-4.07,1.31-7.41,1.66-7.41,1.66-48.91,2.78-81.09,12.77-99.75,20.86-3.82,1.66-7.51,3.58-11.02,5.76-8.11,5.03-15.29,11.39-21.13,18.86,0-.01,.02,0,.03-.02Z"/><path class="cls-1" d="M141.7,267.36c1.76-3.41,10.92-21.68,11.55-30.58,1.3-5.34-.63-12.7-8.98-22.82-12.8-15.52-34.43-33.78-45.06-48.72-2.62-3.68-4.56-7.16-5.55-10.34-.89-2.87-1.01-5.51-.1-7.85-3.79,7.76-9.82,26.89-10.57,29.33-.07,.17-.09,.26-.09,.26-3.49,9.39,4.15,24.14,31.12,45.62,12.97,10.32,21.03,19.13,25.28,26.6,4.25,7.45,4.68,13.56,2.39,18.51Z"/><path class="cls-3" d="M99.22,165.23c7.97-2.02,18.02-2.53,28.55-1.8,25.54,1.79,61.81,5.08,77.66-9.19h0l.05-.04c5.81-5.26,8.86-12.9,7.6-23.86-18.24,5.57-47.3,5.36-83.99,5.83-22.69,.3-32.98,4.38-35.5,10.83t-.02,.03s0,.01,0,.02c-.9,2.34-.79,4.98,.1,7.85,.99,3.19,2.94,6.66,5.55,10.34Z"/><path class="cls-1" d="M205.47,154.2c.92-.7,14.54-11.42,26.73-37.89,.05-.11,.11-.23,.16-.34,3.44-7.58,2.83-18.11-2.39-32.77-6.36-17.85-12.61-32.55-15.33-44.38h0c-.06-.25-.11-.49-.16-.74-.98-4.43-1.44-8.46-1.21-12.08,.16-2.36,.61-4.56,1.41-6.59,.33-.82,.71-1.62,1.15-2.4l-20.37,33.36-.66,1.08c-6.27,11.16,.41,28.9,13.14,60.31,2.86,7.07,4.53,13.22,5.13,18.58,1.26,10.96-1.79,18.59-7.6,23.86Z"/><path class="cls-2" d="M215.88,16.94l.14-.24-.11,.16s-.03,.05-.04,.07Z"/><path class="cls-3" d="M252.22,31.6c-6.47-14.69-5.44-15.86-5.65-15.83s9.35-10.49,23.05-15.78c-32.21,1.69-47.78,7.08-53.59,16.7l-.16,.26-.04,.06c-.44,.77-.82,1.57-1.15,2.39-.8,2.03-1.25,4.23-1.41,6.59-.24,3.63,.22,7.65,1.21,12.08,.05,.25,.11,.49,.16,.74,3.54-1.09,7.57-2.08,12.1-3.02,7.17-1.49,15.61-2.84,25.47-4.2Z"/><path class="cls-2" d="M141.6,267.55c-.12,.24-.19,.37-.19,.37l.27-.53v-.03c-.02,.07-.06,.13-.08,.19Z"/><polygon class="cls-2" points="215.87 16.96 216.03 16.7 215.88 16.94 215.83 17.02 215.83 17.02 215.87 16.96"/><path class="cls-2" d="M205.42,154.24h0s.02-.02,.04-.04l-.05,.04h0Z"/></g></g></svg>