<?xml version="1.0" encoding="UTF-8"?><svg id="_圖層_2" xmlns="http://www.w3.org/2000/svg" viewBox="0 0 164.33 79.79"><defs><style>.cls-1{fill:#ffa728;}</style></defs><g id="_圖層_8"><path class="cls-1" d="M162.94,3.83c-1.53-1.09-3.1-2.12-4.6-3.24-1.13-.84-2.06-.84-2.91,.36-.36,.51-.78,.98-1.16,1.47-8.94,11.29-17.21,23.05-24.7,35.35-1.19,1.95-2.51,3.86-3.97,5.61-1.72,2.05-2.86,2.14-5.22,.9-1.39-.74-2.58-1.75-3.77-2.77-3.52-3-6.06-6.86-8.97-10.38-3.28-3.96-6.8-7.63-11-10.57-6.96-4.89-14.68-6.87-23.14-5.35-10.32,1.86-18.16,9.04-18.65,20.7-.19,4.41,.26,8.74,.8,13.09,.45,3.62,1.08,7.23,1.01,10.89-.06,3.04-.36,6.04-1.85,8.79-1.59,2.94-3.07,3.74-6.36,3.27-2.9-.42-5.74-1.12-8.39-2.41-6.38-3.1-12.73-6.24-19.09-9.37-4.77-2.35-9.56-4.67-14.3-7.07-1.27-.65-2.1-.52-2.83,.75-1.15,1.97-2.72,3.69-3.82,6.16,4.09,2.03,7.99,4.01,11.92,5.92,7.59,3.69,15.01,7.76,22.84,10.95,5.69,2.32,11.55,3.53,17.73,2.6,8.68-1.31,14.83-7.84,15.65-16.59,.34-3.66,.18-7.29-.24-10.92-.52-4.45-1.21-8.89-1.36-13.38-.11-3.27,.18-6.48,1.42-9.52,2.01-4.95,6.28-7.26,11.54-6.41,4.51,.73,8.09,3.16,11.44,6.07,4.77,4.12,8.22,9.38,12.28,14.12,2.66,3.11,5.56,5.96,9.26,7.8,6.68,3.34,13.34,3.18,19.6-.95,3.14-2.07,5.45-5.09,7.46-8.32,3.41-5.49,6.87-10.95,10.55-16.27,4.27-6.18,8.66-12.25,13.26-18.19,1.39-1.8,1.36-1.83-.39-3.08Z"/></g></svg>