<?xml version="1.0" encoding="UTF-8"?><svg id="_圖層_2" xmlns="http://www.w3.org/2000/svg" viewBox="0 0 303 303"><defs><style>.cls-1{fill:#fff;}.cls-2{fill:#6b9995;opacity:.65;}</style></defs><g id="_圖層_1-2"><circle class="cls-2" cx="151.5" cy="151.5" r="151.5"/><path class="cls-1" d="M222.68,200.21c-2.22,0-4.43-.99-5.91-2.87l-60.6-77.27c-1.13-1.45-2.84-2.27-4.68-2.27s-3.54,.83-4.68,2.27l-60.6,77.27c-2.56,3.26-7.27,3.83-10.53,1.27-3.26-2.56-3.83-7.27-1.27-10.53l60.6-77.27c4-5.1,10-8.02,16.48-8.02s12.48,2.92,16.48,8.02l60.6,77.27c2.56,3.26,1.99,7.97-1.27,10.53-1.37,1.08-3,1.6-4.62,1.6Z"/></g></svg>