<?xml version="1.0" encoding="UTF-8"?><svg id="_圖層_2" xmlns="http://www.w3.org/2000/svg" viewBox="0 0 1191.96 347.12"><defs><style>.cls-1{fill:#ffc024;}.cls-2{fill:#4097d3;}</style></defs><g id="_栝鍣_1"><polygon class="cls-1" points="914.91 247.47 921.42 217.28 949.98 205.53 923.28 190.01 920.93 159.22 897.92 179.81 867.91 172.54 880.39 200.78 864.19 227.08 894.91 223.94 914.91 247.47"/><polygon class="cls-1" points="484.31 286.05 471.38 260.68 459.11 286.38 430.99 290.84 451.64 310.44 447.19 338.57 472.22 324.99 497.59 337.91 492.41 309.91 512.54 289.77 484.31 286.05"/><polygon class="cls-1" points="610.31 55.29 600.79 35.51 591.8 55.53 571.14 59 586.32 74.3 583.07 96.22 601.45 85.65 620.1 95.74 616.28 73.9 631.05 58.21 610.31 55.29"/><polygon class="cls-1" points="293.77 100.89 302.53 81.19 281.99 85.3 266.46 69.78 264.59 91.65 246.24 101.75 265.63 111.17 269.81 132.93 283.66 116.88 304.6 120.23 293.77 100.89"/><path class="cls-1" d="M1142.25,223.28c-3.97,3.13-8.09,6.21-12.16,9.33-4.19,2.97-8.32,6.01-12.49,8.87-4.22,2.79-8.32,5.58-12.26,8.34-3.98,2.69-7.81,5.33-11.37,7.94-1.77,1.32-3.56,2.5-5.27,3.67-1.7,1.2-3.34,2.36-4.91,3.47-3.16,2.21-5.98,4.37-8.58,6.12-2.57,1.8-4.8,3.4-6.62,4.75-1.82,1.34-3.25,2.42-4.21,3.17-.96,.75-1.48,1.15-1.48,1.15l.32,.56s.6-.25,1.72-.73c1.12-.48,2.75-1.2,4.81-2.15,2.07-.94,4.56-2.13,7.4-3.52,2.86-1.36,5.98-3.08,9.38-4.98,3.39-1.91,7.1-3.92,10.87-6.3,3.79-2.34,7.73-4.92,11.77-7.63,3.95-2.84,7.96-5.88,12.01-8.99,3.99-3.19,8.03-6.43,12.08-9.67,3.97-3.34,7.97-6.63,11.82-9.98,3.8-3.4,7.63-6.65,11.14-10,1.78-1.65,3.52-3.28,5.23-4.87,1.67-1.64,3.3-3.24,4.89-4.8,.79-.78,1.57-1.55,2.34-2.31,.75-.78,1.49-1.54,2.22-2.3,1.45-1.51,2.85-2.96,4.2-4.36,2.62-2.86,5.07-5.44,7.13-7.83,2.11-2.34,3.86-4.46,5.31-6.2,1.43-1.76,2.55-3.14,3.28-4.11,.73-.96,1.13-1.48,1.13-1.48l-.5-.4s-.43,.48-1.22,1.39c-.79,.9-2,2.2-3.54,3.84-1.57,1.62-3.44,3.61-5.67,5.82-2.19,2.25-4.77,4.67-7.54,7.35-1.42,1.31-2.9,2.67-4.43,4.08-.76,.7-1.54,1.42-2.33,2.14-.81,.71-1.63,1.43-2.46,2.16-1.65,1.46-3.35,2.97-5.09,4.5-1.77,1.5-3.58,3.03-5.42,4.59-3.64,3.16-7.58,6.2-11.5,9.39Z"/><path class="cls-1" d="M1191.43,240.47s-.3,.42-.89,1.15c-.57,.74-1.48,1.79-2.62,3.14-1.2,1.29-2.59,2.92-4.33,4.66-1.68,1.79-3.69,3.69-5.88,5.77-1.08,1.05-2.3,2.05-3.51,3.13-1.22,1.07-2.46,2.2-3.83,3.26-1.34,1.09-2.72,2.2-4.12,3.34-1.41,1.13-2.93,2.2-4.43,3.33-2.97,2.3-6.25,4.4-9.5,6.63-1.6,1.14-3.33,2.13-5.03,3.18-1.7,1.04-3.41,2.08-5.12,3.12-3.51,1.93-7.05,3.79-10.56,5.57-3.59,1.62-7.1,3.25-10.45,4.91-3.43,1.5-6.71,3.02-9.79,4.55-1.53,.78-3.08,1.43-4.56,2.07-1.48,.67-2.91,1.31-4.28,1.93-2.75,1.22-5.22,2.51-7.51,3.39-2.26,.96-4.23,1.83-5.85,2.57-3.24,1.48-5.07,2.44-5.07,2.44l.17,.62s2.03-.24,5.57-.85c1.77-.3,3.91-.71,6.36-1.21,2.47-.45,5.16-1.26,8.11-2.13,2.93-.92,6.18-1.75,9.46-3.06,3.29-1.28,6.73-2.71,10.25-4.26,3.43-1.76,6.92-3.68,10.44-5.66,3.43-2.14,6.91-4.31,10.39-6.49,1.69-1.16,3.38-2.32,5.07-3.47,1.68-1.16,3.38-2.26,4.96-3.52,3.21-2.44,6.39-4.81,9.27-7.35,1.45-1.25,2.92-2.43,4.28-3.68,1.35-1.26,2.67-2.49,3.95-3.69,1.3-1.18,2.47-2.42,3.63-3.6,1.14-1.19,2.29-2.3,3.31-3.44,2.05-2.28,3.94-4.34,5.49-6.29,1.62-1.88,2.89-3.64,3.98-5.05,1.03-1.46,1.85-2.59,2.36-3.4,.54-.8,.79-1.23,.79-1.23l-.53-.36Z"/><path class="cls-1" d="M88.38,36.74c2.38,1.46,4.63,2.93,6.76,4.36,1.08,.69,2.07,1.44,3.05,2.15,.49,.35,.99,.68,1.45,1.03,.46,.36,.91,.71,1.36,1.05,1.82,1.33,3.37,2.7,4.83,3.86,.71,.59,1.34,1.19,1.95,1.72,.61,.53,1.19,1,1.69,1.46,1.94,1.86,3.17,2.89,3.17,2.89l.53-.37s-.61-1.45-1.89-3.95c-.69-1.21-1.58-2.65-2.66-4.28-1.17-1.55-2.45-3.36-4.1-5.12-.79-.91-1.66-1.82-2.61-2.71-.95-.88-1.9-1.86-2.98-2.71-2.1-1.8-4.46-3.52-7.03-5.1-1.3-.75-2.6-1.56-4.01-2.21-1.37-.71-2.79-1.36-4.24-1.96-1.44-.64-2.91-1.21-4.39-1.78-1.47-.59-2.97-1.1-4.46-1.64-1.49-.53-3-1-4.5-1.49-1.51-.43-3.01-.9-4.51-1.28-2.99-.81-5.97-1.46-8.86-2-2.89-.54-5.7-.99-8.37-1.31-2.67-.33-5.2-.56-7.53-.73-4.67-.34-8.57-.41-11.29-.36-2.72,.05-4.28,.17-4.28,.17v.64s1.55,.06,4.23,.33c2.68,.29,6.52,.69,11.06,1.5,2.27,.39,4.72,.87,7.29,1.45,2.57,.58,5.27,1.22,8.03,2,2.76,.76,5.58,1.66,8.41,2.62,1.42,.47,2.82,1.03,4.25,1.54,1.4,.57,2.81,1.11,4.2,1.72,2.77,1.22,5.49,2.54,8.05,4.03,.64,.37,1.29,.72,1.92,1.09,.62,.38,1.24,.76,1.86,1.13,1.25,.73,2.44,1.5,3.62,2.24Z"/><path class="cls-1" d="M46.85,67.24c1.18,.84,2.36,1.67,3.51,2.53,2.28,1.73,4.48,3.46,6.61,5.12,2.14,1.65,4.22,3.25,6.18,4.77,.96,.79,1.92,1.53,2.84,2.26,.91,.74,1.79,1.46,2.63,2.15,1.7,1.37,3.22,2.69,4.61,3.84,.68,.59,1.32,1.14,1.9,1.65,.59,.51,1.18,.95,1.65,1.39,1.95,1.73,3.17,2.67,3.17,2.67l.51-.39s-.62-1.39-1.89-3.74c-.64-1.17-1.52-2.52-2.53-4.09-.5-.79-1.12-1.55-1.73-2.39-.62-.84-1.27-1.73-2.02-2.59-.73-.88-1.51-1.78-2.34-2.7-.86-.88-1.73-1.82-2.66-2.74-1.88-1.83-3.96-3.66-6.23-5.4-2.29-1.72-4.78-3.32-7.36-4.83-1.3-.74-2.62-1.48-3.93-2.22-1.35-.69-2.66-1.45-4.01-2.13-2.69-1.38-5.4-2.72-8.13-3.91-2.7-1.23-5.44-2.27-8.08-3.26-2.66-.94-5.23-1.85-7.71-2.56-2.47-.74-4.83-1.37-7.01-1.9-4.37-1.06-8.04-1.78-10.63-2.15-2.58-.39-4.08-.52-4.08-.52l-.1,.64s1.44,.3,3.94,.99c2.49,.7,6.04,1.73,10.21,3.23,4.17,1.49,8.94,3.45,13.93,5.76,2.48,1.19,5.02,2.45,7.56,3.81,2.55,1.34,5.07,2.82,7.56,4.34,1.24,.77,2.45,1.57,3.66,2.38Z"/><path class="cls-1" d="M688.81,234.84s-1.49,.99-3.99,2.87c-2.49,1.88-5.97,4.7-9.94,8.31-1.99,1.8-4.1,3.81-6.27,6-2.17,2.19-4.38,4.58-6.59,7.13-2.22,2.54-4.42,5.25-6.54,8.11-1.07,1.42-2.08,2.9-3.13,4.37-.98,1.51-2.02,3-2.96,4.54-.95,1.54-1.92,3.08-2.81,4.66-.45,.78-.91,1.57-1.36,2.35-.42,.8-.85,1.59-1.27,2.39-.86,1.58-1.64,3.19-2.37,4.8-.78,1.59-1.35,3.24-1.98,4.84-1.15,3.24-2.03,6.47-2.63,9.57-.61,3.1-1,6.07-1.14,8.82-.1,1.37-.19,2.68-.14,3.94,.02,1.25,.01,2.44,.07,3.55,.19,2.23,.38,4.15,.62,5.72,.6,3.14,1.05,4.89,1.05,4.89l.64-.05s.29-1.8,.62-4.87c.23-1.52,.51-3.37,.83-5.48,.43-2.09,.78-4.45,1.41-6.97,.27-1.27,.55-2.58,.96-3.92,.37-1.34,.68-2.74,1.14-4.15,.85-2.83,1.8-5.78,2.88-8.81,.54-1.52,1.05-3.07,1.66-4.62,.59-1.55,1.15-3.14,1.83-4.71,.33-.79,.66-1.58,.99-2.37,.36-.78,.73-1.56,1.09-2.34,.7-1.59,1.55-3.1,2.35-4.65,.81-1.54,1.72-3.03,2.58-4.54,.92-1.47,1.81-2.96,2.76-4.4,1.9-2.87,3.81-5.68,5.79-8.31,1.96-2.65,3.97-5.12,5.9-7.45,1.94-2.32,3.83-4.48,5.63-6.42,1.8-1.95,3.49-3.69,5.03-5.2,1.53-1.52,2.9-2.8,4.03-3.87,2.27-2.11,3.64-3.23,3.64-3.23l-.38-.52Z"/><path class="cls-1" d="M687.11,331.62c.23,1.91,.37,3.56,.66,4.92,.51,2.71,.92,4.23,.92,4.23l.64-.03s.34-1.55,.75-4.22c.09-.67,.22-1.4,.37-2.2,.13-.8,.27-1.66,.42-2.58,.25-1.84,.71-3.89,1.05-6.12,.46-2.22,.85-4.63,1.41-7.14,.25-1.26,.51-2.55,.82-3.87,.31-1.31,.53-2.67,.88-4.02,.29-1.37,.57-2.76,.9-4.16,.32-1.4,.6-2.84,.98-4.27,.18-.72,.36-1.44,.54-2.16,.21-.71,.41-1.43,.62-2.15,.39-1.45,.89-2.86,1.38-4.28,.99-2.84,2.13-5.63,3.31-8.35,1.24-2.69,2.46-5.36,3.8-7.86,1.3-2.52,2.7-4.88,4.04-7.12,1.36-2.23,2.72-4.29,4.02-6.16,2.62-3.74,5.05-6.69,6.79-8.72,1.75-2.03,2.84-3.08,2.84-3.08l-.42-.49s-1.24,.95-3.24,2.78c-2.02,1.81-4.73,4.58-7.78,8.1-3.03,3.53-6.4,7.84-9.53,12.79-1.6,2.45-3.12,5.08-4.58,7.79-1.42,2.73-2.81,5.55-4.05,8.43-.64,1.44-1.24,2.89-1.82,4.34-.61,1.45-1.16,2.91-1.69,4.37-.56,1.45-1.04,2.92-1.48,4.37-.49,1.45-.82,2.92-1.18,4.35-.33,1.44-.62,2.87-.82,4.28-.11,.7-.22,1.4-.32,2.09-.07,.69-.14,1.38-.2,2.05-.3,2.7-.34,5.27-.38,7.63,.02,1.18,.08,2.32,.13,3.39,.05,1.07,.08,2.09,.21,3.04Z"/><path class="cls-1" d="M865.13,44.2l.17,1.42c.11,.94,.2,1.88,.34,2.79,.12,.92,.3,1.81,.38,2.71,.24,1.78,.58,3.48,.97,5.1,.28,1.63,.6,3.17,.94,4.6,.16,.71,.34,1.4,.51,2.05,.16,.65,.27,1.28,.43,1.87,.28,1.18,.55,2.21,.81,3.06,.51,1.7,.91,2.69,.91,2.69h.64s.34-.99,.76-2.74c.21-.88,.42-1.94,.64-3.17,.12-.62,.22-1.27,.3-1.96,.05-.69,.11-1.42,.15-2.18,.08-1.52,.13-3.18,.12-4.93-.09-1.74-.27-3.58-.56-5.47-.28-1.89-.9-3.79-1.45-5.71l-.43-1.45-.51-1.44c-.35-.96-.65-1.93-.97-2.89-.62-1.93-1.45-3.8-2.15-5.67-.82-1.83-1.63-3.62-2.52-5.29-.91-1.67-1.76-3.29-2.73-4.74-.9-1.49-1.89-2.8-2.76-4.04-.94-1.19-1.76-2.3-2.59-3.21-.79-.94-1.54-1.7-2.17-2.32-.64-.61-1.14-1.08-1.51-1.38-.36-.31-.56-.46-.56-.46l-.44,.47s.17,.19,.45,.54c.29,.34,.69,.89,1.19,1.58,.48,.71,1.08,1.55,1.7,2.57,.66,.99,1.28,2.18,1.99,3.45,.65,1.31,1.39,2.7,2.02,4.24,.69,1.51,1.32,3.15,1.96,4.84,.64,1.69,1.14,3.5,1.75,5.29,.47,1.84,1.05,3.67,1.44,5.56,.18,.95,.39,1.88,.55,2.83l.25,1.41Z"/><path class="cls-1" d="M881.08,2.26c.53,.58,1.12,1.34,1.78,2.21,.61,.92,1.33,1.91,1.95,3.12,.69,1.15,1.26,2.5,1.9,3.89,.3,.71,.55,1.46,.84,2.21,.29,.75,.59,1.51,.8,2.33,.24,.8,.48,1.62,.72,2.44,.24,.82,.4,1.69,.6,2.54,.19,.86,.42,1.71,.57,2.59,.14,.88,.27,1.76,.41,2.65,.32,1.75,.4,3.56,.49,5.32,.05,.88,.1,1.75,.14,2.61,0,.87,.06,1.72,.1,2.55,.11,1.67,.41,3.27,.55,4.81,.17,1.54,.4,3,.64,4.35,.28,1.35,.42,2.61,.65,3.72,.21,1.11,.42,2.09,.63,2.9,.41,1.62,.75,2.57,.75,2.57l.64,.04s.4-.9,.91-2.51c.26-.8,.54-1.78,.82-2.92,.28-1.13,.61-2.42,.75-3.83,.18-1.41,.33-2.95,.43-4.58,.16-1.63,.03-3.36-.11-5.14-.1-.89-.19-1.79-.34-2.7-.15-.91-.41-1.82-.62-2.74-.44-1.83-.85-3.69-1.42-5.53-.26-.92-.51-1.84-.77-2.75-.27-.91-.63-1.8-.93-2.69-.33-.88-.59-1.77-.98-2.62-.38-.84-.77-1.67-1.14-2.49-.35-.82-.78-1.6-1.21-2.35-.43-.75-.81-1.5-1.25-2.19-.93-1.37-1.76-2.67-2.69-3.77-.86-1.14-1.8-2.08-2.59-2.92-.43-.39-.83-.76-1.19-1.1-.37-.34-.76-.6-1.08-.86-.66-.51-1.21-.85-1.6-1.09-.4-.24-.6-.33-.6-.33l-.34,.55s.19,.14,.5,.42c.3,.27,.76,.7,1.28,1.3Z"/><path class="cls-1" d="M154.1,303.27c1.75,1.25,3.41,2.51,4.99,3.71,1.58,1.2,3.04,2.37,4.39,3.46,5.35,4.4,8.71,7.61,8.71,7.61l.48-.43s-2.81-3.75-7.63-8.86c-1.2-1.28-2.52-2.65-3.95-4.07-1.42-1.43-2.98-2.88-4.62-4.36-1.64-1.48-3.36-2.98-5.17-4.43-1.82-1.45-3.69-2.9-5.62-4.28-1.92-1.4-3.88-2.76-5.84-4.07-.98-.66-1.98-1.27-2.98-1.87-1-.59-2.04-1.1-3.04-1.62-1.05-.44-2.05-.93-3.08-1.3-1.04-.36-2.04-.73-3.05-1.01-1.01-.28-2-.53-2.96-.76-.98-.18-1.91-.36-2.81-.5-1.83-.23-3.5-.37-5-.33-1.48-.04-2.79,.15-3.84,.25-1.06,.14-1.88,.35-2.43,.47-.55,.14-.85,.21-.85,.21v.64s.29,.1,.82,.28c.53,.18,1.31,.39,2.27,.69,.48,.16,1.01,.34,1.58,.53,.58,.16,1.19,.38,1.84,.63,1.3,.44,2.74,1.03,4.29,1.62,.77,.34,1.57,.67,2.4,1.01,.82,.36,1.67,.73,2.54,1.12,1.73,.8,3.56,1.64,5.44,2.51,1.91,.87,3.89,1.76,5.9,2.67,2.01,.95,4.03,1.97,5.99,3.13,1.97,1.14,3.89,2.36,5.77,3.59,1.87,1.25,3.71,2.49,5.46,3.75Z"/><path class="cls-1" d="M92.91,301.75c.45,.15,1.11,.31,1.92,.54,.4,.12,.85,.26,1.34,.41,.48,.12,1,.27,1.55,.47,.55,.2,1.13,.34,1.73,.55,.61,.21,1.24,.42,1.9,.62,1.3,.46,2.71,.96,4.2,1.49,1.48,.55,3.03,1.13,4.66,1.69,1.63,.55,3.34,1.09,5.09,1.66,1.74,.59,3.5,1.24,5.22,2.01,1.72,.76,3.42,1.59,5.08,2.43,1.66,.86,3.29,1.71,4.85,2.57,3.11,1.75,5.99,3.46,8.42,5.01,4.84,3.12,7.93,5.43,7.93,5.43l.43-.47s-.66-.72-1.85-1.94c-1.19-1.22-2.96-2.89-5.13-4.84-1.1-.97-2.29-2.01-3.59-3.08-1.28-1.09-2.7-2.16-4.16-3.27-1.47-1.1-3.01-2.22-4.63-3.28-1.62-1.07-3.28-2.13-5-3.12-1.7-1.01-3.43-2-5.16-2.96-.87-.46-1.74-.93-2.61-1.34-.88-.41-1.77-.77-2.65-1.12-1.78-.64-3.57-1.11-5.29-1.41-.87-.15-1.71-.28-2.53-.37-.83-.06-1.62-.15-2.39-.17-.77-.01-1.51,0-2.21,0-.7,.03-1.37,.09-1.99,.17-1.24,.1-2.32,.38-3.19,.56-.87,.22-1.54,.47-1.99,.63-.45,.16-.69,.27-.69,.27l.04,.64s.24,.08,.7,.22Z"/><polygon class="cls-2" points="281.67 300.9 284.27 314.14 294.43 305.27 304.6 296.39 291.83 292.03 279.07 287.66 281.67 300.9"/><polygon class="cls-2" points="452.59 120.14 446.45 107.34 438.43 119.06 430.42 130.77 444.58 131.85 458.73 132.93 452.59 120.14"/><polygon class="cls-2" points="794.07 298.06 783.05 307.01 796.31 312.08 809.57 317.15 807.33 303.13 805.08 289.11 794.07 298.06"/><polygon class="cls-2" points="92.19 168.17 105.45 173.24 103.21 159.22 100.97 145.2 89.95 154.15 78.93 163.1 92.19 168.17"/><polygon class="cls-2" points="1098.41 134.15 1096.17 120.14 1093.93 106.12 1082.91 115.07 1071.89 124.02 1085.15 129.09 1098.41 134.15"/><polygon class="cls-2" points="1017.67 318.76 1018.28 332.94 1018.89 347.12 1030.86 339.5 1042.84 331.88 1030.25 325.32 1017.67 318.76"/></g></svg>