<?xml version="1.0" encoding="UTF-8"?><svg id="_圖層_2" xmlns="http://www.w3.org/2000/svg" viewBox="0 0 229.46 304.08"><defs><style>.cls-1{fill:#fff;}</style></defs><g id="_圖層_3"><path class="cls-1" d="M225.46,302.25c-3.73,4.92-6.94-1.6-13.11-1.65s-6.18,1.9-12.35,1.85-6.16-1.99-12.33-2.04-6.18,1.9-12.35,1.85c-6.17-.05-6.16-1.99-12.32-2.04-6.17-.05-6.18,1.9-12.35,1.85s-6.16-1.99-12.32-2.04-6.18,1.9-12.35,1.85-6.16-1.99-12.33-2.04-6.18,1.9-12.35,1.85c-6.17-.05-6.15-1.99-12.32-2.04s-6.18,1.9-12.35,1.85-6.16-1.99-12.33-2.04-6.18,1.9-12.36,1.85-6.16-1.99-12.33-2.04-6.18,1.9-12.36,1.85-6.16-1.99-12.33-2.04c-6.17-.05-9.48,6.43-13.13,1.46-4.9-6.66,1.82-8.83,1.88-17.1,.06-8.27-1.88-8.28-1.82-16.55,.06-8.27,2.01-8.25,2.07-16.52s-1.88-8.28-1.82-16.55,2.01-8.25,2.07-16.52c.06-8.27-1.88-8.28-1.82-16.55,.06-8.27,2.01-8.25,2.07-16.52,.06-8.27-1.88-8.28-1.82-16.55,.06-8.27,2.01-8.25,2.07-16.52,.06-8.27-1.88-8.28-1.82-16.55s2.01-8.25,2.07-16.52-1.88-8.28-1.82-16.55,2.01-8.25,2.07-16.52-1.88-8.28-1.82-16.55,2.01-8.25,2.07-16.52-1.88-8.28-1.82-16.55c.06-8.27,2.01-8.25,2.07-16.52,.06-8.27-6.62-10.54-1.62-17.13,3.73-4.92,6.94,1.6,13.11,1.65s6.18-1.9,12.35-1.85,6.16,1.99,12.33,2.04,6.18-1.9,12.35-1.85,6.16,1.99,12.32,2.04,6.18-1.9,12.35-1.85,6.16,1.99,12.32,2.04,6.18-1.9,12.35-1.85,6.16,1.99,12.33,2.04,6.18-1.9,12.35-1.85,6.15,1.99,12.32,2.04,6.18-1.9,12.35-1.85c6.17,.05,6.16,1.99,12.33,2.04s6.18-1.9,12.36-1.85,6.16,1.99,12.33,2.04c6.17,.05,6.18-1.9,12.36-1.85s6.16,1.99,12.33,2.04,9.48-6.43,13.13-1.46c4.9,6.66-1.82,8.83-1.88,17.1-.06,8.27,1.88,8.28,1.82,16.55-.06,8.27-2.01,8.25-2.07,16.52s1.88,8.28,1.82,16.55-2.01,8.25-2.07,16.52,1.88,8.28,1.82,16.55c-.06,8.27-2.01,8.25-2.07,16.52-.06,8.27,1.88,8.28,1.82,16.55s-2.01,8.25-2.07,16.52,1.88,8.28,1.82,16.55c-.06,8.27-2.01,8.25-2.07,16.52s1.88,8.28,1.82,16.55c-.06,8.27-2.01,8.25-2.07,16.52-.06,8.27,1.88,8.28,1.82,16.55s-2.01,8.25-2.07,16.52,1.88,8.28,1.82,16.55-3.7,8.62-2.05,16.72c1.8,8.82,6.6,10.34,1.6,16.93Z"/></g></svg>