<?xml version="1.0" encoding="UTF-8"?><svg id="_圖層_2" xmlns="http://www.w3.org/2000/svg" viewBox="0 0 200 200"><defs><style>.cls-1{fill:none;}</style></defs><g id="_圖層_3"><g><rect class="cls-1" width="200" height="200"/><g id="iYVaAi.tif"><g><path d="M85.61,114.99c-2.86,0-5.31,.12-7.74-.03-3-.19-6.02-2.69-6.02-5.48,0-9.57-.68-19.29,.75-28.67,1.66-10.94,9.16-18.03,19.93-20.78,10.86-2.77,20.56,.08,27.93,8.54,6.15,7.07,8.29,15.55,5.93,25.67-3.5-3.57-6.6-6.75-9.71-9.92-2.27-2.3-4.53-4.61-6.83-6.88-4.4-4.35-9.67-5.65-15.37-3.4-5.7,2.25-8.74,6.75-8.8,12.97-.08,8.03-.04,16.06-.05,24.09,0,1.16,0,2.32,0,3.88Z"/><path d="M119.25,115.11c-1.13-.76-3.08-1.7-4.55-3.13-6.64-6.49-13.17-13.09-19.7-19.69-3.11-3.14-3.29-6.98-.59-9.93,2.77-3.03,6.9-3.24,10.14-.08,7.13,6.97,14.14,14.06,21.07,21.23,2.07,2.14,2.35,4.92,.98,7.63-1.3,2.57-3.55,3.78-7.35,3.98Zm-15.89-27.94c-1.75-1.24-2.72-2.44-3.74-2.48-.83-.03-2.49,1.45-2.39,2.05,.16,1.04,1.29,2.53,2.2,2.68,.91,.15,2.06-1.11,3.93-2.26Zm20.21,21.39c0-.38-.01-.76-.02-1.14-1.02-.62-2.13-1.83-3.04-1.7-.91,.13-2.11,1.54-2.25,2.52-.09,.64,1.48,2.12,2.32,2.13,.99,.01,1.99-1.16,2.99-1.81Z"/><path d="M109.91,126.41c3.29-.05,6.35,2.77,6.48,5.97,.14,3.51-2.88,6.52-6.53,6.49-3.44-.03-6.21-2.71-6.3-6.08-.08-3.41,2.81-6.32,6.34-6.37Zm.15,1.61c-2.78-.06-5.02,1.95-5.07,4.57-.05,2.59,2.16,4.72,4.94,4.77,2.68,.04,4.69-1.83,4.78-4.48,.1-2.84-1.76-4.8-4.65-4.86Z"/><path d="M89.95,138.44v-11.38c2.25-.33,4.83-.78,6.17,1.93,1.12,2.26-.52,3.61-2.65,4.55,.97,1.57,1.9,3.08,2.84,4.59-.26,.21-.53,.43-.79,.64-1.3-1.57-2.6-3.15-4.23-5.12-.09,1.91-.16,3.34-.22,4.77-.37,0-.74,.01-1.1,.02Zm1.36-6.52c.26,.29,.52,.57,.78,.86,.91-.83,2.49-1.59,2.59-2.5,.23-2.12-1.46-2.37-3.37-2.06v3.7Z"/><path d="M135.94,132.94c-.12,3.27-3.01,5.81-6.5,5.7-3.5-.11-6.19-2.79-6.12-6.12,.07-3.54,2.83-5.95,6.65-5.8,3.5,.14,6.09,2.85,5.97,6.23Zm-1.3-.23c.02-2.69-2.03-4.67-4.87-4.69-2.77-.02-4.98,1.99-5.03,4.59-.05,2.52,2.2,4.7,4.92,4.75,2.71,.05,4.95-2.04,4.97-4.65Z"/><path d="M149.47,138.23c-1.16-2.54-2.1-4.62-3.43-7.53-.87,3.03-1.5,5.23-2.13,7.42-.3-.09-.6-.18-.9-.27,.84-3.3,1.67-6.59,2.74-10.82,1.35,3.03,2.34,5.25,3.64,8.18,1.28-2.81,2.3-5.03,3.65-7.99,1.07,3.96,1.96,7.25,2.86,10.54-.31,.09-.63,.19-.94,.28-.62-2.07-1.24-4.14-2.18-7.26-1.24,2.77-2.16,4.84-3.32,7.45Z"/><path d="M59.35,126.87c.15,.9,.39,1.8,.44,2.71,.08,1.46,.02,2.93,.04,4.39,.02,1.9,.78,3.38,2.81,3.38,2.1,0,3.1-1.42,3.14-3.46,.04-2.29,0-4.59,0-7.49,2.07,2.69,1.92,9.97-.06,11.25-1.22,.79-3.22,1.2-4.54,.77-1.19-.38-2.54-2.04-2.74-3.3-.42-2.64-.13-5.39-.13-8.1,.34-.06,.69-.11,1.03-.17Z"/><path d="M76.63,133.54c-.12,1.94-.21,3.38-.3,4.83h-.78v-11.36c2.34-.27,5.03-.52,5.88,2.17,.4,1.27-1.09,3.14-1.73,4.73-.28-.07-.56-.14-.83-.21,.93,1.45,1.87,2.91,2.8,4.36-.23,.21-.46,.41-.69,.62-1.34-1.58-2.67-3.16-4.35-5.14Zm.74-5.96l-.78,.89v3.81c1.87,.1,3.76,.03,3.64-2.16-.05-.9-1.86-1.7-2.86-2.54Z"/><path d="M44.29,138.28v-11.41c1.39,.1,2.93-.13,4.14,.41,.98,.43,2,1.72,2.15,2.75,.13,.85-.86,2.6-1.57,2.72-2.95,.49-3.79,2.13-3.52,4.82,.03,.27-.39,.58-.6,.87-.2-.05-.4-.1-.6-.16Zm1.18-5.22c1.61-.87,2.75-1.27,3.58-2.03,.31-.28,.12-1.73-.28-2.01-.88-.6-2.04-.79-3.3-1.22v5.25Z"/></g></g></g></g></svg>