<svg width="500" height="500" viewBox="0 0 500 500" fill="none" xmlns="http://www.w3.org/2000/svg">
<path d="M122.979 290.184C130.848 290.184 137.218 286.686 137.218 275.82V268.075C135.095 272.947 128.6 278.068 119.481 278.068C109.739 278.193 95 272.697 95 250.714C95 233.976 105.367 223.484 119.606 223.484C128.724 223.609 134.97 228.855 137.468 233.726V224.858H151.207V274.071C151.207 291.558 140.091 299.801 122.979 299.801C106.117 299.926 97.7479 292.182 96.2491 282.939H110.238C111.737 287.561 115.36 290.184 122.979 290.184ZM123.229 267.951C132.347 267.951 137.718 261.206 137.718 250.589V249.589C137.718 239.347 131.098 233.602 123.229 233.602C114.36 233.602 108.989 240.346 108.989 250.839C108.989 256.085 110.238 260.331 112.737 263.454C115.484 266.452 119.232 268.2 123.229 267.951Z" fill="black"/>
<path d="M180.06 204.498H165.196V217.988H180.06V204.498Z" fill="black"/>
<path d="M179.811 224.858H165.696V279.567H179.811V224.858Z" fill="black"/>
<path d="M201.045 279.567V234.726H193.301V224.858H201.045V217.114C201.045 205.872 207.79 199.877 219.281 200.002C221.03 200.002 222.279 200.002 223.528 200.127C224.777 200.127 226.151 200.377 227.275 200.626V210.994C226.401 210.869 225.526 210.744 224.652 210.744C223.778 210.744 222.903 210.619 221.904 210.619C219.656 210.619 217.782 211.243 216.658 212.368C215.409 213.866 214.785 215.74 214.909 217.614V224.733H226.151V234.601H214.909V279.317L201.045 279.567Z" fill="black"/>
<path d="M262.748 269.199C265.246 269.199 267.744 268.825 270.117 268.075V278.692C266.495 279.816 262.873 280.441 259.001 280.316C247.259 280.316 241.639 275.32 241.639 264.578V234.726H233.895V224.858H241.639V211.243H255.628V224.983H268.868V234.851H255.503V262.455C255.628 267.95 258.626 269.199 262.748 269.199Z" fill="black"/>
<path d="M316.707 262.455H329.697C327.449 274.071 318.456 280.691 304.591 280.691C295.473 280.691 289.103 278.068 284.231 272.947C279.485 268.075 276.487 261.206 276.487 252.212C276.487 234.851 288.104 223.484 304.341 223.484C315.208 223.484 323.577 228.98 327.324 237.349C329.572 242.345 330.446 248.091 330.197 255.46H289.977C289.977 260.581 290.851 262.58 292.85 265.452C294.599 268.2 298.97 270.449 304.591 270.449C307.339 270.574 310.212 269.824 312.585 268.325C314.583 266.951 316.082 264.828 316.707 262.455ZM303.966 233.726C296.722 233.726 290.976 238.098 290.477 246.467H316.707C316.582 238.848 311.586 233.726 303.966 233.726Z" fill="black"/>
<path d="M376.662 262.455H389.652C387.404 274.071 378.411 280.691 364.546 280.691C355.428 280.691 349.058 278.068 344.187 272.947C339.44 268.075 336.442 261.206 336.442 252.212C336.442 234.851 348.059 223.484 364.296 223.484C375.163 223.484 383.532 228.98 387.279 237.349C389.527 242.345 390.402 248.091 390.152 255.46H349.932C349.932 260.581 350.807 262.58 352.68 265.452C354.429 268.2 358.8 270.449 364.421 270.449C367.169 270.574 370.042 269.824 372.415 268.325C374.539 266.951 376.037 264.828 376.662 262.455ZM363.922 233.726C356.677 233.726 350.931 238.098 350.432 246.467H376.662C376.537 238.848 371.541 233.726 363.922 233.726Z" fill="black"/>
<path d="M424.001 218.238C421.003 219.237 413.009 221.86 411.01 222.36C411.76 218.113 412.384 213.991 412.759 209.62C410.511 208.745 407.888 208.745 405.515 209.62C405.764 213.866 406.389 218.113 407.263 222.36C405.265 221.86 397.396 219.237 394.273 218.238C393.524 220.112 393.399 222.235 393.524 224.234C397.646 225.483 401.767 226.357 406.139 226.732C402.392 229.48 398.895 232.602 395.897 236.224C397.646 237.474 400.643 239.472 403.016 240.971C404.765 237.099 406.764 233.352 409.262 229.729C411.635 233.352 413.758 236.974 415.507 240.971C417.755 239.472 420.878 237.474 422.627 236.224C419.629 232.602 416.132 229.48 412.384 226.732C416.631 226.232 420.878 225.483 425 224.234C424.875 222.984 424.625 219.237 424.001 218.238Z" fill="black"/>
</svg>
