<?xml version="1.0" encoding="UTF-8"?><svg id="_圖層_2" xmlns="http://www.w3.org/2000/svg" viewBox="0 0 200 200"><defs><style>.cls-1{fill:none;}</style></defs><g id="_圖層_3"><g><rect class="cls-1" width="200" height="200"/><g id="VXrI6a"><g><path d="M112.72,78v12.56c1.75-.79,3.35-1.81,5.1-2.26,5.17-1.33,9.73-.07,13.53,3.75,5.14,5.15,10.25,10.33,15.44,15.43,4.62,4.53,12.06,3.07,14.44-2.75,1.57-3.83,.26-8.22-3.17-10.59-3.38-2.33-7.83-2.08-10.86,.74-1.71,1.6-3.27,3.36-4.97,5.12-1.23-1.25-2.33-2.36-3.47-3.52,1.82-1.81,3.53-3.66,5.41-5.34,4.18-3.74,10.53-4.39,15.43-1.7,4.98,2.73,7.85,8.46,6.97,13.89-.93,5.79-5.13,10.2-10.79,11.36-.27,.06-.52,.21-.78,.31h-3.52c-4.27-.71-7.41-3.2-10.28-6.26-3.13-3.33-6.45-6.5-9.69-9.73-1.45-1.45-2.85-2.97-4.4-4.31-3.03-2.65-7.29-2.84-10.59-.6-3.28,2.23-4.66,6.32-3.41,10.08,2.01,6.03,9.64,7.96,14.34,3.58,1.7-1.58,3.24-3.33,4.56-4.7,1.42,1.21,2.56,2.18,3.7,3.16-3.57,3.86-6.95,7.81-12.42,8.79h-3.52c-1-.29-2.02-.53-3-.88-5.51-2.01-8.95-7.19-8.94-13.23,.02-7.63-.02-15.25-.04-22.88h4.93Z"/><path d="M14.4,99.5c.66-.16,1.31-.45,1.97-.46,5.99-.04,11.98-.02,17.97-.02,.62,0,1.25-.05,1.89-.08-.79-4.57-6.23-7.53-10.86-5.87-1.43,.51-2.87,1.45-3.87,2.59-.93,1.06-1.78,1.5-3.11,1.37-.98-.09-1.97-.02-2.98-.02,1.11-5.79,8.56-10.26,14.89-9.05,7.54,1.44,12.34,8.2,11.05,15.76H19.79c.77,5.18,8.34,9,13.92,4.36,.8-.66,1.36-1.93,2.21-2.13,1.5-.35,3.14-.1,4.96-.1-1.88,4.78-5.17,7.66-10.01,8.83-.33,.08-.64,.22-.96,.33h-3.52c-2.17-.92-4.51-1.58-6.47-2.82-3.28-2.07-4.71-5.48-5.51-9.16v-3.52Z"/><path d="M88.4,115c-2.25-1.05-4.74-1.76-6.69-3.2-4.74-3.51-6.23-10.12-3.93-15.67,2.32-5.58,7.9-8.85,14.13-8.26,5.66,.53,10.63,5.07,11.66,10.82,.3,1.66,.31,3.37,.33,5.07,.04,3.75,.01,7.5,0,11.25h-4.93v-2.58c-2.4,.88-4.72,1.73-7.05,2.58h-3.52Zm1.72-4.87c4.93,.09,8.89-3.74,8.96-8.66,.06-4.79-3.78-8.78-8.59-8.91-4.76-.14-8.9,3.88-9,8.73-.09,4.75,3.82,8.76,8.64,8.85Z"/><path d="M67.97,115c0-4.46,.02-8.92-.01-13.38-.03-5.11-3.88-9.08-8.79-9.08-4.88,0-8.77,3.99-8.8,9.08-.03,4.46-.02,8.92-.03,13.38h-4.58c0-5.33-.39-10.69,.11-15.97,.63-6.67,6.93-11.39,14-11.19,6.45,.18,12.22,5.42,12.7,11.88,.31,4.2,.15,8.44,.21,12.66,.01,.88,.08,1.75,.12,2.63h-4.93Z"/><path d="M182.49,115c-1.63-.59-3.39-.97-4.88-1.81-4.75-2.69-6.96-6.92-6.97-12.34,0-6.98,0-13.95,0-20.93,0-.64-.08-1.28-.13-1.92,1.64,0,3.29,0,4.93,0v9.87h8.81v4.58h-8.8c0,3.26-.04,6.18,0,9.1,.08,4.84,3.93,8.55,8.79,8.52v4.93h-1.76Z"/></g></g></g></g></svg>