<?xml version="1.0" encoding="utf-8"?>
<!-- Generator: Adobe Illustrator 25.4.1, SVG Export Plug-In . SVG Version: 6.00 Build 0)  -->
<svg version="1.1" id="レイヤー_1" xmlns="http://www.w3.org/2000/svg" xmlns:xlink="http://www.w3.org/1999/xlink" x="0px"
	 y="0px" viewBox="0 0 500 500" style="enable-background:new 0 0 500 500;" xml:space="preserve">
<style type="text/css">
	.st0{clip-path:url(#SVGID_00000152261003022829054020000007850202187961046958_);}
</style>
<g>
	<g>
		<defs>
			<rect id="SVGID_1_" x="178.8" y="175" width="142.9" height="150"/>
		</defs>
		<clipPath id="SVGID_00000167363640387279885860000000508684993239335864_">
			<use xlink:href="#SVGID_1_"  style="overflow:visible;"/>
		</clipPath>
		<g style="clip-path:url(#SVGID_00000167363640387279885860000000508684993239335864_);">
			<path d="M320.6,325H194.2c-2.7,0-5-0.5-6.8-1.9c-1.6-1.2-2.8-2.9-3.2-4.9c-0.7-3.6-1-7.2-1.2-10.9c-0.3-6.1-0.6-13.1-0.5-15.6
				c0.1-2.5,0.7-5.3,2.9-7.5c1.7-1.6,3.5-2.4,7.2-2.4h127.9v4c-7.1,0.9-10.7,8.7-10.7,17.6s3.6,16.7,10.7,17.6V325z"/>
			<path d="M319.6,272.6c-0.7,0.4-1.4,0.6-2.2,0.5H188.9c-2.5,0-5.2-0.8-6.7-2.2c-1.3-1.2-2.1-3.8-2.4-5.8
				c-0.6-3.4-0.6-9.1-0.9-14.5c-0.2-4,0-9.6,0-11.5c0-2,0.5-5.1,2.2-6.8c1.4-1.4,4-2.2,6.7-2.2c8.9-0.6,114.7-2.7,129.8-3.1
				c0.7-0.1,1.5,0.1,2.2,0.5c0.5,0.4,0.6,1.4,0.6,2c0,1.9-0.1,3.1-0.2,4.5c-0.4,3.1-1,6.2-2.2,9.1c-1,2.5-3.6,6-5.8,7.1
				c2.2,1.1,4.8,4.6,5.8,7.1c1.1,2.9,1.9,5.9,2.2,9.1c0.2,1.5,0.3,3,0.2,4.6C320.1,271.4,320,272.2,319.6,272.6z"/>
			<path d="M316.5,217.8c-12,0.4-105.6,2.4-126.8,2.9c-1.9,0.1-3.8-0.3-5.3-1.2c-0.8-0.6-1.6-1.4-2.1-2.2c-0.5-0.9-0.8-1.9-0.8-2.9
				c-0.3-4.5,0.2-10,0.7-16.5c0.3-4.3,1-9.6,1.6-13.3c0.3-2.7,1.6-5.2,3.7-6.9c2-1.5,4-2.4,8.3-2.4h125.9c-0.1,0.8-0.5,4-0.5,4h-3.2
				c0,0-5.7,25-8,35c1.2-0.2,5.7-0.7,6.9-0.7C316.9,214.5,316.7,216.3,316.5,217.8z"/>
		</g>
	</g>
</g>
</svg>
