<?xml version="1.0" encoding="UTF-8"?><svg id="_圖層_2" xmlns="http://www.w3.org/2000/svg" viewBox="0 0 200 200"><defs><style>.cls-1{fill:none;}</style></defs><g id="_圖層_3"><g><rect class="cls-1" width="200" height="200"/><g id="kWPxRQ"><g><path d="M47.46,74.46v10.29H28.03v7.93h16.96v10.28H28.09v8.06h19.37v10.26H15.35v-46.82H47.46Z"/><path d="M126.82,121.28c-.16-.1-.32-.27-.49-.3-6.22-1.07-9.68-4.94-11.05-10.9-1.05-4.57-1.08-9.16-.05-13.73,1.55-6.9,5.44-10.8,12.5-11.55,4.41-.47,8.99-.47,13.38,.13,7,.95,11.39,5.69,11.83,12.81,.49,7.83,.34,15.69,.46,23.55h-12.7c-.01-7.18,.06-14.37-.08-21.55-.05-2.58-1.42-4.23-3.72-4.43-3.05-.26-6.43-1.25-8.76,1.87-.52,.7-.77,1.7-.86,2.59-.16,1.63-.24,3.3-.14,4.93,.32,5.21,1.59,6.36,6.86,6.4,1.82,.01,3.63,0,5.45,0,.09,.17,.17,.34,.26,.51-2.85,3.22-5.69,6.44-8.54,9.66h-4.36Z"/><path d="M65.71,121.28c-4.28-1.22-7.93-3.3-9.65-7.67-2.76-7.06-2.82-14.2,.08-21.2,2.02-4.87,6.12-7.29,11.2-7.53,6.06-.29,12.14-.07,18.35-.07v10.28c-4.35,0-8.63,0-12.9,0-4.16,0-5.54,1.06-5.96,5.16-.23,2.27-.12,4.62,.16,6.89,.29,2.43,1.8,3.75,4.29,3.84,3.96,.14,7.93,.09,11.89,.11,.78,0,1.56,0,2.77,0v10.18h-20.24Z"/><path d="M174.04,121.28c-.69-.18-1.39-.36-2.08-.55-6.07-1.64-10.36-6.45-10.53-13.04-.3-11.07-.08-22.15-.08-33.23h12.3v10.37h10.23v10.36h-9.88c0,3.72-.26,7.23,.07,10.68,.36,3.66,2.27,5.06,5.98,5.23,1.57,.07,3.14,.18,4.71,.27v9.92h-10.71Z"/><path d="M106.58,74.46v46.82h-12.3c-.04-.65-.12-1.31-.12-1.96,0-14.3,0-28.6,0-42.89,0-.65,.08-1.31,.12-1.96h12.3Z"/></g></g></g></g></svg>