<?xml version="1.0" encoding="utf-8"?>
<!-- Generator: Adobe Illustrator 24.0.1, SVG Export Plug-In . SVG Version: 6.00 Build 0)  -->
<svg version="1.1" id="レイヤー_1" xmlns="http://www.w3.org/2000/svg" xmlns:xlink="http://www.w3.org/1999/xlink" x="0px"
	 y="0px" viewBox="0 0 500 500" style="enable-background:new 0 0 500 500;" xml:space="preserve">
<style type="text/css">
	.st0{fill-rule:evenodd;clip-rule:evenodd;}
</style>
<g>
	<path d="M344.2,253.1c0-49.7-40.5-90.1-90.1-90.1c-9.9,0-19.4,1.6-28.3,4.6c-28.6,7.3-51.9,28.5-62,55.9c-5.2,11.4-8.2,24-8.2,37.4
		c0,10.8,1.5,19.4,4.7,28.9c0,0.1,0.1,0.2,0.2,0.3c0.3,0.2,1,0.1,1.8-0.1c-0.1-0.2-0.2-0.4-0.2-0.8c-3-8.9-4.7-18.5-4.7-28.4
		c0-4.5,0.3-8.9,1-13.2c-0.2,2.3-0.2,4.6-0.2,6.9c0,12.1,2.4,23.6,6.7,34c0.1,0.3,0.2,0.7,0.4,0.9c0.5-0.1,1-0.2,1.5-0.3
		c0.5-0.1,1-0.2,1.4-0.3c-0.1-0.3-0.2-0.7-0.4-0.9c-4.3-10.3-6.6-21.5-6.6-33.4c0-15.7,4.2-30.4,11.5-43.2c2.1-2.9,4.2-5.8,6.5-8.5
		c-9.7,14.4-15.3,31.6-15.3,50.2c0,0.9,0,1.7,0,2.5c-0.1,1.6-0.1,3.2-0.1,4.8c0,9.6,1.5,18.7,4.2,27.4c0.1,0.3,0.2,0.7,0.3,1
		c0.7-0.2,1.2-0.3,1.7-0.5c-0.1-0.3-0.2-0.5-0.2-0.9c-1-3-1.7-6.1-2.4-9.2c0.9,3,2,6.1,3.2,9c0.1,0.2,0.2,0.5,0.3,0.8
		c0.4-0.2,0.9-0.3,1.2-0.5c0.2-0.1,0.4-0.4,0.3-0.8c-4-9.7-6.3-20.1-6.6-31.1c2.3-43.6,36.6-78.9,79.9-83
		c48.6,0,88.2,39.6,88.2,88.3c0,2.4-0.1,4.7-0.3,7c-1.1,6.7-2.8,13.2-5.3,19.2v0.1c-0.1,0.3,0,0.7,0.3,0.8c0.8,0.3,1.7,0.5,2.7,0.9
		c0.1-0.3,0.2-0.7,0.3-1c0.5-1.6,1-3.4,1.4-5c2.9-8.9,4.6-18.5,4.6-28.4c0-17.5-5-33.9-13.8-47.7c11,14.2,17.6,32,18.2,51.1
		c-0.5,10.9-3.2,21.2-7.3,30.7c-0.1,0.3-0.3,0.7-0.4,0.9c0.7,0.1,1.3,0.2,1.8,0.3c0.1-0.2,0.2-0.5,0.3-0.8c1.2-2.8,2.3-5.7,3.3-8.6
		c-0.7,3-1.5,5.9-2.5,8.8c-0.1,0.2-0.2,0.5-0.2,0.8c0.5,0.1,1.1,0.1,1.5,0.1c0.2,0,0.4-0.1,0.5-0.4c3.2-9.1,4.8-18.9,4.8-29.1
		c0-0.9,0-1.7,0-2.5C344.2,256.4,344.2,254.7,344.2,253.1z M168.2,233.2c3.5-15.5,11.2-29.5,21.7-40.7c10.3-8.4,22.5-14.6,35.9-17.7
		C198.4,183.9,176.9,205.7,168.2,233.2z M245.8,170.7c-16.3,0-31.6,4.3-44.9,12c3.5-2.6,7.1-5,10.9-7.1c11.1-5,23.4-7.8,36.3-7.8
		c12.6,0,24.6,2.7,35.3,7.5c-9.2-3.2-19.1-4.9-29.4-4.9C251.3,170.3,248.5,170.5,245.8,170.7z M333.9,241.6
		c-7.4-33.9-33.9-60.7-67.6-68.5c12.6,1.7,24.2,6.1,34.6,12.6C318.2,199,330.5,218.8,333.9,241.6z M311.6,191.1
		c-15.2-15.3-36-25.1-58.9-26.3c0.4,0,1,0,1.4,0c42.6,0,78.2,30.3,86.4,70.5C335.5,217.9,325.3,202.5,311.6,191.1z"/>
	<path class="st0" d="M330.7,317.1c-5.4,0.7-11.7,0.3-15.5,0.2c0.9,0,0.7-0.1,0-0.2c-5.3-0.8-11.1,0.8-12.6-0.2
		c-2.6,0.5-4.9-0.1-8.8,0.7c0.2-0.7-1.8-0.5-2.9-0.7c-14.1-0.5-27.7,0.5-37,0.7c0-0.3,1.7-0.2,2-0.4c-46.2,0.2-87.5-0.1-132.4,0.7
		c-2.3,0.5-1.6,1.2-2,2.5c1.7,0.2,3.3,0.5,4.9,0.9c29.4,0.1,59.8-0.4,86.7-0.2c7.1,0.1,14.7-0.3,22.4-0.4
		c38.6-0.2,96.6,0.5,142.1-0.2c0.9-0.5,1.3-1.1,1-1.8C363.2,317.2,343.2,318.2,330.7,317.1z"/>
	<path class="st0" d="M193.4,333c3.8,0.7,8.3,0.3,10.9,0.2c-0.5,0-0.4-0.1,0-0.2c3.7-0.8,7.7,0.8,8.9-0.2c1.8,0.5,3.4-0.1,6.1,0.7
		c-0.1-0.7,1.3-0.5,2.1-0.7c9.9-0.5,19.4,0.5,25.9,0.7c0-0.3-1.2-0.2-1.4-0.4c32.3,0.2,61.2-0.1,92.6,0.7c1.5,0.5,1.1,1.2,1.4,2.5
		c-1.3,0.2-2.3,0.5-3.4,0.9c-20.6,0.1-41.9-0.4-60.7-0.2c-5,0.1-10.2-0.3-15.7-0.4c-27-0.2-67.5,0.5-99.5-0.2
		c-0.5-0.5-0.9-1.1-0.7-1.8C170.7,333,184.7,334.1,193.4,333z"/>
	<path class="st0" d="M398.4,303.9c-16.9-0.7-40.2-0.2-53.5-0.9c-2.4,0.3-13.5,0.1-17.1,0.2c0-0.3,2.3-0.1,2.4-0.4
		c-3.6,0.7-6-0.5-12.2,0c3.8,0-2.1,0.5-4,0.4c0.1-0.3,2.1-0.1,1.6-0.7c-4.3,0.5-8.7-0.1-12.2,0.9c1.3-0.8-2.1-0.4-2.4-0.9
		c-9.2,0.5-31.5-0.3-43.8,0.9c1.4-0.7,2.4-0.4,0-0.7c-5.4-0.4-17.2,0.2-24.4,0.2c-22.7,0.1-55.5,0.2-83.5,0.2
		c-18.3,0-38.2-0.9-48.6,0.9c-0.1,0.3,0.3,0.8-0.8,0.9v0.7c2.9,0.9,4.3,1.4,9.7,1.4c17.2,0,44.4-0.4,63.3-0.7
		c61-0.5,135.9,0,204.3,0c7.5,0,17.2,0.7,22.7-1v-0.7C398.9,304.5,398.5,304.2,398.4,303.9z"/>
</g>
</svg>
