<svg width="500" height="500" viewBox="0 0 500 500" fill="none" xmlns="http://www.w3.org/2000/svg"><path d="M424.836 263.713c-10.307 9.172-16.387 10.512-21.025 8.863-3.813-1.34-3.813-5.05-2.989-8.142.412-1.443 3.504-13.913 3.504-13.913 1.34-5.05 1.958-8.864 1.546-11.337-.721-3.711-3.71-4.844-6.493-4.844-5.462 0-11.543 2.989-17.83 7.317.722-3.71-1.133-7.111-6.183-7.523-2.474-.206-5.566.515-8.451 2.267-4.329 2.577-15.46 12.161-26.797 21.128-11.13 8.76-23.086 16.078-29.166 15.975-2.886 0-7.009-1.546-4.741-10.204.412-1.546 4.328-17.623 4.432-17.933.515-2.473 1.03-5.153 0-7.317-1.031-2.37-3.711-3.916-6.906-4.225-1.236-.104-4.225 0-7.729 2.061-4.329 2.576-15.666 12.367-27.003 21.334-11.13 8.76-22.88 16.18-28.96 16.18-2.886 0-7.008-1.545-4.741-10.203.412-1.546 4.329-17.623 4.432-17.933.515-2.473 1.03-5.153 0-7.317-1.031-2.37-3.711-3.916-6.906-4.226-1.236-.103-3.298.104-5.977 1.134-11.749 4.535-29.682 23.292-42.668 33.083-3.195 2.371-8.142 5.153-13.295 5.153-1.443 0-2.68-.309-3.71-.824-2.68-1.443-4.226-5.256-3.917-11.028 6.596 0 12.986-1.958 18.139-5.565 5.256-3.711 7.936-8.245 7.936-13.501 0-3.711-2.473-9.173-8.554-9.173-6.596 0-12.883 3.401-18.551 9.997-4.741 5.359-8.039 12.161-8.555 19.067l-.103.103c-11.44 10.718-19.788 11.44-24.116 10.203-3.814-1.031-3.814-5.05-2.989-8.142.412-1.443 3.504-13.914 3.504-13.914 1.34-5.05 1.958-8.863 1.546-11.336-.721-3.711-3.71-4.844-6.493-4.844-5.462 0-11.543 2.988-17.83 7.317.722-3.71-1.133-7.523-6.183-7.523-5.9781 0-15.2537 3.607-24.014 12.47l2.6796 5.153c2.9888-4.019 6.9052-8.76 12.4706-11.337 5.6684-2.679 7.0082-1.546 5.3592 5.05l-6.596 26.281c-.4122 1.34-1.649 2.165-2.7827 2.165h-2.3704l-1.0306 3.092h18.7573l1.031-3.092h-3.092c-.516 0-.825-.103-1.134-.413-.3091-.309-.4121-.824-.3091-1.442l5.9781-24.117c5.256-4.123 13.604-9.585 16.49-8.657 1.442.515 1.133 3.298.309 6.183l-4.638 18.139c-2.164 8.761 4.019 13.811 10.925 14.12 5.668.206 14.531-2.061 24.631-10.822.825 6.906 4.947 12.059 14.635 12.059 7.833 0 14.429-4.02 20.304-8.658 8.863-6.905 26.177-24.425 36.896-29.991 2.061-1.133 3.916-1.752 5.05-1.236 2.164 1.03.309 6.699-.103 8.554l-4.019 15.768c-1.031 4.226-.722 7.421 1.855 10.513 2.473 3.092 6.596 4.225 10.409 4.225 8.245 0 19.788-8.863 31.331-17.623 10.306-7.833 21.952-16.594 27.208-20.201 2.165-1.443 3.505-2.164 4.535-1.546 1.752.928 0 7.009-.515 8.864l-3.813 15.768c-1.031 4.226-.722 7.421 1.855 10.513 2.473 3.092 6.596 4.225 10.409 4.225 8.245 0 19.891-8.76 31.537-17.417 10.306-7.833 26.59-22.056 30.816-22.056 1.649.103 1.236 2.371 0 7.009l-7.833 31.434h9.069l7.215-29.064c5.256-4.123 13.604-9.585 16.49-8.657 1.443.515 1.134 3.298.309 6.183l-4.638 18.139c-2.164 8.761 3.814 13.811 10.719 14.12 6.802.309 13.81-3.298 23.601-12.161-.206.309-2.164-1.752-2.164-1.752zm-256.729-19.17c2.783-3.916 5.875-5.978 8.554-5.978 2.989 0 3.608 3.092 3.608 5.36 0 3.813-1.546 7.008-4.638 9.378-2.989 2.371-7.215 3.814-12.471 4.329.619-4.844 2.268-9.276 4.947-13.089z" fill="#000"/></svg>