<?xml version="1.0" encoding="UTF-8"?><svg id="_圖層_2" xmlns="http://www.w3.org/2000/svg" viewBox="0 0 200 200"><defs><style>.cls-1{fill:none;}</style></defs><g id="_圖層_3"><g><rect class="cls-1" width="200" height="200"/><g id="t2Jkdx.tif"><g><path d="M67.25,89.04c-3.43,1.26-6.79,2.5-10.2,3.76-.15-.23-.29-.43-.41-.64-3.2-5.83-9.84-9.12-16.12-8-6.97,1.24-12.07,6.39-13.09,13.23-.02,.13-.05,.26-.04,.38,.25,1.79-.62,2.75-2.18,3.56-2.73,1.42-5.33,3.08-8,4.65-3.14-10.97,2.02-25.89,16.4-31.26,13.93-5.21,28.46,2.01,33.66,14.33Z"/><path d="M40.73,109.94c-.32,.84-.81,1.67-.92,2.53-.21,1.63-1.34,2.78-1.98,4.17-.58,1.28-1.21,2.52-1.09,3.98,.02,.2-.09,.43-.21,.62-.67,1.11-1.35,2.21-2.15,3.51-1.34-.61-2.89-1.31-4.42-2.06-.16-.08-.3-.42-.27-.61,.24-1.61,.51-3.22,2.07-4.2,.26-.16,.5-.41,.66-.68,1.29-2.07,2.56-4.14,3.84-6.22,.13-.21,.21-.44,.32-.67-.07-.05-.14-.1-.21-.15-.52,.77-1.01,1.57-1.57,2.31-.46,.62-.99,1.19-1.5,1.77-.62,.7-1.32,1.33-1.86,2.09-1.17,1.65-2.26,3.37-3.49,5.21-1.28-1.04-2.52-2.05-3.99-3.24,1.04-.88,1.96-1.62,2.82-2.42,.52-.48,.95-1.05,1.43-1.58,.21-.23,.42-.46,.63-.7,1.01-1.15,2.01-2.29,3.01-3.44-.11-.1-.22-.21-.34-.31-1.17,1.2-2.78,1.89-3.66,3.44-.21,.37-.61,.77-1,.89-.79,.24-1.32,.67-1.78,1.33-.48,.69-1.08,1.3-1.75,2.09-.89-1.16-1.71-2.16-2.44-3.23-.14-.2-.07-.73,.11-.93,.74-.82,1.54-1.57,2.34-2.34,.4-.39,.83-.75,1.42-1.29-.48-.07-.71-.13-.93-.13-1.34,0-2.68,0-4.01,0q-1.65,0-2.07-1.69h50.21c-.19,1.58-.31,1.69-1.89,1.69-1.27,0-2.53,0-3.8,0-.04,.08-.07,.17-.11,.25,1.28,.85,2.56,1.71,3.94,2.63-.69,1.02-1.28,1.96-1.95,2.84-.13,.17-.65,.28-.83,.16-1.06-.68-2.14-1.35-3.1-2.17-1.3-1.11-2.48-2.36-3.76-3.5-.24-.21-.68-.18-1.24-.31,.42,1.01,.59,1.88,1.6,2.21,.31,.1,.64,.37,.8,.65,1.02,1.82,2.82,2.69,4.49,3.74,.29,.18,.59,.37,1.04,.65-1.34,1.27-2.61,2.49-4.09,3.89-.84-.97-1.76-1.74-2.32-2.72-.99-1.7-1.95-3.35-3.46-4.7-.84-.75-1.37-1.88-1.94-2.89-.41-.73-.34-.77-1.38-.64-.05,1.18,.33,2.17,1.16,3.06,.49,.53,.79,1.23,1.19,1.85,.42,.66,.84,1.31,1.28,1.95,.18,.26,.53,.45,.59,.72,.41,1.77,1.64,2.97,2.81,4.23,.06,.07,.08,.16,.16,.32-2.37,1.52-4.91,2.61-7.71,3.31-.09-.65-.22-1.24-.25-1.84-.14-2.8-1.38-5.29-2.22-7.9-.47-1.48-.92-2.97-1.37-4.45-.06-.2-.12-.41-.24-.6-.6,5.14-.14,10.24,.74,15.54-1.96,0-3.64,.04-5.31-.02-.89-.03-1.76-.25-2.65-.33-.68-.06-.9-.4-.77-1,.15-.68,.29-1.36,.53-2.01,.64-1.73,1.16-3.47,1.25-5.35,.05-.94,.64-1.84,.91-2.77,.39-1.33,.73-2.68,1.08-4.03,.03-.13-.04-.29-.06-.44l-.33-.11Z"/><path d="M51.39,96.14c1.75,1.23,3.53,2.41,5.22,3.69,.73,.55,1.29,.58,2.04,.11,.86-.54,1.77-1,2.7-1.42,.28-.13,.75-.11,1,.04,2.12,1.34,4.22,2.72,6.3,4.14,.25,.17,.46,.66,.42,.96-.17,1.06-.14,2.42-.79,3.05-.54,.52-1.92,.19-2.93,.22-.92,.02-1.84,0-2.88,0v-3.61h-13.89c-.05,.6-.1,1.18-.16,1.96-.93-.28-1.78-.54-2.78-.85v-4.16c-1.01,0-1.92-.04-2.82,.03-.19,.02-.47,.46-.48,.72-.05,1.24-.05,2.48-.02,3.72,.01,.58-.22,.8-.79,.78-.51-.02-1.01,0-.92-.72,.1-.82-.34-.93-1.03-.92-2.42,.03-4.84,.04-7.26,0-.78-.02-1.01,.26-.95,.99,.05,.69,.01,1.39,.01,2.17h-13.56c.23-.17,.4-.32,.59-.43,6.38-3.76,12.77-7.51,19.14-11.28,.5-.3,.9-.3,1.4-.05,2.32,1.12,4.66,2.19,6.97,3.32,.54,.26,.97,.27,1.5-.07,1.28-.82,2.61-1.57,3.96-2.37Z"/><path d="M127.8,93.79v-9.44h3.32v14.21c-1.59,0-3.2,.03-4.81-.03-.22,0-.48-.45-.63-.74-1.43-2.73-2.84-5.46-4.26-8.19-.14-.27-.31-.53-.59-.98v9.9h-3.3v-14.22c1.57,0,3.15-.03,4.73,.03,.24,0,.53,.39,.68,.67,1.57,2.94,3.11,5.89,4.65,8.84,.07-.01,.14-.02,.2-.03Z"/><path d="M134.35,98.67v-14.5c2.54,.12,5.07,.03,7.52,.42,2.47,.4,4.12,2.1,4.42,4.63,.19,1.57,.13,3.25-.22,4.79-.56,2.41-2.33,3.93-4.74,4.29-2.27,.34-4.61,.26-6.99,.37Zm3.94-3.34c2.72,.31,4.07-.81,4.22-3.43,.02-.44,.03-.89,0-1.33-.18-2.45-1.67-3.57-4.22-3.13v7.89Z"/><path d="M87.49,84.31h3.73v5.19h4.63v-5.15h3.76v14.16h-3.73v-5.73h-4.63v5.73h-3.76v-14.19Z"/><path d="M180.17,92.44c1.32,1.97,2.65,3.97,4.1,6.13-1.48,0-2.77,.03-4.06-.03-.23,0-.5-.32-.65-.56-.78-1.27-1.52-2.57-2.27-3.86-.26-.45-.54-.99-1.13-.7-.23,.11-.32,.67-.33,1.03-.04,1.33-.02,2.66-.02,4.05h-3.75v-14.03c2.32,0,4.64-.12,6.94,.04,1.65,.12,3,1.01,3.39,2.75,.42,1.88,0,3.53-1.68,4.7-.16,.11-.3,.23-.45,.35-.02,.02-.03,.05-.08,.13Zm-4.3-2.06c.96,.1,1.95,.25,2.43-.69,.26-.5,.3-1.38,.02-1.84-.51-.85-1.5-.77-2.45-.67v3.2Z"/><path d="M105.5,98.54h-4.17c.3-.93,.56-1.79,.84-2.65,1.19-3.65,2.4-7.29,3.56-10.95,.19-.59,.43-.82,1.06-.79,1.24,.05,2.49-.02,3.73,.04,.28,.01,.7,.31,.79,.57,1.51,4.48,2.99,8.97,4.47,13.46,.03,.09,.02,.18,.04,.36-1.26,0-2.49,.03-3.73-.03-.2,0-.48-.35-.56-.59-.67-2.05-.66-2.05-2.84-2.05q-2.33,0-3.02,2.18c-.05,.15-.11,.29-.18,.45Zm4.65-5.85c-.51-1.97-1-3.83-1.48-5.69-.05,.01-.1,.03-.15,.04-.46,1.86-.92,3.72-1.39,5.65h3.03Z"/><path d="M164.95,87.29c-.13,.19-.17,.22-.17,.25-.3,2.05-.27,2.08,1.76,2.08,.79,0,1.58,0,2.45,0v3.08c-1.13,0-2.24,.03-3.34-.01-.68-.03-.97,.16-.95,.9,.06,2.25-.23,1.86,1.85,1.9,.83,.02,1.66,0,2.48,.02,.09,0,.18,.04,.33,.08v2.9h-8.41v-14.15h8.42v2.96h-4.43Z"/><path d="M84.53,94.91c0,.87,.04,1.79-.03,2.69-.02,.22-.32,.53-.56,.61-2.04,.69-4.11,.82-6.18,.16-1.6-.51-2.74-1.59-3.35-3.16-.9-2.3-.96-4.66-.12-6.98,.94-2.59,2.9-3.92,5.63-4.14,1.8-.14,3.53,.13,5.23,.97-.4,1.03-.78,1.99-1.13,2.89-1.03-.26-1.97-.56-2.92-.72-1.21-.2-2.23,.32-2.76,1.42-.86,1.78-.89,3.62-.12,5.43,.49,1.15,1.6,1.72,2.99,1.53,1.09-.15,2.16-.45,3.3-.7Z"/><path d="M149.25,84.31h3.73v11.13h5.5v3.06h-9.23v-14.2Z"/><path d="M82.22,108.95c.35-2.27-.72-3.32-2.81-2.89-.65,.13-1.27,.38-2.01,.6-.13-.32-.27-.65-.43-1.06,1.65-.8,3.29-1.09,5.02-.59,1.12,.33,1.7,1.19,1.73,2.27,.07,2.47,.02,4.94,.02,7.4-1.21,.52-1.14-.46-1.37-1.17-.23,.18-.43,.32-.6,.48-1.09,1-3.13,1.32-4.46,.69-1.04-.49-1.44-1.39-1.48-2.47-.04-1.15,.4-2.14,1.49-2.53,1.09-.39,2.27-.54,3.41-.73,.49-.08,1-.01,1.47-.01Zm0,.9c-1.25,.19-2.45,.27-3.59,.56-.97,.25-1.37,1.12-1.18,2.1,.18,.96,.89,1.24,1.75,1.29,2.12,.11,3.26-1.26,3.02-3.95Z"/><path d="M136.97,109.79c.03-3.66,2.38-5.65,5.8-4.89,.12,.03,.25,.06,.37,.1,2.17,.71,3.3,3.15,2.83,6.1-.39,2.47-1.93,3.86-4.29,3.88-3.02,.02-4.74-1.87-4.71-5.18Zm1.44,.09c.11,.61,.18,1.28,.37,1.91,.39,1.3,1.36,1.98,2.7,2.01,1.33,.02,2.33-.65,2.76-1.93,.43-1.27,.43-2.56,.04-3.84-.41-1.35-1.36-2.02-2.77-2.02-1.42,0-2.37,.68-2.76,2.03-.17,.57-.22,1.18-.33,1.84Z"/><path d="M180.67,108.95c.17-2.43-.86-3.34-3.03-2.85-.61,.14-1.2,.36-1.87,.57-.13-.31-.27-.62-.4-.91,1.33-1.09,4.2-1.4,5.51-.45,.55,.4,1.1,1.2,1.13,1.84,.13,2.5,.05,5,.05,7.49q-.77,.23-1.46-1.15c-.96,1.34-2.32,1.59-3.82,1.47-1.25-.09-2.25-.87-2.5-1.98-.32-1.45,.09-2.75,1.32-3.24,1.1-.44,2.32-.57,3.5-.78,.49-.09,1.01-.01,1.57-.01Zm-.14,.91c-1.19,.18-2.42,.26-3.6,.56-.91,.23-1.34,1.15-1.15,2.04,.19,.93,.86,1.28,1.74,1.33,2.19,.13,3.53-1.5,3.02-3.93Z"/><path d="M164.34,114.78h-1.33c-.02-.35-.04-.68-.05-1.01,0-1.78,.02-3.56,0-5.34-.02-1.46-.62-2.22-1.81-2.4-1.55-.24-2.84,.4-3.24,1.7-.2,.65-.28,1.37-.29,2.06-.04,1.64-.01,3.29-.01,4.99h-1.44v-9.77c.34-.02,.7-.03,1.1-.05,.13,.42,.25,.8,.39,1.25,1.13-1.26,2.48-1.62,4.03-1.37,1.68,.27,2.54,.97,2.63,2.63,.13,2.4,.03,4.81,.03,7.32Z"/><path d="M122.28,113.67h5.41c.02,.37,.04,.68,.07,1.07h-7.35c.19-.54,.27-1.04,.53-1.42,1.61-2.36,3.27-4.69,5.04-7.22h-5v-1.1h6.77c-.22,.67-.29,1.3-.61,1.76-1.53,2.26-3.13,4.47-4.84,6.9Z"/><path d="M94.4,105.05c1.58-.51,1.09,.77,1.4,1.65,1.06-1.55,2.37-2.29,4.22-1.77-.07,.43-.13,.79-.19,1.14-.09,.05-.14,.1-.2,.1-2.62-.09-3.81,1.05-3.81,3.66,0,1.56,0,3.11-.02,4.67,0,.06-.03,.12-.08,.25h-1.33v-9.7Z"/><path d="M110.7,114.78h-1.27c-.04-.17-.11-.32-.11-.46,0-2.88,0-5.77-.01-8.65,0-1.19,.81-.6,1.39-.69v9.81Z"/></g></g></g></g></svg>