<?xml version="1.0" encoding="UTF-8"?><svg id="_圖層_2" xmlns="http://www.w3.org/2000/svg" viewBox="0 0 200 200"><defs><style>.cls-1{fill:none;}</style></defs><g id="_圖層_3"><g><rect class="cls-1" width="200" height="200"/><g id="geyXW6"><g><path d="M14.7,74.6h12.13v15.71c.09,.04,.18,.09,.26,.13,.32-.36,.67-.71,.97-1.09,3.49-4.51,7-9.02,10.44-13.56,.64-.85,1.31-1.2,2.38-1.17,3.4,.07,6.81,.03,10.21,.03,.34,0,.68,0,1.23,0-1.59,2.26-3.04,4.34-4.51,6.41-2.84,4.02-5.68,8.05-8.55,12.06-.4,.55-.37,.97-.02,1.53,4.47,7.07,8.91,14.15,13.36,21.24,.24,.38,.44,.77,.76,1.33-1.3,0-2.39,0-3.48,0-3.16,0-6.31-.03-9.47,.01-.84,.01-1.35-.25-1.8-.97-3.53-5.69-7.1-11.36-10.66-17.03-.25-.4-.53-.77-.8-1.16l-.29,.08c0,.48,0,.96,0,1.44,0,5.46-.02,10.92,.02,16.38,0,.96-.26,1.29-1.25,1.27-3.65-.06-7.3-.04-10.96-.06v-42.57Z"/><path d="M117.22,116.84c-2.68,0-5.23,.03-7.77-.03-.4-.01-.77-.5-1.17-.74-.29-.17-.74-.48-.91-.38-3.37,2.09-7.15,1.88-10.85,1.82-1.41-.02-2.89-.43-4.21-.97-3.2-1.33-5.07-3.94-6.07-7.14-1.48-4.75-1.5-9.58-.18-14.37,1.42-5.14,5.41-8.47,10.9-9.06,1.72-.19,3.46-.17,5.19-.11,1.79,.07,3.49,.55,5.12,1.81v-12.52c.48-.04,.82-.09,1.16-.09,2.59,0,5.18,.02,7.77-.02,.8-.01,1.12,.19,1.12,1.06-.03,13.27-.02,26.53-.03,39.8,0,.28-.04,.55-.07,.94Zm-9.82-15.95c-.03-1.64-.26-4-1.6-6.09-1.12-1.74-2.75-2.5-4.8-2.32-1.96,.17-3.21,1.33-3.8,3.1-.45,1.33-.74,2.74-.88,4.14-.28,2.73-.19,5.47,.8,8.08,.83,2.19,2.43,3.26,4.63,3.23,2.11-.03,3.51-1.16,4.42-2.97,1.02-2.01,1.25-4.19,1.23-7.16Z"/><path d="M184.75,116.77c-.37,.04-.64,.09-.91,.09-3.01,0-6.03-.03-9.04,.02-.79,.01-1.22-.29-1.6-.93-2.37-3.95-4.76-7.89-7.15-11.83-.23-.38-.51-.72-.76-1.08-.12,.02-.24,.05-.36,.07v13.74c-.95,0-1.79,0-2.63,0-2.34,0-4.68-.02-7.02,.01-.79,.01-1.12-.17-1.12-1.06,.03-13.19,.02-26.39,0-39.58,0-.9,.21-1.23,1.18-1.21,2.8,.07,5.6,.06,8.4,0,.91-.02,1.22,.22,1.21,1.18-.05,6.35-.03,12.7-.03,19.04,0,.33,.05,.67,.1,1.3,.48-.47,.79-.73,1.04-1.03,2.27-2.72,4.55-5.43,6.79-8.18,.5-.61,1.01-.85,1.8-.84,2.59,.05,5.18,.02,7.77,.01,.34,0,.69,0,1.3,0-.92,1.16-1.67,2.12-2.44,3.07-2.21,2.73-4.4,5.47-6.65,8.17-.51,.62-.56,1.06-.14,1.76,3.3,5.46,6.56,10.94,9.83,16.42,.14,.23,.24,.48,.41,.82Z"/><path d="M67.44,84.43c2.95,.15,5.79,.68,8.41,2.08,3.58,1.92,5.76,4.97,6.79,8.85,1.08,4.09,1.09,8.21-.04,12.29-1.44,5.22-4.8,8.63-10.03,10.02-4.49,1.19-9.02,1.11-13.39-.56-4.89-1.87-7.61-5.64-8.67-10.64-.77-3.65-.76-7.33,.24-10.96,1.77-6.41,6.53-10.32,13.18-10.86,1.17-.09,2.33-.14,3.5-.21Zm4.61,16.73c-.33-1.94-.5-4.07-1.09-6.08-.65-2.26-2.12-3.07-4.54-3.01-2.01,.05-3.44,1.04-4.03,3.14-.43,1.52-.67,3.12-.77,4.69-.17,2.58-.1,5.17,.76,7.66,.49,1.41,1.34,2.47,2.87,2.87,2.81,.75,5.11-.39,5.87-3.22,.51-1.89,.61-3.89,.93-6.06Z"/><path d="M151.11,116.87h-9.64c-.23-.83-.46-1.67-.73-2.64-.57,.38-.98,.65-1.39,.92-3.81,2.53-8.03,3.2-12.42,2.34-3.55-.69-5.95-2.94-6.79-6.54-.86-3.7,.14-6.88,3.08-9.36,2.2-1.85,4.83-2.77,7.6-3.36,2.88-.61,5.75-1.25,8.63-1.82,.94-.19,1.11-.63,.89-1.5-.55-2.23-2.42-3.52-5.09-3.43-2.2,.07-3.44,.94-4.21,3.07-.2,.55-.47,.68-1,.68-1.99-.02-3.97-.03-5.96,0-.61,0-.9-.15-.9-.83,0-2.52-.01-5.04-.07-7.55-.02-.79,.26-1.03,1.05-1.03,5.85,.02,11.7-.01,17.55,0,2.04,0,4.04,.36,5.8,1.47,2.6,1.64,3.29,4.28,3.35,7.09,.1,4.61,0,9.22,.03,13.83,.02,2.62,.13,5.24,.2,7.86,0,.24,0,.48,0,.79Zm-10.67-12.29s-.05-.01-.08-.02c-.03-.6,0-1.21-.11-1.8-.05-.26-.38-.69-.58-.68-2.67,.09-5.33,.31-7.59,1.92-1.34,.95-1.73,2.34-1.45,3.95,.28,1.56,1.21,2.52,2.68,2.98,2.95,.93,5.85-.59,6.68-3.54,.26-.91,.3-1.87,.44-2.81Z"/></g></g></g></g></svg>