<svg width="500" height="500" viewBox="0 0 500 500" fill="none" xmlns="http://www.w3.org/2000/svg"><path d="M83.5948 216.604s.963-2.287 2.5278-2.648c1.9259-.602 2.287-3.13.7222-3.852-1.9259-.963-12.037-6.38-12.037-6.38s-1.5648-.963-1.8055 1.445c-1.0834 18.296-7.9445 33.583-16.3704 42.731-.4814.481-1.5648 2.167 1.0834 1.083 6.0185-3.49 16.0092-11.676 25.8795-32.379zM134.993 232.372c-16.37-3.731-22.028-12.398-27.444-21.305-.602-1.084.601-1.565 3.009-2.408 2.287-.963 1.926-2.648 1.324-3.25-.602-.602-5.417-4.935-6.019-5.537-.601-.602-1.203-.602-1.805.241-2.889 3.611-3.972 4.815-4.8149 5.296-.8426.361-11.5555-.12-12.5185-.24-.9629-.121-1.8055-.241-1.8055.481.1203 1.806 1.0833 2.407 2.0463 2.407 0 0 12.1573-.12 13.3606-.12 1.084 0 2.047.12 2.528 2.046 5.778 23.111 21.667 34.185 23.593 35.509 1.083.723 1.324.362 1.444-.842.602-4.454 2.648-9.87 6.982-10.352 1.564-.241 1.564-1.565.12-1.926zM111.761 237.307c-.842-.722-2.046-.601-2.648.241-2.046 1.926-2.889 2.648-3.731 3.009-.843.362-31.4168-.12-32.3797-.24-.963-.121-1.8056-.241-1.8056.481.1204 1.806 1.0834 2.408 2.0463 2.408h7.2222c.7222 0 .963.361.963 1.083-.6019 12.037-4.213 35.75-23.3518 47.787-.4815.241-.3611 1.203.7222.842 22.0277-7.222 32.7406-23.472 34.5462-48.509 0-.963.7222-1.324 1.5648-1.324h9.5094c1.083 0 1.805-.12 1.805 1.806-.12 5.055-.842 25.398-3.25 28.166-2.407 2.648-4.9348 2.769-9.7496 2.528-3.25-.241-4.0925-.602-4.9351-.722-1.0834-.12-1.2037 1.324 0 1.685 1.324.361 5.537 1.565 6.4999 4.213 1.2037 3.13.963 7.583 1.2037 9.389.3611 1.926 2.0463 3.009 6.3801 1.204 3.37-1.565 7.703-4.695 9.87-9.269 2.768-4.694 3.972-17.092 4.815-30.935.12-1.444.361-3.009.963-3.37 2.287-1.084 1.926-2.648 1.324-3.25-.602-.723-6.982-6.621-7.584-7.223zM220.576 204.687c2.648 1.926 7.102 6.259 6.38 9.87-1.084 6.26 2.768 7.824 4.213 7.945 1.805.241 6.499-.722 6.74-6.5.241-6.741-6.5-11.796-17.213-12.639-.963 0-.963.722-.12 1.324zM215.159 225.993c2.528 2.046 6.5 6.74 5.657 10.351-1.564 6.139 2.167 7.704 3.611 7.945 1.806.361 6.5 0 7.102-5.778.723-6.741-5.416-12.398-16.129-13.842-.963-.121-1.084.601-.241 1.324z" fill="#000"/><path d="M219.974 263.187c-.361-.241-.722-.361-1.083-.602-.843-.482-1.084.481-.241 1.204 7.824 6.5 3.611 12.759 2.407 16.731-2.046 6.62.963 11.435 4.454 11.917 2.648.361 6.38-1.324 7.102-6.741.361-2.648.12-5.296-.602-7.704-1.204-4.092-3.491-9.87-3.25-14.805.241-4.695 10.833-33.824 11.194-34.907.362-1.084-.481-1.686-1.083-.362-2.768 6.862-12.037 28.889-15.407 33.945-.602.963-2.287 2.046-3.491 1.324z" fill="#000"/><path d="M293.881 276.909c1.203-.241 1.324-.602.24-1.444-7.222-5.898-12.518-12.519-16.129-19.861-.602-1.084-.482-1.926.722-2.528 4.935-2.648 8.306-5.176 9.991-6.741.842-.722 1.444-.963 2.166-.963 2.649-.241 3.371-1.805 1.565-3.25-2.407-1.926-7.824-7.222-8.787-7.944-.722-.722-.842 0-.963.602-1.324 5.777-3.129 10.592-6.018 14.324-.482.601-1.204.722-1.685-.241-1.806-4.935-3.01-10.232-3.732-15.769-.12-1.203-.12-1.564 1.324-2.046 5.658-1.926 9.63-3.852 10.713-4.213.843-.241 1.685-.241 2.287-.12 3.13.722 4.454-1.445 2.769-3.13-1.806-1.805-7.824-8.065-8.547-8.666-.722-.602-1.685.12-2.166.601-4.935 6.5-16.009 14.324-23.833 16.491-1.445.482-2.408-.12-2.408-1.444.12-6.019.12-11.074.241-14.565 0 0 0-.12.12-.361.241-.602 1.084-.722 2.047-.843 10.351-1.204 22.87-5.176 24.916-5.778 1.565-.481 2.528-.24 3.611-.24 2.287 0 3.732-1.806 1.806-3.13-1.926-1.324-9.991-6.259-10.834-6.741-.842-.481-1.685 0-2.166.482-4.093 3.852-14.685 13.602-22.028 12.518-3.009-.963-6.861-1.926-6.861-1.926s-1.565-.722-1.444 1.204c2.648 26.602.361 63.917-5.537 77.278-.362.722-.362 1.564.722.842 11.435-12.879 14.324-34.907 15.046-52.24 0-1.565.843-2.167 2.648-2.287.722-.121 1.324 0 1.324 1.203.361 19.019.602 46.584.241 50.315-.12 2.167-1.204 6.018 3.009 6.139 4.213.12 6.5-2.046 6.741-3.25.241-1.083.241-1.926.241-1.926l.12-52.843c0-1.203.361-1.444 1.083-1.685.963-.24 1.445.241 1.445 1.324.241 21.426 4.935 40.926 16.972 54.528.602.722 1.083.481 1.565-1.324 1.565-5.056 4.574-9.63 7.463-10.352zM304.233 276.548c-.361 3.852 3.25 8.306 6.74 6.741 12.88-6.621 24.074-40.204 24.797-55.491.12-3.491-1.204-4.453-2.167-6.259-.963-1.806.602-2.648 2.768-2.648 20.824.481 28.769 18.657 24.797 39.481-4.213 21.667-24.435 27.806-26.121 28.167-1.805.361-1.324.722 0 .722 35.51-1.565 37.315-26.722 37.556-36.352.12-9.629-4.935-36.111-36.472-36.111-25.639 0-37.676 25.759-38.398 40.324-.602 10.954 2.648 13.602 4.574 16.13 1.565 2.287 2.287 2.407 1.926 5.296zm21.787-55.37c1.805-.963 3.25-.963 3.731.481 2.287 5.898-4.935 35.269-15.768 45.139-2.287 2.167-4.334 3.37-5.898-.481-4.695-12.037 2.046-37.074 17.935-45.139z" fill="#000"/><path d="M444.704 278.233c-7.944 1.083-16.249.722-23.953-.722-1.565-.361-1.685-1.083-.602-1.926 1.926-1.445 3.611-3.13 5.296-4.815 1.204-1.444 2.769-1.565 3.491-1.565 2.889-.24 4.815-2.407 3.37-3.731-.842-.843-8.907-7.102-9.87-7.945-.963-.722-1.444-.963-2.046-.12-2.047 1.926-3.25 2.528-4.093 2.889-.602.241-9.87.12-16.37 0-.963 0-.963-.361-.482-.963.241-.241 1.565-2.889 3.371-3.009 2.166-.121 2.889-2.287 1.324-2.648-.241-.121-.602-.121-.963-.241h-.241c-1.204-.361-1.083-1.204 0-1.204h16.611c.843 0 1.084.482 1.084 1.204.12 1.444.722 2.528 3.851 2.528 4.334 0 6.621-1.806 6.861-3.01.241-1.083.121-1.324.121-1.324.12-3.852.241-19.62.12-26.722 0-1.204.121-1.685.482-2.046 3.851-2.889 2.046-4.213.722-5.176-.843-.602-6.5-4.815-7.343-5.417-.963-.602-1.685-.963-2.287 0-1.324 1.685-2.528 3.972-3.852 4.334-.481.12-5.537.12-11.555.24-1.204 0-1.444-.481-.602-1.324 2.046-1.926 3.972-4.092 5.417-6.018.602-.722 1.324-1.084 2.648-1.084h23.833c1.926 0 1.926-1.805 1.204-2.287-1.445-1.203-6.861-5.657-7.584-6.259-.842-.722-1.324-.481-2.046.241-2.166 2.167-5.055 5.296-5.898 5.537-1.083.241-42.49.843-52-.241-1.203-.12-2.046 0-2.046.843.12 1.805 1.324 2.407 2.407 2.407h25.158c.722 0 1.203.361 1.203 1.324 0 2.047-.24 4.093-.361 5.778-.12.843-.481 1.324-1.564 1.324h-5.538c-.722 0-1.564-.12-2.407-.481h-.12c-1.445-.602-8.185-2.889-9.51-3.25-1.083-.362-1.925-.241-1.685 1.083.602 2.889 1.084 31.417.602 36.231-.12 2.167-1.204 6.019 3.13 6.019 1.324 0 2.407-.241 3.25-.482.842-.361 1.805-.24 1.444.843-3.37 9.63-11.315 19.139-20.102 23.954-.601.361-1.685 1.324 1.204.722 4.574-1.204 13.843-4.454 22.87-12.519.602-.481 1.445-.842 2.047 0 1.685 2.408 3.852 5.056 6.379 7.463.602.602.843 1.324.361 1.806-9.268 6.259-20.222 11.074-31.536 14.083-1.806.482-.723 1.083 0 1.083 12.277-.722 25.759-3.37 37.675-9.027 1.324-.361 2.167-.723 3.972.24 6.862 4.213 15.287 7.463 25.278 8.787 1.084.121 1.685 0 1.685-.842.241-5.778 4.213-11.676 8.065-12.88 1.806-.842 1.926-1.926.12-1.685zm-55.129-58.5s.12 0 .241-.12c.722-.482 1.204-.602 1.926-.602 7.583 0 25.879.12 26.963.12 1.324 0 2.046 0 2.046 1.806v4.935c0 .722-.361 1.324-1.204 1.324-7.102.121-23.592.121-28.768.121-.843 0-1.204-.482-1.204-1.204v-6.38zm-.12 11.074c0-.722.361-1.203 1.203-1.203 4.815 0 22.269 0 28.769.12.842 0 1.204.602 1.204 1.324v5.778c0 .722-.362 1.324-1.204 1.324-7.102.12-23.593.12-28.769.12-.842 0-1.324-.481-1.324-1.324l.121-6.139zm1.324 18.658c-.843 0-1.324-.482-1.324-1.204v-6.38c0-.722.481-1.203 1.324-1.203 4.935 0 22.389.12 28.889.12.842 0 1.203.602 1.203 1.324v6.139c0 .722-.481 1.324-1.324 1.324-7.222-.12-23.713-.12-28.768-.12zm24.314 15.046c-2.287 2.648-4.814 5.296-7.462 7.583-.963.843-2.047.963-3.371.482-3.852-1.686-7.222-3.491-9.75-5.537-.602-.482-.481-1.084 0-1.686.361-.481.843-.842 1.204-1.324.843-.842 2.046-1.324 3.25-1.324h15.528c1.083 0 1.324.843.601 1.806zM188.799 301.946c-.241-.602-.602-1.083-1.084-1.444-.481-.361-.963-.723-1.685-1.084-.602-.361-1.324-.602-2.046-.842-.602-.241-1.084-.361-1.685-.602-.482-.241-.963-.482-1.324-.722-.362-.241-.602-.602-.843-1.084-.241-.361-.361-.842-.361-1.444 0-.482.12-.963.241-1.324.12-.361.481-.722.722-1.084.12-.12.12-.12.241-.24.24-.241.601-.361.842-.482.482-.12.963-.24 1.445-.24.481 0 .842 0 1.203.12.121 0 .361.12.482.12.481.241.842.361 1.203.722l1.806 3.371h.12l-.24-4.213-1.084.361c-.481-.12-.963-.361-1.564-.481h-.241c1.444-.723 2.287-1.686 2.407-2.408.241-1.083.241-2.768.241-2.768 0-.482.241-.843.843-.843h23.712c1.686 0 2.167-1.444 1.565-2.407-.602-1.084-4.574-7.704-5.055-8.426-.482-.843-1.445-.843-1.806 0-2.046 3.611-3.491 6.5-4.333 7.583-.482.482-1.445.602-1.445-.722v-18.056c0-.481.241-.842.843-.842h8.907c1.686 0 1.445-1.204.963-2.047-.722-.963-3.972-6.138-4.453-6.861-.482-.842-1.324-.842-1.806-.12-1.204 2.046-2.648 4.574-3.37 5.657-.241.361-.963.361-.963-.24v-15.769c0-.481.24-.722.842-.722h8.908c1.685 0 1.444-1.204.963-2.046-.723-.963-3.973-6.139-4.454-6.861-.482-.843-1.324-.843-1.806-.121-1.203 2.046-2.648 4.574-3.37 5.658-.241.361-.963.361-.963-.362v-13.722c0-1.083.361-1.685 1.565-1.685h10.231c1.565 0 1.445-1.444.963-2.046-.602-.602-5.296-6.741-5.898-7.343-.722-.722-1.444-.602-2.046.241-1.806 2.528-4.213 6.5-4.815 6.62-.241 0-1.083.121-2.407.121-1.565 0-1.445-.723-.723-1.685 2.288-2.889 3.973-5.658 6.38-9.991 0 0 .602-1.324 2.046-1.565 2.769-.361 3.371-2.648.963-3.731-1.805-.723-10.833-5.056-10.833-5.056s-1.204-.361-1.204.963c0 5.537-.361 13.722-1.203 18.898-.241 1.444-1.204 2.046-2.408 2.046-1.565 0-3.009 0-4.333-.12-2.046 0-2.046-1.324-1.445-2.407 1.325-2.528 2.649-5.297 4.093-8.426 0 0 .843-2.287 2.167-2.528 2.407-.241 2.648-2.408.842-3.25-1.805-.843-11.555-5.537-11.555-5.537s-1.324-.843-1.565 1.324c-.963 14.805-3.37 25.398-6.62 33.342-.241.602-.723.963-.723-.24v-11.195s1.084-.722 1.806-1.324c1.685-1.324 1.204-2.889-.361-3.25-1.204-.241-8.065-1.565-9.028-1.685-.963-.12-1.805-.241-1.565 1.204 0 .24.121.602.121.963.12.602-.361 1.083-.963.361-1.445-1.324-3.371-2.889-5.297-4.334-.361-.361-.12-.601.241-.601h18.778c1.565 0 1.444-1.445.963-2.047-.602-.601-5.898-5.898-6.5-6.5-.722-.722-1.324-.481-1.926.241-1.926 2.528-4.213 5.537-4.815 5.658-.241 0-1.444.12-3.37.12-.602 0-.963-.241-.963-.843v-4.092s1.083-.602 2.768-1.806c1.686-1.204 1.324-3.009-.361-3.37-1.203-.241-10.352-2.167-11.315-2.287-.962-.121-1.805-.241-1.564 1.203.481 2.528.722 7.102.842 10.593 0 .602-.361.843-.963.843-6.379-.121-12.518-.241-13-.241-.963-.12-1.805-.241-1.805.481.12 1.806 1.083 2.408 2.046 2.408h18.537c.482 0 .602.12.602.722v.602c-.361 2.528-.843 4.694-1.445 6.741-.12.481-.361.601-.962.361-.963-.361-2.047-.723-3.01-1.084-.12 0-.24 0-.24-.12-.602-.241-.723-.602-.843-.963-.12-.843-.843-1.444-1.806-1.685-1.203-.241-6.74-2.046-7.583-2.167-.963-.12-1.805-.241-1.565 1.204.482 2.889.963 17.815.482 22.629-.121 2.167-.963 6.019 2.528 6.019 3.611 0 5.657-1.445 5.898-2.528 0-.241.12-.481.12-.722.12-.722.241-.963 1.083-.963h1.686c.481 0 .722.241.842.722.241 3.371.12 6.621-.12 9.75 0 .361-.361.722-.963.722h-1.926c-.722 0-1.083-.12-2.046-.601h-.121c-1.203-.602-6.74-2.889-7.824-3.25-.842-.362-1.565-.241-1.444 1.083.481 2.889.963 31.416.481 36.231-.12 1.685-.602 4.334.722 5.417h-4.453l.12.241.722.12c.723 0 1.204.12 1.324.12.121 0 .241.121.241.241v16.009c0 .121-.12.121-.361.241s-.602.12-1.083.12l-.963.121-.121.12h6.139c1.685 0 3.25-.241 4.574-.722 1.324-.482 2.528-1.083 3.371-1.926.963-.843 1.685-1.805 2.166-2.889.482-1.083.723-2.287.723-3.611 0-1.204-.241-2.407-.602-3.491-.482-1.083-1.084-1.926-1.926-2.648-.843-.722-1.926-1.324-3.13-1.685-.722-.241-1.565-.361-2.407-.481 1.926-.723 2.889-2.167 3.129-2.889.241-1.084.241-2.047.241-2.047v-10.472c0-.842.482-.602.722-.12.241.481.361.842.482 1.083.602 1.324 1.685 2.769 3.731.241.722-1.083 4.334-3.972 7.704-7.102.602-.602 1.444-.361 1.444.722v1.565c.241 2.167 1.806 2.648 3.25 2.769.602 0 1.445-.241 2.287-.843.241-.241.602-.12.602.241v1.444c0 1.445-.602 2.408-5.416 1.926-3.13-.361-4.334-.843-5.056-.963-1.083-.12-1.324 1.083-.12 1.565 1.324.361 5.416 1.204 6.5 3.972.602 1.685.722 4.093.722 5.898 0 1.926.12 4.213 3.611 3.13 2.889-.843 5.176-2.287 6.62-4.574 2.889-3.852 1.084-13.241 1.926-27.083.121-1.445-.12-2.167.602-2.408 3.491-1.324 1.806-4.092 1.204-4.694-.602-.602-5.417-4.454-6.139-5.056-.722-.602-1.324-.842-1.926.121-1.324 1.805-2.648 4.213-3.611 4.453-.361.121-3.009.121-6.259.121-.602 0-.602-.241-.482-.723.602-1.564.963-3.009 1.324-4.333.241-.842.361-.963.963-1.204 1.204-.481 2.167-1.444 1.084-2.888-.241-.362-.963-.843-1.806-1.325-.361-.24-.481-.601.241-.601h3.731c.843 0 .963.361.963.963 0 1.564.482 2.888 2.769 2.888 3.611 0 5.657-1.444 5.898-2.527.241-.843.241-3.371.241-3.371 0-1.203.24-1.565.842-2.166 0-.121.121-.121.121-.241 1.083-1.204 2.166-2.528 3.249-3.972.602-.843.963-.482.963.722.241 20.463.362 48.991.121 52.241-.121 2.046-.963 5.537 2.166 6.018-.24.12-.481.361-.722.481-.481.482-.842.963-1.083 1.445-.241.602-.361 1.204-.361 1.805 0 .723.12 1.204.361 1.806.241.481.602.963.963 1.324.481.361.963.722 1.444.963.602.241 1.204.482 1.806.722 1.444.482 2.528.963 3.25 1.685.722.602 1.204 1.565 1.204 2.649 0 .601-.121 1.083-.362 1.564-.24.482-.481.963-.842 1.324-.361.362-.843.602-1.324.843-.482.241-1.084.361-1.685.361-1.084 0-2.047-.241-2.889-.722-.843-.482-1.445-1.324-1.926-2.528l-.602-1.324h-.12l.24 3.972c.723.241 1.686.482 2.648.723.963.24 1.806.24 2.649.24.963 0 1.685-.12 2.527-.481.723-.361 1.445-.722 1.926-1.204.602-.481.963-1.083 1.324-1.685.361-.602.482-1.324.482-2.046-.241-.602-.361-1.204-.722-1.806zm-.843-77.157c0-.843.361-1.204 1.204-1.204h1.565c.962 0 1.083.121 1.083.722.12 4.213.12 9.389.241 14.806 0 .481-.241.843-.843.843h-2.528c-.602 0-.842-.362-.842-.843l.12-14.324zm0 18.537c0-.482.241-.722.843-.722h2.527c.602 0 .843.361.843.842 0 5.297.12 10.713.12 16.009 0 .482-.24.723-.842.723h-2.648c-.602 0-.843-.241-.843-.723v-16.129zm0 20.102c0-.482.241-.843.843-.843h2.648c.602 0 .842.361.842.843v18.537c0 .481-.24.722-.842.722h-2.648c-.602 0-.843-.361-.843-.843v-18.416zm-44.537 29.129c.963.482 1.806 1.084 2.528 1.926.602.843 1.204 1.685 1.444 2.769.361 1.083.482 2.166.482 3.37 0 1.083-.121 2.046-.482 3.009-.361.963-.842 1.806-1.444 2.528s-1.444 1.324-2.407 1.806c-.963.481-2.047.722-3.371.722l-2.166-.482v-16.25h1.805c.361 0 .843 0 1.204.121.963 0 1.685.24 2.407.481zm6.621-35.75c-.482 3.01-.963 5.658-1.686 7.945-.361 1.203-.963 2.046-1.926 2.046-.24 0-.361 0-.361-.12 0 0-.12-.121-.24-.121-.362-.24-.482-.602-.482-1.203v-9.75c.482-.482.963-.602 1.565-.602h1.805c.963.12 1.565.722 1.325 1.805zm-2.889-22.509v-11.194c0-.963 1.083-.722 1.685-.361 1.324.842 2.407 1.805 3.25 2.648.361.481.481 1.083.241 1.685-1.325 3.37-2.769 5.778-4.093 7.463-.602.602-1.083.842-1.083-.241zm9.75 31.537c-1.084.241-2.167.361-3.13.482-1.565.24-1.926-.482-1.565-1.445.602-1.204 1.204-2.648 1.926-4.213.241-.722.722-.963 1.324-.481 1.324 1.083 2.167 2.287 2.769 3.37.602 1.324-.361 2.046-1.324 2.287zm.601-10.713h6.019c1.083 0 2.287-.12 2.287 1.565v6.018c0 .482-.361.602-.722.121-1.685-1.806-4.334-3.25-8.426-4.695-1.083-.361-1.204-.842-.843-1.685 0-.12.121-.241.121-.361.12-.481.722-.963 1.564-.963zm6.862-17.333c0 .722-.362 1.083-1.204 1.083h-14.926c-.481 0-.843-.241-.963-.481 0-1.204.843-1.565 1.565-2.047 1.926-1.083 3.731-2.527 5.537-4.213.481-.481 1.083-.601 1.204.241v.121c.722 4.694 2.287 4.574 3.611 4.814 1.324.241 4.574-1.444 3.972-6.861-.241-1.565-1.083-3.009-2.408-4.333-.481-.481-.601-.843-.24-1.324.602-.722 1.083-1.565 1.685-2.407.241-.362.481-.482.602-.482.602 0 1.444.361 1.444 1.083.121 4.815.241 11.074.121 14.806z" fill="#000"/><path d="M161.835 305.076c-.24.481-.361.963-.601 1.444-.241.482-.482.843-.843 1.083-.361.362-.722.602-1.204.723-.481.24-.963.24-1.685.24l-3.009-.12v-6.259h1.444c.602 0 .963 0 1.324.12.362 0 .602.121.843.241s.361.241.481.481c.121.241.121.482.241.843v.361h.121l.481-4.454h-.241l-.12.362c-.12.361-.241.601-.361.842-.121.241-.361.361-.482.482-.24.12-.481.24-.842.24s-.722.121-1.204.121h-1.685v-5.898h2.648c.602 0 1.083.12 1.565.24.361.121.722.361 1.083.602.241.241.482.602.722 1.084.241.361.482.962.602 1.444l.121.361h.12l-.361-3.852h-10.352v.121h.602c.602 0 .842.12.963.12.12 0 .241.12.241.12v11.917c0 .12-.362.241-1.084.361l-.722.12v.121h10.833l.843-4.093h-.12l-.362.482z" fill="#000"/><path d="M175.316 308.807c-.241 0-.481-.12-.722-.12s-.361-.121-.602-.241c-.12-.12-.361-.361-.481-.482-.121-.24-.361-.481-.602-.842l-3.009-4.454c.963-.12 1.805-.481 2.407-1.083.602-.602.963-1.204.963-2.046 0-1.084-.482-1.926-1.324-2.528-.843-.602-2.167-.843-3.972-.843h-5.658v.121h.843c.602 0 .842.12.963.12.12 0 .241.12.241.12v11.917s-.121.12-.362.12c-.24 0-.481.121-.722.121l-.963.12-.12.12h6.259v-.12h-.842c-.241 0-.602-.12-.843-.12s-.361-.121-.361-.121v-6.259c.241.12.481.12.722.241.241.12.482.12.843.12l3.731 6.139.12.361h3.852l-.12-.12-.241-.241zm-8.185-6.62c-.241 0-.481-.121-.843-.241v-5.657h.963c1.204 0 2.167.24 2.769.722.602.602.963 1.324.963 2.287 0 .963-.241 1.685-.843 2.166-.602.482-1.324.723-2.287.723h-.722zM200.594 304.835l-.12.241c-.241.481-.361.963-.602 1.444-.241.482-.481.843-.843 1.083-.361.362-.722.602-1.203.723-.482.24-.963.24-1.685.24l-3.01-.12v-6.259h1.445c.602 0 .963 0 1.324.12.361 0 .602.121.842.241.241.12.362.241.482.481.12.241.12.482.241.843v.361h.12l.481-4.454h-.24l-.121.362c-.12.361-.24.601-.361.842-.12.241-.361.361-.481.482-.241.12-.482.24-.843.24s-.722.121-1.204.121h-1.685v-5.898h2.648c.602 0 1.084.12 1.565.24.361.121.722.361 1.084.602.24.241.481.602.722 1.084.241.361.481.962.602 1.444l.12.361h.12l-.361-3.852h-10.352v.121h.602c.602 0 .843.12.963.12.121 0 .241.12.241.12v11.917c0 .12-.361.241-1.083.361l-.723.12v.121h10.834l.842-4.093-.361.241zM211.428 304.835c-.241.602-.482 1.203-.722 1.685-.241.481-.602.843-.963 1.204s-.843.602-1.445.722c-.602.12-1.203.241-2.046.241h-3.13l8.306-12.519v-.12h-9.87l-.361 3.852h.12l.12-.241c.241-.482.361-.963.602-1.324.241-.361.482-.722.963-1.083.361-.241.843-.482 1.324-.723.482-.12 1.204-.24 1.926-.24h2.889l-8.306 12.638v.121h10.352l.722-4.454h-.12l-.361.241zM223.104 305.076c-.241.481-.361.963-.602 1.444-.241.482-.481.843-.843 1.083-.361.362-.722.602-1.203.723-.482.24-.963.24-1.685.24l-3.01-.12v-6.259h1.445c.602 0 .963 0 1.324.12.361 0 .602.121.842.241.241.12.362.241.482.481.12.241.12.482.241.843v.361h.12l.481-4.454h-.24l-.121.362c-.12.361-.24.601-.361.842-.12.241-.361.361-.481.482-.241.12-.482.24-.843.24s-.722.121-1.203.121h-1.686v-5.898h2.648c.602 0 1.084.12 1.565.24.361.121.722.361 1.084.602.24.241.481.602.722 1.084.241.361.481.962.602 1.444l.12.361h.12l-.361-3.852h-10.352v.121h.602c.602 0 .843.12.963.12.121 0 .241.12.241.12v11.917c0 .12-.361.241-1.083.361l-.723.12v.121h10.834l.842-4.093h-.12l-.361.482zM231.891 302.548c-.362-.361-.723-.602-1.204-.843-.482-.24-.963-.481-1.565-.601-.481-.121-.843-.362-1.204-.482s-.722-.361-.963-.602c-.24-.241-.481-.481-.722-.722-.12-.241-.241-.602-.241-.963s.121-.602.241-.963c.12-.241.361-.481.602-.722s.481-.361.843-.482c.361-.12.722-.12 1.083-.12.481 0 .963.12 1.204.241.361.12.601.361.963.481l1.444 2.648h.12l-.12-3.37-.843.241c-.361-.121-.722-.241-1.203-.361-.482-.121-.963-.121-1.565-.121s-1.204.121-1.685.361c-.482.241-.963.482-1.324.843-.361.361-.602.722-.843 1.204-.241.481-.241.842-.241 1.324 0 .481.121.963.241 1.324.241.361.482.722.843.963.361.24.722.481 1.203.722.482.241.843.361 1.324.602.963.361 1.806.722 2.408 1.204.602.481.842 1.083.842 1.925 0 .843-.24 1.565-.842 2.047-.602.481-1.324.842-2.287.842-.843 0-1.565-.24-2.167-.602-.602-.361-1.083-.962-1.444-1.805l-.602-1.204h-.121l.241 3.13c.602.241 1.204.361 1.926.481.722.121 1.445.241 2.046.241.723 0 1.324-.12 1.926-.361.602-.241 1.084-.482 1.445-.963.361-.361.722-.843.963-1.324.24-.482.361-.963.361-1.565s-.121-1.083-.361-1.444c-.121-.602-.361-.963-.722-1.204zM241.52 302.548c-.361-.361-.722-.602-1.204-.843-.481-.24-.963-.481-1.564-.601-.482-.121-.843-.362-1.204-.482s-.722-.361-.963-.602-.482-.481-.722-.722c-.121-.241-.241-.602-.241-.963s.12-.602.241-.963c.12-.241.361-.481.602-.722.24-.241.481-.361.842-.482.361-.12.722-.12 1.083-.12.482 0 .963.12 1.204.241.361.12.602.361.963.481l1.445 2.648h.12l-.12-3.37-.843.241c-.361-.121-.722-.241-1.204-.361-.481-.121-.963-.121-1.565-.121-.601 0-1.203.121-1.685.361-.481.241-.963.482-1.324.843-.361.361-.602.722-.842 1.204-.241.481-.241.842-.241 1.324 0 .481.12.963.241 1.324.24.361.481.722.842.963.361.24.722.481 1.204.722.481.241.843.361 1.324.602.963.361 1.806.722 2.407 1.204.602.481.843 1.083.843 1.925 0 .843-.241 1.565-.843 2.047-.601.481-1.324.842-2.287.842-.842 0-1.564-.24-2.166-.602-.602-.361-1.084-.962-1.445-1.805l-.602-1.204h-.12l.241 3.13c.602.241 1.203.361 1.926.481.722.121 1.444.241 2.046.241.722 0 1.324-.12 1.926-.361.602-.241 1.083-.482 1.444-.963.361-.361.723-.843.963-1.324.241-.482.361-.963.361-1.565s-.12-1.083-.361-1.444c-.12-.602-.361-.963-.722-1.204zM247.298 296.409c.12 0 .361-.12.722-.12l.843-.121v-.12h-5.778v.12h.602c.602 0 .843.121 1.083.121.121 0 .241.12.241.12v11.917s-.12.12-.241.12c-.12 0-.361.12-.842.12l-.843.121-.12.12h5.898l-.12-.12h-.602c-.602 0-.843-.121-.963-.121-.121 0-.241-.12-.241-.12v-11.917c.12 0 .12-.12.361-.12z" fill="#000"/><path d="M262.585 299.78c-.361-.843-.843-1.565-1.445-2.167-.602-.602-1.324-1.083-2.287-1.445-.842-.361-1.805-.481-2.768-.481-.963 0-1.926.241-2.769.602-.842.361-1.565.842-2.287 1.565-.602.601-1.204 1.324-1.565 2.166-.361.843-.602 1.685-.602 2.528 0 .963.121 1.926.482 2.769.361.842.843 1.564 1.444 2.166.602.602 1.324 1.084 2.167 1.324.843.361 1.806.482 2.769.482.963 0 1.926-.241 2.768-.602.843-.361 1.685-.843 2.287-1.445.602-.601 1.204-1.324 1.565-2.166.361-.843.602-1.685.602-2.528.241-1.083 0-1.926-.361-2.768zm-2.889 7.462c-.843 1.084-2.046 1.686-3.491 1.686-.722 0-1.444-.121-2.046-.482-.602-.361-1.084-.722-1.565-1.324-.482-.602-.722-1.204-.963-2.046-.241-.843-.361-1.685-.361-2.648 0-2.047.481-3.732 1.324-4.815.843-1.204 2.046-1.685 3.491-1.685.722 0 1.444.12 2.046.481.602.361 1.083.722 1.565 1.324.481.602.722 1.204.963 2.047.24.842.361 1.685.361 2.648 0 2.166-.482 3.731-1.324 4.814z" fill="#000"/><path d="M276.909 296.168v-.12h-4.454v.12h.361c.722 0 1.204.121 1.445.241.24.12.361.241.361.481v9.028l-8.065-9.87h-3.972v.241h.24c.482 0 .963.12 1.204.481.361.241.602.481.722.722l-.12 10.593c0 .481-.482.722-1.444.722h-.482v.12h4.574v-.12h-.481c-.602 0-1.084-.12-1.324-.241-.241-.12-.362-.24-.362-.481v-10.472l9.389 11.435h.121v-12.037c0-.241.12-.361.361-.482.24-.12.602-.24 1.083-.24l.843-.121zM284.251 302.548c-.361-.361-.722-.602-1.203-.843-.482-.24-.963-.481-1.565-.601-.482-.121-.843-.362-1.204-.482s-.722-.361-.963-.602l-.722-.722c-.121-.241-.241-.602-.241-.963s.12-.602.241-.963c.12-.241.361-.481.602-.722.24-.241.481-.361.842-.482.361-.12.722-.12 1.084-.12.481 0 .963.12 1.203.241.361.12.602.361.963.481l1.445 2.648h.12l-.12-3.37-.843.241c-.361-.121-.722-.241-1.204-.361-.481-.121-.963-.121-1.564-.121-.602 0-1.204.121-1.686.361-.481.241-.963.482-1.324.843-.361.361-.602.722-.842 1.204-.241.481-.241.842-.241 1.324 0 .481.12.963.241 1.324.24.361.481.722.842.963.361.24.723.481 1.204.722.482.241.843.361 1.324.602.963.361 1.806.722 2.408 1.204.601.481.842 1.083.842 1.925 0 .843-.241 1.565-.842 2.047-.602.481-1.325.842-2.287.842-.843 0-1.565-.24-2.167-.602-.602-.361-1.083-.962-1.445-1.805l-.601-1.204h-.121l.241 3.13c.602.241 1.204.361 1.926.481.722.121 1.444.241 2.046.241.722 0 1.324-.12 1.926-.361.602-.241 1.083-.482 1.444-.963.362-.361.723-.843.963-1.324.241-.482.362-.963.362-1.565s-.121-1.083-.362-1.444c-.12-.602-.361-.963-.722-1.204zM294.363 302.548c-.361-.361-.723-.602-1.204-.843-.482-.24-.963-.481-1.565-.601-.481-.121-.842-.362-1.204-.482-.361-.12-.722-.361-.963-.602-.24-.241-.481-.481-.722-.722-.12-.241-.24-.602-.24-.963s.12-.602.24-.963c.121-.241.361-.481.602-.722s.482-.361.843-.482c.361-.12.722-.12 1.083-.12.481 0 .963.12 1.204.241.361.12.602.361.963.481l1.444 2.648h.12l-.12-3.37-.842.241c-.362-.121-.723-.241-1.204-.361-.482-.121-.963-.121-1.565-.121s-1.204.121-1.685.361c-.482.241-.963.482-1.324.843-.361.361-.602.722-.843 1.204-.241.481-.241.842-.241 1.324 0 .481.121.963.241 1.324.241.361.482.722.843.963.361.24.722.481 1.203.722.482.241.843.361 1.325.602.962.361 1.805.722 2.407 1.204.602.481.843 1.083.843 1.925 0 .843-.241 1.565-.843 2.047-.602.481-1.324.842-2.287.842-.843 0-1.565-.24-2.167-.602-.602-.361-1.083-.962-1.444-1.805l-.602-1.204h-.12l.24 3.13c.602.241 1.204.361 1.926.481.722.121 1.445.241 2.047.241.722 0 1.324-.12 1.925-.361.602-.241 1.084-.482 1.445-.963.361-.361.722-.843.963-1.324.241-.482.361-.963.361-1.565s-.12-1.083-.361-1.444c0-.602-.361-.963-.722-1.204zM310.252 299.78c-.361-.843-.843-1.565-1.445-2.167-.602-.602-1.324-1.083-2.287-1.445-.842-.361-1.805-.481-2.768-.481-.963 0-1.926.241-2.769.602-.842.361-1.565.842-2.287 1.565-.602.601-1.203 1.324-1.565 2.166-.361.843-.601 1.685-.601 2.528 0 .963.12 1.926.481 2.769.361.842.843 1.564 1.444 2.166.602.602 1.325 1.084 2.167 1.324.843.361 1.806.482 2.769.482.963 0 1.926-.241 2.768-.602.843-.361 1.685-.843 2.287-1.445.602-.601 1.204-1.324 1.565-2.166.361-.843.602-1.685.602-2.528.241-1.083 0-1.926-.361-2.768zm-2.889 7.462c-.843 1.084-2.046 1.686-3.491 1.686-.722 0-1.444-.121-2.046-.482-.602-.361-1.084-.722-1.565-1.324-.481-.602-.722-1.204-.963-2.046-.241-.843-.361-1.685-.361-2.648 0-2.047.481-3.732 1.324-4.815.843-1.204 2.046-1.685 3.491-1.685.722 0 1.444.12 2.046.481.602.361 1.083.722 1.565 1.324.481.602.722 1.204.963 2.047.241.842.361 1.685.361 2.648 0 2.166-.482 3.731-1.324 4.814z" fill="#000"/><path d="M325.177 296.409c.12 0 .361-.12.722-.12l1.083-.121v-.12h-4.092l-4.213 10.231-3.972-10.231h-3.972v.12h.601c.602 0 1.084.121 1.445.361l-.361 11.435c0 .241-.121.362-.241.482-.241.12-.602.241-1.324.241h-.482v.12h4.815v-.12h-.361c-.842 0-1.324-.121-1.565-.241-.24-.12-.361-.241-.361-.361l.241-11.195c0 .121.12.241.241.602l4.453 11.556h.241l4.815-12.037.241 11.435s0 .12-.121.12c-.12 0-.361.121-.722.121l-.963.12v.12h5.778v-.12h-.602c-.481 0-.843-.12-.963-.12s-.241-.121-.241-.121l-.24-11.916c-.121-.121-.121-.241.12-.241zM342.269 296.409c.121 0 .362-.12.723-.12l1.083-.121v-.12h-4.093l-4.212 10.231-3.973-10.231h-3.972v.12h.602c.602 0 1.083.121 1.444.361l-.361 11.435c0 .241-.12.362-.24.482-.241.12-.602.241-1.325.241h-.481v.12h4.815v-.12h-.361c-.843 0-1.324-.121-1.565-.241-.241-.12-.361-.241-.361-.361l.24-11.195c0 .121.121.241.241.602l4.454 11.556h.241l4.814-12.037.241 11.435s0 .12-.12.12c-.121 0-.361.121-.722.121l-.963.12v.12h5.777v-.12h-.601c-.482 0-.843-.12-.963-.12-.121 0-.241-.121-.241-.121l-.241-11.916c-.12-.121 0-.241.12-.241zM356.112 304.835l-.12.241c-.241.481-.361.963-.602 1.444-.241.482-.481.843-.842 1.083-.362.362-.723.602-1.204.723-.482.24-.963.24-1.685.24l-3.01-.12v-6.259h1.445c.602 0 .963 0 1.324.12.361 0 .602.121.843.241.24.12.361.241.481.481.12.241.12.482.241.843v.361h.12l.482-4.454h-.241l-.121.362c-.12.361-.24.601-.361.842-.12.241-.361.361-.481.482-.241.12-.482.24-.843.24s-.722.121-1.203.121h-1.686v-5.898h2.649c.601 0 1.083.12 1.564.24.361.121.723.361 1.084.602.24.241.481.602.722 1.084.241.361.481.962.602 1.444l.12.361h.12l-.361-3.852h-10.351v.121h.601c.602 0 .843.12.963.12.121 0 .241.12.241.12v11.917c0 .12-.361.241-1.083.361l-.722.12v.121h10.833l.842-4.093-.361.241z" fill="#000"/><path d="M369.353 308.807h-.24c-.241 0-.482-.12-.723-.12-.24 0-.361-.121-.601-.241-.121-.12-.362-.361-.482-.482-.12-.24-.361-.481-.602-.842l-3.009-4.454c.963-.12 1.805-.481 2.407-1.083.602-.602.963-1.204.963-2.046 0-1.084-.481-1.926-1.324-2.528-.842-.602-2.166-.843-3.972-.843h-5.657v.121h.842c.602 0 .843.12.963.12.121 0 .241.12.241.12v11.917s-.12.12-.361.12-.482.121-.722.121l-.963.12-.121.12h6.259v-.12h-.842c-.241 0-.602-.12-.843-.12-.24 0-.361-.121-.361-.121v-6.259c.241.12.482.12.722.241.241.12.482.12.843.12l3.731 6.139.121.361h3.852l-.121-.361zm-8.426-6.62c-.24 0-.481-.121-.842-.241v-5.657h.963c1.203 0 2.166.24 2.768.722.602.602.963 1.324.963 2.287 0 .963-.24 1.685-.842 2.166-.602.482-1.324.723-2.287.723h-.723z" fill="#000"/></svg>