<?xml version="1.0" encoding="UTF-8"?><svg id="_圖層_2" xmlns="http://www.w3.org/2000/svg" viewBox="0 0 200 200"><defs><style>.cls-1{fill:none;}</style></defs><g id="_圖層_3"><g><rect class="cls-1" width="200" height="200"/><g id="_0Y5vMo.tif"><g><path d="M127.75,59c0,.22,0,.44,0,.66,0,18.9,0,37.81,0,56.71,0,.22,0,.43,0,.68h-57.98c-.01-.12-.03-.24-.04-.36,0-.11,0-.22,0-.33,0-18.9,0-37.81,0-56.71,0-.22,.02-.44,.03-.66,19.33,0,38.66,0,57.99,0Zm-.47,.46h-57.08c-.1,.56-.08,56.81,.02,57.14h57.06V59.46Z"/><path d="M157.97,140.62h-1.5c-.07-.14-.15-.29-.22-.44-.78-1.64-1.56-3.28-2.32-4.93-.14-.31-.31-.47-.67-.43-.34,.03-.68,0-1.08,0v5.78h-1.53v-11.96c.06-.02,.13-.05,.2-.05,.99,0,1.98-.03,2.96-.01,.71,.01,1.4,.13,2.06,.42,1.56,.7,2.02,2.09,1.64,3.53-.24,.89-.9,1.41-1.7,1.77-.18,.08-.38,.14-.62,.23,.07,.17,.13,.33,.2,.47,.75,1.6,1.51,3.2,2.26,4.8,.1,.21,.2,.41,.31,.62v.19Zm-5.78-6.52c.96,.15,1.95,.06,2.63-.23,.98-.42,1.48-1.3,1.37-2.43-.09-.98-.75-1.74-1.77-1.92-.66-.11-1.34-.11-2.01-.16-.07,0-.14,.04-.23,.06v4.67Z"/><path d="M119,141c-.17-.06-.35-.14-.52-.18-1.8-.42-2.94-1.93-3.15-3.58-.05-.4-.08-.81-.08-1.22,0-2.27,0-4.55,0-6.83v-.58c.52-.05,1.01-.01,1.56-.02,0,.21,.02,.39,.02,.57,0,2.56,0,5.11,.02,7.67,0,.86,.3,1.63,.83,2.3,1.15,1.46,3.56,1.32,4.68,.07,.55-.61,.85-1.31,.96-2.11,.06-.5,.08-1,.08-1.5,0-2.23-.02-4.46-.03-6.68,0-.09,.02-.18,.03-.3h.83c.01,.15,.03,.29,.03,.42,0,2.6,0,5.21-.02,7.81-.01,1.78-1.26,3.39-2.97,3.86-.35,.1-.69,.18-1.04,.28h-1.22Z"/><path d="M40.29,128.57c.77,0,1.54,.02,2.3,.02,1.13,0,2.26,0,3.39,0h.5v.78h-4.53v4.39h3.96v.77h-3.95v5.32h4.51v.77h-6.18c0-4.02,0-8.03,0-12.05Z"/><path d="M128.15,140.62v-11.97c.07-.02,.12-.04,.16-.04,1.07-.01,2.13-.03,3.2-.02,.9,0,1.78,.13,2.62,.5,1.84,.8,2.93,2.21,3.34,4.15,.34,1.63,.1,3.2-.79,4.61-1.11,1.76-2.74,2.69-4.81,2.77-1.22,.05-2.44,0-3.71,0Zm1.57-.77c.66,0,1.3,.03,1.94,0,1.87-.12,3.12-1.11,3.77-2.85,.61-1.64,.56-3.29-.01-4.92-.36-1.03-1.05-1.78-2.05-2.21-1.13-.49-2.33-.59-3.55-.47-.03,0-.05,.03-.1,.06v10.39Z"/><path d="M113.25,140.6c-.64,0-1.17,0-1.7,0-.17,0-.24-.1-.3-.24-.18-.42-.36-.83-.54-1.25-.45-1.07-.89-2.14-1.33-3.21-.07-.17-.15-.34-.24-.53h-3.86c-.77,1.72-1.55,3.46-2.34,5.21h-.94c.04-.32,4.99-11.3,5.4-11.97h.6c1.73,3.95,3.47,7.92,5.25,11.99Zm-4.49-6.1c-.5-1.16-.99-2.29-1.52-3.52-.56,1.23-1.07,2.36-1.6,3.52h3.12Z"/><path d="M79.52,128.62h6.12c.01,.12,.03,.24,.04,.36,0,.11,0,.22-.02,.38-1.5,.06-3-.01-4.52,.04v4.36c1.29,.01,2.58,.02,3.9,.03,.02,.15,.04,.26,.04,.36,0,.11,0,.21-.02,.38h-3.92v5.32h4.48v.75h-6.1v-11.99Z"/><path d="M146.92,128.62v.73c-.49,.06-.98,.02-1.47,.03-.5,0-1,0-1.5,0h-1.56c-.04,1.47,0,2.9-.02,4.39h3.92v.76h-3.89v5.32h4.53v.7c-.33,.1-5.09,.14-6.08,.05-.1-.33-.12-11.41-.02-11.98h6.1Z"/><path d="M71.18,129.37v4.39h3.92v.76c-.64,.04-1.29,.01-1.94,.02-.64,0-1.28,0-1.95,0v5.31c.48,.03,.98,.01,1.47,.01,.5,0,1,0,1.51,0s1,0,1.54,0v.73h-6.1c-.1-.31-.13-11.39-.02-11.98h6.12v.75h-4.54Z"/><path d="M49.29,138.4c.28-.09,.5-.16,.76-.24,.09,.16,.16,.31,.24,.46,.91,1.6,3.14,1.98,4.49,.76,.72-.65,.86-1.75,.32-2.56-.46-.7-1.1-1.19-1.8-1.62-.58-.35-1.18-.66-1.73-1.04-.41-.28-.8-.61-1.14-.97-1.13-1.2-.74-2.73-.09-3.58,1.18-1.53,4.18-1.94,5.6-.03,.19,.26,.33,.55,.52,.87-.25,.13-.44,.22-.67,.34-.09-.16-.17-.31-.26-.45-.65-1.09-1.72-1.53-2.89-1.2-.97,.28-1.51,1.06-1.44,2.04,.03,.36,.15,.69,.41,.93,.46,.42,.94,.83,1.44,1.2,.43,.31,.91,.55,1.35,.85,.43,.29,.87,.57,1.25,.91,1.79,1.58,1.52,4.12-.58,5.26-1.3,.71-2.67,.77-4.02,.12-.86-.41-1.4-1.12-1.76-2.06Z"/><path d="M63.47,140.63c-.5,0-.92,0-1.34,0-.07,0-.15-.02-.27-.03v-11.21h-3.37v-.79c2.78,0,5.55,0,8.35,0v.78h-3.37v11.26Z"/><path d="M94.41,128.62h1.52c.07,.94,.02,1.88,.03,2.81,0,.93,0,1.85,0,2.78,0,.94,0,1.88,0,2.82,0,.92,0,1.84,0,2.82h4.53v.76h-6.09v-11.99Z"/><path d="M69.2,126.83v-.48h6.26c.01,.16,.02,.31,.03,.45-.35,.1-5.74,.12-6.29,.03Z"/><path d="M102.35,105.55c.36-.34,.67-.62,.98-.91,1.26-1.18,2.45-2.43,3.42-3.87,.88-1.32,1.51-2.74,1.76-4.32,.19-1.21,.04-2.37-.35-3.52-.18-.51-.48-.95-.9-1.3-.26-.21-.55-.23-.84-.15-.37,.1-.6,.56-.44,.9,.11,.24,.27,.47,.45,.65,.85,.83,1.06,1.86,.94,2.98-.16,1.63-.8,3.08-1.73,4.42-1.06,1.53-2.37,2.84-3.74,4.09-.24,.22-.48,.53-.77,.58-.26,.05-.58-.19-.86-.32-2.44-1.1-4.75-2.41-6.97-3.95,.07-.08,.11-.16,.17-.21,3.02-2.57,5.4-5.67,7.44-9.04,.32-.52,.64-1.04,.92-1.58,.15-.28,.33-.41,.64-.47,2.57-.54,5.07-1.28,7.51-2.25,5.2-2.05,9.81-5.03,13.84-8.9,.12-.12,.25-.23,.43-.39,.01,.19,.03,.31,.03,.43,0,7.97,0,15.94,0,23.91,0,.24-.03,.43-.27,.59-2.24,1.5-4.62,2.71-7.23,3.45-2.83,.8-5.7,1.03-8.61,.57-1.89-.3-3.75-.75-5.58-1.31-.06-.02-.12-.04-.25-.09Z"/><path d="M124.27,62.48v3.24c-.35-.05-.67-.1-1-.13-1.5-.14-2.94,.12-4.32,.71-.86,.37-1.69,.81-2.54,1.22-.17,.08-.33,.18-.5,.28-.12-.08-.22-.15-.32-.23-1.59-1.26-3.42-1.96-5.4-2.27-2.14-.34-4.29-.24-6.42,.11-2.93,.49-5.78,1.27-8.5,2.48-1.7,.76-3.29,1.69-4.62,3.03-.89,.9-1.55,1.92-1.84,3.17-.44,1.94,.27,3.61,2.01,4.59,.57,.32,1.19,.56,1.79,.83,.33,.15,.66,.29,.97,.47,.32,.18,.34,.36,.02,.55-.33,.2-.69,.38-1.06,.47-.94,.24-1.9,.41-2.84,.63-2.34,.56-4.59,1.36-6.79,2.34-1.51,.67-2.96,1.45-4.33,2.35-.07,.04-.13,.08-.25,.15-.6-.41-1.23-.82-1.84-1.26-1.1-.79-2.12-1.66-3.07-2.63-.2-.21-.28-.42-.28-.7,0-2.71,0-5.43,0-8.14,0-.26,.06-.48,.21-.7,1.65-2.39,3.69-4.38,6.04-6.07,2.13-1.53,4.46-2.68,6.88-3.63,.7-.28,1.37-.68,2.1-.82,.74-.14,1.53-.05,2.3-.05,10.98,0,21.96,0,32.94,0h.65Z"/><path d="M114.87,68.32c-.33,.21-.59,.38-.85,.54-2.62,1.69-4.88,3.78-6.89,6.15-2.22,2.6-4.08,5.45-5.71,8.44-.94,1.72-1.79,3.48-2.68,5.23-.11,.22-.23,.32-.49,.35-2.78,.32-5.57,.4-8.36,.26-2.73-.14-5.43-.52-8.05-1.32-.12-.04-.24-.08-.43-.14,.12-.15,.22-.28,.33-.39,1.36-1.45,2.97-2.55,4.74-3.42,1.85-.91,3.8-1.55,5.76-2.15,.42-.13,.85-.23,1.26-.39,.36-.14,.73-.3,1.04-.53,.46-.33,.5-.82,.15-1.27-.14-.18-.32-.34-.5-.49-1.47-1.18-1.87-2.73-1.5-4.51,.31-1.5,1.12-2.75,2.18-3.83,1.35-1.36,2.98-2.29,4.73-3,1.88-.76,3.82-1.32,5.84-1.57,2.12-.26,4.23-.19,6.29,.42,.95,.28,1.85,.7,2.67,1.25,.14,.1,.27,.2,.47,.35Z"/><path d="M98.07,90.13c-1.62,3.62-3.33,7.05-6,9.94-.36-.22-.7-.43-1.04-.65-1.12-.72-2.27-1.4-3.53-1.86-1.23-.45-2.5-.59-3.79-.34-.73,.14-1.36,.48-1.88,1.01-.79,.81-1.02,1.79-.67,2.86,.1,.32,.31,.62,.53,.87,.62,.67,1.42,1.08,2.3,1.3,2.44,.61,4.76,.27,6.96-.91,.44-.24,.87-.5,1.3-.74,2.43,1.54,4.85,3.08,7.29,4.63-1.01,.57-2.07,1.02-3.15,1.44-3.04,1.17-6.17,1.74-9.44,1.52-3.2-.22-5.96-1.36-8.21-3.68-1.47-1.51-2.24-3.33-2.41-5.43-.2-2.46,.34-4.76,1.41-6.96,.74-1.52,1.67-2.91,2.72-4.22,.05-.06,.1-.11,.18-.19,5.66,1.9,11.47,2.03,17.43,1.43Z"/><path d="M124.27,104.8v8.7c-.34,.09-50.49,.12-51.08,.02v-9.46c.28,.27,.49,.49,.71,.7,2.1,2.04,4.48,3.63,7.23,4.63,2.5,.91,5.08,1.24,7.72,1.11,3.01-.15,5.88-.9,8.62-2.13,.94-.42,1.86-.9,2.78-1.38,.29-.15,.5-.14,.77,0,2.19,1.13,4.48,2.02,6.9,2.57,4.54,1.03,8.78,.27,12.74-2.13,1.13-.68,2.2-1.46,3.2-2.32,.11-.1,.24-.18,.41-.32Z"/><path d="M124.3,66.85v.46c0,2.56,0,5.11,0,7.67,0,.32-.1,.56-.31,.79-3.91,4.3-8.53,7.6-13.83,9.96-2.2,.97-4.46,1.76-6.77,2.41-.15,.04-.3,.07-.55,.13,3.57-6.8,7.51-13.2,13.18-18.43,.08,.1,.17,.17,.24,.27,.67,1.02,.89,2.14,.73,3.33-.16,1.12-.59,2.15-1.34,3.01-.58,.67-1.26,1.17-2.19,1.22-.18,.01-.37,.05-.55,.12-.32,.13-.49,.42-.46,.74,.03,.31,.21,.52,.55,.63,.37,.12,.72,0,1.06-.09,.7-.19,1.28-.59,1.78-1.11,1.08-1.11,1.76-2.44,2.1-3.93,.31-1.33,.08-2.62-.41-3.87-.17-.42-.37-.83-.56-1.27,1.81-1.3,3.7-2.32,6-2.27,.43,0,.87,.03,1.33,.21Z"/><path d="M73.18,71.24v-8.68c.33-.1,11.15-.14,12.27-.04-4.85,1.94-8.95,4.73-12.17,8.76l-.09-.04Z"/><path d="M91.26,100.72c-1.08,.82-2.18,1.28-3.37,1.54-1.39,.3-2.77,.29-4.11-.23-.25-.1-.49-.21-.72-.34-.61-.35-.91-.9-.92-1.59,0-.71,.36-1.21,.96-1.55,.82-.46,1.71-.46,2.6-.33,.78,.11,1.53,.33,2.23,.69,1.09,.58,2.17,1.18,3.32,1.81Z"/><path d="M73.19,83.89c1.37,1.19,2.68,2.32,4.24,3.26-1.56,1.33-2.97,2.74-4.15,4.39-.13-.35-.19-6.37-.08-7.66Z"/></g></g></g></g></svg>