<?xml version="1.0" encoding="UTF-8"?><svg id="_圖層_2" xmlns="http://www.w3.org/2000/svg" viewBox="0 0 200 200"><defs><style>.cls-1{fill:none;}</style></defs><g id="_圖層_3"><g><rect class="cls-1" width="200" height="200"/><g id="rRPa0G"><g><path d="M184.72,95.12c-.56,0-.99,0-1.42,0-7.87,0-15.74,.02-23.61-.02-1.15,0-2.34-.11-3.43-.43-2.08-.61-3.19-2.23-3.2-4.33-.02-2.12,1.06-3.71,3.15-4.36,1.05-.32,2.19-.47,3.29-.48,6.02-.04,12.04-.02,18.06-.02,.46,0,.92,0,1.41,0,.06-1.41-.61-2.07-1.78-2.26-.55-.09-1.11-.08-1.67-.08-6.49,0-12.99,0-19.48,0-.5,0-1,0-1.58,0v-3.68c.46-.03,.88-.07,1.3-.07,7.1,0,14.19-.06,21.29,.04,1.59,.02,3.24,.4,4.75,.93,1.61,.57,2.83,1.84,2.89,3.64,.11,3.64,.03,7.29,.03,11.11Zm-5.74-6.05c-6.32,0-12.5-.03-18.68,.05-.49,0-1.29,.65-1.39,1.12-.17,.83,.62,1.09,1.36,1.16,.3,.02,.6,.02,.9,.02,5.5,0,11,0,16.5,0,.42,0,.83-.04,1.31-.07v-2.27Z"/><path d="M44.23,79.49v3.66c-.53,0-1.03,0-1.52,0-6.11,0-12.22,0-18.33,0-1.65,0-3.04,.46-3.88,2.3h23.69v3.52H20.63c.43,1.63,1.52,2.4,3.43,2.43,3.23,.04,6.45,.01,9.68,.01,3.44,0,6.88,0,10.42,0v3.62c-.45,.03-.9,.08-1.35,.08-6.32,0-12.65,.02-18.97-.01-1.24,0-2.5-.1-3.71-.36-3.74-.81-6-3.73-5.97-7.53,.03-3.74,2.3-6.6,5.97-7.41,1.08-.24,2.21-.39,3.32-.4,6.54-.04,13.08-.02,19.62-.02,.37,0,.75,.06,1.16,.09Z"/><path d="M83.8,79.46h5.75c0,1.16,0,2.26,0,3.36,0,2.15,.01,4.3,0,6.45,0,1.13,.47,1.87,1.64,1.88,5.85,.03,11.69,.01,17.72,.01v-11.68h5.75c.04,.35,.11,.68,.11,1,0,4.47-.02,8.95,.03,13.42,.01,.99-.32,1.23-1.26,1.22-7.66-.03-15.32,0-22.98-.04-1.1,0-2.25-.15-3.3-.47-2.2-.66-3.44-2.46-3.45-4.74-.01-3.44,0-6.87,0-10.44Z"/><path d="M184.6,103.2c.03,.5,.05,.87,.08,1.4-.52,.03-.97,.08-1.43,.08-55.82,0-111.65,0-167.47,0-.3,0-.65,.08-.89-.05-.24-.12-.5-.46-.5-.7,0-.24,.27-.61,.5-.69,.35-.12,.76-.05,1.15-.05,55.65,0,111.3,0,166.95,0h1.6Z"/><path d="M49.53,79.39h6.16c.04,.44,.09,.84,.1,1.25,.01,1.81,0,3.61,0,5.42,.01,2.88,1.35,4.25,4.25,4.32,1.42,.04,2.84,0,4.26,0,4.17,0,8.34,0,12.51,0,.46,0,.93,0,1.48,0v4.66c-.47,.03-.89,.07-1.31,.07-5.98,0-11.95,.02-17.93-.01-1.15,0-2.33-.08-3.46-.31-3.66-.75-5.83-3.15-6.04-6.87-.15-2.78-.03-5.58-.03-8.53Z"/><path d="M126.16,95.04h-5.76v-15.51c.31-.04,.64-.13,.96-.13,6.71-.03,13.43-.07,20.14-.06,.93,0,1.89,.19,2.79,.44,2.89,.82,4.13,2.78,3.75,5.93h-5.45c-.58-2.23-.68-2.31-3.09-2.31-4.38,0-8.77,0-13.35,0v11.63Z"/><path d="M129.69,118.14c.52-1.44,.87-2.59,1.37-3.67,.18-.4,.72-.63,1.1-.94,.24,.34,.63,.65,.7,1.02,.37,1.84,.67,3.7,.99,5.56-1.34,.59-1.39-.3-1.52-1.14-.13-.8-.31-1.59-.54-2.75-.46,1.25-.76,2.18-1.16,3.05-.19,.4-.6,.69-.91,1.03-.32-.33-.76-.6-.94-.99-.41-.88-.69-1.81-1.25-2.7-.18,.9-.41,1.79-.52,2.7-.11,.92-.52,1.18-1.5,.81,.37-2.02,.72-4.04,1.14-6.04,.05-.23,.48-.57,.67-.53,.35,.07,.81,.31,.93,.6,.5,1.18,.89,2.41,1.45,3.97Z"/><path d="M148.19,117.4v-3.68c1.02-.41,1.42-.16,1.4,.89-.04,1.84-.01,3.68-.01,5.49-.86,.42-1.37,.2-1.81-.49-.71-1.1-1.49-2.17-2.5-3.19v3.82h-1.36v-6.51c.71-.38,1.27-.24,1.75,.5,.72,1.11,1.5,2.18,2.25,3.26,.1-.03,.2-.05,.29-.08Z"/><path d="M47.35,116.98c-.04,1.9-1.77,3.55-3.72,3.54-2.02,0-3.74-1.7-3.71-3.68,.03-2,1.73-3.56,3.84-3.5,2.02,.06,3.63,1.69,3.6,3.63Zm-1.42-.11c-.02-1.28-1.02-2.23-2.32-2.23-1.34,0-2.38,1.06-2.32,2.38,.05,1.23,1.13,2.21,2.41,2.18,1.28-.03,2.26-1.05,2.24-2.33Z"/><path d="M113.74,120.52c-2.02-.02-3.74-1.73-3.7-3.69,.04-1.95,1.68-3.49,3.73-3.49,2.09,0,3.71,1.61,3.68,3.65-.03,1.92-1.73,3.54-3.71,3.53Zm2.35-3.6c0-1.25-1.01-2.26-2.29-2.29-1.36-.03-2.38,.97-2.36,2.32,.02,1.27,1.03,2.24,2.33,2.23,1.27,0,2.31-1.02,2.31-2.27Z"/><path d="M62.12,120.41c-2.48-.36-2.51-2.95-4.28-4.13,0,1.08-.03,2.06,.01,3.04,.04,.91-.35,1.16-1.28,.88v-6.52c.77-.35,1.31-.12,1.78,.62,.7,1.11,1.48,2.16,2.45,3.15v-3.82c.48-.03,.86-.05,1.32-.07v6.86Z"/><path d="M64.65,120.34v-6.81c1.77,.09,3.59-.44,4.91,1.24,.83,1.06,.94,2.89,.24,4.03-1.22,1.99-3.2,1.4-5.15,1.54Zm1.39-1.37c1.11,.09,2.2,.15,2.54-.94,.23-.73,.22-1.8-.18-2.37-.41-.58-1.43-.72-2.36-1.14v4.45Z"/><path d="M120.47,120.48c-.3-.28-.84-.55-.85-.84-.08-1.97-.04-3.94-.04-5.88,2.04-.54,3.55-.23,4.04,.83,.56,1.2,.06,2.07-1.05,2.77,.51,.94,1.01,1.87,1.53,2.85-2.21,.53-1.9-1.68-3.05-2.44-.05,.85-.1,1.65-.14,2.46-.15,.09-.29,.17-.44,.26Zm.6-4.01c.62-.43,1.01-.71,1.41-.98-.41-.27-.82-.54-1.5-.99,.04,.85,.06,1.22,.1,1.97Z"/><path d="M98.45,113.51c1.58,.19,3.23-.56,4.06,1.21,.52,1.1,.03,2-1.12,2.6,.53,.98,1.02,1.9,1.55,2.89-2.21,.53-1.91-1.66-3.13-2.51,0,.65,.08,1.22-.03,1.75-.06,.32-.41,.58-.62,.86-.24-.26-.68-.52-.69-.79-.06-1.93-.03-3.85-.03-6.01Zm1.75,1.14c-.12,.1-.24,.2-.36,.3,.02,.39,.04,.77,.07,1.56,.65-.47,1.03-.75,1.41-1.03-.38-.28-.75-.55-1.13-.83Z"/><path d="M141.61,120.51c-.43-.31-.83-.67-1.29-.93-.5-.28-1.04-.61-1.59-.65-.65-.05-1.44-.35-1.89,.61-.2,.43-.82,.65-1.25,.97-.13-.12-.26-.25-.39-.37,.84-2.05,1.64-4.11,2.52-6.13,.34-.77,1.45-.71,1.8,.09,.84,1.97,1.62,3.97,2.42,5.95-.11,.15-.22,.3-.33,.45Zm-2.14-2.94c-.27-.69-.5-1.28-.86-2.2-.37,.91-.61,1.49-.89,2.2h1.75Z"/><path d="M158.4,114.75c-.24,.22-.48,.45-.75,.72-1.77-1.03-3.53-1.6-4.56,.84-.37,.87-.05,1.79,.78,2.4,.98,.73,1.97,.63,3.83-.41,.24,.22,.52,.48,.8,.73-1.97,1.89-4.43,1.94-6,.27-1.32-1.41-1.22-3.71,.22-4.98,1.64-1.44,4.16-1.27,5.67,.44Z"/><path d="M49.35,113.6h1.36c0,1.4,0,2.76,0,4.12,0,.74,.08,1.46,1.04,1.43,.92-.02,1.04-.73,1.04-1.47,0-1.32,0-2.65,0-4.06,.47-.03,.82-.06,1.18-.09,.08,.2,.16,.31,.16,.43,0,1.42,.05,2.83,0,4.25-.05,1.34-1.01,2.26-2.29,2.3-1.27,.05-2.37-.8-2.46-2.11-.1-1.57-.02-3.15-.02-4.8Z"/><path d="M96.2,117.19c-.76,.04-1.47,.07-2.29,.11v1.68h2.21c.25,1.47-.57,1.71-3.63,1.19v-6.56h3.68c.29,.75,.2,1.23-.77,1.19-.21,0-.46-.06-.64,.02-.33,.14-.63,.37-.94,.56,.3,.2,.57,.44,.9,.59,.18,.08,.42,.03,.64,.01,.82-.07,1.12,.27,.84,1.22Z"/><path d="M160.55,113.6h3.61q.27,1.16-.96,1.2t-1.28,1.05c.78,.1,1.57,.18,2.35,.35,.09,.02,.07,.55,.11,.97-.86,.05-1.65,.1-2.5,.15v1.63c.82,.05,1.57,.09,2.31,.13,.22,1.37-.6,1.61-3.65,1.08v-6.56Z"/><path d="M33.79,119.07c.55-.61,.99-.78,1.64-.16,.22,.21,.82,0,1.24,0-.11-.36-.12-.81-.35-1.08-.38-.45-.92-.77-1.36-1.18-.78-.72-1.34-1.52-.57-2.57,.63-.85,1.91-.99,2.91-.34,.24,.16,.42,.39,.6,.56-.49,1.75-1.76-.34-2.56,.8,.55,.5,1.11,1.04,1.71,1.53,.78,.64,1.48,1.43,1,2.4-.31,.63-1.1,1.23-1.78,1.4-1.09,.27-1.93-.37-2.5-1.37Z"/><path d="M86.18,113.67c2.64-.43,3.94,.06,4.13,1.49,.19,1.37-.51,1.99-2.79,2.38-.04,.86-.08,1.74-.12,2.69h-1.23v-6.56Zm1.34,2.74c.63-.34,1.05-.53,1.41-.79,.04-.03-.15-.58-.34-.66-.3-.14-.69-.08-1.08-.11v1.57Z"/><path d="M106.35,115.77c.69,.55,2.3-.49,1.99,1.42-.67,.03-1.26,.06-2.01,.09-.04,.97-.09,1.93-.13,2.95h-1.24v-6.63h3.28c.42,.91,.06,1.23-.86,1.19-.69-.03-1.37-.03-1.03,.98Z"/><path d="M77.46,114.73q1.09-.09,1.29,1.48c.26,.03,.54,.06,.83,.1,.25,.03,.5,.07,.74,.1q.08,.94-1.25,1.16c-.44,.66-.76,1.15-1.09,1.64-.29-.47-.57-.95-1-1.66-.2-.02-.73-.08-1.31-.14-.41-1.67,1.07-.8,1.63-1.32,.04-.35,.09-.8,.15-1.36Z"/></g></g></g></g></svg>