<?xml version="1.0" encoding="UTF-8"?><svg id="_圖層_2" xmlns="http://www.w3.org/2000/svg" viewBox="0 0 200 200"><defs><style>.cls-1{fill:none;}</style></defs><g id="_圖層_3"><g><rect class="cls-1" width="200" height="200"/><g id="epIseB.tif"><g><path d="M15.88,83.75c1.85-.13,3.69-.33,5.54-.38,4.66-.1,9.33-.21,13.99-.16,2.81,.03,5.6,.47,8.23,1.61,4.27,1.85,5.38,5.57,4.52,9.09-.53,2.18-2.03,3.6-3.99,4.58-1.81,.91-3.77,1.29-5.77,1.47-.17,.02-.34,.03-.51,.05-.01,0-.02,.03,.01-.02,2.39,1.94,4.84,3.8,7.12,5.84,2.29,2.05,4.41,4.28,6.6,6.44-.04,.07-.08,.15-.13,.22-.23,.01-.46,.04-.68,.04-3.14,0-6.27-.01-9.41,.01-.53,0-.85-.17-1.17-.58-3.44-4.37-7.35-8.29-11.72-11.74-.48-.38-.69-.76-.64-1.36,.05-.58,.01-1.17,.01-1.91,.54,0,1.03,0,1.51,0,2.2-.04,4.39-.17,6.51-.82,.61-.19,1.21-.45,1.75-.76,1.35-.78,1.9-1.99,1.85-3.52-.04-1.5-.76-2.55-2.06-3.25-1.29-.7-2.71-.96-4.14-.95-2.59,.03-5.17,.19-7.76,.31-.14,0-.28,.06-.47,.11v24.47H15.88v-28.78Z"/><path d="M126.91,113.3c-4.78,0-8.85-.66-12.56-2.72-5.27-2.92-7.81-7.43-7.45-13.44,.34-5.65,3.41-9.5,8.42-11.89,4.2-2,8.7-2.45,13.29-2.16,3.08,.2,6.06,.83,8.85,2.17,4.15,2,7.09,5.07,8.06,9.67,1.52,7.22-1.77,13.41-8.65,16.39-3.36,1.46-6.9,1.98-9.96,1.97Zm-.58-25.61c-4.41,0-7.81,2.41-9.08,6.44-.59,1.88-.74,3.79-.51,5.75,.52,4.38,3.37,8.41,8.9,8.76,4.21,.26,7.93-1.63,9.58-5.81,.84-2.13,.99-4.33,.72-6.59-.62-5.15-4.42-8.55-9.61-8.54Z"/><path d="M184.75,112.5h-9.27c0-.32,0-.6,0-.89,0-3.52,0-7.03,0-10.55,0-.51-.09-.75-.68-.75-4.39,.02-8.79,.01-13.18,.01-.14,0-.29,.02-.56,.05v12.11h-9.25v-28.66h9.23v10.9h14.39v-10.88h9.32v28.67Z"/><path d="M105.1,110.27c-2.75,1.5-5.59,2.45-8.61,2.78-4.48,.5-8.92,.36-13.26-.98-3.44-1.06-6.47-2.78-8.74-5.65-4.2-5.31-4.13-15.04,3.88-19.97,3.06-1.89,6.43-2.86,9.97-3.22,4-.41,7.99-.32,11.91,.7,1.54,.4,3.03,.98,4.64,1.52-1,1.52-1.9,2.89-2.74,4.18-1.47-.47-2.84-1.05-4.27-1.35-2.93-.61-5.88-.67-8.79,.16-4.73,1.34-7.58,5.08-7.51,9.82,.07,4.8,2.93,8.5,7.67,9.7,4.25,1.08,8.43,.58,12.46-1.06,.6-.25,.85-.13,1.18,.35,.69,1.01,1.45,1.99,2.22,3.04Z"/><path d="M56.26,83.8h9.72v28.7h-9.72v-28.7Z"/></g></g></g></g></svg>