<?xml version="1.0" encoding="UTF-8"?><svg id="_圖層_2" xmlns="http://www.w3.org/2000/svg" viewBox="0 0 200 200"><defs><style>.cls-1{fill:none;}</style></defs><g id="_圖層_3"><g><rect class="cls-1" width="200" height="200"/><g id="psHlbd.tif"><g><path d="M100.4,59.76c.27,.02,.54,.06,.81,.06,6.79,.24,13.12,2.09,18.91,5.64,8.11,4.97,13.72,11.98,16.82,20.98,.93,2.69,1.53,5.46,1.81,8.29,.09,.92,.13,1.84,.2,2.77,.02,.25-.05,.33-.31,.36-1.74,.18-3.34-.28-4.88-1.04-1.21-.59-2.41-1.22-3.65-1.73-1.39-.58-2.87-.67-4.36-.43-.03,0-.06,.02-.12,.05,.04,.1,.08,.19,.13,.29,.41,.86,.83,1.72,1.22,2.59,.12,.27,.23,.39,.57,.36,1.5-.13,2.88,.32,4.19,1,.62,.32,1.24,.64,1.85,.97,1.66,.88,3.39,1.4,5.33,1.16-.03,.41-.05,.79-.08,1.18-.03,.41-.09,.82-.11,1.24-.01,.26-.1,.35-.36,.38-1.36,.15-2.62-.15-3.81-.77-.92-.49-1.83-1.01-2.76-1.49-1.04-.53-2.15-.83-3.32-.82-.1,0-.21,0-.32,0,.21,.96,.4,1.89,.61,2.81,.01,.06,.13,.15,.2,.15,1.29,.04,2.43,.53,3.52,1.17,.61,.36,1.22,.72,1.84,1.05,1.04,.55,2.14,.85,3.32,.79,.17,0,.35,0,.56,0-.09,.41-.18,.81-.28,1.21-.14,.55-.3,1.09-.42,1.64-.05,.22-.16,.26-.36,.27-1.05,.04-1.98-.33-2.86-.87-.68-.41-1.34-.85-2.03-1.24-.94-.53-1.96-.82-3.07-.77v2.55c.29,.03,.59,.06,.88,.11,.77,.13,1.47,.46,2.12,.88,.43,.28,.85,.57,1.28,.85,.92,.62,1.9,1.06,3.06,1.03,0,.07,0,.12-.02,.17-.37,.9-.75,1.81-1.12,2.71-.07,.17-.16,.19-.33,.16-.61-.1-1.12-.41-1.6-.77-.63-.46-1.24-.96-1.9-1.37-.78-.49-1.65-.64-2.61-.57-.13,.72-.26,1.43-.4,2.16,.36,.04,.71,.05,1.05,.11,.87,.15,1.55,.67,2.19,1.22,.28,.24,.54,.51,.85,.71,.47,.3,.97,.54,1.5,.83-.52,.86-1.07,1.78-1.65,2.74-.3-.23-.56-.42-.81-.63-.39-.33-.76-.69-1.15-1.02-.77-.66-1.64-1.1-2.69-1.18,.21-.75,.41-1.49,.6-2.19-.8-.14-1.57-.23-2.31-.41-1.51-.38-2.84-1.14-4.01-2.16-.08-.07-.16-.2-.14-.29,.12-.84-.1-1.62-.43-2.38-.56-1.27-1.43-2.33-2.27-3.42-.55-.72-1.08-1.45-1.63-2.17-.89-1.17-.96-2.49-.63-3.85,.3-1.26,.69-2.49,.97-3.75,.98-4.53-.29-8.4-3.53-11.66-.27-.27-.59-.49-.89-.73-.02,.02-.04,.04-.06,.06,.05,.07,.09,.15,.15,.22,1.34,1.76,2.41,3.64,2.92,5.81,.52,2.21,.3,4.38-.35,6.53-.36,1.2-.68,2.42-.97,3.65-.41,1.77,.04,3.36,1.1,4.8,.84,1.14,1.7,2.26,2.53,3.41,.56,.77,1.02,1.6,1.21,2.54,.22,1.04,.08,2.07-.31,3.04-.39,.99-.86,1.95-1.33,2.9-.15,.3-.12,.46,.12,.68,1.65,1.48,3.49,2.59,5.68,3.06,.46,.1,.95,.11,1.42,.12,.47,0,.8-.25,.99-.68,.14-.32,.3-.63,.4-.96,.08-.27,.25-.29,.47-.25,.75,.12,1.4,.48,1.95,.99,.59,.55,1.16,1.12,1.77,1.71-.63,.77-1.26,1.56-1.93,2.38-.33-.37-.62-.7-.92-1.03-.59-.65-1.24-1.22-2.08-1.54-.24-.09-.37-.06-.49,.18-.21,.43-.45,.84-.7,1.29,1.31,.45,2.05,1.49,2.87,2.52-.76,.72-1.5,1.43-2.28,2.18-.63-.86-1.26-1.7-2.17-2.3-.33,.43-.65,.85-1,1.29,.78,.57,1.32,1.32,1.82,2.17-.94,.69-1.85,1.37-2.82,2.08-.05-.21-.09-.36-.12-.51-.26-1.12-.86-2.08-1.5-3.02-.72-1.05-1.48-2.07-2.16-3.15-.63-.99-.99-2.08-.93-3.27,.02-.4,.1-.79,.17-1.27-.63,1.04-1.07,2.04-1.01,3.21,.06,1.29,.61,2.41,1.24,3.5,.6,1.04,1.22,2.06,1.81,3.1,.38,.68,.62,1.41,.74,2.18,.03,.2,0,.32-.19,.42-.59,.31-1.16,.64-1.74,.96-.08,.05-.17,.08-.28,.12-.13-1.81-.91-3.36-1.69-4.92-.6-1.21-1.21-2.41-1.76-3.64-.65-1.45-.59-2.91,.15-4.31,.58-1.09,1.26-2.14,1.86-3.22,.52-.95,1.06-1.9,1.48-2.9,.73-1.73,.61-3.47-.39-5.06-.74-1.17-1.63-2.26-2.42-3.4-.5-.73-1.01-1.48-1.41-2.27-.59-1.18-.45-2.45-.12-3.67,.31-1.15,.73-2.27,1.11-3.41,.52-1.55,.82-3.13,.76-4.77-.11-2.95-1.23-5.49-3.21-7.65-.57-.62-1.2-1.17-2-1.51,.09,.12,.19,.24,.28,.36,1.25,1.57,2.31,3.24,2.81,5.21,.68,2.65,.43,5.23-.55,7.77-.49,1.26-.93,2.55-1.28,3.86-.59,2.14-.21,4.14,1.15,5.93,.78,1.02,1.57,2.03,2.33,3.07,.77,1.07,1.31,2.24,1.22,3.6-.08,1.19-.54,2.26-1.15,3.26-.76,1.26-1.56,2.49-2.31,3.75-.57,.95-.98,1.96-1.12,3.07-.14,1.19,.15,2.3,.65,3.35,.61,1.27,1.29,2.51,1.94,3.77,.6,1.15,1.14,2.33,1.36,3.62,.06,.32,.08,.65,.1,.97,0,.08-.04,.22-.1,.24-.83,.35-1.66,.68-2.55,1.04,.16-1.73-.35-3.24-1.01-4.7-.27-.6-.59-1.19-.88-1.78-.53-1.08-1.08-2.16-1.59-3.25-.85-1.82-.75-3.62,.25-5.35,.72-1.24,1.54-2.43,2.26-3.67,.49-.84,.97-1.71,1.32-2.61,.65-1.67,.49-3.32-.46-4.85-.52-.83-1.14-1.59-1.72-2.38-.3-.4-.61-.8-.91-1.2-1.4-1.84-1.74-3.9-1.07-6.08,.37-1.21,.88-2.38,1.36-3.56,.52-1.26,1.02-2.52,1.21-3.88,.33-2.35-.09-4.57-1.17-6.67-.78-1.51-1.87-2.77-3.23-3.8-.09-.07-.24-.07-.37-.1,.02,.13,0,.3,.08,.4,1.09,1.39,1.94,2.91,2.37,4.64,.69,2.76,.44,5.43-.74,8.02-.59,1.3-1.16,2.63-1.67,3.96-1.13,2.94-.77,5.67,1.24,8.15,.57,.7,1.12,1.42,1.64,2.15,.74,1.04,1.17,2.18,1.09,3.48-.06,.96-.35,1.87-.83,2.69-.77,1.29-1.63,2.52-2.39,3.81-.52,.89-1.01,1.8-1.38,2.76-.6,1.55-.37,3.11,.28,4.6,.57,1.31,1.21,2.58,1.82,3.86,.56,1.18,1.1,2.37,1.37,3.65,.16,.78,.23,1.57,.1,2.37-.01,.09-.09,.22-.16,.24-.86,.21-1.73,.41-2.63,.61,0-.14,0-.22,0-.3,.24-1.94-.13-3.8-.89-5.57-.65-1.53-1.4-3.02-2.08-4.53-.37-.82-.67-1.68-.75-2.59-.11-1.24,.23-2.38,.83-3.44,.66-1.15,1.4-2.26,2.12-3.37,.67-1.03,1.35-2.06,1.78-3.22,.63-1.7,.45-3.32-.56-4.82-.59-.89-1.27-1.71-1.9-2.57-.67-.91-1.14-1.92-1.32-3.05-.13-.79-.55-1.04-1.33-.85-.67,.17-1.34,.36-2.03,.49-1.01,.18-2.01,.06-3-.23-.37-.11-.75-.23-1.13-.29-.53-.09-.98,.2-1.05,.73-.21,1.54-.98,2.79-1.92,3.97-.43,.54-.86,1.1-1.25,1.67-1.15,1.68-1.35,3.48-.49,5.32,.49,1.04,1.12,2.01,1.71,3,.73,1.22,1.53,2.4,2.22,3.65,.53,.94,.74,1.99,.64,3.09-.09,.89-.38,1.72-.74,2.52-.67,1.46-1.39,2.9-2.03,4.38-.67,1.54-1.05,3.15-1.01,4.85,.01,.37,.06,.73,.09,1.16-.42-.08-.82-.15-1.22-.24-.44-.09-.87-.21-1.3-.3-.22-.05-.29-.15-.31-.37-.19-1.71,.28-3.28,.97-4.8,.69-1.51,1.47-2.99,2.12-4.51,.35-.81,.59-1.68,.75-2.55,.23-1.2-.06-2.38-.63-3.44-.59-1.12-1.3-2.18-1.95-3.27-.61-1.04-1.3-2.04-1.8-3.13-.84-1.8-.67-3.59,.47-5.23,.63-.92,1.35-1.79,2.02-2.69,.75-1.02,1.32-2.12,1.53-3.38,.25-1.49,.03-2.94-.5-4.32-.6-1.56-1.31-3.08-1.92-4.64-1.68-4.23-1.03-8.16,1.64-11.79,.08-.11,.18-.2,.23-.31,.05-.11,.04-.23,.06-.35-.12,.02-.27,0-.35,.06-.51,.44-1.04,.86-1.5,1.36-2.05,2.25-3.1,4.91-3.04,7.97,.03,1.73,.59,3.32,1.26,4.9,.5,1.19,1.02,2.38,1.4,3.61,.75,2.36,.29,4.53-1.26,6.47-.63,.78-1.24,1.57-1.84,2.38-.65,.87-1.16,1.81-1.34,2.91-.21,1.24,.01,2.42,.57,3.52,.56,1.1,1.24,2.14,1.87,3.21,.55,.94,1.15,1.85,1.65,2.81,.76,1.48,.85,3.03,.17,4.57-.52,1.18-1.1,2.34-1.68,3.49-.68,1.35-1.39,2.68-1.75,4.17-.19,.76-.29,1.54-.18,2.36-.11-.03-.19-.04-.26-.07-.7-.27-1.4-.55-2.1-.8-.25-.09-.32-.23-.3-.48,.09-1.25,.47-2.41,1.02-3.52,.67-1.33,1.41-2.63,2.05-3.97,.37-.76,.67-1.56,.89-2.37,.32-1.16,.15-2.33-.35-3.41-.46-.97-1.01-1.9-1.55-2.83-.64-1.11-1.37-2.18-1.95-3.32-.97-1.91-.84-3.79,.4-5.55,.73-1.04,1.53-2.03,2.29-3.05,.68-.91,1.27-1.88,1.51-3.01,.27-1.27,.11-2.52-.25-3.74-.35-1.2-.8-2.36-1.22-3.54-.48-1.34-.84-2.7-.88-4.13-.07-2.89,.8-5.48,2.53-7.79,.31-.41,.63-.82,.92-1.25-.69,.32-1.27,.79-1.78,1.33-2.44,2.58-3.61,5.62-3.38,9.18,.1,1.59,.59,3.09,1.14,4.57,.39,1.05,.75,2.11,.9,3.23,.16,1.18,.05,2.32-.61,3.33-.7,1.06-1.48,2.07-2.22,3.11-.41,.58-.83,1.15-1.21,1.74-1.13,1.79-1.26,3.68-.38,5.6,.45,.98,1.01,1.92,1.55,2.87,.48,.84,.99,1.66,1.48,2.5,.99,1.72,1.02,3.47,.15,5.24-.62,1.27-1.26,2.53-1.89,3.79-.53,1.06-1.01,2.14-1.24,3.32-.06,.3-.09,.6-.14,.95-.38-.2-.75-.39-1.12-.59-.31-.17-.6-.35-.91-.51-.16-.08-.2-.18-.17-.36,.19-1.24,.77-2.32,1.39-3.39,.66-1.14,1.36-2.25,1.93-3.44,.85-1.77,.62-3.5-.53-5.21,.04,.22,.07,.34,.09,.47,.29,1.48-.06,2.84-.84,4.09-.66,1.06-1.41,2.07-2.12,3.1-.74,1.07-1.42,2.17-1.64,3.58-.97-.71-1.9-1.39-2.84-2.08,.49-.84,1.05-1.57,1.81-2.17-.33-.43-.66-.85-1-1.29-.92,.55-1.54,1.38-2.16,2.3-.76-.73-1.51-1.44-2.29-2.18,.82-1.02,1.54-2.09,2.87-2.52-.27-.5-.53-.99-.81-1.46-.03-.05-.21-.05-.31-.02-.68,.22-1.24,.63-1.73,1.13-.45,.46-.87,.94-1.34,1.44-.64-.79-1.29-1.58-1.93-2.38,.73-.68,1.42-1.33,2.13-1.95,.45-.39,1-.61,1.58-.73,.28-.06,.47-.03,.56,.29,.09,.31,.24,.6,.37,.91,.18,.43,.5,.66,.98,.69,1,.06,1.94-.19,2.86-.55,1.61-.62,3.04-1.54,4.31-2.71,.2-.18,.21-.32,.08-.55-.62-1.14-1.21-2.29-1.55-3.55-.37-1.39-.3-2.74,.48-3.97,.69-1.1,1.49-2.14,2.25-3.2,.43-.6,.87-1.2,1.27-1.82,.85-1.27,1.07-2.69,.75-4.16-.32-1.43-.73-2.84-1.13-4.25-1.05-3.75-.37-7.21,1.74-10.43,.31-.47,.65-.92,.98-1.38,.05-.08,.11-.15,.16-.23-.02-.02-.04-.04-.06-.07-.2,.15-.41,.29-.6,.45-2.29,2.06-3.67,4.62-4.07,7.67-.27,2.04,.09,4.03,.68,5.98,.33,1.1,.64,2.21,.7,3.37,.04,.77-.14,1.48-.56,2.1-.66,.97-1.37,1.91-2.08,2.84-.82,1.09-1.67,2.15-2.17,3.44-.26,.66-.42,1.35-.31,2.07,.01,.09-.05,.23-.13,.3-1.57,1.38-3.38,2.23-5.48,2.45-.29,.03-.58,.05-.9,.08,.2,.75,.4,1.48,.61,2.24-1.49,.11-2.54,.97-3.55,1.92-.33,.31-.69,.59-1.1,.93-.59-.98-1.14-1.89-1.71-2.85,.24-.07,.45-.09,.61-.19,.51-.32,1.01-.67,1.51-1.02,.22-.16,.41-.35,.62-.53,.83-.7,1.77-1.09,2.92-1.01-.08-.46-.16-.9-.24-1.33-.03-.18-.09-.36-.09-.55,0-.27-.12-.33-.38-.34-1.13-.02-2.11,.36-3,1.02-.46,.35-.91,.71-1.37,1.06-.43,.32-.9,.57-1.45,.64-.09,.01-.24-.03-.27-.08-.42-.96-.83-1.93-1.26-2.95,1.45,.05,2.55-.62,3.62-1.37,.78-.55,1.58-1.1,2.53-1.32,.4-.09,.81-.14,1.25-.21v-2.52c-.62-.07-1.26-.01-1.83,.23-.77,.32-1.51,.72-2.24,1.11-.51,.27-.98,.61-1.48,.9-.75,.43-1.56,.66-2.43,.61-.11,0-.28-.1-.3-.19-.25-.91-.47-1.83-.7-2.75-.01-.04,0-.09,0-.15,.05-.01,.1-.03,.15-.03,1.61,.15,3.04-.37,4.4-1.18,.62-.37,1.24-.73,1.87-1.07,.91-.49,1.89-.76,2.94-.76,.22-.98,.44-1.95,.66-2.94-1.05-.07-2.05,.09-2.98,.51-.88,.4-1.73,.86-2.58,1.33-.96,.53-1.92,1.05-3.01,1.19-.58,.07-1.17,.03-1.76,.02-.08,0-.21-.11-.21-.18-.1-.85-.18-1.7-.28-2.58,.57,0,1.1,.03,1.63,0,1.17-.07,2.25-.46,3.29-.98,1.08-.54,2.15-1.11,3.24-1.61,1.04-.48,2.16-.67,3.31-.57,.25,.02,.35-.06,.45-.29,.39-.88,.82-1.75,1.24-2.62,.05-.11,.11-.21,.18-.35-.79-.17-1.57-.19-2.35-.12-1.42,.12-2.71,.67-3.97,1.3-1.11,.55-2.22,1.11-3.36,1.57-1.11,.45-2.3,.54-3.5,.38-.04,0-.08-.02-.17-.04,.03-.69,.05-1.39,.1-2.08,.18-2.23,.51-4.43,1.09-6.59,3.03-11.24,9.74-19.55,20-25,3.47-1.84,7.18-3.03,11.05-3.71,1.92-.34,3.86-.53,5.81-.57,.13,0,.26-.03,.39-.05,.39,0,.78,0,1.18,0Zm13.53,11.51c-3.47,.39-6.5,1.54-8.97,4-.55-1.46-1.08-2.86-1.63-4.25-.09-.22-.06-.34,.12-.5,1.11-.97,2.2-1.95,3.3-2.92,.1-.09,.18-.18,.32-.32-1.68-.12-3.27-.24-4.87-.33-.23-.01-.34-.08-.43-.3-.58-1.37-1.17-2.74-1.76-4.1-.05-.12-.11-.25-.2-.44-.09,.2-.15,.32-.2,.45-.59,1.37-1.18,2.74-1.78,4.1-.05,.12-.19,.26-.29,.27-.98,.09-1.95,.14-2.93,.21-.67,.05-1.33,.1-2,.15-.02,.03-.03,.06-.05,.09,.08,.05,.17,.1,.24,.16,1.1,.97,2.19,1.96,3.3,2.92,.24,.21,.26,.38,.15,.66-.49,1.24-.96,2.49-1.43,3.74-.05,.13-.11,.25-.17,.41-1.22-1.2-2.58-2.12-4.12-2.77-1.52-.65-3.1-1.05-4.76-1.2,.62,1.08,1.25,2.1,1.79,3.16,.54,1.06,.98,2.17,1.47,3.26-.03,.02-.06,.04-.09,.06-2.12-1.66-4.54-2.53-7.28-2.73,.08,.13,.12,.19,.17,.25,1.63,2.13,3.06,4.39,4.19,6.83,.19,.41,.39,.47,.81,.26,3.47-1.69,7.12-2.7,10.98-2.95,2.76-.18,5.5,0,8.21,.58,2.36,.51,4.62,1.3,6.78,2.37,.44,.22,.64,.15,.83-.28,1.08-2.39,2.48-4.59,4.08-6.67,.08-.11,.16-.22,.28-.39-2.75,.21-5.17,1.07-7.37,2.79,.83-2.36,1.92-4.47,3.31-6.55Zm-15.53,19.49s-.09,.03-.14,.04c-.22-.12-.46-.24-.67-.38-.35-.22-.72-.29-1.12-.16-.18,.06-.35,.12-.53,.17-.8,.24-1.56,.27-2.33-.15-.74-.4-1.36-.06-1.44,.79-.05,.59-.08,1.2,.02,1.79,.46,2.87,1.8,5.27,4.01,7.16,2.27,1.94,4.69,1.99,7.04,.16,1.88-1.47,3.1-3.42,3.83-5.67,.35-1.06,.56-2.15,.4-3.27-.06-.41-.17-.79-.55-1.02-.21-.13-.4-.16-.63,0-.21,.15-.46,.26-.71,.32-.62,.15-1.25,.13-1.86-.1-1-.39-1.09-.34-1.58,.63-.1,.2-.22,.41-.37,.57-.24,.26-.38,.21-.49-.12-.35-1.05-.34-2.13-.26-3.22,.08-1.22,.8-1.85,1.83-2.23,1.35-.5,2.7-.47,4.05,0,.11,.04,.25,.03,.37,.04,0-.12,.03-.25,0-.36-.3-.95-.85-1.73-1.56-2.41-2.71-2.59-7.56-2.96-10.79-.81-1.2,.8-2.13,1.82-2.58,3.22-.03,.1,0,.22,0,.33,.1,0,.21,.02,.3-.02,.78-.32,1.59-.43,2.43-.39,1.13,.06,2.16,.39,2.99,1.19,.17,.16,.3,.41,.35,.63,.1,.51,.18,1.03,.17,1.55,0,.58-.12,1.16-.19,1.73Zm-36.76,3.99c.5,.06,.93,.16,1.36,.16,1.1,.02,2.12-.31,3.12-.73,1.2-.51,2.38-1.07,3.59-1.56,1.72-.69,3.49-.9,5.3-.35,.28,.09,.41,.03,.58-.2,1.98-2.8,4.34-5.22,7.12-7.22,.08-.06,.16-.13,.29-.23-3.33-1.24-6.42-.76-9.37,1-.03-.11-.05-.19-.07-.28-.39-1.93-1.22-3.65-2.56-5.09-.43-.46-.93-.85-1.42-1.25-.11-.09-.36-.16-.46-.1-.12,.07-.17,.29-.23,.45-.03,.08,0,.17,0,.26,.12,2.35-.37,4.58-1.31,6.72-1.09,2.49-2.66,4.66-4.42,6.7-.47,.55-.96,1.09-1.52,1.71Zm64.39-9.13c-2.98-1.77-6.06-2.2-9.34-.96,.02,.06,.08,.07,.13,.11,2.87,2.04,5.27,4.54,7.28,7.42,.06,.08,.24,.14,.34,.11,1.74-.54,3.47-.43,5.15,.21,1.33,.51,2.62,1.11,3.93,1.67,.98,.41,1.98,.74,3.05,.73,.44,0,.88-.1,1.41-.16-.19-.21-.3-.34-.41-.45-1.4-1.51-2.71-3.1-3.83-4.82-2-3.08-3.24-6.39-3.01-10.13,0-.14-.08-.37-.19-.43-.11-.06-.34,0-.46,.1-1.25,.88-2.21,2.02-2.92,3.37-.54,1.01-.9,2.09-1.11,3.25Zm-29.12,3c-.04-.46-.27-.74-.57-.97-.94-.7-2-.93-3.14-.7-.38,.08-.75,.25-.81,.69-.06,.45,.13,.82,.48,1.1,1.32-.92,2.67-.49,4.05-.12Zm6.19-.06c1.26-.31,2.52-.74,3.68,.19,.71-.69,.59-1.5-.25-1.72-1.16-.3-2.27-.13-3.23,.63-.32,.25-.36,.45-.2,.89Z"/><path d="M126.08,135.56v3.41h-.55v-4.23c.26,0,.52-.02,.77,.01,.08,0,.18,.13,.22,.23,.36,.89,.7,1.78,1.05,2.67,.05,.12,.1,.24,.17,.42,.07-.16,.12-.26,.16-.37,.36-.91,.71-1.82,1.07-2.73,.08-.2,.81-.35,.93-.18,.06,.08,.05,.21,.05,.31,0,1.15,0,2.31,0,3.46,0,.48,0,.48-.54,.4v-3.46s-.06-.02-.09-.03c-.04,.1-.09,.19-.13,.29-.39,.99-.78,1.98-1.18,2.97-.05,.11-.19,.23-.3,.25-.08,.01-.22-.14-.26-.24-.4-.95-.78-1.91-1.17-2.87-.04-.11-.09-.21-.14-.32-.02,0-.05,0-.07,.01Z"/><path d="M124.89,134.73v.48h-1.36c-.01,.16-.03,.28-.03,.4,0,.98,0,1.96,0,2.94q0,.48-.53,.42c0-.11-.02-.22-.02-.34,0-1.02,0-2.04,0-3.07,0-.28-.09-.36-.35-.35-.33,.02-.67,0-.99,0-.1-.47-.08-.49,.34-.49,.87,0,1.74,0,2.61,0,.11,0,.21,0,.34,0Z"/><path d="M99.85,73.34c1.33,1.02,2.64,2.01,3.94,3.01,.07,.05,.1,.15,.14,.23-.1,.02-.2,.08-.29,.07-1.89-.32-3.78-.39-5.69-.23-.62,.05-1.23,.15-1.84,.22-.11,.01-.22-.02-.33-.03,.06-.1,.1-.23,.19-.29,1.28-.99,2.57-1.97,3.88-2.97Z"/><path d="M96.66,96.25c.21-.06,.35-.14,.47-.11,1.79,.31,3.57,.31,5.36,0,.12-.02,.26,.06,.39,.09,.01,.04,.02,.08,.03,.12-.57,.55-1.08,1.16-1.71,1.63-.89,.68-2.17,.59-3.02-.16-.51-.45-.96-.98-1.52-1.56Z"/><path d="M99.84,94.81c-.4-.12-.76-.23-1.11-.34-.21-.06-.42-.13-.61-.21-.08-.03-.17-.12-.18-.2-.01-.07,.06-.19,.12-.23,.39-.24,.79-.36,1.27-.24,.32,.08,.69,.06,1.02-.01,.48-.1,.88,0,1.27,.25,.19,.12,.19,.34,0,.41-.58,.2-1.17,.38-1.76,.57Z"/></g></g></g></g></svg>