<?xml version="1.0" encoding="UTF-8"?><svg id="_圖層_2" xmlns="http://www.w3.org/2000/svg" viewBox="0 0 200 200"><defs><style>.cls-1{fill:none;}</style></defs><g id="_圖層_3"><g><rect class="cls-1" width="200" height="200"/><g id="r08PKT"><g><path d="M182.9,95.12c-.51,.98-1.03,1.97-1.54,2.95-1.99,3.87-3.99,7.74-5.98,11.61-.2,.38-.36,.69-.91,.68-.56,0-.7-.34-.88-.72-2.29-4.69-4.58-9.37-6.88-14.05-.06-.12-.13-.23-.34-.34v16.3h-4.22v-23.21c1.83,0,3.63-.01,5.43,.02,.17,0,.39,.31,.49,.53,2.12,4.42,4.24,8.84,6.35,13.26,.09,.18,.2,.36,.37,.67,.7-1.35,1.34-2.58,1.98-3.83,1.71-3.34,3.42-6.67,5.12-10.01,.24-.47,.52-.68,1.08-.66,1.49,.05,2.98,.02,4.53,.02v23.22h-4.42v-16.39c-.06-.02-.11-.03-.17-.05Z"/><path d="M66.65,92.66h-15.59v5.1h10.54v4.29h-10.53v5.14h15.8v4.34h-20.7v-23.14h20.48v4.27Z"/><path d="M130.83,91.38c-.62,1.23-1.22,2.44-1.74,3.48-1.6-.8-3.07-1.74-4.68-2.31-2.26-.8-4.64-.88-6.98-.25-.69,.18-1.36,.57-1.93,1-.64,.48-.91,1.2-.7,2.03,.21,.84,.83,1.23,1.59,1.33,1.66,.22,3.33,.35,5,.5,2.04,.18,4.07,.41,5.98,1.23,2.23,.96,3.86,2.43,4.19,4.97,.36,2.76-.8,4.85-2.97,6.43-1.79,1.3-3.85,1.92-6.02,2.11-3.78,.33-7.44-.08-10.82-1.97-.5-.28-.98-.61-1.47-.92-.09-.05-.16-.13-.28-.24,.55-1.3,1.1-2.59,1.69-3.97,.29,.2,.51,.36,.73,.51,3.43,2.28,7.14,3.22,11.21,2.24,.72-.17,1.41-.57,2.02-.99,.76-.52,1.13-1.3,.93-2.26-.2-.95-.89-1.45-1.76-1.58-1.4-.21-2.82-.26-4.22-.43-2.1-.26-4.26-.35-6.28-.91-5.69-1.6-5.18-8.07-2.15-10.75,1.95-1.72,4.29-2.4,6.78-2.58,4.14-.3,7.94,.81,11.44,3.01,.13,.08,.24,.19,.4,.33Z"/><path d="M84.2,111.54h-4.8v-23.17c.26-.01,.52-.04,.77-.04,4.12,0,8.24-.06,12.36,.03,1.39,.03,2.83,.29,4.15,.73,2.79,.93,4.26,2.98,4.31,5.65,.06,3.17-1.28,5.43-4.1,6.49-1.25,.47-2.64,.72-3.97,.78-2.59,.12-5.2,.03-7.8,.03-.28,0-.56,0-.93,0v9.49Zm.06-19.34v5.87c2.76,0,5.46,.05,8.16-.03,.84-.02,1.71-.3,2.49-.63,1.16-.49,1.68-1.65,1.42-2.85-.3-1.42-1.39-2.01-2.63-2.09-2.82-.18-5.65-.19-8.48-.27-.31,0-.61,0-.96,0Z"/><path d="M14.98,88.37h4.76v18.53h15.61v4.64H14.98v-23.17Z"/><path d="M148.68,111.54h-4.81v-23.15h4.81v23.15Z"/></g></g></g></g></svg>