<?xml version="1.0" encoding="utf-8"?>
<!-- Generator: Adobe Illustrator 25.4.1, SVG Export Plug-In . SVG Version: 6.00 Build 0)  -->
<svg version="1.1" id="レイヤー_1" xmlns="http://www.w3.org/2000/svg" xmlns:xlink="http://www.w3.org/1999/xlink" x="0px"
	 y="0px" viewBox="0 0 500 500" style="enable-background:new 0 0 500 500;" xml:space="preserve">
<g>
	<path d="M196.4,286.6c-19.9,0-35.4-16-35.4-36.6s15.6-36.6,35.4-36.6c19.3,0,35.2,16.6,35.2,36.6S215.8,286.6,196.4,286.6z
		 M196.4,196.9c-6.3,0-12.6,1-18.5,3.2c-5.8,2.2-11.2,5.4-15.8,9.5c-8.6,7.8-14.5,18.1-16.7,29.5V199H129v102h13.4l9.1-24.9
		c8.5,16.8,25.6,27,44.9,27c28.2,0,51-23.8,51-53.1S224.6,196.9,196.4,196.9z"/>
	<path d="M358.9,195L325,228.8l11.7,11.7l33.8-33.8L358.9,195z"/>
	<path d="M325.4,271.6l33.4,33.4l11.7-11.7L272.3,195l-11.7,11.7l33.4,33.5c0.3,0.3,4.6,4.6,4.9,4.9c1.4,1.7,2.1,2.9,2.1,4.8
		s-0.7,3.2-2.1,4.9c-0.3,0.3-4.6,4.6-4.9,4.9l-33.4,33.4l11.7,11.7l33.4-33.4c0.3-0.3,4.6-4.6,4.9-4.9c1.7-1.4,2.9-2.1,4.9-2.1
		c1.9,0,3.2,0.7,4.9,2.1C320.7,266.9,325.1,271.3,325.4,271.6z"/>
</g>
</svg>
