<?xml version="1.0" encoding="utf-8"?>
<!-- Generator: Adobe Illustrator 25.4.1, SVG Export Plug-In . SVG Version: 6.00 Build 0)  -->
<svg version="1.1" id="レイヤー_1" xmlns="http://www.w3.org/2000/svg" xmlns:xlink="http://www.w3.org/1999/xlink" x="0px"
	 y="0px" viewBox="0 0 500 500" style="enable-background:new 0 0 500 500;" xml:space="preserve">
<path d="M71.3,263.6v-20l-8.2,20h-4.6l-8.2-19.9v19.9H45v-28.5h7.3l8.5,20.6l8.3-20.6h7.5v28.5H71.3z M98,249.2
	c-0.6-0.1-1.2-0.1-1.6-0.1c-2.8,0-5.1,1.3-5.1,5.5v9H86v-19.7h5.2v2.9c1.2-2.7,3.9-3.1,5.7-3.1c0.5,0,0.8,0,1.3,0.1v5.4H98z
	 M106.7,256.6c2.1,0,3.7,1.6,3.7,3.7c0,2-1.6,3.7-3.7,3.7c-2,0-3.7-1.6-3.7-3.7C103,258.3,104.7,256.6,106.7,256.6z M182.9,263.6
	v-11.8h-12.5v11.8h-5.5v-28.5h5.5v11.4h12.5v-11.4h5.5v28.5H182.9z M202.6,263.6v-28.5h17.9v5.2h-12.4v6.5h11.1v5h-11.1v6.6h12.4
	v5.2h-17.9V263.6L202.6,263.6z M234.4,263.6v-28.5h17.9v5.2H240v6.5H251v5H240v6.6h12.4v5.2h-17.9V263.6L234.4,263.6z M281.1,243.5
	c-0.2-1.6-1.6-4-5.2-4c-2.7,0-4.5,1.7-4.5,3.6c0,1.6,1,2.8,3.1,3.2l3.9,0.8c5.2,1,8,4.4,8,8.4c0,4.4-3.7,8.8-10.3,8.8
	c-7.5,0-10.9-4.9-11.3-8.9l5.2-1.4c0.2,2.8,2.2,5.3,6.2,5.3c3,0,4.6-1.5,4.6-3.5c0-1.6-1.3-2.9-3.5-3.3l-3.9-0.8
	c-4.5-0.9-7.5-3.8-7.5-8.2c0-5.1,4.5-8.9,9.9-8.9c6.9,0,9.6,4.2,10.2,7.4L281.1,243.5L281.1,243.5z M299,263.6v-28.5h17.9v5.2h-12.4
	v6.5h11.1v5h-11.1v6.6h12.4v5.2H299L299,263.6L299,263.6z M148,253.7c-0.8,3.1-4,5.3-8,5.3c-5.2,0-8.8-3.9-8.8-9.6
	c0-5.7,3.6-9.5,8.8-9.5c3.9,0,7.2,2.1,7.9,5.3l0.1,0.6l5.3-1.6l-0.1-0.5c-1.4-5.4-6.6-9-13.2-9c-8.3,0-14.4,6.2-14.4,14.8
	c0,8.7,6,14.9,14.4,14.9c6.6,0,11.8-3.6,13.2-9l0.1-0.5l-5.2-1.6L148,253.7L148,253.7z M383.7,257.2h-11.5l-2.4,6.5h-5.9l11-28.5
	h6.5l10.9,28.5h-6L383.7,257.2z M374,252.1h7.9l-3.9-10.7L374,252.1z M437.1,263.6v-28.5H455v5.2h-12.4v6.5h11.1v5h-11.1v6.6H455
	v5.2h-17.9V263.6L437.1,263.6z M402.7,235.2h5.8v12.2l10.9-12.2h6.8l-10.7,12.2l11.2,16.3h-7.2l-8-11.8l-3,3.5v8.3h-5.8L402.7,235.2
	L402.7,235.2z M350.6,253.7c-0.8,3.1-4,5.3-8,5.3c-5.2,0-8.8-3.9-8.8-9.6c0-5.7,3.6-9.5,8.8-9.5c3.9,0,7.2,2.1,7.9,5.3l0.1,0.6
	l5.3-1.6l-0.1-0.5c-1.4-5.4-6.6-9-13.2-9c-8.3,0-14.4,6.2-14.4,14.8c0,8.7,6,14.9,14.4,14.9c6.6,0,11.8-3.6,13.2-9l0.1-0.5l-5.2-1.6
	L350.6,253.7L350.6,253.7z"/>
</svg>
