<?xml version="1.0" encoding="UTF-8"?><svg id="_圖層_2" xmlns="http://www.w3.org/2000/svg" viewBox="0 0 200 200"><defs><style>.cls-1{fill:none;}</style></defs><g id="_圖層_3"><g><rect class="cls-1" width="200" height="200"/><g id="XteoCX"><g><path d="M14.58,72h1.2c20.91,0,41.82,0,62.73,0,32.61,0,65.22,0,97.83,0,1.29,0,2.58,.06,3.83,.51,2.25,.81,3.7,2.41,4.6,4.56,.72,1.72,.97,3.53,.97,5.4,0,13.57,0,27.14,0,40.71,0,1.12,0,2.23,0,3.35,0,.2-.03,.4-.04,.67-.29,.02-.54,.05-.79,.05-53.5,0-106.99,0-160.49,0-1.06,0-2.13-.04-3.17-.23-2.79-.5-4.61-2.24-5.68-4.8-.69-1.64-1-3.37-1-5.16,0-9.08,0-18.16,0-27.24,0-5.63,0-11.26,0-16.89,0-.26,0-.51,0-.92Zm19.65,35.76c.06-.02,.12-.04,.18-.06,.16,.22,.33,.44,.49,.66,1.85,2.63,5.49,3.02,7.85,1.56,1.27-.79,2.17-1.91,2.9-3.19,1.59-2.76,2.27-5.76,2.31-8.92,.02-1.85-.08-3.68-.78-5.42-.68-1.7-1.71-3.09-3.57-3.64-1.09-.32-2.2-.28-3.3-.04-.91,.2-1.68,.67-2.36,1.3-.37,.34-.74,.69-1.11,1.03-.04-.02-.08-.05-.12-.07,.08-.62,.16-1.24,.24-1.91h-6.09c-1.7,9.74-3.4,19.46-5.12,29.26h6.62c.62-3.53,1.23-7.04,1.85-10.55Zm123.57,2.43c.06-.24,.13-.43,.17-.63,.25-1.4,.51-2.8,.73-4.21,.06-.38,.21-.68,.48-.94,.91-.89,1.81-1.79,2.71-2.68,.09-.08,.2-.14,.41-.29,.69,2.97,1.21,5.88,1.86,8.73,1.09,.15,6.73,.1,7.29-.06-.04-.19-.06-.4-.12-.59-1.29-4.13-2.59-8.25-3.9-12.38-.18-.55-.13-.93,.32-1.37,2.05-1.98,4.06-4.01,6.08-6.03,.19-.19,.36-.39,.62-.68-.28-.04-.4-.07-.52-.07-2.02,0-4.05,.04-6.07,0-.6,0-1.01,.14-1.42,.59-1.81,2-3.65,3.97-5.48,5.95-.15,.16-.26,.4-.6,.29,.28-1.66,.57-3.32,.85-4.97,.29-1.66,.57-3.32,.86-4.98,.29-1.64,.62-3.27,.83-4.92-1.2-.16-5.83-.12-6.43,.07-1.69,9.68-3.38,19.39-5.09,29.17h6.4Zm-8.88-5.34c-.19-.07-.3-.14-.42-.15-1.54-.17-3.1-.28-4.63-.53-.9-.15-1.56-.02-2.01,.8-.06,.11-.18,.19-.28,.27-1.55,1.28-3.7,.82-4.57-.99-.36-.76-.48-1.57-.52-2.48,.31-.02,.59-.06,.86-.06,3.79,0,7.57,0,11.36,0,.28,0,.55,0,.86,0,.13-1,.28-1.89,.37-2.79,.19-1.85,.08-3.67-.62-5.43-.91-2.27-2.42-3.92-4.85-4.54-.92-.23-1.88-.34-2.84-.41-1.35-.1-2.7,.01-4,.4-2.52,.75-4.28,2.47-5.64,4.63-1.16,1.85-1.78,3.89-1.98,6.08-.18,2.07,.03,4.08,.81,6.02,1.11,2.75,3.11,4.39,6.05,4.86,1.73,.27,3.45,.25,5.18-.06,3.29-.59,5.46-2.54,6.85-5.61Zm-34.64-3.16h13.1c.25-1.79,.57-3.47,.39-5.19-.09-.9-.24-1.81-.52-2.66-.85-2.52-2.48-4.28-5.13-4.96-1.21-.31-2.46-.41-3.7-.37-1.24,.04-2.49,.15-3.65,.64-2.19,.91-3.8,2.5-5.01,4.49-1.42,2.34-2.02,4.91-1.97,7.65,.04,2.01,.49,3.9,1.5,5.64,.91,1.56,2.2,2.65,3.94,3.21,1.89,.61,3.83,.7,5.77,.45,1.02-.13,2.04-.41,2.99-.78,2.18-.84,3.54-2.55,4.56-4.57,.06-.13,.06-.28,.09-.42-.12-.06-.18-.11-.25-.12-1.85-.22-3.71-.43-5.56-.64-.29-.03-.49,.07-.67,.3-.24,.3-.48,.62-.77,.87-1.27,1.07-3.27,.92-4.17-.31-.67-.91-.87-1.96-.93-3.23Zm-8.71-7.59c.02-.15,.07-.26,.05-.35-.6-2.91-1.75-4.29-4.58-4.92-2.28-.51-4.59-.45-6.84,.23-3.62,1.11-5.57,4.27-5.3,7.51,.14,1.73,.87,3.12,2.39,4.05,.96,.59,2.04,.88,3.12,1.17,1.02,.27,2.05,.55,3.07,.82,.4,.1,.61,.38,.72,.75,.21,.72,.13,1.41-.38,1.98-1.13,1.25-4.05,1.43-4.81-.84-.08-.24-.16-.48-.28-.81-2.14,.23-4.26,.45-6.48,.69,.08,.53,.13,.96,.22,1.38,.52,2.35,1.85,3.92,4.25,4.55,1.58,.41,3.18,.45,4.79,.41,1.36-.03,2.68-.27,3.96-.74,3.38-1.24,5.4-4.45,5.01-8-.23-2.06-1.25-3.56-3.28-4.2-1.11-.35-2.25-.6-3.37-.91-.7-.19-1.41-.35-2.08-.6-.64-.23-.99-.74-.99-1.44,0-.69,.33-1.24,.95-1.48,.54-.21,1.15-.32,1.73-.32,1,.01,1.72,.51,1.99,1.53,.02,.09,.09,.18,.16,.33,2-.26,3.99-.52,6-.78Zm-35.45,7.56c.12-.9,.23-1.69,.32-2.49,.23-2.06,.13-4.09-.73-6.03-.83-1.89-2.11-3.32-4.1-4.01-2.13-.74-4.32-.76-6.53-.41-2.15,.34-3.84,1.51-5.25,3.11-2.39,2.7-3.37,5.89-3.33,9.45,.02,2.13,.53,4.1,1.65,5.91,.85,1.38,2.03,2.35,3.56,2.88,2.21,.77,4.47,.8,6.76,.42,3.23-.54,5.45-2.37,6.82-5.3,.05-.11,.05-.23,.08-.39-.22-.04-.39-.09-.57-.11-1.57-.18-3.15-.31-4.71-.54-.67-.1-1.09-.02-1.49,.58-.59,.87-1.52,1.24-2.56,1.23-1.4-.01-2.38-.95-2.78-2.48-.3-1.15-.27-2.31-.24-3.48,.03-1.09-.05-2.11-.87-2.96-.3-.31-.43-.74-.29-1.22,.22,.03,.4,.05,.7,.09-.8-.84-1.31-1.65-.75-2.77,.71,.11,1.27-.24,1.77-.68,1.35,.9,1.5,.93,3.1,.63,.23-.04,.46-.11,.69-.12,.39-.02,.78-.07,1.16,0,1.81,.31,3.59,2.21,3.87,4.03,.31,2-1.78,3.78-3.68,3.54-1.18-.15-1.8-.94-1.74-2.17,.01-.29,.07-.58,.1-.88-.71,1.47-.39,2.85,.32,4.18h8.73Zm11.9-6.83c1.03,0,1.96,0,2.89,0,.41,0,.6-.15,.66-.57,.24-1.53,.52-3.06,.78-4.6,.03-.19,0-.39,0-.68h-3.3c.44-2.61,.87-5.12,1.32-7.75-.3,.14-.47,.19-.62,.28-2.05,1.26-4.1,2.54-6.17,3.78-.48,.29-.67,.64-.73,1.17-.1,.84-.29,1.66-.45,2.54-.67,0-1.24,.03-1.81,0-.42-.02-.61,.1-.68,.53-.18,1.18-.41,2.35-.6,3.52-.09,.55-.15,1.11-.24,1.79h2.31c-.21,1.32-.39,2.52-.59,3.72-.33,1.97-.69,3.93-.99,5.9-.14,.9-.14,1.81,.14,2.7,.69,2.16,1.85,3.47,4.5,3.55,1.59,.05,3.14-.21,4.76-.52,.32-1.88,.64-3.75,.98-5.74-.34,.06-.56,.11-.78,.14-.51,.06-1.03,.17-1.54,.14-.84-.04-1.21-.46-1.22-1.3,0-.39,.04-.78,.1-1.16,.27-1.66,.54-3.32,.83-4.98,.13-.79,.29-1.57,.46-2.45Zm-20.77-1.01c-.3,.2-.44,.41-.23,.72,.03,.05,.17,.08,.21,.05,.27-.2,.34-.43,.03-.77Z"/><path d="M41.53,98.24c-.1,1.81-.44,3.56-1.3,5.17-.25,.47-.59,.92-.97,1.29-.66,.66-1.56,.71-2.35,.19-.76-.5-1.17-1.23-1.29-2.12-.27-1.86,0-3.67,.54-5.44,.15-.49,.35-.97,.56-1.45,.14-.3,.3-.6,.5-.87,.62-.83,1.43-1.31,2.48-1.06,1.04,.25,1.48,1.09,1.65,2.05,.13,.73,.12,1.49,.17,2.24Z"/><path d="M137.1,97.74c.35-1.32,.73-2.46,1.59-3.37,.54-.58,1.18-1.02,2-1.07,1.4-.09,2.51,.8,2.77,2.28,.1,.55,.05,1.13,.05,1.7,0,.32-.18,.46-.49,.46-1.94,0-3.87,0-5.93,0Z"/><path d="M121.16,97.7h-6.23c.39-1.62,.93-3.07,2.35-3.99,1.34-.87,3.06-.36,3.74,1.07,.37,.79,.44,1.99,.14,2.91Z"/></g></g></g></g></svg>