<svg width="500" height="500" viewBox="0 0 500 500" fill="none" xmlns="http://www.w3.org/2000/svg"><path d="M147.49 202h85.42c2.547 0 4.506 2.351 3.919 4.898l-9.992 48.294c0 .196-.294.392-.49.392H203.62c-.293 0-.587-.294-.489-.588l5.681-29.192H147.49c-.294 0-.49-.196-.49-.49v-22.726c0-.294.196-.588.49-.588z" fill="#000"/><path d="M166.2 246.669l-9.698 49.862c-.196.783.49 1.469 1.274 1.469h21.159c.587 0 1.077-.392 1.273-.98l9.796-50.155c.098-.294-.196-.587-.49-.587h-22.726c-.392-.098-.588.098-.588.391zM268.078 202.588v94.139c0 .685.587 1.273 1.273 1.273h22.727c.685 0 1.273-.588 1.273-1.273v-94.139c0-.294-.196-.49-.49-.49h-24.196c-.293-.098-.587.196-.587.49zM316.567 202.588v94.139c0 .685.588 1.273 1.274 1.273h34.873c.686 0 1.274-.588 1.274-1.273v-20.18c0-.686-.588-1.274-1.274-1.274h-11.363v-72.685c0-.294-.196-.49-.49-.49h-23.804c-.294-.098-.49.196-.49.49z" fill="#000"/></svg>