<?xml version="1.0" encoding="UTF-8"?><svg id="_圖層_2" xmlns="http://www.w3.org/2000/svg" viewBox="0 0 200 200"><defs><style>.cls-1{fill:none;}</style></defs><g id="_圖層_3"><g><rect class="cls-1" width="200" height="200"/><g id="ekbpov"><g><path d="M23.83,59.08c51.33,0,102.67,0,154,0,0,26.98,0,53.95,0,80.93-51.33,0-102.67,0-154,0,0-26.98,0-53.95,0-80.93Zm56.76,32.13c-.05-1.38-.09-2.75-.5-4.08-.39-1.27-1.14-2.18-2.51-2.41-.89-.15-1.73,.12-2.54,.44-1.44,.57-2.72,1.43-3.92,2.39-.36,.29-.69,.45-1.18,.33-.42-.1-.87-.12-1.3-.1-.79,.02-1.58,.1-2.38,.13-.19,0-.43,0-.58-.09-.63-.43-1.23-.92-1.86-1.35-1.14-.78-2.36-1.4-3.71-1.7-1.44-.33-2.84,.28-3.42,1.56-.27,.6-.48,1.25-.58,1.9-.32,1.99-.22,3.99-.04,5.98,.05,.59,.18,1.16-.12,1.76-.56,1.11-.8,2.32-.94,3.55-.07,.6-.16,.68-.77,.8-1.26,.25-2.49,.62-3.56,1.37-1.01,.71-1.55,1.98-1.01,3.2,.47,1.05,1.36,1.57,2.35,1.96,1.4,.55,2.87,.86,4.36,1.06,.31,.04,.54,.18,.71,.46,.24,.39,.5,.78,.8,1.13,1.76,2.08,3.92,3.57,6.55,4.36,1.69,.51,3.41,.66,5.14,.48,2.61-.27,4.96-1.23,7-2.89,.62-.5,1.24-1.01,1.79-1.59,.37-.39,.62-.89,.91-1.35,.21-.34,.47-.56,.9-.62,.91-.14,1.81-.32,2.71-.54,1.15-.29,2.27-.64,3.19-1.45,.96-.85,1.22-2.15,.62-3.24-.38-.69-.99-1.17-1.7-1.44-.98-.37-1.98-.66-2.99-.95-.33-.09-.5-.23-.53-.58-.12-1.42-.52-2.76-1.06-4.07-.09-.21-.1-.47-.08-.71,.08-1.24,.19-2.48,.28-3.72Zm48.02,7.44c0,.23-.02,.44,0,.64,.05,.41-.14,.5-.51,.49-.99-.02-1.98,0-2.96,0-.46,0-.71,.24-.69,.64,.01,.38,.24,.58,.7,.58,.9,0,1.8,0,2.69,0,.77,0,.76,0,.77,.78,0,.3-.08,.4-.39,.4-1.48-.02-2.95,0-4.43,0-.48,0-.74,.23-.74,.63,0,.38,.29,.64,.75,.64,3.72,0,7.44,0,11.16,0,.47,0,.77-.27,.77-.67,0-.39-.27-.6-.77-.6-1.54,0-3.08,0-4.62,0-.15,0-.3-.02-.48-.03,0-.29,.01-.55,0-.8-.02-.28,.11-.35,.36-.34,1.01,.01,2.03,0,3.04,0,.52,0,.76-.19,.77-.6,0-.41-.25-.62-.79-.62-.81,0-1.62,0-2.42,0q-1.05,0-.92-1.13c.22-.01,.45-.03,.68-.03,1.13,0,2.26,.01,3.39-.02,.22,0,.52-.15,.64-.32,.1-.14,.07-.49-.05-.63-.14-.17-.43-.29-.66-.29-1.21-.03-2.41-.01-3.62-.02-.13,0-.27-.01-.41-.02,0-.27,.02-.49,0-.7-.04-.34,.11-.41,.42-.4,.77,.02,1.54,0,2.31,0,.85,.02,1.84-.65,1.91-1.65,.07-.91,.1-1.82,.04-2.73-.07-1.02-.9-1.8-1.86-1.81-2.3-.02-4.59,0-6.89,0-.9,0-1.87,.85-1.89,1.92-.01,.8,0,1.59,0,2.39,0,.86,.87,1.94,1.99,1.9,.65-.02,1.31-.02,1.96,0,.77,.01,.73-.18,.75,.78,0,.28-.12,.35-.37,.35-.59,0-1.18,0-1.77,0-.33,0-.66,0-.99,0,0-.13,0-.19,0-.26,0-.43-.16-.65-.54-.72-.37-.07-.57,.13-.72,.44-.07,.14-.14,.27-.2,.42-.25,.57-.52,1.14-.73,1.72-.11,.29,.05,.53,.34,.64,.31,.13,.58,.06,.77-.22,.09-.13,.17-.26,.22-.4,.1-.26,.28-.32,.54-.32,1.03,0,2.05-.02,3.08-.02,.11,0,.22,.02,.36,.03Zm-8.57,.21s.04,0,.06,0c0-.78,0-1.56,0-2.35,0-1.06-.87-2-1.92-2.01-1.67-.03-3.33-.04-5,0-1.06,.03-1.92,.91-1.9,1.96,.02,1.64,0,3.28,0,4.92,0,1.18,.8,2.03,1.98,2.05,1.64,.03,3.28,0,4.92,.01,.78,0,1.87-.89,1.86-1.7,0-.96,0-1.92,0-2.88Zm-20.61,4.25s0-.03,0-.04c1.33,0,2.67,0,4,0,.46,0,.7-.27,.65-.7-.04-.35-.31-.56-.75-.56-1.06,0-2.13-.02-3.19-.01-.28,0-.36-.1-.36-.35,0-1.19,0-2.39,0-3.58,0-.27,.11-.35,.37-.34,.8,.01,1.59,0,2.39,0,.48,0,.77-.23,.78-.61,0-.4-.29-.66-.78-.66-.73,0-1.46,0-2.19,0-.56,0-.57-.01-.57-.55,0-1.03,0-2.05,0-3.08,0-.56,.09-.65,.64-.66,.86,0,1.72,0,2.58,0,.42,0,.71-.29,.7-.65,0-.34-.3-.61-.7-.61-2.57,0-5.13,0-7.7,0-.15,0-.33,.06-.46,.15-.24,.17-.26,.44-.17,.7,.11,.3,.36,.41,.67,.41,.91,0,1.82,.02,2.73,0,.31,0,.44,.08,.43,.41-.01,1.17-.01,2.33,0,3.5,0,.28-.1,.39-.38,.38-.78-.01-1.56,0-2.35,0-.47,0-.79,.27-.78,.66,0,.37,.3,.61,.78,.61,.77,0,1.54,.02,2.31,0,.32,0,.43,.11,.42,.42-.01,1.12,0,2.23,0,3.35,0,.51,0,.51-.5,.51-1.01,0-2.03,0-3.04,0-.45,0-.69,.21-.71,.59-.03,.49,.24,.72,.82,.72,1.45,0,2.9,0,4.35,0Zm7.09-6.25c0,1.05,0,2.1,0,3.15,0,.03,0,.05,0,.08,.02,1.33,1.29,2.3,2.58,1.97,.87-.22,1.61-.94,1.6-2.25-.01-2.01,0-4.02,0-6.04,0-1.23-.88-2.07-2.1-2.07-1.23,0-2.06,.83-2.07,2.08,0,1.03,0,2.05,0,3.08Zm34.13,3.27c-.03-.16-.06-.28-.06-.4,0-.81,0-1.62,0-2.42,0-.63-.05-.63,.59-.63,.4,0,.62-.2,.66-.56,.04-.32-.18-.6-.54-.68-.1-.02-.21-.04-.3-.03-.34,.05-.41-.13-.4-.43,.02-.6,0-1.21,.01-1.81,0-.28-.03-.59,.09-.82,.06-.11,.42-.05,.65-.09,.32-.05,.57-.34,.55-.64-.02-.36-.24-.59-.61-.62-.13-.01-.26,0-.38-.01-.73-.02-1.46-.04-2.19-.04-.41,0-.69,.3-.69,.67,0,.32,.29,.57,.68,.59,.08,0,.15,0,.23,0,.3,0,.42,.14,.41,.45-.02,.61,0,1.23,0,1.85,0,.24,.08,.55-.04,.71-.12,.15-.44,.15-.67,.21-.37,.08-.56,.32-.54,.67,.02,.37,.22,.55,.63,.57,.12,0,.23,0,.35,0,.22-.01,.29,.09,.29,.3-.02,.96-.11,1.93,0,2.88,.08,.75-.3,.93-.86,1.1-.44,.13-.61,.49-.48,.86,.12,.35,.46,.5,.89,.35,.89-.31,1.78-.64,2.67-.97,.34-.13,.49-.49,.38-.82-.1-.3-.44-.48-.78-.4-.15,.03-.29,.09-.47,.15Zm6.65-2.4c0-.85,0-1.69,0-2.54,0-.51,0-1.03,0-1.54,0-.29,.09-.49,.46-.43,.13,.02,.36-.07,.43-.17,.11-.19,.22-.46,.18-.66-.06-.28-.31-.48-.64-.44-.34,.04-.42-.14-.42-.42,0-.28,0-.56,0-.85-.01-.41-.2-.64-.54-.67-.39-.03-.66,.18-.7,.59-.03,.25-.01,.51,0,.77,.04,.51,0,.57-.5,.57-.73,0-1.46,0-2.19,0-.47,0-.75,.25-.74,.64,0,.4,.29,.63,.75,.63,.74,0,1.49,.01,2.23,0,.35,0,.48,.13,.48,.47-.02,2.57-.03,5.13-.04,7.7,0,.53-.17,.7-.69,.8-.38,.07-.6,.33-.57,.69,.03,.35,.31,.6,.68,.58,1-.05,1.86-.93,1.84-1.86-.02-1.28,0-2.57,0-3.85Zm-33.4-4.88c.17-.02,.34-.05,.5-.06,.76-.01,1.51-.02,2.27-.02,.23,0,.52-.07,.67,.04,.13,.1,.1,.41,.14,.63,.06,.35,.35,.61,.65,.6,.35-.01,.59-.26,.61-.62q.04-.66,.73-.64s.08,0,.12,0c.36-.03,.62-.31,.61-.66-.01-.34-.26-.57-.63-.59q-.8-.04-.82-.84c0-.42-.22-.66-.62-.68-.31-.02-.62,.28-.65,.63-.02,.17-.02,.33,0,.5,.02,.29-.09,.4-.4,.39-.95-.02-1.9,0-2.85,0-.11,0-.22-.02-.32-.03-.02-.32-.03-.6-.06-.88-.04-.36-.31-.49-.62-.5-.29-.01-.56,.28-.6,.6q-.07,.71-.76,.8s-.05,0-.08,.01c-.41,.06-.59,.24-.58,.62,0,.35,.22,.59,.59,.63,.25,.03,.61-.06,.72,.07,.14,.16,.08,.5,.1,.77,.03,.32,.27,.57,.58,.55,.3-.02,.59-.11,.63-.49,.02-.27,.05-.53,.08-.82Zm26.16,15.51c.07,.01,.14,.03,.21,.04,.1,.6,.21,1.19,.29,1.8,.05,.39,.04,.79,.09,1.19,.04,.26,.16,.5,.49,.47,.31-.03,.4-.23,.39-.51-.03-.5-.01-1-.1-1.49-.15-.77-.34-1.55-.58-2.3-.16-.51-.5-.57-.9-.22-1.2,1.04-1.96,2.38-2.56,3.82-.07,.17-.04,.46,.07,.59,.09,.1,.38,.09,.55,.05,.55-.15,1.09-.35,1.65-.5,.28-.08,.44-.22,.4-.51-.04-.31-.26-.39-.53-.36-.29,.04-.57,.11-1,.19,.55-.81,1.04-1.53,1.53-2.24Zm-20.58,2.21c-.31-.06-.52-.1-.73-.14-.39-.07-.61,.03-.67,.32-.06,.29,.11,.46,.49,.56,.5,.14,.99,.33,1.5,.47,.19,.05,.49,.09,.59-.02,.12-.13,.15-.44,.09-.62-.56-1.47-1.39-2.76-2.55-3.83-.37-.34-.65-.28-.86,.18-.56,1.27-.71,2.61-.72,3.97,0,.13,.23,.37,.34,.36,.17,0,.39-.15,.5-.29,.08-.11,.05-.32,.05-.49,0-.93,.2-1.82,.45-2.77,.63,.7,1.14,1.4,1.53,2.29Zm24.95-.44c.53-.16,.76,.02,.9,.43,.1,.3,.25,.59,.39,.88,.12,.25,.3,.41,.58,.27,.26-.13,.28-.38,.2-.63-.1-.28-.21-.55-.33-.82-.12-.25-.13-.44,.09-.68,.42-.45,.42-1.02,.24-1.59-.15-.5-.52-.77-1.01-.81-.47-.04-.94,0-1.41,0-.37,0-.52,.22-.51,.57,0,1.18,0,2.36,0,3.54,0,.3,.08,.56,.42,.57,.34,0,.45-.24,.45-.54,0-.39,0-.79,0-1.17Zm-50.16-.67h.01c0,.63,0,1.26,0,1.89,0,.28,.1,.49,.4,.5,.35,.01,.7,.01,1.04-.03,1.04-.13,1.59-.58,1.72-1.51,.08-.56,.07-1.16-.01-1.72-.1-.71-.54-1.19-1.26-1.32-.45-.08-.91-.12-1.37-.14-.39-.02-.53,.15-.53,.54,0,.6,0,1.21,0,1.81Zm9.02,.06s-.06-.02-.08-.03c-.04-.34-.05-.69-.12-1.03-.16-.78-.72-1.29-1.47-1.35-.87-.07-1.54,.3-1.79,1.07-.27,.83-.28,1.69-.03,2.53,.15,.49,.41,.88,.96,1.07,.74,.26,1.68,.06,2.04-.64,.26-.49,.33-1.07,.49-1.62Zm5.2,.87s0,0,0,0c0-.29,0-.59,0-.88,0-.31-.14-.49-.45-.51-.2-.02-.41-.03-.61,0-.24,.02-.41,.13-.44,.4-.02,.26,.1,.42,.35,.47,.22,.05,.29,.17,.27,.39-.01,.17,0,.33-.01,.5,0,.07-.07,.18-.13,.2-.38,.17-.96-.08-1.08-.47-.19-.61-.27-1.22-.08-1.85,.15-.47,.28-.6,.79-.63,.22-.01,.45,.03,.65-.03,.15-.05,.33-.21,.37-.36,.03-.12-.1-.35-.22-.42-.56-.3-1.72,0-2.11,.5-.36,.46-.47,1-.45,1.55,.02,.62-.03,1.27,.34,1.82,.49,.74,1.7,1.07,2.51,.68,.15-.07,.27-.33,.31-.52,.05-.27,.01-.56,.01-.84Zm20.96,1.5s0-.03,0-.05c.12,0,.23,0,.35,0,.81-.05,1.27-.54,1.26-1.35,0-.63-.44-.95-.91-1.24-.25-.15-.55-.23-.78-.4-.16-.12-.22-.36-.33-.55,.19-.11,.37-.27,.57-.3,.26-.03,.53,.06,.8,.07,.27,0,.43-.15,.47-.41,.04-.27-.11-.43-.35-.46-.42-.05-.85-.11-1.26-.07-1,.11-1.5,1.23-.87,2.01,.26,.32,.68,.51,1.04,.76,.17,.11,.38,.17,.52,.31,.11,.11,.22,.34,.17,.45-.06,.13-.27,.27-.43,.28-.34,.02-.69-.05-1.03-.07-.26-.02-.51,.07-.51,.34,0,.16,.17,.41,.33,.47,.3,.12,.64,.15,.97,.21Zm-16.91-2.48c.02-.16,.02-.43,.08-.69,.13-.55,.45-.76,1-.73,.18,.01,.37,.09,.53,.05,.16-.04,.38-.2,.39-.32,.02-.16-.1-.43-.23-.5-.91-.46-2.14,.05-2.47,1.01-.22,.65-.27,1.33-.14,2.01,.29,1.47,1.23,1.78,2.46,1.56,.27-.05,.45-.21,.42-.5-.03-.28-.25-.37-.51-.36-.15,0-.31,.02-.46,.02-.69,0-.97-.25-1.04-.94-.02-.17-.02-.33-.03-.61Zm10.53,.41h0c0,.47,0,.95,0,1.42,0,.38,.17,.61,.44,.59,.37-.02,.44-.28,.44-.6,0-.79,0-1.59,0-2.38q0-.8,.77-.86s.06,0,.08,0c.13-.13,.34-.24,.38-.39,.07-.24-.1-.44-.35-.45-.87-.02-1.74-.03-2.61-.01-.26,0-.43,.19-.4,.47,.03,.27,.21,.4,.48,.41,.14,0,.28,0,.42-.02,.26-.02,.36,.1,.35,.36-.02,.49,0,.97,0,1.46Zm11.08-.01c0,.47,0,.95,0,1.42,0,.11-.02,.27,.04,.33,.13,.12,.36,.3,.45,.25,.17-.09,.37-.31,.37-.48,.04-.87,.02-1.74,.02-2.62,0-.69,0-.69,.69-.71,.3,0,.56-.09,.55-.44,0-.34-.27-.44-.57-.44-.46,0-.92,0-1.39,0-.31,0-.62-.01-.92,0-.29,.01-.51,.14-.5,.46,.01,.3,.22,.42,.5,.42,.13,0,.26,0,.38,0,.25-.02,.38,.06,.36,.35-.02,.49,0,.97,0,1.46Zm-41.14-9.77c0-.52-.4-.85-.84-.69-.3,.11-.4,.34-.44,.65-.13,.96-.38,1.86-1.45,2.22-.31,.11-.44,.49-.32,.77,.15,.36,.46,.54,.8,.4,.35-.14,.71-.31,1-.55,.88-.73,1.12-1.76,1.26-2.8Zm56.03-2.25c-.59,0-.89,.44-.71,.86,.33,.77,.7,1.53,1.05,2.3,.13,.28,.25,.56,.41,.82,.17,.28,.53,.37,.81,.23,.26-.13,.42-.51,.3-.78-.47-1.02-.94-2.04-1.43-3.05-.09-.19-.33-.3-.42-.38Zm-6.57,3.52c-.02,.44,.16,.65,.46,.73,.32,.09,.59-.04,.73-.34,.48-1,.95-2.01,1.39-3.03,.07-.16,.04-.42-.05-.57-.3-.49-.89-.4-1.17,.17-.43,.9-.85,1.8-1.26,2.7-.06,.14-.09,.29-.1,.33Zm7.21-8.94c.69,0,1.16-.44,1.16-1.1,0-.71-.45-1.17-1.13-1.17-.67,0-1.14,.47-1.15,1.13,0,.66,.47,1.15,1.12,1.14Zm-56.68,.81c.17-.14,.41-.25,.49-.43,.08-.18,.07-.5-.05-.63-.5-.56-1.04-1.1-1.58-1.61-.27-.25-.62-.2-.86,.06-.22,.24-.24,.58,0,.83,.49,.52,1,1.02,1.51,1.52,.11,.11,.29,.15,.49,.26Zm52.18,2.96c-.06-.18-.06-.3-.12-.37-.39-.4-.76-.83-1.19-1.18-.25-.2-.56-.11-.78,.15-.22,.25-.22,.54-.02,.77,.33,.37,.67,.74,1.06,1.05,.15,.12,.48,.12,.67,.05,.17-.07,.27-.32,.38-.46Zm5.35-1.03c-.15-.18-.28-.41-.46-.54-.22-.16-.46-.08-.66,.12-.33,.33-.68,.62-.97,.98-.12,.14-.14,.42-.1,.62,.05,.27,.29,.41,.58,.41,.39,0,1.53-1.12,1.62-1.58Zm-59.59-.64c-.19,.18-.44,.3-.5,.5-.06,.19-.01,.5,.11,.66,.27,.35,.61,.65,.94,.94,.29,.25,.67,.22,.9-.02,.25-.27,.23-.62-.06-.93-.26-.28-.53-.56-.81-.81-.15-.13-.34-.2-.58-.34Z"/><path d="M79.17,91.33c-.12,1.2-.23,2.39-.36,3.59-.04,.4-.04,.76,.16,1.15,.75,1.53,1.11,3.16,1.12,4.86,0,.33,.1,.46,.44,.52,1.49,.27,2.98,.54,4.3,1.35,.72,.44,.99,1.32,.51,1.77-.39,.36-.84,.68-1.32,.89-1.59,.7-3.3,.91-4.99,1.19-.16,.03-.34,.15-.43,.29-.89,1.48-1.97,2.78-3.38,3.78-2.24,1.59-4.73,2.38-7.48,2.24-3.17-.16-5.88-1.37-8.1-3.65-.23-.24-.48-.51-.26-.88,.2-.34,.64-.35,.95,0,1.01,1.11,2.21,1.94,3.57,2.54,1.05,.47,2.15,.75,3.3,.86,1.76,.16,3.49-.07,5.12-.76,2.29-.96,4.07-2.52,5.29-4.69,.28-.51,.61-.75,1.22-.84,1.74-.25,3.51-.48,5.13-1.25,.15-.07,.26-.22,.39-.33-.12-.12-.21-.29-.36-.36-.38-.18-.77-.36-1.17-.48-1.38-.41-2.78-.67-4.22-.79-2.08-.17-3.94-.96-5.43-2.42-1.04-1.02-1.95-2.16-2.93-3.24-.34-.38-.7-.75-1.12-1.04-.75-.52-1.55-.43-2.18,.26-.84,.91-1.64,1.86-2.45,2.8-1.46,1.69-3.2,2.95-5.41,3.45-.62,.14-1.26,.21-1.9,.26-.63,.04-.82-.18-.84-.81-.05-1.62,.09-3.25,.8-4.7,.51-1.04,.42-2.03,.36-3.08-.07-1.23-.14-2.46-.13-3.69,0-1.02,.11-2.05,.54-3.01,.35-.77,.97-1.1,1.81-.94,1.14,.22,2.16,.73,3.1,1.37,.8,.55,1.55,1.17,2.34,1.74,.15,.11,.38,.22,.55,.18,1.66-.36,3.31-.33,4.97-.02,.28,.05,.47-.02,.66-.19,1.18-1.06,2.47-1.96,3.92-2.61,.55-.25,1.16-.42,1.76-.49,.94-.11,1.46,.53,1.66,1.29,.19,.71,.3,1.45,.38,2.19,.06,.56,.01,1.13,.01,1.69,.04,0,.08,0,.12,0Z"/><path d="M51.95,103.87c.43,.48,.93,.64,1.41,.78,2.41,.76,4.91,1.07,7.41,1.23,2.85,.18,5.71,.21,8.57,.26,1.29,.02,2.59-.05,3.88-.09,.52-.02,1.05-.07,1.57-.09,.38-.01,.59,.16,.62,.47,.03,.32-.21,.61-.58,.64-.52,.04-1.05,.08-1.57,.08-2.82,.03-5.64,.11-8.46,.06-1.85-.03-3.71-.23-5.55-.42-1.5-.16-3-.36-4.48-.65-.96-.19-1.88-.56-2.8-.9-.43-.16-.81-.46-1-.91-.23-.55-.04-1.08,.51-1.47,.85-.61,1.85-.86,2.85-1.1,.32-.08,.52,.16,.57,.45,.05,.32-.13,.53-.43,.63-.55,.18-1.1,.34-1.64,.54-.28,.11-.53,.29-.86,.47Z"/><path d="M67.27,101.81c.67-.02,1.34-.04,2.01-.07,.46-.02,.76,.22,.95,.58,.19,.37,.14,.74-.09,1.09-.9,1.3-2.94,1.31-3.84,.02-.26-.37-.29-.75-.09-1.16,.19-.38,.5-.53,1.07-.46Z"/><path d="M129.24,91.28c1.04,0,2.08,0,3.12,0,.57,0,.93,.31,.94,.88,.02,.65,.02,1.31,0,1.96-.01,.56-.28,.82-.85,.82-2.16,0-4.31,0-6.47,0-.57,0-.9-.41-.8-.97,.01-.08,.12-.18,.2-.21,.09-.04,.2-.01,.3-.01,1.82,0,3.64,0,5.46,0,.13,0,.26,0,.38-.02,.38-.05,.6-.31,.57-.69-.02-.31-.26-.55-.62-.56-.4-.02-.8,0-1.19,0-1.55,0-3.1,0-4.66,0-.46,0-.54-.09-.47-.55,.06-.4,.38-.65,.87-.65,1.06,0,2.13,0,3.19,0Z"/><path d="M114.18,102.17c-.27,0-.54,0-.81,0-.55-.01-.89-.35-.89-.89,0-.59,.02-1.18,.03-1.77,0-.16,.03-.32,.26-.27,.63,.12,1.26,.22,1.88,.36,.14,.03,.33,.2,.36,.33,.14,.66,.24,1.33,.33,2,0,.07-.15,.22-.25,.23-.3,.03-.61,.01-.92,.01Z"/><path d="M118.82,99.17c0,.79,.02,1.49,0,2.2-.02,.36-.18,.72-.58,.75-.75,.05-1.5,.01-2.33,.01,.13-.76,.25-1.5,.4-2.24,.02-.11,.18-.25,.29-.27,.73-.16,1.47-.3,2.23-.45Z"/><path d="M114.13,95.76c.31,0,.61,0,.92,0,.22,0,.33,.11,.3,.34-.07,.49-.11,.99-.2,1.48-.1,.59-.3,.79-.89,.89-.49,.08-.99,.12-1.48,.19-.23,.03-.3-.05-.29-.27,0-.59-.01-1.18,0-1.77,.02-.57,.31-.83,.87-.84,.26,0,.51-.02,.77-.04,0,0,0,0,0,0Z"/><path d="M118.82,97.49c0,.29,0,.59,0,.88,0,.19-.06,.3-.26,.27-.56-.07-1.12-.12-1.67-.21-.6-.1-.71-.59-.78-1.09-.06-.39-.1-.79-.16-1.18-.04-.28,.06-.41,.35-.4,.6,.02,1.2,.01,1.81,.05,.43,.02,.69,.32,.71,.76,.01,.31,0,.62,0,.92Z"/><path d="M109.37,96.71c0,1.09,.01,2.18,0,3.27,0,.59-.3,.83-.88,.82-.42,0-.71-.36-.71-.88,0-2.01,0-4.03,0-6.04,0-.6,.28-.91,.8-.92,.5,0,.82,.33,.83,.9,.01,.95,0,1.9,0,2.85-.01,0-.03,0-.04,0Z"/><path d="M144.42,108.58c0-.55,.03-.58,.5-.58,.55,0,.78,.18,.78,.61,0,.4-.27,.59-.85,.58-.41,0-.43-.03-.42-.61Z"/><path d="M96.57,109.53c0,.13,0,.26,0,.38,0,.86-.49,1.02-1.2,1.04-.07,0-.22-.14-.22-.22-.02-.82-.02-1.64,0-2.46,0-.08,.16-.22,.25-.22,.81,.01,1.19,.23,1.17,1.13,0,.12,0,.23,0,.35h0Z"/><path d="M102.32,109.48c-.06,.32-.12,.69-.21,1.05-.08,.3-.32,.42-.61,.43-.3,.02-.6,0-.76-.32-.37-.71-.31-1.45-.1-2.17,.1-.33,.41-.5,.8-.48,.37,.02,.62,.19,.72,.53,.08,.29,.11,.6,.17,.96Z"/></g></g></g></g></svg>