<svg width="500" height="500" viewBox="0 0 500 500" fill="none" xmlns="http://www.w3.org/2000/svg"><path d="M255.596 164.509c31.018.438 55.465 13.581 58.357 36.451 1.489 11.917-1.49 25.674-8.061 39.518-8.588 17.876-15.335 32.947-12.355 42.498 2.278 7.273 4.381 8.938 12.267 12.53 3.417 1.577 5.958 2.103 7.623 4.118 1.577 1.841 2.278 4.031 2.278 7.098 0 4.118-1.226 7.273-3.154 9.989-2.103 2.892-7.448 7.273-13.757 10.252-6.922 3.33-20.854 7.623-40.745 7.536-37.152-.263-73.429-13.845-74.042-42.585-.175-8.5 2.979-16.824 6.922-25.324 9.814-20.679 15.86-33.91 17.613-47.404.613-4.556-.789-7.623-5.608-9.113-6.835-2.103-15.422-4.644-15.247-16.561 0-19.189 41.972-29.354 67.909-29.003z" fill="#000"/></svg>