<?xml version="1.0" encoding="UTF-8"?><svg id="_圖層_2" xmlns="http://www.w3.org/2000/svg" viewBox="0 0 200 200"><defs><style>.cls-1{fill:none;}</style></defs><g id="_圖層_3"><g><rect class="cls-1" width="200" height="200"/><g id="_3rqtFk.tif"><g><path d="M100.78,140v-3.94c1.15,0,2.25-.09,3.32,.02,1.16,.13,1.66,2.06,.89,3.26-.15,.23-.34,.44-.51,.66h-3.7Zm.8-.43c1.03-.24,2-.27,2.72-.71,.28-.17,.24-1.66-.07-1.84-.72-.42-1.69-.41-2.65-.59v3.14Z"/><path d="M132.88,140c.21-.21,.41-.55,.65-.59,.6-.09,1.24,.03,1.84-.06,.32-.05,.6-.38,.89-.58-.28-.16-.55-.43-.86-.47-.52-.08-1.13,.11-1.58-.08-.43-.18-.97-.7-.99-1.09-.01-.35,.59-.97,.99-1.03,.98-.15,2-.05,3-.05,.01,.13,.02,.27,.03,.4-.51,.04-1.03,.04-1.52,.14-.6,.12-1.49-.46-1.67,.6-.01,.09,1.05,.36,1.61,.54,.6,.19,1.2,.37,1.8,.56v1.73h-4.2Z"/><path d="M123.25,140c-.8-.62-1.18-1.39-1.04-2.43,.12-.91,.61-1.4,1.49-1.52,.24-.03,.49-.01,.74-.02,.99-.01,2.05-.13,2.48,1.08,.42,1.19,.03,2.14-.96,2.88h-2.72Zm1.37-3.44c-1.2,0-1.65,.4-1.65,1.45,0,1.08,.67,1.42,1.58,1.46,1.13,.05,1.68-.45,1.71-1.45,.03-1.14-.61-1.52-1.64-1.47Z"/><path d="M90.17,140v-3.95c1.15,0,2.24-.05,3.32,.03,.31,.02,.84,.45,.84,.69,0,.65-.23,1.31-.64,1.94,.31,.43,.62,.85,.92,1.28h-.99c-1-1.62-1.13-1.68-2.72-1.2v1.2h-.74Zm.8-1.98c.7,0,1.36,.06,1.98-.03,.26-.04,.69-.49,.65-.64-.09-.3-.41-.69-.7-.75-.62-.11-1.27-.03-1.94-.03v1.45Z"/><path d="M96.34,140c-.9-.57-1.39-1.36-1.18-2.45,.17-.89,.69-1.46,1.65-1.51,.24-.01,.49,0,.73,0,1.01-.04,2.04-.04,2.4,1.18,.35,1.2,0,2.17-1.13,2.79h-2.47Zm2.95-2.13c-.06-.85-.56-1.31-1.58-1.32-1-.01-1.71,.24-1.79,1.37-.06,.97,.56,1.55,1.62,1.57,1.08,.02,1.73-.53,1.74-1.61Z"/><path d="M106.71,140c-1.06-1.05-.58-2.37-.63-3.6,0-.11,.26-.32,.39-.32,.13,0,.35,.22,.37,.36,.05,.45,.03,.9,.04,1.35,0,1.55,.06,1.61,1.57,1.58,.28,0,.57-.04,.92-.07,.08-1.11,.16-2.2,.25-3.28,.18,.01,.37,.03,.55,.04v3.93h-3.46Z"/><path d="M131.4,140c-.02-.37-.05-.73-.05-1.1-.01-2.48-.05-2.52-2.67-2.24v3.34h-.99v-3.95c1.21,0,2.28-.12,3.3,.06,.42,.07,.96,.73,1.05,1.2,.18,.87,.08,1.79,.09,2.69h-.74Z"/><path d="M85.23,140v-3.95c1.11,0,2.18-.12,3.19,.06,.39,.07,.9,.8,.93,1.25,.02,.37-.52,1.02-.93,1.12-.72,.19-1.52,.05-2.38,.05-.03,.58-.05,1.02-.07,1.46h-.74Zm.86-3.43v1.45c.67,0,1.26,.07,1.81-.03,.28-.05,.5-.41,.75-.63-.25-.26-.47-.69-.76-.76-.54-.12-1.13-.04-1.79-.04Z"/><path d="M111.89,140c-.3-.76-.82-1.51-.86-2.29-.06-1.06,.56-1.76,1.78-1.68,.7,.05,1.41,0,2.12,0l.02,.44c-.61,.03-1.22,.11-1.82,.08-1.08-.05-1.36,.62-1.36,1.48,0,.84,.37,1.33,1.35,1.38,.67,.03,1.62-.53,2,.59h-3.21Z"/><path d="M117.33,140v-3.35c-.58-.06-1.13-.11-1.67-.17,0-.09,0-.18,0-.26h4.33c.01,.08,.03,.16,.04,.24-.52,.06-1.04,.11-1.71,.18v3.36h-.99Z"/><path d="M120.78,140v-3.93c.16-.01,.32-.02,.48-.03,.48,1.26,.02,2.66,.27,3.96h-.74Z"/><path d="M67.85,134.48c.56-.67,.87-1.25,1.34-1.59,3.01-2.15,6.08-4.23,9.08-6.39,.38-.27,.71-.88,.73-1.35,.08-1.59,2.18-3.04,3.68-2.53,.41,.14,1.05,.07,1.41-.17,1.59-1.02,3.12-2.14,4.71-3.24,1.53,1.29,3.15,2.06,5.14,1.17-1.43,.1-2.78-.12-3.88-1.13-.22-.2-.34-.51-.51-.77,.28-.1,.58-.16,.82-.31,.4-.25,.77-.55,1.13-.82-.88,.06-1.63,.21-2.34,.1-.26-.04-.56-.64-.64-1.02-.36-1.83,.74-3.79,2.47-4.52,1.76-.74,3.82-.19,4.98,1.34,.24,.32,.44,.68,.66,1.02,.12,0,.25,0,.37-.01,0-.34,.13-.75-.02-1-1.65-2.95-5.42-3.5-7.87-1.13-.54,.52-.98,.68-1.71,.52-1.72-.37-3.46-.62-5.28-.94-.1,.44-.17,.78-.27,1.25,1.98,.37,3.9,.74,5.57,1.05,.25,1.67,.47,3.18,.73,4.98-1.26,.88-2.83,1.99-4.43,3.05-.22,.15-.63,.13-.91,.04-1.87-.58-4.26,1.06-4.34,2.96-.02,.35-.22,.81-.5,1.01-2.27,1.63-4.57,3.2-6.93,4.84-.71-1.33-1-2.49-.47-3.99,1.5-4.21,2.75-8.52,4.16-12.76,.82-2.46,.19-4.49-1.55-6.31-2.45-2.56-5.44-3.88-8.95-4.14-.57-.04-1.12-.44-1.67-.67,.03-.15,.05-.31,.08-.46,1.32-.61,2.65-1.22,3.97-1.83,1.57-.72,3.16-1.39,4.7-2.17,.35-.17,.79-.72,.74-1.02-.16-1.02,.17-1.54,1.14-1.79,.28-.07,.52-.35,.77-.54-.06-.11-.12-.22-.18-.33-.73,.3-1.52,.52-2.15,.95-.28,.19-.42,.85-.35,1.26,.11,.68-.12,.97-.7,1.21-1.09,.45-2.15,.96-3.24,1.45-.05-.15-.11-.24-.09-.28,4.36-7.37,9.05-14.52,14.9-20.82,3.77-4.06,8.11-7.33,13.46-9.06,7.09-2.29,13.17-.29,18.58,4.45,.58,.51,1.04,1.15,1.57,1.75,.62-.38,1.06-.65,1.85-1.14-1.75-1.5-3.23-3.05-4.97-4.2-6.33-4.2-13.19-4.89-20.41-2.69-4,1.22-7.72,3.01-11.26,5.2-.34,.21-.69,.41-1.12,.66-1.48-2.67-2.93-5.28-4.45-8.02,.56-.31,1.04-.57,1.59-.88,.75,1.09,1.53,.87,2.51,.3,1.52-.88,3.15-1.58,4.86-2.41,.91,1.88,1.78,3.68,2.66,5.49,.16-.07,.32-.14,.48-.21-.81-1.79-1.63-3.58-2.44-5.37,15.66-7.99,34.17-1.73,41.42,12.06-1.57,.72-3.13,1.45-4.7,2.17,.07,.17,.14,.34,.21,.5,1.58-.67,3.16-1.35,4.92-2.1,.74,1.82,1.45,3.59,2.21,5.47-1.94,.8-3.74,1.54-5.53,2.27l.2,.51c1.75-.67,3.49-1.33,5.43-2.07,.22,.93,.42,1.78,.64,2.72-1.75,.71-3.43,1.36-5.06,2.1-.34,.16-.74,.67-.74,1.03-.02,4.26-1.36,8.15-3.19,11.92-.23,.48-.28,1.2-.11,1.71,1.21,3.58,2.51,7.13,3.77,10.69,.5,1.42-1.04,4.75-2.46,5.17-.37,.11-.89-.06-1.25-.26-1.66-.91-3.28-1.87-4.91-2.81-1.09,.66-.34,1.06,.16,1.53,2.25,2.11,2.52,5.55,.63,7.94-1.88,2.38-5.34,2.92-7.88,1.22-1.73-1.16-2.48-2.89-2.66-4.95-.35,0-.66,.08-.9-.02-.32-.13-.77-.34-.84-.6-.1-.34-.01-.93,.23-1.12,1.45-1.18,1.9-2.69,1.48-4.42-.19-.78,0-1.23,.5-1.73,.88-.87,1.63-2.03,3.18-1.45-.35-.12-.7-.24-1.32-.45,1.1-.21,1.92-.36,2.35-.44,.82,.55,1.43,.96,2.04,1.37,2.49,1.68,4.99,3.34,7.45,5.05,.96,.66,1.73,.58,2.47-.49-1.34,1.02-2.23,.06-3.18-.57-2.46-1.64-4.92-3.29-7.69-5.15,.71-.65,1.32-1.2,1.91-1.76,.14-.13,.32-.28,.37-.45,.38-1.29-.81-4.24-2.41-4.33,.57,.78,1.34,1.62,1.83,2.6,.52,1.05,.36,1.19-.95,1.57,.04-1.67-.78-2.71-2.2-3.55-.46-.27-.49-1.32-.66-2.03-.13-.54,.44-1.24-.5-1.77,.04,.3,.07,.43,.07,.56,.11,1.76-.06,3.32-2.05,4.08-.94,.36-1.81,.98-2.63,1.6-1.24,.94-2.5,1.14-4.02,.79-1.17-.26-2.06-.64-2.54-1.78-.16-.37-.43-.7-.79-1.28-.04,.45-.04,.69-.07,.91-.17,1.04-.33,2.07-.55,3.1-.02,.09-.61,.17-.62,.13-.14-.37-.38-.81-.29-1.14,.22-.78,.67-1.51-.09-2.3-.13,2.26-1.08,3.4-2.76,3.39-1.79,0-2.58-1.13-2.69-3.83-1.18,1.86,.21,4.25,2.53,4.32,.44,.01,.91-.21,1.33-.13,.43,.08,1.18,.48,1.16,.61-.3,1.46,.85,2.07,1.57,2.93q2.13-2.16,1.2-3.69,.96-.34,1.56,1.74c1.38-.15,2.74-.29,4.23-.45-.1,.09-.04,.06-.04,.03,.1-2.6,1.89-3.83,3.94-4.81,1.18-.56,2.41-.49,3.5,.19,.86,.54,1.21,1.44,1.03,2.47-.26,1.5-1.5,1.97-3.02,1.77-1.23-.16-1.94-1.42-1.67-2.71,.06-.27,.14-.53,.23-.84-1.08,1.27-1,2.06,.38,3.8-1.21,.87-1.7,2.99-3.81,2.06,.42,1.06,1.05,2.1,1.21,3.22,.19,1.31-.59,2.36-1.76,3.01-1.5,.84-3.38,.43-4.42-.95-1.26-1.65-.86-3.13,1.51-5.61-1.9-.06-3.38,2.79-3.1,5.69,.78,.43,1.41,.89,2.12,1.13,1.09,.38,2.24,.61,3.36,.91l.16-.3c.13,.37,.27,.74,.32,.87-2.64,.97-5.3,1.73-7.75,2.91-4.51,2.18-7.3,5.91-8.61,10.71-.3,1.09-.71,1.52-1.88,1.53-5.64,.05-11.27,.21-16.91,.32-.12,0-.24-.03-.83-.13Zm13.73-40.09c.53,.29,1.06,.57,1.8,.98,.21-.76,.4-1.46,.6-2.22,1.54,0,3.18-.24,4.18,1.41,1.39-1.11,1.39-1.21,.43-2.36-.19-.23-.42-.68-.33-.85,.58-1.01,.72-2.38,2.1-2.84-1.6,3.05-.88,3.21,.87,4.27-.62-1.77,1.24-3.23-.44-4.87-1.28-1.25-2.25-2.81-3.33-4.19-2.93,1.77-5.11,3.75-5.05,7.26,0,.32-.08,.65-.14,.98-.29,1.77-2.9,2.98-4.43,2.05-1.02-.62-2.28-.25-2.79,.7,.72-.04,1.71-.39,2.28-.05,1.03,.61,1.84,.62,2.81,.04,.42-.25,.9-.39,1.35-.58,.03,.1,.06,.19,.08,.29,.78,1.85-.11,3.38-1.06,4.76,.42,.07,.84,.02,.99,.2,.77,.9,1.46,1.85,2.23,2.85-.4,.56-.82,1.14-1.41,1.95v-2.55c-.4,.2-.85,.29-1.01,.55-.95,1.49-.71,2.79,.87,3.73,.31-1.02,.81-1.78,1.78-.38,.34-.26,.6-.46,1.08-.82-.41,1.5-.75,2.72-1.11,4-.42-.02-.83-.04-1.59-.07,.54,.69,.89,1.14,1.31,1.68,.3-.39,.49-.63,.66-.85,.36,.19,.7,.36,1.15,.59,.06-.5,.09-.83,.15-1.37,.51,.54,.91,.96,1.58,1.66,.04-.82,.27-1.46,.04-1.74-.24-.29-.91-.24-1.39-.29-.42-.04-.84,0-1.31,0,.37-.56,.68-1.02,1.05-1.58,.2,.43,.37,.8,.63,1.34,.34-.43,.59-.73,.81-1.01,.42,.79,.83,1.57,1.24,2.35,.15-.1,.29-.2,.44-.3-.31-.4-.62-.8-.93-1.2,.1,.03,.19,.06,.29,.09,.06-.72,.13-1.44,.19-2.16-.13-.03-.25-.06-.38-.09-.19,.22-.37,.45-.58,.7-.3-.26-.56-.49-.9-.78-.18,.35-.33,.62-.59,1.12-.28-.87-.43-1.32-.49-1.53,.72-.36,1.35-.67,1.87-.93,.11,.2,.22,.4,.33,.6,.32-.51,.64-1.03,.96-1.54-.1-.07-.2-.15-.3-.22-.33,.07-.66,.13-.98,.2-.04-.1-.08-.19-.12-.29,.64-.29,1.27-.59,1.91-.88,.05-.13,.09-.25,.14-.38-.79-.44-1.54-.99-2.38-1.27-.23-.08-.73,.63-1.18,1.05-.65-1.42,.83-2.14,1.15-3.4-.42,.3-.64,.47-.86,.63-.13-.07-.27-.14-.4-.21,.42-1.17,.84-2.34,1.25-3.47-.71,.68-1.44,1.38-2.17,2.09l-.13-.16c-.14,.45-.28,.9-.44,1.39-.55-.63-1.02-1.09-1.39-1.61-.25-.35-.37-.79-.53-1.19-.16-.42-.29-.85-.43-1.27Zm26.11-14.92c.05-.12,.09-.25,.14-.37-1.13-.62-2.19-1.47-3.4-1.78-1.17-.31-2.48-.07-3.73-.07l.02-.37c2.23-.89,4.38,.14,6.9,.44-1.94-1.18-3.63-2.13-5.66-1.73-3.06,.59-6.08,1.32-8.52,3.48-.13,.12-.36,.14-.54,.18-1.97,.42-3.42,1.71-5.01,2.78,1.34,1.74,2.58,3.35,3.75,4.86,5.26-2.43,10.66-4.92,16.05-7.41Zm.08,7.82c.15-.55,.24-.87,.33-1.18,.13-.43,.5-.97,.35-1.25-.27-.52,.33-1.51-.83-1.59-.47-.04-.93-.33-1.67-.61,2.56-1.35,4.7-2.47,7.13-3.76-.46-.02-.55-.06-.61-.03-5.78,2.66-11.56,5.31-17.34,7.98-2.11,.97-2.29,1.3-2.14,4.04,.2-.78,.25-1.33,.47-1.79,.23-.47,.53-1.06,.96-1.26,2.88-1.39,5.8-2.71,8.73-4.01,.37-.17,.84-.12,1.42-.19-.46,1.5-.45,2.66,.7,3.49,.89,.65,1.83,.63,2.51,.17Zm-13.82,11.61l.18,.47c.59-.56,1.18-1.12,1.77-1.67-.75-.6-1.17-1.02-1.4-1.52-.44-.97-1.24-1.39-2.11-.81-.64,.43-1.11,.34-1.63-.07-.38-.29-.75-.59-1.19-.94-.22,.26-.44,.53-.65,.78,1.11,1.21,1.13,3.49,.02,5.4,.4,.22,1.01,.73,1.16,.62,.69-.51,1.28-1.17,1.83-1.83,.32-.38,.51-.86,.76-1.3,.42,.29,.83,.57,1.25,.86Zm-9.23,15.37c-.87-.09-1.74-1.21-2.58,0-.67,.97-.3,1.81,1.12,2.77,.55-.38,1.11-.77,1.64-1.13-.06-.53-.11-1-.18-1.63Zm15.39-16.01c.05-.17,.1-.33,.15-.5-1.1,0-2.45-.39-3.22,.11-.8,.51-1.04,1.89-1.52,2.9,.1,.05,.21,.1,.31,.15,.37-.77,.72-1.55,1.12-2.3,.14-.26,.36-.6,.61-.67,1.03-.27,2.19,.43,2.45,1.48,.29,1.19,1.09,1.82,2.22,2.01,1.15,.19,2.08-.27,2.76-1.22,.28-.39,.57-.77,.85-1.15-.08-.09-.17-.17-.25-.26-.31,.28-.7,.51-.91,.86-.76,1.28-2.3,1.77-3.32,.81-.59-.55-.85-1.46-1.26-2.21Zm-23.93,25.35c.09,.12,.19,.24,.28,.36,3.18-2.17,6.36-4.34,9.54-6.51-.08-.12-.17-.24-.25-.36-3.19,2.17-6.38,4.34-9.57,6.51Zm21.37-27.8c2.79,.45,5.67,.92,8.56,1.39,.02-.1,.03-.21,.05-.31-2.28-.41-4.56-.81-6.84-1.21-.64-.11-1.24-.16-1.48-1-.09-.31-.75-.62-1.16-.64-.33,0-.67,.44-1.01,.68,.6,.03,1.19-.27,1.42-.1,.31,.23,.34,.84,.46,1.19Zm20.96,14.28c.1,.02,.21,.04,.31,.06,.23-.32,.46-.64,.69-.96,.37,.3,.94,.53,1.05,.9,.22,.77,.2,1.61,.28,2.5,.18-.19,.53-.41,.65-.72,.47-1.18-.01-2.2-.84-2.99-.37-.35-1.32-.66-1.53-.46-.39,.35-.43,1.09-.62,1.67Zm-36.37-2.74c-.46-.62-.83-1.12-1.2-1.61-.08,.01-.15,.02-.23,.03,.09,.76,.19,1.52,.28,2.28,.4-.08,.81-.16,1-.19,.61,.06,1.06,.1,1.5,.14v-2.23c-.12,0-.23-.01-.35-.02-.29,.47-.59,.94-1,1.6Zm32.94-14.61c.29-1.16,.54-2.14,.75-3.12,.03-.16-.13-.41-.27-.54-.11-.09-.43-.12-.49-.05-.16,.2-.32,.47-.31,.72,0,.21,.32,.41,.32,.62,0,.25-.12,.59-.31,.71-.19,.12-.57,.12-.78,0-.18-.1-.31-.43-.33-.66-.01-.23,.15-.46,.23-.7-.38,.14-.76,.53-.7,.61,.55,.78,1.17,1.51,1.88,2.4Zm-23.22-30.7l-.14-.42c-1.35,.53-2.7,1.05-4.16,1.63,.81,.49,2.93-.19,4.31-1.21Zm18.03,35.98c.81,.11,1.79,.23,2.78,.36-1.26-.34-2.37-.82-3.17-1.95-.14-.2-.87-.15-1.23,.01-.27,.12-.38,.59-.56,.92,.57-.27,1.07-.7,1.4-.6,.33,.11,.49,.75,.78,1.25Zm-1.04,18.18c-1.94,1.09-2.14,5.29-.07,6.27-1.54-2.19-1.42-4.23,.07-6.27Zm11.36-29.29c-.08-.17-.17-.33-.25-.5-1.39,.68-2.79,1.36-4.18,2.04,.08,.15,.15,.3,.23,.46l4.2-2Zm-13.84,30.83c1.03-1.14,1.47-2.51,1.24-4.29-.45,1.55-.84,2.92-1.24,4.29Zm13.82-31.87c1.22-.47,1.39-1.54,.49-2.44-.16,.78-.31,1.53-.49,2.44Zm-.93-11.69c-.12,.08-.24,.15-.36,.23,.71,1.11,1.41,2.22,2.12,3.33,.12-.07,.23-.15,.35-.22-.7-1.11-1.41-2.22-2.11-3.34Zm-5.75,4.49c.96,.09,1.77,.17,2.67,.26-1.52-1.18-1.56-1.18-2.67-.26Z"/><path d="M118.1,129.99v3.96l-.36,.21c-.2-.27-.57-.54-.58-.82-.07-1.09-.03-2.19-.03-3.36h-1.86c-.15,1.34-.3,2.71-.47,4.07,0,.02-.36,0-.6,0v-4.84c1.89,0,3.73-.08,5.55,.06,.47,.04,1.2,.71,1.27,1.18,.19,1.15,.06,2.35,.06,3.53-.1,.06-.21,.12-.31,.18-.19-.23-.52-.44-.56-.69-.08-.6-.03-1.23-.03-1.84,0-1.68-.16-1.81-2.06-1.65Z"/><path d="M126.12,131.05q-.17-.55-3.99-1.3c.32-.6,2.29-.92,3.61-.44,2.42,.89,1.03,3.01,1.56,4.73-1.52,0-2.86,.1-4.18-.06-.41-.05-.92-.73-1.07-1.21-.21-.68,.11-1.35,.92-1.46,1.04-.14,2.09-.18,3.15-.27Zm.04,.81c-.91,0-1.69-.07-2.45,.04-.27,.04-.61,.47-.68,.77-.04,.16,.41,.61,.67,.64,.8,.09,1.62,.03,2.47,.03v-1.48Z"/><path d="M103.53,134.09c-2.07,0-2.9-.57-3.01-2.07-.07-1.03,.03-2.06,1.1-2.51,1.33-.55,2.74-.62,4.01,.16,1.03,.63,.95,1.75,.78,2.77-.2,1.18-1.08,1.64-2.89,1.64Zm-.03-.71c1.46,0,2.01-.45,2.03-1.67,.02-1.27-.59-1.82-2.03-1.82-1.46,0-2.03,.52-2.01,1.83,.02,1.25,.52,1.67,2.01,1.66Z"/><path d="M96.08,131.9v2.05c-.11,.07-.21,.15-.32,.22-.21-.24-.59-.46-.6-.71-.06-1.18-.05-2.38,0-3.56,0-.24,.28-.47,.43-.71,.17,.25,.42,.49,.49,.77,.09,.34,.02,.72,.02,1.29,1.29-.83,2.43-1.57,3.57-2.3,.09,.14,.19,.28,.28,.41-.87,.7-1.74,1.39-2.68,2.14,.97,.83,1.9,1.61,2.98,2.53-2,.27-2.61-1.6-4.16-2.12Z"/><path d="M107,133.34c.81,0,1.45,0,2.09,0,.77,0,1.12-.36,1.11-1.13-.02-.78-.05-1.57,.02-2.34,.03-.28,.35-.52,.55-.78,.13,.07,.26,.13,.38,.2,0,1.14,.08,2.29-.04,3.42-.05,.44-.47,1.11-.83,1.19-.94,.2-1.94,.13-2.92,.14-.08,0-.16-.3-.36-.68Z"/><path d="M97.33,107.89c.33,.5,.86,.98,.94,1.52,.12,.81-.53,1.38-1.29,1.2-.48-.11-1.14-.76-1.17-1.21-.03-.48,.58-1.01,.91-1.51,.2,0,.4,0,.6,0Z"/><path d="M113.06,129.28v4.62c-.08,.08-.16,.17-.23,.25-.22-.25-.62-.49-.64-.75-.07-1.18-.06-2.37,0-3.56,.01-.26,.36-.51,.56-.76,.11,.07,.21,.13,.32,.2Z"/><path d="M99.05,77.69c-1.53,1.11-4.22,1.06-3.92,4.33-.63-.78-1.07-1.32-1.69-2.09,1.93-.89,3.69-1.69,5.45-2.49,.05,.08,.11,.17,.16,.25Z"/><path d="M83.33,94.04c-.55-1.09-.27-2.02,1.19-3.06-.45,1.17-.82,2.12-1.19,3.06Z"/><path d="M88.14,86.41c.29,.48,.62,.78,.58,1.04-.03,.26-.42,.47-.66,.7-.24-.27-.62-.52-.67-.82-.04-.21,.38-.49,.74-.92Z"/><path d="M108.2,85.57c-.51,.34-.99,.87-1.54,.95-.33,.05-1.11-.62-1.08-.92,.06-.68-.1-1.86,1.16-1.64,.54,.1,.98,.68,1.47,1.04,0,.19,0,.38-.01,.56Z"/></g></g></g></g></svg>