<svg width="500" height="500" viewBox="0 0 500 500" fill="none" xmlns="http://www.w3.org/2000/svg"><path d="M218.62 219.407s-17.395-1.218-26.267-22.7C181.134 169.571 203.399 144 203.399 144s4.871 20.787 14.612 38.878c9.654 17.829 19.134 29.571 19.134 29.571s5.306-2.001 12.264-2.001c7.044 0 12.872 1.827 12.872 1.827s-2.349-23.831 9.219-39.834C285.938 152.437 309.508 144 309.508 144s8.436 34.094-1.827 52.359c-10.784 19.134-24.439 26.527-24.439 26.527s7.479 7.741 8.436 21.483c.957 12.785-2.348 21.047.609 33.659 2.609 11.132 4.697 16.525 10.437 19.743 6.088 3.392 18.265 5.305 18.265 5.305s-.522 3.653-3.827 8.089c-5.132 6.871-10.785 6.436-10.785 6.436s1.565 6.001-6.349 12.35c-8.35 6.697-15.569 4.436-15.569 4.436s-1.826 6.61-10.437 8.785c-7.306 1.913-13.307-.087-13.307-.087s3.566-12.177-1.826-28.441c-10.089-30.354-21.657-16.525-46.271-21.222-32.18-6.175-46.618-34.181-46.618-34.181s16.96-2.174 28.18-12.785c7.914-7.48 8.61-14.003 16.525-21.744 3.653-3.566 7.915-5.305 7.915-5.305zm-5.741 41.4s-.348 1.304-1.739 2.87c-1.131 1.218-3.653 2.957-3.653 2.957s4.349.435 7.045-1.305c1.826-1.217 2.348-2.435 2.348-2.435s1.392.522 2.957.783c1.566.261 2.783.174 2.783.174s-.348 1.391-1.565 2.696c-1.131 1.218-3.479 2.783-3.479 2.783s4.523.522 8.088-2.261c1.914-1.479 2.523-3.305 2.523-3.305s6.958-2.088 12.785-5.914c8.089-5.393 8.176-10.002 8.176-10.002s-12.003 8.001-23.484 9.306c-8.349.957-18.264-3.479-18.264-3.479.696 4.175 5.479 7.132 5.479 7.132z" fill="#000"/></svg>