<?xml version="1.0" encoding="UTF-8"?><svg id="_圖層_2" xmlns="http://www.w3.org/2000/svg" viewBox="0 0 200 200"><defs><style>.cls-1{fill:none;}</style></defs><g id="_圖層_3"><g><rect class="cls-1" width="200" height="200"/><g id="ZweArA.tif"><g><path d="M55.93,98.28c-.27,.84-.96,.81-1.63,.76-.64-.05-1.29-.11-1.91-.25-.37-.08-.69-.35-1.05-.5-.13-.06-.31-.01-.46-.04-.44-.08-.77-.28-.76-.8,.02-.6,0-1.18-.66-1.48-.04-.02-.1-.07-.1-.11-.04-.7-.69-1.05-.93-1.64-.42-1.02-.48-1.86,.43-2.59,.12-.1,.23-.26,.28-.42,.49-1.53,2.55-2.2,3.86-1.26,.07,.05,.14,.1,.2,.15,.75-.31,1.33-1.15,1.31-1.89-.03-1.2,.52-1.78,1.71-1.79,.17,0,.34,0,.51,0,.02-.05,.05-.1,.07-.15-.19-.11-.39-.33-.57-.31-.46,.04-.94,.11-1.37,.29-.66,.28-.77,.27-1.22-.3-.12-.15-.36-.23-.57-.27-.79-.16-1.13-.78-.84-1.53,.23-.59,.42-1.19,.68-1.77,.3-.67,.73-.87,1.45-.78,.48,.06,.65-.08,.66-.57,0-.15-.07-.33,0-.46,.16-.32,.32-.83,.56-.88,1.03-.24,1.43-1.26,2.27-1.7,.09-.05,.18-.17,.21-.28,.08-.41,.38-.48,.72-.51,.93-.08,.97-.16,1.25-1.04,.15-.46,.29-1.1,.64-1.29,.69-.38,.96-.75,.83-1.55-.05-.29,.32-.76,.62-.99,.73-.57,1.46-1.1,1.87-1.98,.17-.37,.53-.67,.84-.96,.97-.9,1.74-1.08,3-.74,.51-.75,1.5-1.04,2.33-.68,.45,.19,1.04,.17,1.78-.12-.26-.3-.5-.57-.75-.84-.23-.25-.47-.52-.17-.84,.28-.3,.57-.1,.81,.12,.58,.52,1.3,.37,2.12,.36-.12-.24-.19-.54-.38-.72-.46-.44-.43-.59,.03-1.04,.31-.31,.64-.45,1.04-.57,.17-.05,.4-.31,.4-.49,.01-.43,.22-.59,.59-.6,.44-.02,.78-.23,1.15-.48,1.09-.74,2.36-1.34,3.62-1.29,1.63,.07,3.32-.2,4.9,.46,.3,.12,.58,.33,.8,.57,.22,.24,.41,.32,.71,.17,.15-.07,.34-.19,.48-.15,.62,.17,.87-.3,1.18-.64,.29-.32,.28-.79-.25-.89-.17-.03-.43-.31-.41-.44,.04-.23,.23-.56,.41-.6,.61-.12,1.25-.15,1.88-.16,.15,0,.33,.16,.45,.29,.28,.3,.54,.31,.92,.16,.56-.24,1.14-.42,1.72-.58,.33-.09,.57,.09,.64,.43,.08,.34-.03,.57-.42,.6-.08,0-.15,.06-.23,.09,.62,.87,1.03,1,1.96,.59,.48-.21,.88-.32,1.44-.04,.5,.25,1.17,.18,1.76,.26,.36,.05,.72,.07,1.06,.15,1.08,.25,1.76,1.16,1.69,2.26,0,.14-.07,.36-.16,.4-.29,.12-.35,.32-.35,.6,0,.3-.15,.36-.44,.3-.2-.05-.42,.04-.64,.02-.31-.02-.66,0-.93-.13-.57-.28-1.07-.4-1.61,.05-.13,.11-.35,.13-.52,.2-.62,.22-1.23,.47-1.86,.66-.3,.1-.68,.22-.95,.13-.64-.22-1.13,.02-1.67,.29-.37,.18-.51,.4-.36,.82,.13,.37,.22,.75,.28,1.13,.07,.42,.28,.65,.7,.67,.69,.03,1.32-.13,1.88-.55,.27-.21,.54-.42,.79-.65,1.71-1.59,3.78-2.03,6.03-1.88,.9,.06,1.32,.74,1.02,1.61-.03,.1-.12,.19-.12,.28,.04,1.28-.87,2.16-1.36,3.22-.05,.1-.11,.24-.21,.28-.9,.36-1.8,.8-2.77,.14-.12-.08-.29-.11-.43-.11-.64,.02-1.28,.1-1.93,.1-.47,0-.86,.08-1.21,.43-.53,.52-1.19,.71-1.93,.65-.13-.01-.29-.03-.4,.02-.64,.34-1.27,.7-1.8,.99,.36,.41,.71,.87,1.13,1.26,.15,.14,.53,.21,.71,.12,.5-.26,.95-.61,1.41-.95,.12-.09,.18-.24,.28-.36,.49-.59,.89-.59,1.37,.01,.49,.61,.48,.6,1.12,.1,.19-.14,.46-.22,.7-.24,.61-.04,1.23-.06,1.84-.03,.51,.02,1.02,.13,1.51,.19-.09-1,.17-1.39,1.22-1.83,.26-.11,.49-.3,.69-.5,.4-.39,1.56-.5,1.95-.11,.19,.19,.35,.47,.41,.74,.13,.57,.53,.58,.97,.6,.91,.04,1.44,.59,1.45,1.46,0,.64-.36,1-.9,1.24-.52,.23-1.04,.48-1.57,.73,.35,.39,.64,.73,.94,1.04,.41,.42,1.51,.51,2.08,.18,.29-.17,.61-.33,.84-.57,.69-.73,1.55-.46,2.36-.42,.18,0,.36,.23,.51,.38,.18,.18,.3,.43,.5,.58,.47,.33,.51,.78,.42,1.27-.07,.4-.16,.8-.22,1.21-.12,.72-.79,1.18-1.53,1.08-.22-.03-.53,.05-.67,.19-.81,.88-1.83,1.1-2.9,.76-.88-.28-1.7-.77-2.52-1.22-.33-.18-.43-.07-.59,.2-.22,.39-.47,.79-.77,1.12-.25,.28-.6,.3-.94,.11-.21-.12-.44-.2-.63-.33-1.85-1.29-3.87-1.58-6.05-1.1-1,.22-1.94,.44-2.7,1.21-.66,.66-1.41,1.22-2.11,1.81,.35,.6,.74,.68,1.26,.36,.56-.33,1.14-.63,1.71-.92,.63-.32,1.2-.53,2.01-.35,1.34,.29,2.75,.27,4.13,.39,.53,.05,1.06,.07,1.57,.2,.21,.05,.38,.33,.54,.52,.1,.11,.14,.27,.23,.39,.4,.5,.38,.73-.08,1.16-.19,.17-.43,.31-.55,.52-.09,.16-.03,.4-.03,.61,.2-.02,.44,.03,.58-.07,.98-.68,1.37-.61,1.95,.41,.23,.41,.57,.62,1.05,.61,.43-.01,.86-.04,1.28,0,.44,.06,.58-.14,.72-.52,.28-.73,.61-1.43,.96-2.13,.11-.21,.34-.39,.54-.53,.5-.34,1.08-.18,1.32,.38,.23,.53,.43,1.08,.6,1.63,.2,.64-.08,1.02-.74,1.01-.48-.01-.66,.28-.83,.63-.13,.27-.24,.56-.39,.91,.17,.11,.36,.31,.59,.37,.81,.21,1.61,.43,2.47,.18,.82-.24,1.65-.45,2.52-.15,.09,.03,.25-.13,.38-.21-.12-.16-.23-.33-.36-.47-.11-.13-.33-.21-.36-.34-.02-.1,.15-.29,.28-.37,.08-.05,.25,0,.37,.04,.21,.06,.41,.18,.62,.22,.68,.15,1.09,.49,1.25,1.23,.16,.79,.82,1.22,1.51,1.56,.29,.14,.58,.29,.83,.49,.11,.09,.16,.35,.11,.49-.03,.1-.3,.21-.43,.17-.43-.13-.85-.33-1.27-.49-.65-.24-1.34-.42-1.97-.72-.69-.32-1.06,.31-1.63,.37,.03,.47,.37,.54,.67,.62,.95,.28,1.29,.82,1.1,1.82,.26,.09,.57,.13,.78,.29,.19,.15,.28,.43,.42,.65-.22,.09-.44,.24-.66,.25-.46,0-.92-.1-1.38-.13-1.2-.08-2.36,.12-3.51,.51-.99,.34-2.03,.53-3.05,.78-.15,.04-.29,.06-.46,.19,.2,.06,.41,.1,.59,.18,.16,.07,.28,.21,.43,.28,.16,.07,.35,.14,.52,.13,.82-.05,1.63-.14,2.45-.2,.15,0,.37,.05,.44,.15,.22,.34,.52,.38,.85,.27,.81-.25,1.57-.15,2.33,.22,.76,.37,1.57,.47,2.39,.17,.71-.27,1.26,.17,1.82,.45,.85,.42,.83,.44,1.56-.19,.48-.42,.88-.98,1.61-.99,.15,0,.32-.07,.46-.03,.62,.18,.94-.18,1.05-.68,.18-.83,.48-1.71,.35-2.5-.19-1.16-.43-2.37-1.3-3.3-.4-.43-.87-.74-1.46-.75-.24,0-.54,.09-.7,.25-.76,.77-1.32,.82-2.2,.16-.55-.41-1.05-.86-.91-1.64,.04-.2,.13-.49,.29-.57,.6-.3,1.23-.64,1.94-.34,.32,.14,.53,.08,.62-.28,.2-.85,.81-1.35,1.56-1.63,.52-.19,.65-.51,.58-.98-.11-.67-.22-1.35-.41-2-.08-.28-.37-.52-.61-.71-.49-.41-.59-.7-.35-1.29,.08-.19,.18-.37,.25-.56,.24-.71-.03-1.28-.7-1.6-.16-.08-.37-.18-.44-.33-.21-.48-.59-.63-1.06-.74-.8-.18-1.27-.78-1.65-1.45-.32-.57-.72-.85-1.38-.68-.35,.09-.46-.09-.5-.39-.1-.61,.06-1.15,.44-1.63,.12-.15,.24-.28,.43-.49-1.27-.34-2.38-1.04-3.74-.79-.63,.11-1.3,.1-1.94,.05-.33-.02-.65-.25-.97-.38-.13-.05-.27-.14-.4-.13-.74,0-1.48,.07-2.07-.51-.04-.04-.13-.05-.19-.04-1.05,.2-1.55-.66-2.2-1.18-.36-.28-.27-.65,.18-.84,.72-.31,1.46-.55,2.2-.83,.72-.27,1.44-.51,2.14-.81,1.18-.51,2.33-1.07,3.5-1.57,1.41-.6,2.89-.35,4.35-.33,1.17,.02,2.3,.41,3.5,.23,.39-.06,.9,.14,1.23,.4,.57,.45,1.07,1,1.54,1.55,.6,.69,1.15,1.43,1.73,2.14,.29,.36,.38,1.86,.1,2.24-.2,.28-.41,.55-.6,.83-.2,.28-.39,.56-.6,.87,.4,.18,.69-.03,.95-.26,.27-.24,.49-.28,.81-.05,.5,.36,1.03,.34,1.31,.02,.18-.21,.33-.43,.02-.7-.55-.48-.57-1.13-.54-1.79,.02-.37,.23-.5,.59-.44,1.26,.2,2.53,.4,3.8,.6,.38,.06,.67,.21,.78,.62,.09,.34,.34,.45,.69,.5,.63,.1,1.28,.17,1.78,.67,.5,.49,.51,.68-.05,1.08-.04,.03-.06,.08-.18,.23,.39,.12,.73,.23,1.07,.34,.57,.19,1.18,.32,1.71,.61,.27,.14,.45,.54,.55,.87,.13,.43,.38,.69,.74,.93,.38,.26,.8,.55,1.03,.94,.85,1.4,1.11,2.94,.78,4.54-.09,.45-.5,.83-.74,1.25-.08,.14-.09,.32-.16,.48-.14,.32-.25,.66-.45,.93-.21,.29-.4,.56-.26,.93,.14,.39,.44,.45,.69,.14,.23-.29,.37-.58,.24-.99-.24-.77,.18-1.34,.99-1.35,1.44-.02,2.64,.63,3.4,1.76,.42,.63,1.04,1.36,.79,2.29-.02,.06-.03,.12-.04,.18-.31-.16-.6-.29-.86-.46-.49-.32-.87-.09-1.14,.27-.13,.18-.02,.54-.02,.87,0,0-.12-.02-.17,.03-.13,.12-.22,.28-.33,.42,.15,.06,.32,.19,.46,.16,.9-.19,2.51,.84,2.66,1.75,.02,.12-.06,.31-.16,.38-.09,.07-.31,.08-.4,0-.29-.22-.53-.19-.77,.05-.28,.28-.05,.51,.09,.72,.12,.18,.36,.32,.41,.52,.08,.3,.14,.66,.05,.95-.12,.36-.47,.22-.75,.14-.68-.19-1.14,.04-1.47,.66-.09,.17-.26,.38-.41,.4-.66,.08-1.07,.59-1.59,.89-.11,.06-.24,.26-.21,.35,.03,.11,.22,.23,.34,.24,.1,0,.24-.14,.3-.26,.18-.36,.57-.54,.96-.45,.24,.06,.5,.04,.75,.06,.05-.04,.1-.09,.14-.13,.09,.62,.18,1.23,.27,1.85,.49-.14,.86-.71,.79-1.2-.05-.41-.14-.81-.13-1.22,0-.18,.17-.48,.31-.5,.18-.03,.45,.1,.59,.25,.14,.15,.19,.39,.27,.6,.19,.48,.33,.99,.57,1.45,.48,.92-.05,1.58-.69,2.15-.23,.2-.51,.51-.73,.48-.21-.02-.36-.44-.57-.65-.12-.13-.3-.2-.45-.3-.08,.15-.17,.3-.23,.46-.17,.45-.27,.93-.5,1.33-.1,.18-.47,.2-.7,.33-.18,.1-.4,.24-.46,.42-.12,.35-.3,.52-.67,.61-.63,.14-1.2,.23-1.83-.11-.51-.28-1.36,.06-1.78,.58-.57,.7-.63,.69-1.45,.33-.9-.4-1.83-.79-2.86-.44-.1,.03-.21,.06-.3,.04-.65-.1-1.07,.1-1.27,.78-.11,.37-.41,.46-.78,.25-1.02-.58-2.11-.82-3.29-.84-.68-.01-1.37-.23-2.05-.39-.43-.1-.8-.21-.92,.42-.03,.13-.38,.3-.56,.27-.53-.08-1.07-.21-1.58-.4-.52-.2-1-.53-1.52-.74-.33-.13-.7-.15-1.11-.23,.03,.29,.05,.44,.06,.59,.09,.8-.21,1.41-.91,1.8-.63,.35-1.26,.68-1.91,.99-.72,.34-1.15,.91-1.18,1.67-.05,1.17,.02,2.35,.03,3.52,0,.68,0,1.36,0,2.09,.28-.04,.46-.07,.64-.1,2.12-.35,4.23-.84,6.37-1.02,3.91-.34,7.84-.49,11.76,.09,2.63,.39,5.29,.62,7.94,.9,2.41,.26,4.83,.46,7.24,.75,.89,.11,1.77,.36,2.65,.58,.43,.1,.63,.38,.66,.85,.05,.75,.6,1.24,1.05,1.77,.25,.3,.55,.56,.78,.88,.1,.14,.07,.37,.1,.57-.19,.02-.38,.09-.56,.06-.67-.1-1.34-.24-2.01-.35-1.07-.18-2.15-.35-3.22-.51-.64-.1-1.27-.19-1.91-.26-1.81-.19-3.63-.41-5.45-.55-4.2-.33-8.37-1.05-12.61-1.05-2.8,0-5.59,.21-8.38,.43-.43,.03-.86,.03-1.28,.09-.41,.06-.49,.28-.17,.53,.35,.29,.75,.54,1.16,.73,.94,.44,1.9,.82,2.84,1.26,.42,.2,.45,.56,.14,.91-.87,.97-1.99,1.16-3.18,.94-2.48-.46-4.95-.98-7.43-1.48-.17-.03-.34-.05-.51-.06-2.56-.09-5.12-.26-7.67-.24-2.14,.02-4.26-.05-6.39-.29-1.01-.12-2.03-.06-3.05-.09-4.21-.11-8.42,.13-12.62,.2-2.51,.04-5.02,.07-7.52,.19-1.27,.06-2.54,.33-3.81,.47-1.22,.13-2.45,.21-3.67,.35-.68,.07-1.36,.16-2.02,.33-1.94,.49-3.94,.41-5.91,.58-.7,.06-1.39,.14-2.09,.19-.17,.01-.37,.03-.5-.05-.22-.14-.47-.32-.54-.54-.05-.14,.16-.47,.33-.56,.37-.2,.78-.39,1.19-.41,1.02-.04,1.98-.31,2.95-.6,1.22-.37,2.51-.54,3.73-.92,1.96-.62,3.98-.97,6-1.23,1.41-.18,2.84-.27,4.26-.35,1.99-.12,3.99-.19,5.98-.33,.32-.02,.7-.27,.92-.52,1.26-1.44,1.37-3.26,1.55-5.05,.19-1.91-.27-3.77-.51-5.65-.02-.14-.21-.3-.35-.37-.51-.22-1.12-.31-1.55-.63-.79-.59-1.48-1.3-2.2-1.97-.5-.46-.94-1.01-1.49-1.39-.95-.66-1.77-.54-2.57,.29-.62,.65-1.31,.81-2.14,.48-.17-.07-.36-.13-.54-.13-.34-.02-.57-.1-.68-.48-.11-.4-.42-.36-.69-.16-.2,.15-.36,.37-.52,.56-.23,.27-.49,.39-.78,.1-.32-.32-.51-.16-.72,.14-.53,.77-2.08,1.26-2.98,1.01-.36-.1-.76-.1-1.15-.1-.42,0-.85,.12-1.2-.25-.06-.06-.19-.07-.28-.08-.51-.06-1.03-.14-1.54-.17-.31-.02-.64-.01-.95,.05-.3,.06-.58,.21-.87,.31-.64,.21-1.16,.06-1.6-.47-.4-.47-.85-.9-1.32-1.38Zm43.99,3.14c-.24,.65-1.09,.98-1.8,.78-.45-.13-.93-.3-1.38-.27-.6,.04-1.17,.3-1.77,.38-.61,.08-1.24,.11-1.86,.07-.43-.03-.88-.33-.86-.75,.04-.87,.03-1.86,.44-2.57,.44-.76,1.2-1.41,2.2-1.63,.34-.07,.64-.41,.91-.67,.17-.17,.25-.44,.37-.67,.17-.34,.41-.49,.79-.36,.36,.13,.46-.07,.47-.37,0-.15,0-.31,.01-.46,.03-1.41,.99-2.1,2.35-1.7,.19,.06,.4,.12,.59,.1,.88-.07,1.46,.36,1.89,1.08,.44,.75,.74,.87,1.54,.59-.07-.14-.13-.27-.21-.4-.27-.47-.54-.94-.83-1.4-.1-.15-.25-.26-.37-.4-.28-.32-.63-.6-.8-.97-.27-.59-.33-.66-.9-.32-.56,.34-1.54,.14-1.86-.43-.71-1.23-1.32-2.53-2.52-3.42-.3-.23-.55-.41-.94-.4-.95,.03-1.69,.48-2.37,1.09-.48,.43-.92,.47-1.41,.28-.41-.16-.87-.31-1.31-.29-.8,.04-1.59,.2-2.38,.32-.09,.01-.17,.09-.28,.15,.07,.13,.1,.26,.19,.32,.67,.51,1.35,1.01,2.02,1.52,.37,.28,.65,.24,.86-.19,.15-.3,.37-.3,.57-.08,.36,.39,.71,.79,1.04,1.2,.1,.12,.17,.31,.16,.47-.06,.96,.15,2-.78,2.71-.99,2.05-1.67,4.19-1.84,6.46-.14,1.88-.12,3.78-.19,5.67-.05,1.23-.14,2.45-.21,3.68-.01,.21,0,.42,0,.64,.05,.01,.1,.03,.15,.04,.23-.59,.43-1.19,.69-1.77,.13-.3,.37-.55,.56-.82,.38,.31,.22,.71,.19,1.09-.03,.37-.06,.75-.09,1.12,.06,0,.11,.02,.17,.03,.46-1.13,.92-2.26,1.38-3.39,.23,.4,.33,.8,.43,1.19,.34,1.32,.67,2.64,1.03,3.96,.04,.14,.26,.32,.39,.32,1.9-.06,3.8-.11,5.7,.07,1.12,.1,2.25,.03,3.37,.05,.26,0,.54-.04,.76,.06,.55,.24,1.05,.13,1.59-.03,.81-.25,.88-.26,.86-1.12-.07-2.36-.17-4.71-.3-7.06-.02-.45-.19-.9-.32-1.34-.1-.35-.34-.49-.74-.46-1.15,.1-2.26-.12-3.27-.66-.62-.33-1.08-.98-1.9-.89-.05,0-.11-.07-.19-.12Zm-26.42-23.88c.17,.47,.48,.72,.96,.8,1.48,.25,2.9,.15,4.31-.45,1.98-.86,3.9-.87,5.64,.66,.43,.38,.98,.5,1.61,.5-.04-.16-.07-.25-.09-.34-.22-.82-.5-1.63-.64-2.46-.07-.47-.29-.76-.66-.86-.5-.14-1.03-.2-1.55-.19-1.46,0-2.93,.12-4.36-.33-.87-.27-1.6-.15-2.33,.55-.85,.81-1.45,2.01-2.89,2.14Zm1.63,13.83s-.04-.11-.08-.16c-1.16-1.18-2.58-1.59-4.19-1.42-.36,.04-.57,.43-.48,.77,.19,.68,1.47,1.46,2.17,1.32,.85-.17,1.69-.34,2.58-.52Zm7.15,8.1c-.02-.88-.47-1.5-1.21-1.92-.43-.24-.9-.39-1.35-.59-.38-.17-.68-.05-.73,.34-.04,.3,.04,.66,.18,.93,.49,.93,1.48,1.25,2.31,1.75,.61,.37,.81,.21,.8-.5Zm3.11-31.39s-.03-.07-.04-.1c-.05,0-.11-.02-.15,0-.22,.1-.44,.22-.67,.32,.21,.13,.42,.28,.65,.37,.34,.14,.69,.26,1.05,.36,.22,.07,.5,.2,.66,.12,.8-.37,1.61-.72,2.19-1.45,.26-.33,.31-.59-.04-.86-.56-.43-1.02-.48-1.25-.08-.28,.47-.66,.71-1.18,.79-.13,.02-.25,.11-.37,.16-.28,.12-.57,.24-.85,.36Zm-16.53,10.83c.07,.5,.08,.84,.16,1.17,.08,.35,.14,.88,.36,.97,.45,.18,.72-.31,1.01-.62,.02-.02,.04-.06,.06-.08,.48-.47,.96-.94,1.43-1.42,.09-.09,.2-.24,.19-.35-.07-.58-.8-.88-1.31-.61-.45,.24-.97,.37-1.44,.58-.2,.09-.36,.27-.47,.36Zm13.8,17.96c0-.6,.01-1.14,0-1.67-.03-.87-.47-1.14-1.29-.8-.31,.13-.65,.18-.95,.33-.14,.07-.27,.28-.3,.44-.03,.19,0,.52,.1,.58,.76,.39,1.56,.73,2.44,1.13Zm23.11-2.81c.83,.03,.94-.14,.58-.87-.04-.08-.06-.19-.05-.29,.05-.48-.6-1.38-1.07-1.39-.22,0-.46,.2-.65,.36-.16,.13-.24,.4-.42,.49-.47,.23-.31,.45-.03,.67,.17,.14,.37,.23,.56,.35,.11,.07,.3,.15,.31,.23,.05,.54,.46,.39,.77,.45Zm30.65-9.54c.16-.32,.25-.72,.49-.92,.37-.31,.54-.58,.25-1.05,.64-.23,.97,.39,1.48,.46-.1-.83-.93-.93-1.36-1.41-.22-.25-.8-.19-1.22-.27-.03,.04-.05,.08-.08,.12,.15,.22,.31,.44,.44,.64-.19,.33-.34,.65-.55,.92-.49,.66-.25,1.3,.55,1.5Zm-60.15-2c-.08-.64-.71-1.5-1.21-1.59-.47-.08-.95-.14-1.42-.13-.21,0-.55,.18-.58,.34-.04,.18,.13,.52,.31,.61,.51,.27,1.06,.5,1.62,.65,.4,.11,.85,.08,1.28,.11Zm63.74,3.44c-.22,.31-.42,.62-.64,.9-.2,.25-.39,.52-.65,.7-.47,.33-.5,.37-.09,.77,.1,.09,.2,.19,.28,.29,.26,.31,.55,.29,.86,.09,.87-.58,1.02-1.9,.24-2.75Zm-60.46-19.94c.46,.54,.84,.65,1.34,.46,.27-.1,.33-.25,.19-.51-.26-.5-.2-.61,.34-.75,.12-.03,.24-.04,.35-.08,.13-.06,.35-.15,.35-.23,0-.14-.11-.31-.22-.42-.65-.58-1.74-.32-2.06,.49-.05,.13,.04,.34,.1,.5,.05,.11,.17,.19,.28,.31-.25,.08-.43,.14-.67,.22Zm35.63,34.06c-.53,0-1.36,.55-1.45,.97-.04,.19,.07,.46,.19,.62,.07,.09,.33,.09,.49,.06,.28-.05,.55-.15,.83-.22,.46-.12,.76-.49,.7-.91-.07-.5-.47-.5-.77-.53Zm-38.62-3.97c.63,0,.88-.2,.96-.71,.01-.1,0-.22,.06-.29,.22-.31,.02-.43-.22-.53-.69-.28-1.66,.18-1.84,.9-.03,.12,.06,.36,.15,.4,.31,.12,.65,.17,.89,.23Zm-9.63-10.09c-.34-.61-.9-.73-1.51-.37-.8,.46-1.01,1.08-.52,1.83,.68-.49,1.35-.97,2.02-1.45Zm36.14,13.45c.22,.87,1.56,1.26,2.57,.78-.07-.75-.25-1-.77-.97-.59,.03-1.17,.12-1.8,.19Zm-40.59-6.54c-.05-.07-.17-.36-.28-.35-.55,.02-1.11,.07-1.64,.22-.15,.04-.19,.46-.29,.7,.2,.05,.39,.1,.59,.14,.23,.04,.48,.04,.7,.11,.46,.15,.92-.18,.91-.81Zm70.9-18.85c-1.01-.3-1.04-.29-1.25,.47,.67,.28,1,.86,1.3,1.49,.07,.15,.4,.35,.46,.31,.18-.12,.42-.4,.38-.53-.09-.27-.31-.54-.56-.7-.57-.38-.62-.46-.33-1.03Zm-21.15,19.47c-.25-.54-.48-.91-.6-1.32-.21-.7-.52-.93-1.22-.74-.16,.04-.38,.18-.4,.31-.03,.14,.1,.36,.23,.46,.44,.37,.9,.72,1.37,1.06,.14,.1,.33,.12,.63,.23Zm22.45-14.94c.45,.82,2.14,1.42,2.74,.98-.13-.43-.41-.61-.86-.64-.22-.01-.48-.09-.63-.24-.49-.5-.62-.53-1.25-.1Zm-74.4,9.23c.23,.48,.41,.92,.64,1.33,.13,.23,.93,.38,.97,.2,.07-.29,.11-.64,.02-.92-.07-.2-.33-.4-.55-.48-.29-.1-.63-.09-1.07-.14Zm38.26,11.25c.09,.39,1.02,1.2,1.38,1.16,.32-.03,.73,.03,.83-.41,.08-.33-.27-.7-.75-.74-.49-.04-.98,0-1.47,0Zm-14.47-34.54c-.1,.54-.1,.53-.66,.8-.1,.05-.12,.25-.18,.38,.26,.11,.53,.33,.78,.31,.32-.03,.73-.19,.89-.43,.41-.64,.1-1.02-.83-1.05Zm37.65,5.67c-.11,.13-.28,.28-.38,.46-.2,.37,0,.81,.42,.77,.51-.05,.81,.09,.95,.74,.14-.34,.28-.52,.28-.7-.02-.76-.6-1.04-1.27-1.28Zm-42.09-.35c.26,.27,.69,.48,1.02,.18,.3-.26,.42-.73,.59-1.12,.02-.05-.13-.24-.23-.28-.37-.16-.6,.03-.79,.34-.18,.29-.37,.57-.58,.88Zm54.87,28.19c.42,.17,.73,.4,1,.37,.28-.03,.57-.3,.78-.53,.04-.05-.22-.45-.4-.6-.3-.25-.56-.07-.78,.19-.13,.15-.29,.28-.6,.57Zm-9.55-21.86c.19,.47,.57,.55,.91,.47,.36-.09,.69-.31,1-.52,.08-.05,.08-.39,0-.46-.12-.1-.37-.14-.52-.09-.46,.16-.9,.39-1.38,.6Zm-50.31-7.76c-.4-.14-.74-.37-1.07-.36-.33,.01-.66,.27-.99,.42,.29,.79,1.3,.83,2.06-.06Zm-3.58,6.59c.44-.12,.58-.56,.76-.95,.03-.06-.12-.26-.23-.31-.6-.28-1.01,0-1.19,.74,.22,.18,.42,.34,.65,.53Zm58.62,25.16c.39-.2,.73-.36,1.05-.55,.08-.05,.17-.18,.16-.27-.02-.26-.64-.54-1.04-.49-.46,.05-.29,.36-.26,.62,.03,.22,.06,.43,.09,.7Zm-70.35-13.72c.11-.06,.25-.1,.3-.18,.17-.29,.3-.6,.45-.9-.28-.02-.57-.09-.85-.05-.54,.08-.56,.18-.23,.6,.12,.15,.21,.34,.32,.53Zm73.65-2.02c-.01,.24-.04,.48-.03,.71,0,.12,.03,.3,.11,.35,.08,.04,.26-.01,.35-.08,.49-.37,.55-.85,.2-1.42-.22,.15-.43,.3-.64,.44Zm-3.69,13.67c.07,.03,.13,.07,.2,.1,.32-.34,.62-.71,.98-1.01,.27-.22,.21-.39,.04-.6-.21-.26-.49-.17-.6,.04-.25,.47-.42,.97-.62,1.46Zm11.84-8.36c-.22,.2-.26,.41,0,.63,.11,.1,.21,.23,.32,.33,.14,.13,.29,.24,.43,.36,.09-.21,.21-.42,.24-.64,.03-.15-.06-.32-.09-.44-.33-.09-.6-.16-.9-.24Zm-3.83,3.53c-.1-.07-.26-.28-.43-.29-.29-.02-.68,.02-.67,.43,0,.22,.17,.55,.35,.62,.29,.12,.73-.29,.75-.76Zm-11.03,5.13c-.29-.21-.46-.45-.66-.46-.33-.03-.64,.22-.57,.56,.04,.22,.36,.52,.56,.52,.19,0,.38-.33,.67-.62Zm2.66-25.2c.43,.08,.77,.15,1.11,.21,.15-.22,.3-.46,.49-.76-.51-.14-.96-.12-1.39,.08-.12,.06-.15,.31-.22,.46Zm-30.94,27.86c-.13-.42-.19-.72-.34-.95-.04-.06-.51,.04-.6,.18-.1,.18-.1,.6,.02,.68,.18,.13,.5,.06,.91,.08Zm-36.8-18.29s.07-.03,.1-.05c-.11-.39-.22-.79-.35-1.18-.04-.13-.09-.35-.18-.36-.14-.03-.31,.06-.62,.15,.56,.26,.74,.54,.45,.95,.21,.18,.39,.34,.58,.5Zm-1.42-4.01c-.49,.1-.76,.34-.62,.89,.88-.09,1.01-.28,.62-.89Zm2.17-2.47c-.68,.2-1.07,1-.77,1.4,.24-.44,.47-.86,.77-1.4Zm1.62,3.61c-.33-.57-.67-.6-1.22-.11,.37,.03,.74,.06,1.22,.11Zm74.49,10.12c-.01-.07-.03-.13-.04-.2-.33,.08-.67,.16-1.08,.25,.44,.46,.7,.42,1.12-.06Zm-80.55-.83c-.36-.1-.56-.17-.76-.21-.28-.06-.34,.09-.24,.31,.06,.12,.23,.3,.29,.28,.22-.06,.41-.21,.7-.38Zm72.49,2.45c.05-.08,.1-.16,.15-.24-.22-.14-.43-.28-.65-.41-.05,.08-.14,.23-.13,.23,.2,.15,.42,.28,.63,.42Z"/><path d="M47.75,133.67c.02-4.4,3.84-7.9,8.32-7.59,.66,.05,1.33,.13,1.97,.3,3.09,.81,5.04,3.32,5.24,6.69,.25,4.13-2.7,7.69-6.76,8.15-4.24,.48-7.96-2.25-8.66-6.37-.07-.39-.08-.78-.11-1.17Zm2.61-.06c-.02,2.91,2.25,5.26,5.13,5.29,2.84,.03,5.2-2.29,5.23-5.14,.04-3.08-2.06-5.24-5.11-5.26-3.1-.03-5.22,2.04-5.25,5.12Z"/><path d="M128.66,131.02c-.33,3.17-.66,6.24-.99,9.34h-2.52c.6-4.87,1.19-9.73,1.79-14.64,3.38,3.44,6.77,6.88,10.27,10.43v-9.99h2.46v15.84c-3.68-3.67-7.31-7.29-11.01-10.98Z"/><path d="M69.31,140.63c.38-4.75,.76-9.5,1.15-14.28,.17-.01,.32-.03,.47-.03,1.32,0,2.63,0,3.95,.02,.2,0,.41,.01,.61,.05,1.47,.23,2.69,.81,3.11,2.4,.42,1.61-.16,3.26-1.48,4.24-.19,.14-.39,.27-.69,.47,1.53,2.06,3.04,4.11,4.65,6.28-.57,.4-1.18,.85-1.81,1.27-.07,.05-.31-.02-.37-.11-1.94-2.62-3.87-5.25-5.81-7.88,0-.01,0-.03,0-.08,.43-.23,.92-.43,1.32-.73,.55-.42,1.13-.85,1.55-1.39,.62-.8,.34-1.77-.63-2.05-.75-.22-1.57-.2-2.36-.24-.09,0-.26,.27-.28,.43-.17,1.84-.31,3.68-.47,5.52-.17,1.91-.34,3.81-.53,5.72-.01,.14-.17,.38-.27,.38-.68,.03-1.36,.02-2.11,.02Z"/><path d="M105.67,133.74h2.29c.01,.13,.04,.26,.04,.39,0,1.76,0,3.52,0,5.28,0,.25-.01,.45-.32,.55-2.25,.77-4.55,1.14-6.91,.7-3.36-.63-5.32-3.04-5.47-6.65-.19-4.56,3.04-7.89,7.82-8.05,1.34-.04,2.65,.18,4,.64-.22,.76-.43,1.5-.64,2.26-.76-.15-1.48-.34-2.22-.43-1.74-.21-3.38,.02-4.79,1.17-1.54,1.27-2.1,2.9-1.78,4.84,.06,.37,.16,.73,.27,1.09,.41,1.38,1.32,2.29,2.69,2.72,1.47,.46,2.96,.48,4.45,.07,.4-.11,.58-.28,.56-.73-.04-1.09-.01-2.19-.01-3.28,0-.18,0-.37,0-.58Z"/><path d="M146.11,138.44c1.01,0,1.91,.07,2.8-.02,.79-.09,1.42-.57,1.84-1.27,.48-.78,.42-1.54-.2-2.21-.75-.8-1.54-1.55-2.29-2.35-1.1-1.18-1.27-2.59-.75-4.05,.19-.54,.56-1.1,1.01-1.44,1.64-1.25,3.55-1.31,5.59-1.1-.11,.79-.21,1.51-.31,2.18-.52,0-.98-.04-1.43,0-.49,.05-1,.11-1.45,.28-1.34,.53-1.62,1.64-.68,2.72,.71,.82,1.55,1.54,2.26,2.37,1.23,1.44,1.31,3.46,.24,4.98-.68,.96-1.56,1.66-2.71,1.99-1.42,.41-2.85,.46-4.36,.09,.16-.79,.32-1.55,.45-2.19Z"/><path d="M88.9,126.36v14.11h-2.34v-14.11h2.34Z"/><path d="M117.69,140.34h-2.28v-14.06h2.28v14.06Z"/><path d="M117.98,77.98c.26-.07,.57,.18,.77,.61,.24,.51,.27,1.05-.07,1.5-.1,.13-.5,.13-.72,.05-.58-.18-1.13-.27-1.52,.28-.18,.25-.2,.61-.26,.93-.03,.18,.05,.38,.02,.55-.09,.43-.45,.59-.85,.4-.83-.4-1.1-.9-.91-1.82,.09-.43,.15-.9,.36-1.27,.19-.33,.52-.67,.87-.78,.66-.22,1.38-.29,2.32-.46Z"/><path d="M96.5,93.09c-.04,1.44-.6,2.24-1.86,2.73-.77,.31-1.46,.72-1.99,1.39-.13,.17-.4,.22-.61,.33-.06-.26-.25-.58-.16-.78,.25-.57,.54-1.16,.94-1.63,.71-.82,1.11-1.7,.99-2.8-.01-.12,.24-.39,.33-.38,.6,.09,1.19,.23,1.78,.38,.43,.11,.59,.43,.59,.75Z"/></g></g></g></g></svg>