<svg width="500" height="500" viewBox="0 0 500 500" fill="none" xmlns="http://www.w3.org/2000/svg"><path d="M250 160c-78.006 0-90 43.445-90 90s13.504 90 90 90 90-43.534 90-90-11.994-90-90-90zm-36.426 159.121c.71-.355 1.51-.621 2.221-.977.799-.355 1.51-.711 2.31-1.066 8.795-4.087 20.434-9.506 31.895-19.102 11.461 9.684 23.1 15.015 31.895 19.102.8.355 1.6.711 2.31 1.066.711.356 1.422.622 2.133.977-9.684 3.732-21.59 5.775-36.427 5.775-14.748.089-26.653-2.043-36.337-5.775zm19.812-77.117c-3.909-12.083-3.643-21.678.622-27.542 4.62-6.308 12.705-7.019 15.992-7.019 4.176 0 11.816.889 16.17 6.841 4.264 5.864 4.353 15.459.444 27.72-4.442 13.682-10.217 24.077-16.614 32.073-6.397-7.996-12.172-18.391-16.614-32.073zm71.165 66.367c-3.909-1.51-9.151-3.465-13.149-5.331-.8-.355-1.599-.71-2.399-1.155-8.263-3.82-17.858-8.262-27.098-15.814 8.085-9.684 15.37-22.211 20.79-38.825 3.998-12.35 6.663-29.763-2.843-42.823-6.397-8.707-17.236-13.771-29.763-13.771-12.35 0-23.1 5.064-29.586 13.948-9.595 13.149-6.929 30.474-3.02 42.646 5.33 16.703 12.705 29.23 20.789 38.825-9.239 7.552-18.835 11.994-27.097 15.814-.8.356-1.599.711-2.399 1.155-4.176 1.955-9.862 3.732-13.771 4.887-16.17-14.837-19.901-37.137-19.901-57.838 0-39.714 10.839-74.985 74.985-74.985s74.985 35.182 74.985 74.985c-.089 20.79-3.909 43.356-20.523 58.282z" fill="#000"/></svg>