<?xml version="1.0" encoding="UTF-8"?><svg id="_圖層_2" xmlns="http://www.w3.org/2000/svg" viewBox="0 0 200 200"><defs><style>.cls-1{fill:none;}</style></defs><g id="_圖層_3"><g><rect class="cls-1" width="200" height="200"/><g id="Zyioiu"><g><path d="M64.36,92.74v-15.74h5.21v15.87c2.26,0,4.41,0,6.56,0,2.09,0,3.73,.89,4.76,2.67,.47,.81,.76,1.83,.78,2.76,.08,3.19,.09,6.38-.05,9.56-.12,2.81-2.5,4.92-5.34,4.94-2.16,.02-4.32,0-6.61,0v7.53h-5.31v-7.07c-1.35-.8-2.51-1.33-3.47-2.11-1.14-.92-1.61-2.24-1.6-3.74,.03-2.93,.01-5.87,.02-8.8,0-2.93,1.39-4.78,4.19-5.62,.24-.07,.48-.14,.86-.26Zm5.94,16.7c1.19,0,2.38,0,3.57,0,2.31-.02,3.85-1.53,3.88-3.82,.02-1.66,.02-3.32,0-4.98-.02-2.21-1.51-3.81-3.72-3.87-2.38-.06-4.77-.07-7.15,0-2.2,.06-3.67,1.67-3.68,3.9-.01,1.66-.02,3.32,0,4.98,.03,2.21,1.56,3.75,3.78,3.78,1.11,.02,2.21,0,3.32,0Z"/><path d="M58.3,92.87v4.49h-15.8v3.37h15.26v4.44h-15.28v3.44h15.79v4.36h-20.32c-.02-.39-.06-.8-.06-1.21,0-4.93,0-9.87,0-14.8,0-2.88,1.23-4.09,4.13-4.09,4.98,0,9.95,0,14.93,0,.42,0,.83,0,1.34,0Z"/><path d="M170.52,112.81c-2.85,0-5.7-.04-8.55,.02-1.12,.02-1.59-.27-1.57-1.5,.06-5.57,.04-11.14,0-16.71,0-1.09,.39-1.51,1.49-1.5,5.66,.03,11.31,0,16.97,.02,2.86,0,4.75,1.77,4.82,4.65,.08,3.49,.08,6.98,0,10.46-.07,2.81-1.95,4.55-4.75,4.56-2.81,.01-5.61,0-8.42,0Zm-6.15-3.37c4.73,0,9.35,.02,13.98-.01,1.1,0,1.39-.81,1.39-1.76,0-3.1,.02-6.21,0-9.31,0-1.45-.44-1.84-1.95-1.85-2.85,0-5.7,0-8.55,0-1.6,0-3.21,0-4.87,0v12.93Z"/><path d="M120.83,112.81c-2.04,0-4.08,.01-6.13,0-3.36-.02-5.42-2.07-5.43-5.39,0-2.94,0-5.87,0-8.81,0-3.25,2.01-5.42,5.25-5.46,4.25-.06,8.51-.06,12.76,0,2.73,.04,4.79,1.98,4.89,4.72,.12,3.44,.11,6.89,0,10.33-.08,2.65-2.17,4.55-4.83,4.61-2.17,.04-4.34,0-6.51,.01Zm.01-3.08c1.19,0,2.38,0,3.57,0,2.56-.02,4.14-1.58,4.15-4.11,0-1.66,0-3.32,0-4.98-.01-2.54-1.49-4.08-4-4.11-2.55-.03-5.11-.03-7.66,0-2.07,.02-3.45,1.26-3.65,3.33-.17,1.73-.15,3.48-.3,5.22-.21,2.56,1.51,4.59,4.06,4.65,1.28,.03,2.55,0,3.83,0Z"/><path d="M87.35,106.66c0,1.7-.02,3.18,0,4.67,.02,1.02-.29,1.54-1.47,1.51-2.26-.06-2.26,0-2.26-2.25,0-5.27,.03-10.55-.02-15.82-.01-1.22,.39-1.66,1.61-1.66,5.57,.04,11.14,0,16.71,.02,2.95,0,4.73,1.84,4.74,4.8,0,1.36,.01,2.72,0,4.08-.03,2.79-1.83,4.61-4.65,4.63-4.38,.03-8.76,0-13.14,0-.46,0-.92,0-1.53,0Zm.08-3.55c.19,.07,.31,.14,.42,.14,4.54,.01,9.09,.03,13.63,0,1.01,0,1.55-.6,1.55-1.63,0-1.06,0-2.12,0-3.18-.01-1.57-.37-1.94-1.96-1.94-3.91,0-7.81,0-11.72,0-.62,0-1.25,0-1.92,0v6.6Z"/><path d="M27.6,112.81c-2.21,0-4.42,0-6.63,0-3.07-.02-4.97-1.86-4.99-4.89-.03-4.12-.01-8.25,0-12.37,0-1.62,.78-2.43,2.28-2.42,1.65,.01,2.55,.86,2.56,2.49,.02,3.44,0,6.89,0,10.33,0,1.55,.33,1.96,1.83,2.23,.66,.12,1.34,.19,2.02,.19,3.32,.02,6.63,0,9.95,.02,1.51,0,2.17,.69,2.18,2.18,0,1.43-.73,2.21-2.18,2.22-2.34,.02-4.68,0-7.01,0h0Z"/><path d="M147.63,112.81c-2.64,0-5.28,.01-7.91,0-2.92-.02-4.88-1.93-4.91-4.88-.04-4.3-.02-8.59,0-12.89,0-1.47,.7-2.17,2.07-2.16,1.28,0,1.89,.66,1.9,2.17,.02,3.7,0,7.4,0,11.1,0,2.44,.81,3.28,3.28,3.29,4.59,.02,9.19,0,13.78,0,1.56,0,2.2,.75,1.89,2.11-.22,.96-.9,1.25-1.8,1.25-2.77,0-5.53,0-8.3,0Z"/></g></g></g></g></svg>