<?xml version="1.0" encoding="UTF-8"?><svg id="_圖層_2" xmlns="http://www.w3.org/2000/svg" viewBox="0 0 200 200"><defs><style>.cls-1{fill:none;}</style></defs><g id="_圖層_3"><g><rect class="cls-1" width="200" height="200"/><g id="a5xRdf.tif"><g><path d="M182.75,124.76c-3.84-3-7.85-5.68-12.25-7.76-4.96-2.34-10.16-3.78-15.62-4.33-5.81-.59-11.56-.19-17.3,.7-11.09,1.71-21.79,4.99-32.48,8.26-7.13,2.18-14.23,4.47-21.37,6.6-5.16,1.53-10.45,2.5-15.8,3.15-4.42,.54-8.85,.74-13.29,.54-14.31-.65-26.99-5.45-37.73-15.07-.61-.55-1.23-1.1-1.78-1.74,.54,.34,1.07,.68,1.61,1,6.62,3.96,13.75,6.58,21.31,8.11,5.22,1.06,10.5,1.55,15.82,1.56,5.04,0,10.05-.43,15.04-1.18,9.02-1.35,17.69-4.03,26.36-6.76,7.9-2.49,15.86-4.77,23.94-6.61,5.12-1.16,10.29-2.1,15.51-2.7,4.47-.52,8.96-.69,13.44-.38,8.01,.55,15.47,2.89,22.34,7.07,4.45,2.71,8.49,5.96,12.25,9.53Z"/><path d="M114.12,93.34c2.16,0,4.29,0,6.42,0,1.33,0,2.66,.06,3.99,.03,.62-.01,.79,.21,.75,.79-.04,.6-.04,1.2,0,1.8,.04,.55-.19,.68-.7,.68-4.47-.01-8.93-.02-13.4,0-.65,0-.73-.26-.73-.8,.02-3.88,0-7.77,.02-11.65,0-.69-.2-.91-.89-.91-4.02,0-8.03-.01-12.04-.06-.62,0-.75,.21-.75,.78,.02,3.93,0,7.87,.03,11.8,0,.66-.17,.9-.84,.84-.7-.05-1.4-.03-2.11,0-.45,.01-.66-.15-.63-.61,0-.15,0-.3,0-.45,0-8.59,0-17.19,0-25.78q0-1.07,1.06-1.07c.53,0,1.06,.04,1.58-.01,.71-.07,.95,.15,.94,.9-.04,3.13-.02,6.26-.02,9.4v.87c.34,.03,.61,.08,.87,.08,3.94,0,7.88-.01,11.82,.02,.74,0,.99-.2,.98-.98-.05-3.16,0-6.31-.03-9.47,0-.61,.16-.82,.8-.81,4.37,.02,8.73,.02,13.1,0,.64,0,.84,.2,.79,.82-.05,.57-.06,1.16,0,1.73,.08,.73-.24,.86-.9,.86-3.06-.03-6.12,.02-9.18-.03-.8-.01-.96,.25-.95,.98,.02,1.95-.02,3.91-.08,5.86-.02,.71,.2,.96,.94,.95,3.06-.04,6.12,0,9.18-.03,.65,0,.92,.16,.85,.84-.05,.57-.04,1.15,0,1.73,.03,.53-.17,.69-.69,.68-3.09-.02-6.17,.01-9.26-.03-.71,0-.95,.17-.94,.91,.04,3.05,.02,6.11,.02,9.38Z"/><path d="M152.23,78.67c-.25,1.42-.51,2.84-.75,4.26-.72,4.36-1.41,8.72-2.15,13.08-.04,.23-.37,.57-.58,.58-.95,.06-1.9,.03-2.98,.03,.2-1.17,.37-2.27,.57-3.36,1.24-6.83,2.49-13.66,3.73-20.49,.23-1.28,.47-2.55,.74-3.82,.07-.33,.28-.63,.42-.95,.23,.26,.55,.49,.68,.79,2.27,5.45,4.53,10.9,6.78,16.36,.69,1.68,1.34,3.38,2.09,5.27,.2-.37,.34-.59,.43-.81,2.86-6.8,5.72-13.6,8.58-20.41,.06-.14,.09-.3,.18-.41,.21-.27,.44-.53,.66-.79,.13,.3,.34,.59,.39,.9,1.32,7.5,2.62,15,3.92,22.51,.29,1.69,.57,3.39,.87,5.2-1.13,0-2.17,.02-3.22-.03-.15,0-.39-.34-.42-.55-.31-1.8-.59-3.6-.87-5.4-.61-3.9-1.22-7.8-1.83-11.69-.01-.09-.07-.17-.18-.43-.22,.45-.38,.76-.52,1.08-2.38,5.62-4.77,11.24-7.14,16.86-.18,.43-.32,.78-.93,.77-.6,0-.69-.38-.85-.77-2.35-5.69-4.71-11.37-7.06-17.06-.1-.25-.22-.49-.33-.73-.08,0-.15,0-.23,0Z"/><path d="M46.7,82.84c.03-8.7,6.13-14.63,15.05-14.62,8.03,0,14.12,6.25,14.17,14.39,.05,7.55-6.2,14.54-15.04,14.5-7.91-.04-14.28-6.21-14.18-14.27Zm14.62-11.22c-2.45,0-4.73,.59-6.64,2.17-3.53,2.91-4.68,6.73-3.95,11.15,1,6.13,6.84,9.98,12.86,8.5,5.24-1.29,8.48-5.5,8.48-11.02,0-6.22-4.54-10.78-10.74-10.8Z"/><path d="M33.69,81.88c.33,.18,.56,.32,.79,.44,2.78,1.43,4.23,4.21,3.78,7.28-.12,.84-.25,1.7-.55,2.48-1.06,2.76-3.27,4.11-6.07,4.34-2.84,.23-5.71,.15-8.57,.22-.45,.01-.65-.17-.62-.62,0-.07,0-.15,0-.23,0-8.75,0-17.49-.01-26.24,0-.65,.19-.88,.86-.86,2.53,.08,5.07,.07,7.59,.19,2.99,.15,5.3,1.97,6.09,4.66,.84,2.87-.16,5.98-2.48,7.74-.23,.18-.47,.35-.8,.6Zm-7.66,6.72c0,1.4,.02,2.81,0,4.21,0,.53,.2,.72,.71,.69,1.18-.06,2.36-.05,3.53-.14,1.57-.12,3-.58,3.92-2.01,1.4-2.16,.84-6.54-3.08-7.21-1.42-.24-2.89-.21-4.33-.33-.63-.05-.76,.24-.75,.8,.03,1.33,0,2.66,0,3.98Zm0-12.28c0,1.23,.02,2.45,0,3.68-.01,.54,.16,.78,.73,.74,.95-.07,1.9-.06,2.85-.16,2.01-.21,3.46-1.49,3.97-3.46,.6-2.32-.53-4.37-2.85-4.88-1.3-.28-2.68-.21-4.02-.32-.55-.04-.68,.22-.67,.71,.02,1.23,0,2.45,0,3.68Z"/><path d="M144.7,96.6c-1.36,0-2.54,.04-3.72-.03-.26-.01-.57-.35-.73-.61-2.18-3.8-4.34-7.61-6.52-11.42-.15-.26-.38-.58-.64-.66-.9-.3-1.21-.03-1.21,.93-.03,3.66-.07,7.31-.08,10.97,0,.63-.17,.92-.85,.86-.62-.06-1.26-.06-1.88,0-.73,.07-.87-.24-.86-.9,.03-2.81,.01-5.61,.01-8.42,0-5.91,.01-11.83-.02-17.74,0-.71,.21-.89,.89-.87,2.73,.08,5.47,.08,8.2,.18,3.82,.15,6.47,2.87,6.49,6.68,0,1.06-.11,2.16-.4,3.17-.8,2.8-2.85,4.24-5.62,4.78-.14,.03-.28,.06-.6,.12,2.52,4.33,4.99,8.57,7.55,12.96Zm-12.9-20.29c0,1.18,.03,2.35-.01,3.53-.02,.69,.15,1.01,.92,.94,1.17-.1,2.35-.09,3.52-.18,2.17-.17,3.27-1.05,3.83-2.99,.79-2.75-.68-5.16-3.52-5.55-1.31-.18-2.65-.06-3.98-.13-.63-.03-.78,.23-.77,.78,.02,1.2,0,2.4,0,3.6Z"/><path d="M80.79,71.96c-2.01,0-3.91,0-5.81,0q-1.03,0-1.03-1.03c0-2.19,0-2.2,2.2-2.21,4.79,0,9.59,0,14.38-.02,.64,0,.92,.15,.85,.83-.06,.57-.05,1.15,0,1.73,.05,.58-.2,.72-.74,.71-1.76-.03-3.51,.02-5.27-.02-.73-.02-.93,.23-.93,.95,.02,7.59,0,15.18,.03,22.78,0,.75-.18,1.05-.96,.96-.54-.06-1.1-.01-1.65-.01q-1.07,0-1.07-1.04c0-4.76,0-9.52,0-14.28v-8.19c0-.3,0-.59,0-1.15Z"/><path d="M44.39,82.67c0,4.38-.01,8.77,.01,13.15,0,.61-.15,.86-.79,.81-.75-.05-1.51-.03-2.26,0-.5,.02-.66-.18-.65-.66,.03-.75,0-1.5,0-2.25,0-7.99,0-15.98,0-23.98q0-1.03,1.02-1.03c.65,0,1.31,.03,1.96,0,.57-.04,.72,.19,.72,.74-.02,4.41-.01,8.82-.01,13.23Z"/></g></g></g></g></svg>